<?xml version="1.0" encoding="utf-8" standalone="no"?>
<!DOCTYPE svg PUBLIC "-//W3C//DTD SVG 1.1//EN"
  "http://www.w3.org/Graphics/SVG/1.1/DTD/svg11.dtd">
<svg xmlns:xlink="http://www.w3.org/1999/xlink" width="720pt" height="576pt" viewBox="0 0 720 576" xmlns="http://www.w3.org/2000/svg" version="1.1">
 <metadata>
  <rdf:RDF xmlns:dc="http://purl.org/dc/elements/1.1/" xmlns:cc="http://creativecommons.org/ns#" xmlns:rdf="http://www.w3.org/1999/02/22-rdf-syntax-ns#">
   <cc:Work>
    <dc:type rdf:resource="http://purl.org/dc/dcmitype/StillImage"/>
    <dc:date>2024-09-02T12:50:14.787133</dc:date>
    <dc:format>image/svg+xml</dc:format>
    <dc:creator>
     <cc:Agent>
      <dc:title>Matplotlib v3.8.2, https://matplotlib.org/</dc:title>
     </cc:Agent>
    </dc:creator>
   </cc:Work>
  </rdf:RDF>
 </metadata>
 <defs>
  <style type="text/css">*{stroke-linejoin: round; stroke-linecap: butt}</style>
 </defs>
 <g id="figure_1">
  <g id="patch_1">
   <path d="M 0 576 
L 720 576 
L 720 0 
L 0 0 
z
" style="fill: #ffffff"/>
  </g>
  <g id="axes_1">
   <g id="patch_2">
    <path d="M 90 512.64 
L 648 512.64 
L 648 69.12 
L 90 69.12 
z
" style="fill: #ffffff"/>
   </g>
   <g id="PathCollection_1">
    <path d="M 115.363636 518.460762 
C 122.253815 518.460762 128.862717 515.723265 133.734809 510.851173 
C 138.606901 505.979081 141.344398 499.370179 141.344398 492.48 
C 141.344398 485.589821 138.606901 478.980919 133.734809 474.108827 
C 128.862717 469.236735 122.253815 466.499238 115.363636 466.499238 
C 108.473458 466.499238 101.864555 469.236735 96.992463 474.108827 
C 92.120371 478.980919 89.382874 485.589821 89.382874 492.48 
C 89.382874 499.370179 92.120371 505.979081 96.992463 510.851173 
C 101.864555 515.723265 108.473458 518.460762 115.363636 518.460762 
z
" clip-path="url(#p7e23d831a4)" style="fill: #0000ff; fill-opacity: 0.6; stroke: #ffffff; stroke-opacity: 0.6; stroke-width: 2"/>
    <path d="M 115.363636 515.932079 
C 121.5832 515.932079 127.548864 513.46102 131.94676 509.063124 
C 136.344656 504.665228 138.815715 498.699564 138.815715 492.48 
C 138.815715 486.260436 136.344656 480.294772 131.94676 475.896876 
C 127.548864 471.49898 121.5832 469.027921 115.363636 469.027921 
C 109.144072 469.027921 103.178408 471.49898 98.780512 475.896876 
C 94.382617 480.294772 91.911558 486.260436 91.911558 492.48 
C 91.911558 498.699564 94.382617 504.665228 98.780512 509.063124 
C 103.178408 513.46102 109.144072 515.932079 115.363636 515.932079 
z
" clip-path="url(#p7e23d831a4)" style="fill: #008000; fill-opacity: 0.6; stroke: #ffffff; stroke-opacity: 0.6; stroke-width: 2"/>
    <path d="M 115.363636 504.727449 
C 118.611698 504.727449 121.727164 503.43698 124.02389 501.140254 
C 126.320617 498.843528 127.611085 495.728061 127.611085 492.48 
C 127.611085 489.231939 126.320617 486.116472 124.02389 483.819746 
C 121.727164 481.52302 118.611698 480.232551 115.363636 480.232551 
C 112.115575 480.232551 109.000109 481.52302 106.703382 483.819746 
C 104.406656 486.116472 103.116188 489.231939 103.116188 492.48 
C 103.116188 495.728061 104.406656 498.843528 106.703382 501.140254 
C 109.000109 503.43698 112.115575 504.727449 115.363636 504.727449 
z
" clip-path="url(#p7e23d831a4)" style="fill: #ff0000; fill-opacity: 0.6; stroke: #ffffff; stroke-opacity: 0.6; stroke-width: 2"/>
    <path d="M 115.363636 505.708757 
C 118.871944 505.708757 122.237032 504.314891 124.71778 501.834143 
C 127.198528 499.353396 128.592393 495.988307 128.592393 492.48 
C 128.592393 488.971693 127.198528 485.606604 124.71778 483.125857 
C 122.237032 480.645109 118.871944 479.251243 115.363636 479.251243 
C 111.855329 479.251243 108.490241 480.645109 106.009493 483.125857 
C 103.528745 485.606604 102.13488 488.971693 102.13488 492.48 
C 102.13488 495.988307 103.528745 499.353396 106.009493 501.834143 
C 108.490241 504.314891 111.855329 505.708757 115.363636 505.708757 
z
" clip-path="url(#p7e23d831a4)" style="fill: #800080; fill-opacity: 0.6; stroke: #ffffff; stroke-opacity: 0.6; stroke-width: 2"/>
    <path d="M 115.363636 371.308757 
C 118.871944 371.308757 122.237032 369.914891 124.71778 367.434143 
C 127.198528 364.953396 128.592393 361.588307 128.592393 358.08 
C 128.592393 354.571693 127.198528 351.206604 124.71778 348.725857 
C 122.237032 346.245109 118.871944 344.851243 115.363636 344.851243 
C 111.855329 344.851243 108.490241 346.245109 106.009493 348.725857 
C 103.528745 351.206604 102.13488 354.571693 102.13488 358.08 
C 102.13488 361.588307 103.528745 364.953396 106.009493 367.434143 
C 108.490241 369.914891 111.855329 371.308757 115.363636 371.308757 
z
" clip-path="url(#p7e23d831a4)" style="fill: #0000ff; fill-opacity: 0.6; stroke: #ffffff; stroke-opacity: 0.6; stroke-width: 2"/>
    <path d="M 115.363636 378.08 
C 120.667698 378.08 125.755234 375.972674 129.505772 372.222136 
C 133.25631 368.471597 135.363636 363.384062 135.363636 358.08 
C 135.363636 352.775938 133.25631 347.688403 129.505772 343.937864 
C 125.755234 340.187326 120.667698 338.08 115.363636 338.08 
C 110.059574 338.08 104.972039 340.187326 101.221501 343.937864 
C 97.470963 347.688403 95.363636 352.775938 95.363636 358.08 
C 95.363636 363.384062 97.470963 368.471597 101.221501 372.222136 
C 104.972039 375.972674 110.059574 378.08 115.363636 378.08 
z
" clip-path="url(#p7e23d831a4)" style="fill: #008000; fill-opacity: 0.6; stroke: #ffffff; stroke-opacity: 0.6; stroke-width: 2"/>
    <path d="M 115.363636 382.574897 
C 121.859759 382.574897 128.090692 379.993961 132.684144 375.400508 
C 137.277597 370.807056 139.858534 364.576123 139.858534 358.08 
C 139.858534 351.583877 137.277597 345.352944 132.684144 340.759492 
C 128.090692 336.166039 121.859759 333.585103 115.363636 333.585103 
C 108.867514 333.585103 102.636581 336.166039 98.043128 340.759492 
C 93.449676 345.352944 90.868739 351.583877 90.868739 358.08 
C 90.868739 364.576123 93.449676 370.807056 98.043128 375.400508 
C 102.636581 379.993961 108.867514 382.574897 115.363636 382.574897 
z
" clip-path="url(#p7e23d831a4)" style="fill: #ff0000; fill-opacity: 0.6; stroke: #ffffff; stroke-opacity: 0.6; stroke-width: 2"/>
    <path d="M 115.363636 374.663124 
C 119.761532 374.663124 123.979894 372.915821 127.089676 369.806039 
C 130.199458 366.696257 131.94676 362.477896 131.94676 358.08 
C 131.94676 353.682104 130.199458 349.463743 127.089676 346.353961 
C 123.979894 343.244179 119.761532 341.496876 115.363636 341.496876 
C 110.96574 341.496876 106.747379 343.244179 103.637597 346.353961 
C 100.527815 349.463743 98.780512 353.682104 98.780512 358.08 
C 98.780512 362.477896 100.527815 366.696257 103.637597 369.806039 
C 106.747379 372.915821 110.96574 374.663124 115.363636 374.663124 
z
" clip-path="url(#p7e23d831a4)" style="fill: #800080; fill-opacity: 0.6; stroke: #ffffff; stroke-opacity: 0.6; stroke-width: 2"/>
    <path d="M 115.363636 230.751068 
C 117.238905 230.751068 119.037621 230.006016 120.363636 228.68 
C 121.689652 227.353984 122.434704 225.555269 122.434704 223.68 
C 122.434704 221.804731 121.689652 220.006016 120.363636 218.68 
C 119.037621 217.353984 117.238905 216.608932 115.363636 216.608932 
C 113.488367 216.608932 111.689652 217.353984 110.363636 218.68 
C 109.037621 220.006016 108.292569 221.804731 108.292569 223.68 
C 108.292569 225.555269 109.037621 227.353984 110.363636 228.68 
C 111.689652 230.006016 113.488367 230.751068 115.363636 230.751068 
z
" clip-path="url(#p7e23d831a4)" style="fill: #0000ff; fill-opacity: 0.6; stroke: #ffffff; stroke-opacity: 0.6; stroke-width: 2"/>
    <path d="M 115.363636 234.86034 
C 118.328697 234.86034 121.172716 233.682309 123.269331 231.585694 
C 125.365945 229.48908 126.543976 226.645061 126.543976 223.68 
C 126.543976 220.714939 125.365945 217.87092 123.269331 215.774306 
C 121.172716 213.677691 118.328697 212.49966 115.363636 212.49966 
C 112.398576 212.49966 109.554557 213.677691 107.457942 215.774306 
C 105.361328 217.87092 104.183296 220.714939 104.183296 223.68 
C 104.183296 226.645061 105.361328 229.48908 107.457942 231.585694 
C 109.554557 233.682309 112.398576 234.86034 115.363636 234.86034 
z
" clip-path="url(#p7e23d831a4)" style="fill: #008000; fill-opacity: 0.6; stroke: #ffffff; stroke-opacity: 0.6; stroke-width: 2"/>
    <path d="M 115.363636 234.86034 
C 118.328697 234.86034 121.172716 233.682309 123.269331 231.585694 
C 125.365945 229.48908 126.543976 226.645061 126.543976 223.68 
C 126.543976 220.714939 125.365945 217.87092 123.269331 215.774306 
C 121.172716 213.677691 118.328697 212.49966 115.363636 212.49966 
C 112.398576 212.49966 109.554557 213.677691 107.457942 215.774306 
C 105.361328 217.87092 104.183296 220.714939 104.183296 223.68 
C 104.183296 226.645061 105.361328 229.48908 107.457942 231.585694 
C 109.554557 233.682309 112.398576 234.86034 115.363636 234.86034 
z
" clip-path="url(#p7e23d831a4)" style="fill: #ff0000; fill-opacity: 0.6; stroke: #ffffff; stroke-opacity: 0.6; stroke-width: 2"/>
    <path d="M 115.363636 236.908757 
C 118.871944 236.908757 122.237032 235.514891 124.71778 233.034143 
C 127.198528 230.553396 128.592393 227.188307 128.592393 223.68 
C 128.592393 220.171693 127.198528 216.806604 124.71778 214.325857 
C 122.237032 211.845109 118.871944 210.451243 115.363636 210.451243 
C 111.855329 210.451243 108.490241 211.845109 106.009493 214.325857 
C 103.528745 216.806604 102.13488 220.171693 102.13488 223.68 
C 102.13488 227.188307 103.528745 230.553396 106.009493 233.034143 
C 108.490241 235.514891 111.855329 236.908757 115.363636 236.908757 
z
" clip-path="url(#p7e23d831a4)" style="fill: #800080; fill-opacity: 0.6; stroke: #ffffff; stroke-opacity: 0.6; stroke-width: 2"/>
    <path d="M 115.363636 100.46034 
C 118.328697 100.46034 121.172716 99.282309 123.269331 97.185694 
C 125.365945 95.08908 126.543976 92.245061 126.543976 89.28 
C 126.543976 86.314939 125.365945 83.47092 123.269331 81.374306 
C 121.172716 79.277691 118.328697 78.09966 115.363636 78.09966 
C 112.398576 78.09966 109.554557 79.277691 107.457942 81.374306 
C 105.361328 83.47092 104.183296 86.314939 104.183296 89.28 
C 104.183296 92.245061 105.361328 95.08908 107.457942 97.185694 
C 109.554557 99.282309 112.398576 100.46034 115.363636 100.46034 
z
" clip-path="url(#p7e23d831a4)" style="fill: #0000ff; fill-opacity: 0.6; stroke: #ffffff; stroke-opacity: 0.6; stroke-width: 2"/>
    <path d="M 115.363636 100.46034 
C 118.328697 100.46034 121.172716 99.282309 123.269331 97.185694 
C 125.365945 95.08908 126.543976 92.245061 126.543976 89.28 
C 126.543976 86.314939 125.365945 83.47092 123.269331 81.374306 
C 121.172716 79.277691 118.328697 78.09966 115.363636 78.09966 
C 112.398576 78.09966 109.554557 79.277691 107.457942 81.374306 
C 105.361328 83.47092 104.183296 86.314939 104.183296 89.28 
C 104.183296 92.245061 105.361328 95.08908 107.457942 97.185694 
C 109.554557 99.282309 112.398576 100.46034 115.363636 100.46034 
z
" clip-path="url(#p7e23d831a4)" style="fill: #008000; fill-opacity: 0.6; stroke: #ffffff; stroke-opacity: 0.6; stroke-width: 2"/>
    <path d="M 115.363636 94.28 
C 116.689652 94.28 117.961536 93.753168 118.89917 92.815534 
C 119.836805 91.877899 120.363636 90.606015 120.363636 89.28 
C 120.363636 87.953984 119.836805 86.682101 118.89917 85.744466 
C 117.961536 84.806832 116.689652 84.28 115.363636 84.28 
C 114.037621 84.28 112.765737 84.806832 111.828102 85.744466 
C 110.890468 86.682101 110.363636 87.953984 110.363636 89.28 
C 110.363636 90.606015 110.890468 91.877899 111.828102 92.815534 
C 112.765737 93.753168 114.037621 94.28 115.363636 94.28 
z
" clip-path="url(#p7e23d831a4)" style="fill: #ff0000; fill-opacity: 0.6; stroke: #ffffff; stroke-opacity: 0.6; stroke-width: 2"/>
    <path d="M 115.363636 100.46034 
C 118.328697 100.46034 121.172716 99.282309 123.269331 97.185694 
C 125.365945 95.08908 126.543976 92.245061 126.543976 89.28 
C 126.543976 86.314939 125.365945 83.47092 123.269331 81.374306 
C 121.172716 79.277691 118.328697 78.09966 115.363636 78.09966 
C 112.398576 78.09966 109.554557 79.277691 107.457942 81.374306 
C 105.361328 83.47092 104.183296 86.314939 104.183296 89.28 
C 104.183296 92.245061 105.361328 95.08908 107.457942 97.185694 
C 109.554557 99.282309 112.398576 100.46034 115.363636 100.46034 
z
" clip-path="url(#p7e23d831a4)" style="fill: #800080; fill-opacity: 0.6; stroke: #ffffff; stroke-opacity: 0.6; stroke-width: 2"/>
    <path d="M 199.909091 517.975098 
C 206.67047 517.975098 213.15583 515.288773 217.936847 510.507756 
C 222.717864 505.72674 225.404188 499.241379 225.404188 492.48 
C 225.404188 485.718621 222.717864 479.23326 217.936847 474.452244 
C 213.15583 469.671227 206.67047 466.984902 199.909091 466.984902 
C 193.147712 466.984902 186.662351 469.671227 181.881335 474.452244 
C 177.100318 479.23326 174.413993 485.718621 174.413993 492.48 
C 174.413993 499.241379 177.100318 505.72674 181.881335 510.507756 
C 186.662351 515.288773 193.147712 517.975098 199.909091 517.975098 
z
" clip-path="url(#p7e23d831a4)" style="fill: #0000ff; fill-opacity: 0.6; stroke: #ffffff; stroke-opacity: 0.6; stroke-width: 2"/>
    <path d="M 199.909091 509.063124 
C 204.306987 509.063124 208.525348 507.315821 211.63513 504.206039 
C 214.744912 501.096257 216.492215 496.877896 216.492215 492.48 
C 216.492215 488.082104 214.744912 483.863743 211.63513 480.753961 
C 208.525348 477.644179 204.306987 475.896876 199.909091 475.896876 
C 195.511195 475.896876 191.292834 477.644179 188.183052 480.753961 
C 185.07327 483.863743 183.325967 488.082104 183.325967 492.48 
C 183.325967 496.877896 185.07327 501.096257 188.183052 504.206039 
C 191.292834 507.315821 195.511195 509.063124 199.909091 509.063124 
z
" clip-path="url(#p7e23d831a4)" style="fill: #008000; fill-opacity: 0.6; stroke: #ffffff; stroke-opacity: 0.6; stroke-width: 2"/>
    <path d="M 199.909091 499.551068 
C 201.78436 499.551068 203.583075 498.806016 204.909091 497.48 
C 206.235106 496.153985 206.980159 494.355269 206.980159 492.48 
C 206.980159 490.604731 206.235106 488.806016 204.909091 487.48 
C 203.583075 486.153985 201.78436 485.408932 199.909091 485.408932 
C 198.033822 485.408932 196.235106 486.153985 194.909091 487.48 
C 193.583075 488.806016 192.838023 490.604731 192.838023 492.48 
C 192.838023 494.355269 193.583075 496.153985 194.909091 497.48 
C 196.235106 498.806016 198.033822 499.551068 199.909091 499.551068 
z
" clip-path="url(#p7e23d831a4)" style="fill: #ff0000; fill-opacity: 0.6; stroke: #ffffff; stroke-opacity: 0.6; stroke-width: 2"/>
    <path d="M 199.909091 499.551068 
C 201.78436 499.551068 203.583075 498.806016 204.909091 497.48 
C 206.235106 496.153985 206.980159 494.355269 206.980159 492.48 
C 206.980159 490.604731 206.235106 488.806016 204.909091 487.48 
C 203.583075 486.153985 201.78436 485.408932 199.909091 485.408932 
C 198.033822 485.408932 196.235106 486.153985 194.909091 487.48 
C 193.583075 488.806016 192.838023 490.604731 192.838023 492.48 
C 192.838023 494.355269 193.583075 496.153985 194.909091 497.48 
C 196.235106 498.806016 198.033822 499.551068 199.909091 499.551068 
z
" clip-path="url(#p7e23d831a4)" style="fill: #800080; fill-opacity: 0.6; stroke: #ffffff; stroke-opacity: 0.6; stroke-width: 2"/>
    <path d="M 199.909091 365.151068 
C 201.78436 365.151068 203.583075 364.406015 204.909091 363.08 
C 206.235106 361.753985 206.980159 359.955269 206.980159 358.08 
C 206.980159 356.204731 206.235106 354.406015 204.909091 353.08 
C 203.583075 351.753985 201.78436 351.008932 199.909091 351.008932 
C 198.033822 351.008932 196.235106 351.753985 194.909091 353.08 
C 193.583075 354.406015 192.838023 356.204731 192.838023 358.08 
C 192.838023 359.955269 193.583075 361.753985 194.909091 363.08 
C 196.235106 364.406015 198.033822 365.151068 199.909091 365.151068 
z
" clip-path="url(#p7e23d831a4)" style="fill: #0000ff; fill-opacity: 0.6; stroke: #ffffff; stroke-opacity: 0.6; stroke-width: 2"/>
    <path d="M 199.909091 373.08 
C 203.887137 373.08 207.702789 371.499505 210.515693 368.686602 
C 213.328596 365.873698 214.909091 362.058046 214.909091 358.08 
C 214.909091 354.101953 213.328596 350.286302 210.515693 347.473398 
C 207.702789 344.660495 203.887137 343.08 199.909091 343.08 
C 195.931044 343.08 192.115393 344.660495 189.302489 347.473398 
C 186.489586 350.286302 184.909091 354.101953 184.909091 358.08 
C 184.909091 362.058046 186.489586 365.873698 189.302489 368.686602 
C 192.115393 371.499505 195.931044 373.08 199.909091 373.08 
z
" clip-path="url(#p7e23d831a4)" style="fill: #008000; fill-opacity: 0.6; stroke: #ffffff; stroke-opacity: 0.6; stroke-width: 2"/>
    <path d="M 199.909091 377.444917 
C 205.044727 377.444917 209.970712 375.404507 213.602155 371.773064 
C 217.233598 368.141621 219.274008 363.215636 219.274008 358.08 
C 219.274008 352.944364 217.233598 348.018379 213.602155 344.386936 
C 209.970712 340.755493 205.044727 338.715083 199.909091 338.715083 
C 194.773455 338.715083 189.84747 340.755493 186.216027 344.386936 
C 182.584584 348.018379 180.544174 352.944364 180.544174 358.08 
C 180.544174 363.215636 182.584584 368.141621 186.216027 371.773064 
C 189.84747 375.404507 194.773455 377.444917 199.909091 377.444917 
z
" clip-path="url(#p7e23d831a4)" style="fill: #ff0000; fill-opacity: 0.6; stroke: #ffffff; stroke-opacity: 0.6; stroke-width: 2"/>
    <path d="M 199.909091 368.08 
C 202.561122 368.08 205.10489 367.026337 206.980159 365.151068 
C 208.855428 363.275799 209.909091 360.732031 209.909091 358.08 
C 209.909091 355.427969 208.855428 352.884201 206.980159 351.008932 
C 205.10489 349.133663 202.561122 348.08 199.909091 348.08 
C 197.25706 348.08 194.713292 349.133663 192.838023 351.008932 
C 190.962754 352.884201 189.909091 355.427969 189.909091 358.08 
C 189.909091 360.732031 190.962754 363.275799 192.838023 365.151068 
C 194.713292 367.026337 197.25706 368.08 199.909091 368.08 
z
" clip-path="url(#p7e23d831a4)" style="fill: #800080; fill-opacity: 0.6; stroke: #ffffff; stroke-opacity: 0.6; stroke-width: 2"/>
    <path d="M 199.909091 228.68 
C 201.235106 228.68 202.50699 228.153168 203.444625 227.215534 
C 204.382259 226.277899 204.909091 225.006016 204.909091 223.68 
C 204.909091 222.353984 204.382259 221.082101 203.444625 220.144466 
C 202.50699 219.206832 201.235106 218.68 199.909091 218.68 
C 198.583075 218.68 197.311192 219.206832 196.373557 220.144466 
C 195.435922 221.082101 194.909091 222.353984 194.909091 223.68 
C 194.909091 225.006016 195.435922 226.277899 196.373557 227.215534 
C 197.311192 228.153168 198.583075 228.68 199.909091 228.68 
z
" clip-path="url(#p7e23d831a4)" style="fill: #0000ff; fill-opacity: 0.6; stroke: #ffffff; stroke-opacity: 0.6; stroke-width: 2"/>
    <path d="M 199.909091 233.68 
C 202.561122 233.68 205.10489 232.626337 206.980159 230.751068 
C 208.855428 228.875799 209.909091 226.332031 209.909091 223.68 
C 209.909091 221.027969 208.855428 218.484201 206.980159 216.608932 
C 205.10489 214.733663 202.561122 213.68 199.909091 213.68 
C 197.25706 213.68 194.713292 214.733663 192.838023 216.608932 
C 190.962754 218.484201 189.909091 221.027969 189.909091 223.68 
C 189.909091 226.332031 190.962754 228.875799 192.838023 230.751068 
C 194.713292 232.626337 197.25706 233.68 199.909091 233.68 
z
" clip-path="url(#p7e23d831a4)" style="fill: #008000; fill-opacity: 0.6; stroke: #ffffff; stroke-opacity: 0.6; stroke-width: 2"/>
    <path d="M 199.909091 232.340254 
C 202.205817 232.340254 204.408785 231.427755 206.032815 229.803724 
C 207.656846 228.179694 208.569345 225.976726 208.569345 223.68 
C 208.569345 221.383274 207.656846 219.180306 206.032815 217.556276 
C 204.408785 215.932245 202.205817 215.019746 199.909091 215.019746 
C 197.612365 215.019746 195.409397 215.932245 193.785367 217.556276 
C 192.161336 219.180306 191.248837 221.383274 191.248837 223.68 
C 191.248837 225.976726 192.161336 228.179694 193.785367 229.803724 
C 195.409397 231.427755 197.612365 232.340254 199.909091 232.340254 
z
" clip-path="url(#p7e23d831a4)" style="fill: #ff0000; fill-opacity: 0.6; stroke: #ffffff; stroke-opacity: 0.6; stroke-width: 2"/>
    <path d="M 199.909091 234.86034 
C 202.874152 234.86034 205.71817 233.682309 207.814785 231.585694 
C 209.9114 229.48908 211.089431 226.645061 211.089431 223.68 
C 211.089431 220.714939 209.9114 217.87092 207.814785 215.774306 
C 205.71817 213.677691 202.874152 212.49966 199.909091 212.49966 
C 196.94403 212.49966 194.100011 213.677691 192.003397 215.774306 
C 189.906782 217.87092 188.728751 220.714939 188.728751 223.68 
C 188.728751 226.645061 189.906782 229.48908 192.003397 231.585694 
C 194.100011 233.682309 196.94403 234.86034 199.909091 234.86034 
z
" clip-path="url(#p7e23d831a4)" style="fill: #800080; fill-opacity: 0.6; stroke: #ffffff; stroke-opacity: 0.6; stroke-width: 2"/>
    <path d="M 199.909091 94.28 
C 201.235106 94.28 202.50699 93.753168 203.444625 92.815534 
C 204.382259 91.877899 204.909091 90.606015 204.909091 89.28 
C 204.909091 87.953984 204.382259 86.682101 203.444625 85.744466 
C 202.50699 84.806832 201.235106 84.28 199.909091 84.28 
C 198.583075 84.28 197.311192 84.806832 196.373557 85.744466 
C 195.435922 86.682101 194.909091 87.953984 194.909091 89.28 
C 194.909091 90.606015 195.435922 91.877899 196.373557 92.815534 
C 197.311192 93.753168 198.583075 94.28 199.909091 94.28 
z
" clip-path="url(#p7e23d831a4)" style="fill: #0000ff; fill-opacity: 0.6; stroke: #ffffff; stroke-opacity: 0.6; stroke-width: 2"/>
    <path d="M 199.909091 94.28 
C 201.235106 94.28 202.50699 93.753168 203.444625 92.815534 
C 204.382259 91.877899 204.909091 90.606015 204.909091 89.28 
C 204.909091 87.953984 204.382259 86.682101 203.444625 85.744466 
C 202.50699 84.806832 201.235106 84.28 199.909091 84.28 
C 198.583075 84.28 197.311192 84.806832 196.373557 85.744466 
C 195.435922 86.682101 194.909091 87.953984 194.909091 89.28 
C 194.909091 90.606015 195.435922 91.877899 196.373557 92.815534 
C 197.311192 93.753168 198.583075 94.28 199.909091 94.28 
z
" clip-path="url(#p7e23d831a4)" style="fill: #008000; fill-opacity: 0.6; stroke: #ffffff; stroke-opacity: 0.6; stroke-width: 2"/>
    <path d="M 199.909091 94.28 
C 201.235106 94.28 202.50699 93.753168 203.444625 92.815534 
C 204.382259 91.877899 204.909091 90.606015 204.909091 89.28 
C 204.909091 87.953984 204.382259 86.682101 203.444625 85.744466 
C 202.50699 84.806832 201.235106 84.28 199.909091 84.28 
C 198.583075 84.28 197.311192 84.806832 196.373557 85.744466 
C 195.435922 86.682101 194.909091 87.953984 194.909091 89.28 
C 194.909091 90.606015 195.435922 91.877899 196.373557 92.815534 
C 197.311192 93.753168 198.583075 94.28 199.909091 94.28 
z
" clip-path="url(#p7e23d831a4)" style="fill: #800080; fill-opacity: 0.6; stroke: #ffffff; stroke-opacity: 0.6; stroke-width: 2"/>
    <path d="M 284.454545 510.507756 
C 289.235562 510.507756 293.821405 508.608238 297.202094 505.227549 
C 300.582784 501.846859 302.482302 497.261017 302.482302 492.48 
C 302.482302 487.698983 300.582784 483.113141 297.202094 479.732451 
C 293.821405 476.351762 289.235562 474.452244 284.454545 474.452244 
C 279.673529 474.452244 275.087686 476.351762 271.706997 479.732451 
C 268.326307 483.113141 266.426789 487.698983 266.426789 492.48 
C 266.426789 497.261017 268.326307 501.846859 271.706997 505.227549 
C 275.087686 508.608238 279.673529 510.507756 284.454545 510.507756 
z
" clip-path="url(#p7e23d831a4)" style="fill: #0000ff; fill-opacity: 0.6; stroke: #ffffff; stroke-opacity: 0.6; stroke-width: 2"/>
    <path d="M 284.454545 501.140254 
C 286.751272 501.140254 288.954239 500.227755 290.57827 498.603724 
C 292.2023 496.979694 293.114799 494.776726 293.114799 492.48 
C 293.114799 490.183274 292.2023 487.980306 290.57827 486.356276 
C 288.954239 484.732245 286.751272 483.819746 284.454545 483.819746 
C 282.157819 483.819746 279.954852 484.732245 278.330821 486.356276 
C 276.70679 487.980306 275.794291 490.183274 275.794291 492.48 
C 275.794291 494.776726 276.70679 496.979694 278.330821 498.603724 
C 279.954852 500.227755 282.157819 501.140254 284.454545 501.140254 
z
" clip-path="url(#p7e23d831a4)" style="fill: #008000; fill-opacity: 0.6; stroke: #ffffff; stroke-opacity: 0.6; stroke-width: 2"/>
    <path d="M 284.454545 497.48 
C 285.780561 497.48 287.052445 496.953168 287.990079 496.015534 
C 288.927714 495.077899 289.454545 493.806016 289.454545 492.48 
C 289.454545 491.153985 288.927714 489.882101 287.990079 488.944466 
C 287.052445 488.006832 285.780561 487.48 284.454545 487.48 
C 283.12853 487.48 281.856646 488.006832 280.919012 488.944466 
C 279.981377 489.882101 279.454545 491.153985 279.454545 492.48 
C 279.454545 493.806016 279.981377 495.077899 280.919012 496.015534 
C 281.856646 496.953168 283.12853 497.48 284.454545 497.48 
z
" clip-path="url(#p7e23d831a4)" style="fill: #ff0000; fill-opacity: 0.6; stroke: #ffffff; stroke-opacity: 0.6; stroke-width: 2"/>
    <path d="M 284.454545 497.48 
C 285.780561 497.48 287.052445 496.953168 287.990079 496.015534 
C 288.927714 495.077899 289.454545 493.806016 289.454545 492.48 
C 289.454545 491.153985 288.927714 489.882101 287.990079 488.944466 
C 287.052445 488.006832 285.780561 487.48 284.454545 487.48 
C 283.12853 487.48 281.856646 488.006832 280.919012 488.944466 
C 279.981377 489.882101 279.454545 491.153985 279.454545 492.48 
C 279.454545 493.806016 279.981377 495.077899 280.919012 496.015534 
C 281.856646 496.953168 283.12853 497.48 284.454545 497.48 
z
" clip-path="url(#p7e23d831a4)" style="fill: #800080; fill-opacity: 0.6; stroke: #ffffff; stroke-opacity: 0.6; stroke-width: 2"/>
    <path d="M 284.454545 363.08 
C 285.780561 363.08 287.052445 362.553168 287.990079 361.615534 
C 288.927714 360.677899 289.454545 359.406015 289.454545 358.08 
C 289.454545 356.753985 288.927714 355.482101 287.990079 354.544466 
C 287.052445 353.606832 285.780561 353.08 284.454545 353.08 
C 283.12853 353.08 281.856646 353.606832 280.919012 354.544466 
C 279.981377 355.482101 279.454545 356.753985 279.454545 358.08 
C 279.454545 359.406015 279.981377 360.677899 280.919012 361.615534 
C 281.856646 362.553168 283.12853 363.08 284.454545 363.08 
z
" clip-path="url(#p7e23d831a4)" style="fill: #0000ff; fill-opacity: 0.6; stroke: #ffffff; stroke-opacity: 0.6; stroke-width: 2"/>
    <path d="M 284.454545 368.08 
C 287.106576 368.08 289.650344 367.026337 291.525613 365.151068 
C 293.400882 363.275799 294.454545 360.732031 294.454545 358.08 
C 294.454545 355.427969 293.400882 352.884201 291.525613 351.008932 
C 289.650344 349.133663 287.106576 348.08 284.454545 348.08 
C 281.802514 348.08 279.258747 349.133663 277.383478 351.008932 
C 275.508209 352.884201 274.454545 355.427969 274.454545 358.08 
C 274.454545 360.732031 275.508209 363.275799 277.383478 365.151068 
C 279.258747 367.026337 281.802514 368.08 284.454545 368.08 
z
" clip-path="url(#p7e23d831a4)" style="fill: #008000; fill-opacity: 0.6; stroke: #ffffff; stroke-opacity: 0.6; stroke-width: 2"/>
    <path d="M 284.454545 373.08 
C 288.432592 373.08 292.248244 371.499505 295.061147 368.686602 
C 297.874051 365.873698 299.454545 362.058046 299.454545 358.08 
C 299.454545 354.101953 297.874051 350.286302 295.061147 347.473398 
C 292.248244 344.660495 288.432592 343.08 284.454545 343.08 
C 280.476499 343.08 276.660847 344.660495 273.847944 347.473398 
C 271.03504 350.286302 269.454545 354.101953 269.454545 358.08 
C 269.454545 362.058046 271.03504 365.873698 273.847944 368.686602 
C 276.660847 371.499505 280.476499 373.08 284.454545 373.08 
z
" clip-path="url(#p7e23d831a4)" style="fill: #ff0000; fill-opacity: 0.6; stroke: #ffffff; stroke-opacity: 0.6; stroke-width: 2"/>
    <path d="M 284.454545 363.08 
C 285.780561 363.08 287.052445 362.553168 287.990079 361.615534 
C 288.927714 360.677899 289.454545 359.406015 289.454545 358.08 
C 289.454545 356.753985 288.927714 355.482101 287.990079 354.544466 
C 287.052445 353.606832 285.780561 353.08 284.454545 353.08 
C 283.12853 353.08 281.856646 353.606832 280.919012 354.544466 
C 279.981377 355.482101 279.454545 356.753985 279.454545 358.08 
C 279.454545 359.406015 279.981377 360.677899 280.919012 361.615534 
C 281.856646 362.553168 283.12853 363.08 284.454545 363.08 
z
" clip-path="url(#p7e23d831a4)" style="fill: #800080; fill-opacity: 0.6; stroke: #ffffff; stroke-opacity: 0.6; stroke-width: 2"/>
    <path d="M 284.454545 228.68 
C 285.780561 228.68 287.052445 228.153168 287.990079 227.215534 
C 288.927714 226.277899 289.454545 225.006016 289.454545 223.68 
C 289.454545 222.353984 288.927714 221.082101 287.990079 220.144466 
C 287.052445 219.206832 285.780561 218.68 284.454545 218.68 
C 283.12853 218.68 281.856646 219.206832 280.919012 220.144466 
C 279.981377 221.082101 279.454545 222.353984 279.454545 223.68 
C 279.454545 225.006016 279.981377 226.277899 280.919012 227.215534 
C 281.856646 228.153168 283.12853 228.68 284.454545 228.68 
z
" clip-path="url(#p7e23d831a4)" style="fill: #008000; fill-opacity: 0.6; stroke: #ffffff; stroke-opacity: 0.6; stroke-width: 2"/>
    <path d="M 284.454545 230.751068 
C 286.329815 230.751068 288.12853 230.006016 289.454545 228.68 
C 290.780561 227.353984 291.525613 225.555269 291.525613 223.68 
C 291.525613 221.804731 290.780561 220.006016 289.454545 218.68 
C 288.12853 217.353984 286.329815 216.608932 284.454545 216.608932 
C 282.579276 216.608932 280.780561 217.353984 279.454545 218.68 
C 278.12853 220.006016 277.383478 221.804731 277.383478 223.68 
C 277.383478 225.555269 278.12853 227.353984 279.454545 228.68 
C 280.780561 230.006016 282.579276 230.751068 284.454545 230.751068 
z
" clip-path="url(#p7e23d831a4)" style="fill: #800080; fill-opacity: 0.6; stroke: #ffffff; stroke-opacity: 0.6; stroke-width: 2"/>
    <path d="M 284.454545 94.28 
C 285.780561 94.28 287.052445 93.753168 287.990079 92.815534 
C 288.927714 91.877899 289.454545 90.606015 289.454545 89.28 
C 289.454545 87.953984 288.927714 86.682101 287.990079 85.744466 
C 287.052445 84.806832 285.780561 84.28 284.454545 84.28 
C 283.12853 84.28 281.856646 84.806832 280.919012 85.744466 
C 279.981377 86.682101 279.454545 87.953984 279.454545 89.28 
C 279.454545 90.606015 279.981377 91.877899 280.919012 92.815534 
C 281.856646 93.753168 283.12853 94.28 284.454545 94.28 
z
" clip-path="url(#p7e23d831a4)" style="fill: #0000ff; fill-opacity: 0.6; stroke: #ffffff; stroke-opacity: 0.6; stroke-width: 2"/>
    <path d="M 284.454545 94.28 
C 285.780561 94.28 287.052445 93.753168 287.990079 92.815534 
C 288.927714 91.877899 289.454545 90.606015 289.454545 89.28 
C 289.454545 87.953984 288.927714 86.682101 287.990079 85.744466 
C 287.052445 84.806832 285.780561 84.28 284.454545 84.28 
C 283.12853 84.28 281.856646 84.806832 280.919012 85.744466 
C 279.981377 86.682101 279.454545 87.953984 279.454545 89.28 
C 279.454545 90.606015 279.981377 91.877899 280.919012 92.815534 
C 281.856646 93.753168 283.12853 94.28 284.454545 94.28 
z
" clip-path="url(#p7e23d831a4)" style="fill: #008000; fill-opacity: 0.6; stroke: #ffffff; stroke-opacity: 0.6; stroke-width: 2"/>
    <path d="M 284.454545 94.28 
C 285.780561 94.28 287.052445 93.753168 287.990079 92.815534 
C 288.927714 91.877899 289.454545 90.606015 289.454545 89.28 
C 289.454545 87.953984 288.927714 86.682101 287.990079 85.744466 
C 287.052445 84.806832 285.780561 84.28 284.454545 84.28 
C 283.12853 84.28 281.856646 84.806832 280.919012 85.744466 
C 279.981377 86.682101 279.454545 87.953984 279.454545 89.28 
C 279.454545 90.606015 279.981377 91.877899 280.919012 92.815534 
C 281.856646 93.753168 283.12853 94.28 284.454545 94.28 
z
" clip-path="url(#p7e23d831a4)" style="fill: #800080; fill-opacity: 0.6; stroke: #ffffff; stroke-opacity: 0.6; stroke-width: 2"/>
    <path d="M 369 509.800508 
C 373.593452 509.800508 377.999387 507.97551 381.247449 504.727449 
C 384.49551 501.479387 386.320508 497.073452 386.320508 492.48 
C 386.320508 487.886548 384.49551 483.480613 381.247449 480.232551 
C 377.999387 476.98449 373.593452 475.159492 369 475.159492 
C 364.406548 475.159492 360.000613 476.98449 356.752551 480.232551 
C 353.50449 483.480613 351.679492 487.886548 351.679492 492.48 
C 351.679492 497.073452 353.50449 501.479387 356.752551 504.727449 
C 360.000613 507.97551 364.406548 509.800508 369 509.800508 
z
" clip-path="url(#p7e23d831a4)" style="fill: #0000ff; fill-opacity: 0.6; stroke: #ffffff; stroke-opacity: 0.6; stroke-width: 2"/>
    <path d="M 369 502.48 
C 371.652031 502.48 374.195799 501.426337 376.071068 499.551068 
C 377.946337 497.675799 379 495.132031 379 492.48 
C 379 489.827969 377.946337 487.284201 376.071068 485.408932 
C 374.195799 483.533663 371.652031 482.48 369 482.48 
C 366.347969 482.48 363.804201 483.533663 361.928932 485.408932 
C 360.053663 487.284201 359 489.827969 359 492.48 
C 359 495.132031 360.053663 497.675799 361.928932 499.551068 
C 363.804201 501.426337 366.347969 502.48 369 502.48 
z
" clip-path="url(#p7e23d831a4)" style="fill: #008000; fill-opacity: 0.6; stroke: #ffffff; stroke-opacity: 0.6; stroke-width: 2"/>
    <path d="M 369 499.551068 
C 370.875269 499.551068 372.673985 498.806016 374 497.48 
C 375.326015 496.153985 376.071068 494.355269 376.071068 492.48 
C 376.071068 490.604731 375.326015 488.806016 374 487.48 
C 372.673985 486.153985 370.875269 485.408932 369 485.408932 
C 367.124731 485.408932 365.326015 486.153985 364 487.48 
C 362.673985 488.806016 361.928932 490.604731 361.928932 492.48 
C 361.928932 494.355269 362.673985 496.153985 364 497.48 
C 365.326015 498.806016 367.124731 499.551068 369 499.551068 
z
" clip-path="url(#p7e23d831a4)" style="fill: #ff0000; fill-opacity: 0.6; stroke: #ffffff; stroke-opacity: 0.6; stroke-width: 2"/>
    <path d="M 369 499.551068 
C 370.875269 499.551068 372.673985 498.806016 374 497.48 
C 375.326015 496.153985 376.071068 494.355269 376.071068 492.48 
C 376.071068 490.604731 375.326015 488.806016 374 487.48 
C 372.673985 486.153985 370.875269 485.408932 369 485.408932 
C 367.124731 485.408932 365.326015 486.153985 364 487.48 
C 362.673985 488.806016 361.928932 490.604731 361.928932 492.48 
C 361.928932 494.355269 362.673985 496.153985 364 497.48 
C 365.326015 498.806016 367.124731 499.551068 369 499.551068 
z
" clip-path="url(#p7e23d831a4)" style="fill: #800080; fill-opacity: 0.6; stroke: #ffffff; stroke-opacity: 0.6; stroke-width: 2"/>
    <path d="M 369 365.151068 
C 370.875269 365.151068 372.673985 364.406015 374 363.08 
C 375.326015 361.753985 376.071068 359.955269 376.071068 358.08 
C 376.071068 356.204731 375.326015 354.406015 374 353.08 
C 372.673985 351.753985 370.875269 351.008932 369 351.008932 
C 367.124731 351.008932 365.326015 351.753985 364 353.08 
C 362.673985 354.406015 361.928932 356.204731 361.928932 358.08 
C 361.928932 359.955269 362.673985 361.753985 364 363.08 
C 365.326015 364.406015 367.124731 365.151068 369 365.151068 
z
" clip-path="url(#p7e23d831a4)" style="fill: #0000ff; fill-opacity: 0.6; stroke: #ffffff; stroke-opacity: 0.6; stroke-width: 2"/>
    <path d="M 369 370.327449 
C 372.248061 370.327449 375.363528 369.03698 377.660254 366.740254 
C 379.95698 364.443528 381.247449 361.328061 381.247449 358.08 
C 381.247449 354.831939 379.95698 351.716472 377.660254 349.419746 
C 375.363528 347.12302 372.248061 345.832551 369 345.832551 
C 365.751939 345.832551 362.636472 347.12302 360.339746 349.419746 
C 358.04302 351.716472 356.752551 354.831939 356.752551 358.08 
C 356.752551 361.328061 358.04302 364.443528 360.339746 366.740254 
C 362.636472 369.03698 365.751939 370.327449 369 370.327449 
z
" clip-path="url(#p7e23d831a4)" style="fill: #008000; fill-opacity: 0.6; stroke: #ffffff; stroke-opacity: 0.6; stroke-width: 2"/>
    <path d="M 369 374.663124 
C 373.397896 374.663124 377.616257 372.915821 380.726039 369.806039 
C 383.835821 366.696257 385.583124 362.477896 385.583124 358.08 
C 385.583124 353.682104 383.835821 349.463743 380.726039 346.353961 
C 377.616257 343.244179 373.397896 341.496876 369 341.496876 
C 364.602104 341.496876 360.383743 343.244179 357.273961 346.353961 
C 354.164179 349.463743 352.416876 353.682104 352.416876 358.08 
C 352.416876 362.477896 354.164179 366.696257 357.273961 369.806039 
C 360.383743 372.915821 364.602104 374.663124 369 374.663124 
z
" clip-path="url(#p7e23d831a4)" style="fill: #ff0000; fill-opacity: 0.6; stroke: #ffffff; stroke-opacity: 0.6; stroke-width: 2"/>
    <path d="M 369 368.08 
C 371.652031 368.08 374.195799 367.026337 376.071068 365.151068 
C 377.946337 363.275799 379 360.732031 379 358.08 
C 379 355.427969 377.946337 352.884201 376.071068 351.008932 
C 374.195799 349.133663 371.652031 348.08 369 348.08 
C 366.347969 348.08 363.804201 349.133663 361.928932 351.008932 
C 360.053663 352.884201 359 355.427969 359 358.08 
C 359 360.732031 360.053663 363.275799 361.928932 365.151068 
C 363.804201 367.026337 366.347969 368.08 369 368.08 
z
" clip-path="url(#p7e23d831a4)" style="fill: #800080; fill-opacity: 0.6; stroke: #ffffff; stroke-opacity: 0.6; stroke-width: 2"/>
    <path d="M 369 228.68 
C 370.326015 228.68 371.597899 228.153168 372.535534 227.215534 
C 373.473168 226.277899 374 225.006016 374 223.68 
C 374 222.353984 373.473168 221.082101 372.535534 220.144466 
C 371.597899 219.206832 370.326015 218.68 369 218.68 
C 367.673985 218.68 366.402101 219.206832 365.464466 220.144466 
C 364.526832 221.082101 364 222.353984 364 223.68 
C 364 225.006016 364.526832 226.277899 365.464466 227.215534 
C 366.402101 228.153168 367.673985 228.68 369 228.68 
z
" clip-path="url(#p7e23d831a4)" style="fill: #0000ff; fill-opacity: 0.6; stroke: #ffffff; stroke-opacity: 0.6; stroke-width: 2"/>
    <path d="M 369 232.340254 
C 371.296726 232.340254 373.499694 231.427755 375.123724 229.803724 
C 376.747755 228.179694 377.660254 225.976726 377.660254 223.68 
C 377.660254 221.383274 376.747755 219.180306 375.123724 217.556276 
C 373.499694 215.932245 371.296726 215.019746 369 215.019746 
C 366.703274 215.019746 364.500306 215.932245 362.876276 217.556276 
C 361.252245 219.180306 360.339746 221.383274 360.339746 223.68 
C 360.339746 225.976726 361.252245 228.179694 362.876276 229.803724 
C 364.500306 231.427755 366.703274 232.340254 369 232.340254 
z
" clip-path="url(#p7e23d831a4)" style="fill: #008000; fill-opacity: 0.6; stroke: #ffffff; stroke-opacity: 0.6; stroke-width: 2"/>
    <path d="M 369 232.340254 
C 371.296726 232.340254 373.499694 231.427755 375.123724 229.803724 
C 376.747755 228.179694 377.660254 225.976726 377.660254 223.68 
C 377.660254 221.383274 376.747755 219.180306 375.123724 217.556276 
C 373.499694 215.932245 371.296726 215.019746 369 215.019746 
C 366.703274 215.019746 364.500306 215.932245 362.876276 217.556276 
C 361.252245 219.180306 360.339746 221.383274 360.339746 223.68 
C 360.339746 225.976726 361.252245 228.179694 362.876276 229.803724 
C 364.500306 231.427755 366.703274 232.340254 369 232.340254 
z
" clip-path="url(#p7e23d831a4)" style="fill: #ff0000; fill-opacity: 0.6; stroke: #ffffff; stroke-opacity: 0.6; stroke-width: 2"/>
    <path d="M 369 232.340254 
C 371.296726 232.340254 373.499694 231.427755 375.123724 229.803724 
C 376.747755 228.179694 377.660254 225.976726 377.660254 223.68 
C 377.660254 221.383274 376.747755 219.180306 375.123724 217.556276 
C 373.499694 215.932245 371.296726 215.019746 369 215.019746 
C 366.703274 215.019746 364.500306 215.932245 362.876276 217.556276 
C 361.252245 219.180306 360.339746 221.383274 360.339746 223.68 
C 360.339746 225.976726 361.252245 228.179694 362.876276 229.803724 
C 364.500306 231.427755 366.703274 232.340254 369 232.340254 
z
" clip-path="url(#p7e23d831a4)" style="fill: #800080; fill-opacity: 0.6; stroke: #ffffff; stroke-opacity: 0.6; stroke-width: 2"/>
    <path d="M 453.545455 511.844917 
C 458.68109 511.844917 463.607075 509.804507 467.238518 506.173064 
C 470.869961 502.541621 472.910371 497.615636 472.910371 492.48 
C 472.910371 487.344364 470.869961 482.418379 467.238518 478.786936 
C 463.607075 475.155493 458.68109 473.115083 453.545455 473.115083 
C 448.409819 473.115083 443.483834 475.155493 439.852391 478.786936 
C 436.220948 482.418379 434.180538 487.344364 434.180538 492.48 
C 434.180538 497.615636 436.220948 502.541621 439.852391 506.173064 
C 443.483834 509.804507 448.409819 511.844917 453.545455 511.844917 
z
" clip-path="url(#p7e23d831a4)" style="fill: #0000ff; fill-opacity: 0.6; stroke: #ffffff; stroke-opacity: 0.6; stroke-width: 2"/>
    <path d="M 453.545455 511.188287 
C 458.50695 511.188287 463.265904 509.217064 466.774211 505.708757 
C 470.282518 502.200449 472.253741 497.441496 472.253741 492.48 
C 472.253741 487.518504 470.282518 482.759551 466.774211 479.251243 
C 463.265904 475.742936 458.50695 473.771713 453.545455 473.771713 
C 448.583959 473.771713 443.825005 475.742936 440.316698 479.251243 
C 436.808391 482.759551 434.837168 487.518504 434.837168 492.48 
C 434.837168 497.441496 436.808391 502.200449 440.316698 505.708757 
C 443.825005 509.217064 448.583959 511.188287 453.545455 511.188287 
z
" clip-path="url(#p7e23d831a4)" style="fill: #008000; fill-opacity: 0.6; stroke: #ffffff; stroke-opacity: 0.6; stroke-width: 2"/>
    <path d="M 453.545455 501.140254 
C 455.842181 501.140254 458.045148 500.227755 459.669179 498.603724 
C 461.29321 496.979694 462.205709 494.776726 462.205709 492.48 
C 462.205709 490.183274 461.29321 487.980306 459.669179 486.356276 
C 458.045148 484.732245 455.842181 483.819746 453.545455 483.819746 
C 451.248728 483.819746 449.045761 484.732245 447.42173 486.356276 
C 445.7977 487.980306 444.885201 490.183274 444.885201 492.48 
C 444.885201 494.776726 445.7977 496.979694 447.42173 498.603724 
C 449.045761 500.227755 451.248728 501.140254 453.545455 501.140254 
z
" clip-path="url(#p7e23d831a4)" style="fill: #ff0000; fill-opacity: 0.6; stroke: #ffffff; stroke-opacity: 0.6; stroke-width: 2"/>
    <path d="M 453.545455 502.48 
C 456.197486 502.48 458.741253 501.426337 460.616522 499.551068 
C 462.491791 497.675799 463.545455 495.132031 463.545455 492.48 
C 463.545455 489.827969 462.491791 487.284201 460.616522 485.408932 
C 458.741253 483.533663 456.197486 482.48 453.545455 482.48 
C 450.893424 482.48 448.349656 483.533663 446.474387 485.408932 
C 444.599118 487.284201 443.545455 489.827969 443.545455 492.48 
C 443.545455 495.132031 444.599118 497.675799 446.474387 499.551068 
C 448.349656 501.426337 450.893424 502.48 453.545455 502.48 
z
" clip-path="url(#p7e23d831a4)" style="fill: #800080; fill-opacity: 0.6; stroke: #ffffff; stroke-opacity: 0.6; stroke-width: 2"/>
    <path d="M 453.545455 366.740254 
C 455.842181 366.740254 458.045148 365.827755 459.669179 364.203724 
C 461.29321 362.579694 462.205709 360.376726 462.205709 358.08 
C 462.205709 355.783274 461.29321 353.580306 459.669179 351.956276 
C 458.045148 350.332245 455.842181 349.419746 453.545455 349.419746 
C 451.248728 349.419746 449.045761 350.332245 447.42173 351.956276 
C 445.7977 353.580306 444.885201 355.783274 444.885201 358.08 
C 444.885201 360.376726 445.7977 362.579694 447.42173 364.203724 
C 449.045761 365.827755 451.248728 366.740254 453.545455 366.740254 
z
" clip-path="url(#p7e23d831a4)" style="fill: #0000ff; fill-opacity: 0.6; stroke: #ffffff; stroke-opacity: 0.6; stroke-width: 2"/>
    <path d="M 453.545455 369.26034 
C 456.510515 369.26034 459.354534 368.082309 461.451149 365.985694 
C 463.547763 363.88908 464.725794 361.045061 464.725794 358.08 
C 464.725794 355.114939 463.547763 352.27092 461.451149 350.174306 
C 459.354534 348.077691 456.510515 346.89966 453.545455 346.89966 
C 450.580394 346.89966 447.736375 348.077691 445.63976 350.174306 
C 443.543146 352.27092 442.365115 355.114939 442.365115 358.08 
C 442.365115 361.045061 443.543146 363.88908 445.63976 365.985694 
C 447.736375 368.082309 450.580394 369.26034 453.545455 369.26034 
z
" clip-path="url(#p7e23d831a4)" style="fill: #008000; fill-opacity: 0.6; stroke: #ffffff; stroke-opacity: 0.6; stroke-width: 2"/>
    <path d="M 453.545455 370.327449 
C 456.793516 370.327449 459.908982 369.03698 462.205709 366.740254 
C 464.502435 364.443528 465.792903 361.328061 465.792903 358.08 
C 465.792903 354.831939 464.502435 351.716472 462.205709 349.419746 
C 459.908982 347.12302 456.793516 345.832551 453.545455 345.832551 
C 450.297393 345.832551 447.181927 347.12302 444.885201 349.419746 
C 442.588474 351.716472 441.298006 354.831939 441.298006 358.08 
C 441.298006 361.328061 442.588474 364.443528 444.885201 366.740254 
C 447.181927 369.03698 450.297393 370.327449 453.545455 370.327449 
z
" clip-path="url(#p7e23d831a4)" style="fill: #ff0000; fill-opacity: 0.6; stroke: #ffffff; stroke-opacity: 0.6; stroke-width: 2"/>
    <path d="M 453.545455 368.08 
C 456.197486 368.08 458.741253 367.026337 460.616522 365.151068 
C 462.491791 363.275799 463.545455 360.732031 463.545455 358.08 
C 463.545455 355.427969 462.491791 352.884201 460.616522 351.008932 
C 458.741253 349.133663 456.197486 348.08 453.545455 348.08 
C 450.893424 348.08 448.349656 349.133663 446.474387 351.008932 
C 444.599118 352.884201 443.545455 355.427969 443.545455 358.08 
C 443.545455 360.732031 444.599118 363.275799 446.474387 365.151068 
C 448.349656 367.026337 450.893424 368.08 453.545455 368.08 
z
" clip-path="url(#p7e23d831a4)" style="fill: #800080; fill-opacity: 0.6; stroke: #ffffff; stroke-opacity: 0.6; stroke-width: 2"/>
    <path d="M 453.545455 228.68 
C 454.87147 228.68 456.143354 228.153168 457.080988 227.215534 
C 458.018623 226.277899 458.545455 225.006016 458.545455 223.68 
C 458.545455 222.353984 458.018623 221.082101 457.080988 220.144466 
C 456.143354 219.206832 454.87147 218.68 453.545455 218.68 
C 452.219439 218.68 450.947555 219.206832 450.009921 220.144466 
C 449.072286 221.082101 448.545455 222.353984 448.545455 223.68 
C 448.545455 225.006016 449.072286 226.277899 450.009921 227.215534 
C 450.947555 228.153168 452.219439 228.68 453.545455 228.68 
z
" clip-path="url(#p7e23d831a4)" style="fill: #0000ff; fill-opacity: 0.6; stroke: #ffffff; stroke-opacity: 0.6; stroke-width: 2"/>
    <path d="M 453.545455 230.751068 
C 455.420724 230.751068 457.219439 230.006016 458.545455 228.68 
C 459.87147 227.353984 460.616522 225.555269 460.616522 223.68 
C 460.616522 221.804731 459.87147 220.006016 458.545455 218.68 
C 457.219439 217.353984 455.420724 216.608932 453.545455 216.608932 
C 451.670185 216.608932 449.87147 217.353984 448.545455 218.68 
C 447.219439 220.006016 446.474387 221.804731 446.474387 223.68 
C 446.474387 225.555269 447.219439 227.353984 448.545455 228.68 
C 449.87147 230.006016 451.670185 230.751068 453.545455 230.751068 
z
" clip-path="url(#p7e23d831a4)" style="fill: #008000; fill-opacity: 0.6; stroke: #ffffff; stroke-opacity: 0.6; stroke-width: 2"/>
    <path d="M 453.545455 228.68 
C 454.87147 228.68 456.143354 228.153168 457.080988 227.215534 
C 458.018623 226.277899 458.545455 225.006016 458.545455 223.68 
C 458.545455 222.353984 458.018623 221.082101 457.080988 220.144466 
C 456.143354 219.206832 454.87147 218.68 453.545455 218.68 
C 452.219439 218.68 450.947555 219.206832 450.009921 220.144466 
C 449.072286 221.082101 448.545455 222.353984 448.545455 223.68 
C 448.545455 225.006016 449.072286 226.277899 450.009921 227.215534 
C 450.947555 228.153168 452.219439 228.68 453.545455 228.68 
z
" clip-path="url(#p7e23d831a4)" style="fill: #ff0000; fill-opacity: 0.6; stroke: #ffffff; stroke-opacity: 0.6; stroke-width: 2"/>
    <path d="M 453.545455 230.751068 
C 455.420724 230.751068 457.219439 230.006016 458.545455 228.68 
C 459.87147 227.353984 460.616522 225.555269 460.616522 223.68 
C 460.616522 221.804731 459.87147 220.006016 458.545455 218.68 
C 457.219439 217.353984 455.420724 216.608932 453.545455 216.608932 
C 451.670185 216.608932 449.87147 217.353984 448.545455 218.68 
C 447.219439 220.006016 446.474387 221.804731 446.474387 223.68 
C 446.474387 225.555269 447.219439 227.353984 448.545455 228.68 
C 449.87147 230.006016 451.670185 230.751068 453.545455 230.751068 
z
" clip-path="url(#p7e23d831a4)" style="fill: #800080; fill-opacity: 0.6; stroke: #ffffff; stroke-opacity: 0.6; stroke-width: 2"/>
    <path d="M 453.545455 94.28 
C 454.87147 94.28 456.143354 93.753168 457.080988 92.815534 
C 458.018623 91.877899 458.545455 90.606015 458.545455 89.28 
C 458.545455 87.953984 458.018623 86.682101 457.080988 85.744466 
C 456.143354 84.806832 454.87147 84.28 453.545455 84.28 
C 452.219439 84.28 450.947555 84.806832 450.009921 85.744466 
C 449.072286 86.682101 448.545455 87.953984 448.545455 89.28 
C 448.545455 90.606015 449.072286 91.877899 450.009921 92.815534 
C 450.947555 93.753168 452.219439 94.28 453.545455 94.28 
z
" clip-path="url(#p7e23d831a4)" style="fill: #0000ff; fill-opacity: 0.6; stroke: #ffffff; stroke-opacity: 0.6; stroke-width: 2"/>
    <path d="M 453.545455 94.28 
C 454.87147 94.28 456.143354 93.753168 457.080988 92.815534 
C 458.018623 91.877899 458.545455 90.606015 458.545455 89.28 
C 458.545455 87.953984 458.018623 86.682101 457.080988 85.744466 
C 456.143354 84.806832 454.87147 84.28 453.545455 84.28 
C 452.219439 84.28 450.947555 84.806832 450.009921 85.744466 
C 449.072286 86.682101 448.545455 87.953984 448.545455 89.28 
C 448.545455 90.606015 449.072286 91.877899 450.009921 92.815534 
C 450.947555 93.753168 452.219439 94.28 453.545455 94.28 
z
" clip-path="url(#p7e23d831a4)" style="fill: #008000; fill-opacity: 0.6; stroke: #ffffff; stroke-opacity: 0.6; stroke-width: 2"/>
    <path d="M 453.545455 94.28 
C 454.87147 94.28 456.143354 93.753168 457.080988 92.815534 
C 458.018623 91.877899 458.545455 90.606015 458.545455 89.28 
C 458.545455 87.953984 458.018623 86.682101 457.080988 85.744466 
C 456.143354 84.806832 454.87147 84.28 453.545455 84.28 
C 452.219439 84.28 450.947555 84.806832 450.009921 85.744466 
C 449.072286 86.682101 448.545455 87.953984 448.545455 89.28 
C 448.545455 90.606015 449.072286 91.877899 450.009921 92.815534 
C 450.947555 93.753168 452.219439 94.28 453.545455 94.28 
z
" clip-path="url(#p7e23d831a4)" style="fill: #800080; fill-opacity: 0.6; stroke: #ffffff; stroke-opacity: 0.6; stroke-width: 2"/>
    <path d="M 538.090909 363.08 
C 539.416925 363.08 540.688808 362.553168 541.626443 361.615534 
C 542.564078 360.677899 543.090909 359.406015 543.090909 358.08 
C 543.090909 356.753985 542.564078 355.482101 541.626443 354.544466 
C 540.688808 353.606832 539.416925 353.08 538.090909 353.08 
C 536.764894 353.08 535.49301 353.606832 534.555375 354.544466 
C 533.617741 355.482101 533.090909 356.753985 533.090909 358.08 
C 533.090909 359.406015 533.617741 360.677899 534.555375 361.615534 
C 535.49301 362.553168 536.764894 363.08 538.090909 363.08 
z
" clip-path="url(#p7e23d831a4)" style="fill: #ff0000; fill-opacity: 0.6; stroke: #ffffff; stroke-opacity: 0.6; stroke-width: 2"/>
    <path d="M 538.090909 363.08 
C 539.416925 363.08 540.688808 362.553168 541.626443 361.615534 
C 542.564078 360.677899 543.090909 359.406015 543.090909 358.08 
C 543.090909 356.753985 542.564078 355.482101 541.626443 354.544466 
C 540.688808 353.606832 539.416925 353.08 538.090909 353.08 
C 536.764894 353.08 535.49301 353.606832 534.555375 354.544466 
C 533.617741 355.482101 533.090909 356.753985 533.090909 358.08 
C 533.090909 359.406015 533.617741 360.677899 534.555375 361.615534 
C 535.49301 362.553168 536.764894 363.08 538.090909 363.08 
z
" clip-path="url(#p7e23d831a4)" style="fill: #800080; fill-opacity: 0.6; stroke: #ffffff; stroke-opacity: 0.6; stroke-width: 2"/>
    <path d="M 538.090909 228.68 
C 539.416925 228.68 540.688808 228.153168 541.626443 227.215534 
C 542.564078 226.277899 543.090909 225.006016 543.090909 223.68 
C 543.090909 222.353984 542.564078 221.082101 541.626443 220.144466 
C 540.688808 219.206832 539.416925 218.68 538.090909 218.68 
C 536.764894 218.68 535.49301 219.206832 534.555375 220.144466 
C 533.617741 221.082101 533.090909 222.353984 533.090909 223.68 
C 533.090909 225.006016 533.617741 226.277899 534.555375 227.215534 
C 535.49301 228.153168 536.764894 228.68 538.090909 228.68 
z
" clip-path="url(#p7e23d831a4)" style="fill: #ff0000; fill-opacity: 0.6; stroke: #ffffff; stroke-opacity: 0.6; stroke-width: 2"/>
    <path d="M 538.090909 228.68 
C 539.416925 228.68 540.688808 228.153168 541.626443 227.215534 
C 542.564078 226.277899 543.090909 225.006016 543.090909 223.68 
C 543.090909 222.353984 542.564078 221.082101 541.626443 220.144466 
C 540.688808 219.206832 539.416925 218.68 538.090909 218.68 
C 536.764894 218.68 535.49301 219.206832 534.555375 220.144466 
C 533.617741 221.082101 533.090909 222.353984 533.090909 223.68 
C 533.090909 225.006016 533.617741 226.277899 534.555375 227.215534 
C 535.49301 228.153168 536.764894 228.68 538.090909 228.68 
z
" clip-path="url(#p7e23d831a4)" style="fill: #800080; fill-opacity: 0.6; stroke: #ffffff; stroke-opacity: 0.6; stroke-width: 2"/>
    <path d="M 538.090909 94.28 
C 539.416925 94.28 540.688808 93.753168 541.626443 92.815534 
C 542.564078 91.877899 543.090909 90.606015 543.090909 89.28 
C 543.090909 87.953984 542.564078 86.682101 541.626443 85.744466 
C 540.688808 84.806832 539.416925 84.28 538.090909 84.28 
C 536.764894 84.28 535.49301 84.806832 534.555375 85.744466 
C 533.617741 86.682101 533.090909 87.953984 533.090909 89.28 
C 533.090909 90.606015 533.617741 91.877899 534.555375 92.815534 
C 535.49301 93.753168 536.764894 94.28 538.090909 94.28 
z
" clip-path="url(#p7e23d831a4)" style="fill: #0000ff; fill-opacity: 0.6; stroke: #ffffff; stroke-opacity: 0.6; stroke-width: 2"/>
    <path d="M 538.090909 94.28 
C 539.416925 94.28 540.688808 93.753168 541.626443 92.815534 
C 542.564078 91.877899 543.090909 90.606015 543.090909 89.28 
C 543.090909 87.953984 542.564078 86.682101 541.626443 85.744466 
C 540.688808 84.806832 539.416925 84.28 538.090909 84.28 
C 536.764894 84.28 535.49301 84.806832 534.555375 85.744466 
C 533.617741 86.682101 533.090909 87.953984 533.090909 89.28 
C 533.090909 90.606015 533.617741 91.877899 534.555375 92.815534 
C 535.49301 93.753168 536.764894 94.28 538.090909 94.28 
z
" clip-path="url(#p7e23d831a4)" style="fill: #008000; fill-opacity: 0.6; stroke: #ffffff; stroke-opacity: 0.6; stroke-width: 2"/>
    <path d="M 538.090909 94.28 
C 539.416925 94.28 540.688808 93.753168 541.626443 92.815534 
C 542.564078 91.877899 543.090909 90.606015 543.090909 89.28 
C 543.090909 87.953984 542.564078 86.682101 541.626443 85.744466 
C 540.688808 84.806832 539.416925 84.28 538.090909 84.28 
C 536.764894 84.28 535.49301 84.806832 534.555375 85.744466 
C 533.617741 86.682101 533.090909 87.953984 533.090909 89.28 
C 533.090909 90.606015 533.617741 91.877899 534.555375 92.815534 
C 535.49301 93.753168 536.764894 94.28 538.090909 94.28 
z
" clip-path="url(#p7e23d831a4)" style="fill: #800080; fill-opacity: 0.6; stroke: #ffffff; stroke-opacity: 0.6; stroke-width: 2"/>
    <path d="M 622.636364 497.48 
C 623.962379 497.48 625.234263 496.953168 626.171898 496.015534 
C 627.109532 495.077899 627.636364 493.806016 627.636364 492.48 
C 627.636364 491.153985 627.109532 489.882101 626.171898 488.944466 
C 625.234263 488.006832 623.962379 487.48 622.636364 487.48 
C 621.310348 487.48 620.038464 488.006832 619.10083 488.944466 
C 618.163195 489.882101 617.636364 491.153985 617.636364 492.48 
C 617.636364 493.806016 618.163195 495.077899 619.10083 496.015534 
C 620.038464 496.953168 621.310348 497.48 622.636364 497.48 
z
" clip-path="url(#p7e23d831a4)" style="fill: #0000ff; fill-opacity: 0.6; stroke: #ffffff; stroke-opacity: 0.6; stroke-width: 2"/>
    <path d="M 622.636364 363.08 
C 623.962379 363.08 625.234263 362.553168 626.171898 361.615534 
C 627.109532 360.677899 627.636364 359.406015 627.636364 358.08 
C 627.636364 356.753985 627.109532 355.482101 626.171898 354.544466 
C 625.234263 353.606832 623.962379 353.08 622.636364 353.08 
C 621.310348 353.08 620.038464 353.606832 619.10083 354.544466 
C 618.163195 355.482101 617.636364 356.753985 617.636364 358.08 
C 617.636364 359.406015 618.163195 360.677899 619.10083 361.615534 
C 620.038464 362.553168 621.310348 363.08 622.636364 363.08 
z
" clip-path="url(#p7e23d831a4)" style="fill: #ff0000; fill-opacity: 0.6; stroke: #ffffff; stroke-opacity: 0.6; stroke-width: 2"/>
   </g>
   <g id="matplotlib.axis_1">
    <g id="xtick_1">
     <g id="line2d_1">
      <path d="M 115.363636 512.64 
L 115.363636 69.12 
" clip-path="url(#p7e23d831a4)" style="fill: none; stroke: #b0b0b0; stroke-width: 0.8; stroke-linecap: square"/>
     </g>
     <g id="line2d_2">
      <defs>
       <path id="m0f0f1b1bb7" d="M 0 0 
L 0 3.5 
" style="stroke: #000000; stroke-width: 0.8"/>
      </defs>
      <g>
       <use xlink:href="#m0f0f1b1bb7" x="115.363636" y="512.64" style="stroke: #000000; stroke-width: 0.8"/>
      </g>
     </g>
     <g id="text_1">
      <!-- Benchmarking -->
      <g transform="translate(79.152699 527.238438) scale(0.1 -0.1)">
       <defs>
        <path id="DejaVuSans-42" d="M 1259 2228 
L 1259 519 
L 2272 519 
Q 2781 519 3026 730 
Q 3272 941 3272 1375 
Q 3272 1813 3026 2020 
Q 2781 2228 2272 2228 
L 1259 2228 
z
M 1259 4147 
L 1259 2741 
L 2194 2741 
Q 2656 2741 2882 2914 
Q 3109 3088 3109 3444 
Q 3109 3797 2882 3972 
Q 2656 4147 2194 4147 
L 1259 4147 
z
M 628 4666 
L 2241 4666 
Q 2963 4666 3353 4366 
Q 3744 4066 3744 3513 
Q 3744 3084 3544 2831 
Q 3344 2578 2956 2516 
Q 3422 2416 3680 2098 
Q 3938 1781 3938 1306 
Q 3938 681 3513 340 
Q 3088 0 2303 0 
L 628 0 
L 628 4666 
z
" transform="scale(0.015625)"/>
        <path id="DejaVuSans-65" d="M 3597 1894 
L 3597 1613 
L 953 1613 
Q 991 1019 1311 708 
Q 1631 397 2203 397 
Q 2534 397 2845 478 
Q 3156 559 3463 722 
L 3463 178 
Q 3153 47 2828 -22 
Q 2503 -91 2169 -91 
Q 1331 -91 842 396 
Q 353 884 353 1716 
Q 353 2575 817 3079 
Q 1281 3584 2069 3584 
Q 2775 3584 3186 3129 
Q 3597 2675 3597 1894 
z
M 3022 2063 
Q 3016 2534 2758 2815 
Q 2500 3097 2075 3097 
Q 1594 3097 1305 2825 
Q 1016 2553 972 2059 
L 3022 2063 
z
" transform="scale(0.015625)"/>
        <path id="DejaVuSans-6e" d="M 3513 2113 
L 3513 0 
L 2938 0 
L 2938 2094 
Q 2938 2591 2744 2837 
Q 2550 3084 2163 3084 
Q 1697 3084 1428 2787 
Q 1159 2491 1159 1978 
L 1159 0 
L 581 0 
L 581 3500 
L 1159 3500 
L 1159 2956 
Q 1366 3272 1645 3428 
Q 1925 3584 2291 3584 
Q 2894 3584 3203 3211 
Q 3513 2838 3513 2113 
z
" transform="scale(0.015625)"/>
        <path id="DejaVuSans-63" d="M 3122 3366 
L 3122 2828 
Q 2878 2963 2633 3030 
Q 2388 3097 2138 3097 
Q 1578 3097 1268 2742 
Q 959 2388 959 1747 
Q 959 1106 1268 751 
Q 1578 397 2138 397 
Q 2388 397 2633 464 
Q 2878 531 3122 666 
L 3122 134 
Q 2881 22 2623 -34 
Q 2366 -91 2075 -91 
Q 1284 -91 818 406 
Q 353 903 353 1747 
Q 353 2603 823 3093 
Q 1294 3584 2113 3584 
Q 2378 3584 2631 3529 
Q 2884 3475 3122 3366 
z
" transform="scale(0.015625)"/>
        <path id="DejaVuSans-68" d="M 3513 2113 
L 3513 0 
L 2938 0 
L 2938 2094 
Q 2938 2591 2744 2837 
Q 2550 3084 2163 3084 
Q 1697 3084 1428 2787 
Q 1159 2491 1159 1978 
L 1159 0 
L 581 0 
L 581 4863 
L 1159 4863 
L 1159 2956 
Q 1366 3272 1645 3428 
Q 1925 3584 2291 3584 
Q 2894 3584 3203 3211 
Q 3513 2838 3513 2113 
z
" transform="scale(0.015625)"/>
        <path id="DejaVuSans-6d" d="M 3328 2828 
Q 3544 3216 3844 3400 
Q 4144 3584 4550 3584 
Q 5097 3584 5394 3201 
Q 5691 2819 5691 2113 
L 5691 0 
L 5113 0 
L 5113 2094 
Q 5113 2597 4934 2840 
Q 4756 3084 4391 3084 
Q 3944 3084 3684 2787 
Q 3425 2491 3425 1978 
L 3425 0 
L 2847 0 
L 2847 2094 
Q 2847 2600 2669 2842 
Q 2491 3084 2119 3084 
Q 1678 3084 1418 2786 
Q 1159 2488 1159 1978 
L 1159 0 
L 581 0 
L 581 3500 
L 1159 3500 
L 1159 2956 
Q 1356 3278 1631 3431 
Q 1906 3584 2284 3584 
Q 2666 3584 2933 3390 
Q 3200 3197 3328 2828 
z
" transform="scale(0.015625)"/>
        <path id="DejaVuSans-61" d="M 2194 1759 
Q 1497 1759 1228 1600 
Q 959 1441 959 1056 
Q 959 750 1161 570 
Q 1363 391 1709 391 
Q 2188 391 2477 730 
Q 2766 1069 2766 1631 
L 2766 1759 
L 2194 1759 
z
M 3341 1997 
L 3341 0 
L 2766 0 
L 2766 531 
Q 2569 213 2275 61 
Q 1981 -91 1556 -91 
Q 1019 -91 701 211 
Q 384 513 384 1019 
Q 384 1609 779 1909 
Q 1175 2209 1959 2209 
L 2766 2209 
L 2766 2266 
Q 2766 2663 2505 2880 
Q 2244 3097 1772 3097 
Q 1472 3097 1187 3025 
Q 903 2953 641 2809 
L 641 3341 
Q 956 3463 1253 3523 
Q 1550 3584 1831 3584 
Q 2591 3584 2966 3190 
Q 3341 2797 3341 1997 
z
" transform="scale(0.015625)"/>
        <path id="DejaVuSans-72" d="M 2631 2963 
Q 2534 3019 2420 3045 
Q 2306 3072 2169 3072 
Q 1681 3072 1420 2755 
Q 1159 2438 1159 1844 
L 1159 0 
L 581 0 
L 581 3500 
L 1159 3500 
L 1159 2956 
Q 1341 3275 1631 3429 
Q 1922 3584 2338 3584 
Q 2397 3584 2469 3576 
Q 2541 3569 2628 3553 
L 2631 2963 
z
" transform="scale(0.015625)"/>
        <path id="DejaVuSans-6b" d="M 581 4863 
L 1159 4863 
L 1159 1991 
L 2875 3500 
L 3609 3500 
L 1753 1863 
L 3688 0 
L 2938 0 
L 1159 1709 
L 1159 0 
L 581 0 
L 581 4863 
z
" transform="scale(0.015625)"/>
        <path id="DejaVuSans-69" d="M 603 3500 
L 1178 3500 
L 1178 0 
L 603 0 
L 603 3500 
z
M 603 4863 
L 1178 4863 
L 1178 4134 
L 603 4134 
L 603 4863 
z
" transform="scale(0.015625)"/>
        <path id="DejaVuSans-67" d="M 2906 1791 
Q 2906 2416 2648 2759 
Q 2391 3103 1925 3103 
Q 1463 3103 1205 2759 
Q 947 2416 947 1791 
Q 947 1169 1205 825 
Q 1463 481 1925 481 
Q 2391 481 2648 825 
Q 2906 1169 2906 1791 
z
M 3481 434 
Q 3481 -459 3084 -895 
Q 2688 -1331 1869 -1331 
Q 1566 -1331 1297 -1286 
Q 1028 -1241 775 -1147 
L 775 -588 
Q 1028 -725 1275 -790 
Q 1522 -856 1778 -856 
Q 2344 -856 2625 -561 
Q 2906 -266 2906 331 
L 2906 616 
Q 2728 306 2450 153 
Q 2172 0 1784 0 
Q 1141 0 747 490 
Q 353 981 353 1791 
Q 353 2603 747 3093 
Q 1141 3584 1784 3584 
Q 2172 3584 2450 3431 
Q 2728 3278 2906 2969 
L 2906 3500 
L 3481 3500 
L 3481 434 
z
" transform="scale(0.015625)"/>
       </defs>
       <use xlink:href="#DejaVuSans-42"/>
       <use xlink:href="#DejaVuSans-65" x="68.603516"/>
       <use xlink:href="#DejaVuSans-6e" x="130.126953"/>
       <use xlink:href="#DejaVuSans-63" x="193.505859"/>
       <use xlink:href="#DejaVuSans-68" x="248.486328"/>
       <use xlink:href="#DejaVuSans-6d" x="311.865234"/>
       <use xlink:href="#DejaVuSans-61" x="409.277344"/>
       <use xlink:href="#DejaVuSans-72" x="470.556641"/>
       <use xlink:href="#DejaVuSans-6b" x="511.669922"/>
       <use xlink:href="#DejaVuSans-69" x="569.580078"/>
       <use xlink:href="#DejaVuSans-6e" x="597.363281"/>
       <use xlink:href="#DejaVuSans-67" x="660.742188"/>
      </g>
     </g>
    </g>
    <g id="xtick_2">
     <g id="line2d_3">
      <path d="M 199.909091 512.64 
L 199.909091 69.12 
" clip-path="url(#p7e23d831a4)" style="fill: none; stroke: #b0b0b0; stroke-width: 0.8; stroke-linecap: square"/>
     </g>
     <g id="line2d_4">
      <g>
       <use xlink:href="#m0f0f1b1bb7" x="199.909091" y="512.64" style="stroke: #000000; stroke-width: 0.8"/>
      </g>
     </g>
     <g id="text_2">
      <!-- Human Experimentation -->
      <g transform="translate(138.756747 527.238438) scale(0.1 -0.1)">
       <defs>
        <path id="DejaVuSans-48" d="M 628 4666 
L 1259 4666 
L 1259 2753 
L 3553 2753 
L 3553 4666 
L 4184 4666 
L 4184 0 
L 3553 0 
L 3553 2222 
L 1259 2222 
L 1259 0 
L 628 0 
L 628 4666 
z
" transform="scale(0.015625)"/>
        <path id="DejaVuSans-75" d="M 544 1381 
L 544 3500 
L 1119 3500 
L 1119 1403 
Q 1119 906 1312 657 
Q 1506 409 1894 409 
Q 2359 409 2629 706 
Q 2900 1003 2900 1516 
L 2900 3500 
L 3475 3500 
L 3475 0 
L 2900 0 
L 2900 538 
Q 2691 219 2414 64 
Q 2138 -91 1772 -91 
Q 1169 -91 856 284 
Q 544 659 544 1381 
z
M 1991 3584 
L 1991 3584 
z
" transform="scale(0.015625)"/>
        <path id="DejaVuSans-20" transform="scale(0.015625)"/>
        <path id="DejaVuSans-45" d="M 628 4666 
L 3578 4666 
L 3578 4134 
L 1259 4134 
L 1259 2753 
L 3481 2753 
L 3481 2222 
L 1259 2222 
L 1259 531 
L 3634 531 
L 3634 0 
L 628 0 
L 628 4666 
z
" transform="scale(0.015625)"/>
        <path id="DejaVuSans-78" d="M 3513 3500 
L 2247 1797 
L 3578 0 
L 2900 0 
L 1881 1375 
L 863 0 
L 184 0 
L 1544 1831 
L 300 3500 
L 978 3500 
L 1906 2253 
L 2834 3500 
L 3513 3500 
z
" transform="scale(0.015625)"/>
        <path id="DejaVuSans-70" d="M 1159 525 
L 1159 -1331 
L 581 -1331 
L 581 3500 
L 1159 3500 
L 1159 2969 
Q 1341 3281 1617 3432 
Q 1894 3584 2278 3584 
Q 2916 3584 3314 3078 
Q 3713 2572 3713 1747 
Q 3713 922 3314 415 
Q 2916 -91 2278 -91 
Q 1894 -91 1617 61 
Q 1341 213 1159 525 
z
M 3116 1747 
Q 3116 2381 2855 2742 
Q 2594 3103 2138 3103 
Q 1681 3103 1420 2742 
Q 1159 2381 1159 1747 
Q 1159 1113 1420 752 
Q 1681 391 2138 391 
Q 2594 391 2855 752 
Q 3116 1113 3116 1747 
z
" transform="scale(0.015625)"/>
        <path id="DejaVuSans-74" d="M 1172 4494 
L 1172 3500 
L 2356 3500 
L 2356 3053 
L 1172 3053 
L 1172 1153 
Q 1172 725 1289 603 
Q 1406 481 1766 481 
L 2356 481 
L 2356 0 
L 1766 0 
Q 1100 0 847 248 
Q 594 497 594 1153 
L 594 3053 
L 172 3053 
L 172 3500 
L 594 3500 
L 594 4494 
L 1172 4494 
z
" transform="scale(0.015625)"/>
        <path id="DejaVuSans-6f" d="M 1959 3097 
Q 1497 3097 1228 2736 
Q 959 2375 959 1747 
Q 959 1119 1226 758 
Q 1494 397 1959 397 
Q 2419 397 2687 759 
Q 2956 1122 2956 1747 
Q 2956 2369 2687 2733 
Q 2419 3097 1959 3097 
z
M 1959 3584 
Q 2709 3584 3137 3096 
Q 3566 2609 3566 1747 
Q 3566 888 3137 398 
Q 2709 -91 1959 -91 
Q 1206 -91 779 398 
Q 353 888 353 1747 
Q 353 2609 779 3096 
Q 1206 3584 1959 3584 
z
" transform="scale(0.015625)"/>
       </defs>
       <use xlink:href="#DejaVuSans-48"/>
       <use xlink:href="#DejaVuSans-75" x="75.195312"/>
       <use xlink:href="#DejaVuSans-6d" x="138.574219"/>
       <use xlink:href="#DejaVuSans-61" x="235.986328"/>
       <use xlink:href="#DejaVuSans-6e" x="297.265625"/>
       <use xlink:href="#DejaVuSans-20" x="360.644531"/>
       <use xlink:href="#DejaVuSans-45" x="392.431641"/>
       <use xlink:href="#DejaVuSans-78" x="455.615234"/>
       <use xlink:href="#DejaVuSans-70" x="514.794922"/>
       <use xlink:href="#DejaVuSans-65" x="578.271484"/>
       <use xlink:href="#DejaVuSans-72" x="639.794922"/>
       <use xlink:href="#DejaVuSans-69" x="680.908203"/>
       <use xlink:href="#DejaVuSans-6d" x="708.691406"/>
       <use xlink:href="#DejaVuSans-65" x="806.103516"/>
       <use xlink:href="#DejaVuSans-6e" x="867.626953"/>
       <use xlink:href="#DejaVuSans-74" x="931.005859"/>
       <use xlink:href="#DejaVuSans-61" x="970.214844"/>
       <use xlink:href="#DejaVuSans-74" x="1031.494141"/>
       <use xlink:href="#DejaVuSans-69" x="1070.703125"/>
       <use xlink:href="#DejaVuSans-6f" x="1098.486328"/>
       <use xlink:href="#DejaVuSans-6e" x="1159.667969"/>
      </g>
     </g>
    </g>
    <g id="xtick_3">
     <g id="line2d_5">
      <path d="M 284.454545 512.64 
L 284.454545 69.12 
" clip-path="url(#p7e23d831a4)" style="fill: none; stroke: #b0b0b0; stroke-width: 0.8; stroke-linecap: square"/>
     </g>
     <g id="line2d_6">
      <g>
       <use xlink:href="#m0f0f1b1bb7" x="284.454545" y="512.64" style="stroke: #000000; stroke-width: 0.8"/>
      </g>
     </g>
     <g id="text_3">
      <!-- Interview -->
      <g transform="translate(261.204545 527.238438) scale(0.1 -0.1)">
       <defs>
        <path id="DejaVuSans-49" d="M 628 4666 
L 1259 4666 
L 1259 0 
L 628 0 
L 628 4666 
z
" transform="scale(0.015625)"/>
        <path id="DejaVuSans-76" d="M 191 3500 
L 800 3500 
L 1894 563 
L 2988 3500 
L 3597 3500 
L 2284 0 
L 1503 0 
L 191 3500 
z
" transform="scale(0.015625)"/>
        <path id="DejaVuSans-77" d="M 269 3500 
L 844 3500 
L 1563 769 
L 2278 3500 
L 2956 3500 
L 3675 769 
L 4391 3500 
L 4966 3500 
L 4050 0 
L 3372 0 
L 2619 2869 
L 1863 0 
L 1184 0 
L 269 3500 
z
" transform="scale(0.015625)"/>
       </defs>
       <use xlink:href="#DejaVuSans-49"/>
       <use xlink:href="#DejaVuSans-6e" x="29.492188"/>
       <use xlink:href="#DejaVuSans-74" x="92.871094"/>
       <use xlink:href="#DejaVuSans-65" x="132.080078"/>
       <use xlink:href="#DejaVuSans-72" x="193.603516"/>
       <use xlink:href="#DejaVuSans-76" x="234.716797"/>
       <use xlink:href="#DejaVuSans-69" x="293.896484"/>
       <use xlink:href="#DejaVuSans-65" x="321.679688"/>
       <use xlink:href="#DejaVuSans-77" x="383.203125"/>
      </g>
     </g>
    </g>
    <g id="xtick_4">
     <g id="line2d_7">
      <path d="M 369 512.64 
L 369 69.12 
" clip-path="url(#p7e23d831a4)" style="fill: none; stroke: #b0b0b0; stroke-width: 0.8; stroke-linecap: square"/>
     </g>
     <g id="line2d_8">
      <g>
       <use xlink:href="#m0f0f1b1bb7" x="369" y="512.64" style="stroke: #000000; stroke-width: 0.8"/>
      </g>
     </g>
     <g id="text_4">
      <!-- Questionnaire -->
      <g transform="translate(333.995313 527.238438) scale(0.1 -0.1)">
       <defs>
        <path id="DejaVuSans-51" d="M 2522 4238 
Q 1834 4238 1429 3725 
Q 1025 3213 1025 2328 
Q 1025 1447 1429 934 
Q 1834 422 2522 422 
Q 3209 422 3611 934 
Q 4013 1447 4013 2328 
Q 4013 3213 3611 3725 
Q 3209 4238 2522 4238 
z
M 3406 84 
L 4238 -825 
L 3475 -825 
L 2784 -78 
Q 2681 -84 2626 -87 
Q 2572 -91 2522 -91 
Q 1538 -91 948 567 
Q 359 1225 359 2328 
Q 359 3434 948 4092 
Q 1538 4750 2522 4750 
Q 3503 4750 4090 4092 
Q 4678 3434 4678 2328 
Q 4678 1516 4351 937 
Q 4025 359 3406 84 
z
" transform="scale(0.015625)"/>
        <path id="DejaVuSans-73" d="M 2834 3397 
L 2834 2853 
Q 2591 2978 2328 3040 
Q 2066 3103 1784 3103 
Q 1356 3103 1142 2972 
Q 928 2841 928 2578 
Q 928 2378 1081 2264 
Q 1234 2150 1697 2047 
L 1894 2003 
Q 2506 1872 2764 1633 
Q 3022 1394 3022 966 
Q 3022 478 2636 193 
Q 2250 -91 1575 -91 
Q 1294 -91 989 -36 
Q 684 19 347 128 
L 347 722 
Q 666 556 975 473 
Q 1284 391 1588 391 
Q 1994 391 2212 530 
Q 2431 669 2431 922 
Q 2431 1156 2273 1281 
Q 2116 1406 1581 1522 
L 1381 1569 
Q 847 1681 609 1914 
Q 372 2147 372 2553 
Q 372 3047 722 3315 
Q 1072 3584 1716 3584 
Q 2034 3584 2315 3537 
Q 2597 3491 2834 3397 
z
" transform="scale(0.015625)"/>
       </defs>
       <use xlink:href="#DejaVuSans-51"/>
       <use xlink:href="#DejaVuSans-75" x="78.710938"/>
       <use xlink:href="#DejaVuSans-65" x="142.089844"/>
       <use xlink:href="#DejaVuSans-73" x="203.613281"/>
       <use xlink:href="#DejaVuSans-74" x="255.712891"/>
       <use xlink:href="#DejaVuSans-69" x="294.921875"/>
       <use xlink:href="#DejaVuSans-6f" x="322.705078"/>
       <use xlink:href="#DejaVuSans-6e" x="383.886719"/>
       <use xlink:href="#DejaVuSans-6e" x="447.265625"/>
       <use xlink:href="#DejaVuSans-61" x="510.644531"/>
       <use xlink:href="#DejaVuSans-69" x="571.923828"/>
       <use xlink:href="#DejaVuSans-72" x="599.707031"/>
       <use xlink:href="#DejaVuSans-65" x="638.570312"/>
      </g>
     </g>
    </g>
    <g id="xtick_5">
     <g id="line2d_9">
      <path d="M 453.545455 512.64 
L 453.545455 69.12 
" clip-path="url(#p7e23d831a4)" style="fill: none; stroke: #b0b0b0; stroke-width: 0.8; stroke-linecap: square"/>
     </g>
     <g id="line2d_10">
      <g>
       <use xlink:href="#m0f0f1b1bb7" x="453.545455" y="512.64" style="stroke: #000000; stroke-width: 0.8"/>
      </g>
     </g>
     <g id="text_5">
      <!-- Data Science -->
      <g transform="translate(420.634517 527.238438) scale(0.1 -0.1)">
       <defs>
        <path id="DejaVuSans-44" d="M 1259 4147 
L 1259 519 
L 2022 519 
Q 2988 519 3436 956 
Q 3884 1394 3884 2338 
Q 3884 3275 3436 3711 
Q 2988 4147 2022 4147 
L 1259 4147 
z
M 628 4666 
L 1925 4666 
Q 3281 4666 3915 4102 
Q 4550 3538 4550 2338 
Q 4550 1131 3912 565 
Q 3275 0 1925 0 
L 628 0 
L 628 4666 
z
" transform="scale(0.015625)"/>
        <path id="DejaVuSans-53" d="M 3425 4513 
L 3425 3897 
Q 3066 4069 2747 4153 
Q 2428 4238 2131 4238 
Q 1616 4238 1336 4038 
Q 1056 3838 1056 3469 
Q 1056 3159 1242 3001 
Q 1428 2844 1947 2747 
L 2328 2669 
Q 3034 2534 3370 2195 
Q 3706 1856 3706 1288 
Q 3706 609 3251 259 
Q 2797 -91 1919 -91 
Q 1588 -91 1214 -16 
Q 841 59 441 206 
L 441 856 
Q 825 641 1194 531 
Q 1563 422 1919 422 
Q 2459 422 2753 634 
Q 3047 847 3047 1241 
Q 3047 1584 2836 1778 
Q 2625 1972 2144 2069 
L 1759 2144 
Q 1053 2284 737 2584 
Q 422 2884 422 3419 
Q 422 4038 858 4394 
Q 1294 4750 2059 4750 
Q 2388 4750 2728 4690 
Q 3069 4631 3425 4513 
z
" transform="scale(0.015625)"/>
       </defs>
       <use xlink:href="#DejaVuSans-44"/>
       <use xlink:href="#DejaVuSans-61" x="77.001953"/>
       <use xlink:href="#DejaVuSans-74" x="138.28125"/>
       <use xlink:href="#DejaVuSans-61" x="177.490234"/>
       <use xlink:href="#DejaVuSans-20" x="238.769531"/>
       <use xlink:href="#DejaVuSans-53" x="270.556641"/>
       <use xlink:href="#DejaVuSans-63" x="334.033203"/>
       <use xlink:href="#DejaVuSans-69" x="389.013672"/>
       <use xlink:href="#DejaVuSans-65" x="416.796875"/>
       <use xlink:href="#DejaVuSans-6e" x="478.320312"/>
       <use xlink:href="#DejaVuSans-63" x="541.699219"/>
       <use xlink:href="#DejaVuSans-65" x="596.679688"/>
      </g>
     </g>
    </g>
    <g id="xtick_6">
     <g id="line2d_11">
      <path d="M 538.090909 512.64 
L 538.090909 69.12 
" clip-path="url(#p7e23d831a4)" style="fill: none; stroke: #b0b0b0; stroke-width: 0.8; stroke-linecap: square"/>
     </g>
     <g id="line2d_12">
      <g>
       <use xlink:href="#m0f0f1b1bb7" x="538.090909" y="512.64" style="stroke: #000000; stroke-width: 0.8"/>
      </g>
     </g>
     <g id="text_6">
      <!-- Engineering Research -->
      <g transform="translate(483.569034 527.238438) scale(0.1 -0.1)">
       <defs>
        <path id="DejaVuSans-52" d="M 2841 2188 
Q 3044 2119 3236 1894 
Q 3428 1669 3622 1275 
L 4263 0 
L 3584 0 
L 2988 1197 
Q 2756 1666 2539 1819 
Q 2322 1972 1947 1972 
L 1259 1972 
L 1259 0 
L 628 0 
L 628 4666 
L 2053 4666 
Q 2853 4666 3247 4331 
Q 3641 3997 3641 3322 
Q 3641 2881 3436 2590 
Q 3231 2300 2841 2188 
z
M 1259 4147 
L 1259 2491 
L 2053 2491 
Q 2509 2491 2742 2702 
Q 2975 2913 2975 3322 
Q 2975 3731 2742 3939 
Q 2509 4147 2053 4147 
L 1259 4147 
z
" transform="scale(0.015625)"/>
       </defs>
       <use xlink:href="#DejaVuSans-45"/>
       <use xlink:href="#DejaVuSans-6e" x="63.183594"/>
       <use xlink:href="#DejaVuSans-67" x="126.5625"/>
       <use xlink:href="#DejaVuSans-69" x="190.039062"/>
       <use xlink:href="#DejaVuSans-6e" x="217.822266"/>
       <use xlink:href="#DejaVuSans-65" x="281.201172"/>
       <use xlink:href="#DejaVuSans-65" x="342.724609"/>
       <use xlink:href="#DejaVuSans-72" x="404.248047"/>
       <use xlink:href="#DejaVuSans-69" x="445.361328"/>
       <use xlink:href="#DejaVuSans-6e" x="473.144531"/>
       <use xlink:href="#DejaVuSans-67" x="536.523438"/>
       <use xlink:href="#DejaVuSans-20" x="600"/>
       <use xlink:href="#DejaVuSans-52" x="631.787109"/>
       <use xlink:href="#DejaVuSans-65" x="696.769531"/>
       <use xlink:href="#DejaVuSans-73" x="758.292969"/>
       <use xlink:href="#DejaVuSans-65" x="810.392578"/>
       <use xlink:href="#DejaVuSans-61" x="871.916016"/>
       <use xlink:href="#DejaVuSans-72" x="933.195312"/>
       <use xlink:href="#DejaVuSans-63" x="972.058594"/>
       <use xlink:href="#DejaVuSans-68" x="1027.039062"/>
      </g>
     </g>
    </g>
    <g id="xtick_7">
     <g id="line2d_13">
      <path d="M 622.636364 512.64 
L 622.636364 69.12 
" clip-path="url(#p7e23d831a4)" style="fill: none; stroke: #b0b0b0; stroke-width: 0.8; stroke-linecap: square"/>
     </g>
     <g id="line2d_14">
      <g>
       <use xlink:href="#m0f0f1b1bb7" x="622.636364" y="512.64" style="stroke: #000000; stroke-width: 0.8"/>
      </g>
     </g>
     <g id="text_7">
      <!-- Meta Science -->
      <g transform="translate(589.248864 527.238438) scale(0.1 -0.1)">
       <defs>
        <path id="DejaVuSans-4d" d="M 628 4666 
L 1569 4666 
L 2759 1491 
L 3956 4666 
L 4897 4666 
L 4897 0 
L 4281 0 
L 4281 4097 
L 3078 897 
L 2444 897 
L 1241 4097 
L 1241 0 
L 628 0 
L 628 4666 
z
" transform="scale(0.015625)"/>
       </defs>
       <use xlink:href="#DejaVuSans-4d"/>
       <use xlink:href="#DejaVuSans-65" x="86.279297"/>
       <use xlink:href="#DejaVuSans-74" x="147.802734"/>
       <use xlink:href="#DejaVuSans-61" x="187.011719"/>
       <use xlink:href="#DejaVuSans-20" x="248.291016"/>
       <use xlink:href="#DejaVuSans-53" x="280.078125"/>
       <use xlink:href="#DejaVuSans-63" x="343.554688"/>
       <use xlink:href="#DejaVuSans-69" x="398.535156"/>
       <use xlink:href="#DejaVuSans-65" x="426.318359"/>
       <use xlink:href="#DejaVuSans-6e" x="487.841797"/>
       <use xlink:href="#DejaVuSans-63" x="551.220703"/>
       <use xlink:href="#DejaVuSans-65" x="606.201172"/>
      </g>
     </g>
    </g>
    <g id="text_8">
     <!-- strategy -->
     <g transform="translate(348.145312 540.916563) scale(0.1 -0.1)">
      <defs>
       <path id="DejaVuSans-79" d="M 2059 -325 
Q 1816 -950 1584 -1140 
Q 1353 -1331 966 -1331 
L 506 -1331 
L 506 -850 
L 844 -850 
Q 1081 -850 1212 -737 
Q 1344 -625 1503 -206 
L 1606 56 
L 191 3500 
L 800 3500 
L 1894 763 
L 2988 3500 
L 3597 3500 
L 2059 -325 
z
" transform="scale(0.015625)"/>
      </defs>
      <use xlink:href="#DejaVuSans-73"/>
      <use xlink:href="#DejaVuSans-74" x="52.099609"/>
      <use xlink:href="#DejaVuSans-72" x="91.308594"/>
      <use xlink:href="#DejaVuSans-61" x="132.421875"/>
      <use xlink:href="#DejaVuSans-74" x="193.701172"/>
      <use xlink:href="#DejaVuSans-65" x="232.910156"/>
      <use xlink:href="#DejaVuSans-67" x="294.433594"/>
      <use xlink:href="#DejaVuSans-79" x="357.910156"/>
     </g>
    </g>
   </g>
   <g id="matplotlib.axis_2">
    <g id="ytick_1">
     <g id="line2d_15">
      <path d="M 90 492.48 
L 648 492.48 
" clip-path="url(#p7e23d831a4)" style="fill: none; stroke: #b0b0b0; stroke-width: 0.8; stroke-linecap: square"/>
     </g>
     <g id="line2d_16">
      <defs>
       <path id="m86ecc9be5d" d="M 0 0 
L -3.5 0 
" style="stroke: #000000; stroke-width: 0.8"/>
      </defs>
      <g>
       <use xlink:href="#m86ecc9be5d" x="90" y="492.48" style="stroke: #000000; stroke-width: 0.8"/>
      </g>
     </g>
     <g id="text_9">
      <!-- Virtual Reality -->
      <g transform="translate(12.978125 496.279219) scale(0.1 -0.1)">
       <defs>
        <path id="DejaVuSans-56" d="M 1831 0 
L 50 4666 
L 709 4666 
L 2188 738 
L 3669 4666 
L 4325 4666 
L 2547 0 
L 1831 0 
z
" transform="scale(0.015625)"/>
        <path id="DejaVuSans-6c" d="M 603 4863 
L 1178 4863 
L 1178 0 
L 603 0 
L 603 4863 
z
" transform="scale(0.015625)"/>
       </defs>
       <use xlink:href="#DejaVuSans-56"/>
       <use xlink:href="#DejaVuSans-69" x="66.158203"/>
       <use xlink:href="#DejaVuSans-72" x="93.941406"/>
       <use xlink:href="#DejaVuSans-74" x="135.054688"/>
       <use xlink:href="#DejaVuSans-75" x="174.263672"/>
       <use xlink:href="#DejaVuSans-61" x="237.642578"/>
       <use xlink:href="#DejaVuSans-6c" x="298.921875"/>
       <use xlink:href="#DejaVuSans-20" x="326.705078"/>
       <use xlink:href="#DejaVuSans-52" x="358.492188"/>
       <use xlink:href="#DejaVuSans-65" x="423.474609"/>
       <use xlink:href="#DejaVuSans-61" x="484.998047"/>
       <use xlink:href="#DejaVuSans-6c" x="546.277344"/>
       <use xlink:href="#DejaVuSans-69" x="574.060547"/>
       <use xlink:href="#DejaVuSans-74" x="601.84375"/>
       <use xlink:href="#DejaVuSans-79" x="641.052734"/>
      </g>
     </g>
    </g>
    <g id="ytick_2">
     <g id="line2d_17">
      <path d="M 90 358.08 
L 648 358.08 
" clip-path="url(#p7e23d831a4)" style="fill: none; stroke: #b0b0b0; stroke-width: 0.8; stroke-linecap: square"/>
     </g>
     <g id="line2d_18">
      <g>
       <use xlink:href="#m86ecc9be5d" x="90" y="358.08" style="stroke: #000000; stroke-width: 0.8"/>
      </g>
     </g>
     <g id="text_10">
      <!-- Augmented Reality -->
      <g transform="translate(-12.532813 361.879219) scale(0.1 -0.1)">
       <defs>
        <path id="DejaVuSans-41" d="M 2188 4044 
L 1331 1722 
L 3047 1722 
L 2188 4044 
z
M 1831 4666 
L 2547 4666 
L 4325 0 
L 3669 0 
L 3244 1197 
L 1141 1197 
L 716 0 
L 50 0 
L 1831 4666 
z
" transform="scale(0.015625)"/>
        <path id="DejaVuSans-64" d="M 2906 2969 
L 2906 4863 
L 3481 4863 
L 3481 0 
L 2906 0 
L 2906 525 
Q 2725 213 2448 61 
Q 2172 -91 1784 -91 
Q 1150 -91 751 415 
Q 353 922 353 1747 
Q 353 2572 751 3078 
Q 1150 3584 1784 3584 
Q 2172 3584 2448 3432 
Q 2725 3281 2906 2969 
z
M 947 1747 
Q 947 1113 1208 752 
Q 1469 391 1925 391 
Q 2381 391 2643 752 
Q 2906 1113 2906 1747 
Q 2906 2381 2643 2742 
Q 2381 3103 1925 3103 
Q 1469 3103 1208 2742 
Q 947 2381 947 1747 
z
" transform="scale(0.015625)"/>
       </defs>
       <use xlink:href="#DejaVuSans-41"/>
       <use xlink:href="#DejaVuSans-75" x="68.408203"/>
       <use xlink:href="#DejaVuSans-67" x="131.787109"/>
       <use xlink:href="#DejaVuSans-6d" x="195.263672"/>
       <use xlink:href="#DejaVuSans-65" x="292.675781"/>
       <use xlink:href="#DejaVuSans-6e" x="354.199219"/>
       <use xlink:href="#DejaVuSans-74" x="417.578125"/>
       <use xlink:href="#DejaVuSans-65" x="456.787109"/>
       <use xlink:href="#DejaVuSans-64" x="518.310547"/>
       <use xlink:href="#DejaVuSans-20" x="581.787109"/>
       <use xlink:href="#DejaVuSans-52" x="613.574219"/>
       <use xlink:href="#DejaVuSans-65" x="678.556641"/>
       <use xlink:href="#DejaVuSans-61" x="740.080078"/>
       <use xlink:href="#DejaVuSans-6c" x="801.359375"/>
       <use xlink:href="#DejaVuSans-69" x="829.142578"/>
       <use xlink:href="#DejaVuSans-74" x="856.925781"/>
       <use xlink:href="#DejaVuSans-79" x="896.134766"/>
      </g>
     </g>
    </g>
    <g id="ytick_3">
     <g id="line2d_19">
      <path d="M 90 223.68 
L 648 223.68 
" clip-path="url(#p7e23d831a4)" style="fill: none; stroke: #b0b0b0; stroke-width: 0.8; stroke-linecap: square"/>
     </g>
     <g id="line2d_20">
      <g>
       <use xlink:href="#m86ecc9be5d" x="90" y="223.68" style="stroke: #000000; stroke-width: 0.8"/>
      </g>
     </g>
     <g id="text_11">
      <!-- Mixed Reality -->
      <g transform="translate(16.132812 227.479219) scale(0.1 -0.1)">
       <use xlink:href="#DejaVuSans-4d"/>
       <use xlink:href="#DejaVuSans-69" x="86.279297"/>
       <use xlink:href="#DejaVuSans-78" x="114.0625"/>
       <use xlink:href="#DejaVuSans-65" x="170.117188"/>
       <use xlink:href="#DejaVuSans-64" x="231.640625"/>
       <use xlink:href="#DejaVuSans-20" x="295.117188"/>
       <use xlink:href="#DejaVuSans-52" x="326.904297"/>
       <use xlink:href="#DejaVuSans-65" x="391.886719"/>
       <use xlink:href="#DejaVuSans-61" x="453.410156"/>
       <use xlink:href="#DejaVuSans-6c" x="514.689453"/>
       <use xlink:href="#DejaVuSans-69" x="542.472656"/>
       <use xlink:href="#DejaVuSans-74" x="570.255859"/>
       <use xlink:href="#DejaVuSans-79" x="609.464844"/>
      </g>
     </g>
    </g>
    <g id="ytick_4">
     <g id="line2d_21">
      <path d="M 90 89.28 
L 648 89.28 
" clip-path="url(#p7e23d831a4)" style="fill: none; stroke: #b0b0b0; stroke-width: 0.8; stroke-linecap: square"/>
     </g>
     <g id="line2d_22">
      <g>
       <use xlink:href="#m86ecc9be5d" x="90" y="89.28" style="stroke: #000000; stroke-width: 0.8"/>
      </g>
     </g>
     <g id="text_12">
      <!-- Extended Reality -->
      <g transform="translate(-1.851562 93.079219) scale(0.1 -0.1)">
       <use xlink:href="#DejaVuSans-45"/>
       <use xlink:href="#DejaVuSans-78" x="63.183594"/>
       <use xlink:href="#DejaVuSans-74" x="122.363281"/>
       <use xlink:href="#DejaVuSans-65" x="161.572266"/>
       <use xlink:href="#DejaVuSans-6e" x="223.095703"/>
       <use xlink:href="#DejaVuSans-64" x="286.474609"/>
       <use xlink:href="#DejaVuSans-65" x="349.951172"/>
       <use xlink:href="#DejaVuSans-64" x="411.474609"/>
       <use xlink:href="#DejaVuSans-20" x="474.951172"/>
       <use xlink:href="#DejaVuSans-52" x="506.738281"/>
       <use xlink:href="#DejaVuSans-65" x="571.720703"/>
       <use xlink:href="#DejaVuSans-61" x="633.244141"/>
       <use xlink:href="#DejaVuSans-6c" x="694.523438"/>
       <use xlink:href="#DejaVuSans-69" x="722.306641"/>
       <use xlink:href="#DejaVuSans-74" x="750.089844"/>
       <use xlink:href="#DejaVuSans-79" x="789.298828"/>
      </g>
     </g>
    </g>
    <g id="text_13">
     <!-- venue -->
     <g transform="translate(-18.6125 306.33) rotate(-90) scale(0.1 -0.1)">
      <use xlink:href="#DejaVuSans-76"/>
      <use xlink:href="#DejaVuSans-65" x="59.179688"/>
      <use xlink:href="#DejaVuSans-6e" x="120.703125"/>
      <use xlink:href="#DejaVuSans-75" x="184.082031"/>
      <use xlink:href="#DejaVuSans-65" x="247.460938"/>
     </g>
    </g>
   </g>
   <g id="patch_3">
    <path d="M 90 512.64 
L 90 69.12 
" style="fill: none; stroke: #000000; stroke-width: 0.8; stroke-linejoin: miter; stroke-linecap: square"/>
   </g>
   <g id="patch_4">
    <path d="M 648 512.64 
L 648 69.12 
" style="fill: none; stroke: #000000; stroke-width: 0.8; stroke-linejoin: miter; stroke-linecap: square"/>
   </g>
   <g id="patch_5">
    <path d="M 90 512.64 
L 648 512.64 
" style="fill: none; stroke: #000000; stroke-width: 0.8; stroke-linejoin: miter; stroke-linecap: square"/>
   </g>
   <g id="patch_6">
    <path d="M 90 69.12 
L 648 69.12 
" style="fill: none; stroke: #000000; stroke-width: 0.8; stroke-linejoin: miter; stroke-linecap: square"/>
   </g>
   <g id="text_14">
    <!-- Bubble Chart: strategy vs venue by metaverse -->
    <g transform="translate(228.458438 63.12) scale(0.12 -0.12)">
     <defs>
      <path id="DejaVuSans-62" d="M 3116 1747 
Q 3116 2381 2855 2742 
Q 2594 3103 2138 3103 
Q 1681 3103 1420 2742 
Q 1159 2381 1159 1747 
Q 1159 1113 1420 752 
Q 1681 391 2138 391 
Q 2594 391 2855 752 
Q 3116 1113 3116 1747 
z
M 1159 2969 
Q 1341 3281 1617 3432 
Q 1894 3584 2278 3584 
Q 2916 3584 3314 3078 
Q 3713 2572 3713 1747 
Q 3713 922 3314 415 
Q 2916 -91 2278 -91 
Q 1894 -91 1617 61 
Q 1341 213 1159 525 
L 1159 0 
L 581 0 
L 581 4863 
L 1159 4863 
L 1159 2969 
z
" transform="scale(0.015625)"/>
      <path id="DejaVuSans-43" d="M 4122 4306 
L 4122 3641 
Q 3803 3938 3442 4084 
Q 3081 4231 2675 4231 
Q 1875 4231 1450 3742 
Q 1025 3253 1025 2328 
Q 1025 1406 1450 917 
Q 1875 428 2675 428 
Q 3081 428 3442 575 
Q 3803 722 4122 1019 
L 4122 359 
Q 3791 134 3420 21 
Q 3050 -91 2638 -91 
Q 1578 -91 968 557 
Q 359 1206 359 2328 
Q 359 3453 968 4101 
Q 1578 4750 2638 4750 
Q 3056 4750 3426 4639 
Q 3797 4528 4122 4306 
z
" transform="scale(0.015625)"/>
      <path id="DejaVuSans-3a" d="M 750 794 
L 1409 794 
L 1409 0 
L 750 0 
L 750 794 
z
M 750 3309 
L 1409 3309 
L 1409 2516 
L 750 2516 
L 750 3309 
z
" transform="scale(0.015625)"/>
     </defs>
     <use xlink:href="#DejaVuSans-42"/>
     <use xlink:href="#DejaVuSans-75" x="68.603516"/>
     <use xlink:href="#DejaVuSans-62" x="131.982422"/>
     <use xlink:href="#DejaVuSans-62" x="195.458984"/>
     <use xlink:href="#DejaVuSans-6c" x="258.935547"/>
     <use xlink:href="#DejaVuSans-65" x="286.71875"/>
     <use xlink:href="#DejaVuSans-20" x="348.242188"/>
     <use xlink:href="#DejaVuSans-43" x="380.029297"/>
     <use xlink:href="#DejaVuSans-68" x="449.853516"/>
     <use xlink:href="#DejaVuSans-61" x="513.232422"/>
     <use xlink:href="#DejaVuSans-72" x="574.511719"/>
     <use xlink:href="#DejaVuSans-74" x="615.625"/>
     <use xlink:href="#DejaVuSans-3a" x="654.833984"/>
     <use xlink:href="#DejaVuSans-20" x="688.525391"/>
     <use xlink:href="#DejaVuSans-73" x="720.3125"/>
     <use xlink:href="#DejaVuSans-74" x="772.412109"/>
     <use xlink:href="#DejaVuSans-72" x="811.621094"/>
     <use xlink:href="#DejaVuSans-61" x="852.734375"/>
     <use xlink:href="#DejaVuSans-74" x="914.013672"/>
     <use xlink:href="#DejaVuSans-65" x="953.222656"/>
     <use xlink:href="#DejaVuSans-67" x="1014.746094"/>
     <use xlink:href="#DejaVuSans-79" x="1078.222656"/>
     <use xlink:href="#DejaVuSans-20" x="1137.402344"/>
     <use xlink:href="#DejaVuSans-76" x="1169.189453"/>
     <use xlink:href="#DejaVuSans-73" x="1228.369141"/>
     <use xlink:href="#DejaVuSans-20" x="1280.46875"/>
     <use xlink:href="#DejaVuSans-76" x="1312.255859"/>
     <use xlink:href="#DejaVuSans-65" x="1371.435547"/>
     <use xlink:href="#DejaVuSans-6e" x="1432.958984"/>
     <use xlink:href="#DejaVuSans-75" x="1496.337891"/>
     <use xlink:href="#DejaVuSans-65" x="1559.716797"/>
     <use xlink:href="#DejaVuSans-20" x="1621.240234"/>
     <use xlink:href="#DejaVuSans-62" x="1653.027344"/>
     <use xlink:href="#DejaVuSans-79" x="1716.503906"/>
     <use xlink:href="#DejaVuSans-20" x="1775.683594"/>
     <use xlink:href="#DejaVuSans-6d" x="1807.470703"/>
     <use xlink:href="#DejaVuSans-65" x="1904.882812"/>
     <use xlink:href="#DejaVuSans-74" x="1966.40625"/>
     <use xlink:href="#DejaVuSans-61" x="2005.615234"/>
     <use xlink:href="#DejaVuSans-76" x="2066.894531"/>
     <use xlink:href="#DejaVuSans-65" x="2126.074219"/>
     <use xlink:href="#DejaVuSans-72" x="2187.597656"/>
     <use xlink:href="#DejaVuSans-73" x="2228.710938"/>
     <use xlink:href="#DejaVuSans-65" x="2280.810547"/>
    </g>
   </g>
   <g id="legend_1">
    <g id="patch_7">
     <path d="M 513.467188 329.075313 
L 641 329.075313 
Q 643 329.075313 643 327.075313 
L 643 254.684688 
Q 643 252.684688 641 252.684688 
L 513.467188 252.684688 
Q 511.467188 252.684688 511.467188 254.684688 
L 511.467188 327.075313 
Q 511.467188 329.075313 513.467188 329.075313 
z
" style="fill: #ffffff; opacity: 0.8; stroke: #cccccc; stroke-linejoin: miter"/>
    </g>
    <g id="text_15">
     <!-- Metaverse -->
     <g transform="translate(551.046094 264.283125) scale(0.1 -0.1)">
      <use xlink:href="#DejaVuSans-4d"/>
      <use xlink:href="#DejaVuSans-65" x="86.279297"/>
      <use xlink:href="#DejaVuSans-74" x="147.802734"/>
      <use xlink:href="#DejaVuSans-61" x="187.011719"/>
      <use xlink:href="#DejaVuSans-76" x="248.291016"/>
      <use xlink:href="#DejaVuSans-65" x="307.470703"/>
      <use xlink:href="#DejaVuSans-72" x="368.994141"/>
      <use xlink:href="#DejaVuSans-73" x="410.107422"/>
      <use xlink:href="#DejaVuSans-65" x="462.207031"/>
     </g>
    </g>
    <g id="line2d_23">
     <path d="M 515.467188 275.46125 
L 525.467188 275.46125 
L 535.467188 275.46125 
" style="fill: none; stroke: #ffffff; stroke-width: 1.5; stroke-linecap: square"/>
     <defs>
      <path id="mfd24fd07d3" d="M 0 5 
C 1.326016 5 2.597899 4.473168 3.535534 3.535534 
C 4.473168 2.597899 5 1.326016 5 0 
C 5 -1.326016 4.473168 -2.597899 3.535534 -3.535534 
C 2.597899 -4.473168 1.326016 -5 0 -5 
C -1.326016 -5 -2.597899 -4.473168 -3.535534 -3.535534 
C -4.473168 -2.597899 -5 -1.326016 -5 0 
C -5 1.326016 -4.473168 2.597899 -3.535534 3.535534 
C -2.597899 4.473168 -1.326016 5 0 5 
z
" style="stroke: #ffffff"/>
     </defs>
     <g>
      <use xlink:href="#mfd24fd07d3" x="525.467188" y="275.46125" style="fill: #0000ff; stroke: #ffffff"/>
     </g>
    </g>
    <g id="text_16">
     <!-- Virtual World -->
     <g transform="translate(543.467188 278.96125) scale(0.1 -0.1)">
      <defs>
       <path id="DejaVuSans-57" d="M 213 4666 
L 850 4666 
L 1831 722 
L 2809 4666 
L 3519 4666 
L 4500 722 
L 5478 4666 
L 6119 4666 
L 4947 0 
L 4153 0 
L 3169 4050 
L 2175 0 
L 1381 0 
L 213 4666 
z
" transform="scale(0.015625)"/>
      </defs>
      <use xlink:href="#DejaVuSans-56"/>
      <use xlink:href="#DejaVuSans-69" x="66.158203"/>
      <use xlink:href="#DejaVuSans-72" x="93.941406"/>
      <use xlink:href="#DejaVuSans-74" x="135.054688"/>
      <use xlink:href="#DejaVuSans-75" x="174.263672"/>
      <use xlink:href="#DejaVuSans-61" x="237.642578"/>
      <use xlink:href="#DejaVuSans-6c" x="298.921875"/>
      <use xlink:href="#DejaVuSans-20" x="326.705078"/>
      <use xlink:href="#DejaVuSans-57" x="358.492188"/>
      <use xlink:href="#DejaVuSans-6f" x="451.494141"/>
      <use xlink:href="#DejaVuSans-72" x="512.675781"/>
      <use xlink:href="#DejaVuSans-6c" x="553.789062"/>
      <use xlink:href="#DejaVuSans-64" x="581.572266"/>
     </g>
    </g>
    <g id="line2d_24">
     <path d="M 515.467188 290.139375 
L 525.467188 290.139375 
L 535.467188 290.139375 
" style="fill: none; stroke: #ffffff; stroke-width: 1.5; stroke-linecap: square"/>
     <defs>
      <path id="m96c547bb9e" d="M 0 5 
C 1.326016 5 2.597899 4.473168 3.535534 3.535534 
C 4.473168 2.597899 5 1.326016 5 0 
C 5 -1.326016 4.473168 -2.597899 3.535534 -3.535534 
C 2.597899 -4.473168 1.326016 -5 0 -5 
C -1.326016 -5 -2.597899 -4.473168 -3.535534 -3.535534 
C -4.473168 -2.597899 -5 -1.326016 -5 0 
C -5 1.326016 -4.473168 2.597899 -3.535534 3.535534 
C -2.597899 4.473168 -1.326016 5 0 5 
z
" style="stroke: #ffffff"/>
     </defs>
     <g>
      <use xlink:href="#m96c547bb9e" x="525.467188" y="290.139375" style="fill: #008000; stroke: #ffffff"/>
     </g>
    </g>
    <g id="text_17">
     <!-- Lifelogging -->
     <g transform="translate(543.467188 293.639375) scale(0.1 -0.1)">
      <defs>
       <path id="DejaVuSans-4c" d="M 628 4666 
L 1259 4666 
L 1259 531 
L 3531 531 
L 3531 0 
L 628 0 
L 628 4666 
z
" transform="scale(0.015625)"/>
       <path id="DejaVuSans-66" d="M 2375 4863 
L 2375 4384 
L 1825 4384 
Q 1516 4384 1395 4259 
Q 1275 4134 1275 3809 
L 1275 3500 
L 2222 3500 
L 2222 3053 
L 1275 3053 
L 1275 0 
L 697 0 
L 697 3053 
L 147 3053 
L 147 3500 
L 697 3500 
L 697 3744 
Q 697 4328 969 4595 
Q 1241 4863 1831 4863 
L 2375 4863 
z
" transform="scale(0.015625)"/>
      </defs>
      <use xlink:href="#DejaVuSans-4c"/>
      <use xlink:href="#DejaVuSans-69" x="55.712891"/>
      <use xlink:href="#DejaVuSans-66" x="83.496094"/>
      <use xlink:href="#DejaVuSans-65" x="118.701172"/>
      <use xlink:href="#DejaVuSans-6c" x="180.224609"/>
      <use xlink:href="#DejaVuSans-6f" x="208.007812"/>
      <use xlink:href="#DejaVuSans-67" x="269.189453"/>
      <use xlink:href="#DejaVuSans-67" x="332.666016"/>
      <use xlink:href="#DejaVuSans-69" x="396.142578"/>
      <use xlink:href="#DejaVuSans-6e" x="423.925781"/>
      <use xlink:href="#DejaVuSans-67" x="487.304688"/>
     </g>
    </g>
    <g id="line2d_25">
     <path d="M 515.467188 304.8175 
L 525.467188 304.8175 
L 535.467188 304.8175 
" style="fill: none; stroke: #ffffff; stroke-width: 1.5; stroke-linecap: square"/>
     <defs>
      <path id="m4fe018d17e" d="M 0 5 
C 1.326016 5 2.597899 4.473168 3.535534 3.535534 
C 4.473168 2.597899 5 1.326016 5 0 
C 5 -1.326016 4.473168 -2.597899 3.535534 -3.535534 
C 2.597899 -4.473168 1.326016 -5 0 -5 
C -1.326016 -5 -2.597899 -4.473168 -3.535534 -3.535534 
C -4.473168 -2.597899 -5 -1.326016 -5 0 
C -5 1.326016 -4.473168 2.597899 -3.535534 3.535534 
C -2.597899 4.473168 -1.326016 5 0 5 
z
" style="stroke: #ffffff"/>
     </defs>
     <g>
      <use xlink:href="#m4fe018d17e" x="525.467188" y="304.8175" style="fill: #ff0000; stroke: #ffffff"/>
     </g>
    </g>
    <g id="text_18">
     <!-- Augmented Reality -->
     <g transform="translate(543.467188 308.3175) scale(0.1 -0.1)">
      <use xlink:href="#DejaVuSans-41"/>
      <use xlink:href="#DejaVuSans-75" x="68.408203"/>
      <use xlink:href="#DejaVuSans-67" x="131.787109"/>
      <use xlink:href="#DejaVuSans-6d" x="195.263672"/>
      <use xlink:href="#DejaVuSans-65" x="292.675781"/>
      <use xlink:href="#DejaVuSans-6e" x="354.199219"/>
      <use xlink:href="#DejaVuSans-74" x="417.578125"/>
      <use xlink:href="#DejaVuSans-65" x="456.787109"/>
      <use xlink:href="#DejaVuSans-64" x="518.310547"/>
      <use xlink:href="#DejaVuSans-20" x="581.787109"/>
      <use xlink:href="#DejaVuSans-52" x="613.574219"/>
      <use xlink:href="#DejaVuSans-65" x="678.556641"/>
      <use xlink:href="#DejaVuSans-61" x="740.080078"/>
      <use xlink:href="#DejaVuSans-6c" x="801.359375"/>
      <use xlink:href="#DejaVuSans-69" x="829.142578"/>
      <use xlink:href="#DejaVuSans-74" x="856.925781"/>
      <use xlink:href="#DejaVuSans-79" x="896.134766"/>
     </g>
    </g>
    <g id="line2d_26">
     <path d="M 515.467188 319.495625 
L 525.467188 319.495625 
L 535.467188 319.495625 
" style="fill: none; stroke: #ffffff; stroke-width: 1.5; stroke-linecap: square"/>
     <defs>
      <path id="m8df889e64e" d="M 0 5 
C 1.326016 5 2.597899 4.473168 3.535534 3.535534 
C 4.473168 2.597899 5 1.326016 5 0 
C 5 -1.326016 4.473168 -2.597899 3.535534 -3.535534 
C 2.597899 -4.473168 1.326016 -5 0 -5 
C -1.326016 -5 -2.597899 -4.473168 -3.535534 -3.535534 
C -4.473168 -2.597899 -5 -1.326016 -5 0 
C -5 1.326016 -4.473168 2.597899 -3.535534 3.535534 
C -2.597899 4.473168 -1.326016 5 0 5 
z
" style="stroke: #ffffff"/>
     </defs>
     <g>
      <use xlink:href="#m8df889e64e" x="525.467188" y="319.495625" style="fill: #800080; stroke: #ffffff"/>
     </g>
    </g>
    <g id="text_19">
     <!-- Mirror World -->
     <g transform="translate(543.467188 322.995625) scale(0.1 -0.1)">
      <use xlink:href="#DejaVuSans-4d"/>
      <use xlink:href="#DejaVuSans-69" x="86.279297"/>
      <use xlink:href="#DejaVuSans-72" x="114.0625"/>
      <use xlink:href="#DejaVuSans-72" x="153.425781"/>
      <use xlink:href="#DejaVuSans-6f" x="192.289062"/>
      <use xlink:href="#DejaVuSans-72" x="253.470703"/>
      <use xlink:href="#DejaVuSans-20" x="294.583984"/>
      <use xlink:href="#DejaVuSans-57" x="326.371094"/>
      <use xlink:href="#DejaVuSans-6f" x="419.373047"/>
      <use xlink:href="#DejaVuSans-72" x="480.554688"/>
      <use xlink:href="#DejaVuSans-6c" x="521.667969"/>
      <use xlink:href="#DejaVuSans-64" x="549.451172"/>
     </g>
    </g>
   </g>
  </g>
 </g>
 <defs>
  <clipPath id="p7e23d831a4">
   <rect x="90" y="69.12" width="558" height="443.52"/>
  </clipPath>
 </defs>
</svg>
