<?xml version="1.0" encoding="utf-8" standalone="no"?>
<!DOCTYPE svg PUBLIC "-//W3C//DTD SVG 1.1//EN"
  "http://www.w3.org/Graphics/SVG/1.1/DTD/svg11.dtd">
<svg xmlns:xlink="http://www.w3.org/1999/xlink" width="720pt" height="576pt" viewBox="0 0 720 576" xmlns="http://www.w3.org/2000/svg" version="1.1">
 <metadata>
  <rdf:RDF xmlns:dc="http://purl.org/dc/elements/1.1/" xmlns:cc="http://creativecommons.org/ns#" xmlns:rdf="http://www.w3.org/1999/02/22-rdf-syntax-ns#">
   <cc:Work>
    <dc:type rdf:resource="http://purl.org/dc/dcmitype/StillImage"/>
    <dc:date>2024-09-02T12:50:06.929198</dc:date>
    <dc:format>image/svg+xml</dc:format>
    <dc:creator>
     <cc:Agent>
      <dc:title>Matplotlib v3.8.2, https://matplotlib.org/</dc:title>
     </cc:Agent>
    </dc:creator>
   </cc:Work>
  </rdf:RDF>
 </metadata>
 <defs>
  <style type="text/css">*{stroke-linejoin: round; stroke-linecap: butt}</style>
 </defs>
 <g id="figure_1">
  <g id="patch_1">
   <path d="M 0 576 
L 720 576 
L 720 0 
L 0 0 
z
" style="fill: #ffffff"/>
  </g>
  <g id="axes_1">
   <g id="patch_2">
    <path d="M 90 512.64 
L 648 512.64 
L 648 69.12 
L 90 69.12 
z
" style="fill: #ffffff"/>
   </g>
   <g id="PathCollection_1">
    <path d="M 115.363636 503.66034 
C 118.328697 503.66034 121.172716 502.482309 123.269331 500.385694 
C 125.365945 498.28908 126.543976 495.445061 126.543976 492.48 
C 126.543976 489.514939 125.365945 486.67092 123.269331 484.574306 
C 121.172716 482.477691 118.328697 481.29966 115.363636 481.29966 
C 112.398576 481.29966 109.554557 482.477691 107.457942 484.574306 
C 105.361328 486.67092 104.183296 489.514939 104.183296 492.48 
C 104.183296 495.445061 105.361328 498.28908 107.457942 500.385694 
C 109.554557 502.482309 112.398576 503.66034 115.363636 503.66034 
z
" clip-path="url(#p207a8e266b)" style="fill: #808080; fill-opacity: 0.6; stroke: #ffffff; stroke-opacity: 0.6; stroke-width: 2"/>
    <path d="M 115.363636 501.140254 
C 117.660363 501.140254 119.86333 500.227755 121.487361 498.603724 
C 123.111391 496.979694 124.02389 494.776726 124.02389 492.48 
C 124.02389 490.183274 123.111391 487.980306 121.487361 486.356276 
C 119.86333 484.732245 117.660363 483.819746 115.363636 483.819746 
C 113.06691 483.819746 110.863943 484.732245 109.239912 486.356276 
C 107.615881 487.980306 106.703382 490.183274 106.703382 492.48 
C 106.703382 494.776726 107.615881 496.979694 109.239912 498.603724 
C 110.863943 500.227755 113.06691 501.140254 115.363636 501.140254 
z
" clip-path="url(#p207a8e266b)" style="fill: #808080; fill-opacity: 0.6; stroke: #ffffff; stroke-opacity: 0.6; stroke-width: 2"/>
    <path d="M 115.363636 497.48 
C 116.689652 497.48 117.961536 496.953168 118.89917 496.015534 
C 119.836805 495.077899 120.363636 493.806016 120.363636 492.48 
C 120.363636 491.153985 119.836805 489.882101 118.89917 488.944466 
C 117.961536 488.006832 116.689652 487.48 115.363636 487.48 
C 114.037621 487.48 112.765737 488.006832 111.828102 488.944466 
C 110.890468 489.882101 110.363636 491.153985 110.363636 492.48 
C 110.363636 493.806016 110.890468 495.077899 111.828102 496.015534 
C 112.765737 496.953168 114.037621 497.48 115.363636 497.48 
z
" clip-path="url(#p207a8e266b)" style="fill: #808080; fill-opacity: 0.6; stroke: #ffffff; stroke-opacity: 0.6; stroke-width: 2"/>
    <path d="M 115.363636 513.693203 
C 120.989444 513.693203 126.38559 511.458047 130.363636 507.48 
C 134.341683 503.501954 136.57684 498.105807 136.57684 492.48 
C 136.57684 486.854193 134.341683 481.458047 130.363636 477.48 
C 126.38559 473.501954 120.989444 471.266797 115.363636 471.266797 
C 109.737829 471.266797 104.341683 473.501954 100.363636 477.48 
C 96.38559 481.458047 94.150433 486.854193 94.150433 492.48 
C 94.150433 498.105807 96.38559 503.501954 100.363636 507.48 
C 104.341683 511.458047 109.737829 513.693203 115.363636 513.693203 
z
" clip-path="url(#p207a8e266b)" style="fill: #808080; fill-opacity: 0.6; stroke: #ffffff; stroke-opacity: 0.6; stroke-width: 2"/>
    <path d="M 115.363636 371.308757 
C 118.871944 371.308757 122.237032 369.914891 124.71778 367.434143 
C 127.198528 364.953396 128.592393 361.588307 128.592393 358.08 
C 128.592393 354.571693 127.198528 351.206604 124.71778 348.725857 
C 122.237032 346.245109 118.871944 344.851243 115.363636 344.851243 
C 111.855329 344.851243 108.490241 346.245109 106.009493 348.725857 
C 103.528745 351.206604 102.13488 354.571693 102.13488 358.08 
C 102.13488 361.588307 103.528745 364.953396 106.009493 367.434143 
C 108.490241 369.914891 111.855329 371.308757 115.363636 371.308757 
z
" clip-path="url(#p207a8e266b)" style="fill: #808080; fill-opacity: 0.6; stroke: #ffffff; stroke-opacity: 0.6; stroke-width: 2"/>
    <path d="M 115.363636 365.151068 
C 117.238905 365.151068 119.037621 364.406015 120.363636 363.08 
C 121.689652 361.753985 122.434704 359.955269 122.434704 358.08 
C 122.434704 356.204731 121.689652 354.406015 120.363636 353.08 
C 119.037621 351.753985 117.238905 351.008932 115.363636 351.008932 
C 113.488367 351.008932 111.689652 351.753985 110.363636 353.08 
C 109.037621 354.406015 108.292569 356.204731 108.292569 358.08 
C 108.292569 359.955269 109.037621 361.753985 110.363636 363.08 
C 111.689652 364.406015 113.488367 365.151068 115.363636 365.151068 
z
" clip-path="url(#p207a8e266b)" style="fill: #808080; fill-opacity: 0.6; stroke: #ffffff; stroke-opacity: 0.6; stroke-width: 2"/>
    <path d="M 115.363636 363.08 
C 116.689652 363.08 117.961536 362.553168 118.89917 361.615534 
C 119.836805 360.677899 120.363636 359.406015 120.363636 358.08 
C 120.363636 356.753985 119.836805 355.482101 118.89917 354.544466 
C 117.961536 353.606832 116.689652 353.08 115.363636 353.08 
C 114.037621 353.08 112.765737 353.606832 111.828102 354.544466 
C 110.890468 355.482101 110.363636 356.753985 110.363636 358.08 
C 110.363636 359.406015 110.890468 360.677899 111.828102 361.615534 
C 112.765737 362.553168 114.037621 363.08 115.363636 363.08 
z
" clip-path="url(#p207a8e266b)" style="fill: #808080; fill-opacity: 0.6; stroke: #ffffff; stroke-opacity: 0.6; stroke-width: 2"/>
    <path d="M 115.363636 363.08 
C 116.689652 363.08 117.961536 362.553168 118.89917 361.615534 
C 119.836805 360.677899 120.363636 359.406015 120.363636 358.08 
C 120.363636 356.753985 119.836805 355.482101 118.89917 354.544466 
C 117.961536 353.606832 116.689652 353.08 115.363636 353.08 
C 114.037621 353.08 112.765737 353.606832 111.828102 354.544466 
C 110.890468 355.482101 110.363636 356.753985 110.363636 358.08 
C 110.363636 359.406015 110.890468 360.677899 111.828102 361.615534 
C 112.765737 362.553168 114.037621 363.08 115.363636 363.08 
z
" clip-path="url(#p207a8e266b)" style="fill: #808080; fill-opacity: 0.6; stroke: #ffffff; stroke-opacity: 0.6; stroke-width: 2"/>
    <path d="M 115.363636 375.400508 
C 119.957089 375.400508 124.363024 373.57551 127.611085 370.327449 
C 130.859146 367.079387 132.684144 362.673452 132.684144 358.08 
C 132.684144 353.486548 130.859146 349.080613 127.611085 345.832551 
C 124.363024 342.58449 119.957089 340.759492 115.363636 340.759492 
C 110.770184 340.759492 106.364249 342.58449 103.116188 345.832551 
C 99.868126 349.080613 98.043128 353.486548 98.043128 358.08 
C 98.043128 362.673452 99.868126 367.079387 103.116188 370.327449 
C 106.364249 373.57551 110.770184 375.400508 115.363636 375.400508 
z
" clip-path="url(#p207a8e266b)" style="fill: #808080; fill-opacity: 0.6; stroke: #ffffff; stroke-opacity: 0.6; stroke-width: 2"/>
    <path d="M 115.363636 228.68 
C 116.689652 228.68 117.961536 228.153168 118.89917 227.215534 
C 119.836805 226.277899 120.363636 225.006016 120.363636 223.68 
C 120.363636 222.353984 119.836805 221.082101 118.89917 220.144466 
C 117.961536 219.206832 116.689652 218.68 115.363636 218.68 
C 114.037621 218.68 112.765737 219.206832 111.828102 220.144466 
C 110.890468 221.082101 110.363636 222.353984 110.363636 223.68 
C 110.363636 225.006016 110.890468 226.277899 111.828102 227.215534 
C 112.765737 228.153168 114.037621 228.68 115.363636 228.68 
z
" clip-path="url(#p207a8e266b)" style="fill: #808080; fill-opacity: 0.6; stroke: #ffffff; stroke-opacity: 0.6; stroke-width: 2"/>
    <path d="M 115.363636 228.68 
C 116.689652 228.68 117.961536 228.153168 118.89917 227.215534 
C 119.836805 226.277899 120.363636 225.006016 120.363636 223.68 
C 120.363636 222.353984 119.836805 221.082101 118.89917 220.144466 
C 117.961536 219.206832 116.689652 218.68 115.363636 218.68 
C 114.037621 218.68 112.765737 219.206832 111.828102 220.144466 
C 110.890468 221.082101 110.363636 222.353984 110.363636 223.68 
C 110.363636 225.006016 110.890468 226.277899 111.828102 227.215534 
C 112.765737 228.153168 114.037621 228.68 115.363636 228.68 
z
" clip-path="url(#p207a8e266b)" style="fill: #808080; fill-opacity: 0.6; stroke: #ffffff; stroke-opacity: 0.6; stroke-width: 2"/>
    <path d="M 115.363636 233.68 
C 118.015667 233.68 120.559435 232.626337 122.434704 230.751068 
C 124.309973 228.875799 125.363636 226.332031 125.363636 223.68 
C 125.363636 221.027969 124.309973 218.484201 122.434704 216.608932 
C 120.559435 214.733663 118.015667 213.68 115.363636 213.68 
C 112.711605 213.68 110.167838 214.733663 108.292569 216.608932 
C 106.417299 218.484201 105.363636 221.027969 105.363636 223.68 
C 105.363636 226.332031 106.417299 228.875799 108.292569 230.751068 
C 110.167838 232.626337 112.711605 233.68 115.363636 233.68 
z
" clip-path="url(#p207a8e266b)" style="fill: #808080; fill-opacity: 0.6; stroke: #ffffff; stroke-opacity: 0.6; stroke-width: 2"/>
    <path d="M 115.363636 94.28 
C 116.689652 94.28 117.961536 93.753168 118.89917 92.815534 
C 119.836805 91.877899 120.363636 90.606015 120.363636 89.28 
C 120.363636 87.953984 119.836805 86.682101 118.89917 85.744466 
C 117.961536 84.806832 116.689652 84.28 115.363636 84.28 
C 114.037621 84.28 112.765737 84.806832 111.828102 85.744466 
C 110.890468 86.682101 110.363636 87.953984 110.363636 89.28 
C 110.363636 90.606015 110.890468 91.877899 111.828102 92.815534 
C 112.765737 93.753168 114.037621 94.28 115.363636 94.28 
z
" clip-path="url(#p207a8e266b)" style="fill: #808080; fill-opacity: 0.6; stroke: #ffffff; stroke-opacity: 0.6; stroke-width: 2"/>
    <path d="M 115.363636 94.28 
C 116.689652 94.28 117.961536 93.753168 118.89917 92.815534 
C 119.836805 91.877899 120.363636 90.606015 120.363636 89.28 
C 120.363636 87.953984 119.836805 86.682101 118.89917 85.744466 
C 117.961536 84.806832 116.689652 84.28 115.363636 84.28 
C 114.037621 84.28 112.765737 84.806832 111.828102 85.744466 
C 110.890468 86.682101 110.363636 87.953984 110.363636 89.28 
C 110.363636 90.606015 110.890468 91.877899 111.828102 92.815534 
C 112.765737 93.753168 114.037621 94.28 115.363636 94.28 
z
" clip-path="url(#p207a8e266b)" style="fill: #808080; fill-opacity: 0.6; stroke: #ffffff; stroke-opacity: 0.6; stroke-width: 2"/>
    <path d="M 115.363636 94.28 
C 116.689652 94.28 117.961536 93.753168 118.89917 92.815534 
C 119.836805 91.877899 120.363636 90.606015 120.363636 89.28 
C 120.363636 87.953984 119.836805 86.682101 118.89917 85.744466 
C 117.961536 84.806832 116.689652 84.28 115.363636 84.28 
C 114.037621 84.28 112.765737 84.806832 111.828102 85.744466 
C 110.890468 86.682101 110.363636 87.953984 110.363636 89.28 
C 110.363636 90.606015 110.890468 91.877899 111.828102 92.815534 
C 112.765737 93.753168 114.037621 94.28 115.363636 94.28 
z
" clip-path="url(#p207a8e266b)" style="fill: #808080; fill-opacity: 0.6; stroke: #ffffff; stroke-opacity: 0.6; stroke-width: 2"/>
    <path d="M 115.363636 94.28 
C 116.689652 94.28 117.961536 93.753168 118.89917 92.815534 
C 119.836805 91.877899 120.363636 90.606015 120.363636 89.28 
C 120.363636 87.953984 119.836805 86.682101 118.89917 85.744466 
C 117.961536 84.806832 116.689652 84.28 115.363636 84.28 
C 114.037621 84.28 112.765737 84.806832 111.828102 85.744466 
C 110.890468 86.682101 110.363636 87.953984 110.363636 89.28 
C 110.363636 90.606015 110.890468 91.877899 111.828102 92.815534 
C 112.765737 93.753168 114.037621 94.28 115.363636 94.28 
z
" clip-path="url(#p207a8e266b)" style="fill: #808080; fill-opacity: 0.6; stroke: #ffffff; stroke-opacity: 0.6; stroke-width: 2"/>
    <path d="M 115.363636 94.28 
C 116.689652 94.28 117.961536 93.753168 118.89917 92.815534 
C 119.836805 91.877899 120.363636 90.606015 120.363636 89.28 
C 120.363636 87.953984 119.836805 86.682101 118.89917 85.744466 
C 117.961536 84.806832 116.689652 84.28 115.363636 84.28 
C 114.037621 84.28 112.765737 84.806832 111.828102 85.744466 
C 110.890468 86.682101 110.363636 87.953984 110.363636 89.28 
C 110.363636 90.606015 110.890468 91.877899 111.828102 92.815534 
C 112.765737 93.753168 114.037621 94.28 115.363636 94.28 
z
" clip-path="url(#p207a8e266b)" style="fill: #808080; fill-opacity: 0.6; stroke: #ffffff; stroke-opacity: 0.6; stroke-width: 2"/>
    <path d="M 284.454545 503.66034 
C 287.419606 503.66034 290.263625 502.482309 292.36024 500.385694 
C 294.456854 498.28908 295.634885 495.445061 295.634885 492.48 
C 295.634885 489.514939 294.456854 486.67092 292.36024 484.574306 
C 290.263625 482.477691 287.419606 481.29966 284.454545 481.29966 
C 281.489485 481.29966 278.645466 482.477691 276.548851 484.574306 
C 274.452237 486.67092 273.274206 489.514939 273.274206 492.48 
C 273.274206 495.445061 274.452237 498.28908 276.548851 500.385694 
C 278.645466 502.482309 281.489485 503.66034 284.454545 503.66034 
z
" clip-path="url(#p207a8e266b)" style="fill: #808080; fill-opacity: 0.6; stroke: #ffffff; stroke-opacity: 0.6; stroke-width: 2"/>
    <path d="M 284.454545 511.844917 
C 289.590181 511.844917 294.516166 509.804507 298.147609 506.173064 
C 301.779052 502.541621 303.819462 497.615636 303.819462 492.48 
C 303.819462 487.344364 301.779052 482.418379 298.147609 478.786936 
C 294.516166 475.155493 289.590181 473.115083 284.454545 473.115083 
C 279.31891 473.115083 274.392925 475.155493 270.761482 478.786936 
C 267.130039 482.418379 265.089629 487.344364 265.089629 492.48 
C 265.089629 497.615636 267.130039 502.541621 270.761482 506.173064 
C 274.392925 509.804507 279.31891 511.844917 284.454545 511.844917 
z
" clip-path="url(#p207a8e266b)" style="fill: #808080; fill-opacity: 0.6; stroke: #ffffff; stroke-opacity: 0.6; stroke-width: 2"/>
    <path d="M 284.454545 497.48 
C 285.780561 497.48 287.052445 496.953168 287.990079 496.015534 
C 288.927714 495.077899 289.454545 493.806016 289.454545 492.48 
C 289.454545 491.153985 288.927714 489.882101 287.990079 488.944466 
C 287.052445 488.006832 285.780561 487.48 284.454545 487.48 
C 283.12853 487.48 281.856646 488.006832 280.919012 488.944466 
C 279.981377 489.882101 279.454545 491.153985 279.454545 492.48 
C 279.454545 493.806016 279.981377 495.077899 280.919012 496.015534 
C 281.856646 496.953168 283.12853 497.48 284.454545 497.48 
z
" clip-path="url(#p207a8e266b)" style="fill: #808080; fill-opacity: 0.6; stroke: #ffffff; stroke-opacity: 0.6; stroke-width: 2"/>
    <path d="M 284.454545 369.26034 
C 287.419606 369.26034 290.263625 368.082309 292.36024 365.985694 
C 294.456854 363.88908 295.634885 361.045061 295.634885 358.08 
C 295.634885 355.114939 294.456854 352.27092 292.36024 350.174306 
C 290.263625 348.077691 287.419606 346.89966 284.454545 346.89966 
C 281.489485 346.89966 278.645466 348.077691 276.548851 350.174306 
C 274.452237 352.27092 273.274206 355.114939 273.274206 358.08 
C 273.274206 361.045061 274.452237 363.88908 276.548851 365.985694 
C 278.645466 368.082309 281.489485 369.26034 284.454545 369.26034 
z
" clip-path="url(#p207a8e266b)" style="fill: #808080; fill-opacity: 0.6; stroke: #ffffff; stroke-opacity: 0.6; stroke-width: 2"/>
    <path d="M 284.454545 373.08 
C 288.432592 373.08 292.248244 371.499505 295.061147 368.686602 
C 297.874051 365.873698 299.454545 362.058046 299.454545 358.08 
C 299.454545 354.101953 297.874051 350.286302 295.061147 347.473398 
C 292.248244 344.660495 288.432592 343.08 284.454545 343.08 
C 280.476499 343.08 276.660847 344.660495 273.847944 347.473398 
C 271.03504 350.286302 269.454545 354.101953 269.454545 358.08 
C 269.454545 362.058046 271.03504 365.873698 273.847944 368.686602 
C 276.660847 371.499505 280.476499 373.08 284.454545 373.08 
z
" clip-path="url(#p207a8e266b)" style="fill: #808080; fill-opacity: 0.6; stroke: #ffffff; stroke-opacity: 0.6; stroke-width: 2"/>
    <path d="M 284.454545 363.08 
C 285.780561 363.08 287.052445 362.553168 287.990079 361.615534 
C 288.927714 360.677899 289.454545 359.406015 289.454545 358.08 
C 289.454545 356.753985 288.927714 355.482101 287.990079 354.544466 
C 287.052445 353.606832 285.780561 353.08 284.454545 353.08 
C 283.12853 353.08 281.856646 353.606832 280.919012 354.544466 
C 279.981377 355.482101 279.454545 356.753985 279.454545 358.08 
C 279.454545 359.406015 279.981377 360.677899 280.919012 361.615534 
C 281.856646 362.553168 283.12853 363.08 284.454545 363.08 
z
" clip-path="url(#p207a8e266b)" style="fill: #808080; fill-opacity: 0.6; stroke: #ffffff; stroke-opacity: 0.6; stroke-width: 2"/>
    <path d="M 284.454545 365.151068 
C 286.329815 365.151068 288.12853 364.406015 289.454545 363.08 
C 290.780561 361.753985 291.525613 359.955269 291.525613 358.08 
C 291.525613 356.204731 290.780561 354.406015 289.454545 353.08 
C 288.12853 351.753985 286.329815 351.008932 284.454545 351.008932 
C 282.579276 351.008932 280.780561 351.753985 279.454545 353.08 
C 278.12853 354.406015 277.383478 356.204731 277.383478 358.08 
C 277.383478 359.955269 278.12853 361.753985 279.454545 363.08 
C 280.780561 364.406015 282.579276 365.151068 284.454545 365.151068 
z
" clip-path="url(#p207a8e266b)" style="fill: #808080; fill-opacity: 0.6; stroke: #ffffff; stroke-opacity: 0.6; stroke-width: 2"/>
    <path d="M 284.454545 366.740254 
C 286.751272 366.740254 288.954239 365.827755 290.57827 364.203724 
C 292.2023 362.579694 293.114799 360.376726 293.114799 358.08 
C 293.114799 355.783274 292.2023 353.580306 290.57827 351.956276 
C 288.954239 350.332245 286.751272 349.419746 284.454545 349.419746 
C 282.157819 349.419746 279.954852 350.332245 278.330821 351.956276 
C 276.70679 353.580306 275.794291 355.783274 275.794291 358.08 
C 275.794291 360.376726 276.70679 362.579694 278.330821 364.203724 
C 279.954852 365.827755 282.157819 366.740254 284.454545 366.740254 
z
" clip-path="url(#p207a8e266b)" style="fill: #808080; fill-opacity: 0.6; stroke: #ffffff; stroke-opacity: 0.6; stroke-width: 2"/>
    <path d="M 284.454545 230.751068 
C 286.329815 230.751068 288.12853 230.006016 289.454545 228.68 
C 290.780561 227.353984 291.525613 225.555269 291.525613 223.68 
C 291.525613 221.804731 290.780561 220.006016 289.454545 218.68 
C 288.12853 217.353984 286.329815 216.608932 284.454545 216.608932 
C 282.579276 216.608932 280.780561 217.353984 279.454545 218.68 
C 278.12853 220.006016 277.383478 221.804731 277.383478 223.68 
C 277.383478 225.555269 278.12853 227.353984 279.454545 228.68 
C 280.780561 230.006016 282.579276 230.751068 284.454545 230.751068 
z
" clip-path="url(#p207a8e266b)" style="fill: #808080; fill-opacity: 0.6; stroke: #ffffff; stroke-opacity: 0.6; stroke-width: 2"/>
    <path d="M 284.454545 228.68 
C 285.780561 228.68 287.052445 228.153168 287.990079 227.215534 
C 288.927714 226.277899 289.454545 225.006016 289.454545 223.68 
C 289.454545 222.353984 288.927714 221.082101 287.990079 220.144466 
C 287.052445 219.206832 285.780561 218.68 284.454545 218.68 
C 283.12853 218.68 281.856646 219.206832 280.919012 220.144466 
C 279.981377 221.082101 279.454545 222.353984 279.454545 223.68 
C 279.454545 225.006016 279.981377 226.277899 280.919012 227.215534 
C 281.856646 228.153168 283.12853 228.68 284.454545 228.68 
z
" clip-path="url(#p207a8e266b)" style="fill: #808080; fill-opacity: 0.6; stroke: #ffffff; stroke-opacity: 0.6; stroke-width: 2"/>
    <path d="M 284.454545 228.68 
C 285.780561 228.68 287.052445 228.153168 287.990079 227.215534 
C 288.927714 226.277899 289.454545 225.006016 289.454545 223.68 
C 289.454545 222.353984 288.927714 221.082101 287.990079 220.144466 
C 287.052445 219.206832 285.780561 218.68 284.454545 218.68 
C 283.12853 218.68 281.856646 219.206832 280.919012 220.144466 
C 279.981377 221.082101 279.454545 222.353984 279.454545 223.68 
C 279.454545 225.006016 279.981377 226.277899 280.919012 227.215534 
C 281.856646 228.153168 283.12853 228.68 284.454545 228.68 
z
" clip-path="url(#p207a8e266b)" style="fill: #808080; fill-opacity: 0.6; stroke: #ffffff; stroke-opacity: 0.6; stroke-width: 2"/>
    <path d="M 284.454545 230.751068 
C 286.329815 230.751068 288.12853 230.006016 289.454545 228.68 
C 290.780561 227.353984 291.525613 225.555269 291.525613 223.68 
C 291.525613 221.804731 290.780561 220.006016 289.454545 218.68 
C 288.12853 217.353984 286.329815 216.608932 284.454545 216.608932 
C 282.579276 216.608932 280.780561 217.353984 279.454545 218.68 
C 278.12853 220.006016 277.383478 221.804731 277.383478 223.68 
C 277.383478 225.555269 278.12853 227.353984 279.454545 228.68 
C 280.780561 230.006016 282.579276 230.751068 284.454545 230.751068 
z
" clip-path="url(#p207a8e266b)" style="fill: #808080; fill-opacity: 0.6; stroke: #ffffff; stroke-opacity: 0.6; stroke-width: 2"/>
    <path d="M 284.454545 94.28 
C 285.780561 94.28 287.052445 93.753168 287.990079 92.815534 
C 288.927714 91.877899 289.454545 90.606015 289.454545 89.28 
C 289.454545 87.953984 288.927714 86.682101 287.990079 85.744466 
C 287.052445 84.806832 285.780561 84.28 284.454545 84.28 
C 283.12853 84.28 281.856646 84.806832 280.919012 85.744466 
C 279.981377 86.682101 279.454545 87.953984 279.454545 89.28 
C 279.454545 90.606015 279.981377 91.877899 280.919012 92.815534 
C 281.856646 93.753168 283.12853 94.28 284.454545 94.28 
z
" clip-path="url(#p207a8e266b)" style="fill: #808080; fill-opacity: 0.6; stroke: #ffffff; stroke-opacity: 0.6; stroke-width: 2"/>
    <path d="M 453.545455 502.48 
C 456.197486 502.48 458.741253 501.426337 460.616522 499.551068 
C 462.491791 497.675799 463.545455 495.132031 463.545455 492.48 
C 463.545455 489.827969 462.491791 487.284201 460.616522 485.408932 
C 458.741253 483.533663 456.197486 482.48 453.545455 482.48 
C 450.893424 482.48 448.349656 483.533663 446.474387 485.408932 
C 444.599118 487.284201 443.545455 489.827969 443.545455 492.48 
C 443.545455 495.132031 444.599118 497.675799 446.474387 499.551068 
C 448.349656 501.426337 450.893424 502.48 453.545455 502.48 
z
" clip-path="url(#p207a8e266b)" style="fill: #808080; fill-opacity: 0.6; stroke: #ffffff; stroke-opacity: 0.6; stroke-width: 2"/>
    <path d="M 453.545455 504.727449 
C 456.793516 504.727449 459.908982 503.43698 462.205709 501.140254 
C 464.502435 498.843528 465.792903 495.728061 465.792903 492.48 
C 465.792903 489.231939 464.502435 486.116472 462.205709 483.819746 
C 459.908982 481.52302 456.793516 480.232551 453.545455 480.232551 
C 450.297393 480.232551 447.181927 481.52302 444.885201 483.819746 
C 442.588474 486.116472 441.298006 489.231939 441.298006 492.48 
C 441.298006 495.728061 442.588474 498.843528 444.885201 501.140254 
C 447.181927 503.43698 450.297393 504.727449 453.545455 504.727449 
z
" clip-path="url(#p207a8e266b)" style="fill: #808080; fill-opacity: 0.6; stroke: #ffffff; stroke-opacity: 0.6; stroke-width: 2"/>
    <path d="M 453.545455 501.140254 
C 455.842181 501.140254 458.045148 500.227755 459.669179 498.603724 
C 461.29321 496.979694 462.205709 494.776726 462.205709 492.48 
C 462.205709 490.183274 461.29321 487.980306 459.669179 486.356276 
C 458.045148 484.732245 455.842181 483.819746 453.545455 483.819746 
C 451.248728 483.819746 449.045761 484.732245 447.42173 486.356276 
C 445.7977 487.980306 444.885201 490.183274 444.885201 492.48 
C 444.885201 494.776726 445.7977 496.979694 447.42173 498.603724 
C 449.045761 500.227755 451.248728 501.140254 453.545455 501.140254 
z
" clip-path="url(#p207a8e266b)" style="fill: #808080; fill-opacity: 0.6; stroke: #ffffff; stroke-opacity: 0.6; stroke-width: 2"/>
    <path d="M 453.545455 365.151068 
C 455.420724 365.151068 457.219439 364.406015 458.545455 363.08 
C 459.87147 361.753985 460.616522 359.955269 460.616522 358.08 
C 460.616522 356.204731 459.87147 354.406015 458.545455 353.08 
C 457.219439 351.753985 455.420724 351.008932 453.545455 351.008932 
C 451.670185 351.008932 449.87147 351.753985 448.545455 353.08 
C 447.219439 354.406015 446.474387 356.204731 446.474387 358.08 
C 446.474387 359.955269 447.219439 361.753985 448.545455 363.08 
C 449.87147 364.406015 451.670185 365.151068 453.545455 365.151068 
z
" clip-path="url(#p207a8e266b)" style="fill: #808080; fill-opacity: 0.6; stroke: #ffffff; stroke-opacity: 0.6; stroke-width: 2"/>
    <path d="M 453.545455 365.151068 
C 455.420724 365.151068 457.219439 364.406015 458.545455 363.08 
C 459.87147 361.753985 460.616522 359.955269 460.616522 358.08 
C 460.616522 356.204731 459.87147 354.406015 458.545455 353.08 
C 457.219439 351.753985 455.420724 351.008932 453.545455 351.008932 
C 451.670185 351.008932 449.87147 351.753985 448.545455 353.08 
C 447.219439 354.406015 446.474387 356.204731 446.474387 358.08 
C 446.474387 359.955269 447.219439 361.753985 448.545455 363.08 
C 449.87147 364.406015 451.670185 365.151068 453.545455 365.151068 
z
" clip-path="url(#p207a8e266b)" style="fill: #808080; fill-opacity: 0.6; stroke: #ffffff; stroke-opacity: 0.6; stroke-width: 2"/>
    <path d="M 453.545455 366.740254 
C 455.842181 366.740254 458.045148 365.827755 459.669179 364.203724 
C 461.29321 362.579694 462.205709 360.376726 462.205709 358.08 
C 462.205709 355.783274 461.29321 353.580306 459.669179 351.956276 
C 458.045148 350.332245 455.842181 349.419746 453.545455 349.419746 
C 451.248728 349.419746 449.045761 350.332245 447.42173 351.956276 
C 445.7977 353.580306 444.885201 355.783274 444.885201 358.08 
C 444.885201 360.376726 445.7977 362.579694 447.42173 364.203724 
C 449.045761 365.827755 451.248728 366.740254 453.545455 366.740254 
z
" clip-path="url(#p207a8e266b)" style="fill: #808080; fill-opacity: 0.6; stroke: #ffffff; stroke-opacity: 0.6; stroke-width: 2"/>
    <path d="M 453.545455 228.68 
C 454.87147 228.68 456.143354 228.153168 457.080988 227.215534 
C 458.018623 226.277899 458.545455 225.006016 458.545455 223.68 
C 458.545455 222.353984 458.018623 221.082101 457.080988 220.144466 
C 456.143354 219.206832 454.87147 218.68 453.545455 218.68 
C 452.219439 218.68 450.947555 219.206832 450.009921 220.144466 
C 449.072286 221.082101 448.545455 222.353984 448.545455 223.68 
C 448.545455 225.006016 449.072286 226.277899 450.009921 227.215534 
C 450.947555 228.153168 452.219439 228.68 453.545455 228.68 
z
" clip-path="url(#p207a8e266b)" style="fill: #808080; fill-opacity: 0.6; stroke: #ffffff; stroke-opacity: 0.6; stroke-width: 2"/>
    <path d="M 453.545455 228.68 
C 454.87147 228.68 456.143354 228.153168 457.080988 227.215534 
C 458.018623 226.277899 458.545455 225.006016 458.545455 223.68 
C 458.545455 222.353984 458.018623 221.082101 457.080988 220.144466 
C 456.143354 219.206832 454.87147 218.68 453.545455 218.68 
C 452.219439 218.68 450.947555 219.206832 450.009921 220.144466 
C 449.072286 221.082101 448.545455 222.353984 448.545455 223.68 
C 448.545455 225.006016 449.072286 226.277899 450.009921 227.215534 
C 450.947555 228.153168 452.219439 228.68 453.545455 228.68 
z
" clip-path="url(#p207a8e266b)" style="fill: #808080; fill-opacity: 0.6; stroke: #ffffff; stroke-opacity: 0.6; stroke-width: 2"/>
    <path d="M 622.636364 501.140254 
C 624.93309 501.140254 627.136057 500.227755 628.760088 498.603724 
C 630.384119 496.979694 631.296618 494.776726 631.296618 492.48 
C 631.296618 490.183274 630.384119 487.980306 628.760088 486.356276 
C 627.136057 484.732245 624.93309 483.819746 622.636364 483.819746 
C 620.339637 483.819746 618.13667 484.732245 616.512639 486.356276 
C 614.888609 487.980306 613.97611 490.183274 613.97611 492.48 
C 613.97611 494.776726 614.888609 496.979694 616.512639 498.603724 
C 618.13667 500.227755 620.339637 501.140254 622.636364 501.140254 
z
" clip-path="url(#p207a8e266b)" style="fill: #808080; fill-opacity: 0.6; stroke: #ffffff; stroke-opacity: 0.6; stroke-width: 2"/>
    <path d="M 622.636364 504.727449 
C 625.884425 504.727449 628.999891 503.43698 631.296618 501.140254 
C 633.593344 498.843528 634.883812 495.728061 634.883812 492.48 
C 634.883812 489.231939 633.593344 486.116472 631.296618 483.819746 
C 628.999891 481.52302 625.884425 480.232551 622.636364 480.232551 
C 619.388302 480.232551 616.272836 481.52302 613.97611 483.819746 
C 611.679383 486.116472 610.388915 489.231939 610.388915 492.48 
C 610.388915 495.728061 611.679383 498.843528 613.97611 501.140254 
C 616.272836 503.43698 619.388302 504.727449 622.636364 504.727449 
z
" clip-path="url(#p207a8e266b)" style="fill: #808080; fill-opacity: 0.6; stroke: #ffffff; stroke-opacity: 0.6; stroke-width: 2"/>
    <path d="M 622.636364 501.140254 
C 624.93309 501.140254 627.136057 500.227755 628.760088 498.603724 
C 630.384119 496.979694 631.296618 494.776726 631.296618 492.48 
C 631.296618 490.183274 630.384119 487.980306 628.760088 486.356276 
C 627.136057 484.732245 624.93309 483.819746 622.636364 483.819746 
C 620.339637 483.819746 618.13667 484.732245 616.512639 486.356276 
C 614.888609 487.980306 613.97611 490.183274 613.97611 492.48 
C 613.97611 494.776726 614.888609 496.979694 616.512639 498.603724 
C 618.13667 500.227755 620.339637 501.140254 622.636364 501.140254 
z
" clip-path="url(#p207a8e266b)" style="fill: #808080; fill-opacity: 0.6; stroke: #ffffff; stroke-opacity: 0.6; stroke-width: 2"/>
    <path d="M 622.636364 368.08 
C 625.288395 368.08 627.832162 367.026337 629.707431 365.151068 
C 631.582701 363.275799 632.636364 360.732031 632.636364 358.08 
C 632.636364 355.427969 631.582701 352.884201 629.707431 351.008932 
C 627.832162 349.133663 625.288395 348.08 622.636364 348.08 
C 619.984333 348.08 617.440565 349.133663 615.565296 351.008932 
C 613.690027 352.884201 612.636364 355.427969 612.636364 358.08 
C 612.636364 360.732031 613.690027 363.275799 615.565296 365.151068 
C 617.440565 367.026337 619.984333 368.08 622.636364 368.08 
z
" clip-path="url(#p207a8e266b)" style="fill: #808080; fill-opacity: 0.6; stroke: #ffffff; stroke-opacity: 0.6; stroke-width: 2"/>
    <path d="M 622.636364 369.26034 
C 625.601424 369.26034 628.445443 368.082309 630.542058 365.985694 
C 632.638672 363.88908 633.816704 361.045061 633.816704 358.08 
C 633.816704 355.114939 632.638672 352.27092 630.542058 350.174306 
C 628.445443 348.077691 625.601424 346.89966 622.636364 346.89966 
C 619.671303 346.89966 616.827284 348.077691 614.730669 350.174306 
C 612.634055 352.27092 611.456024 355.114939 611.456024 358.08 
C 611.456024 361.045061 612.634055 363.88908 614.730669 365.985694 
C 616.827284 368.082309 619.671303 369.26034 622.636364 369.26034 
z
" clip-path="url(#p207a8e266b)" style="fill: #808080; fill-opacity: 0.6; stroke: #ffffff; stroke-opacity: 0.6; stroke-width: 2"/>
    <path d="M 622.636364 365.151068 
C 624.511633 365.151068 626.310348 364.406015 627.636364 363.08 
C 628.962379 361.753985 629.707431 359.955269 629.707431 358.08 
C 629.707431 356.204731 628.962379 354.406015 627.636364 353.08 
C 626.310348 351.753985 624.511633 351.008932 622.636364 351.008932 
C 620.761095 351.008932 618.962379 351.753985 617.636364 353.08 
C 616.310348 354.406015 615.565296 356.204731 615.565296 358.08 
C 615.565296 359.955269 616.310348 361.753985 617.636364 363.08 
C 618.962379 364.406015 620.761095 365.151068 622.636364 365.151068 
z
" clip-path="url(#p207a8e266b)" style="fill: #808080; fill-opacity: 0.6; stroke: #ffffff; stroke-opacity: 0.6; stroke-width: 2"/>
    <path d="M 622.636364 230.751068 
C 624.511633 230.751068 626.310348 230.006016 627.636364 228.68 
C 628.962379 227.353984 629.707431 225.555269 629.707431 223.68 
C 629.707431 221.804731 628.962379 220.006016 627.636364 218.68 
C 626.310348 217.353984 624.511633 216.608932 622.636364 216.608932 
C 620.761095 216.608932 618.962379 217.353984 617.636364 218.68 
C 616.310348 220.006016 615.565296 221.804731 615.565296 223.68 
C 615.565296 225.555269 616.310348 227.353984 617.636364 228.68 
C 618.962379 230.006016 620.761095 230.751068 622.636364 230.751068 
z
" clip-path="url(#p207a8e266b)" style="fill: #808080; fill-opacity: 0.6; stroke: #ffffff; stroke-opacity: 0.6; stroke-width: 2"/>
    <path d="M 622.636364 230.751068 
C 624.511633 230.751068 626.310348 230.006016 627.636364 228.68 
C 628.962379 227.353984 629.707431 225.555269 629.707431 223.68 
C 629.707431 221.804731 628.962379 220.006016 627.636364 218.68 
C 626.310348 217.353984 624.511633 216.608932 622.636364 216.608932 
C 620.761095 216.608932 618.962379 217.353984 617.636364 218.68 
C 616.310348 220.006016 615.565296 221.804731 615.565296 223.68 
C 615.565296 225.555269 616.310348 227.353984 617.636364 228.68 
C 618.962379 230.006016 620.761095 230.751068 622.636364 230.751068 
z
" clip-path="url(#p207a8e266b)" style="fill: #808080; fill-opacity: 0.6; stroke: #ffffff; stroke-opacity: 0.6; stroke-width: 2"/>
   </g>
   <g id="matplotlib.axis_1">
    <g id="xtick_1">
     <g id="line2d_1">
      <path d="M 115.363636 512.64 
L 115.363636 69.12 
" clip-path="url(#p207a8e266b)" style="fill: none; stroke: #b0b0b0; stroke-width: 0.8; stroke-linecap: square"/>
     </g>
     <g id="line2d_2">
      <defs>
       <path id="mbb6e2f9591" d="M 0 0 
L 0 3.5 
" style="stroke: #000000; stroke-width: 0.8"/>
      </defs>
      <g>
       <use xlink:href="#mbb6e2f9591" x="115.363636" y="512.64" style="stroke: #000000; stroke-width: 0.8"/>
      </g>
     </g>
     <g id="text_1">
      <!-- Algorithm Performance -->
      <g transform="translate(57.605824 527.238438) scale(0.1 -0.1)">
       <defs>
        <path id="DejaVuSans-41" d="M 2188 4044 
L 1331 1722 
L 3047 1722 
L 2188 4044 
z
M 1831 4666 
L 2547 4666 
L 4325 0 
L 3669 0 
L 3244 1197 
L 1141 1197 
L 716 0 
L 50 0 
L 1831 4666 
z
" transform="scale(0.015625)"/>
        <path id="DejaVuSans-6c" d="M 603 4863 
L 1178 4863 
L 1178 0 
L 603 0 
L 603 4863 
z
" transform="scale(0.015625)"/>
        <path id="DejaVuSans-67" d="M 2906 1791 
Q 2906 2416 2648 2759 
Q 2391 3103 1925 3103 
Q 1463 3103 1205 2759 
Q 947 2416 947 1791 
Q 947 1169 1205 825 
Q 1463 481 1925 481 
Q 2391 481 2648 825 
Q 2906 1169 2906 1791 
z
M 3481 434 
Q 3481 -459 3084 -895 
Q 2688 -1331 1869 -1331 
Q 1566 -1331 1297 -1286 
Q 1028 -1241 775 -1147 
L 775 -588 
Q 1028 -725 1275 -790 
Q 1522 -856 1778 -856 
Q 2344 -856 2625 -561 
Q 2906 -266 2906 331 
L 2906 616 
Q 2728 306 2450 153 
Q 2172 0 1784 0 
Q 1141 0 747 490 
Q 353 981 353 1791 
Q 353 2603 747 3093 
Q 1141 3584 1784 3584 
Q 2172 3584 2450 3431 
Q 2728 3278 2906 2969 
L 2906 3500 
L 3481 3500 
L 3481 434 
z
" transform="scale(0.015625)"/>
        <path id="DejaVuSans-6f" d="M 1959 3097 
Q 1497 3097 1228 2736 
Q 959 2375 959 1747 
Q 959 1119 1226 758 
Q 1494 397 1959 397 
Q 2419 397 2687 759 
Q 2956 1122 2956 1747 
Q 2956 2369 2687 2733 
Q 2419 3097 1959 3097 
z
M 1959 3584 
Q 2709 3584 3137 3096 
Q 3566 2609 3566 1747 
Q 3566 888 3137 398 
Q 2709 -91 1959 -91 
Q 1206 -91 779 398 
Q 353 888 353 1747 
Q 353 2609 779 3096 
Q 1206 3584 1959 3584 
z
" transform="scale(0.015625)"/>
        <path id="DejaVuSans-72" d="M 2631 2963 
Q 2534 3019 2420 3045 
Q 2306 3072 2169 3072 
Q 1681 3072 1420 2755 
Q 1159 2438 1159 1844 
L 1159 0 
L 581 0 
L 581 3500 
L 1159 3500 
L 1159 2956 
Q 1341 3275 1631 3429 
Q 1922 3584 2338 3584 
Q 2397 3584 2469 3576 
Q 2541 3569 2628 3553 
L 2631 2963 
z
" transform="scale(0.015625)"/>
        <path id="DejaVuSans-69" d="M 603 3500 
L 1178 3500 
L 1178 0 
L 603 0 
L 603 3500 
z
M 603 4863 
L 1178 4863 
L 1178 4134 
L 603 4134 
L 603 4863 
z
" transform="scale(0.015625)"/>
        <path id="DejaVuSans-74" d="M 1172 4494 
L 1172 3500 
L 2356 3500 
L 2356 3053 
L 1172 3053 
L 1172 1153 
Q 1172 725 1289 603 
Q 1406 481 1766 481 
L 2356 481 
L 2356 0 
L 1766 0 
Q 1100 0 847 248 
Q 594 497 594 1153 
L 594 3053 
L 172 3053 
L 172 3500 
L 594 3500 
L 594 4494 
L 1172 4494 
z
" transform="scale(0.015625)"/>
        <path id="DejaVuSans-68" d="M 3513 2113 
L 3513 0 
L 2938 0 
L 2938 2094 
Q 2938 2591 2744 2837 
Q 2550 3084 2163 3084 
Q 1697 3084 1428 2787 
Q 1159 2491 1159 1978 
L 1159 0 
L 581 0 
L 581 4863 
L 1159 4863 
L 1159 2956 
Q 1366 3272 1645 3428 
Q 1925 3584 2291 3584 
Q 2894 3584 3203 3211 
Q 3513 2838 3513 2113 
z
" transform="scale(0.015625)"/>
        <path id="DejaVuSans-6d" d="M 3328 2828 
Q 3544 3216 3844 3400 
Q 4144 3584 4550 3584 
Q 5097 3584 5394 3201 
Q 5691 2819 5691 2113 
L 5691 0 
L 5113 0 
L 5113 2094 
Q 5113 2597 4934 2840 
Q 4756 3084 4391 3084 
Q 3944 3084 3684 2787 
Q 3425 2491 3425 1978 
L 3425 0 
L 2847 0 
L 2847 2094 
Q 2847 2600 2669 2842 
Q 2491 3084 2119 3084 
Q 1678 3084 1418 2786 
Q 1159 2488 1159 1978 
L 1159 0 
L 581 0 
L 581 3500 
L 1159 3500 
L 1159 2956 
Q 1356 3278 1631 3431 
Q 1906 3584 2284 3584 
Q 2666 3584 2933 3390 
Q 3200 3197 3328 2828 
z
" transform="scale(0.015625)"/>
        <path id="DejaVuSans-20" transform="scale(0.015625)"/>
        <path id="DejaVuSans-50" d="M 1259 4147 
L 1259 2394 
L 2053 2394 
Q 2494 2394 2734 2622 
Q 2975 2850 2975 3272 
Q 2975 3691 2734 3919 
Q 2494 4147 2053 4147 
L 1259 4147 
z
M 628 4666 
L 2053 4666 
Q 2838 4666 3239 4311 
Q 3641 3956 3641 3272 
Q 3641 2581 3239 2228 
Q 2838 1875 2053 1875 
L 1259 1875 
L 1259 0 
L 628 0 
L 628 4666 
z
" transform="scale(0.015625)"/>
        <path id="DejaVuSans-65" d="M 3597 1894 
L 3597 1613 
L 953 1613 
Q 991 1019 1311 708 
Q 1631 397 2203 397 
Q 2534 397 2845 478 
Q 3156 559 3463 722 
L 3463 178 
Q 3153 47 2828 -22 
Q 2503 -91 2169 -91 
Q 1331 -91 842 396 
Q 353 884 353 1716 
Q 353 2575 817 3079 
Q 1281 3584 2069 3584 
Q 2775 3584 3186 3129 
Q 3597 2675 3597 1894 
z
M 3022 2063 
Q 3016 2534 2758 2815 
Q 2500 3097 2075 3097 
Q 1594 3097 1305 2825 
Q 1016 2553 972 2059 
L 3022 2063 
z
" transform="scale(0.015625)"/>
        <path id="DejaVuSans-66" d="M 2375 4863 
L 2375 4384 
L 1825 4384 
Q 1516 4384 1395 4259 
Q 1275 4134 1275 3809 
L 1275 3500 
L 2222 3500 
L 2222 3053 
L 1275 3053 
L 1275 0 
L 697 0 
L 697 3053 
L 147 3053 
L 147 3500 
L 697 3500 
L 697 3744 
Q 697 4328 969 4595 
Q 1241 4863 1831 4863 
L 2375 4863 
z
" transform="scale(0.015625)"/>
        <path id="DejaVuSans-61" d="M 2194 1759 
Q 1497 1759 1228 1600 
Q 959 1441 959 1056 
Q 959 750 1161 570 
Q 1363 391 1709 391 
Q 2188 391 2477 730 
Q 2766 1069 2766 1631 
L 2766 1759 
L 2194 1759 
z
M 3341 1997 
L 3341 0 
L 2766 0 
L 2766 531 
Q 2569 213 2275 61 
Q 1981 -91 1556 -91 
Q 1019 -91 701 211 
Q 384 513 384 1019 
Q 384 1609 779 1909 
Q 1175 2209 1959 2209 
L 2766 2209 
L 2766 2266 
Q 2766 2663 2505 2880 
Q 2244 3097 1772 3097 
Q 1472 3097 1187 3025 
Q 903 2953 641 2809 
L 641 3341 
Q 956 3463 1253 3523 
Q 1550 3584 1831 3584 
Q 2591 3584 2966 3190 
Q 3341 2797 3341 1997 
z
" transform="scale(0.015625)"/>
        <path id="DejaVuSans-6e" d="M 3513 2113 
L 3513 0 
L 2938 0 
L 2938 2094 
Q 2938 2591 2744 2837 
Q 2550 3084 2163 3084 
Q 1697 3084 1428 2787 
Q 1159 2491 1159 1978 
L 1159 0 
L 581 0 
L 581 3500 
L 1159 3500 
L 1159 2956 
Q 1366 3272 1645 3428 
Q 1925 3584 2291 3584 
Q 2894 3584 3203 3211 
Q 3513 2838 3513 2113 
z
" transform="scale(0.015625)"/>
        <path id="DejaVuSans-63" d="M 3122 3366 
L 3122 2828 
Q 2878 2963 2633 3030 
Q 2388 3097 2138 3097 
Q 1578 3097 1268 2742 
Q 959 2388 959 1747 
Q 959 1106 1268 751 
Q 1578 397 2138 397 
Q 2388 397 2633 464 
Q 2878 531 3122 666 
L 3122 134 
Q 2881 22 2623 -34 
Q 2366 -91 2075 -91 
Q 1284 -91 818 406 
Q 353 903 353 1747 
Q 353 2603 823 3093 
Q 1294 3584 2113 3584 
Q 2378 3584 2631 3529 
Q 2884 3475 3122 3366 
z
" transform="scale(0.015625)"/>
       </defs>
       <use xlink:href="#DejaVuSans-41"/>
       <use xlink:href="#DejaVuSans-6c" x="68.408203"/>
       <use xlink:href="#DejaVuSans-67" x="96.191406"/>
       <use xlink:href="#DejaVuSans-6f" x="159.667969"/>
       <use xlink:href="#DejaVuSans-72" x="220.849609"/>
       <use xlink:href="#DejaVuSans-69" x="261.962891"/>
       <use xlink:href="#DejaVuSans-74" x="289.746094"/>
       <use xlink:href="#DejaVuSans-68" x="328.955078"/>
       <use xlink:href="#DejaVuSans-6d" x="392.333984"/>
       <use xlink:href="#DejaVuSans-20" x="489.746094"/>
       <use xlink:href="#DejaVuSans-50" x="521.533203"/>
       <use xlink:href="#DejaVuSans-65" x="578.210938"/>
       <use xlink:href="#DejaVuSans-72" x="639.734375"/>
       <use xlink:href="#DejaVuSans-66" x="680.847656"/>
       <use xlink:href="#DejaVuSans-6f" x="716.052734"/>
       <use xlink:href="#DejaVuSans-72" x="777.234375"/>
       <use xlink:href="#DejaVuSans-6d" x="816.597656"/>
       <use xlink:href="#DejaVuSans-61" x="914.009766"/>
       <use xlink:href="#DejaVuSans-6e" x="975.289062"/>
       <use xlink:href="#DejaVuSans-63" x="1038.667969"/>
       <use xlink:href="#DejaVuSans-65" x="1093.648438"/>
      </g>
     </g>
    </g>
    <g id="xtick_2">
     <g id="line2d_3">
      <path d="M 284.454545 512.64 
L 284.454545 69.12 
" clip-path="url(#p207a8e266b)" style="fill: none; stroke: #b0b0b0; stroke-width: 0.8; stroke-linecap: square"/>
     </g>
     <g id="line2d_4">
      <g>
       <use xlink:href="#mbb6e2f9591" x="284.454545" y="512.64" style="stroke: #000000; stroke-width: 0.8"/>
      </g>
     </g>
     <g id="text_2">
      <!-- Environment and Practices -->
      <g transform="translate(217.37017 527.238438) scale(0.1 -0.1)">
       <defs>
        <path id="DejaVuSans-45" d="M 628 4666 
L 3578 4666 
L 3578 4134 
L 1259 4134 
L 1259 2753 
L 3481 2753 
L 3481 2222 
L 1259 2222 
L 1259 531 
L 3634 531 
L 3634 0 
L 628 0 
L 628 4666 
z
" transform="scale(0.015625)"/>
        <path id="DejaVuSans-76" d="M 191 3500 
L 800 3500 
L 1894 563 
L 2988 3500 
L 3597 3500 
L 2284 0 
L 1503 0 
L 191 3500 
z
" transform="scale(0.015625)"/>
        <path id="DejaVuSans-64" d="M 2906 2969 
L 2906 4863 
L 3481 4863 
L 3481 0 
L 2906 0 
L 2906 525 
Q 2725 213 2448 61 
Q 2172 -91 1784 -91 
Q 1150 -91 751 415 
Q 353 922 353 1747 
Q 353 2572 751 3078 
Q 1150 3584 1784 3584 
Q 2172 3584 2448 3432 
Q 2725 3281 2906 2969 
z
M 947 1747 
Q 947 1113 1208 752 
Q 1469 391 1925 391 
Q 2381 391 2643 752 
Q 2906 1113 2906 1747 
Q 2906 2381 2643 2742 
Q 2381 3103 1925 3103 
Q 1469 3103 1208 2742 
Q 947 2381 947 1747 
z
" transform="scale(0.015625)"/>
        <path id="DejaVuSans-73" d="M 2834 3397 
L 2834 2853 
Q 2591 2978 2328 3040 
Q 2066 3103 1784 3103 
Q 1356 3103 1142 2972 
Q 928 2841 928 2578 
Q 928 2378 1081 2264 
Q 1234 2150 1697 2047 
L 1894 2003 
Q 2506 1872 2764 1633 
Q 3022 1394 3022 966 
Q 3022 478 2636 193 
Q 2250 -91 1575 -91 
Q 1294 -91 989 -36 
Q 684 19 347 128 
L 347 722 
Q 666 556 975 473 
Q 1284 391 1588 391 
Q 1994 391 2212 530 
Q 2431 669 2431 922 
Q 2431 1156 2273 1281 
Q 2116 1406 1581 1522 
L 1381 1569 
Q 847 1681 609 1914 
Q 372 2147 372 2553 
Q 372 3047 722 3315 
Q 1072 3584 1716 3584 
Q 2034 3584 2315 3537 
Q 2597 3491 2834 3397 
z
" transform="scale(0.015625)"/>
       </defs>
       <use xlink:href="#DejaVuSans-45"/>
       <use xlink:href="#DejaVuSans-6e" x="63.183594"/>
       <use xlink:href="#DejaVuSans-76" x="126.5625"/>
       <use xlink:href="#DejaVuSans-69" x="185.742188"/>
       <use xlink:href="#DejaVuSans-72" x="213.525391"/>
       <use xlink:href="#DejaVuSans-6f" x="252.388672"/>
       <use xlink:href="#DejaVuSans-6e" x="313.570312"/>
       <use xlink:href="#DejaVuSans-6d" x="376.949219"/>
       <use xlink:href="#DejaVuSans-65" x="474.361328"/>
       <use xlink:href="#DejaVuSans-6e" x="535.884766"/>
       <use xlink:href="#DejaVuSans-74" x="599.263672"/>
       <use xlink:href="#DejaVuSans-20" x="638.472656"/>
       <use xlink:href="#DejaVuSans-61" x="670.259766"/>
       <use xlink:href="#DejaVuSans-6e" x="731.539062"/>
       <use xlink:href="#DejaVuSans-64" x="794.917969"/>
       <use xlink:href="#DejaVuSans-20" x="858.394531"/>
       <use xlink:href="#DejaVuSans-50" x="890.181641"/>
       <use xlink:href="#DejaVuSans-72" x="948.734375"/>
       <use xlink:href="#DejaVuSans-61" x="989.847656"/>
       <use xlink:href="#DejaVuSans-63" x="1051.126953"/>
       <use xlink:href="#DejaVuSans-74" x="1106.107422"/>
       <use xlink:href="#DejaVuSans-69" x="1145.316406"/>
       <use xlink:href="#DejaVuSans-63" x="1173.099609"/>
       <use xlink:href="#DejaVuSans-65" x="1228.080078"/>
       <use xlink:href="#DejaVuSans-73" x="1289.603516"/>
      </g>
     </g>
    </g>
    <g id="xtick_3">
     <g id="line2d_5">
      <path d="M 453.545455 512.64 
L 453.545455 69.12 
" clip-path="url(#p207a8e266b)" style="fill: none; stroke: #b0b0b0; stroke-width: 0.8; stroke-linecap: square"/>
     </g>
     <g id="line2d_6">
      <g>
       <use xlink:href="#mbb6e2f9591" x="453.545455" y="512.64" style="stroke: #000000; stroke-width: 0.8"/>
      </g>
     </g>
     <g id="text_3">
      <!-- User Performance -->
      <g transform="translate(408.878267 527.238438) scale(0.1 -0.1)">
       <defs>
        <path id="DejaVuSans-55" d="M 556 4666 
L 1191 4666 
L 1191 1831 
Q 1191 1081 1462 751 
Q 1734 422 2344 422 
Q 2950 422 3222 751 
Q 3494 1081 3494 1831 
L 3494 4666 
L 4128 4666 
L 4128 1753 
Q 4128 841 3676 375 
Q 3225 -91 2344 -91 
Q 1459 -91 1007 375 
Q 556 841 556 1753 
L 556 4666 
z
" transform="scale(0.015625)"/>
       </defs>
       <use xlink:href="#DejaVuSans-55"/>
       <use xlink:href="#DejaVuSans-73" x="73.193359"/>
       <use xlink:href="#DejaVuSans-65" x="125.292969"/>
       <use xlink:href="#DejaVuSans-72" x="186.816406"/>
       <use xlink:href="#DejaVuSans-20" x="227.929688"/>
       <use xlink:href="#DejaVuSans-50" x="259.716797"/>
       <use xlink:href="#DejaVuSans-65" x="316.394531"/>
       <use xlink:href="#DejaVuSans-72" x="377.917969"/>
       <use xlink:href="#DejaVuSans-66" x="419.03125"/>
       <use xlink:href="#DejaVuSans-6f" x="454.236328"/>
       <use xlink:href="#DejaVuSans-72" x="515.417969"/>
       <use xlink:href="#DejaVuSans-6d" x="554.78125"/>
       <use xlink:href="#DejaVuSans-61" x="652.193359"/>
       <use xlink:href="#DejaVuSans-6e" x="713.472656"/>
       <use xlink:href="#DejaVuSans-63" x="776.851562"/>
       <use xlink:href="#DejaVuSans-65" x="831.832031"/>
      </g>
     </g>
    </g>
    <g id="xtick_4">
     <g id="line2d_7">
      <path d="M 622.636364 512.64 
L 622.636364 69.12 
" clip-path="url(#p207a8e266b)" style="fill: none; stroke: #b0b0b0; stroke-width: 0.8; stroke-linecap: square"/>
     </g>
     <g id="line2d_8">
      <g>
       <use xlink:href="#mbb6e2f9591" x="622.636364" y="512.64" style="stroke: #000000; stroke-width: 0.8"/>
      </g>
     </g>
     <g id="text_4">
      <!-- User Experience -->
      <g transform="translate(581.766051 527.238438) scale(0.1 -0.1)">
       <defs>
        <path id="DejaVuSans-78" d="M 3513 3500 
L 2247 1797 
L 3578 0 
L 2900 0 
L 1881 1375 
L 863 0 
L 184 0 
L 1544 1831 
L 300 3500 
L 978 3500 
L 1906 2253 
L 2834 3500 
L 3513 3500 
z
" transform="scale(0.015625)"/>
        <path id="DejaVuSans-70" d="M 1159 525 
L 1159 -1331 
L 581 -1331 
L 581 3500 
L 1159 3500 
L 1159 2969 
Q 1341 3281 1617 3432 
Q 1894 3584 2278 3584 
Q 2916 3584 3314 3078 
Q 3713 2572 3713 1747 
Q 3713 922 3314 415 
Q 2916 -91 2278 -91 
Q 1894 -91 1617 61 
Q 1341 213 1159 525 
z
M 3116 1747 
Q 3116 2381 2855 2742 
Q 2594 3103 2138 3103 
Q 1681 3103 1420 2742 
Q 1159 2381 1159 1747 
Q 1159 1113 1420 752 
Q 1681 391 2138 391 
Q 2594 391 2855 752 
Q 3116 1113 3116 1747 
z
" transform="scale(0.015625)"/>
       </defs>
       <use xlink:href="#DejaVuSans-55"/>
       <use xlink:href="#DejaVuSans-73" x="73.193359"/>
       <use xlink:href="#DejaVuSans-65" x="125.292969"/>
       <use xlink:href="#DejaVuSans-72" x="186.816406"/>
       <use xlink:href="#DejaVuSans-20" x="227.929688"/>
       <use xlink:href="#DejaVuSans-45" x="259.716797"/>
       <use xlink:href="#DejaVuSans-78" x="322.900391"/>
       <use xlink:href="#DejaVuSans-70" x="382.080078"/>
       <use xlink:href="#DejaVuSans-65" x="445.556641"/>
       <use xlink:href="#DejaVuSans-72" x="507.080078"/>
       <use xlink:href="#DejaVuSans-69" x="548.193359"/>
       <use xlink:href="#DejaVuSans-65" x="575.976562"/>
       <use xlink:href="#DejaVuSans-6e" x="637.5"/>
       <use xlink:href="#DejaVuSans-63" x="700.878906"/>
       <use xlink:href="#DejaVuSans-65" x="755.859375"/>
      </g>
     </g>
    </g>
    <g id="text_5">
     <!-- evaluation -->
     <g transform="translate(342.700781 540.916563) scale(0.1 -0.1)">
      <defs>
       <path id="DejaVuSans-75" d="M 544 1381 
L 544 3500 
L 1119 3500 
L 1119 1403 
Q 1119 906 1312 657 
Q 1506 409 1894 409 
Q 2359 409 2629 706 
Q 2900 1003 2900 1516 
L 2900 3500 
L 3475 3500 
L 3475 0 
L 2900 0 
L 2900 538 
Q 2691 219 2414 64 
Q 2138 -91 1772 -91 
Q 1169 -91 856 284 
Q 544 659 544 1381 
z
M 1991 3584 
L 1991 3584 
z
" transform="scale(0.015625)"/>
      </defs>
      <use xlink:href="#DejaVuSans-65"/>
      <use xlink:href="#DejaVuSans-76" x="61.523438"/>
      <use xlink:href="#DejaVuSans-61" x="120.703125"/>
      <use xlink:href="#DejaVuSans-6c" x="181.982422"/>
      <use xlink:href="#DejaVuSans-75" x="209.765625"/>
      <use xlink:href="#DejaVuSans-61" x="273.144531"/>
      <use xlink:href="#DejaVuSans-74" x="334.423828"/>
      <use xlink:href="#DejaVuSans-69" x="373.632812"/>
      <use xlink:href="#DejaVuSans-6f" x="401.416016"/>
      <use xlink:href="#DejaVuSans-6e" x="462.597656"/>
     </g>
    </g>
   </g>
   <g id="matplotlib.axis_2">
    <g id="ytick_1">
     <g id="line2d_9">
      <path d="M 90 492.48 
L 648 492.48 
" clip-path="url(#p207a8e266b)" style="fill: none; stroke: #b0b0b0; stroke-width: 0.8; stroke-linecap: square"/>
     </g>
     <g id="line2d_10">
      <defs>
       <path id="m35c80a3562" d="M 0 0 
L -3.5 0 
" style="stroke: #000000; stroke-width: 0.8"/>
      </defs>
      <g>
       <use xlink:href="#m35c80a3562" x="90" y="492.48" style="stroke: #000000; stroke-width: 0.8"/>
      </g>
     </g>
     <g id="text_6">
      <!-- Virtual Reality -->
      <g transform="translate(12.978125 496.279219) scale(0.1 -0.1)">
       <defs>
        <path id="DejaVuSans-56" d="M 1831 0 
L 50 4666 
L 709 4666 
L 2188 738 
L 3669 4666 
L 4325 4666 
L 2547 0 
L 1831 0 
z
" transform="scale(0.015625)"/>
        <path id="DejaVuSans-52" d="M 2841 2188 
Q 3044 2119 3236 1894 
Q 3428 1669 3622 1275 
L 4263 0 
L 3584 0 
L 2988 1197 
Q 2756 1666 2539 1819 
Q 2322 1972 1947 1972 
L 1259 1972 
L 1259 0 
L 628 0 
L 628 4666 
L 2053 4666 
Q 2853 4666 3247 4331 
Q 3641 3997 3641 3322 
Q 3641 2881 3436 2590 
Q 3231 2300 2841 2188 
z
M 1259 4147 
L 1259 2491 
L 2053 2491 
Q 2509 2491 2742 2702 
Q 2975 2913 2975 3322 
Q 2975 3731 2742 3939 
Q 2509 4147 2053 4147 
L 1259 4147 
z
" transform="scale(0.015625)"/>
        <path id="DejaVuSans-79" d="M 2059 -325 
Q 1816 -950 1584 -1140 
Q 1353 -1331 966 -1331 
L 506 -1331 
L 506 -850 
L 844 -850 
Q 1081 -850 1212 -737 
Q 1344 -625 1503 -206 
L 1606 56 
L 191 3500 
L 800 3500 
L 1894 763 
L 2988 3500 
L 3597 3500 
L 2059 -325 
z
" transform="scale(0.015625)"/>
       </defs>
       <use xlink:href="#DejaVuSans-56"/>
       <use xlink:href="#DejaVuSans-69" x="66.158203"/>
       <use xlink:href="#DejaVuSans-72" x="93.941406"/>
       <use xlink:href="#DejaVuSans-74" x="135.054688"/>
       <use xlink:href="#DejaVuSans-75" x="174.263672"/>
       <use xlink:href="#DejaVuSans-61" x="237.642578"/>
       <use xlink:href="#DejaVuSans-6c" x="298.921875"/>
       <use xlink:href="#DejaVuSans-20" x="326.705078"/>
       <use xlink:href="#DejaVuSans-52" x="358.492188"/>
       <use xlink:href="#DejaVuSans-65" x="423.474609"/>
       <use xlink:href="#DejaVuSans-61" x="484.998047"/>
       <use xlink:href="#DejaVuSans-6c" x="546.277344"/>
       <use xlink:href="#DejaVuSans-69" x="574.060547"/>
       <use xlink:href="#DejaVuSans-74" x="601.84375"/>
       <use xlink:href="#DejaVuSans-79" x="641.052734"/>
      </g>
     </g>
    </g>
    <g id="ytick_2">
     <g id="line2d_11">
      <path d="M 90 358.08 
L 648 358.08 
" clip-path="url(#p207a8e266b)" style="fill: none; stroke: #b0b0b0; stroke-width: 0.8; stroke-linecap: square"/>
     </g>
     <g id="line2d_12">
      <g>
       <use xlink:href="#m35c80a3562" x="90" y="358.08" style="stroke: #000000; stroke-width: 0.8"/>
      </g>
     </g>
     <g id="text_7">
      <!-- Augmented Reality -->
      <g transform="translate(-12.532813 361.879219) scale(0.1 -0.1)">
       <use xlink:href="#DejaVuSans-41"/>
       <use xlink:href="#DejaVuSans-75" x="68.408203"/>
       <use xlink:href="#DejaVuSans-67" x="131.787109"/>
       <use xlink:href="#DejaVuSans-6d" x="195.263672"/>
       <use xlink:href="#DejaVuSans-65" x="292.675781"/>
       <use xlink:href="#DejaVuSans-6e" x="354.199219"/>
       <use xlink:href="#DejaVuSans-74" x="417.578125"/>
       <use xlink:href="#DejaVuSans-65" x="456.787109"/>
       <use xlink:href="#DejaVuSans-64" x="518.310547"/>
       <use xlink:href="#DejaVuSans-20" x="581.787109"/>
       <use xlink:href="#DejaVuSans-52" x="613.574219"/>
       <use xlink:href="#DejaVuSans-65" x="678.556641"/>
       <use xlink:href="#DejaVuSans-61" x="740.080078"/>
       <use xlink:href="#DejaVuSans-6c" x="801.359375"/>
       <use xlink:href="#DejaVuSans-69" x="829.142578"/>
       <use xlink:href="#DejaVuSans-74" x="856.925781"/>
       <use xlink:href="#DejaVuSans-79" x="896.134766"/>
      </g>
     </g>
    </g>
    <g id="ytick_3">
     <g id="line2d_13">
      <path d="M 90 223.68 
L 648 223.68 
" clip-path="url(#p207a8e266b)" style="fill: none; stroke: #b0b0b0; stroke-width: 0.8; stroke-linecap: square"/>
     </g>
     <g id="line2d_14">
      <g>
       <use xlink:href="#m35c80a3562" x="90" y="223.68" style="stroke: #000000; stroke-width: 0.8"/>
      </g>
     </g>
     <g id="text_8">
      <!-- Mixed Reality -->
      <g transform="translate(16.132812 227.479219) scale(0.1 -0.1)">
       <defs>
        <path id="DejaVuSans-4d" d="M 628 4666 
L 1569 4666 
L 2759 1491 
L 3956 4666 
L 4897 4666 
L 4897 0 
L 4281 0 
L 4281 4097 
L 3078 897 
L 2444 897 
L 1241 4097 
L 1241 0 
L 628 0 
L 628 4666 
z
" transform="scale(0.015625)"/>
       </defs>
       <use xlink:href="#DejaVuSans-4d"/>
       <use xlink:href="#DejaVuSans-69" x="86.279297"/>
       <use xlink:href="#DejaVuSans-78" x="114.0625"/>
       <use xlink:href="#DejaVuSans-65" x="170.117188"/>
       <use xlink:href="#DejaVuSans-64" x="231.640625"/>
       <use xlink:href="#DejaVuSans-20" x="295.117188"/>
       <use xlink:href="#DejaVuSans-52" x="326.904297"/>
       <use xlink:href="#DejaVuSans-65" x="391.886719"/>
       <use xlink:href="#DejaVuSans-61" x="453.410156"/>
       <use xlink:href="#DejaVuSans-6c" x="514.689453"/>
       <use xlink:href="#DejaVuSans-69" x="542.472656"/>
       <use xlink:href="#DejaVuSans-74" x="570.255859"/>
       <use xlink:href="#DejaVuSans-79" x="609.464844"/>
      </g>
     </g>
    </g>
    <g id="ytick_4">
     <g id="line2d_15">
      <path d="M 90 89.28 
L 648 89.28 
" clip-path="url(#p207a8e266b)" style="fill: none; stroke: #b0b0b0; stroke-width: 0.8; stroke-linecap: square"/>
     </g>
     <g id="line2d_16">
      <g>
       <use xlink:href="#m35c80a3562" x="90" y="89.28" style="stroke: #000000; stroke-width: 0.8"/>
      </g>
     </g>
     <g id="text_9">
      <!-- Extended Reality -->
      <g transform="translate(-1.851562 93.079219) scale(0.1 -0.1)">
       <use xlink:href="#DejaVuSans-45"/>
       <use xlink:href="#DejaVuSans-78" x="63.183594"/>
       <use xlink:href="#DejaVuSans-74" x="122.363281"/>
       <use xlink:href="#DejaVuSans-65" x="161.572266"/>
       <use xlink:href="#DejaVuSans-6e" x="223.095703"/>
       <use xlink:href="#DejaVuSans-64" x="286.474609"/>
       <use xlink:href="#DejaVuSans-65" x="349.951172"/>
       <use xlink:href="#DejaVuSans-64" x="411.474609"/>
       <use xlink:href="#DejaVuSans-20" x="474.951172"/>
       <use xlink:href="#DejaVuSans-52" x="506.738281"/>
       <use xlink:href="#DejaVuSans-65" x="571.720703"/>
       <use xlink:href="#DejaVuSans-61" x="633.244141"/>
       <use xlink:href="#DejaVuSans-6c" x="694.523438"/>
       <use xlink:href="#DejaVuSans-69" x="722.306641"/>
       <use xlink:href="#DejaVuSans-74" x="750.089844"/>
       <use xlink:href="#DejaVuSans-79" x="789.298828"/>
      </g>
     </g>
    </g>
    <g id="text_10">
     <!-- venue -->
     <g transform="translate(-18.6125 306.33) rotate(-90) scale(0.1 -0.1)">
      <use xlink:href="#DejaVuSans-76"/>
      <use xlink:href="#DejaVuSans-65" x="59.179688"/>
      <use xlink:href="#DejaVuSans-6e" x="120.703125"/>
      <use xlink:href="#DejaVuSans-75" x="184.082031"/>
      <use xlink:href="#DejaVuSans-65" x="247.460938"/>
     </g>
    </g>
   </g>
   <g id="patch_3">
    <path d="M 90 512.64 
L 90 69.12 
" style="fill: none; stroke: #000000; stroke-width: 0.8; stroke-linejoin: miter; stroke-linecap: square"/>
   </g>
   <g id="patch_4">
    <path d="M 648 512.64 
L 648 69.12 
" style="fill: none; stroke: #000000; stroke-width: 0.8; stroke-linejoin: miter; stroke-linecap: square"/>
   </g>
   <g id="patch_5">
    <path d="M 90 512.64 
L 648 512.64 
" style="fill: none; stroke: #000000; stroke-width: 0.8; stroke-linejoin: miter; stroke-linecap: square"/>
   </g>
   <g id="patch_6">
    <path d="M 90 69.12 
L 648 69.12 
" style="fill: none; stroke: #000000; stroke-width: 0.8; stroke-linejoin: miter; stroke-linecap: square"/>
   </g>
   <g id="text_11">
    <!-- Bubble Chart: evaluation vs venue by reality -->
    <g transform="translate(235.08 63.12) scale(0.12 -0.12)">
     <defs>
      <path id="DejaVuSans-42" d="M 1259 2228 
L 1259 519 
L 2272 519 
Q 2781 519 3026 730 
Q 3272 941 3272 1375 
Q 3272 1813 3026 2020 
Q 2781 2228 2272 2228 
L 1259 2228 
z
M 1259 4147 
L 1259 2741 
L 2194 2741 
Q 2656 2741 2882 2914 
Q 3109 3088 3109 3444 
Q 3109 3797 2882 3972 
Q 2656 4147 2194 4147 
L 1259 4147 
z
M 628 4666 
L 2241 4666 
Q 2963 4666 3353 4366 
Q 3744 4066 3744 3513 
Q 3744 3084 3544 2831 
Q 3344 2578 2956 2516 
Q 3422 2416 3680 2098 
Q 3938 1781 3938 1306 
Q 3938 681 3513 340 
Q 3088 0 2303 0 
L 628 0 
L 628 4666 
z
" transform="scale(0.015625)"/>
      <path id="DejaVuSans-62" d="M 3116 1747 
Q 3116 2381 2855 2742 
Q 2594 3103 2138 3103 
Q 1681 3103 1420 2742 
Q 1159 2381 1159 1747 
Q 1159 1113 1420 752 
Q 1681 391 2138 391 
Q 2594 391 2855 752 
Q 3116 1113 3116 1747 
z
M 1159 2969 
Q 1341 3281 1617 3432 
Q 1894 3584 2278 3584 
Q 2916 3584 3314 3078 
Q 3713 2572 3713 1747 
Q 3713 922 3314 415 
Q 2916 -91 2278 -91 
Q 1894 -91 1617 61 
Q 1341 213 1159 525 
L 1159 0 
L 581 0 
L 581 4863 
L 1159 4863 
L 1159 2969 
z
" transform="scale(0.015625)"/>
      <path id="DejaVuSans-43" d="M 4122 4306 
L 4122 3641 
Q 3803 3938 3442 4084 
Q 3081 4231 2675 4231 
Q 1875 4231 1450 3742 
Q 1025 3253 1025 2328 
Q 1025 1406 1450 917 
Q 1875 428 2675 428 
Q 3081 428 3442 575 
Q 3803 722 4122 1019 
L 4122 359 
Q 3791 134 3420 21 
Q 3050 -91 2638 -91 
Q 1578 -91 968 557 
Q 359 1206 359 2328 
Q 359 3453 968 4101 
Q 1578 4750 2638 4750 
Q 3056 4750 3426 4639 
Q 3797 4528 4122 4306 
z
" transform="scale(0.015625)"/>
      <path id="DejaVuSans-3a" d="M 750 794 
L 1409 794 
L 1409 0 
L 750 0 
L 750 794 
z
M 750 3309 
L 1409 3309 
L 1409 2516 
L 750 2516 
L 750 3309 
z
" transform="scale(0.015625)"/>
     </defs>
     <use xlink:href="#DejaVuSans-42"/>
     <use xlink:href="#DejaVuSans-75" x="68.603516"/>
     <use xlink:href="#DejaVuSans-62" x="131.982422"/>
     <use xlink:href="#DejaVuSans-62" x="195.458984"/>
     <use xlink:href="#DejaVuSans-6c" x="258.935547"/>
     <use xlink:href="#DejaVuSans-65" x="286.71875"/>
     <use xlink:href="#DejaVuSans-20" x="348.242188"/>
     <use xlink:href="#DejaVuSans-43" x="380.029297"/>
     <use xlink:href="#DejaVuSans-68" x="449.853516"/>
     <use xlink:href="#DejaVuSans-61" x="513.232422"/>
     <use xlink:href="#DejaVuSans-72" x="574.511719"/>
     <use xlink:href="#DejaVuSans-74" x="615.625"/>
     <use xlink:href="#DejaVuSans-3a" x="654.833984"/>
     <use xlink:href="#DejaVuSans-20" x="688.525391"/>
     <use xlink:href="#DejaVuSans-65" x="720.3125"/>
     <use xlink:href="#DejaVuSans-76" x="781.835938"/>
     <use xlink:href="#DejaVuSans-61" x="841.015625"/>
     <use xlink:href="#DejaVuSans-6c" x="902.294922"/>
     <use xlink:href="#DejaVuSans-75" x="930.078125"/>
     <use xlink:href="#DejaVuSans-61" x="993.457031"/>
     <use xlink:href="#DejaVuSans-74" x="1054.736328"/>
     <use xlink:href="#DejaVuSans-69" x="1093.945312"/>
     <use xlink:href="#DejaVuSans-6f" x="1121.728516"/>
     <use xlink:href="#DejaVuSans-6e" x="1182.910156"/>
     <use xlink:href="#DejaVuSans-20" x="1246.289062"/>
     <use xlink:href="#DejaVuSans-76" x="1278.076172"/>
     <use xlink:href="#DejaVuSans-73" x="1337.255859"/>
     <use xlink:href="#DejaVuSans-20" x="1389.355469"/>
     <use xlink:href="#DejaVuSans-76" x="1421.142578"/>
     <use xlink:href="#DejaVuSans-65" x="1480.322266"/>
     <use xlink:href="#DejaVuSans-6e" x="1541.845703"/>
     <use xlink:href="#DejaVuSans-75" x="1605.224609"/>
     <use xlink:href="#DejaVuSans-65" x="1668.603516"/>
     <use xlink:href="#DejaVuSans-20" x="1730.126953"/>
     <use xlink:href="#DejaVuSans-62" x="1761.914062"/>
     <use xlink:href="#DejaVuSans-79" x="1825.390625"/>
     <use xlink:href="#DejaVuSans-20" x="1884.570312"/>
     <use xlink:href="#DejaVuSans-72" x="1916.357422"/>
     <use xlink:href="#DejaVuSans-65" x="1955.220703"/>
     <use xlink:href="#DejaVuSans-61" x="2016.744141"/>
     <use xlink:href="#DejaVuSans-6c" x="2078.023438"/>
     <use xlink:href="#DejaVuSans-69" x="2105.806641"/>
     <use xlink:href="#DejaVuSans-74" x="2133.589844"/>
     <use xlink:href="#DejaVuSans-79" x="2172.798828"/>
    </g>
   </g>
   <g id="legend_1">
    <g id="patch_7">
     <path d="M 513.467188 150.510625 
L 641 150.510625 
Q 643 150.510625 643 148.510625 
L 643 76.12 
Q 643 74.12 641 74.12 
L 513.467188 74.12 
Q 511.467188 74.12 511.467188 76.12 
L 511.467188 148.510625 
Q 511.467188 150.510625 513.467188 150.510625 
z
" style="fill: #ffffff; opacity: 0.8; stroke: #cccccc; stroke-linejoin: miter"/>
    </g>
    <g id="text_12">
     <!-- Reality -->
     <g transform="translate(560.146094 85.718437) scale(0.1 -0.1)">
      <use xlink:href="#DejaVuSans-52"/>
      <use xlink:href="#DejaVuSans-65" x="64.982422"/>
      <use xlink:href="#DejaVuSans-61" x="126.505859"/>
      <use xlink:href="#DejaVuSans-6c" x="187.785156"/>
      <use xlink:href="#DejaVuSans-69" x="215.568359"/>
      <use xlink:href="#DejaVuSans-74" x="243.351562"/>
      <use xlink:href="#DejaVuSans-79" x="282.560547"/>
     </g>
    </g>
    <g id="line2d_17">
     <path d="M 515.467188 96.896563 
L 525.467188 96.896563 
L 535.467188 96.896563 
" style="fill: none; stroke: #ffffff; stroke-width: 1.5; stroke-linecap: square"/>
     <defs>
      <path id="m566ebeb362" d="M 0 5 
C 1.326016 5 2.597899 4.473168 3.535534 3.535534 
C 4.473168 2.597899 5 1.326016 5 0 
C 5 -1.326016 4.473168 -2.597899 3.535534 -3.535534 
C 2.597899 -4.473168 1.326016 -5 0 -5 
C -1.326016 -5 -2.597899 -4.473168 -3.535534 -3.535534 
C -4.473168 -2.597899 -5 -1.326016 -5 0 
C -5 1.326016 -4.473168 2.597899 -3.535534 3.535534 
C -2.597899 4.473168 -1.326016 5 0 5 
z
" style="stroke: #ffffff"/>
     </defs>
     <g>
      <use xlink:href="#m566ebeb362" x="525.467188" y="96.896563" style="fill: #00ffff; stroke: #ffffff"/>
     </g>
    </g>
    <g id="text_13">
     <!-- Virtual Reality -->
     <g transform="translate(543.467188 100.396563) scale(0.1 -0.1)">
      <use xlink:href="#DejaVuSans-56"/>
      <use xlink:href="#DejaVuSans-69" x="66.158203"/>
      <use xlink:href="#DejaVuSans-72" x="93.941406"/>
      <use xlink:href="#DejaVuSans-74" x="135.054688"/>
      <use xlink:href="#DejaVuSans-75" x="174.263672"/>
      <use xlink:href="#DejaVuSans-61" x="237.642578"/>
      <use xlink:href="#DejaVuSans-6c" x="298.921875"/>
      <use xlink:href="#DejaVuSans-20" x="326.705078"/>
      <use xlink:href="#DejaVuSans-52" x="358.492188"/>
      <use xlink:href="#DejaVuSans-65" x="423.474609"/>
      <use xlink:href="#DejaVuSans-61" x="484.998047"/>
      <use xlink:href="#DejaVuSans-6c" x="546.277344"/>
      <use xlink:href="#DejaVuSans-69" x="574.060547"/>
      <use xlink:href="#DejaVuSans-74" x="601.84375"/>
      <use xlink:href="#DejaVuSans-79" x="641.052734"/>
     </g>
    </g>
    <g id="line2d_18">
     <path d="M 515.467188 111.574688 
L 525.467188 111.574688 
L 535.467188 111.574688 
" style="fill: none; stroke: #ffffff; stroke-width: 1.5; stroke-linecap: square"/>
     <defs>
      <path id="m27dd081406" d="M 0 5 
C 1.326016 5 2.597899 4.473168 3.535534 3.535534 
C 4.473168 2.597899 5 1.326016 5 0 
C 5 -1.326016 4.473168 -2.597899 3.535534 -3.535534 
C 2.597899 -4.473168 1.326016 -5 0 -5 
C -1.326016 -5 -2.597899 -4.473168 -3.535534 -3.535534 
C -4.473168 -2.597899 -5 -1.326016 -5 0 
C -5 1.326016 -4.473168 2.597899 -3.535534 3.535534 
C -2.597899 4.473168 -1.326016 5 0 5 
z
" style="stroke: #ffffff"/>
     </defs>
     <g>
      <use xlink:href="#m27dd081406" x="525.467188" y="111.574688" style="fill: #ff0000; stroke: #ffffff"/>
     </g>
    </g>
    <g id="text_14">
     <!-- Augmented Reality -->
     <g transform="translate(543.467188 115.074688) scale(0.1 -0.1)">
      <use xlink:href="#DejaVuSans-41"/>
      <use xlink:href="#DejaVuSans-75" x="68.408203"/>
      <use xlink:href="#DejaVuSans-67" x="131.787109"/>
      <use xlink:href="#DejaVuSans-6d" x="195.263672"/>
      <use xlink:href="#DejaVuSans-65" x="292.675781"/>
      <use xlink:href="#DejaVuSans-6e" x="354.199219"/>
      <use xlink:href="#DejaVuSans-74" x="417.578125"/>
      <use xlink:href="#DejaVuSans-65" x="456.787109"/>
      <use xlink:href="#DejaVuSans-64" x="518.310547"/>
      <use xlink:href="#DejaVuSans-20" x="581.787109"/>
      <use xlink:href="#DejaVuSans-52" x="613.574219"/>
      <use xlink:href="#DejaVuSans-65" x="678.556641"/>
      <use xlink:href="#DejaVuSans-61" x="740.080078"/>
      <use xlink:href="#DejaVuSans-6c" x="801.359375"/>
      <use xlink:href="#DejaVuSans-69" x="829.142578"/>
      <use xlink:href="#DejaVuSans-74" x="856.925781"/>
      <use xlink:href="#DejaVuSans-79" x="896.134766"/>
     </g>
    </g>
    <g id="line2d_19">
     <path d="M 515.467188 126.252813 
L 525.467188 126.252813 
L 535.467188 126.252813 
" style="fill: none; stroke: #ffffff; stroke-width: 1.5; stroke-linecap: square"/>
     <defs>
      <path id="mb5cad533ed" d="M 0 5 
C 1.326016 5 2.597899 4.473168 3.535534 3.535534 
C 4.473168 2.597899 5 1.326016 5 0 
C 5 -1.326016 4.473168 -2.597899 3.535534 -3.535534 
C 2.597899 -4.473168 1.326016 -5 0 -5 
C -1.326016 -5 -2.597899 -4.473168 -3.535534 -3.535534 
C -4.473168 -2.597899 -5 -1.326016 -5 0 
C -5 1.326016 -4.473168 2.597899 -3.535534 3.535534 
C -2.597899 4.473168 -1.326016 5 0 5 
z
" style="stroke: #ffffff"/>
     </defs>
     <g>
      <use xlink:href="#mb5cad533ed" x="525.467188" y="126.252813" style="fill: #ff00ff; stroke: #ffffff"/>
     </g>
    </g>
    <g id="text_15">
     <!-- Mixed Reality -->
     <g transform="translate(543.467188 129.752813) scale(0.1 -0.1)">
      <use xlink:href="#DejaVuSans-4d"/>
      <use xlink:href="#DejaVuSans-69" x="86.279297"/>
      <use xlink:href="#DejaVuSans-78" x="114.0625"/>
      <use xlink:href="#DejaVuSans-65" x="170.117188"/>
      <use xlink:href="#DejaVuSans-64" x="231.640625"/>
      <use xlink:href="#DejaVuSans-20" x="295.117188"/>
      <use xlink:href="#DejaVuSans-52" x="326.904297"/>
      <use xlink:href="#DejaVuSans-65" x="391.886719"/>
      <use xlink:href="#DejaVuSans-61" x="453.410156"/>
      <use xlink:href="#DejaVuSans-6c" x="514.689453"/>
      <use xlink:href="#DejaVuSans-69" x="542.472656"/>
      <use xlink:href="#DejaVuSans-74" x="570.255859"/>
      <use xlink:href="#DejaVuSans-79" x="609.464844"/>
     </g>
    </g>
    <g id="line2d_20">
     <path d="M 515.467188 140.930938 
L 525.467188 140.930938 
L 535.467188 140.930938 
" style="fill: none; stroke: #ffffff; stroke-width: 1.5; stroke-linecap: square"/>
     <defs>
      <path id="mdea9a9c878" d="M 0 5 
C 1.326016 5 2.597899 4.473168 3.535534 3.535534 
C 4.473168 2.597899 5 1.326016 5 0 
C 5 -1.326016 4.473168 -2.597899 3.535534 -3.535534 
C 2.597899 -4.473168 1.326016 -5 0 -5 
C -1.326016 -5 -2.597899 -4.473168 -3.535534 -3.535534 
C -4.473168 -2.597899 -5 -1.326016 -5 0 
C -5 1.326016 -4.473168 2.597899 -3.535534 3.535534 
C -2.597899 4.473168 -1.326016 5 0 5 
z
" style="stroke: #ffffff"/>
     </defs>
     <g>
      <use xlink:href="#mdea9a9c878" x="525.467188" y="140.930938" style="fill: #ffa500; stroke: #ffffff"/>
     </g>
    </g>
    <g id="text_16">
     <!-- Extended Reality -->
     <g transform="translate(543.467188 144.430938) scale(0.1 -0.1)">
      <use xlink:href="#DejaVuSans-45"/>
      <use xlink:href="#DejaVuSans-78" x="63.183594"/>
      <use xlink:href="#DejaVuSans-74" x="122.363281"/>
      <use xlink:href="#DejaVuSans-65" x="161.572266"/>
      <use xlink:href="#DejaVuSans-6e" x="223.095703"/>
      <use xlink:href="#DejaVuSans-64" x="286.474609"/>
      <use xlink:href="#DejaVuSans-65" x="349.951172"/>
      <use xlink:href="#DejaVuSans-64" x="411.474609"/>
      <use xlink:href="#DejaVuSans-20" x="474.951172"/>
      <use xlink:href="#DejaVuSans-52" x="506.738281"/>
      <use xlink:href="#DejaVuSans-65" x="571.720703"/>
      <use xlink:href="#DejaVuSans-61" x="633.244141"/>
      <use xlink:href="#DejaVuSans-6c" x="694.523438"/>
      <use xlink:href="#DejaVuSans-69" x="722.306641"/>
      <use xlink:href="#DejaVuSans-74" x="750.089844"/>
      <use xlink:href="#DejaVuSans-79" x="789.298828"/>
     </g>
    </g>
   </g>
  </g>
 </g>
 <defs>
  <clipPath id="p207a8e266b">
   <rect x="90" y="69.12" width="558" height="443.52"/>
  </clipPath>
 </defs>
</svg>
