<?xml version="1.0" encoding="utf-8" standalone="no"?>
<!DOCTYPE svg PUBLIC "-//W3C//DTD SVG 1.1//EN"
  "http://www.w3.org/Graphics/SVG/1.1/DTD/svg11.dtd">
<svg xmlns:xlink="http://www.w3.org/1999/xlink" width="720pt" height="576pt" viewBox="0 0 720 576" xmlns="http://www.w3.org/2000/svg" version="1.1">
 <metadata>
  <rdf:RDF xmlns:dc="http://purl.org/dc/elements/1.1/" xmlns:cc="http://creativecommons.org/ns#" xmlns:rdf="http://www.w3.org/1999/02/22-rdf-syntax-ns#">
   <cc:Work>
    <dc:type rdf:resource="http://purl.org/dc/dcmitype/StillImage"/>
    <dc:date>2024-09-02T12:50:17.659198</dc:date>
    <dc:format>image/svg+xml</dc:format>
    <dc:creator>
     <cc:Agent>
      <dc:title>Matplotlib v3.8.2, https://matplotlib.org/</dc:title>
     </cc:Agent>
    </dc:creator>
   </cc:Work>
  </rdf:RDF>
 </metadata>
 <defs>
  <style type="text/css">*{stroke-linejoin: round; stroke-linecap: butt}</style>
 </defs>
 <g id="figure_1">
  <g id="patch_1">
   <path d="M 0 576 
L 720 576 
L 720 0 
L 0 0 
z
" style="fill: #ffffff"/>
  </g>
  <g id="axes_1">
   <g id="patch_2">
    <path d="M 90 512.64 
L 648 512.64 
L 648 69.12 
L 90 69.12 
z
" style="fill: #ffffff"/>
   </g>
   <g id="PathCollection_1">
    <path d="M 115.363636 518.460762 
C 122.253815 518.460762 128.862717 515.723265 133.734809 510.851173 
C 138.606901 505.979081 141.344398 499.370179 141.344398 492.48 
C 141.344398 485.589821 138.606901 478.980919 133.734809 474.108827 
C 128.862717 469.236735 122.253815 466.499238 115.363636 466.499238 
C 108.473458 466.499238 101.864555 469.236735 96.992463 474.108827 
C 92.120371 478.980919 89.382874 485.589821 89.382874 492.48 
C 89.382874 499.370179 92.120371 505.979081 96.992463 510.851173 
C 101.864555 515.723265 108.473458 518.460762 115.363636 518.460762 
z
" clip-path="url(#p7c95d60210)" style="fill: #808080; fill-opacity: 0.6; stroke: #ffffff; stroke-opacity: 0.6; stroke-width: 2"/>
    <path d="M 115.363636 515.932079 
C 121.5832 515.932079 127.548864 513.46102 131.94676 509.063124 
C 136.344656 504.665228 138.815715 498.699564 138.815715 492.48 
C 138.815715 486.260436 136.344656 480.294772 131.94676 475.896876 
C 127.548864 471.49898 121.5832 469.027921 115.363636 469.027921 
C 109.144072 469.027921 103.178408 471.49898 98.780512 475.896876 
C 94.382617 480.294772 91.911558 486.260436 91.911558 492.48 
C 91.911558 498.699564 94.382617 504.665228 98.780512 509.063124 
C 103.178408 513.46102 109.144072 515.932079 115.363636 515.932079 
z
" clip-path="url(#p7c95d60210)" style="fill: #808080; fill-opacity: 0.6; stroke: #ffffff; stroke-opacity: 0.6; stroke-width: 2"/>
    <path d="M 115.363636 504.727449 
C 118.611698 504.727449 121.727164 503.43698 124.02389 501.140254 
C 126.320617 498.843528 127.611085 495.728061 127.611085 492.48 
C 127.611085 489.231939 126.320617 486.116472 124.02389 483.819746 
C 121.727164 481.52302 118.611698 480.232551 115.363636 480.232551 
C 112.115575 480.232551 109.000109 481.52302 106.703382 483.819746 
C 104.406656 486.116472 103.116188 489.231939 103.116188 492.48 
C 103.116188 495.728061 104.406656 498.843528 106.703382 501.140254 
C 109.000109 503.43698 112.115575 504.727449 115.363636 504.727449 
z
" clip-path="url(#p7c95d60210)" style="fill: #ff0000; fill-opacity: 0.6; stroke: #ffffff; stroke-opacity: 0.6; stroke-width: 2"/>
    <path d="M 115.363636 505.708757 
C 118.871944 505.708757 122.237032 504.314891 124.71778 501.834143 
C 127.198528 499.353396 128.592393 495.988307 128.592393 492.48 
C 128.592393 488.971693 127.198528 485.606604 124.71778 483.125857 
C 122.237032 480.645109 118.871944 479.251243 115.363636 479.251243 
C 111.855329 479.251243 108.490241 480.645109 106.009493 483.125857 
C 103.528745 485.606604 102.13488 488.971693 102.13488 492.48 
C 102.13488 495.988307 103.528745 499.353396 106.009493 501.834143 
C 108.490241 504.314891 111.855329 505.708757 115.363636 505.708757 
z
" clip-path="url(#p7c95d60210)" style="fill: #808080; fill-opacity: 0.6; stroke: #ffffff; stroke-opacity: 0.6; stroke-width: 2"/>
    <path d="M 115.363636 380.992878 
C 121.440203 380.992878 127.268707 378.578633 131.565488 374.281852 
C 135.862269 369.98507 138.276515 364.156566 138.276515 358.08 
C 138.276515 352.003434 135.862269 346.17493 131.565488 341.878148 
C 127.268707 337.581367 121.440203 335.167122 115.363636 335.167122 
C 109.28707 335.167122 103.458566 337.581367 99.161785 341.878148 
C 94.865003 346.17493 92.450758 352.003434 92.450758 358.08 
C 92.450758 364.156566 94.865003 369.98507 99.161785 374.281852 
C 103.458566 378.578633 109.28707 380.992878 115.363636 380.992878 
z
" clip-path="url(#p7c95d60210)" style="fill: #808080; fill-opacity: 0.6; stroke: #ffffff; stroke-opacity: 0.6; stroke-width: 2"/>
    <path d="M 115.363636 370.327449 
C 118.611698 370.327449 121.727164 369.03698 124.02389 366.740254 
C 126.320617 364.443528 127.611085 361.328061 127.611085 358.08 
C 127.611085 354.831939 126.320617 351.716472 124.02389 349.419746 
C 121.727164 347.12302 118.611698 345.832551 115.363636 345.832551 
C 112.115575 345.832551 109.000109 347.12302 106.703382 349.419746 
C 104.406656 351.716472 103.116188 354.831939 103.116188 358.08 
C 103.116188 361.328061 104.406656 364.443528 106.703382 366.740254 
C 109.000109 369.03698 112.115575 370.327449 115.363636 370.327449 
z
" clip-path="url(#p7c95d60210)" style="fill: #808080; fill-opacity: 0.6; stroke: #ffffff; stroke-opacity: 0.6; stroke-width: 2"/>
    <path d="M 115.363636 366.740254 
C 117.660363 366.740254 119.86333 365.827755 121.487361 364.203724 
C 123.111391 362.579694 124.02389 360.376726 124.02389 358.08 
C 124.02389 355.783274 123.111391 353.580306 121.487361 351.956276 
C 119.86333 350.332245 117.660363 349.419746 115.363636 349.419746 
C 113.06691 349.419746 110.863943 350.332245 109.239912 351.956276 
C 107.615881 353.580306 106.703382 355.783274 106.703382 358.08 
C 106.703382 360.376726 107.615881 362.579694 109.239912 364.203724 
C 110.863943 365.827755 113.06691 366.740254 115.363636 366.740254 
z
" clip-path="url(#p7c95d60210)" style="fill: #ff0000; fill-opacity: 0.6; stroke: #ffffff; stroke-opacity: 0.6; stroke-width: 2"/>
    <path d="M 115.363636 366.740254 
C 117.660363 366.740254 119.86333 365.827755 121.487361 364.203724 
C 123.111391 362.579694 124.02389 360.376726 124.02389 358.08 
C 124.02389 355.783274 123.111391 353.580306 121.487361 351.956276 
C 119.86333 350.332245 117.660363 349.419746 115.363636 349.419746 
C 113.06691 349.419746 110.863943 350.332245 109.239912 351.956276 
C 107.615881 353.580306 106.703382 355.783274 106.703382 358.08 
C 106.703382 360.376726 107.615881 362.579694 109.239912 364.203724 
C 110.863943 365.827755 113.06691 366.740254 115.363636 366.740254 
z
" clip-path="url(#p7c95d60210)" style="fill: #808080; fill-opacity: 0.6; stroke: #ffffff; stroke-opacity: 0.6; stroke-width: 2"/>
    <path d="M 115.363636 241.707756 
C 120.144653 241.707756 124.730496 239.808238 128.111185 236.427549 
C 131.491875 233.046859 133.391393 228.461017 133.391393 223.68 
C 133.391393 218.898983 131.491875 214.313141 128.111185 210.932451 
C 124.730496 207.551762 120.144653 205.652244 115.363636 205.652244 
C 110.582619 205.652244 105.996777 207.551762 102.616088 210.932451 
C 99.235398 214.313141 97.33588 218.898983 97.33588 223.68 
C 97.33588 228.461017 99.235398 233.046859 102.616088 236.427549 
C 105.996777 239.808238 110.582619 241.707756 115.363636 241.707756 
z
" clip-path="url(#p7c95d60210)" style="fill: #808080; fill-opacity: 0.6; stroke: #ffffff; stroke-opacity: 0.6; stroke-width: 2"/>
    <path d="M 115.363636 234.86034 
C 118.328697 234.86034 121.172716 233.682309 123.269331 231.585694 
C 125.365945 229.48908 126.543976 226.645061 126.543976 223.68 
C 126.543976 220.714939 125.365945 217.87092 123.269331 215.774306 
C 121.172716 213.677691 118.328697 212.49966 115.363636 212.49966 
C 112.398576 212.49966 109.554557 213.677691 107.457942 215.774306 
C 105.361328 217.87092 104.183296 220.714939 104.183296 223.68 
C 104.183296 226.645061 105.361328 229.48908 107.457942 231.585694 
C 109.554557 233.682309 112.398576 234.86034 115.363636 234.86034 
z
" clip-path="url(#p7c95d60210)" style="fill: #808080; fill-opacity: 0.6; stroke: #ffffff; stroke-opacity: 0.6; stroke-width: 2"/>
    <path d="M 115.363636 228.68 
C 116.689652 228.68 117.961536 228.153168 118.89917 227.215534 
C 119.836805 226.277899 120.363636 225.006016 120.363636 223.68 
C 120.363636 222.353984 119.836805 221.082101 118.89917 220.144466 
C 117.961536 219.206832 116.689652 218.68 115.363636 218.68 
C 114.037621 218.68 112.765737 219.206832 111.828102 220.144466 
C 110.890468 221.082101 110.363636 222.353984 110.363636 223.68 
C 110.363636 225.006016 110.890468 226.277899 111.828102 227.215534 
C 112.765737 228.153168 114.037621 228.68 115.363636 228.68 
z
" clip-path="url(#p7c95d60210)" style="fill: #ff0000; fill-opacity: 0.6; stroke: #ffffff; stroke-opacity: 0.6; stroke-width: 2"/>
    <path d="M 115.363636 228.68 
C 116.689652 228.68 117.961536 228.153168 118.89917 227.215534 
C 119.836805 226.277899 120.363636 225.006016 120.363636 223.68 
C 120.363636 222.353984 119.836805 221.082101 118.89917 220.144466 
C 117.961536 219.206832 116.689652 218.68 115.363636 218.68 
C 114.037621 218.68 112.765737 219.206832 111.828102 220.144466 
C 110.890468 221.082101 110.363636 222.353984 110.363636 223.68 
C 110.363636 225.006016 110.890468 226.277899 111.828102 227.215534 
C 112.765737 228.153168 114.037621 228.68 115.363636 228.68 
z
" clip-path="url(#p7c95d60210)" style="fill: #808080; fill-opacity: 0.6; stroke: #ffffff; stroke-opacity: 0.6; stroke-width: 2"/>
    <path d="M 115.363636 106.600508 
C 119.957089 106.600508 124.363024 104.77551 127.611085 101.527449 
C 130.859146 98.279387 132.684144 93.873452 132.684144 89.28 
C 132.684144 84.686548 130.859146 80.280613 127.611085 77.032551 
C 124.363024 73.78449 119.957089 71.959492 115.363636 71.959492 
C 110.770184 71.959492 106.364249 73.78449 103.116188 77.032551 
C 99.868126 80.280613 98.043128 84.686548 98.043128 89.28 
C 98.043128 93.873452 99.868126 98.279387 103.116188 101.527449 
C 106.364249 104.77551 110.770184 106.600508 115.363636 106.600508 
z
" clip-path="url(#p7c95d60210)" style="fill: #808080; fill-opacity: 0.6; stroke: #ffffff; stroke-opacity: 0.6; stroke-width: 2"/>
    <path d="M 115.363636 99.28 
C 118.015667 99.28 120.559435 98.226337 122.434704 96.351068 
C 124.309973 94.475799 125.363636 91.932031 125.363636 89.28 
C 125.363636 86.627969 124.309973 84.084201 122.434704 82.208932 
C 120.559435 80.333663 118.015667 79.28 115.363636 79.28 
C 112.711605 79.28 110.167838 80.333663 108.292569 82.208932 
C 106.417299 84.084201 105.363636 86.627969 105.363636 89.28 
C 105.363636 91.932031 106.417299 94.475799 108.292569 96.351068 
C 110.167838 98.226337 112.711605 99.28 115.363636 99.28 
z
" clip-path="url(#p7c95d60210)" style="fill: #808080; fill-opacity: 0.6; stroke: #ffffff; stroke-opacity: 0.6; stroke-width: 2"/>
    <path d="M 115.363636 96.351068 
C 117.238905 96.351068 119.037621 95.606015 120.363636 94.28 
C 121.689652 92.953984 122.434704 91.155269 122.434704 89.28 
C 122.434704 87.404731 121.689652 85.606015 120.363636 84.28 
C 119.037621 82.953984 117.238905 82.208932 115.363636 82.208932 
C 113.488367 82.208932 111.689652 82.953984 110.363636 84.28 
C 109.037621 85.606015 108.292569 87.404731 108.292569 89.28 
C 108.292569 91.155269 109.037621 92.953984 110.363636 94.28 
C 111.689652 95.606015 113.488367 96.351068 115.363636 96.351068 
z
" clip-path="url(#p7c95d60210)" style="fill: #ff0000; fill-opacity: 0.6; stroke: #ffffff; stroke-opacity: 0.6; stroke-width: 2"/>
    <path d="M 115.363636 96.351068 
C 117.238905 96.351068 119.037621 95.606015 120.363636 94.28 
C 121.689652 92.953984 122.434704 91.155269 122.434704 89.28 
C 122.434704 87.404731 121.689652 85.606015 120.363636 84.28 
C 119.037621 82.953984 117.238905 82.208932 115.363636 82.208932 
C 113.488367 82.208932 111.689652 82.953984 110.363636 84.28 
C 109.037621 85.606015 108.292569 87.404731 108.292569 89.28 
C 108.292569 91.155269 109.037621 92.953984 110.363636 94.28 
C 111.689652 95.606015 113.488367 96.351068 115.363636 96.351068 
z
" clip-path="url(#p7c95d60210)" style="fill: #808080; fill-opacity: 0.6; stroke: #ffffff; stroke-opacity: 0.6; stroke-width: 2"/>
    <path d="M 284.454545 505.708757 
C 287.962853 505.708757 291.327941 504.314891 293.808689 501.834143 
C 296.289437 499.353396 297.683302 495.988307 297.683302 492.48 
C 297.683302 488.971693 296.289437 485.606604 293.808689 483.125857 
C 291.327941 480.645109 287.962853 479.251243 284.454545 479.251243 
C 280.946238 479.251243 277.58115 480.645109 275.100402 483.125857 
C 272.619654 485.606604 271.225789 488.971693 271.225789 492.48 
C 271.225789 495.988307 272.619654 499.353396 275.100402 501.834143 
C 277.58115 504.314891 280.946238 505.708757 284.454545 505.708757 
z
" clip-path="url(#p7c95d60210)" style="fill: #808080; fill-opacity: 0.6; stroke: #ffffff; stroke-opacity: 0.6; stroke-width: 2"/>
    <path d="M 284.454545 512.48 
C 289.758607 512.48 294.846143 510.372674 298.596681 506.622136 
C 302.347219 502.871597 304.454545 497.784062 304.454545 492.48 
C 304.454545 487.175938 302.347219 482.088403 298.596681 478.337864 
C 294.846143 474.587326 289.758607 472.48 284.454545 472.48 
C 279.150483 472.48 274.062948 474.587326 270.31241 478.337864 
C 266.561872 482.088403 264.454545 487.175938 264.454545 492.48 
C 264.454545 497.784062 266.561872 502.871597 270.31241 506.622136 
C 274.062948 510.372674 279.150483 512.48 284.454545 512.48 
z
" clip-path="url(#p7c95d60210)" style="fill: #808080; fill-opacity: 0.6; stroke: #ffffff; stroke-opacity: 0.6; stroke-width: 2"/>
    <path d="M 284.454545 516.459158 
C 290.813892 516.459158 296.913633 513.932562 301.41037 509.435825 
C 305.907108 504.939088 308.433703 498.839347 308.433703 492.48 
C 308.433703 486.120653 305.907108 480.020912 301.41037 475.524175 
C 296.913633 471.027438 290.813892 468.500842 284.454545 468.500842 
C 278.095199 468.500842 271.995458 471.027438 267.49872 475.524175 
C 263.001983 480.020912 260.475388 486.120653 260.475388 492.48 
C 260.475388 498.839347 263.001983 504.939088 267.49872 509.435825 
C 271.995458 513.932562 278.095199 516.459158 284.454545 516.459158 
z
" clip-path="url(#p7c95d60210)" style="fill: #ff0000; fill-opacity: 0.6; stroke: #ffffff; stroke-opacity: 0.6; stroke-width: 2"/>
    <path d="M 284.454545 508.291388 
C 288.647775 508.291388 292.669825 506.625401 295.634885 503.66034 
C 298.599946 500.695279 300.265934 496.673229 300.265934 492.48 
C 300.265934 488.286771 298.599946 484.264721 295.634885 481.29966 
C 292.669825 478.334599 288.647775 476.668612 284.454545 476.668612 
C 280.261316 476.668612 276.239266 478.334599 273.274206 481.29966 
C 270.309145 484.264721 268.643157 488.286771 268.643157 492.48 
C 268.643157 496.673229 270.309145 500.695279 273.274206 503.66034 
C 276.239266 506.625401 280.261316 508.291388 284.454545 508.291388 
z
" clip-path="url(#p7c95d60210)" style="fill: #808080; fill-opacity: 0.6; stroke: #ffffff; stroke-opacity: 0.6; stroke-width: 2"/>
    <path d="M 284.454545 366.740254 
C 286.751272 366.740254 288.954239 365.827755 290.57827 364.203724 
C 292.2023 362.579694 293.114799 360.376726 293.114799 358.08 
C 293.114799 355.783274 292.2023 353.580306 290.57827 351.956276 
C 288.954239 350.332245 286.751272 349.419746 284.454545 349.419746 
C 282.157819 349.419746 279.954852 350.332245 278.330821 351.956276 
C 276.70679 353.580306 275.794291 355.783274 275.794291 358.08 
C 275.794291 360.376726 276.70679 362.579694 278.330821 364.203724 
C 279.954852 365.827755 282.157819 366.740254 284.454545 366.740254 
z
" clip-path="url(#p7c95d60210)" style="fill: #808080; fill-opacity: 0.6; stroke: #ffffff; stroke-opacity: 0.6; stroke-width: 2"/>
    <path d="M 284.454545 373.08 
C 288.432592 373.08 292.248244 371.499505 295.061147 368.686602 
C 297.874051 365.873698 299.454545 362.058046 299.454545 358.08 
C 299.454545 354.101953 297.874051 350.286302 295.061147 347.473398 
C 292.248244 344.660495 288.432592 343.08 284.454545 343.08 
C 280.476499 343.08 276.660847 344.660495 273.847944 347.473398 
C 271.03504 350.286302 269.454545 354.101953 269.454545 358.08 
C 269.454545 362.058046 271.03504 365.873698 273.847944 368.686602 
C 276.660847 371.499505 280.476499 373.08 284.454545 373.08 
z
" clip-path="url(#p7c95d60210)" style="fill: #808080; fill-opacity: 0.6; stroke: #ffffff; stroke-opacity: 0.6; stroke-width: 2"/>
    <path d="M 284.454545 380.44068 
C 290.384667 380.44068 296.072705 378.084617 300.265934 373.891388 
C 304.459163 369.698159 306.815225 364.010122 306.815225 358.08 
C 306.815225 352.149878 304.459163 346.461841 300.265934 342.268612 
C 296.072705 338.075383 290.384667 335.71932 284.454545 335.71932 
C 278.524424 335.71932 272.836386 338.075383 268.643157 342.268612 
C 264.449928 346.461841 262.093866 352.149878 262.093866 358.08 
C 262.093866 364.010122 264.449928 369.698159 268.643157 373.891388 
C 272.836386 378.084617 278.524424 380.44068 284.454545 380.44068 
z
" clip-path="url(#p7c95d60210)" style="fill: #ff0000; fill-opacity: 0.6; stroke: #ffffff; stroke-opacity: 0.6; stroke-width: 2"/>
    <path d="M 284.454545 370.327449 
C 287.702607 370.327449 290.818073 369.03698 293.114799 366.740254 
C 295.411526 364.443528 296.701994 361.328061 296.701994 358.08 
C 296.701994 354.831939 295.411526 351.716472 293.114799 349.419746 
C 290.818073 347.12302 287.702607 345.832551 284.454545 345.832551 
C 281.206484 345.832551 278.091018 347.12302 275.794291 349.419746 
C 273.497565 351.716472 272.207097 354.831939 272.207097 358.08 
C 272.207097 361.328061 273.497565 364.443528 275.794291 366.740254 
C 278.091018 369.03698 281.206484 370.327449 284.454545 370.327449 
z
" clip-path="url(#p7c95d60210)" style="fill: #808080; fill-opacity: 0.6; stroke: #ffffff; stroke-opacity: 0.6; stroke-width: 2"/>
    <path d="M 284.454545 228.68 
C 285.780561 228.68 287.052445 228.153168 287.990079 227.215534 
C 288.927714 226.277899 289.454545 225.006016 289.454545 223.68 
C 289.454545 222.353984 288.927714 221.082101 287.990079 220.144466 
C 287.052445 219.206832 285.780561 218.68 284.454545 218.68 
C 283.12853 218.68 281.856646 219.206832 280.919012 220.144466 
C 279.981377 221.082101 279.454545 222.353984 279.454545 223.68 
C 279.454545 225.006016 279.981377 226.277899 280.919012 227.215534 
C 281.856646 228.153168 283.12853 228.68 284.454545 228.68 
z
" clip-path="url(#p7c95d60210)" style="fill: #808080; fill-opacity: 0.6; stroke: #ffffff; stroke-opacity: 0.6; stroke-width: 2"/>
    <path d="M 284.454545 234.86034 
C 287.419606 234.86034 290.263625 233.682309 292.36024 231.585694 
C 294.456854 229.48908 295.634885 226.645061 295.634885 223.68 
C 295.634885 220.714939 294.456854 217.87092 292.36024 215.774306 
C 290.263625 213.677691 287.419606 212.49966 284.454545 212.49966 
C 281.489485 212.49966 278.645466 213.677691 276.548851 215.774306 
C 274.452237 217.87092 273.274206 220.714939 273.274206 223.68 
C 273.274206 226.645061 274.452237 229.48908 276.548851 231.585694 
C 278.645466 233.682309 281.489485 234.86034 284.454545 234.86034 
z
" clip-path="url(#p7c95d60210)" style="fill: #808080; fill-opacity: 0.6; stroke: #ffffff; stroke-opacity: 0.6; stroke-width: 2"/>
    <path d="M 284.454545 236.908757 
C 287.962853 236.908757 291.327941 235.514891 293.808689 233.034143 
C 296.289437 230.553396 297.683302 227.188307 297.683302 223.68 
C 297.683302 220.171693 296.289437 216.806604 293.808689 214.325857 
C 291.327941 211.845109 287.962853 210.451243 284.454545 210.451243 
C 280.946238 210.451243 277.58115 211.845109 275.100402 214.325857 
C 272.619654 216.806604 271.225789 220.171693 271.225789 223.68 
C 271.225789 227.188307 272.619654 230.553396 275.100402 233.034143 
C 277.58115 235.514891 280.946238 236.908757 284.454545 236.908757 
z
" clip-path="url(#p7c95d60210)" style="fill: #ff0000; fill-opacity: 0.6; stroke: #ffffff; stroke-opacity: 0.6; stroke-width: 2"/>
    <path d="M 284.454545 230.751068 
C 286.329815 230.751068 288.12853 230.006016 289.454545 228.68 
C 290.780561 227.353984 291.525613 225.555269 291.525613 223.68 
C 291.525613 221.804731 290.780561 220.006016 289.454545 218.68 
C 288.12853 217.353984 286.329815 216.608932 284.454545 216.608932 
C 282.579276 216.608932 280.780561 217.353984 279.454545 218.68 
C 278.12853 220.006016 277.383478 221.804731 277.383478 223.68 
C 277.383478 225.555269 278.12853 227.353984 279.454545 228.68 
C 280.780561 230.006016 282.579276 230.751068 284.454545 230.751068 
z
" clip-path="url(#p7c95d60210)" style="fill: #808080; fill-opacity: 0.6; stroke: #ffffff; stroke-opacity: 0.6; stroke-width: 2"/>
    <path d="M 284.454545 96.351068 
C 286.329815 96.351068 288.12853 95.606015 289.454545 94.28 
C 290.780561 92.953984 291.525613 91.155269 291.525613 89.28 
C 291.525613 87.404731 290.780561 85.606015 289.454545 84.28 
C 288.12853 82.953984 286.329815 82.208932 284.454545 82.208932 
C 282.579276 82.208932 280.780561 82.953984 279.454545 84.28 
C 278.12853 85.606015 277.383478 87.404731 277.383478 89.28 
C 277.383478 91.155269 278.12853 92.953984 279.454545 94.28 
C 280.780561 95.606015 282.579276 96.351068 284.454545 96.351068 
z
" clip-path="url(#p7c95d60210)" style="fill: #808080; fill-opacity: 0.6; stroke: #ffffff; stroke-opacity: 0.6; stroke-width: 2"/>
    <path d="M 284.454545 102.508757 
C 287.962853 102.508757 291.327941 101.114891 293.808689 98.634143 
C 296.289437 96.153396 297.683302 92.788307 297.683302 89.28 
C 297.683302 85.771693 296.289437 82.406604 293.808689 79.925857 
C 291.327941 77.445109 287.962853 76.051243 284.454545 76.051243 
C 280.946238 76.051243 277.58115 77.445109 275.100402 79.925857 
C 272.619654 82.406604 271.225789 85.771693 271.225789 89.28 
C 271.225789 92.788307 272.619654 96.153396 275.100402 98.634143 
C 277.58115 101.114891 280.946238 102.508757 284.454545 102.508757 
z
" clip-path="url(#p7c95d60210)" style="fill: #808080; fill-opacity: 0.6; stroke: #ffffff; stroke-opacity: 0.6; stroke-width: 2"/>
    <path d="M 284.454545 105.863124 
C 288.852441 105.863124 293.070803 104.115821 296.180585 101.006039 
C 299.290367 97.896257 301.037669 93.677896 301.037669 89.28 
C 301.037669 84.882104 299.290367 80.663743 296.180585 77.553961 
C 293.070803 74.444179 288.852441 72.696876 284.454545 72.696876 
C 280.05665 72.696876 275.838288 74.444179 272.728506 77.553961 
C 269.618724 80.663743 267.871422 84.882104 267.871422 89.28 
C 267.871422 93.677896 269.618724 97.896257 272.728506 101.006039 
C 275.838288 104.115821 280.05665 105.863124 284.454545 105.863124 
z
" clip-path="url(#p7c95d60210)" style="fill: #ff0000; fill-opacity: 0.6; stroke: #ffffff; stroke-opacity: 0.6; stroke-width: 2"/>
    <path d="M 284.454545 99.28 
C 287.106576 99.28 289.650344 98.226337 291.525613 96.351068 
C 293.400882 94.475799 294.454545 91.932031 294.454545 89.28 
C 294.454545 86.627969 293.400882 84.084201 291.525613 82.208932 
C 289.650344 80.333663 287.106576 79.28 284.454545 79.28 
C 281.802514 79.28 279.258747 80.333663 277.383478 82.208932 
C 275.508209 84.084201 274.454545 86.627969 274.454545 89.28 
C 274.454545 91.932031 275.508209 94.475799 277.383478 96.351068 
C 279.258747 98.226337 281.802514 99.28 284.454545 99.28 
z
" clip-path="url(#p7c95d60210)" style="fill: #808080; fill-opacity: 0.6; stroke: #ffffff; stroke-opacity: 0.6; stroke-width: 2"/>
    <path d="M 453.545455 499.551068 
C 455.420724 499.551068 457.219439 498.806016 458.545455 497.48 
C 459.87147 496.153985 460.616522 494.355269 460.616522 492.48 
C 460.616522 490.604731 459.87147 488.806016 458.545455 487.48 
C 457.219439 486.153985 455.420724 485.408932 453.545455 485.408932 
C 451.670185 485.408932 449.87147 486.153985 448.545455 487.48 
C 447.219439 488.806016 446.474387 490.604731 446.474387 492.48 
C 446.474387 494.355269 447.219439 496.153985 448.545455 497.48 
C 449.87147 498.806016 451.670185 499.551068 453.545455 499.551068 
z
" clip-path="url(#p7c95d60210)" style="fill: #808080; fill-opacity: 0.6; stroke: #ffffff; stroke-opacity: 0.6; stroke-width: 2"/>
    <path d="M 453.545455 503.66034 
C 456.510515 503.66034 459.354534 502.482309 461.451149 500.385694 
C 463.547763 498.28908 464.725794 495.445061 464.725794 492.48 
C 464.725794 489.514939 463.547763 486.67092 461.451149 484.574306 
C 459.354534 482.477691 456.510515 481.29966 453.545455 481.29966 
C 450.580394 481.29966 447.736375 482.477691 445.63976 484.574306 
C 443.543146 486.67092 442.365115 489.514939 442.365115 492.48 
C 442.365115 495.445061 443.543146 498.28908 445.63976 500.385694 
C 447.736375 502.482309 450.580394 503.66034 453.545455 503.66034 
z
" clip-path="url(#p7c95d60210)" style="fill: #808080; fill-opacity: 0.6; stroke: #ffffff; stroke-opacity: 0.6; stroke-width: 2"/>
    <path d="M 453.545455 502.48 
C 456.197486 502.48 458.741253 501.426337 460.616522 499.551068 
C 462.491791 497.675799 463.545455 495.132031 463.545455 492.48 
C 463.545455 489.827969 462.491791 487.284201 460.616522 485.408932 
C 458.741253 483.533663 456.197486 482.48 453.545455 482.48 
C 450.893424 482.48 448.349656 483.533663 446.474387 485.408932 
C 444.599118 487.284201 443.545455 489.827969 443.545455 492.48 
C 443.545455 495.132031 444.599118 497.675799 446.474387 499.551068 
C 448.349656 501.426337 450.893424 502.48 453.545455 502.48 
z
" clip-path="url(#p7c95d60210)" style="fill: #ff0000; fill-opacity: 0.6; stroke: #ffffff; stroke-opacity: 0.6; stroke-width: 2"/>
    <path d="M 453.545455 504.727449 
C 456.793516 504.727449 459.908982 503.43698 462.205709 501.140254 
C 464.502435 498.843528 465.792903 495.728061 465.792903 492.48 
C 465.792903 489.231939 464.502435 486.116472 462.205709 483.819746 
C 459.908982 481.52302 456.793516 480.232551 453.545455 480.232551 
C 450.297393 480.232551 447.181927 481.52302 444.885201 483.819746 
C 442.588474 486.116472 441.298006 489.231939 441.298006 492.48 
C 441.298006 495.728061 442.588474 498.843528 444.885201 501.140254 
C 447.181927 503.43698 450.297393 504.727449 453.545455 504.727449 
z
" clip-path="url(#p7c95d60210)" style="fill: #808080; fill-opacity: 0.6; stroke: #ffffff; stroke-opacity: 0.6; stroke-width: 2"/>
    <path d="M 453.545455 363.08 
C 454.87147 363.08 456.143354 362.553168 457.080988 361.615534 
C 458.018623 360.677899 458.545455 359.406015 458.545455 358.08 
C 458.545455 356.753985 458.018623 355.482101 457.080988 354.544466 
C 456.143354 353.606832 454.87147 353.08 453.545455 353.08 
C 452.219439 353.08 450.947555 353.606832 450.009921 354.544466 
C 449.072286 355.482101 448.545455 356.753985 448.545455 358.08 
C 448.545455 359.406015 449.072286 360.677899 450.009921 361.615534 
C 450.947555 362.553168 452.219439 363.08 453.545455 363.08 
z
" clip-path="url(#p7c95d60210)" style="fill: #808080; fill-opacity: 0.6; stroke: #ffffff; stroke-opacity: 0.6; stroke-width: 2"/>
    <path d="M 453.545455 368.08 
C 456.197486 368.08 458.741253 367.026337 460.616522 365.151068 
C 462.491791 363.275799 463.545455 360.732031 463.545455 358.08 
C 463.545455 355.427969 462.491791 352.884201 460.616522 351.008932 
C 458.741253 349.133663 456.197486 348.08 453.545455 348.08 
C 450.893424 348.08 448.349656 349.133663 446.474387 351.008932 
C 444.599118 352.884201 443.545455 355.427969 443.545455 358.08 
C 443.545455 360.732031 444.599118 363.275799 446.474387 365.151068 
C 448.349656 367.026337 450.893424 368.08 453.545455 368.08 
z
" clip-path="url(#p7c95d60210)" style="fill: #808080; fill-opacity: 0.6; stroke: #ffffff; stroke-opacity: 0.6; stroke-width: 2"/>
    <path d="M 453.545455 368.08 
C 456.197486 368.08 458.741253 367.026337 460.616522 365.151068 
C 462.491791 363.275799 463.545455 360.732031 463.545455 358.08 
C 463.545455 355.427969 462.491791 352.884201 460.616522 351.008932 
C 458.741253 349.133663 456.197486 348.08 453.545455 348.08 
C 450.893424 348.08 448.349656 349.133663 446.474387 351.008932 
C 444.599118 352.884201 443.545455 355.427969 443.545455 358.08 
C 443.545455 360.732031 444.599118 363.275799 446.474387 365.151068 
C 448.349656 367.026337 450.893424 368.08 453.545455 368.08 
z
" clip-path="url(#p7c95d60210)" style="fill: #ff0000; fill-opacity: 0.6; stroke: #ffffff; stroke-opacity: 0.6; stroke-width: 2"/>
    <path d="M 453.545455 370.327449 
C 456.793516 370.327449 459.908982 369.03698 462.205709 366.740254 
C 464.502435 364.443528 465.792903 361.328061 465.792903 358.08 
C 465.792903 354.831939 464.502435 351.716472 462.205709 349.419746 
C 459.908982 347.12302 456.793516 345.832551 453.545455 345.832551 
C 450.297393 345.832551 447.181927 347.12302 444.885201 349.419746 
C 442.588474 351.716472 441.298006 354.831939 441.298006 358.08 
C 441.298006 361.328061 442.588474 364.443528 444.885201 366.740254 
C 447.181927 369.03698 450.297393 370.327449 453.545455 370.327449 
z
" clip-path="url(#p7c95d60210)" style="fill: #808080; fill-opacity: 0.6; stroke: #ffffff; stroke-opacity: 0.6; stroke-width: 2"/>
    <path d="M 453.545455 228.68 
C 454.87147 228.68 456.143354 228.153168 457.080988 227.215534 
C 458.018623 226.277899 458.545455 225.006016 458.545455 223.68 
C 458.545455 222.353984 458.018623 221.082101 457.080988 220.144466 
C 456.143354 219.206832 454.87147 218.68 453.545455 218.68 
C 452.219439 218.68 450.947555 219.206832 450.009921 220.144466 
C 449.072286 221.082101 448.545455 222.353984 448.545455 223.68 
C 448.545455 225.006016 449.072286 226.277899 450.009921 227.215534 
C 450.947555 228.153168 452.219439 228.68 453.545455 228.68 
z
" clip-path="url(#p7c95d60210)" style="fill: #808080; fill-opacity: 0.6; stroke: #ffffff; stroke-opacity: 0.6; stroke-width: 2"/>
    <path d="M 453.545455 228.68 
C 454.87147 228.68 456.143354 228.153168 457.080988 227.215534 
C 458.018623 226.277899 458.545455 225.006016 458.545455 223.68 
C 458.545455 222.353984 458.018623 221.082101 457.080988 220.144466 
C 456.143354 219.206832 454.87147 218.68 453.545455 218.68 
C 452.219439 218.68 450.947555 219.206832 450.009921 220.144466 
C 449.072286 221.082101 448.545455 222.353984 448.545455 223.68 
C 448.545455 225.006016 449.072286 226.277899 450.009921 227.215534 
C 450.947555 228.153168 452.219439 228.68 453.545455 228.68 
z
" clip-path="url(#p7c95d60210)" style="fill: #ff0000; fill-opacity: 0.6; stroke: #ffffff; stroke-opacity: 0.6; stroke-width: 2"/>
    <path d="M 453.545455 230.751068 
C 455.420724 230.751068 457.219439 230.006016 458.545455 228.68 
C 459.87147 227.353984 460.616522 225.555269 460.616522 223.68 
C 460.616522 221.804731 459.87147 220.006016 458.545455 218.68 
C 457.219439 217.353984 455.420724 216.608932 453.545455 216.608932 
C 451.670185 216.608932 449.87147 217.353984 448.545455 218.68 
C 447.219439 220.006016 446.474387 221.804731 446.474387 223.68 
C 446.474387 225.555269 447.219439 227.353984 448.545455 228.68 
C 449.87147 230.006016 451.670185 230.751068 453.545455 230.751068 
z
" clip-path="url(#p7c95d60210)" style="fill: #808080; fill-opacity: 0.6; stroke: #ffffff; stroke-opacity: 0.6; stroke-width: 2"/>
    <path d="M 453.545455 94.28 
C 454.87147 94.28 456.143354 93.753168 457.080988 92.815534 
C 458.018623 91.877899 458.545455 90.606015 458.545455 89.28 
C 458.545455 87.953984 458.018623 86.682101 457.080988 85.744466 
C 456.143354 84.806832 454.87147 84.28 453.545455 84.28 
C 452.219439 84.28 450.947555 84.806832 450.009921 85.744466 
C 449.072286 86.682101 448.545455 87.953984 448.545455 89.28 
C 448.545455 90.606015 449.072286 91.877899 450.009921 92.815534 
C 450.947555 93.753168 452.219439 94.28 453.545455 94.28 
z
" clip-path="url(#p7c95d60210)" style="fill: #808080; fill-opacity: 0.6; stroke: #ffffff; stroke-opacity: 0.6; stroke-width: 2"/>
    <path d="M 453.545455 99.28 
C 456.197486 99.28 458.741253 98.226337 460.616522 96.351068 
C 462.491791 94.475799 463.545455 91.932031 463.545455 89.28 
C 463.545455 86.627969 462.491791 84.084201 460.616522 82.208932 
C 458.741253 80.333663 456.197486 79.28 453.545455 79.28 
C 450.893424 79.28 448.349656 80.333663 446.474387 82.208932 
C 444.599118 84.084201 443.545455 86.627969 443.545455 89.28 
C 443.545455 91.932031 444.599118 94.475799 446.474387 96.351068 
C 448.349656 98.226337 450.893424 99.28 453.545455 99.28 
z
" clip-path="url(#p7c95d60210)" style="fill: #808080; fill-opacity: 0.6; stroke: #ffffff; stroke-opacity: 0.6; stroke-width: 2"/>
    <path d="M 453.545455 97.940254 
C 455.842181 97.940254 458.045148 97.027755 459.669179 95.403724 
C 461.29321 93.779694 462.205709 91.576726 462.205709 89.28 
C 462.205709 86.983274 461.29321 84.780306 459.669179 83.156276 
C 458.045148 81.532245 455.842181 80.619746 453.545455 80.619746 
C 451.248728 80.619746 449.045761 81.532245 447.42173 83.156276 
C 445.7977 84.780306 444.885201 86.983274 444.885201 89.28 
C 444.885201 91.576726 445.7977 93.779694 447.42173 95.403724 
C 449.045761 97.027755 451.248728 97.940254 453.545455 97.940254 
z
" clip-path="url(#p7c95d60210)" style="fill: #ff0000; fill-opacity: 0.6; stroke: #ffffff; stroke-opacity: 0.6; stroke-width: 2"/>
    <path d="M 453.545455 99.28 
C 456.197486 99.28 458.741253 98.226337 460.616522 96.351068 
C 462.491791 94.475799 463.545455 91.932031 463.545455 89.28 
C 463.545455 86.627969 462.491791 84.084201 460.616522 82.208932 
C 458.741253 80.333663 456.197486 79.28 453.545455 79.28 
C 450.893424 79.28 448.349656 80.333663 446.474387 82.208932 
C 444.599118 84.084201 443.545455 86.627969 443.545455 89.28 
C 443.545455 91.932031 444.599118 94.475799 446.474387 96.351068 
C 448.349656 98.226337 450.893424 99.28 453.545455 99.28 
z
" clip-path="url(#p7c95d60210)" style="fill: #808080; fill-opacity: 0.6; stroke: #ffffff; stroke-opacity: 0.6; stroke-width: 2"/>
    <path d="M 622.636364 503.66034 
C 625.601424 503.66034 628.445443 502.482309 630.542058 500.385694 
C 632.638672 498.28908 633.816704 495.445061 633.816704 492.48 
C 633.816704 489.514939 632.638672 486.67092 630.542058 484.574306 
C 628.445443 482.477691 625.601424 481.29966 622.636364 481.29966 
C 619.671303 481.29966 616.827284 482.477691 614.730669 484.574306 
C 612.634055 486.67092 611.456024 489.514939 611.456024 492.48 
C 611.456024 495.445061 612.634055 498.28908 614.730669 500.385694 
C 616.827284 502.482309 619.671303 503.66034 622.636364 503.66034 
z
" clip-path="url(#p7c95d60210)" style="fill: #808080; fill-opacity: 0.6; stroke: #ffffff; stroke-opacity: 0.6; stroke-width: 2"/>
    <path d="M 622.636364 503.66034 
C 625.601424 503.66034 628.445443 502.482309 630.542058 500.385694 
C 632.638672 498.28908 633.816704 495.445061 633.816704 492.48 
C 633.816704 489.514939 632.638672 486.67092 630.542058 484.574306 
C 628.445443 482.477691 625.601424 481.29966 622.636364 481.29966 
C 619.671303 481.29966 616.827284 482.477691 614.730669 484.574306 
C 612.634055 486.67092 611.456024 489.514939 611.456024 492.48 
C 611.456024 495.445061 612.634055 498.28908 614.730669 500.385694 
C 616.827284 502.482309 619.671303 503.66034 622.636364 503.66034 
z
" clip-path="url(#p7c95d60210)" style="fill: #808080; fill-opacity: 0.6; stroke: #ffffff; stroke-opacity: 0.6; stroke-width: 2"/>
    <path d="M 622.636364 497.48 
C 623.962379 497.48 625.234263 496.953168 626.171898 496.015534 
C 627.109532 495.077899 627.636364 493.806016 627.636364 492.48 
C 627.636364 491.153985 627.109532 489.882101 626.171898 488.944466 
C 625.234263 488.006832 623.962379 487.48 622.636364 487.48 
C 621.310348 487.48 620.038464 488.006832 619.10083 488.944466 
C 618.163195 489.882101 617.636364 491.153985 617.636364 492.48 
C 617.636364 493.806016 618.163195 495.077899 619.10083 496.015534 
C 620.038464 496.953168 621.310348 497.48 622.636364 497.48 
z
" clip-path="url(#p7c95d60210)" style="fill: #ff0000; fill-opacity: 0.6; stroke: #ffffff; stroke-opacity: 0.6; stroke-width: 2"/>
    <path d="M 622.636364 503.66034 
C 625.601424 503.66034 628.445443 502.482309 630.542058 500.385694 
C 632.638672 498.28908 633.816704 495.445061 633.816704 492.48 
C 633.816704 489.514939 632.638672 486.67092 630.542058 484.574306 
C 628.445443 482.477691 625.601424 481.29966 622.636364 481.29966 
C 619.671303 481.29966 616.827284 482.477691 614.730669 484.574306 
C 612.634055 486.67092 611.456024 489.514939 611.456024 492.48 
C 611.456024 495.445061 612.634055 498.28908 614.730669 500.385694 
C 616.827284 502.482309 619.671303 503.66034 622.636364 503.66034 
z
" clip-path="url(#p7c95d60210)" style="fill: #808080; fill-opacity: 0.6; stroke: #ffffff; stroke-opacity: 0.6; stroke-width: 2"/>
    <path d="M 622.636364 363.08 
C 623.962379 363.08 625.234263 362.553168 626.171898 361.615534 
C 627.109532 360.677899 627.636364 359.406015 627.636364 358.08 
C 627.636364 356.753985 627.109532 355.482101 626.171898 354.544466 
C 625.234263 353.606832 623.962379 353.08 622.636364 353.08 
C 621.310348 353.08 620.038464 353.606832 619.10083 354.544466 
C 618.163195 355.482101 617.636364 356.753985 617.636364 358.08 
C 617.636364 359.406015 618.163195 360.677899 619.10083 361.615534 
C 620.038464 362.553168 621.310348 363.08 622.636364 363.08 
z
" clip-path="url(#p7c95d60210)" style="fill: #808080; fill-opacity: 0.6; stroke: #ffffff; stroke-opacity: 0.6; stroke-width: 2"/>
    <path d="M 622.636364 363.08 
C 623.962379 363.08 625.234263 362.553168 626.171898 361.615534 
C 627.109532 360.677899 627.636364 359.406015 627.636364 358.08 
C 627.636364 356.753985 627.109532 355.482101 626.171898 354.544466 
C 625.234263 353.606832 623.962379 353.08 622.636364 353.08 
C 621.310348 353.08 620.038464 353.606832 619.10083 354.544466 
C 618.163195 355.482101 617.636364 356.753985 617.636364 358.08 
C 617.636364 359.406015 618.163195 360.677899 619.10083 361.615534 
C 620.038464 362.553168 621.310348 363.08 622.636364 363.08 
z
" clip-path="url(#p7c95d60210)" style="fill: #808080; fill-opacity: 0.6; stroke: #ffffff; stroke-opacity: 0.6; stroke-width: 2"/>
    <path d="M 622.636364 363.08 
C 623.962379 363.08 625.234263 362.553168 626.171898 361.615534 
C 627.109532 360.677899 627.636364 359.406015 627.636364 358.08 
C 627.636364 356.753985 627.109532 355.482101 626.171898 354.544466 
C 625.234263 353.606832 623.962379 353.08 622.636364 353.08 
C 621.310348 353.08 620.038464 353.606832 619.10083 354.544466 
C 618.163195 355.482101 617.636364 356.753985 617.636364 358.08 
C 617.636364 359.406015 618.163195 360.677899 619.10083 361.615534 
C 620.038464 362.553168 621.310348 363.08 622.636364 363.08 
z
" clip-path="url(#p7c95d60210)" style="fill: #808080; fill-opacity: 0.6; stroke: #ffffff; stroke-opacity: 0.6; stroke-width: 2"/>
   </g>
   <g id="matplotlib.axis_1">
    <g id="xtick_1">
     <g id="line2d_1">
      <path d="M 115.363636 512.64 
L 115.363636 69.12 
" clip-path="url(#p7c95d60210)" style="fill: none; stroke: #b0b0b0; stroke-width: 0.8; stroke-linecap: square"/>
     </g>
     <g id="line2d_2">
      <defs>
       <path id="mdb6a453810" d="M 0 0 
L 0 3.5 
" style="stroke: #000000; stroke-width: 0.8"/>
      </defs>
      <g>
       <use xlink:href="#mdb6a453810" x="115.363636" y="512.64" style="stroke: #000000; stroke-width: 0.8"/>
      </g>
     </g>
     <g id="text_1">
      <!-- Virtual Reality -->
      <g transform="translate(80.352699 527.238438) scale(0.1 -0.1)">
       <defs>
        <path id="DejaVuSans-56" d="M 1831 0 
L 50 4666 
L 709 4666 
L 2188 738 
L 3669 4666 
L 4325 4666 
L 2547 0 
L 1831 0 
z
" transform="scale(0.015625)"/>
        <path id="DejaVuSans-69" d="M 603 3500 
L 1178 3500 
L 1178 0 
L 603 0 
L 603 3500 
z
M 603 4863 
L 1178 4863 
L 1178 4134 
L 603 4134 
L 603 4863 
z
" transform="scale(0.015625)"/>
        <path id="DejaVuSans-72" d="M 2631 2963 
Q 2534 3019 2420 3045 
Q 2306 3072 2169 3072 
Q 1681 3072 1420 2755 
Q 1159 2438 1159 1844 
L 1159 0 
L 581 0 
L 581 3500 
L 1159 3500 
L 1159 2956 
Q 1341 3275 1631 3429 
Q 1922 3584 2338 3584 
Q 2397 3584 2469 3576 
Q 2541 3569 2628 3553 
L 2631 2963 
z
" transform="scale(0.015625)"/>
        <path id="DejaVuSans-74" d="M 1172 4494 
L 1172 3500 
L 2356 3500 
L 2356 3053 
L 1172 3053 
L 1172 1153 
Q 1172 725 1289 603 
Q 1406 481 1766 481 
L 2356 481 
L 2356 0 
L 1766 0 
Q 1100 0 847 248 
Q 594 497 594 1153 
L 594 3053 
L 172 3053 
L 172 3500 
L 594 3500 
L 594 4494 
L 1172 4494 
z
" transform="scale(0.015625)"/>
        <path id="DejaVuSans-75" d="M 544 1381 
L 544 3500 
L 1119 3500 
L 1119 1403 
Q 1119 906 1312 657 
Q 1506 409 1894 409 
Q 2359 409 2629 706 
Q 2900 1003 2900 1516 
L 2900 3500 
L 3475 3500 
L 3475 0 
L 2900 0 
L 2900 538 
Q 2691 219 2414 64 
Q 2138 -91 1772 -91 
Q 1169 -91 856 284 
Q 544 659 544 1381 
z
M 1991 3584 
L 1991 3584 
z
" transform="scale(0.015625)"/>
        <path id="DejaVuSans-61" d="M 2194 1759 
Q 1497 1759 1228 1600 
Q 959 1441 959 1056 
Q 959 750 1161 570 
Q 1363 391 1709 391 
Q 2188 391 2477 730 
Q 2766 1069 2766 1631 
L 2766 1759 
L 2194 1759 
z
M 3341 1997 
L 3341 0 
L 2766 0 
L 2766 531 
Q 2569 213 2275 61 
Q 1981 -91 1556 -91 
Q 1019 -91 701 211 
Q 384 513 384 1019 
Q 384 1609 779 1909 
Q 1175 2209 1959 2209 
L 2766 2209 
L 2766 2266 
Q 2766 2663 2505 2880 
Q 2244 3097 1772 3097 
Q 1472 3097 1187 3025 
Q 903 2953 641 2809 
L 641 3341 
Q 956 3463 1253 3523 
Q 1550 3584 1831 3584 
Q 2591 3584 2966 3190 
Q 3341 2797 3341 1997 
z
" transform="scale(0.015625)"/>
        <path id="DejaVuSans-6c" d="M 603 4863 
L 1178 4863 
L 1178 0 
L 603 0 
L 603 4863 
z
" transform="scale(0.015625)"/>
        <path id="DejaVuSans-20" transform="scale(0.015625)"/>
        <path id="DejaVuSans-52" d="M 2841 2188 
Q 3044 2119 3236 1894 
Q 3428 1669 3622 1275 
L 4263 0 
L 3584 0 
L 2988 1197 
Q 2756 1666 2539 1819 
Q 2322 1972 1947 1972 
L 1259 1972 
L 1259 0 
L 628 0 
L 628 4666 
L 2053 4666 
Q 2853 4666 3247 4331 
Q 3641 3997 3641 3322 
Q 3641 2881 3436 2590 
Q 3231 2300 2841 2188 
z
M 1259 4147 
L 1259 2491 
L 2053 2491 
Q 2509 2491 2742 2702 
Q 2975 2913 2975 3322 
Q 2975 3731 2742 3939 
Q 2509 4147 2053 4147 
L 1259 4147 
z
" transform="scale(0.015625)"/>
        <path id="DejaVuSans-65" d="M 3597 1894 
L 3597 1613 
L 953 1613 
Q 991 1019 1311 708 
Q 1631 397 2203 397 
Q 2534 397 2845 478 
Q 3156 559 3463 722 
L 3463 178 
Q 3153 47 2828 -22 
Q 2503 -91 2169 -91 
Q 1331 -91 842 396 
Q 353 884 353 1716 
Q 353 2575 817 3079 
Q 1281 3584 2069 3584 
Q 2775 3584 3186 3129 
Q 3597 2675 3597 1894 
z
M 3022 2063 
Q 3016 2534 2758 2815 
Q 2500 3097 2075 3097 
Q 1594 3097 1305 2825 
Q 1016 2553 972 2059 
L 3022 2063 
z
" transform="scale(0.015625)"/>
        <path id="DejaVuSans-79" d="M 2059 -325 
Q 1816 -950 1584 -1140 
Q 1353 -1331 966 -1331 
L 506 -1331 
L 506 -850 
L 844 -850 
Q 1081 -850 1212 -737 
Q 1344 -625 1503 -206 
L 1606 56 
L 191 3500 
L 800 3500 
L 1894 763 
L 2988 3500 
L 3597 3500 
L 2059 -325 
z
" transform="scale(0.015625)"/>
       </defs>
       <use xlink:href="#DejaVuSans-56"/>
       <use xlink:href="#DejaVuSans-69" x="66.158203"/>
       <use xlink:href="#DejaVuSans-72" x="93.941406"/>
       <use xlink:href="#DejaVuSans-74" x="135.054688"/>
       <use xlink:href="#DejaVuSans-75" x="174.263672"/>
       <use xlink:href="#DejaVuSans-61" x="237.642578"/>
       <use xlink:href="#DejaVuSans-6c" x="298.921875"/>
       <use xlink:href="#DejaVuSans-20" x="326.705078"/>
       <use xlink:href="#DejaVuSans-52" x="358.492188"/>
       <use xlink:href="#DejaVuSans-65" x="423.474609"/>
       <use xlink:href="#DejaVuSans-61" x="484.998047"/>
       <use xlink:href="#DejaVuSans-6c" x="546.277344"/>
       <use xlink:href="#DejaVuSans-69" x="574.060547"/>
       <use xlink:href="#DejaVuSans-74" x="601.84375"/>
       <use xlink:href="#DejaVuSans-79" x="641.052734"/>
      </g>
     </g>
    </g>
    <g id="xtick_2">
     <g id="line2d_3">
      <path d="M 284.454545 512.64 
L 284.454545 69.12 
" clip-path="url(#p7c95d60210)" style="fill: none; stroke: #b0b0b0; stroke-width: 0.8; stroke-linecap: square"/>
     </g>
     <g id="line2d_4">
      <g>
       <use xlink:href="#mdb6a453810" x="284.454545" y="512.64" style="stroke: #000000; stroke-width: 0.8"/>
      </g>
     </g>
     <g id="text_2">
      <!-- Augmented Reality -->
      <g transform="translate(236.688139 527.238438) scale(0.1 -0.1)">
       <defs>
        <path id="DejaVuSans-41" d="M 2188 4044 
L 1331 1722 
L 3047 1722 
L 2188 4044 
z
M 1831 4666 
L 2547 4666 
L 4325 0 
L 3669 0 
L 3244 1197 
L 1141 1197 
L 716 0 
L 50 0 
L 1831 4666 
z
" transform="scale(0.015625)"/>
        <path id="DejaVuSans-67" d="M 2906 1791 
Q 2906 2416 2648 2759 
Q 2391 3103 1925 3103 
Q 1463 3103 1205 2759 
Q 947 2416 947 1791 
Q 947 1169 1205 825 
Q 1463 481 1925 481 
Q 2391 481 2648 825 
Q 2906 1169 2906 1791 
z
M 3481 434 
Q 3481 -459 3084 -895 
Q 2688 -1331 1869 -1331 
Q 1566 -1331 1297 -1286 
Q 1028 -1241 775 -1147 
L 775 -588 
Q 1028 -725 1275 -790 
Q 1522 -856 1778 -856 
Q 2344 -856 2625 -561 
Q 2906 -266 2906 331 
L 2906 616 
Q 2728 306 2450 153 
Q 2172 0 1784 0 
Q 1141 0 747 490 
Q 353 981 353 1791 
Q 353 2603 747 3093 
Q 1141 3584 1784 3584 
Q 2172 3584 2450 3431 
Q 2728 3278 2906 2969 
L 2906 3500 
L 3481 3500 
L 3481 434 
z
" transform="scale(0.015625)"/>
        <path id="DejaVuSans-6d" d="M 3328 2828 
Q 3544 3216 3844 3400 
Q 4144 3584 4550 3584 
Q 5097 3584 5394 3201 
Q 5691 2819 5691 2113 
L 5691 0 
L 5113 0 
L 5113 2094 
Q 5113 2597 4934 2840 
Q 4756 3084 4391 3084 
Q 3944 3084 3684 2787 
Q 3425 2491 3425 1978 
L 3425 0 
L 2847 0 
L 2847 2094 
Q 2847 2600 2669 2842 
Q 2491 3084 2119 3084 
Q 1678 3084 1418 2786 
Q 1159 2488 1159 1978 
L 1159 0 
L 581 0 
L 581 3500 
L 1159 3500 
L 1159 2956 
Q 1356 3278 1631 3431 
Q 1906 3584 2284 3584 
Q 2666 3584 2933 3390 
Q 3200 3197 3328 2828 
z
" transform="scale(0.015625)"/>
        <path id="DejaVuSans-6e" d="M 3513 2113 
L 3513 0 
L 2938 0 
L 2938 2094 
Q 2938 2591 2744 2837 
Q 2550 3084 2163 3084 
Q 1697 3084 1428 2787 
Q 1159 2491 1159 1978 
L 1159 0 
L 581 0 
L 581 3500 
L 1159 3500 
L 1159 2956 
Q 1366 3272 1645 3428 
Q 1925 3584 2291 3584 
Q 2894 3584 3203 3211 
Q 3513 2838 3513 2113 
z
" transform="scale(0.015625)"/>
        <path id="DejaVuSans-64" d="M 2906 2969 
L 2906 4863 
L 3481 4863 
L 3481 0 
L 2906 0 
L 2906 525 
Q 2725 213 2448 61 
Q 2172 -91 1784 -91 
Q 1150 -91 751 415 
Q 353 922 353 1747 
Q 353 2572 751 3078 
Q 1150 3584 1784 3584 
Q 2172 3584 2448 3432 
Q 2725 3281 2906 2969 
z
M 947 1747 
Q 947 1113 1208 752 
Q 1469 391 1925 391 
Q 2381 391 2643 752 
Q 2906 1113 2906 1747 
Q 2906 2381 2643 2742 
Q 2381 3103 1925 3103 
Q 1469 3103 1208 2742 
Q 947 2381 947 1747 
z
" transform="scale(0.015625)"/>
       </defs>
       <use xlink:href="#DejaVuSans-41"/>
       <use xlink:href="#DejaVuSans-75" x="68.408203"/>
       <use xlink:href="#DejaVuSans-67" x="131.787109"/>
       <use xlink:href="#DejaVuSans-6d" x="195.263672"/>
       <use xlink:href="#DejaVuSans-65" x="292.675781"/>
       <use xlink:href="#DejaVuSans-6e" x="354.199219"/>
       <use xlink:href="#DejaVuSans-74" x="417.578125"/>
       <use xlink:href="#DejaVuSans-65" x="456.787109"/>
       <use xlink:href="#DejaVuSans-64" x="518.310547"/>
       <use xlink:href="#DejaVuSans-20" x="581.787109"/>
       <use xlink:href="#DejaVuSans-52" x="613.574219"/>
       <use xlink:href="#DejaVuSans-65" x="678.556641"/>
       <use xlink:href="#DejaVuSans-61" x="740.080078"/>
       <use xlink:href="#DejaVuSans-6c" x="801.359375"/>
       <use xlink:href="#DejaVuSans-69" x="829.142578"/>
       <use xlink:href="#DejaVuSans-74" x="856.925781"/>
       <use xlink:href="#DejaVuSans-79" x="896.134766"/>
      </g>
     </g>
    </g>
    <g id="xtick_3">
     <g id="line2d_5">
      <path d="M 453.545455 512.64 
L 453.545455 69.12 
" clip-path="url(#p7c95d60210)" style="fill: none; stroke: #b0b0b0; stroke-width: 0.8; stroke-linecap: square"/>
     </g>
     <g id="line2d_6">
      <g>
       <use xlink:href="#mdb6a453810" x="453.545455" y="512.64" style="stroke: #000000; stroke-width: 0.8"/>
      </g>
     </g>
     <g id="text_3">
      <!-- Mixed Reality -->
      <g transform="translate(420.111861 527.238438) scale(0.1 -0.1)">
       <defs>
        <path id="DejaVuSans-4d" d="M 628 4666 
L 1569 4666 
L 2759 1491 
L 3956 4666 
L 4897 4666 
L 4897 0 
L 4281 0 
L 4281 4097 
L 3078 897 
L 2444 897 
L 1241 4097 
L 1241 0 
L 628 0 
L 628 4666 
z
" transform="scale(0.015625)"/>
        <path id="DejaVuSans-78" d="M 3513 3500 
L 2247 1797 
L 3578 0 
L 2900 0 
L 1881 1375 
L 863 0 
L 184 0 
L 1544 1831 
L 300 3500 
L 978 3500 
L 1906 2253 
L 2834 3500 
L 3513 3500 
z
" transform="scale(0.015625)"/>
       </defs>
       <use xlink:href="#DejaVuSans-4d"/>
       <use xlink:href="#DejaVuSans-69" x="86.279297"/>
       <use xlink:href="#DejaVuSans-78" x="114.0625"/>
       <use xlink:href="#DejaVuSans-65" x="170.117188"/>
       <use xlink:href="#DejaVuSans-64" x="231.640625"/>
       <use xlink:href="#DejaVuSans-20" x="295.117188"/>
       <use xlink:href="#DejaVuSans-52" x="326.904297"/>
       <use xlink:href="#DejaVuSans-65" x="391.886719"/>
       <use xlink:href="#DejaVuSans-61" x="453.410156"/>
       <use xlink:href="#DejaVuSans-6c" x="514.689453"/>
       <use xlink:href="#DejaVuSans-69" x="542.472656"/>
       <use xlink:href="#DejaVuSans-74" x="570.255859"/>
       <use xlink:href="#DejaVuSans-79" x="609.464844"/>
      </g>
     </g>
    </g>
    <g id="xtick_4">
     <g id="line2d_7">
      <path d="M 622.636364 512.64 
L 622.636364 69.12 
" clip-path="url(#p7c95d60210)" style="fill: none; stroke: #b0b0b0; stroke-width: 0.8; stroke-linecap: square"/>
     </g>
     <g id="line2d_8">
      <g>
       <use xlink:href="#mdb6a453810" x="622.636364" y="512.64" style="stroke: #000000; stroke-width: 0.8"/>
      </g>
     </g>
     <g id="text_4">
      <!-- Extended Reality -->
      <g transform="translate(580.210582 527.238438) scale(0.1 -0.1)">
       <defs>
        <path id="DejaVuSans-45" d="M 628 4666 
L 3578 4666 
L 3578 4134 
L 1259 4134 
L 1259 2753 
L 3481 2753 
L 3481 2222 
L 1259 2222 
L 1259 531 
L 3634 531 
L 3634 0 
L 628 0 
L 628 4666 
z
" transform="scale(0.015625)"/>
       </defs>
       <use xlink:href="#DejaVuSans-45"/>
       <use xlink:href="#DejaVuSans-78" x="63.183594"/>
       <use xlink:href="#DejaVuSans-74" x="122.363281"/>
       <use xlink:href="#DejaVuSans-65" x="161.572266"/>
       <use xlink:href="#DejaVuSans-6e" x="223.095703"/>
       <use xlink:href="#DejaVuSans-64" x="286.474609"/>
       <use xlink:href="#DejaVuSans-65" x="349.951172"/>
       <use xlink:href="#DejaVuSans-64" x="411.474609"/>
       <use xlink:href="#DejaVuSans-20" x="474.951172"/>
       <use xlink:href="#DejaVuSans-52" x="506.738281"/>
       <use xlink:href="#DejaVuSans-65" x="571.720703"/>
       <use xlink:href="#DejaVuSans-61" x="633.244141"/>
       <use xlink:href="#DejaVuSans-6c" x="694.523438"/>
       <use xlink:href="#DejaVuSans-69" x="722.306641"/>
       <use xlink:href="#DejaVuSans-74" x="750.089844"/>
       <use xlink:href="#DejaVuSans-79" x="789.298828"/>
      </g>
     </g>
    </g>
    <g id="text_5">
     <!-- metaverse -->
     <g transform="translate(342.25625 540.916563) scale(0.1 -0.1)">
      <defs>
       <path id="DejaVuSans-76" d="M 191 3500 
L 800 3500 
L 1894 563 
L 2988 3500 
L 3597 3500 
L 2284 0 
L 1503 0 
L 191 3500 
z
" transform="scale(0.015625)"/>
       <path id="DejaVuSans-73" d="M 2834 3397 
L 2834 2853 
Q 2591 2978 2328 3040 
Q 2066 3103 1784 3103 
Q 1356 3103 1142 2972 
Q 928 2841 928 2578 
Q 928 2378 1081 2264 
Q 1234 2150 1697 2047 
L 1894 2003 
Q 2506 1872 2764 1633 
Q 3022 1394 3022 966 
Q 3022 478 2636 193 
Q 2250 -91 1575 -91 
Q 1294 -91 989 -36 
Q 684 19 347 128 
L 347 722 
Q 666 556 975 473 
Q 1284 391 1588 391 
Q 1994 391 2212 530 
Q 2431 669 2431 922 
Q 2431 1156 2273 1281 
Q 2116 1406 1581 1522 
L 1381 1569 
Q 847 1681 609 1914 
Q 372 2147 372 2553 
Q 372 3047 722 3315 
Q 1072 3584 1716 3584 
Q 2034 3584 2315 3537 
Q 2597 3491 2834 3397 
z
" transform="scale(0.015625)"/>
      </defs>
      <use xlink:href="#DejaVuSans-6d"/>
      <use xlink:href="#DejaVuSans-65" x="97.412109"/>
      <use xlink:href="#DejaVuSans-74" x="158.935547"/>
      <use xlink:href="#DejaVuSans-61" x="198.144531"/>
      <use xlink:href="#DejaVuSans-76" x="259.423828"/>
      <use xlink:href="#DejaVuSans-65" x="318.603516"/>
      <use xlink:href="#DejaVuSans-72" x="380.126953"/>
      <use xlink:href="#DejaVuSans-73" x="421.240234"/>
      <use xlink:href="#DejaVuSans-65" x="473.339844"/>
     </g>
    </g>
   </g>
   <g id="matplotlib.axis_2">
    <g id="ytick_1">
     <g id="line2d_9">
      <path d="M 90 492.48 
L 648 492.48 
" clip-path="url(#p7c95d60210)" style="fill: none; stroke: #b0b0b0; stroke-width: 0.8; stroke-linecap: square"/>
     </g>
     <g id="line2d_10">
      <defs>
       <path id="m1658da92de" d="M 0 0 
L -3.5 0 
" style="stroke: #000000; stroke-width: 0.8"/>
      </defs>
      <g>
       <use xlink:href="#m1658da92de" x="90" y="492.48" style="stroke: #000000; stroke-width: 0.8"/>
      </g>
     </g>
     <g id="text_6">
      <!-- Algorithm Performance -->
      <g transform="translate(-32.515625 496.279219) scale(0.1 -0.1)">
       <defs>
        <path id="DejaVuSans-6f" d="M 1959 3097 
Q 1497 3097 1228 2736 
Q 959 2375 959 1747 
Q 959 1119 1226 758 
Q 1494 397 1959 397 
Q 2419 397 2687 759 
Q 2956 1122 2956 1747 
Q 2956 2369 2687 2733 
Q 2419 3097 1959 3097 
z
M 1959 3584 
Q 2709 3584 3137 3096 
Q 3566 2609 3566 1747 
Q 3566 888 3137 398 
Q 2709 -91 1959 -91 
Q 1206 -91 779 398 
Q 353 888 353 1747 
Q 353 2609 779 3096 
Q 1206 3584 1959 3584 
z
" transform="scale(0.015625)"/>
        <path id="DejaVuSans-68" d="M 3513 2113 
L 3513 0 
L 2938 0 
L 2938 2094 
Q 2938 2591 2744 2837 
Q 2550 3084 2163 3084 
Q 1697 3084 1428 2787 
Q 1159 2491 1159 1978 
L 1159 0 
L 581 0 
L 581 4863 
L 1159 4863 
L 1159 2956 
Q 1366 3272 1645 3428 
Q 1925 3584 2291 3584 
Q 2894 3584 3203 3211 
Q 3513 2838 3513 2113 
z
" transform="scale(0.015625)"/>
        <path id="DejaVuSans-50" d="M 1259 4147 
L 1259 2394 
L 2053 2394 
Q 2494 2394 2734 2622 
Q 2975 2850 2975 3272 
Q 2975 3691 2734 3919 
Q 2494 4147 2053 4147 
L 1259 4147 
z
M 628 4666 
L 2053 4666 
Q 2838 4666 3239 4311 
Q 3641 3956 3641 3272 
Q 3641 2581 3239 2228 
Q 2838 1875 2053 1875 
L 1259 1875 
L 1259 0 
L 628 0 
L 628 4666 
z
" transform="scale(0.015625)"/>
        <path id="DejaVuSans-66" d="M 2375 4863 
L 2375 4384 
L 1825 4384 
Q 1516 4384 1395 4259 
Q 1275 4134 1275 3809 
L 1275 3500 
L 2222 3500 
L 2222 3053 
L 1275 3053 
L 1275 0 
L 697 0 
L 697 3053 
L 147 3053 
L 147 3500 
L 697 3500 
L 697 3744 
Q 697 4328 969 4595 
Q 1241 4863 1831 4863 
L 2375 4863 
z
" transform="scale(0.015625)"/>
        <path id="DejaVuSans-63" d="M 3122 3366 
L 3122 2828 
Q 2878 2963 2633 3030 
Q 2388 3097 2138 3097 
Q 1578 3097 1268 2742 
Q 959 2388 959 1747 
Q 959 1106 1268 751 
Q 1578 397 2138 397 
Q 2388 397 2633 464 
Q 2878 531 3122 666 
L 3122 134 
Q 2881 22 2623 -34 
Q 2366 -91 2075 -91 
Q 1284 -91 818 406 
Q 353 903 353 1747 
Q 353 2603 823 3093 
Q 1294 3584 2113 3584 
Q 2378 3584 2631 3529 
Q 2884 3475 3122 3366 
z
" transform="scale(0.015625)"/>
       </defs>
       <use xlink:href="#DejaVuSans-41"/>
       <use xlink:href="#DejaVuSans-6c" x="68.408203"/>
       <use xlink:href="#DejaVuSans-67" x="96.191406"/>
       <use xlink:href="#DejaVuSans-6f" x="159.667969"/>
       <use xlink:href="#DejaVuSans-72" x="220.849609"/>
       <use xlink:href="#DejaVuSans-69" x="261.962891"/>
       <use xlink:href="#DejaVuSans-74" x="289.746094"/>
       <use xlink:href="#DejaVuSans-68" x="328.955078"/>
       <use xlink:href="#DejaVuSans-6d" x="392.333984"/>
       <use xlink:href="#DejaVuSans-20" x="489.746094"/>
       <use xlink:href="#DejaVuSans-50" x="521.533203"/>
       <use xlink:href="#DejaVuSans-65" x="578.210938"/>
       <use xlink:href="#DejaVuSans-72" x="639.734375"/>
       <use xlink:href="#DejaVuSans-66" x="680.847656"/>
       <use xlink:href="#DejaVuSans-6f" x="716.052734"/>
       <use xlink:href="#DejaVuSans-72" x="777.234375"/>
       <use xlink:href="#DejaVuSans-6d" x="816.597656"/>
       <use xlink:href="#DejaVuSans-61" x="914.009766"/>
       <use xlink:href="#DejaVuSans-6e" x="975.289062"/>
       <use xlink:href="#DejaVuSans-63" x="1038.667969"/>
       <use xlink:href="#DejaVuSans-65" x="1093.648438"/>
      </g>
     </g>
    </g>
    <g id="ytick_2">
     <g id="line2d_11">
      <path d="M 90 358.08 
L 648 358.08 
" clip-path="url(#p7c95d60210)" style="fill: none; stroke: #b0b0b0; stroke-width: 0.8; stroke-linecap: square"/>
     </g>
     <g id="line2d_12">
      <g>
       <use xlink:href="#m1658da92de" x="90" y="358.08" style="stroke: #000000; stroke-width: 0.8"/>
      </g>
     </g>
     <g id="text_7">
      <!-- Environment and Practices -->
      <g transform="translate(-51.16875 361.879219) scale(0.1 -0.1)">
       <use xlink:href="#DejaVuSans-45"/>
       <use xlink:href="#DejaVuSans-6e" x="63.183594"/>
       <use xlink:href="#DejaVuSans-76" x="126.5625"/>
       <use xlink:href="#DejaVuSans-69" x="185.742188"/>
       <use xlink:href="#DejaVuSans-72" x="213.525391"/>
       <use xlink:href="#DejaVuSans-6f" x="252.388672"/>
       <use xlink:href="#DejaVuSans-6e" x="313.570312"/>
       <use xlink:href="#DejaVuSans-6d" x="376.949219"/>
       <use xlink:href="#DejaVuSans-65" x="474.361328"/>
       <use xlink:href="#DejaVuSans-6e" x="535.884766"/>
       <use xlink:href="#DejaVuSans-74" x="599.263672"/>
       <use xlink:href="#DejaVuSans-20" x="638.472656"/>
       <use xlink:href="#DejaVuSans-61" x="670.259766"/>
       <use xlink:href="#DejaVuSans-6e" x="731.539062"/>
       <use xlink:href="#DejaVuSans-64" x="794.917969"/>
       <use xlink:href="#DejaVuSans-20" x="858.394531"/>
       <use xlink:href="#DejaVuSans-50" x="890.181641"/>
       <use xlink:href="#DejaVuSans-72" x="948.734375"/>
       <use xlink:href="#DejaVuSans-61" x="989.847656"/>
       <use xlink:href="#DejaVuSans-63" x="1051.126953"/>
       <use xlink:href="#DejaVuSans-74" x="1106.107422"/>
       <use xlink:href="#DejaVuSans-69" x="1145.316406"/>
       <use xlink:href="#DejaVuSans-63" x="1173.099609"/>
       <use xlink:href="#DejaVuSans-65" x="1228.080078"/>
       <use xlink:href="#DejaVuSans-73" x="1289.603516"/>
      </g>
     </g>
    </g>
    <g id="ytick_3">
     <g id="line2d_13">
      <path d="M 90 223.68 
L 648 223.68 
" clip-path="url(#p7c95d60210)" style="fill: none; stroke: #b0b0b0; stroke-width: 0.8; stroke-linecap: square"/>
     </g>
     <g id="line2d_14">
      <g>
       <use xlink:href="#m1658da92de" x="90" y="223.68" style="stroke: #000000; stroke-width: 0.8"/>
      </g>
     </g>
     <g id="text_8">
      <!-- User Performance -->
      <g transform="translate(-6.334375 227.479219) scale(0.1 -0.1)">
       <defs>
        <path id="DejaVuSans-55" d="M 556 4666 
L 1191 4666 
L 1191 1831 
Q 1191 1081 1462 751 
Q 1734 422 2344 422 
Q 2950 422 3222 751 
Q 3494 1081 3494 1831 
L 3494 4666 
L 4128 4666 
L 4128 1753 
Q 4128 841 3676 375 
Q 3225 -91 2344 -91 
Q 1459 -91 1007 375 
Q 556 841 556 1753 
L 556 4666 
z
" transform="scale(0.015625)"/>
       </defs>
       <use xlink:href="#DejaVuSans-55"/>
       <use xlink:href="#DejaVuSans-73" x="73.193359"/>
       <use xlink:href="#DejaVuSans-65" x="125.292969"/>
       <use xlink:href="#DejaVuSans-72" x="186.816406"/>
       <use xlink:href="#DejaVuSans-20" x="227.929688"/>
       <use xlink:href="#DejaVuSans-50" x="259.716797"/>
       <use xlink:href="#DejaVuSans-65" x="316.394531"/>
       <use xlink:href="#DejaVuSans-72" x="377.917969"/>
       <use xlink:href="#DejaVuSans-66" x="419.03125"/>
       <use xlink:href="#DejaVuSans-6f" x="454.236328"/>
       <use xlink:href="#DejaVuSans-72" x="515.417969"/>
       <use xlink:href="#DejaVuSans-6d" x="554.78125"/>
       <use xlink:href="#DejaVuSans-61" x="652.193359"/>
       <use xlink:href="#DejaVuSans-6e" x="713.472656"/>
       <use xlink:href="#DejaVuSans-63" x="776.851562"/>
       <use xlink:href="#DejaVuSans-65" x="831.832031"/>
      </g>
     </g>
    </g>
    <g id="ytick_4">
     <g id="line2d_15">
      <path d="M 90 89.28 
L 648 89.28 
" clip-path="url(#p7c95d60210)" style="fill: none; stroke: #b0b0b0; stroke-width: 0.8; stroke-linecap: square"/>
     </g>
     <g id="line2d_16">
      <g>
       <use xlink:href="#m1658da92de" x="90" y="89.28" style="stroke: #000000; stroke-width: 0.8"/>
      </g>
     </g>
     <g id="text_9">
      <!-- User Experience -->
      <g transform="translate(1.259375 93.079219) scale(0.1 -0.1)">
       <defs>
        <path id="DejaVuSans-70" d="M 1159 525 
L 1159 -1331 
L 581 -1331 
L 581 3500 
L 1159 3500 
L 1159 2969 
Q 1341 3281 1617 3432 
Q 1894 3584 2278 3584 
Q 2916 3584 3314 3078 
Q 3713 2572 3713 1747 
Q 3713 922 3314 415 
Q 2916 -91 2278 -91 
Q 1894 -91 1617 61 
Q 1341 213 1159 525 
z
M 3116 1747 
Q 3116 2381 2855 2742 
Q 2594 3103 2138 3103 
Q 1681 3103 1420 2742 
Q 1159 2381 1159 1747 
Q 1159 1113 1420 752 
Q 1681 391 2138 391 
Q 2594 391 2855 752 
Q 3116 1113 3116 1747 
z
" transform="scale(0.015625)"/>
       </defs>
       <use xlink:href="#DejaVuSans-55"/>
       <use xlink:href="#DejaVuSans-73" x="73.193359"/>
       <use xlink:href="#DejaVuSans-65" x="125.292969"/>
       <use xlink:href="#DejaVuSans-72" x="186.816406"/>
       <use xlink:href="#DejaVuSans-20" x="227.929688"/>
       <use xlink:href="#DejaVuSans-45" x="259.716797"/>
       <use xlink:href="#DejaVuSans-78" x="322.900391"/>
       <use xlink:href="#DejaVuSans-70" x="382.080078"/>
       <use xlink:href="#DejaVuSans-65" x="445.556641"/>
       <use xlink:href="#DejaVuSans-72" x="507.080078"/>
       <use xlink:href="#DejaVuSans-69" x="548.193359"/>
       <use xlink:href="#DejaVuSans-65" x="575.976562"/>
       <use xlink:href="#DejaVuSans-6e" x="637.5"/>
       <use xlink:href="#DejaVuSans-63" x="700.878906"/>
       <use xlink:href="#DejaVuSans-65" x="755.859375"/>
      </g>
     </g>
    </g>
    <g id="text_10">
     <!-- strategy -->
     <g transform="translate(-57.248438 311.734688) rotate(-90) scale(0.1 -0.1)">
      <use xlink:href="#DejaVuSans-73"/>
      <use xlink:href="#DejaVuSans-74" x="52.099609"/>
      <use xlink:href="#DejaVuSans-72" x="91.308594"/>
      <use xlink:href="#DejaVuSans-61" x="132.421875"/>
      <use xlink:href="#DejaVuSans-74" x="193.701172"/>
      <use xlink:href="#DejaVuSans-65" x="232.910156"/>
      <use xlink:href="#DejaVuSans-67" x="294.433594"/>
      <use xlink:href="#DejaVuSans-79" x="357.910156"/>
     </g>
    </g>
   </g>
   <g id="patch_3">
    <path d="M 90 512.64 
L 90 69.12 
" style="fill: none; stroke: #000000; stroke-width: 0.8; stroke-linejoin: miter; stroke-linecap: square"/>
   </g>
   <g id="patch_4">
    <path d="M 648 512.64 
L 648 69.12 
" style="fill: none; stroke: #000000; stroke-width: 0.8; stroke-linejoin: miter; stroke-linecap: square"/>
   </g>
   <g id="patch_5">
    <path d="M 90 512.64 
L 648 512.64 
" style="fill: none; stroke: #000000; stroke-width: 0.8; stroke-linejoin: miter; stroke-linecap: square"/>
   </g>
   <g id="patch_6">
    <path d="M 90 69.12 
L 648 69.12 
" style="fill: none; stroke: #000000; stroke-width: 0.8; stroke-linejoin: miter; stroke-linecap: square"/>
   </g>
   <g id="text_11">
    <!-- Bubble Chart: metaverse vs strategy by reality -->
    <g transform="translate(228.060937 63.12) scale(0.12 -0.12)">
     <defs>
      <path id="DejaVuSans-42" d="M 1259 2228 
L 1259 519 
L 2272 519 
Q 2781 519 3026 730 
Q 3272 941 3272 1375 
Q 3272 1813 3026 2020 
Q 2781 2228 2272 2228 
L 1259 2228 
z
M 1259 4147 
L 1259 2741 
L 2194 2741 
Q 2656 2741 2882 2914 
Q 3109 3088 3109 3444 
Q 3109 3797 2882 3972 
Q 2656 4147 2194 4147 
L 1259 4147 
z
M 628 4666 
L 2241 4666 
Q 2963 4666 3353 4366 
Q 3744 4066 3744 3513 
Q 3744 3084 3544 2831 
Q 3344 2578 2956 2516 
Q 3422 2416 3680 2098 
Q 3938 1781 3938 1306 
Q 3938 681 3513 340 
Q 3088 0 2303 0 
L 628 0 
L 628 4666 
z
" transform="scale(0.015625)"/>
      <path id="DejaVuSans-62" d="M 3116 1747 
Q 3116 2381 2855 2742 
Q 2594 3103 2138 3103 
Q 1681 3103 1420 2742 
Q 1159 2381 1159 1747 
Q 1159 1113 1420 752 
Q 1681 391 2138 391 
Q 2594 391 2855 752 
Q 3116 1113 3116 1747 
z
M 1159 2969 
Q 1341 3281 1617 3432 
Q 1894 3584 2278 3584 
Q 2916 3584 3314 3078 
Q 3713 2572 3713 1747 
Q 3713 922 3314 415 
Q 2916 -91 2278 -91 
Q 1894 -91 1617 61 
Q 1341 213 1159 525 
L 1159 0 
L 581 0 
L 581 4863 
L 1159 4863 
L 1159 2969 
z
" transform="scale(0.015625)"/>
      <path id="DejaVuSans-43" d="M 4122 4306 
L 4122 3641 
Q 3803 3938 3442 4084 
Q 3081 4231 2675 4231 
Q 1875 4231 1450 3742 
Q 1025 3253 1025 2328 
Q 1025 1406 1450 917 
Q 1875 428 2675 428 
Q 3081 428 3442 575 
Q 3803 722 4122 1019 
L 4122 359 
Q 3791 134 3420 21 
Q 3050 -91 2638 -91 
Q 1578 -91 968 557 
Q 359 1206 359 2328 
Q 359 3453 968 4101 
Q 1578 4750 2638 4750 
Q 3056 4750 3426 4639 
Q 3797 4528 4122 4306 
z
" transform="scale(0.015625)"/>
      <path id="DejaVuSans-3a" d="M 750 794 
L 1409 794 
L 1409 0 
L 750 0 
L 750 794 
z
M 750 3309 
L 1409 3309 
L 1409 2516 
L 750 2516 
L 750 3309 
z
" transform="scale(0.015625)"/>
     </defs>
     <use xlink:href="#DejaVuSans-42"/>
     <use xlink:href="#DejaVuSans-75" x="68.603516"/>
     <use xlink:href="#DejaVuSans-62" x="131.982422"/>
     <use xlink:href="#DejaVuSans-62" x="195.458984"/>
     <use xlink:href="#DejaVuSans-6c" x="258.935547"/>
     <use xlink:href="#DejaVuSans-65" x="286.71875"/>
     <use xlink:href="#DejaVuSans-20" x="348.242188"/>
     <use xlink:href="#DejaVuSans-43" x="380.029297"/>
     <use xlink:href="#DejaVuSans-68" x="449.853516"/>
     <use xlink:href="#DejaVuSans-61" x="513.232422"/>
     <use xlink:href="#DejaVuSans-72" x="574.511719"/>
     <use xlink:href="#DejaVuSans-74" x="615.625"/>
     <use xlink:href="#DejaVuSans-3a" x="654.833984"/>
     <use xlink:href="#DejaVuSans-20" x="688.525391"/>
     <use xlink:href="#DejaVuSans-6d" x="720.3125"/>
     <use xlink:href="#DejaVuSans-65" x="817.724609"/>
     <use xlink:href="#DejaVuSans-74" x="879.248047"/>
     <use xlink:href="#DejaVuSans-61" x="918.457031"/>
     <use xlink:href="#DejaVuSans-76" x="979.736328"/>
     <use xlink:href="#DejaVuSans-65" x="1038.916016"/>
     <use xlink:href="#DejaVuSans-72" x="1100.439453"/>
     <use xlink:href="#DejaVuSans-73" x="1141.552734"/>
     <use xlink:href="#DejaVuSans-65" x="1193.652344"/>
     <use xlink:href="#DejaVuSans-20" x="1255.175781"/>
     <use xlink:href="#DejaVuSans-76" x="1286.962891"/>
     <use xlink:href="#DejaVuSans-73" x="1346.142578"/>
     <use xlink:href="#DejaVuSans-20" x="1398.242188"/>
     <use xlink:href="#DejaVuSans-73" x="1430.029297"/>
     <use xlink:href="#DejaVuSans-74" x="1482.128906"/>
     <use xlink:href="#DejaVuSans-72" x="1521.337891"/>
     <use xlink:href="#DejaVuSans-61" x="1562.451172"/>
     <use xlink:href="#DejaVuSans-74" x="1623.730469"/>
     <use xlink:href="#DejaVuSans-65" x="1662.939453"/>
     <use xlink:href="#DejaVuSans-67" x="1724.462891"/>
     <use xlink:href="#DejaVuSans-79" x="1787.939453"/>
     <use xlink:href="#DejaVuSans-20" x="1847.119141"/>
     <use xlink:href="#DejaVuSans-62" x="1878.90625"/>
     <use xlink:href="#DejaVuSans-79" x="1942.382812"/>
     <use xlink:href="#DejaVuSans-20" x="2001.5625"/>
     <use xlink:href="#DejaVuSans-72" x="2033.349609"/>
     <use xlink:href="#DejaVuSans-65" x="2072.212891"/>
     <use xlink:href="#DejaVuSans-61" x="2133.736328"/>
     <use xlink:href="#DejaVuSans-6c" x="2195.015625"/>
     <use xlink:href="#DejaVuSans-69" x="2222.798828"/>
     <use xlink:href="#DejaVuSans-74" x="2250.582031"/>
     <use xlink:href="#DejaVuSans-79" x="2289.791016"/>
    </g>
   </g>
   <g id="legend_1">
    <g id="patch_7">
     <path d="M 513.467188 150.510625 
L 641 150.510625 
Q 643 150.510625 643 148.510625 
L 643 76.12 
Q 643 74.12 641 74.12 
L 513.467188 74.12 
Q 511.467188 74.12 511.467188 76.12 
L 511.467188 148.510625 
Q 511.467188 150.510625 513.467188 150.510625 
z
" style="fill: #ffffff; opacity: 0.8; stroke: #cccccc; stroke-linejoin: miter"/>
    </g>
    <g id="text_12">
     <!-- Reality -->
     <g transform="translate(560.146094 85.718437) scale(0.1 -0.1)">
      <use xlink:href="#DejaVuSans-52"/>
      <use xlink:href="#DejaVuSans-65" x="64.982422"/>
      <use xlink:href="#DejaVuSans-61" x="126.505859"/>
      <use xlink:href="#DejaVuSans-6c" x="187.785156"/>
      <use xlink:href="#DejaVuSans-69" x="215.568359"/>
      <use xlink:href="#DejaVuSans-74" x="243.351562"/>
      <use xlink:href="#DejaVuSans-79" x="282.560547"/>
     </g>
    </g>
    <g id="line2d_17">
     <path d="M 515.467188 96.896563 
L 525.467188 96.896563 
L 535.467188 96.896563 
" style="fill: none; stroke: #ffffff; stroke-width: 1.5; stroke-linecap: square"/>
     <defs>
      <path id="mb4b62c1c83" d="M 0 5 
C 1.326016 5 2.597899 4.473168 3.535534 3.535534 
C 4.473168 2.597899 5 1.326016 5 0 
C 5 -1.326016 4.473168 -2.597899 3.535534 -3.535534 
C 2.597899 -4.473168 1.326016 -5 0 -5 
C -1.326016 -5 -2.597899 -4.473168 -3.535534 -3.535534 
C -4.473168 -2.597899 -5 -1.326016 -5 0 
C -5 1.326016 -4.473168 2.597899 -3.535534 3.535534 
C -2.597899 4.473168 -1.326016 5 0 5 
z
" style="stroke: #ffffff"/>
     </defs>
     <g>
      <use xlink:href="#mb4b62c1c83" x="525.467188" y="96.896563" style="fill: #00ffff; stroke: #ffffff"/>
     </g>
    </g>
    <g id="text_13">
     <!-- Virtual Reality -->
     <g transform="translate(543.467188 100.396563) scale(0.1 -0.1)">
      <use xlink:href="#DejaVuSans-56"/>
      <use xlink:href="#DejaVuSans-69" x="66.158203"/>
      <use xlink:href="#DejaVuSans-72" x="93.941406"/>
      <use xlink:href="#DejaVuSans-74" x="135.054688"/>
      <use xlink:href="#DejaVuSans-75" x="174.263672"/>
      <use xlink:href="#DejaVuSans-61" x="237.642578"/>
      <use xlink:href="#DejaVuSans-6c" x="298.921875"/>
      <use xlink:href="#DejaVuSans-20" x="326.705078"/>
      <use xlink:href="#DejaVuSans-52" x="358.492188"/>
      <use xlink:href="#DejaVuSans-65" x="423.474609"/>
      <use xlink:href="#DejaVuSans-61" x="484.998047"/>
      <use xlink:href="#DejaVuSans-6c" x="546.277344"/>
      <use xlink:href="#DejaVuSans-69" x="574.060547"/>
      <use xlink:href="#DejaVuSans-74" x="601.84375"/>
      <use xlink:href="#DejaVuSans-79" x="641.052734"/>
     </g>
    </g>
    <g id="line2d_18">
     <path d="M 515.467188 111.574688 
L 525.467188 111.574688 
L 535.467188 111.574688 
" style="fill: none; stroke: #ffffff; stroke-width: 1.5; stroke-linecap: square"/>
     <defs>
      <path id="m67050bc76c" d="M 0 5 
C 1.326016 5 2.597899 4.473168 3.535534 3.535534 
C 4.473168 2.597899 5 1.326016 5 0 
C 5 -1.326016 4.473168 -2.597899 3.535534 -3.535534 
C 2.597899 -4.473168 1.326016 -5 0 -5 
C -1.326016 -5 -2.597899 -4.473168 -3.535534 -3.535534 
C -4.473168 -2.597899 -5 -1.326016 -5 0 
C -5 1.326016 -4.473168 2.597899 -3.535534 3.535534 
C -2.597899 4.473168 -1.326016 5 0 5 
z
" style="stroke: #ffffff"/>
     </defs>
     <g>
      <use xlink:href="#m67050bc76c" x="525.467188" y="111.574688" style="fill: #ff0000; stroke: #ffffff"/>
     </g>
    </g>
    <g id="text_14">
     <!-- Augmented Reality -->
     <g transform="translate(543.467188 115.074688) scale(0.1 -0.1)">
      <use xlink:href="#DejaVuSans-41"/>
      <use xlink:href="#DejaVuSans-75" x="68.408203"/>
      <use xlink:href="#DejaVuSans-67" x="131.787109"/>
      <use xlink:href="#DejaVuSans-6d" x="195.263672"/>
      <use xlink:href="#DejaVuSans-65" x="292.675781"/>
      <use xlink:href="#DejaVuSans-6e" x="354.199219"/>
      <use xlink:href="#DejaVuSans-74" x="417.578125"/>
      <use xlink:href="#DejaVuSans-65" x="456.787109"/>
      <use xlink:href="#DejaVuSans-64" x="518.310547"/>
      <use xlink:href="#DejaVuSans-20" x="581.787109"/>
      <use xlink:href="#DejaVuSans-52" x="613.574219"/>
      <use xlink:href="#DejaVuSans-65" x="678.556641"/>
      <use xlink:href="#DejaVuSans-61" x="740.080078"/>
      <use xlink:href="#DejaVuSans-6c" x="801.359375"/>
      <use xlink:href="#DejaVuSans-69" x="829.142578"/>
      <use xlink:href="#DejaVuSans-74" x="856.925781"/>
      <use xlink:href="#DejaVuSans-79" x="896.134766"/>
     </g>
    </g>
    <g id="line2d_19">
     <path d="M 515.467188 126.252813 
L 525.467188 126.252813 
L 535.467188 126.252813 
" style="fill: none; stroke: #ffffff; stroke-width: 1.5; stroke-linecap: square"/>
     <defs>
      <path id="m33037b25e2" d="M 0 5 
C 1.326016 5 2.597899 4.473168 3.535534 3.535534 
C 4.473168 2.597899 5 1.326016 5 0 
C 5 -1.326016 4.473168 -2.597899 3.535534 -3.535534 
C 2.597899 -4.473168 1.326016 -5 0 -5 
C -1.326016 -5 -2.597899 -4.473168 -3.535534 -3.535534 
C -4.473168 -2.597899 -5 -1.326016 -5 0 
C -5 1.326016 -4.473168 2.597899 -3.535534 3.535534 
C -2.597899 4.473168 -1.326016 5 0 5 
z
" style="stroke: #ffffff"/>
     </defs>
     <g>
      <use xlink:href="#m33037b25e2" x="525.467188" y="126.252813" style="fill: #ff00ff; stroke: #ffffff"/>
     </g>
    </g>
    <g id="text_15">
     <!-- Mixed Reality -->
     <g transform="translate(543.467188 129.752813) scale(0.1 -0.1)">
      <use xlink:href="#DejaVuSans-4d"/>
      <use xlink:href="#DejaVuSans-69" x="86.279297"/>
      <use xlink:href="#DejaVuSans-78" x="114.0625"/>
      <use xlink:href="#DejaVuSans-65" x="170.117188"/>
      <use xlink:href="#DejaVuSans-64" x="231.640625"/>
      <use xlink:href="#DejaVuSans-20" x="295.117188"/>
      <use xlink:href="#DejaVuSans-52" x="326.904297"/>
      <use xlink:href="#DejaVuSans-65" x="391.886719"/>
      <use xlink:href="#DejaVuSans-61" x="453.410156"/>
      <use xlink:href="#DejaVuSans-6c" x="514.689453"/>
      <use xlink:href="#DejaVuSans-69" x="542.472656"/>
      <use xlink:href="#DejaVuSans-74" x="570.255859"/>
      <use xlink:href="#DejaVuSans-79" x="609.464844"/>
     </g>
    </g>
    <g id="line2d_20">
     <path d="M 515.467188 140.930938 
L 525.467188 140.930938 
L 535.467188 140.930938 
" style="fill: none; stroke: #ffffff; stroke-width: 1.5; stroke-linecap: square"/>
     <defs>
      <path id="m519b509913" d="M 0 5 
C 1.326016 5 2.597899 4.473168 3.535534 3.535534 
C 4.473168 2.597899 5 1.326016 5 0 
C 5 -1.326016 4.473168 -2.597899 3.535534 -3.535534 
C 2.597899 -4.473168 1.326016 -5 0 -5 
C -1.326016 -5 -2.597899 -4.473168 -3.535534 -3.535534 
C -4.473168 -2.597899 -5 -1.326016 -5 0 
C -5 1.326016 -4.473168 2.597899 -3.535534 3.535534 
C -2.597899 4.473168 -1.326016 5 0 5 
z
" style="stroke: #ffffff"/>
     </defs>
     <g>
      <use xlink:href="#m519b509913" x="525.467188" y="140.930938" style="fill: #ffa500; stroke: #ffffff"/>
     </g>
    </g>
    <g id="text_16">
     <!-- Extended Reality -->
     <g transform="translate(543.467188 144.430938) scale(0.1 -0.1)">
      <use xlink:href="#DejaVuSans-45"/>
      <use xlink:href="#DejaVuSans-78" x="63.183594"/>
      <use xlink:href="#DejaVuSans-74" x="122.363281"/>
      <use xlink:href="#DejaVuSans-65" x="161.572266"/>
      <use xlink:href="#DejaVuSans-6e" x="223.095703"/>
      <use xlink:href="#DejaVuSans-64" x="286.474609"/>
      <use xlink:href="#DejaVuSans-65" x="349.951172"/>
      <use xlink:href="#DejaVuSans-64" x="411.474609"/>
      <use xlink:href="#DejaVuSans-20" x="474.951172"/>
      <use xlink:href="#DejaVuSans-52" x="506.738281"/>
      <use xlink:href="#DejaVuSans-65" x="571.720703"/>
      <use xlink:href="#DejaVuSans-61" x="633.244141"/>
      <use xlink:href="#DejaVuSans-6c" x="694.523438"/>
      <use xlink:href="#DejaVuSans-69" x="722.306641"/>
      <use xlink:href="#DejaVuSans-74" x="750.089844"/>
      <use xlink:href="#DejaVuSans-79" x="789.298828"/>
     </g>
    </g>
   </g>
  </g>
 </g>
 <defs>
  <clipPath id="p7c95d60210">
   <rect x="90" y="69.12" width="558" height="443.52"/>
  </clipPath>
 </defs>
</svg>
