<?xml version="1.0" encoding="utf-8" standalone="no"?>
<!DOCTYPE svg PUBLIC "-//W3C//DTD SVG 1.1//EN"
  "http://www.w3.org/Graphics/SVG/1.1/DTD/svg11.dtd">
<svg xmlns:xlink="http://www.w3.org/1999/xlink" width="720pt" height="576pt" viewBox="0 0 720 576" xmlns="http://www.w3.org/2000/svg" version="1.1">
 <metadata>
  <rdf:RDF xmlns:dc="http://purl.org/dc/elements/1.1/" xmlns:cc="http://creativecommons.org/ns#" xmlns:rdf="http://www.w3.org/1999/02/22-rdf-syntax-ns#">
   <cc:Work>
    <dc:type rdf:resource="http://purl.org/dc/dcmitype/StillImage"/>
    <dc:date>2024-09-02T12:50:14.573086</dc:date>
    <dc:format>image/svg+xml</dc:format>
    <dc:creator>
     <cc:Agent>
      <dc:title>Matplotlib v3.8.2, https://matplotlib.org/</dc:title>
     </cc:Agent>
    </dc:creator>
   </cc:Work>
  </rdf:RDF>
 </metadata>
 <defs>
  <style type="text/css">*{stroke-linejoin: round; stroke-linecap: butt}</style>
 </defs>
 <g id="figure_1">
  <g id="patch_1">
   <path d="M 0 576 
L 720 576 
L 720 0 
L 0 0 
z
" style="fill: #ffffff"/>
  </g>
  <g id="axes_1">
   <g id="patch_2">
    <path d="M 90 512.64 
L 648 512.64 
L 648 69.12 
L 90 69.12 
z
" style="fill: #ffffff"/>
   </g>
   <g id="PathCollection_1">
    <path d="M 115.363636 503.66034 
C 118.328697 503.66034 121.172716 502.482309 123.269331 500.385694 
C 125.365945 498.28908 126.543976 495.445061 126.543976 492.48 
C 126.543976 489.514939 125.365945 486.67092 123.269331 484.574306 
C 121.172716 482.477691 118.328697 481.29966 115.363636 481.29966 
C 112.398576 481.29966 109.554557 482.477691 107.457942 484.574306 
C 105.361328 486.67092 104.183296 489.514939 104.183296 492.48 
C 104.183296 495.445061 105.361328 498.28908 107.457942 500.385694 
C 109.554557 502.482309 112.398576 503.66034 115.363636 503.66034 
z
" clip-path="url(#pa68d2912dc)" style="fill: #0000ff; fill-opacity: 0.6; stroke: #ffffff; stroke-opacity: 0.6; stroke-width: 2"/>
    <path d="M 115.363636 501.140254 
C 117.660363 501.140254 119.86333 500.227755 121.487361 498.603724 
C 123.111391 496.979694 124.02389 494.776726 124.02389 492.48 
C 124.02389 490.183274 123.111391 487.980306 121.487361 486.356276 
C 119.86333 484.732245 117.660363 483.819746 115.363636 483.819746 
C 113.06691 483.819746 110.863943 484.732245 109.239912 486.356276 
C 107.615881 487.980306 106.703382 490.183274 106.703382 492.48 
C 106.703382 494.776726 107.615881 496.979694 109.239912 498.603724 
C 110.863943 500.227755 113.06691 501.140254 115.363636 501.140254 
z
" clip-path="url(#pa68d2912dc)" style="fill: #008000; fill-opacity: 0.6; stroke: #ffffff; stroke-opacity: 0.6; stroke-width: 2"/>
    <path d="M 115.363636 497.48 
C 116.689652 497.48 117.961536 496.953168 118.89917 496.015534 
C 119.836805 495.077899 120.363636 493.806016 120.363636 492.48 
C 120.363636 491.153985 119.836805 489.882101 118.89917 488.944466 
C 117.961536 488.006832 116.689652 487.48 115.363636 487.48 
C 114.037621 487.48 112.765737 488.006832 111.828102 488.944466 
C 110.890468 489.882101 110.363636 491.153985 110.363636 492.48 
C 110.363636 493.806016 110.890468 495.077899 111.828102 496.015534 
C 112.765737 496.953168 114.037621 497.48 115.363636 497.48 
z
" clip-path="url(#pa68d2912dc)" style="fill: #ff0000; fill-opacity: 0.6; stroke: #ffffff; stroke-opacity: 0.6; stroke-width: 2"/>
    <path d="M 115.363636 513.693203 
C 120.989444 513.693203 126.38559 511.458047 130.363636 507.48 
C 134.341683 503.501954 136.57684 498.105807 136.57684 492.48 
C 136.57684 486.854193 134.341683 481.458047 130.363636 477.48 
C 126.38559 473.501954 120.989444 471.266797 115.363636 471.266797 
C 109.737829 471.266797 104.341683 473.501954 100.363636 477.48 
C 96.38559 481.458047 94.150433 486.854193 94.150433 492.48 
C 94.150433 498.105807 96.38559 503.501954 100.363636 507.48 
C 104.341683 511.458047 109.737829 513.693203 115.363636 513.693203 
z
" clip-path="url(#pa68d2912dc)" style="fill: #00ffff; fill-opacity: 0.6; stroke: #ffffff; stroke-opacity: 0.6; stroke-width: 2"/>
    <path d="M 115.363636 371.308757 
C 118.871944 371.308757 122.237032 369.914891 124.71778 367.434143 
C 127.198528 364.953396 128.592393 361.588307 128.592393 358.08 
C 128.592393 354.571693 127.198528 351.206604 124.71778 348.725857 
C 122.237032 346.245109 118.871944 344.851243 115.363636 344.851243 
C 111.855329 344.851243 108.490241 346.245109 106.009493 348.725857 
C 103.528745 351.206604 102.13488 354.571693 102.13488 358.08 
C 102.13488 361.588307 103.528745 364.953396 106.009493 367.434143 
C 108.490241 369.914891 111.855329 371.308757 115.363636 371.308757 
z
" clip-path="url(#pa68d2912dc)" style="fill: #0000ff; fill-opacity: 0.6; stroke: #ffffff; stroke-opacity: 0.6; stroke-width: 2"/>
    <path d="M 115.363636 365.151068 
C 117.238905 365.151068 119.037621 364.406015 120.363636 363.08 
C 121.689652 361.753985 122.434704 359.955269 122.434704 358.08 
C 122.434704 356.204731 121.689652 354.406015 120.363636 353.08 
C 119.037621 351.753985 117.238905 351.008932 115.363636 351.008932 
C 113.488367 351.008932 111.689652 351.753985 110.363636 353.08 
C 109.037621 354.406015 108.292569 356.204731 108.292569 358.08 
C 108.292569 359.955269 109.037621 361.753985 110.363636 363.08 
C 111.689652 364.406015 113.488367 365.151068 115.363636 365.151068 
z
" clip-path="url(#pa68d2912dc)" style="fill: #008000; fill-opacity: 0.6; stroke: #ffffff; stroke-opacity: 0.6; stroke-width: 2"/>
    <path d="M 115.363636 363.08 
C 116.689652 363.08 117.961536 362.553168 118.89917 361.615534 
C 119.836805 360.677899 120.363636 359.406015 120.363636 358.08 
C 120.363636 356.753985 119.836805 355.482101 118.89917 354.544466 
C 117.961536 353.606832 116.689652 353.08 115.363636 353.08 
C 114.037621 353.08 112.765737 353.606832 111.828102 354.544466 
C 110.890468 355.482101 110.363636 356.753985 110.363636 358.08 
C 110.363636 359.406015 110.890468 360.677899 111.828102 361.615534 
C 112.765737 362.553168 114.037621 363.08 115.363636 363.08 
z
" clip-path="url(#pa68d2912dc)" style="fill: #ff0000; fill-opacity: 0.6; stroke: #ffffff; stroke-opacity: 0.6; stroke-width: 2"/>
    <path d="M 115.363636 365.151068 
C 117.238905 365.151068 119.037621 364.406015 120.363636 363.08 
C 121.689652 361.753985 122.434704 359.955269 122.434704 358.08 
C 122.434704 356.204731 121.689652 354.406015 120.363636 353.08 
C 119.037621 351.753985 117.238905 351.008932 115.363636 351.008932 
C 113.488367 351.008932 111.689652 351.753985 110.363636 353.08 
C 109.037621 354.406015 108.292569 356.204731 108.292569 358.08 
C 108.292569 359.955269 109.037621 361.753985 110.363636 363.08 
C 111.689652 364.406015 113.488367 365.151068 115.363636 365.151068 
z
" clip-path="url(#pa68d2912dc)" style="fill: #800080; fill-opacity: 0.6; stroke: #ffffff; stroke-opacity: 0.6; stroke-width: 2"/>
    <path d="M 115.363636 375.400508 
C 119.957089 375.400508 124.363024 373.57551 127.611085 370.327449 
C 130.859146 367.079387 132.684144 362.673452 132.684144 358.08 
C 132.684144 353.486548 130.859146 349.080613 127.611085 345.832551 
C 124.363024 342.58449 119.957089 340.759492 115.363636 340.759492 
C 110.770184 340.759492 106.364249 342.58449 103.116188 345.832551 
C 99.868126 349.080613 98.043128 353.486548 98.043128 358.08 
C 98.043128 362.673452 99.868126 367.079387 103.116188 370.327449 
C 106.364249 373.57551 110.770184 375.400508 115.363636 375.400508 
z
" clip-path="url(#pa68d2912dc)" style="fill: #00ffff; fill-opacity: 0.6; stroke: #ffffff; stroke-opacity: 0.6; stroke-width: 2"/>
    <path d="M 115.363636 228.68 
C 116.689652 228.68 117.961536 228.153168 118.89917 227.215534 
C 119.836805 226.277899 120.363636 225.006016 120.363636 223.68 
C 120.363636 222.353984 119.836805 221.082101 118.89917 220.144466 
C 117.961536 219.206832 116.689652 218.68 115.363636 218.68 
C 114.037621 218.68 112.765737 219.206832 111.828102 220.144466 
C 110.890468 221.082101 110.363636 222.353984 110.363636 223.68 
C 110.363636 225.006016 110.890468 226.277899 111.828102 227.215534 
C 112.765737 228.153168 114.037621 228.68 115.363636 228.68 
z
" clip-path="url(#pa68d2912dc)" style="fill: #0000ff; fill-opacity: 0.6; stroke: #ffffff; stroke-opacity: 0.6; stroke-width: 2"/>
    <path d="M 115.363636 228.68 
C 116.689652 228.68 117.961536 228.153168 118.89917 227.215534 
C 119.836805 226.277899 120.363636 225.006016 120.363636 223.68 
C 120.363636 222.353984 119.836805 221.082101 118.89917 220.144466 
C 117.961536 219.206832 116.689652 218.68 115.363636 218.68 
C 114.037621 218.68 112.765737 219.206832 111.828102 220.144466 
C 110.890468 221.082101 110.363636 222.353984 110.363636 223.68 
C 110.363636 225.006016 110.890468 226.277899 111.828102 227.215534 
C 112.765737 228.153168 114.037621 228.68 115.363636 228.68 
z
" clip-path="url(#pa68d2912dc)" style="fill: #ff0000; fill-opacity: 0.6; stroke: #ffffff; stroke-opacity: 0.6; stroke-width: 2"/>
    <path d="M 115.363636 228.68 
C 116.689652 228.68 117.961536 228.153168 118.89917 227.215534 
C 119.836805 226.277899 120.363636 225.006016 120.363636 223.68 
C 120.363636 222.353984 119.836805 221.082101 118.89917 220.144466 
C 117.961536 219.206832 116.689652 218.68 115.363636 218.68 
C 114.037621 218.68 112.765737 219.206832 111.828102 220.144466 
C 110.890468 221.082101 110.363636 222.353984 110.363636 223.68 
C 110.363636 225.006016 110.890468 226.277899 111.828102 227.215534 
C 112.765737 228.153168 114.037621 228.68 115.363636 228.68 
z
" clip-path="url(#pa68d2912dc)" style="fill: #800080; fill-opacity: 0.6; stroke: #ffffff; stroke-opacity: 0.6; stroke-width: 2"/>
    <path d="M 115.363636 233.68 
C 118.015667 233.68 120.559435 232.626337 122.434704 230.751068 
C 124.309973 228.875799 125.363636 226.332031 125.363636 223.68 
C 125.363636 221.027969 124.309973 218.484201 122.434704 216.608932 
C 120.559435 214.733663 118.015667 213.68 115.363636 213.68 
C 112.711605 213.68 110.167838 214.733663 108.292569 216.608932 
C 106.417299 218.484201 105.363636 221.027969 105.363636 223.68 
C 105.363636 226.332031 106.417299 228.875799 108.292569 230.751068 
C 110.167838 232.626337 112.711605 233.68 115.363636 233.68 
z
" clip-path="url(#pa68d2912dc)" style="fill: #00ffff; fill-opacity: 0.6; stroke: #ffffff; stroke-opacity: 0.6; stroke-width: 2"/>
    <path d="M 115.363636 94.28 
C 116.689652 94.28 117.961536 93.753168 118.89917 92.815534 
C 119.836805 91.877899 120.363636 90.606015 120.363636 89.28 
C 120.363636 87.953984 119.836805 86.682101 118.89917 85.744466 
C 117.961536 84.806832 116.689652 84.28 115.363636 84.28 
C 114.037621 84.28 112.765737 84.806832 111.828102 85.744466 
C 110.890468 86.682101 110.363636 87.953984 110.363636 89.28 
C 110.363636 90.606015 110.890468 91.877899 111.828102 92.815534 
C 112.765737 93.753168 114.037621 94.28 115.363636 94.28 
z
" clip-path="url(#pa68d2912dc)" style="fill: #0000ff; fill-opacity: 0.6; stroke: #ffffff; stroke-opacity: 0.6; stroke-width: 2"/>
    <path d="M 115.363636 94.28 
C 116.689652 94.28 117.961536 93.753168 118.89917 92.815534 
C 119.836805 91.877899 120.363636 90.606015 120.363636 89.28 
C 120.363636 87.953984 119.836805 86.682101 118.89917 85.744466 
C 117.961536 84.806832 116.689652 84.28 115.363636 84.28 
C 114.037621 84.28 112.765737 84.806832 111.828102 85.744466 
C 110.890468 86.682101 110.363636 87.953984 110.363636 89.28 
C 110.363636 90.606015 110.890468 91.877899 111.828102 92.815534 
C 112.765737 93.753168 114.037621 94.28 115.363636 94.28 
z
" clip-path="url(#pa68d2912dc)" style="fill: #008000; fill-opacity: 0.6; stroke: #ffffff; stroke-opacity: 0.6; stroke-width: 2"/>
    <path d="M 115.363636 94.28 
C 116.689652 94.28 117.961536 93.753168 118.89917 92.815534 
C 119.836805 91.877899 120.363636 90.606015 120.363636 89.28 
C 120.363636 87.953984 119.836805 86.682101 118.89917 85.744466 
C 117.961536 84.806832 116.689652 84.28 115.363636 84.28 
C 114.037621 84.28 112.765737 84.806832 111.828102 85.744466 
C 110.890468 86.682101 110.363636 87.953984 110.363636 89.28 
C 110.363636 90.606015 110.890468 91.877899 111.828102 92.815534 
C 112.765737 93.753168 114.037621 94.28 115.363636 94.28 
z
" clip-path="url(#pa68d2912dc)" style="fill: #ff0000; fill-opacity: 0.6; stroke: #ffffff; stroke-opacity: 0.6; stroke-width: 2"/>
    <path d="M 115.363636 94.28 
C 116.689652 94.28 117.961536 93.753168 118.89917 92.815534 
C 119.836805 91.877899 120.363636 90.606015 120.363636 89.28 
C 120.363636 87.953984 119.836805 86.682101 118.89917 85.744466 
C 117.961536 84.806832 116.689652 84.28 115.363636 84.28 
C 114.037621 84.28 112.765737 84.806832 111.828102 85.744466 
C 110.890468 86.682101 110.363636 87.953984 110.363636 89.28 
C 110.363636 90.606015 110.890468 91.877899 111.828102 92.815534 
C 112.765737 93.753168 114.037621 94.28 115.363636 94.28 
z
" clip-path="url(#pa68d2912dc)" style="fill: #800080; fill-opacity: 0.6; stroke: #ffffff; stroke-opacity: 0.6; stroke-width: 2"/>
    <path d="M 115.363636 94.28 
C 116.689652 94.28 117.961536 93.753168 118.89917 92.815534 
C 119.836805 91.877899 120.363636 90.606015 120.363636 89.28 
C 120.363636 87.953984 119.836805 86.682101 118.89917 85.744466 
C 117.961536 84.806832 116.689652 84.28 115.363636 84.28 
C 114.037621 84.28 112.765737 84.806832 111.828102 85.744466 
C 110.890468 86.682101 110.363636 87.953984 110.363636 89.28 
C 110.363636 90.606015 110.890468 91.877899 111.828102 92.815534 
C 112.765737 93.753168 114.037621 94.28 115.363636 94.28 
z
" clip-path="url(#pa68d2912dc)" style="fill: #00ffff; fill-opacity: 0.6; stroke: #ffffff; stroke-opacity: 0.6; stroke-width: 2"/>
    <path d="M 199.909091 505.708757 
C 203.417398 505.708757 206.782487 504.314891 209.263234 501.834143 
C 211.743982 499.353396 213.137847 495.988307 213.137847 492.48 
C 213.137847 488.971693 211.743982 485.606604 209.263234 483.125857 
C 206.782487 480.645109 203.417398 479.251243 199.909091 479.251243 
C 196.400784 479.251243 193.035695 480.645109 190.554947 483.125857 
C 188.0742 485.606604 186.680334 488.971693 186.680334 492.48 
C 186.680334 495.988307 188.0742 499.353396 190.554947 501.834143 
C 193.035695 504.314891 196.400784 505.708757 199.909091 505.708757 
z
" clip-path="url(#pa68d2912dc)" style="fill: #0000ff; fill-opacity: 0.6; stroke: #ffffff; stroke-opacity: 0.6; stroke-width: 2"/>
    <path d="M 199.909091 511.188287 
C 204.870587 511.188287 209.62954 509.217064 213.137847 505.708757 
C 216.646155 502.200449 218.617378 497.441496 218.617378 492.48 
C 218.617378 487.518504 216.646155 482.759551 213.137847 479.251243 
C 209.62954 475.742936 204.870587 473.771713 199.909091 473.771713 
C 194.947595 473.771713 190.188642 475.742936 186.680334 479.251243 
C 183.172027 482.759551 181.200804 487.518504 181.200804 492.48 
C 181.200804 497.441496 183.172027 502.200449 186.680334 505.708757 
C 190.188642 509.217064 194.947595 511.188287 199.909091 511.188287 
z
" clip-path="url(#pa68d2912dc)" style="fill: #008000; fill-opacity: 0.6; stroke: #ffffff; stroke-opacity: 0.6; stroke-width: 2"/>
    <path d="M 199.909091 503.66034 
C 202.874152 503.66034 205.71817 502.482309 207.814785 500.385694 
C 209.9114 498.28908 211.089431 495.445061 211.089431 492.48 
C 211.089431 489.514939 209.9114 486.67092 207.814785 484.574306 
C 205.71817 482.477691 202.874152 481.29966 199.909091 481.29966 
C 196.94403 481.29966 194.100011 482.477691 192.003397 484.574306 
C 189.906782 486.67092 188.728751 489.514939 188.728751 492.48 
C 188.728751 495.445061 189.906782 498.28908 192.003397 500.385694 
C 194.100011 502.482309 196.94403 503.66034 199.909091 503.66034 
z
" clip-path="url(#pa68d2912dc)" style="fill: #00ffff; fill-opacity: 0.6; stroke: #ffffff; stroke-opacity: 0.6; stroke-width: 2"/>
    <path d="M 199.909091 370.327449 
C 203.157152 370.327449 206.272619 369.03698 208.569345 366.740254 
C 210.866071 364.443528 212.15654 361.328061 212.15654 358.08 
C 212.15654 354.831939 210.866071 351.716472 208.569345 349.419746 
C 206.272619 347.12302 203.157152 345.832551 199.909091 345.832551 
C 196.66103 345.832551 193.545563 347.12302 191.248837 349.419746 
C 188.952111 351.716472 187.661642 354.831939 187.661642 358.08 
C 187.661642 361.328061 188.952111 364.443528 191.248837 366.740254 
C 193.545563 369.03698 196.66103 370.327449 199.909091 370.327449 
z
" clip-path="url(#pa68d2912dc)" style="fill: #0000ff; fill-opacity: 0.6; stroke: #ffffff; stroke-opacity: 0.6; stroke-width: 2"/>
    <path d="M 199.909091 369.26034 
C 202.874152 369.26034 205.71817 368.082309 207.814785 365.985694 
C 209.9114 363.88908 211.089431 361.045061 211.089431 358.08 
C 211.089431 355.114939 209.9114 352.27092 207.814785 350.174306 
C 205.71817 348.077691 202.874152 346.89966 199.909091 346.89966 
C 196.94403 346.89966 194.100011 348.077691 192.003397 350.174306 
C 189.906782 352.27092 188.728751 355.114939 188.728751 358.08 
C 188.728751 361.045061 189.906782 363.88908 192.003397 365.985694 
C 194.100011 368.082309 196.94403 369.26034 199.909091 369.26034 
z
" clip-path="url(#pa68d2912dc)" style="fill: #008000; fill-opacity: 0.6; stroke: #ffffff; stroke-opacity: 0.6; stroke-width: 2"/>
    <path d="M 199.909091 368.08 
C 202.561122 368.08 205.10489 367.026337 206.980159 365.151068 
C 208.855428 363.275799 209.909091 360.732031 209.909091 358.08 
C 209.909091 355.427969 208.855428 352.884201 206.980159 351.008932 
C 205.10489 349.133663 202.561122 348.08 199.909091 348.08 
C 197.25706 348.08 194.713292 349.133663 192.838023 351.008932 
C 190.962754 352.884201 189.909091 355.427969 189.909091 358.08 
C 189.909091 360.732031 190.962754 363.275799 192.838023 365.151068 
C 194.713292 367.026337 197.25706 368.08 199.909091 368.08 
z
" clip-path="url(#pa68d2912dc)" style="fill: #00ffff; fill-opacity: 0.6; stroke: #ffffff; stroke-opacity: 0.6; stroke-width: 2"/>
    <path d="M 199.909091 230.751068 
C 201.78436 230.751068 203.583075 230.006016 204.909091 228.68 
C 206.235106 227.353984 206.980159 225.555269 206.980159 223.68 
C 206.980159 221.804731 206.235106 220.006016 204.909091 218.68 
C 203.583075 217.353984 201.78436 216.608932 199.909091 216.608932 
C 198.033822 216.608932 196.235106 217.353984 194.909091 218.68 
C 193.583075 220.006016 192.838023 221.804731 192.838023 223.68 
C 192.838023 225.555269 193.583075 227.353984 194.909091 228.68 
C 196.235106 230.006016 198.033822 230.751068 199.909091 230.751068 
z
" clip-path="url(#pa68d2912dc)" style="fill: #0000ff; fill-opacity: 0.6; stroke: #ffffff; stroke-opacity: 0.6; stroke-width: 2"/>
    <path d="M 199.909091 228.68 
C 201.235106 228.68 202.50699 228.153168 203.444625 227.215534 
C 204.382259 226.277899 204.909091 225.006016 204.909091 223.68 
C 204.909091 222.353984 204.382259 221.082101 203.444625 220.144466 
C 202.50699 219.206832 201.235106 218.68 199.909091 218.68 
C 198.583075 218.68 197.311192 219.206832 196.373557 220.144466 
C 195.435922 221.082101 194.909091 222.353984 194.909091 223.68 
C 194.909091 225.006016 195.435922 226.277899 196.373557 227.215534 
C 197.311192 228.153168 198.583075 228.68 199.909091 228.68 
z
" clip-path="url(#pa68d2912dc)" style="fill: #008000; fill-opacity: 0.6; stroke: #ffffff; stroke-opacity: 0.6; stroke-width: 2"/>
    <path d="M 199.909091 230.751068 
C 201.78436 230.751068 203.583075 230.006016 204.909091 228.68 
C 206.235106 227.353984 206.980159 225.555269 206.980159 223.68 
C 206.980159 221.804731 206.235106 220.006016 204.909091 218.68 
C 203.583075 217.353984 201.78436 216.608932 199.909091 216.608932 
C 198.033822 216.608932 196.235106 217.353984 194.909091 218.68 
C 193.583075 220.006016 192.838023 221.804731 192.838023 223.68 
C 192.838023 225.555269 193.583075 227.353984 194.909091 228.68 
C 196.235106 230.006016 198.033822 230.751068 199.909091 230.751068 
z
" clip-path="url(#pa68d2912dc)" style="fill: #00ffff; fill-opacity: 0.6; stroke: #ffffff; stroke-opacity: 0.6; stroke-width: 2"/>
    <path d="M 199.909091 94.28 
C 201.235106 94.28 202.50699 93.753168 203.444625 92.815534 
C 204.382259 91.877899 204.909091 90.606015 204.909091 89.28 
C 204.909091 87.953984 204.382259 86.682101 203.444625 85.744466 
C 202.50699 84.806832 201.235106 84.28 199.909091 84.28 
C 198.583075 84.28 197.311192 84.806832 196.373557 85.744466 
C 195.435922 86.682101 194.909091 87.953984 194.909091 89.28 
C 194.909091 90.606015 195.435922 91.877899 196.373557 92.815534 
C 197.311192 93.753168 198.583075 94.28 199.909091 94.28 
z
" clip-path="url(#pa68d2912dc)" style="fill: #008000; fill-opacity: 0.6; stroke: #ffffff; stroke-opacity: 0.6; stroke-width: 2"/>
    <path d="M 284.454545 497.48 
C 285.780561 497.48 287.052445 496.953168 287.990079 496.015534 
C 288.927714 495.077899 289.454545 493.806016 289.454545 492.48 
C 289.454545 491.153985 288.927714 489.882101 287.990079 488.944466 
C 287.052445 488.006832 285.780561 487.48 284.454545 487.48 
C 283.12853 487.48 281.856646 488.006832 280.919012 488.944466 
C 279.981377 489.882101 279.454545 491.153985 279.454545 492.48 
C 279.454545 493.806016 279.981377 495.077899 280.919012 496.015534 
C 281.856646 496.953168 283.12853 497.48 284.454545 497.48 
z
" clip-path="url(#pa68d2912dc)" style="fill: #0000ff; fill-opacity: 0.6; stroke: #ffffff; stroke-opacity: 0.6; stroke-width: 2"/>
    <path d="M 284.454545 509.063124 
C 288.852441 509.063124 293.070803 507.315821 296.180585 504.206039 
C 299.290367 501.096257 301.037669 496.877896 301.037669 492.48 
C 301.037669 488.082104 299.290367 483.863743 296.180585 480.753961 
C 293.070803 477.644179 288.852441 475.896876 284.454545 475.896876 
C 280.05665 475.896876 275.838288 477.644179 272.728506 480.753961 
C 269.618724 483.863743 267.871422 488.082104 267.871422 492.48 
C 267.871422 496.877896 269.618724 501.096257 272.728506 504.206039 
C 275.838288 507.315821 280.05665 509.063124 284.454545 509.063124 
z
" clip-path="url(#pa68d2912dc)" style="fill: #008000; fill-opacity: 0.6; stroke: #ffffff; stroke-opacity: 0.6; stroke-width: 2"/>
    <path d="M 284.454545 497.48 
C 285.780561 497.48 287.052445 496.953168 287.990079 496.015534 
C 288.927714 495.077899 289.454545 493.806016 289.454545 492.48 
C 289.454545 491.153985 288.927714 489.882101 287.990079 488.944466 
C 287.052445 488.006832 285.780561 487.48 284.454545 487.48 
C 283.12853 487.48 281.856646 488.006832 280.919012 488.944466 
C 279.981377 489.882101 279.454545 491.153985 279.454545 492.48 
C 279.454545 493.806016 279.981377 495.077899 280.919012 496.015534 
C 281.856646 496.953168 283.12853 497.48 284.454545 497.48 
z
" clip-path="url(#pa68d2912dc)" style="fill: #00ffff; fill-opacity: 0.6; stroke: #ffffff; stroke-opacity: 0.6; stroke-width: 2"/>
    <path d="M 284.454545 363.08 
C 285.780561 363.08 287.052445 362.553168 287.990079 361.615534 
C 288.927714 360.677899 289.454545 359.406015 289.454545 358.08 
C 289.454545 356.753985 288.927714 355.482101 287.990079 354.544466 
C 287.052445 353.606832 285.780561 353.08 284.454545 353.08 
C 283.12853 353.08 281.856646 353.606832 280.919012 354.544466 
C 279.981377 355.482101 279.454545 356.753985 279.454545 358.08 
C 279.454545 359.406015 279.981377 360.677899 280.919012 361.615534 
C 281.856646 362.553168 283.12853 363.08 284.454545 363.08 
z
" clip-path="url(#pa68d2912dc)" style="fill: #0000ff; fill-opacity: 0.6; stroke: #ffffff; stroke-opacity: 0.6; stroke-width: 2"/>
    <path d="M 284.454545 371.308757 
C 287.962853 371.308757 291.327941 369.914891 293.808689 367.434143 
C 296.289437 364.953396 297.683302 361.588307 297.683302 358.08 
C 297.683302 354.571693 296.289437 351.206604 293.808689 348.725857 
C 291.327941 346.245109 287.962853 344.851243 284.454545 344.851243 
C 280.946238 344.851243 277.58115 346.245109 275.100402 348.725857 
C 272.619654 351.206604 271.225789 354.571693 271.225789 358.08 
C 271.225789 361.588307 272.619654 364.953396 275.100402 367.434143 
C 277.58115 369.914891 280.946238 371.308757 284.454545 371.308757 
z
" clip-path="url(#pa68d2912dc)" style="fill: #008000; fill-opacity: 0.6; stroke: #ffffff; stroke-opacity: 0.6; stroke-width: 2"/>
    <path d="M 284.454545 363.08 
C 285.780561 363.08 287.052445 362.553168 287.990079 361.615534 
C 288.927714 360.677899 289.454545 359.406015 289.454545 358.08 
C 289.454545 356.753985 288.927714 355.482101 287.990079 354.544466 
C 287.052445 353.606832 285.780561 353.08 284.454545 353.08 
C 283.12853 353.08 281.856646 353.606832 280.919012 354.544466 
C 279.981377 355.482101 279.454545 356.753985 279.454545 358.08 
C 279.454545 359.406015 279.981377 360.677899 280.919012 361.615534 
C 281.856646 362.553168 283.12853 363.08 284.454545 363.08 
z
" clip-path="url(#pa68d2912dc)" style="fill: #800080; fill-opacity: 0.6; stroke: #ffffff; stroke-opacity: 0.6; stroke-width: 2"/>
    <path d="M 284.454545 228.68 
C 285.780561 228.68 287.052445 228.153168 287.990079 227.215534 
C 288.927714 226.277899 289.454545 225.006016 289.454545 223.68 
C 289.454545 222.353984 288.927714 221.082101 287.990079 220.144466 
C 287.052445 219.206832 285.780561 218.68 284.454545 218.68 
C 283.12853 218.68 281.856646 219.206832 280.919012 220.144466 
C 279.981377 221.082101 279.454545 222.353984 279.454545 223.68 
C 279.454545 225.006016 279.981377 226.277899 280.919012 227.215534 
C 281.856646 228.153168 283.12853 228.68 284.454545 228.68 
z
" clip-path="url(#pa68d2912dc)" style="fill: #008000; fill-opacity: 0.6; stroke: #ffffff; stroke-opacity: 0.6; stroke-width: 2"/>
    <path d="M 284.454545 228.68 
C 285.780561 228.68 287.052445 228.153168 287.990079 227.215534 
C 288.927714 226.277899 289.454545 225.006016 289.454545 223.68 
C 289.454545 222.353984 288.927714 221.082101 287.990079 220.144466 
C 287.052445 219.206832 285.780561 218.68 284.454545 218.68 
C 283.12853 218.68 281.856646 219.206832 280.919012 220.144466 
C 279.981377 221.082101 279.454545 222.353984 279.454545 223.68 
C 279.454545 225.006016 279.981377 226.277899 280.919012 227.215534 
C 281.856646 228.153168 283.12853 228.68 284.454545 228.68 
z
" clip-path="url(#pa68d2912dc)" style="fill: #00ffff; fill-opacity: 0.6; stroke: #ffffff; stroke-opacity: 0.6; stroke-width: 2"/>
    <path d="M 284.454545 94.28 
C 285.780561 94.28 287.052445 93.753168 287.990079 92.815534 
C 288.927714 91.877899 289.454545 90.606015 289.454545 89.28 
C 289.454545 87.953984 288.927714 86.682101 287.990079 85.744466 
C 287.052445 84.806832 285.780561 84.28 284.454545 84.28 
C 283.12853 84.28 281.856646 84.806832 280.919012 85.744466 
C 279.981377 86.682101 279.454545 87.953984 279.454545 89.28 
C 279.454545 90.606015 279.981377 91.877899 280.919012 92.815534 
C 281.856646 93.753168 283.12853 94.28 284.454545 94.28 
z
" clip-path="url(#pa68d2912dc)" style="fill: #008000; fill-opacity: 0.6; stroke: #ffffff; stroke-opacity: 0.6; stroke-width: 2"/>
    <path d="M 369 503.66034 
C 371.965061 503.66034 374.80908 502.482309 376.905694 500.385694 
C 379.002309 498.28908 380.18034 495.445061 380.18034 492.48 
C 380.18034 489.514939 379.002309 486.67092 376.905694 484.574306 
C 374.80908 482.477691 371.965061 481.29966 369 481.29966 
C 366.034939 481.29966 363.19092 482.477691 361.094306 484.574306 
C 358.997691 486.67092 357.81966 489.514939 357.81966 492.48 
C 357.81966 495.445061 358.997691 498.28908 361.094306 500.385694 
C 363.19092 502.482309 366.034939 503.66034 369 503.66034 
z
" clip-path="url(#pa68d2912dc)" style="fill: #0000ff; fill-opacity: 0.6; stroke: #ffffff; stroke-opacity: 0.6; stroke-width: 2"/>
    <path d="M 369 504.727449 
C 372.248061 504.727449 375.363528 503.43698 377.660254 501.140254 
C 379.95698 498.843528 381.247449 495.728061 381.247449 492.48 
C 381.247449 489.231939 379.95698 486.116472 377.660254 483.819746 
C 375.363528 481.52302 372.248061 480.232551 369 480.232551 
C 365.751939 480.232551 362.636472 481.52302 360.339746 483.819746 
C 358.04302 486.116472 356.752551 489.231939 356.752551 492.48 
C 356.752551 495.728061 358.04302 498.843528 360.339746 501.140254 
C 362.636472 503.43698 365.751939 504.727449 369 504.727449 
z
" clip-path="url(#pa68d2912dc)" style="fill: #008000; fill-opacity: 0.6; stroke: #ffffff; stroke-opacity: 0.6; stroke-width: 2"/>
    <path d="M 369 497.48 
C 370.326015 497.48 371.597899 496.953168 372.535534 496.015534 
C 373.473168 495.077899 374 493.806016 374 492.48 
C 374 491.153985 373.473168 489.882101 372.535534 488.944466 
C 371.597899 488.006832 370.326015 487.48 369 487.48 
C 367.673985 487.48 366.402101 488.006832 365.464466 488.944466 
C 364.526832 489.882101 364 491.153985 364 492.48 
C 364 493.806016 364.526832 495.077899 365.464466 496.015534 
C 366.402101 496.953168 367.673985 497.48 369 497.48 
z
" clip-path="url(#pa68d2912dc)" style="fill: #00ffff; fill-opacity: 0.6; stroke: #ffffff; stroke-opacity: 0.6; stroke-width: 2"/>
    <path d="M 369 368.08 
C 371.652031 368.08 374.195799 367.026337 376.071068 365.151068 
C 377.946337 363.275799 379 360.732031 379 358.08 
C 379 355.427969 377.946337 352.884201 376.071068 351.008932 
C 374.195799 349.133663 371.652031 348.08 369 348.08 
C 366.347969 348.08 363.804201 349.133663 361.928932 351.008932 
C 360.053663 352.884201 359 355.427969 359 358.08 
C 359 360.732031 360.053663 363.275799 361.928932 365.151068 
C 363.804201 367.026337 366.347969 368.08 369 368.08 
z
" clip-path="url(#pa68d2912dc)" style="fill: #0000ff; fill-opacity: 0.6; stroke: #ffffff; stroke-opacity: 0.6; stroke-width: 2"/>
    <path d="M 369 366.740254 
C 371.296726 366.740254 373.499694 365.827755 375.123724 364.203724 
C 376.747755 362.579694 377.660254 360.376726 377.660254 358.08 
C 377.660254 355.783274 376.747755 353.580306 375.123724 351.956276 
C 373.499694 350.332245 371.296726 349.419746 369 349.419746 
C 366.703274 349.419746 364.500306 350.332245 362.876276 351.956276 
C 361.252245 353.580306 360.339746 355.783274 360.339746 358.08 
C 360.339746 360.376726 361.252245 362.579694 362.876276 364.203724 
C 364.500306 365.827755 366.703274 366.740254 369 366.740254 
z
" clip-path="url(#pa68d2912dc)" style="fill: #008000; fill-opacity: 0.6; stroke: #ffffff; stroke-opacity: 0.6; stroke-width: 2"/>
    <path d="M 369 363.08 
C 370.326015 363.08 371.597899 362.553168 372.535534 361.615534 
C 373.473168 360.677899 374 359.406015 374 358.08 
C 374 356.753985 373.473168 355.482101 372.535534 354.544466 
C 371.597899 353.606832 370.326015 353.08 369 353.08 
C 367.673985 353.08 366.402101 353.606832 365.464466 354.544466 
C 364.526832 355.482101 364 356.753985 364 358.08 
C 364 359.406015 364.526832 360.677899 365.464466 361.615534 
C 366.402101 362.553168 367.673985 363.08 369 363.08 
z
" clip-path="url(#pa68d2912dc)" style="fill: #ff0000; fill-opacity: 0.6; stroke: #ffffff; stroke-opacity: 0.6; stroke-width: 2"/>
    <path d="M 369 366.740254 
C 371.296726 366.740254 373.499694 365.827755 375.123724 364.203724 
C 376.747755 362.579694 377.660254 360.376726 377.660254 358.08 
C 377.660254 355.783274 376.747755 353.580306 375.123724 351.956276 
C 373.499694 350.332245 371.296726 349.419746 369 349.419746 
C 366.703274 349.419746 364.500306 350.332245 362.876276 351.956276 
C 361.252245 353.580306 360.339746 355.783274 360.339746 358.08 
C 360.339746 360.376726 361.252245 362.579694 362.876276 364.203724 
C 364.500306 365.827755 366.703274 366.740254 369 366.740254 
z
" clip-path="url(#pa68d2912dc)" style="fill: #00ffff; fill-opacity: 0.6; stroke: #ffffff; stroke-opacity: 0.6; stroke-width: 2"/>
    <path d="M 369 230.751068 
C 370.875269 230.751068 372.673985 230.006016 374 228.68 
C 375.326015 227.353984 376.071068 225.555269 376.071068 223.68 
C 376.071068 221.804731 375.326015 220.006016 374 218.68 
C 372.673985 217.353984 370.875269 216.608932 369 216.608932 
C 367.124731 216.608932 365.326015 217.353984 364 218.68 
C 362.673985 220.006016 361.928932 221.804731 361.928932 223.68 
C 361.928932 225.555269 362.673985 227.353984 364 228.68 
C 365.326015 230.006016 367.124731 230.751068 369 230.751068 
z
" clip-path="url(#pa68d2912dc)" style="fill: #0000ff; fill-opacity: 0.6; stroke: #ffffff; stroke-opacity: 0.6; stroke-width: 2"/>
    <path d="M 369 228.68 
C 370.326015 228.68 371.597899 228.153168 372.535534 227.215534 
C 373.473168 226.277899 374 225.006016 374 223.68 
C 374 222.353984 373.473168 221.082101 372.535534 220.144466 
C 371.597899 219.206832 370.326015 218.68 369 218.68 
C 367.673985 218.68 366.402101 219.206832 365.464466 220.144466 
C 364.526832 221.082101 364 222.353984 364 223.68 
C 364 225.006016 364.526832 226.277899 365.464466 227.215534 
C 366.402101 228.153168 367.673985 228.68 369 228.68 
z
" clip-path="url(#pa68d2912dc)" style="fill: #00ffff; fill-opacity: 0.6; stroke: #ffffff; stroke-opacity: 0.6; stroke-width: 2"/>
    <path d="M 453.545455 499.551068 
C 455.420724 499.551068 457.219439 498.806016 458.545455 497.48 
C 459.87147 496.153985 460.616522 494.355269 460.616522 492.48 
C 460.616522 490.604731 459.87147 488.806016 458.545455 487.48 
C 457.219439 486.153985 455.420724 485.408932 453.545455 485.408932 
C 451.670185 485.408932 449.87147 486.153985 448.545455 487.48 
C 447.219439 488.806016 446.474387 490.604731 446.474387 492.48 
C 446.474387 494.355269 447.219439 496.153985 448.545455 497.48 
C 449.87147 498.806016 451.670185 499.551068 453.545455 499.551068 
z
" clip-path="url(#pa68d2912dc)" style="fill: #0000ff; fill-opacity: 0.6; stroke: #ffffff; stroke-opacity: 0.6; stroke-width: 2"/>
    <path d="M 453.545455 499.551068 
C 455.420724 499.551068 457.219439 498.806016 458.545455 497.48 
C 459.87147 496.153985 460.616522 494.355269 460.616522 492.48 
C 460.616522 490.604731 459.87147 488.806016 458.545455 487.48 
C 457.219439 486.153985 455.420724 485.408932 453.545455 485.408932 
C 451.670185 485.408932 449.87147 486.153985 448.545455 487.48 
C 447.219439 488.806016 446.474387 490.604731 446.474387 492.48 
C 446.474387 494.355269 447.219439 496.153985 448.545455 497.48 
C 449.87147 498.806016 451.670185 499.551068 453.545455 499.551068 
z
" clip-path="url(#pa68d2912dc)" style="fill: #008000; fill-opacity: 0.6; stroke: #ffffff; stroke-opacity: 0.6; stroke-width: 2"/>
    <path d="M 453.545455 509.063124 
C 457.94335 509.063124 462.161712 507.315821 465.271494 504.206039 
C 468.381276 501.096257 470.128578 496.877896 470.128578 492.48 
C 470.128578 488.082104 468.381276 483.863743 465.271494 480.753961 
C 462.161712 477.644179 457.94335 475.896876 453.545455 475.896876 
C 449.147559 475.896876 444.929197 477.644179 441.819415 480.753961 
C 438.709633 483.863743 436.962331 488.082104 436.962331 492.48 
C 436.962331 496.877896 438.709633 501.096257 441.819415 504.206039 
C 444.929197 507.315821 449.147559 509.063124 453.545455 509.063124 
z
" clip-path="url(#pa68d2912dc)" style="fill: #00ffff; fill-opacity: 0.6; stroke: #ffffff; stroke-opacity: 0.6; stroke-width: 2"/>
    <path d="M 453.545455 363.08 
C 454.87147 363.08 456.143354 362.553168 457.080988 361.615534 
C 458.018623 360.677899 458.545455 359.406015 458.545455 358.08 
C 458.545455 356.753985 458.018623 355.482101 457.080988 354.544466 
C 456.143354 353.606832 454.87147 353.08 453.545455 353.08 
C 452.219439 353.08 450.947555 353.606832 450.009921 354.544466 
C 449.072286 355.482101 448.545455 356.753985 448.545455 358.08 
C 448.545455 359.406015 449.072286 360.677899 450.009921 361.615534 
C 450.947555 362.553168 452.219439 363.08 453.545455 363.08 
z
" clip-path="url(#pa68d2912dc)" style="fill: #0000ff; fill-opacity: 0.6; stroke: #ffffff; stroke-opacity: 0.6; stroke-width: 2"/>
    <path d="M 453.545455 363.08 
C 454.87147 363.08 456.143354 362.553168 457.080988 361.615534 
C 458.018623 360.677899 458.545455 359.406015 458.545455 358.08 
C 458.545455 356.753985 458.018623 355.482101 457.080988 354.544466 
C 456.143354 353.606832 454.87147 353.08 453.545455 353.08 
C 452.219439 353.08 450.947555 353.606832 450.009921 354.544466 
C 449.072286 355.482101 448.545455 356.753985 448.545455 358.08 
C 448.545455 359.406015 449.072286 360.677899 450.009921 361.615534 
C 450.947555 362.553168 452.219439 363.08 453.545455 363.08 
z
" clip-path="url(#pa68d2912dc)" style="fill: #008000; fill-opacity: 0.6; stroke: #ffffff; stroke-opacity: 0.6; stroke-width: 2"/>
    <path d="M 453.545455 363.08 
C 454.87147 363.08 456.143354 362.553168 457.080988 361.615534 
C 458.018623 360.677899 458.545455 359.406015 458.545455 358.08 
C 458.545455 356.753985 458.018623 355.482101 457.080988 354.544466 
C 456.143354 353.606832 454.87147 353.08 453.545455 353.08 
C 452.219439 353.08 450.947555 353.606832 450.009921 354.544466 
C 449.072286 355.482101 448.545455 356.753985 448.545455 358.08 
C 448.545455 359.406015 449.072286 360.677899 450.009921 361.615534 
C 450.947555 362.553168 452.219439 363.08 453.545455 363.08 
z
" clip-path="url(#pa68d2912dc)" style="fill: #ff0000; fill-opacity: 0.6; stroke: #ffffff; stroke-opacity: 0.6; stroke-width: 2"/>
    <path d="M 453.545455 366.740254 
C 455.842181 366.740254 458.045148 365.827755 459.669179 364.203724 
C 461.29321 362.579694 462.205709 360.376726 462.205709 358.08 
C 462.205709 355.783274 461.29321 353.580306 459.669179 351.956276 
C 458.045148 350.332245 455.842181 349.419746 453.545455 349.419746 
C 451.248728 349.419746 449.045761 350.332245 447.42173 351.956276 
C 445.7977 353.580306 444.885201 355.783274 444.885201 358.08 
C 444.885201 360.376726 445.7977 362.579694 447.42173 364.203724 
C 449.045761 365.827755 451.248728 366.740254 453.545455 366.740254 
z
" clip-path="url(#pa68d2912dc)" style="fill: #00ffff; fill-opacity: 0.6; stroke: #ffffff; stroke-opacity: 0.6; stroke-width: 2"/>
    <path d="M 453.545455 228.68 
C 454.87147 228.68 456.143354 228.153168 457.080988 227.215534 
C 458.018623 226.277899 458.545455 225.006016 458.545455 223.68 
C 458.545455 222.353984 458.018623 221.082101 457.080988 220.144466 
C 456.143354 219.206832 454.87147 218.68 453.545455 218.68 
C 452.219439 218.68 450.947555 219.206832 450.009921 220.144466 
C 449.072286 221.082101 448.545455 222.353984 448.545455 223.68 
C 448.545455 225.006016 449.072286 226.277899 450.009921 227.215534 
C 450.947555 228.153168 452.219439 228.68 453.545455 228.68 
z
" clip-path="url(#pa68d2912dc)" style="fill: #ff0000; fill-opacity: 0.6; stroke: #ffffff; stroke-opacity: 0.6; stroke-width: 2"/>
    <path d="M 453.545455 228.68 
C 454.87147 228.68 456.143354 228.153168 457.080988 227.215534 
C 458.018623 226.277899 458.545455 225.006016 458.545455 223.68 
C 458.545455 222.353984 458.018623 221.082101 457.080988 220.144466 
C 456.143354 219.206832 454.87147 218.68 453.545455 218.68 
C 452.219439 218.68 450.947555 219.206832 450.009921 220.144466 
C 449.072286 221.082101 448.545455 222.353984 448.545455 223.68 
C 448.545455 225.006016 449.072286 226.277899 450.009921 227.215534 
C 450.947555 228.153168 452.219439 228.68 453.545455 228.68 
z
" clip-path="url(#pa68d2912dc)" style="fill: #00ffff; fill-opacity: 0.6; stroke: #ffffff; stroke-opacity: 0.6; stroke-width: 2"/>
    <path d="M 453.545455 94.28 
C 454.87147 94.28 456.143354 93.753168 457.080988 92.815534 
C 458.018623 91.877899 458.545455 90.606015 458.545455 89.28 
C 458.545455 87.953984 458.018623 86.682101 457.080988 85.744466 
C 456.143354 84.806832 454.87147 84.28 453.545455 84.28 
C 452.219439 84.28 450.947555 84.806832 450.009921 85.744466 
C 449.072286 86.682101 448.545455 87.953984 448.545455 89.28 
C 448.545455 90.606015 449.072286 91.877899 450.009921 92.815534 
C 450.947555 93.753168 452.219439 94.28 453.545455 94.28 
z
" clip-path="url(#pa68d2912dc)" style="fill: #ff0000; fill-opacity: 0.6; stroke: #ffffff; stroke-opacity: 0.6; stroke-width: 2"/>
    <path d="M 538.090909 363.08 
C 539.416925 363.08 540.688808 362.553168 541.626443 361.615534 
C 542.564078 360.677899 543.090909 359.406015 543.090909 358.08 
C 543.090909 356.753985 542.564078 355.482101 541.626443 354.544466 
C 540.688808 353.606832 539.416925 353.08 538.090909 353.08 
C 536.764894 353.08 535.49301 353.606832 534.555375 354.544466 
C 533.617741 355.482101 533.090909 356.753985 533.090909 358.08 
C 533.090909 359.406015 533.617741 360.677899 534.555375 361.615534 
C 535.49301 362.553168 536.764894 363.08 538.090909 363.08 
z
" clip-path="url(#pa68d2912dc)" style="fill: #800080; fill-opacity: 0.6; stroke: #ffffff; stroke-opacity: 0.6; stroke-width: 2"/>
    <path d="M 538.090909 228.68 
C 539.416925 228.68 540.688808 228.153168 541.626443 227.215534 
C 542.564078 226.277899 543.090909 225.006016 543.090909 223.68 
C 543.090909 222.353984 542.564078 221.082101 541.626443 220.144466 
C 540.688808 219.206832 539.416925 218.68 538.090909 218.68 
C 536.764894 218.68 535.49301 219.206832 534.555375 220.144466 
C 533.617741 221.082101 533.090909 222.353984 533.090909 223.68 
C 533.090909 225.006016 533.617741 226.277899 534.555375 227.215534 
C 535.49301 228.153168 536.764894 228.68 538.090909 228.68 
z
" clip-path="url(#pa68d2912dc)" style="fill: #800080; fill-opacity: 0.6; stroke: #ffffff; stroke-opacity: 0.6; stroke-width: 2"/>
    <path d="M 538.090909 94.28 
C 539.416925 94.28 540.688808 93.753168 541.626443 92.815534 
C 542.564078 91.877899 543.090909 90.606015 543.090909 89.28 
C 543.090909 87.953984 542.564078 86.682101 541.626443 85.744466 
C 540.688808 84.806832 539.416925 84.28 538.090909 84.28 
C 536.764894 84.28 535.49301 84.806832 534.555375 85.744466 
C 533.617741 86.682101 533.090909 87.953984 533.090909 89.28 
C 533.090909 90.606015 533.617741 91.877899 534.555375 92.815534 
C 535.49301 93.753168 536.764894 94.28 538.090909 94.28 
z
" clip-path="url(#pa68d2912dc)" style="fill: #008000; fill-opacity: 0.6; stroke: #ffffff; stroke-opacity: 0.6; stroke-width: 2"/>
    <path d="M 622.636364 497.48 
C 623.962379 497.48 625.234263 496.953168 626.171898 496.015534 
C 627.109532 495.077899 627.636364 493.806016 627.636364 492.48 
C 627.636364 491.153985 627.109532 489.882101 626.171898 488.944466 
C 625.234263 488.006832 623.962379 487.48 622.636364 487.48 
C 621.310348 487.48 620.038464 488.006832 619.10083 488.944466 
C 618.163195 489.882101 617.636364 491.153985 617.636364 492.48 
C 617.636364 493.806016 618.163195 495.077899 619.10083 496.015534 
C 620.038464 496.953168 621.310348 497.48 622.636364 497.48 
z
" clip-path="url(#pa68d2912dc)" style="fill: #ff0000; fill-opacity: 0.6; stroke: #ffffff; stroke-opacity: 0.6; stroke-width: 2"/>
    <path d="M 622.636364 363.08 
C 623.962379 363.08 625.234263 362.553168 626.171898 361.615534 
C 627.109532 360.677899 627.636364 359.406015 627.636364 358.08 
C 627.636364 356.753985 627.109532 355.482101 626.171898 354.544466 
C 625.234263 353.606832 623.962379 353.08 622.636364 353.08 
C 621.310348 353.08 620.038464 353.606832 619.10083 354.544466 
C 618.163195 355.482101 617.636364 356.753985 617.636364 358.08 
C 617.636364 359.406015 618.163195 360.677899 619.10083 361.615534 
C 620.038464 362.553168 621.310348 363.08 622.636364 363.08 
z
" clip-path="url(#pa68d2912dc)" style="fill: #ff0000; fill-opacity: 0.6; stroke: #ffffff; stroke-opacity: 0.6; stroke-width: 2"/>
   </g>
   <g id="matplotlib.axis_1">
    <g id="xtick_1">
     <g id="line2d_1">
      <path d="M 115.363636 512.64 
L 115.363636 69.12 
" clip-path="url(#pa68d2912dc)" style="fill: none; stroke: #b0b0b0; stroke-width: 0.8; stroke-linecap: square"/>
     </g>
     <g id="line2d_2">
      <defs>
       <path id="m9f2df5e1e5" d="M 0 0 
L 0 3.5 
" style="stroke: #000000; stroke-width: 0.8"/>
      </defs>
      <g>
       <use xlink:href="#m9f2df5e1e5" x="115.363636" y="512.64" style="stroke: #000000; stroke-width: 0.8"/>
      </g>
     </g>
     <g id="text_1">
      <!-- Benchmarking -->
      <g transform="translate(79.152699 527.238438) scale(0.1 -0.1)">
       <defs>
        <path id="DejaVuSans-42" d="M 1259 2228 
L 1259 519 
L 2272 519 
Q 2781 519 3026 730 
Q 3272 941 3272 1375 
Q 3272 1813 3026 2020 
Q 2781 2228 2272 2228 
L 1259 2228 
z
M 1259 4147 
L 1259 2741 
L 2194 2741 
Q 2656 2741 2882 2914 
Q 3109 3088 3109 3444 
Q 3109 3797 2882 3972 
Q 2656 4147 2194 4147 
L 1259 4147 
z
M 628 4666 
L 2241 4666 
Q 2963 4666 3353 4366 
Q 3744 4066 3744 3513 
Q 3744 3084 3544 2831 
Q 3344 2578 2956 2516 
Q 3422 2416 3680 2098 
Q 3938 1781 3938 1306 
Q 3938 681 3513 340 
Q 3088 0 2303 0 
L 628 0 
L 628 4666 
z
" transform="scale(0.015625)"/>
        <path id="DejaVuSans-65" d="M 3597 1894 
L 3597 1613 
L 953 1613 
Q 991 1019 1311 708 
Q 1631 397 2203 397 
Q 2534 397 2845 478 
Q 3156 559 3463 722 
L 3463 178 
Q 3153 47 2828 -22 
Q 2503 -91 2169 -91 
Q 1331 -91 842 396 
Q 353 884 353 1716 
Q 353 2575 817 3079 
Q 1281 3584 2069 3584 
Q 2775 3584 3186 3129 
Q 3597 2675 3597 1894 
z
M 3022 2063 
Q 3016 2534 2758 2815 
Q 2500 3097 2075 3097 
Q 1594 3097 1305 2825 
Q 1016 2553 972 2059 
L 3022 2063 
z
" transform="scale(0.015625)"/>
        <path id="DejaVuSans-6e" d="M 3513 2113 
L 3513 0 
L 2938 0 
L 2938 2094 
Q 2938 2591 2744 2837 
Q 2550 3084 2163 3084 
Q 1697 3084 1428 2787 
Q 1159 2491 1159 1978 
L 1159 0 
L 581 0 
L 581 3500 
L 1159 3500 
L 1159 2956 
Q 1366 3272 1645 3428 
Q 1925 3584 2291 3584 
Q 2894 3584 3203 3211 
Q 3513 2838 3513 2113 
z
" transform="scale(0.015625)"/>
        <path id="DejaVuSans-63" d="M 3122 3366 
L 3122 2828 
Q 2878 2963 2633 3030 
Q 2388 3097 2138 3097 
Q 1578 3097 1268 2742 
Q 959 2388 959 1747 
Q 959 1106 1268 751 
Q 1578 397 2138 397 
Q 2388 397 2633 464 
Q 2878 531 3122 666 
L 3122 134 
Q 2881 22 2623 -34 
Q 2366 -91 2075 -91 
Q 1284 -91 818 406 
Q 353 903 353 1747 
Q 353 2603 823 3093 
Q 1294 3584 2113 3584 
Q 2378 3584 2631 3529 
Q 2884 3475 3122 3366 
z
" transform="scale(0.015625)"/>
        <path id="DejaVuSans-68" d="M 3513 2113 
L 3513 0 
L 2938 0 
L 2938 2094 
Q 2938 2591 2744 2837 
Q 2550 3084 2163 3084 
Q 1697 3084 1428 2787 
Q 1159 2491 1159 1978 
L 1159 0 
L 581 0 
L 581 4863 
L 1159 4863 
L 1159 2956 
Q 1366 3272 1645 3428 
Q 1925 3584 2291 3584 
Q 2894 3584 3203 3211 
Q 3513 2838 3513 2113 
z
" transform="scale(0.015625)"/>
        <path id="DejaVuSans-6d" d="M 3328 2828 
Q 3544 3216 3844 3400 
Q 4144 3584 4550 3584 
Q 5097 3584 5394 3201 
Q 5691 2819 5691 2113 
L 5691 0 
L 5113 0 
L 5113 2094 
Q 5113 2597 4934 2840 
Q 4756 3084 4391 3084 
Q 3944 3084 3684 2787 
Q 3425 2491 3425 1978 
L 3425 0 
L 2847 0 
L 2847 2094 
Q 2847 2600 2669 2842 
Q 2491 3084 2119 3084 
Q 1678 3084 1418 2786 
Q 1159 2488 1159 1978 
L 1159 0 
L 581 0 
L 581 3500 
L 1159 3500 
L 1159 2956 
Q 1356 3278 1631 3431 
Q 1906 3584 2284 3584 
Q 2666 3584 2933 3390 
Q 3200 3197 3328 2828 
z
" transform="scale(0.015625)"/>
        <path id="DejaVuSans-61" d="M 2194 1759 
Q 1497 1759 1228 1600 
Q 959 1441 959 1056 
Q 959 750 1161 570 
Q 1363 391 1709 391 
Q 2188 391 2477 730 
Q 2766 1069 2766 1631 
L 2766 1759 
L 2194 1759 
z
M 3341 1997 
L 3341 0 
L 2766 0 
L 2766 531 
Q 2569 213 2275 61 
Q 1981 -91 1556 -91 
Q 1019 -91 701 211 
Q 384 513 384 1019 
Q 384 1609 779 1909 
Q 1175 2209 1959 2209 
L 2766 2209 
L 2766 2266 
Q 2766 2663 2505 2880 
Q 2244 3097 1772 3097 
Q 1472 3097 1187 3025 
Q 903 2953 641 2809 
L 641 3341 
Q 956 3463 1253 3523 
Q 1550 3584 1831 3584 
Q 2591 3584 2966 3190 
Q 3341 2797 3341 1997 
z
" transform="scale(0.015625)"/>
        <path id="DejaVuSans-72" d="M 2631 2963 
Q 2534 3019 2420 3045 
Q 2306 3072 2169 3072 
Q 1681 3072 1420 2755 
Q 1159 2438 1159 1844 
L 1159 0 
L 581 0 
L 581 3500 
L 1159 3500 
L 1159 2956 
Q 1341 3275 1631 3429 
Q 1922 3584 2338 3584 
Q 2397 3584 2469 3576 
Q 2541 3569 2628 3553 
L 2631 2963 
z
" transform="scale(0.015625)"/>
        <path id="DejaVuSans-6b" d="M 581 4863 
L 1159 4863 
L 1159 1991 
L 2875 3500 
L 3609 3500 
L 1753 1863 
L 3688 0 
L 2938 0 
L 1159 1709 
L 1159 0 
L 581 0 
L 581 4863 
z
" transform="scale(0.015625)"/>
        <path id="DejaVuSans-69" d="M 603 3500 
L 1178 3500 
L 1178 0 
L 603 0 
L 603 3500 
z
M 603 4863 
L 1178 4863 
L 1178 4134 
L 603 4134 
L 603 4863 
z
" transform="scale(0.015625)"/>
        <path id="DejaVuSans-67" d="M 2906 1791 
Q 2906 2416 2648 2759 
Q 2391 3103 1925 3103 
Q 1463 3103 1205 2759 
Q 947 2416 947 1791 
Q 947 1169 1205 825 
Q 1463 481 1925 481 
Q 2391 481 2648 825 
Q 2906 1169 2906 1791 
z
M 3481 434 
Q 3481 -459 3084 -895 
Q 2688 -1331 1869 -1331 
Q 1566 -1331 1297 -1286 
Q 1028 -1241 775 -1147 
L 775 -588 
Q 1028 -725 1275 -790 
Q 1522 -856 1778 -856 
Q 2344 -856 2625 -561 
Q 2906 -266 2906 331 
L 2906 616 
Q 2728 306 2450 153 
Q 2172 0 1784 0 
Q 1141 0 747 490 
Q 353 981 353 1791 
Q 353 2603 747 3093 
Q 1141 3584 1784 3584 
Q 2172 3584 2450 3431 
Q 2728 3278 2906 2969 
L 2906 3500 
L 3481 3500 
L 3481 434 
z
" transform="scale(0.015625)"/>
       </defs>
       <use xlink:href="#DejaVuSans-42"/>
       <use xlink:href="#DejaVuSans-65" x="68.603516"/>
       <use xlink:href="#DejaVuSans-6e" x="130.126953"/>
       <use xlink:href="#DejaVuSans-63" x="193.505859"/>
       <use xlink:href="#DejaVuSans-68" x="248.486328"/>
       <use xlink:href="#DejaVuSans-6d" x="311.865234"/>
       <use xlink:href="#DejaVuSans-61" x="409.277344"/>
       <use xlink:href="#DejaVuSans-72" x="470.556641"/>
       <use xlink:href="#DejaVuSans-6b" x="511.669922"/>
       <use xlink:href="#DejaVuSans-69" x="569.580078"/>
       <use xlink:href="#DejaVuSans-6e" x="597.363281"/>
       <use xlink:href="#DejaVuSans-67" x="660.742188"/>
      </g>
     </g>
    </g>
    <g id="xtick_2">
     <g id="line2d_3">
      <path d="M 199.909091 512.64 
L 199.909091 69.12 
" clip-path="url(#pa68d2912dc)" style="fill: none; stroke: #b0b0b0; stroke-width: 0.8; stroke-linecap: square"/>
     </g>
     <g id="line2d_4">
      <g>
       <use xlink:href="#m9f2df5e1e5" x="199.909091" y="512.64" style="stroke: #000000; stroke-width: 0.8"/>
      </g>
     </g>
     <g id="text_2">
      <!-- Human Experimentation -->
      <g transform="translate(138.756747 527.238438) scale(0.1 -0.1)">
       <defs>
        <path id="DejaVuSans-48" d="M 628 4666 
L 1259 4666 
L 1259 2753 
L 3553 2753 
L 3553 4666 
L 4184 4666 
L 4184 0 
L 3553 0 
L 3553 2222 
L 1259 2222 
L 1259 0 
L 628 0 
L 628 4666 
z
" transform="scale(0.015625)"/>
        <path id="DejaVuSans-75" d="M 544 1381 
L 544 3500 
L 1119 3500 
L 1119 1403 
Q 1119 906 1312 657 
Q 1506 409 1894 409 
Q 2359 409 2629 706 
Q 2900 1003 2900 1516 
L 2900 3500 
L 3475 3500 
L 3475 0 
L 2900 0 
L 2900 538 
Q 2691 219 2414 64 
Q 2138 -91 1772 -91 
Q 1169 -91 856 284 
Q 544 659 544 1381 
z
M 1991 3584 
L 1991 3584 
z
" transform="scale(0.015625)"/>
        <path id="DejaVuSans-20" transform="scale(0.015625)"/>
        <path id="DejaVuSans-45" d="M 628 4666 
L 3578 4666 
L 3578 4134 
L 1259 4134 
L 1259 2753 
L 3481 2753 
L 3481 2222 
L 1259 2222 
L 1259 531 
L 3634 531 
L 3634 0 
L 628 0 
L 628 4666 
z
" transform="scale(0.015625)"/>
        <path id="DejaVuSans-78" d="M 3513 3500 
L 2247 1797 
L 3578 0 
L 2900 0 
L 1881 1375 
L 863 0 
L 184 0 
L 1544 1831 
L 300 3500 
L 978 3500 
L 1906 2253 
L 2834 3500 
L 3513 3500 
z
" transform="scale(0.015625)"/>
        <path id="DejaVuSans-70" d="M 1159 525 
L 1159 -1331 
L 581 -1331 
L 581 3500 
L 1159 3500 
L 1159 2969 
Q 1341 3281 1617 3432 
Q 1894 3584 2278 3584 
Q 2916 3584 3314 3078 
Q 3713 2572 3713 1747 
Q 3713 922 3314 415 
Q 2916 -91 2278 -91 
Q 1894 -91 1617 61 
Q 1341 213 1159 525 
z
M 3116 1747 
Q 3116 2381 2855 2742 
Q 2594 3103 2138 3103 
Q 1681 3103 1420 2742 
Q 1159 2381 1159 1747 
Q 1159 1113 1420 752 
Q 1681 391 2138 391 
Q 2594 391 2855 752 
Q 3116 1113 3116 1747 
z
" transform="scale(0.015625)"/>
        <path id="DejaVuSans-74" d="M 1172 4494 
L 1172 3500 
L 2356 3500 
L 2356 3053 
L 1172 3053 
L 1172 1153 
Q 1172 725 1289 603 
Q 1406 481 1766 481 
L 2356 481 
L 2356 0 
L 1766 0 
Q 1100 0 847 248 
Q 594 497 594 1153 
L 594 3053 
L 172 3053 
L 172 3500 
L 594 3500 
L 594 4494 
L 1172 4494 
z
" transform="scale(0.015625)"/>
        <path id="DejaVuSans-6f" d="M 1959 3097 
Q 1497 3097 1228 2736 
Q 959 2375 959 1747 
Q 959 1119 1226 758 
Q 1494 397 1959 397 
Q 2419 397 2687 759 
Q 2956 1122 2956 1747 
Q 2956 2369 2687 2733 
Q 2419 3097 1959 3097 
z
M 1959 3584 
Q 2709 3584 3137 3096 
Q 3566 2609 3566 1747 
Q 3566 888 3137 398 
Q 2709 -91 1959 -91 
Q 1206 -91 779 398 
Q 353 888 353 1747 
Q 353 2609 779 3096 
Q 1206 3584 1959 3584 
z
" transform="scale(0.015625)"/>
       </defs>
       <use xlink:href="#DejaVuSans-48"/>
       <use xlink:href="#DejaVuSans-75" x="75.195312"/>
       <use xlink:href="#DejaVuSans-6d" x="138.574219"/>
       <use xlink:href="#DejaVuSans-61" x="235.986328"/>
       <use xlink:href="#DejaVuSans-6e" x="297.265625"/>
       <use xlink:href="#DejaVuSans-20" x="360.644531"/>
       <use xlink:href="#DejaVuSans-45" x="392.431641"/>
       <use xlink:href="#DejaVuSans-78" x="455.615234"/>
       <use xlink:href="#DejaVuSans-70" x="514.794922"/>
       <use xlink:href="#DejaVuSans-65" x="578.271484"/>
       <use xlink:href="#DejaVuSans-72" x="639.794922"/>
       <use xlink:href="#DejaVuSans-69" x="680.908203"/>
       <use xlink:href="#DejaVuSans-6d" x="708.691406"/>
       <use xlink:href="#DejaVuSans-65" x="806.103516"/>
       <use xlink:href="#DejaVuSans-6e" x="867.626953"/>
       <use xlink:href="#DejaVuSans-74" x="931.005859"/>
       <use xlink:href="#DejaVuSans-61" x="970.214844"/>
       <use xlink:href="#DejaVuSans-74" x="1031.494141"/>
       <use xlink:href="#DejaVuSans-69" x="1070.703125"/>
       <use xlink:href="#DejaVuSans-6f" x="1098.486328"/>
       <use xlink:href="#DejaVuSans-6e" x="1159.667969"/>
      </g>
     </g>
    </g>
    <g id="xtick_3">
     <g id="line2d_5">
      <path d="M 284.454545 512.64 
L 284.454545 69.12 
" clip-path="url(#pa68d2912dc)" style="fill: none; stroke: #b0b0b0; stroke-width: 0.8; stroke-linecap: square"/>
     </g>
     <g id="line2d_6">
      <g>
       <use xlink:href="#m9f2df5e1e5" x="284.454545" y="512.64" style="stroke: #000000; stroke-width: 0.8"/>
      </g>
     </g>
     <g id="text_3">
      <!-- Interview -->
      <g transform="translate(261.204545 527.238438) scale(0.1 -0.1)">
       <defs>
        <path id="DejaVuSans-49" d="M 628 4666 
L 1259 4666 
L 1259 0 
L 628 0 
L 628 4666 
z
" transform="scale(0.015625)"/>
        <path id="DejaVuSans-76" d="M 191 3500 
L 800 3500 
L 1894 563 
L 2988 3500 
L 3597 3500 
L 2284 0 
L 1503 0 
L 191 3500 
z
" transform="scale(0.015625)"/>
        <path id="DejaVuSans-77" d="M 269 3500 
L 844 3500 
L 1563 769 
L 2278 3500 
L 2956 3500 
L 3675 769 
L 4391 3500 
L 4966 3500 
L 4050 0 
L 3372 0 
L 2619 2869 
L 1863 0 
L 1184 0 
L 269 3500 
z
" transform="scale(0.015625)"/>
       </defs>
       <use xlink:href="#DejaVuSans-49"/>
       <use xlink:href="#DejaVuSans-6e" x="29.492188"/>
       <use xlink:href="#DejaVuSans-74" x="92.871094"/>
       <use xlink:href="#DejaVuSans-65" x="132.080078"/>
       <use xlink:href="#DejaVuSans-72" x="193.603516"/>
       <use xlink:href="#DejaVuSans-76" x="234.716797"/>
       <use xlink:href="#DejaVuSans-69" x="293.896484"/>
       <use xlink:href="#DejaVuSans-65" x="321.679688"/>
       <use xlink:href="#DejaVuSans-77" x="383.203125"/>
      </g>
     </g>
    </g>
    <g id="xtick_4">
     <g id="line2d_7">
      <path d="M 369 512.64 
L 369 69.12 
" clip-path="url(#pa68d2912dc)" style="fill: none; stroke: #b0b0b0; stroke-width: 0.8; stroke-linecap: square"/>
     </g>
     <g id="line2d_8">
      <g>
       <use xlink:href="#m9f2df5e1e5" x="369" y="512.64" style="stroke: #000000; stroke-width: 0.8"/>
      </g>
     </g>
     <g id="text_4">
      <!-- Questionnaire -->
      <g transform="translate(333.995313 527.238438) scale(0.1 -0.1)">
       <defs>
        <path id="DejaVuSans-51" d="M 2522 4238 
Q 1834 4238 1429 3725 
Q 1025 3213 1025 2328 
Q 1025 1447 1429 934 
Q 1834 422 2522 422 
Q 3209 422 3611 934 
Q 4013 1447 4013 2328 
Q 4013 3213 3611 3725 
Q 3209 4238 2522 4238 
z
M 3406 84 
L 4238 -825 
L 3475 -825 
L 2784 -78 
Q 2681 -84 2626 -87 
Q 2572 -91 2522 -91 
Q 1538 -91 948 567 
Q 359 1225 359 2328 
Q 359 3434 948 4092 
Q 1538 4750 2522 4750 
Q 3503 4750 4090 4092 
Q 4678 3434 4678 2328 
Q 4678 1516 4351 937 
Q 4025 359 3406 84 
z
" transform="scale(0.015625)"/>
        <path id="DejaVuSans-73" d="M 2834 3397 
L 2834 2853 
Q 2591 2978 2328 3040 
Q 2066 3103 1784 3103 
Q 1356 3103 1142 2972 
Q 928 2841 928 2578 
Q 928 2378 1081 2264 
Q 1234 2150 1697 2047 
L 1894 2003 
Q 2506 1872 2764 1633 
Q 3022 1394 3022 966 
Q 3022 478 2636 193 
Q 2250 -91 1575 -91 
Q 1294 -91 989 -36 
Q 684 19 347 128 
L 347 722 
Q 666 556 975 473 
Q 1284 391 1588 391 
Q 1994 391 2212 530 
Q 2431 669 2431 922 
Q 2431 1156 2273 1281 
Q 2116 1406 1581 1522 
L 1381 1569 
Q 847 1681 609 1914 
Q 372 2147 372 2553 
Q 372 3047 722 3315 
Q 1072 3584 1716 3584 
Q 2034 3584 2315 3537 
Q 2597 3491 2834 3397 
z
" transform="scale(0.015625)"/>
       </defs>
       <use xlink:href="#DejaVuSans-51"/>
       <use xlink:href="#DejaVuSans-75" x="78.710938"/>
       <use xlink:href="#DejaVuSans-65" x="142.089844"/>
       <use xlink:href="#DejaVuSans-73" x="203.613281"/>
       <use xlink:href="#DejaVuSans-74" x="255.712891"/>
       <use xlink:href="#DejaVuSans-69" x="294.921875"/>
       <use xlink:href="#DejaVuSans-6f" x="322.705078"/>
       <use xlink:href="#DejaVuSans-6e" x="383.886719"/>
       <use xlink:href="#DejaVuSans-6e" x="447.265625"/>
       <use xlink:href="#DejaVuSans-61" x="510.644531"/>
       <use xlink:href="#DejaVuSans-69" x="571.923828"/>
       <use xlink:href="#DejaVuSans-72" x="599.707031"/>
       <use xlink:href="#DejaVuSans-65" x="638.570312"/>
      </g>
     </g>
    </g>
    <g id="xtick_5">
     <g id="line2d_9">
      <path d="M 453.545455 512.64 
L 453.545455 69.12 
" clip-path="url(#pa68d2912dc)" style="fill: none; stroke: #b0b0b0; stroke-width: 0.8; stroke-linecap: square"/>
     </g>
     <g id="line2d_10">
      <g>
       <use xlink:href="#m9f2df5e1e5" x="453.545455" y="512.64" style="stroke: #000000; stroke-width: 0.8"/>
      </g>
     </g>
     <g id="text_5">
      <!-- Data Science -->
      <g transform="translate(420.634517 527.238438) scale(0.1 -0.1)">
       <defs>
        <path id="DejaVuSans-44" d="M 1259 4147 
L 1259 519 
L 2022 519 
Q 2988 519 3436 956 
Q 3884 1394 3884 2338 
Q 3884 3275 3436 3711 
Q 2988 4147 2022 4147 
L 1259 4147 
z
M 628 4666 
L 1925 4666 
Q 3281 4666 3915 4102 
Q 4550 3538 4550 2338 
Q 4550 1131 3912 565 
Q 3275 0 1925 0 
L 628 0 
L 628 4666 
z
" transform="scale(0.015625)"/>
        <path id="DejaVuSans-53" d="M 3425 4513 
L 3425 3897 
Q 3066 4069 2747 4153 
Q 2428 4238 2131 4238 
Q 1616 4238 1336 4038 
Q 1056 3838 1056 3469 
Q 1056 3159 1242 3001 
Q 1428 2844 1947 2747 
L 2328 2669 
Q 3034 2534 3370 2195 
Q 3706 1856 3706 1288 
Q 3706 609 3251 259 
Q 2797 -91 1919 -91 
Q 1588 -91 1214 -16 
Q 841 59 441 206 
L 441 856 
Q 825 641 1194 531 
Q 1563 422 1919 422 
Q 2459 422 2753 634 
Q 3047 847 3047 1241 
Q 3047 1584 2836 1778 
Q 2625 1972 2144 2069 
L 1759 2144 
Q 1053 2284 737 2584 
Q 422 2884 422 3419 
Q 422 4038 858 4394 
Q 1294 4750 2059 4750 
Q 2388 4750 2728 4690 
Q 3069 4631 3425 4513 
z
" transform="scale(0.015625)"/>
       </defs>
       <use xlink:href="#DejaVuSans-44"/>
       <use xlink:href="#DejaVuSans-61" x="77.001953"/>
       <use xlink:href="#DejaVuSans-74" x="138.28125"/>
       <use xlink:href="#DejaVuSans-61" x="177.490234"/>
       <use xlink:href="#DejaVuSans-20" x="238.769531"/>
       <use xlink:href="#DejaVuSans-53" x="270.556641"/>
       <use xlink:href="#DejaVuSans-63" x="334.033203"/>
       <use xlink:href="#DejaVuSans-69" x="389.013672"/>
       <use xlink:href="#DejaVuSans-65" x="416.796875"/>
       <use xlink:href="#DejaVuSans-6e" x="478.320312"/>
       <use xlink:href="#DejaVuSans-63" x="541.699219"/>
       <use xlink:href="#DejaVuSans-65" x="596.679688"/>
      </g>
     </g>
    </g>
    <g id="xtick_6">
     <g id="line2d_11">
      <path d="M 538.090909 512.64 
L 538.090909 69.12 
" clip-path="url(#pa68d2912dc)" style="fill: none; stroke: #b0b0b0; stroke-width: 0.8; stroke-linecap: square"/>
     </g>
     <g id="line2d_12">
      <g>
       <use xlink:href="#m9f2df5e1e5" x="538.090909" y="512.64" style="stroke: #000000; stroke-width: 0.8"/>
      </g>
     </g>
     <g id="text_6">
      <!-- Engineering Research -->
      <g transform="translate(483.569034 527.238438) scale(0.1 -0.1)">
       <defs>
        <path id="DejaVuSans-52" d="M 2841 2188 
Q 3044 2119 3236 1894 
Q 3428 1669 3622 1275 
L 4263 0 
L 3584 0 
L 2988 1197 
Q 2756 1666 2539 1819 
Q 2322 1972 1947 1972 
L 1259 1972 
L 1259 0 
L 628 0 
L 628 4666 
L 2053 4666 
Q 2853 4666 3247 4331 
Q 3641 3997 3641 3322 
Q 3641 2881 3436 2590 
Q 3231 2300 2841 2188 
z
M 1259 4147 
L 1259 2491 
L 2053 2491 
Q 2509 2491 2742 2702 
Q 2975 2913 2975 3322 
Q 2975 3731 2742 3939 
Q 2509 4147 2053 4147 
L 1259 4147 
z
" transform="scale(0.015625)"/>
       </defs>
       <use xlink:href="#DejaVuSans-45"/>
       <use xlink:href="#DejaVuSans-6e" x="63.183594"/>
       <use xlink:href="#DejaVuSans-67" x="126.5625"/>
       <use xlink:href="#DejaVuSans-69" x="190.039062"/>
       <use xlink:href="#DejaVuSans-6e" x="217.822266"/>
       <use xlink:href="#DejaVuSans-65" x="281.201172"/>
       <use xlink:href="#DejaVuSans-65" x="342.724609"/>
       <use xlink:href="#DejaVuSans-72" x="404.248047"/>
       <use xlink:href="#DejaVuSans-69" x="445.361328"/>
       <use xlink:href="#DejaVuSans-6e" x="473.144531"/>
       <use xlink:href="#DejaVuSans-67" x="536.523438"/>
       <use xlink:href="#DejaVuSans-20" x="600"/>
       <use xlink:href="#DejaVuSans-52" x="631.787109"/>
       <use xlink:href="#DejaVuSans-65" x="696.769531"/>
       <use xlink:href="#DejaVuSans-73" x="758.292969"/>
       <use xlink:href="#DejaVuSans-65" x="810.392578"/>
       <use xlink:href="#DejaVuSans-61" x="871.916016"/>
       <use xlink:href="#DejaVuSans-72" x="933.195312"/>
       <use xlink:href="#DejaVuSans-63" x="972.058594"/>
       <use xlink:href="#DejaVuSans-68" x="1027.039062"/>
      </g>
     </g>
    </g>
    <g id="xtick_7">
     <g id="line2d_13">
      <path d="M 622.636364 512.64 
L 622.636364 69.12 
" clip-path="url(#pa68d2912dc)" style="fill: none; stroke: #b0b0b0; stroke-width: 0.8; stroke-linecap: square"/>
     </g>
     <g id="line2d_14">
      <g>
       <use xlink:href="#m9f2df5e1e5" x="622.636364" y="512.64" style="stroke: #000000; stroke-width: 0.8"/>
      </g>
     </g>
     <g id="text_7">
      <!-- Meta Science -->
      <g transform="translate(589.248864 527.238438) scale(0.1 -0.1)">
       <defs>
        <path id="DejaVuSans-4d" d="M 628 4666 
L 1569 4666 
L 2759 1491 
L 3956 4666 
L 4897 4666 
L 4897 0 
L 4281 0 
L 4281 4097 
L 3078 897 
L 2444 897 
L 1241 4097 
L 1241 0 
L 628 0 
L 628 4666 
z
" transform="scale(0.015625)"/>
       </defs>
       <use xlink:href="#DejaVuSans-4d"/>
       <use xlink:href="#DejaVuSans-65" x="86.279297"/>
       <use xlink:href="#DejaVuSans-74" x="147.802734"/>
       <use xlink:href="#DejaVuSans-61" x="187.011719"/>
       <use xlink:href="#DejaVuSans-20" x="248.291016"/>
       <use xlink:href="#DejaVuSans-53" x="280.078125"/>
       <use xlink:href="#DejaVuSans-63" x="343.554688"/>
       <use xlink:href="#DejaVuSans-69" x="398.535156"/>
       <use xlink:href="#DejaVuSans-65" x="426.318359"/>
       <use xlink:href="#DejaVuSans-6e" x="487.841797"/>
       <use xlink:href="#DejaVuSans-63" x="551.220703"/>
       <use xlink:href="#DejaVuSans-65" x="606.201172"/>
      </g>
     </g>
    </g>
    <g id="text_8">
     <!-- strategy -->
     <g transform="translate(348.145312 540.916563) scale(0.1 -0.1)">
      <defs>
       <path id="DejaVuSans-79" d="M 2059 -325 
Q 1816 -950 1584 -1140 
Q 1353 -1331 966 -1331 
L 506 -1331 
L 506 -850 
L 844 -850 
Q 1081 -850 1212 -737 
Q 1344 -625 1503 -206 
L 1606 56 
L 191 3500 
L 800 3500 
L 1894 763 
L 2988 3500 
L 3597 3500 
L 2059 -325 
z
" transform="scale(0.015625)"/>
      </defs>
      <use xlink:href="#DejaVuSans-73"/>
      <use xlink:href="#DejaVuSans-74" x="52.099609"/>
      <use xlink:href="#DejaVuSans-72" x="91.308594"/>
      <use xlink:href="#DejaVuSans-61" x="132.421875"/>
      <use xlink:href="#DejaVuSans-74" x="193.701172"/>
      <use xlink:href="#DejaVuSans-65" x="232.910156"/>
      <use xlink:href="#DejaVuSans-67" x="294.433594"/>
      <use xlink:href="#DejaVuSans-79" x="357.910156"/>
     </g>
    </g>
   </g>
   <g id="matplotlib.axis_2">
    <g id="ytick_1">
     <g id="line2d_15">
      <path d="M 90 492.48 
L 648 492.48 
" clip-path="url(#pa68d2912dc)" style="fill: none; stroke: #b0b0b0; stroke-width: 0.8; stroke-linecap: square"/>
     </g>
     <g id="line2d_16">
      <defs>
       <path id="m9e4e91b1f0" d="M 0 0 
L -3.5 0 
" style="stroke: #000000; stroke-width: 0.8"/>
      </defs>
      <g>
       <use xlink:href="#m9e4e91b1f0" x="90" y="492.48" style="stroke: #000000; stroke-width: 0.8"/>
      </g>
     </g>
     <g id="text_9">
      <!-- Virtual Reality -->
      <g transform="translate(12.978125 496.279219) scale(0.1 -0.1)">
       <defs>
        <path id="DejaVuSans-56" d="M 1831 0 
L 50 4666 
L 709 4666 
L 2188 738 
L 3669 4666 
L 4325 4666 
L 2547 0 
L 1831 0 
z
" transform="scale(0.015625)"/>
        <path id="DejaVuSans-6c" d="M 603 4863 
L 1178 4863 
L 1178 0 
L 603 0 
L 603 4863 
z
" transform="scale(0.015625)"/>
       </defs>
       <use xlink:href="#DejaVuSans-56"/>
       <use xlink:href="#DejaVuSans-69" x="66.158203"/>
       <use xlink:href="#DejaVuSans-72" x="93.941406"/>
       <use xlink:href="#DejaVuSans-74" x="135.054688"/>
       <use xlink:href="#DejaVuSans-75" x="174.263672"/>
       <use xlink:href="#DejaVuSans-61" x="237.642578"/>
       <use xlink:href="#DejaVuSans-6c" x="298.921875"/>
       <use xlink:href="#DejaVuSans-20" x="326.705078"/>
       <use xlink:href="#DejaVuSans-52" x="358.492188"/>
       <use xlink:href="#DejaVuSans-65" x="423.474609"/>
       <use xlink:href="#DejaVuSans-61" x="484.998047"/>
       <use xlink:href="#DejaVuSans-6c" x="546.277344"/>
       <use xlink:href="#DejaVuSans-69" x="574.060547"/>
       <use xlink:href="#DejaVuSans-74" x="601.84375"/>
       <use xlink:href="#DejaVuSans-79" x="641.052734"/>
      </g>
     </g>
    </g>
    <g id="ytick_2">
     <g id="line2d_17">
      <path d="M 90 358.08 
L 648 358.08 
" clip-path="url(#pa68d2912dc)" style="fill: none; stroke: #b0b0b0; stroke-width: 0.8; stroke-linecap: square"/>
     </g>
     <g id="line2d_18">
      <g>
       <use xlink:href="#m9e4e91b1f0" x="90" y="358.08" style="stroke: #000000; stroke-width: 0.8"/>
      </g>
     </g>
     <g id="text_10">
      <!-- Augmented Reality -->
      <g transform="translate(-12.532813 361.879219) scale(0.1 -0.1)">
       <defs>
        <path id="DejaVuSans-41" d="M 2188 4044 
L 1331 1722 
L 3047 1722 
L 2188 4044 
z
M 1831 4666 
L 2547 4666 
L 4325 0 
L 3669 0 
L 3244 1197 
L 1141 1197 
L 716 0 
L 50 0 
L 1831 4666 
z
" transform="scale(0.015625)"/>
        <path id="DejaVuSans-64" d="M 2906 2969 
L 2906 4863 
L 3481 4863 
L 3481 0 
L 2906 0 
L 2906 525 
Q 2725 213 2448 61 
Q 2172 -91 1784 -91 
Q 1150 -91 751 415 
Q 353 922 353 1747 
Q 353 2572 751 3078 
Q 1150 3584 1784 3584 
Q 2172 3584 2448 3432 
Q 2725 3281 2906 2969 
z
M 947 1747 
Q 947 1113 1208 752 
Q 1469 391 1925 391 
Q 2381 391 2643 752 
Q 2906 1113 2906 1747 
Q 2906 2381 2643 2742 
Q 2381 3103 1925 3103 
Q 1469 3103 1208 2742 
Q 947 2381 947 1747 
z
" transform="scale(0.015625)"/>
       </defs>
       <use xlink:href="#DejaVuSans-41"/>
       <use xlink:href="#DejaVuSans-75" x="68.408203"/>
       <use xlink:href="#DejaVuSans-67" x="131.787109"/>
       <use xlink:href="#DejaVuSans-6d" x="195.263672"/>
       <use xlink:href="#DejaVuSans-65" x="292.675781"/>
       <use xlink:href="#DejaVuSans-6e" x="354.199219"/>
       <use xlink:href="#DejaVuSans-74" x="417.578125"/>
       <use xlink:href="#DejaVuSans-65" x="456.787109"/>
       <use xlink:href="#DejaVuSans-64" x="518.310547"/>
       <use xlink:href="#DejaVuSans-20" x="581.787109"/>
       <use xlink:href="#DejaVuSans-52" x="613.574219"/>
       <use xlink:href="#DejaVuSans-65" x="678.556641"/>
       <use xlink:href="#DejaVuSans-61" x="740.080078"/>
       <use xlink:href="#DejaVuSans-6c" x="801.359375"/>
       <use xlink:href="#DejaVuSans-69" x="829.142578"/>
       <use xlink:href="#DejaVuSans-74" x="856.925781"/>
       <use xlink:href="#DejaVuSans-79" x="896.134766"/>
      </g>
     </g>
    </g>
    <g id="ytick_3">
     <g id="line2d_19">
      <path d="M 90 223.68 
L 648 223.68 
" clip-path="url(#pa68d2912dc)" style="fill: none; stroke: #b0b0b0; stroke-width: 0.8; stroke-linecap: square"/>
     </g>
     <g id="line2d_20">
      <g>
       <use xlink:href="#m9e4e91b1f0" x="90" y="223.68" style="stroke: #000000; stroke-width: 0.8"/>
      </g>
     </g>
     <g id="text_11">
      <!-- Mixed Reality -->
      <g transform="translate(16.132812 227.479219) scale(0.1 -0.1)">
       <use xlink:href="#DejaVuSans-4d"/>
       <use xlink:href="#DejaVuSans-69" x="86.279297"/>
       <use xlink:href="#DejaVuSans-78" x="114.0625"/>
       <use xlink:href="#DejaVuSans-65" x="170.117188"/>
       <use xlink:href="#DejaVuSans-64" x="231.640625"/>
       <use xlink:href="#DejaVuSans-20" x="295.117188"/>
       <use xlink:href="#DejaVuSans-52" x="326.904297"/>
       <use xlink:href="#DejaVuSans-65" x="391.886719"/>
       <use xlink:href="#DejaVuSans-61" x="453.410156"/>
       <use xlink:href="#DejaVuSans-6c" x="514.689453"/>
       <use xlink:href="#DejaVuSans-69" x="542.472656"/>
       <use xlink:href="#DejaVuSans-74" x="570.255859"/>
       <use xlink:href="#DejaVuSans-79" x="609.464844"/>
      </g>
     </g>
    </g>
    <g id="ytick_4">
     <g id="line2d_21">
      <path d="M 90 89.28 
L 648 89.28 
" clip-path="url(#pa68d2912dc)" style="fill: none; stroke: #b0b0b0; stroke-width: 0.8; stroke-linecap: square"/>
     </g>
     <g id="line2d_22">
      <g>
       <use xlink:href="#m9e4e91b1f0" x="90" y="89.28" style="stroke: #000000; stroke-width: 0.8"/>
      </g>
     </g>
     <g id="text_12">
      <!-- Extended Reality -->
      <g transform="translate(-1.851562 93.079219) scale(0.1 -0.1)">
       <use xlink:href="#DejaVuSans-45"/>
       <use xlink:href="#DejaVuSans-78" x="63.183594"/>
       <use xlink:href="#DejaVuSans-74" x="122.363281"/>
       <use xlink:href="#DejaVuSans-65" x="161.572266"/>
       <use xlink:href="#DejaVuSans-6e" x="223.095703"/>
       <use xlink:href="#DejaVuSans-64" x="286.474609"/>
       <use xlink:href="#DejaVuSans-65" x="349.951172"/>
       <use xlink:href="#DejaVuSans-64" x="411.474609"/>
       <use xlink:href="#DejaVuSans-20" x="474.951172"/>
       <use xlink:href="#DejaVuSans-52" x="506.738281"/>
       <use xlink:href="#DejaVuSans-65" x="571.720703"/>
       <use xlink:href="#DejaVuSans-61" x="633.244141"/>
       <use xlink:href="#DejaVuSans-6c" x="694.523438"/>
       <use xlink:href="#DejaVuSans-69" x="722.306641"/>
       <use xlink:href="#DejaVuSans-74" x="750.089844"/>
       <use xlink:href="#DejaVuSans-79" x="789.298828"/>
      </g>
     </g>
    </g>
    <g id="text_13">
     <!-- venue -->
     <g transform="translate(-18.6125 306.33) rotate(-90) scale(0.1 -0.1)">
      <use xlink:href="#DejaVuSans-76"/>
      <use xlink:href="#DejaVuSans-65" x="59.179688"/>
      <use xlink:href="#DejaVuSans-6e" x="120.703125"/>
      <use xlink:href="#DejaVuSans-75" x="184.082031"/>
      <use xlink:href="#DejaVuSans-65" x="247.460938"/>
     </g>
    </g>
   </g>
   <g id="patch_3">
    <path d="M 90 512.64 
L 90 69.12 
" style="fill: none; stroke: #000000; stroke-width: 0.8; stroke-linejoin: miter; stroke-linecap: square"/>
   </g>
   <g id="patch_4">
    <path d="M 648 512.64 
L 648 69.12 
" style="fill: none; stroke: #000000; stroke-width: 0.8; stroke-linejoin: miter; stroke-linecap: square"/>
   </g>
   <g id="patch_5">
    <path d="M 90 512.64 
L 648 512.64 
" style="fill: none; stroke: #000000; stroke-width: 0.8; stroke-linejoin: miter; stroke-linecap: square"/>
   </g>
   <g id="patch_6">
    <path d="M 90 69.12 
L 648 69.12 
" style="fill: none; stroke: #000000; stroke-width: 0.8; stroke-linejoin: miter; stroke-linecap: square"/>
   </g>
   <g id="text_14">
    <!-- Bubble Chart: strategy vs venue by papertype -->
    <g transform="translate(229.693125 63.12) scale(0.12 -0.12)">
     <defs>
      <path id="DejaVuSans-62" d="M 3116 1747 
Q 3116 2381 2855 2742 
Q 2594 3103 2138 3103 
Q 1681 3103 1420 2742 
Q 1159 2381 1159 1747 
Q 1159 1113 1420 752 
Q 1681 391 2138 391 
Q 2594 391 2855 752 
Q 3116 1113 3116 1747 
z
M 1159 2969 
Q 1341 3281 1617 3432 
Q 1894 3584 2278 3584 
Q 2916 3584 3314 3078 
Q 3713 2572 3713 1747 
Q 3713 922 3314 415 
Q 2916 -91 2278 -91 
Q 1894 -91 1617 61 
Q 1341 213 1159 525 
L 1159 0 
L 581 0 
L 581 4863 
L 1159 4863 
L 1159 2969 
z
" transform="scale(0.015625)"/>
      <path id="DejaVuSans-43" d="M 4122 4306 
L 4122 3641 
Q 3803 3938 3442 4084 
Q 3081 4231 2675 4231 
Q 1875 4231 1450 3742 
Q 1025 3253 1025 2328 
Q 1025 1406 1450 917 
Q 1875 428 2675 428 
Q 3081 428 3442 575 
Q 3803 722 4122 1019 
L 4122 359 
Q 3791 134 3420 21 
Q 3050 -91 2638 -91 
Q 1578 -91 968 557 
Q 359 1206 359 2328 
Q 359 3453 968 4101 
Q 1578 4750 2638 4750 
Q 3056 4750 3426 4639 
Q 3797 4528 4122 4306 
z
" transform="scale(0.015625)"/>
      <path id="DejaVuSans-3a" d="M 750 794 
L 1409 794 
L 1409 0 
L 750 0 
L 750 794 
z
M 750 3309 
L 1409 3309 
L 1409 2516 
L 750 2516 
L 750 3309 
z
" transform="scale(0.015625)"/>
     </defs>
     <use xlink:href="#DejaVuSans-42"/>
     <use xlink:href="#DejaVuSans-75" x="68.603516"/>
     <use xlink:href="#DejaVuSans-62" x="131.982422"/>
     <use xlink:href="#DejaVuSans-62" x="195.458984"/>
     <use xlink:href="#DejaVuSans-6c" x="258.935547"/>
     <use xlink:href="#DejaVuSans-65" x="286.71875"/>
     <use xlink:href="#DejaVuSans-20" x="348.242188"/>
     <use xlink:href="#DejaVuSans-43" x="380.029297"/>
     <use xlink:href="#DejaVuSans-68" x="449.853516"/>
     <use xlink:href="#DejaVuSans-61" x="513.232422"/>
     <use xlink:href="#DejaVuSans-72" x="574.511719"/>
     <use xlink:href="#DejaVuSans-74" x="615.625"/>
     <use xlink:href="#DejaVuSans-3a" x="654.833984"/>
     <use xlink:href="#DejaVuSans-20" x="688.525391"/>
     <use xlink:href="#DejaVuSans-73" x="720.3125"/>
     <use xlink:href="#DejaVuSans-74" x="772.412109"/>
     <use xlink:href="#DejaVuSans-72" x="811.621094"/>
     <use xlink:href="#DejaVuSans-61" x="852.734375"/>
     <use xlink:href="#DejaVuSans-74" x="914.013672"/>
     <use xlink:href="#DejaVuSans-65" x="953.222656"/>
     <use xlink:href="#DejaVuSans-67" x="1014.746094"/>
     <use xlink:href="#DejaVuSans-79" x="1078.222656"/>
     <use xlink:href="#DejaVuSans-20" x="1137.402344"/>
     <use xlink:href="#DejaVuSans-76" x="1169.189453"/>
     <use xlink:href="#DejaVuSans-73" x="1228.369141"/>
     <use xlink:href="#DejaVuSans-20" x="1280.46875"/>
     <use xlink:href="#DejaVuSans-76" x="1312.255859"/>
     <use xlink:href="#DejaVuSans-65" x="1371.435547"/>
     <use xlink:href="#DejaVuSans-6e" x="1432.958984"/>
     <use xlink:href="#DejaVuSans-75" x="1496.337891"/>
     <use xlink:href="#DejaVuSans-65" x="1559.716797"/>
     <use xlink:href="#DejaVuSans-20" x="1621.240234"/>
     <use xlink:href="#DejaVuSans-62" x="1653.027344"/>
     <use xlink:href="#DejaVuSans-79" x="1716.503906"/>
     <use xlink:href="#DejaVuSans-20" x="1775.683594"/>
     <use xlink:href="#DejaVuSans-70" x="1807.470703"/>
     <use xlink:href="#DejaVuSans-61" x="1870.947266"/>
     <use xlink:href="#DejaVuSans-70" x="1932.226562"/>
     <use xlink:href="#DejaVuSans-65" x="1995.703125"/>
     <use xlink:href="#DejaVuSans-72" x="2057.226562"/>
     <use xlink:href="#DejaVuSans-74" x="2098.339844"/>
     <use xlink:href="#DejaVuSans-79" x="2137.548828"/>
     <use xlink:href="#DejaVuSans-70" x="2196.728516"/>
     <use xlink:href="#DejaVuSans-65" x="2260.205078"/>
    </g>
   </g>
   <g id="legend_1">
    <g id="patch_7">
     <path d="M 553.125 165.18875 
L 641 165.18875 
Q 643 165.18875 643 163.18875 
L 643 76.12 
Q 643 74.12 641 74.12 
L 553.125 74.12 
Q 551.125 74.12 551.125 76.12 
L 551.125 163.18875 
Q 551.125 165.18875 553.125 165.18875 
z
" style="fill: #ffffff; opacity: 0.8; stroke: #cccccc; stroke-linejoin: miter"/>
    </g>
    <g id="text_15">
     <!-- Papertype -->
     <g transform="translate(571.732031 85.718438) scale(0.1 -0.1)">
      <defs>
       <path id="DejaVuSans-50" d="M 1259 4147 
L 1259 2394 
L 2053 2394 
Q 2494 2394 2734 2622 
Q 2975 2850 2975 3272 
Q 2975 3691 2734 3919 
Q 2494 4147 2053 4147 
L 1259 4147 
z
M 628 4666 
L 2053 4666 
Q 2838 4666 3239 4311 
Q 3641 3956 3641 3272 
Q 3641 2581 3239 2228 
Q 2838 1875 2053 1875 
L 1259 1875 
L 1259 0 
L 628 0 
L 628 4666 
z
" transform="scale(0.015625)"/>
      </defs>
      <use xlink:href="#DejaVuSans-50"/>
      <use xlink:href="#DejaVuSans-61" x="55.802734"/>
      <use xlink:href="#DejaVuSans-70" x="117.082031"/>
      <use xlink:href="#DejaVuSans-65" x="180.558594"/>
      <use xlink:href="#DejaVuSans-72" x="242.082031"/>
      <use xlink:href="#DejaVuSans-74" x="283.195312"/>
      <use xlink:href="#DejaVuSans-79" x="322.404297"/>
      <use xlink:href="#DejaVuSans-70" x="381.583984"/>
      <use xlink:href="#DejaVuSans-65" x="445.060547"/>
     </g>
    </g>
    <g id="line2d_23">
     <path d="M 555.125 96.896563 
L 565.125 96.896563 
L 575.125 96.896563 
" style="fill: none; stroke: #ffffff; stroke-width: 1.5; stroke-linecap: square"/>
     <defs>
      <path id="m770f21fcc6" d="M 0 5 
C 1.326016 5 2.597899 4.473168 3.535534 3.535534 
C 4.473168 2.597899 5 1.326016 5 0 
C 5 -1.326016 4.473168 -2.597899 3.535534 -3.535534 
C 2.597899 -4.473168 1.326016 -5 0 -5 
C -1.326016 -5 -2.597899 -4.473168 -3.535534 -3.535534 
C -4.473168 -2.597899 -5 -1.326016 -5 0 
C -5 1.326016 -4.473168 2.597899 -3.535534 3.535534 
C -2.597899 4.473168 -1.326016 5 0 5 
z
" style="stroke: #ffffff"/>
     </defs>
     <g>
      <use xlink:href="#m770f21fcc6" x="565.125" y="96.896563" style="fill: #0000ff; stroke: #ffffff"/>
     </g>
    </g>
    <g id="text_16">
     <!-- Application -->
     <g transform="translate(583.125 100.396563) scale(0.1 -0.1)">
      <use xlink:href="#DejaVuSans-41"/>
      <use xlink:href="#DejaVuSans-70" x="68.408203"/>
      <use xlink:href="#DejaVuSans-70" x="131.884766"/>
      <use xlink:href="#DejaVuSans-6c" x="195.361328"/>
      <use xlink:href="#DejaVuSans-69" x="223.144531"/>
      <use xlink:href="#DejaVuSans-63" x="250.927734"/>
      <use xlink:href="#DejaVuSans-61" x="305.908203"/>
      <use xlink:href="#DejaVuSans-74" x="367.1875"/>
      <use xlink:href="#DejaVuSans-69" x="406.396484"/>
      <use xlink:href="#DejaVuSans-6f" x="434.179688"/>
      <use xlink:href="#DejaVuSans-6e" x="495.361328"/>
     </g>
    </g>
    <g id="line2d_24">
     <path d="M 555.125 111.574688 
L 565.125 111.574688 
L 575.125 111.574688 
" style="fill: none; stroke: #ffffff; stroke-width: 1.5; stroke-linecap: square"/>
     <defs>
      <path id="mff47b90bf5" d="M 0 5 
C 1.326016 5 2.597899 4.473168 3.535534 3.535534 
C 4.473168 2.597899 5 1.326016 5 0 
C 5 -1.326016 4.473168 -2.597899 3.535534 -3.535534 
C 2.597899 -4.473168 1.326016 -5 0 -5 
C -1.326016 -5 -2.597899 -4.473168 -3.535534 -3.535534 
C -4.473168 -2.597899 -5 -1.326016 -5 0 
C -5 1.326016 -4.473168 2.597899 -3.535534 3.535534 
C -2.597899 4.473168 -1.326016 5 0 5 
z
" style="stroke: #ffffff"/>
     </defs>
     <g>
      <use xlink:href="#mff47b90bf5" x="565.125" y="111.574688" style="fill: #008000; stroke: #ffffff"/>
     </g>
    </g>
    <g id="text_17">
     <!-- Evaluation -->
     <g transform="translate(583.125 115.074688) scale(0.1 -0.1)">
      <use xlink:href="#DejaVuSans-45"/>
      <use xlink:href="#DejaVuSans-76" x="63.183594"/>
      <use xlink:href="#DejaVuSans-61" x="122.363281"/>
      <use xlink:href="#DejaVuSans-6c" x="183.642578"/>
      <use xlink:href="#DejaVuSans-75" x="211.425781"/>
      <use xlink:href="#DejaVuSans-61" x="274.804688"/>
      <use xlink:href="#DejaVuSans-74" x="336.083984"/>
      <use xlink:href="#DejaVuSans-69" x="375.292969"/>
      <use xlink:href="#DejaVuSans-6f" x="403.076172"/>
      <use xlink:href="#DejaVuSans-6e" x="464.257812"/>
     </g>
    </g>
    <g id="line2d_25">
     <path d="M 555.125 126.252813 
L 565.125 126.252813 
L 575.125 126.252813 
" style="fill: none; stroke: #ffffff; stroke-width: 1.5; stroke-linecap: square"/>
     <defs>
      <path id="me5bac4ff58" d="M 0 5 
C 1.326016 5 2.597899 4.473168 3.535534 3.535534 
C 4.473168 2.597899 5 1.326016 5 0 
C 5 -1.326016 4.473168 -2.597899 3.535534 -3.535534 
C 2.597899 -4.473168 1.326016 -5 0 -5 
C -1.326016 -5 -2.597899 -4.473168 -3.535534 -3.535534 
C -4.473168 -2.597899 -5 -1.326016 -5 0 
C -5 1.326016 -4.473168 2.597899 -3.535534 3.535534 
C -2.597899 4.473168 -1.326016 5 0 5 
z
" style="stroke: #ffffff"/>
     </defs>
     <g>
      <use xlink:href="#me5bac4ff58" x="565.125" y="126.252813" style="fill: #ff0000; stroke: #ffffff"/>
     </g>
    </g>
    <g id="text_18">
     <!-- Model -->
     <g transform="translate(583.125 129.752813) scale(0.1 -0.1)">
      <use xlink:href="#DejaVuSans-4d"/>
      <use xlink:href="#DejaVuSans-6f" x="86.279297"/>
      <use xlink:href="#DejaVuSans-64" x="147.460938"/>
      <use xlink:href="#DejaVuSans-65" x="210.9375"/>
      <use xlink:href="#DejaVuSans-6c" x="272.460938"/>
     </g>
    </g>
    <g id="line2d_26">
     <path d="M 555.125 140.930938 
L 565.125 140.930938 
L 575.125 140.930938 
" style="fill: none; stroke: #ffffff; stroke-width: 1.5; stroke-linecap: square"/>
     <defs>
      <path id="m9a44638737" d="M 0 5 
C 1.326016 5 2.597899 4.473168 3.535534 3.535534 
C 4.473168 2.597899 5 1.326016 5 0 
C 5 -1.326016 4.473168 -2.597899 3.535534 -3.535534 
C 2.597899 -4.473168 1.326016 -5 0 -5 
C -1.326016 -5 -2.597899 -4.473168 -3.535534 -3.535534 
C -4.473168 -2.597899 -5 -1.326016 -5 0 
C -5 1.326016 -4.473168 2.597899 -3.535534 3.535534 
C -2.597899 4.473168 -1.326016 5 0 5 
z
" style="stroke: #ffffff"/>
     </defs>
     <g>
      <use xlink:href="#m9a44638737" x="565.125" y="140.930938" style="fill: #800080; stroke: #ffffff"/>
     </g>
    </g>
    <g id="text_19">
     <!-- System -->
     <g transform="translate(583.125 144.430938) scale(0.1 -0.1)">
      <use xlink:href="#DejaVuSans-53"/>
      <use xlink:href="#DejaVuSans-79" x="63.476562"/>
      <use xlink:href="#DejaVuSans-73" x="122.65625"/>
      <use xlink:href="#DejaVuSans-74" x="174.755859"/>
      <use xlink:href="#DejaVuSans-65" x="213.964844"/>
      <use xlink:href="#DejaVuSans-6d" x="275.488281"/>
     </g>
    </g>
    <g id="line2d_27">
     <path d="M 555.125 155.609063 
L 565.125 155.609063 
L 575.125 155.609063 
" style="fill: none; stroke: #ffffff; stroke-width: 1.5; stroke-linecap: square"/>
     <defs>
      <path id="ma223aea262" d="M 0 5 
C 1.326016 5 2.597899 4.473168 3.535534 3.535534 
C 4.473168 2.597899 5 1.326016 5 0 
C 5 -1.326016 4.473168 -2.597899 3.535534 -3.535534 
C 2.597899 -4.473168 1.326016 -5 0 -5 
C -1.326016 -5 -2.597899 -4.473168 -3.535534 -3.535534 
C -4.473168 -2.597899 -5 -1.326016 -5 0 
C -5 1.326016 -4.473168 2.597899 -3.535534 3.535534 
C -2.597899 4.473168 -1.326016 5 0 5 
z
" style="stroke: #ffffff"/>
     </defs>
     <g>
      <use xlink:href="#ma223aea262" x="565.125" y="155.609063" style="fill: #00ffff; stroke: #ffffff"/>
     </g>
    </g>
    <g id="text_20">
     <!-- Technique -->
     <g transform="translate(583.125 159.109063) scale(0.1 -0.1)">
      <defs>
       <path id="DejaVuSans-54" d="M -19 4666 
L 3928 4666 
L 3928 4134 
L 2272 4134 
L 2272 0 
L 1638 0 
L 1638 4134 
L -19 4134 
L -19 4666 
z
" transform="scale(0.015625)"/>
       <path id="DejaVuSans-71" d="M 947 1747 
Q 947 1113 1208 752 
Q 1469 391 1925 391 
Q 2381 391 2643 752 
Q 2906 1113 2906 1747 
Q 2906 2381 2643 2742 
Q 2381 3103 1925 3103 
Q 1469 3103 1208 2742 
Q 947 2381 947 1747 
z
M 2906 525 
Q 2725 213 2448 61 
Q 2172 -91 1784 -91 
Q 1150 -91 751 415 
Q 353 922 353 1747 
Q 353 2572 751 3078 
Q 1150 3584 1784 3584 
Q 2172 3584 2448 3432 
Q 2725 3281 2906 2969 
L 2906 3500 
L 3481 3500 
L 3481 -1331 
L 2906 -1331 
L 2906 525 
z
" transform="scale(0.015625)"/>
      </defs>
      <use xlink:href="#DejaVuSans-54"/>
      <use xlink:href="#DejaVuSans-65" x="44.083984"/>
      <use xlink:href="#DejaVuSans-63" x="105.607422"/>
      <use xlink:href="#DejaVuSans-68" x="160.587891"/>
      <use xlink:href="#DejaVuSans-6e" x="223.966797"/>
      <use xlink:href="#DejaVuSans-69" x="287.345703"/>
      <use xlink:href="#DejaVuSans-71" x="315.128906"/>
      <use xlink:href="#DejaVuSans-75" x="378.605469"/>
      <use xlink:href="#DejaVuSans-65" x="441.984375"/>
     </g>
    </g>
   </g>
  </g>
 </g>
 <defs>
  <clipPath id="pa68d2912dc">
   <rect x="90" y="69.12" width="558" height="443.52"/>
  </clipPath>
 </defs>
</svg>
