<?xml version="1.0" encoding="utf-8" standalone="no"?>
<!DOCTYPE svg PUBLIC "-//W3C//DTD SVG 1.1//EN"
  "http://www.w3.org/Graphics/SVG/1.1/DTD/svg11.dtd">
<svg xmlns:xlink="http://www.w3.org/1999/xlink" width="720pt" height="576pt" viewBox="0 0 720 576" xmlns="http://www.w3.org/2000/svg" version="1.1">
 <metadata>
  <rdf:RDF xmlns:dc="http://purl.org/dc/elements/1.1/" xmlns:cc="http://creativecommons.org/ns#" xmlns:rdf="http://www.w3.org/1999/02/22-rdf-syntax-ns#">
   <cc:Work>
    <dc:type rdf:resource="http://purl.org/dc/dcmitype/StillImage"/>
    <dc:date>2024-09-02T12:50:18.895991</dc:date>
    <dc:format>image/svg+xml</dc:format>
    <dc:creator>
     <cc:Agent>
      <dc:title>Matplotlib v3.8.2, https://matplotlib.org/</dc:title>
     </cc:Agent>
    </dc:creator>
   </cc:Work>
  </rdf:RDF>
 </metadata>
 <defs>
  <style type="text/css">*{stroke-linejoin: round; stroke-linecap: butt}</style>
 </defs>
 <g id="figure_1">
  <g id="patch_1">
   <path d="M 0 576 
L 720 576 
L 720 0 
L 0 0 
z
" style="fill: #ffffff"/>
  </g>
  <g id="axes_1">
   <g id="patch_2">
    <path d="M 90 512.64 
L 648 512.64 
L 648 69.12 
L 90 69.12 
z
" style="fill: #ffffff"/>
   </g>
   <g id="PathCollection_1">
    <path d="M 115.363636 507.48 
C 119.341683 507.48 123.157334 505.899505 125.970238 503.086602 
C 128.783142 500.273698 130.363636 496.458047 130.363636 492.48 
C 130.363636 488.501954 128.783142 484.686302 125.970238 481.873398 
C 123.157334 479.060495 119.341683 477.48 115.363636 477.48 
C 111.38559 477.48 107.569938 479.060495 104.757035 481.873398 
C 101.944131 484.686302 100.363636 488.501954 100.363636 492.48 
C 100.363636 496.458047 101.944131 500.273698 104.757035 503.086602 
C 107.569938 505.899505 111.38559 507.48 115.363636 507.48 
z
" clip-path="url(#p0318407750)" style="fill: #0000ff; fill-opacity: 0.6; stroke: #ffffff; stroke-opacity: 0.6; stroke-width: 2"/>
    <path d="M 115.363636 503.66034 
C 118.328697 503.66034 121.172716 502.482309 123.269331 500.385694 
C 125.365945 498.28908 126.543976 495.445061 126.543976 492.48 
C 126.543976 489.514939 125.365945 486.67092 123.269331 484.574306 
C 121.172716 482.477691 118.328697 481.29966 115.363636 481.29966 
C 112.398576 481.29966 109.554557 482.477691 107.457942 484.574306 
C 105.361328 486.67092 104.183296 489.514939 104.183296 492.48 
C 104.183296 495.445061 105.361328 498.28908 107.457942 500.385694 
C 109.554557 502.482309 112.398576 503.66034 115.363636 503.66034 
z
" clip-path="url(#p0318407750)" style="fill: #008000; fill-opacity: 0.6; stroke: #ffffff; stroke-opacity: 0.6; stroke-width: 2"/>
    <path d="M 115.363636 499.551068 
C 117.238905 499.551068 119.037621 498.806016 120.363636 497.48 
C 121.689652 496.153985 122.434704 494.355269 122.434704 492.48 
C 122.434704 490.604731 121.689652 488.806016 120.363636 487.48 
C 119.037621 486.153985 117.238905 485.408932 115.363636 485.408932 
C 113.488367 485.408932 111.689652 486.153985 110.363636 487.48 
C 109.037621 488.806016 108.292569 490.604731 108.292569 492.48 
C 108.292569 494.355269 109.037621 496.153985 110.363636 497.48 
C 111.689652 498.806016 113.488367 499.551068 115.363636 499.551068 
z
" clip-path="url(#p0318407750)" style="fill: #ff0000; fill-opacity: 0.6; stroke: #ffffff; stroke-opacity: 0.6; stroke-width: 2"/>
    <path d="M 115.363636 499.551068 
C 117.238905 499.551068 119.037621 498.806016 120.363636 497.48 
C 121.689652 496.153985 122.434704 494.355269 122.434704 492.48 
C 122.434704 490.604731 121.689652 488.806016 120.363636 487.48 
C 119.037621 486.153985 117.238905 485.408932 115.363636 485.408932 
C 113.488367 485.408932 111.689652 486.153985 110.363636 487.48 
C 109.037621 488.806016 108.292569 490.604731 108.292569 492.48 
C 108.292569 494.355269 109.037621 496.153985 110.363636 497.48 
C 111.689652 498.806016 113.488367 499.551068 115.363636 499.551068 
z
" clip-path="url(#p0318407750)" style="fill: #800080; fill-opacity: 0.6; stroke: #ffffff; stroke-opacity: 0.6; stroke-width: 2"/>
    <path d="M 115.363636 412.893203 
C 120.989444 412.893203 126.38559 410.658047 130.363636 406.68 
C 134.341683 402.701954 136.57684 397.305807 136.57684 391.68 
C 136.57684 386.054193 134.341683 380.658047 130.363636 376.68 
C 126.38559 372.701954 120.989444 370.466797 115.363636 370.466797 
C 109.737829 370.466797 104.341683 372.701954 100.363636 376.68 
C 96.38559 380.658047 94.150433 386.054193 94.150433 391.68 
C 94.150433 397.305807 96.38559 402.701954 100.363636 406.68 
C 104.341683 410.658047 109.737829 412.893203 115.363636 412.893203 
z
" clip-path="url(#p0318407750)" style="fill: #0000ff; fill-opacity: 0.6; stroke: #ffffff; stroke-opacity: 0.6; stroke-width: 2"/>
    <path d="M 115.363636 402.86034 
C 118.328697 402.86034 121.172716 401.682309 123.269331 399.585694 
C 125.365945 397.48908 126.543976 394.645061 126.543976 391.68 
C 126.543976 388.714939 125.365945 385.87092 123.269331 383.774306 
C 121.172716 381.677691 118.328697 380.49966 115.363636 380.49966 
C 112.398576 380.49966 109.554557 381.677691 107.457942 383.774306 
C 105.361328 385.87092 104.183296 388.714939 104.183296 391.68 
C 104.183296 394.645061 105.361328 397.48908 107.457942 399.585694 
C 109.554557 401.682309 112.398576 402.86034 115.363636 402.86034 
z
" clip-path="url(#p0318407750)" style="fill: #008000; fill-opacity: 0.6; stroke: #ffffff; stroke-opacity: 0.6; stroke-width: 2"/>
    <path d="M 115.363636 398.751068 
C 117.238905 398.751068 119.037621 398.006015 120.363636 396.68 
C 121.689652 395.353985 122.434704 393.555269 122.434704 391.68 
C 122.434704 389.804731 121.689652 388.006015 120.363636 386.68 
C 119.037621 385.353985 117.238905 384.608932 115.363636 384.608932 
C 113.488367 384.608932 111.689652 385.353985 110.363636 386.68 
C 109.037621 388.006015 108.292569 389.804731 108.292569 391.68 
C 108.292569 393.555269 109.037621 395.353985 110.363636 396.68 
C 111.689652 398.006015 113.488367 398.751068 115.363636 398.751068 
z
" clip-path="url(#p0318407750)" style="fill: #ff0000; fill-opacity: 0.6; stroke: #ffffff; stroke-opacity: 0.6; stroke-width: 2"/>
    <path d="M 115.363636 398.751068 
C 117.238905 398.751068 119.037621 398.006015 120.363636 396.68 
C 121.689652 395.353985 122.434704 393.555269 122.434704 391.68 
C 122.434704 389.804731 121.689652 388.006015 120.363636 386.68 
C 119.037621 385.353985 117.238905 384.608932 115.363636 384.608932 
C 113.488367 384.608932 111.689652 385.353985 110.363636 386.68 
C 109.037621 388.006015 108.292569 389.804731 108.292569 391.68 
C 108.292569 393.555269 109.037621 395.353985 110.363636 396.68 
C 111.689652 398.006015 113.488367 398.751068 115.363636 398.751068 
z
" clip-path="url(#p0318407750)" style="fill: #800080; fill-opacity: 0.6; stroke: #ffffff; stroke-opacity: 0.6; stroke-width: 2"/>
    <path d="M 115.363636 295.88 
C 116.689652 295.88 117.961536 295.353168 118.89917 294.415534 
C 119.836805 293.477899 120.363636 292.206015 120.363636 290.88 
C 120.363636 289.553985 119.836805 288.282101 118.89917 287.344466 
C 117.961536 286.406832 116.689652 285.88 115.363636 285.88 
C 114.037621 285.88 112.765737 286.406832 111.828102 287.344466 
C 110.890468 288.282101 110.363636 289.553985 110.363636 290.88 
C 110.363636 292.206015 110.890468 293.477899 111.828102 294.415534 
C 112.765737 295.353168 114.037621 295.88 115.363636 295.88 
z
" clip-path="url(#p0318407750)" style="fill: #0000ff; fill-opacity: 0.6; stroke: #ffffff; stroke-opacity: 0.6; stroke-width: 2"/>
    <path d="M 115.363636 211.293203 
C 120.989444 211.293203 126.38559 209.058047 130.363636 205.08 
C 134.341683 201.101954 136.57684 195.705807 136.57684 190.08 
C 136.57684 184.454193 134.341683 179.058047 130.363636 175.08 
C 126.38559 171.101954 120.989444 168.866797 115.363636 168.866797 
C 109.737829 168.866797 104.341683 171.101954 100.363636 175.08 
C 96.38559 179.058047 94.150433 184.454193 94.150433 190.08 
C 94.150433 195.705807 96.38559 201.101954 100.363636 205.08 
C 104.341683 209.058047 109.737829 211.293203 115.363636 211.293203 
z
" clip-path="url(#p0318407750)" style="fill: #0000ff; fill-opacity: 0.6; stroke: #ffffff; stroke-opacity: 0.6; stroke-width: 2"/>
    <path d="M 115.363636 210.08 
C 120.667698 210.08 125.755234 207.972674 129.505772 204.222136 
C 133.25631 200.471597 135.363636 195.384062 135.363636 190.08 
C 135.363636 184.775938 133.25631 179.688403 129.505772 175.937864 
C 125.755234 172.187326 120.667698 170.08 115.363636 170.08 
C 110.059574 170.08 104.972039 172.187326 101.221501 175.937864 
C 97.470963 179.688403 95.363636 184.775938 95.363636 190.08 
C 95.363636 195.384062 97.470963 200.471597 101.221501 204.222136 
C 104.972039 207.972674 110.059574 210.08 115.363636 210.08 
z
" clip-path="url(#p0318407750)" style="fill: #008000; fill-opacity: 0.6; stroke: #ffffff; stroke-opacity: 0.6; stroke-width: 2"/>
    <path d="M 115.363636 200.08 
C 118.015667 200.08 120.559435 199.026337 122.434704 197.151068 
C 124.309973 195.275799 125.363636 192.732031 125.363636 190.08 
C 125.363636 187.427969 124.309973 184.884201 122.434704 183.008932 
C 120.559435 181.133663 118.015667 180.08 115.363636 180.08 
C 112.711605 180.08 110.167838 181.133663 108.292569 183.008932 
C 106.417299 184.884201 105.363636 187.427969 105.363636 190.08 
C 105.363636 192.732031 106.417299 195.275799 108.292569 197.151068 
C 110.167838 199.026337 112.711605 200.08 115.363636 200.08 
z
" clip-path="url(#p0318407750)" style="fill: #ff0000; fill-opacity: 0.6; stroke: #ffffff; stroke-opacity: 0.6; stroke-width: 2"/>
    <path d="M 115.363636 201.26034 
C 118.328697 201.26034 121.172716 200.082309 123.269331 197.985694 
C 125.365945 195.88908 126.543976 193.045061 126.543976 190.08 
C 126.543976 187.114939 125.365945 184.27092 123.269331 182.174306 
C 121.172716 180.077691 118.328697 178.89966 115.363636 178.89966 
C 112.398576 178.89966 109.554557 180.077691 107.457942 182.174306 
C 105.361328 184.27092 104.183296 187.114939 104.183296 190.08 
C 104.183296 193.045061 105.361328 195.88908 107.457942 197.985694 
C 109.554557 200.082309 112.398576 201.26034 115.363636 201.26034 
z
" clip-path="url(#p0318407750)" style="fill: #800080; fill-opacity: 0.6; stroke: #ffffff; stroke-opacity: 0.6; stroke-width: 2"/>
    <path d="M 284.454545 501.140254 
C 286.751272 501.140254 288.954239 500.227755 290.57827 498.603724 
C 292.2023 496.979694 293.114799 494.776726 293.114799 492.48 
C 293.114799 490.183274 292.2023 487.980306 290.57827 486.356276 
C 288.954239 484.732245 286.751272 483.819746 284.454545 483.819746 
C 282.157819 483.819746 279.954852 484.732245 278.330821 486.356276 
C 276.70679 487.980306 275.794291 490.183274 275.794291 492.48 
C 275.794291 494.776726 276.70679 496.979694 278.330821 498.603724 
C 279.954852 500.227755 282.157819 501.140254 284.454545 501.140254 
z
" clip-path="url(#p0318407750)" style="fill: #0000ff; fill-opacity: 0.6; stroke: #ffffff; stroke-opacity: 0.6; stroke-width: 2"/>
    <path d="M 284.454545 503.66034 
C 287.419606 503.66034 290.263625 502.482309 292.36024 500.385694 
C 294.456854 498.28908 295.634885 495.445061 295.634885 492.48 
C 295.634885 489.514939 294.456854 486.67092 292.36024 484.574306 
C 290.263625 482.477691 287.419606 481.29966 284.454545 481.29966 
C 281.489485 481.29966 278.645466 482.477691 276.548851 484.574306 
C 274.452237 486.67092 273.274206 489.514939 273.274206 492.48 
C 273.274206 495.445061 274.452237 498.28908 276.548851 500.385694 
C 278.645466 502.482309 281.489485 503.66034 284.454545 503.66034 
z
" clip-path="url(#p0318407750)" style="fill: #008000; fill-opacity: 0.6; stroke: #ffffff; stroke-opacity: 0.6; stroke-width: 2"/>
    <path d="M 284.454545 510.507756 
C 289.235562 510.507756 293.821405 508.608238 297.202094 505.227549 
C 300.582784 501.846859 302.482302 497.261017 302.482302 492.48 
C 302.482302 487.698983 300.582784 483.113141 297.202094 479.732451 
C 293.821405 476.351762 289.235562 474.452244 284.454545 474.452244 
C 279.673529 474.452244 275.087686 476.351762 271.706997 479.732451 
C 268.326307 483.113141 266.426789 487.698983 266.426789 492.48 
C 266.426789 497.261017 268.326307 501.846859 271.706997 505.227549 
C 275.087686 508.608238 279.673529 510.507756 284.454545 510.507756 
z
" clip-path="url(#p0318407750)" style="fill: #ff0000; fill-opacity: 0.6; stroke: #ffffff; stroke-opacity: 0.6; stroke-width: 2"/>
    <path d="M 284.454545 502.48 
C 287.106576 502.48 289.650344 501.426337 291.525613 499.551068 
C 293.400882 497.675799 294.454545 495.132031 294.454545 492.48 
C 294.454545 489.827969 293.400882 487.284201 291.525613 485.408932 
C 289.650344 483.533663 287.106576 482.48 284.454545 482.48 
C 281.802514 482.48 279.258747 483.533663 277.383478 485.408932 
C 275.508209 487.284201 274.454545 489.827969 274.454545 492.48 
C 274.454545 495.132031 275.508209 497.675799 277.383478 499.551068 
C 279.258747 501.426337 281.802514 502.48 284.454545 502.48 
z
" clip-path="url(#p0318407750)" style="fill: #800080; fill-opacity: 0.6; stroke: #ffffff; stroke-opacity: 0.6; stroke-width: 2"/>
    <path d="M 284.454545 398.751068 
C 286.329815 398.751068 288.12853 398.006015 289.454545 396.68 
C 290.780561 395.353985 291.525613 393.555269 291.525613 391.68 
C 291.525613 389.804731 290.780561 388.006015 289.454545 386.68 
C 288.12853 385.353985 286.329815 384.608932 284.454545 384.608932 
C 282.579276 384.608932 280.780561 385.353985 279.454545 386.68 
C 278.12853 388.006015 277.383478 389.804731 277.383478 391.68 
C 277.383478 393.555269 278.12853 395.353985 279.454545 396.68 
C 280.780561 398.006015 282.579276 398.751068 284.454545 398.751068 
z
" clip-path="url(#p0318407750)" style="fill: #0000ff; fill-opacity: 0.6; stroke: #ffffff; stroke-opacity: 0.6; stroke-width: 2"/>
    <path d="M 284.454545 402.86034 
C 287.419606 402.86034 290.263625 401.682309 292.36024 399.585694 
C 294.456854 397.48908 295.634885 394.645061 295.634885 391.68 
C 295.634885 388.714939 294.456854 385.87092 292.36024 383.774306 
C 290.263625 381.677691 287.419606 380.49966 284.454545 380.49966 
C 281.489485 380.49966 278.645466 381.677691 276.548851 383.774306 
C 274.452237 385.87092 273.274206 388.714939 273.274206 391.68 
C 273.274206 394.645061 274.452237 397.48908 276.548851 399.585694 
C 278.645466 401.682309 281.489485 402.86034 284.454545 402.86034 
z
" clip-path="url(#p0318407750)" style="fill: #008000; fill-opacity: 0.6; stroke: #ffffff; stroke-opacity: 0.6; stroke-width: 2"/>
    <path d="M 284.454545 408.263124 
C 288.852441 408.263124 293.070803 406.515821 296.180585 403.406039 
C 299.290367 400.296257 301.037669 396.077896 301.037669 391.68 
C 301.037669 387.282104 299.290367 383.063743 296.180585 379.953961 
C 293.070803 376.844179 288.852441 375.096876 284.454545 375.096876 
C 280.05665 375.096876 275.838288 376.844179 272.728506 379.953961 
C 269.618724 383.063743 267.871422 387.282104 267.871422 391.68 
C 267.871422 396.077896 269.618724 400.296257 272.728506 403.406039 
C 275.838288 406.515821 280.05665 408.263124 284.454545 408.263124 
z
" clip-path="url(#p0318407750)" style="fill: #ff0000; fill-opacity: 0.6; stroke: #ffffff; stroke-opacity: 0.6; stroke-width: 2"/>
    <path d="M 284.454545 398.751068 
C 286.329815 398.751068 288.12853 398.006015 289.454545 396.68 
C 290.780561 395.353985 291.525613 393.555269 291.525613 391.68 
C 291.525613 389.804731 290.780561 388.006015 289.454545 386.68 
C 288.12853 385.353985 286.329815 384.608932 284.454545 384.608932 
C 282.579276 384.608932 280.780561 385.353985 279.454545 386.68 
C 278.12853 388.006015 277.383478 389.804731 277.383478 391.68 
C 277.383478 393.555269 278.12853 395.353985 279.454545 396.68 
C 280.780561 398.006015 282.579276 398.751068 284.454545 398.751068 
z
" clip-path="url(#p0318407750)" style="fill: #800080; fill-opacity: 0.6; stroke: #ffffff; stroke-opacity: 0.6; stroke-width: 2"/>
    <path d="M 284.454545 295.88 
C 285.780561 295.88 287.052445 295.353168 287.990079 294.415534 
C 288.927714 293.477899 289.454545 292.206015 289.454545 290.88 
C 289.454545 289.553985 288.927714 288.282101 287.990079 287.344466 
C 287.052445 286.406832 285.780561 285.88 284.454545 285.88 
C 283.12853 285.88 281.856646 286.406832 280.919012 287.344466 
C 279.981377 288.282101 279.454545 289.553985 279.454545 290.88 
C 279.454545 292.206015 279.981377 293.477899 280.919012 294.415534 
C 281.856646 295.353168 283.12853 295.88 284.454545 295.88 
z
" clip-path="url(#p0318407750)" style="fill: #008000; fill-opacity: 0.6; stroke: #ffffff; stroke-opacity: 0.6; stroke-width: 2"/>
    <path d="M 284.454545 297.951068 
C 286.329815 297.951068 288.12853 297.206015 289.454545 295.88 
C 290.780561 294.553985 291.525613 292.755269 291.525613 290.88 
C 291.525613 289.004731 290.780561 287.206015 289.454545 285.88 
C 288.12853 284.553985 286.329815 283.808932 284.454545 283.808932 
C 282.579276 283.808932 280.780561 284.553985 279.454545 285.88 
C 278.12853 287.206015 277.383478 289.004731 277.383478 290.88 
C 277.383478 292.755269 278.12853 294.553985 279.454545 295.88 
C 280.780561 297.206015 282.579276 297.951068 284.454545 297.951068 
z
" clip-path="url(#p0318407750)" style="fill: #ff0000; fill-opacity: 0.6; stroke: #ffffff; stroke-opacity: 0.6; stroke-width: 2"/>
    <path d="M 284.454545 295.88 
C 285.780561 295.88 287.052445 295.353168 287.990079 294.415534 
C 288.927714 293.477899 289.454545 292.206015 289.454545 290.88 
C 289.454545 289.553985 288.927714 288.282101 287.990079 287.344466 
C 287.052445 286.406832 285.780561 285.88 284.454545 285.88 
C 283.12853 285.88 281.856646 286.406832 280.919012 287.344466 
C 279.981377 288.282101 279.454545 289.553985 279.454545 290.88 
C 279.454545 292.206015 279.981377 293.477899 280.919012 294.415534 
C 281.856646 295.353168 283.12853 295.88 284.454545 295.88 
z
" clip-path="url(#p0318407750)" style="fill: #800080; fill-opacity: 0.6; stroke: #ffffff; stroke-opacity: 0.6; stroke-width: 2"/>
    <path d="M 284.454545 94.28 
C 285.780561 94.28 287.052445 93.753168 287.990079 92.815534 
C 288.927714 91.877899 289.454545 90.606016 289.454545 89.28 
C 289.454545 87.953985 288.927714 86.682101 287.990079 85.744466 
C 287.052445 84.806832 285.780561 84.28 284.454545 84.28 
C 283.12853 84.28 281.856646 84.806832 280.919012 85.744466 
C 279.981377 86.682101 279.454545 87.953985 279.454545 89.28 
C 279.454545 90.606016 279.981377 91.877899 280.919012 92.815534 
C 281.856646 93.753168 283.12853 94.28 284.454545 94.28 
z
" clip-path="url(#p0318407750)" style="fill: #008000; fill-opacity: 0.6; stroke: #ffffff; stroke-opacity: 0.6; stroke-width: 2"/>
    <path d="M 284.454545 97.940254 
C 286.751272 97.940254 288.954239 97.027755 290.57827 95.403724 
C 292.2023 93.779694 293.114799 91.576726 293.114799 89.28 
C 293.114799 86.983274 292.2023 84.780306 290.57827 83.156276 
C 288.954239 81.532245 286.751272 80.619746 284.454545 80.619746 
C 282.157819 80.619746 279.954852 81.532245 278.330821 83.156276 
C 276.70679 84.780306 275.794291 86.983274 275.794291 89.28 
C 275.794291 91.576726 276.70679 93.779694 278.330821 95.403724 
C 279.954852 97.027755 282.157819 97.940254 284.454545 97.940254 
z
" clip-path="url(#p0318407750)" style="fill: #ff0000; fill-opacity: 0.6; stroke: #ffffff; stroke-opacity: 0.6; stroke-width: 2"/>
    <path d="M 284.454545 94.28 
C 285.780561 94.28 287.052445 93.753168 287.990079 92.815534 
C 288.927714 91.877899 289.454545 90.606016 289.454545 89.28 
C 289.454545 87.953985 288.927714 86.682101 287.990079 85.744466 
C 287.052445 84.806832 285.780561 84.28 284.454545 84.28 
C 283.12853 84.28 281.856646 84.806832 280.919012 85.744466 
C 279.981377 86.682101 279.454545 87.953985 279.454545 89.28 
C 279.454545 90.606016 279.981377 91.877899 280.919012 92.815534 
C 281.856646 93.753168 283.12853 94.28 284.454545 94.28 
z
" clip-path="url(#p0318407750)" style="fill: #800080; fill-opacity: 0.6; stroke: #ffffff; stroke-opacity: 0.6; stroke-width: 2"/>
    <path d="M 284.454545 200.08 
C 287.106576 200.08 289.650344 199.026337 291.525613 197.151068 
C 293.400882 195.275799 294.454545 192.732031 294.454545 190.08 
C 294.454545 187.427969 293.400882 184.884201 291.525613 183.008932 
C 289.650344 181.133663 287.106576 180.08 284.454545 180.08 
C 281.802514 180.08 279.258747 181.133663 277.383478 183.008932 
C 275.508209 184.884201 274.454545 187.427969 274.454545 190.08 
C 274.454545 192.732031 275.508209 195.275799 277.383478 197.151068 
C 279.258747 199.026337 281.802514 200.08 284.454545 200.08 
z
" clip-path="url(#p0318407750)" style="fill: #0000ff; fill-opacity: 0.6; stroke: #ffffff; stroke-opacity: 0.6; stroke-width: 2"/>
    <path d="M 284.454545 205.891388 
C 288.647775 205.891388 292.669825 204.225401 295.634885 201.26034 
C 298.599946 198.295279 300.265934 194.273229 300.265934 190.08 
C 300.265934 185.886771 298.599946 181.864721 295.634885 178.89966 
C 292.669825 175.934599 288.647775 174.268612 284.454545 174.268612 
C 280.261316 174.268612 276.239266 175.934599 273.274206 178.89966 
C 270.309145 181.864721 268.643157 185.886771 268.643157 190.08 
C 268.643157 194.273229 270.309145 198.295279 273.274206 201.26034 
C 276.239266 204.225401 280.261316 205.891388 284.454545 205.891388 
z
" clip-path="url(#p0318407750)" style="fill: #008000; fill-opacity: 0.6; stroke: #ffffff; stroke-opacity: 0.6; stroke-width: 2"/>
    <path d="M 284.454545 207.400508 
C 289.047998 207.400508 293.453933 205.57551 296.701994 202.327449 
C 299.950056 199.079387 301.775054 194.673452 301.775054 190.08 
C 301.775054 185.486548 299.950056 181.080613 296.701994 177.832551 
C 293.453933 174.58449 289.047998 172.759492 284.454545 172.759492 
C 279.861093 172.759492 275.455158 174.58449 272.207097 177.832551 
C 268.959035 181.080613 267.134037 185.486548 267.134037 190.08 
C 267.134037 194.673452 268.959035 199.079387 272.207097 202.327449 
C 275.455158 205.57551 279.861093 207.400508 284.454545 207.400508 
z
" clip-path="url(#p0318407750)" style="fill: #ff0000; fill-opacity: 0.6; stroke: #ffffff; stroke-opacity: 0.6; stroke-width: 2"/>
    <path d="M 284.454545 202.327449 
C 287.702607 202.327449 290.818073 201.03698 293.114799 198.740254 
C 295.411526 196.443528 296.701994 193.328061 296.701994 190.08 
C 296.701994 186.831939 295.411526 183.716472 293.114799 181.419746 
C 290.818073 179.12302 287.702607 177.832551 284.454545 177.832551 
C 281.206484 177.832551 278.091018 179.12302 275.794291 181.419746 
C 273.497565 183.716472 272.207097 186.831939 272.207097 190.08 
C 272.207097 193.328061 273.497565 196.443528 275.794291 198.740254 
C 278.091018 201.03698 281.206484 202.327449 284.454545 202.327449 
z
" clip-path="url(#p0318407750)" style="fill: #800080; fill-opacity: 0.6; stroke: #ffffff; stroke-opacity: 0.6; stroke-width: 2"/>
    <path d="M 453.545455 499.551068 
C 455.420724 499.551068 457.219439 498.806016 458.545455 497.48 
C 459.87147 496.153985 460.616522 494.355269 460.616522 492.48 
C 460.616522 490.604731 459.87147 488.806016 458.545455 487.48 
C 457.219439 486.153985 455.420724 485.408932 453.545455 485.408932 
C 451.670185 485.408932 449.87147 486.153985 448.545455 487.48 
C 447.219439 488.806016 446.474387 490.604731 446.474387 492.48 
C 446.474387 494.355269 447.219439 496.153985 448.545455 497.48 
C 449.87147 498.806016 451.670185 499.551068 453.545455 499.551068 
z
" clip-path="url(#p0318407750)" style="fill: #0000ff; fill-opacity: 0.6; stroke: #ffffff; stroke-opacity: 0.6; stroke-width: 2"/>
    <path d="M 453.545455 501.140254 
C 455.842181 501.140254 458.045148 500.227755 459.669179 498.603724 
C 461.29321 496.979694 462.205709 494.776726 462.205709 492.48 
C 462.205709 490.183274 461.29321 487.980306 459.669179 486.356276 
C 458.045148 484.732245 455.842181 483.819746 453.545455 483.819746 
C 451.248728 483.819746 449.045761 484.732245 447.42173 486.356276 
C 445.7977 487.980306 444.885201 490.183274 444.885201 492.48 
C 444.885201 494.776726 445.7977 496.979694 447.42173 498.603724 
C 449.045761 500.227755 451.248728 501.140254 453.545455 501.140254 
z
" clip-path="url(#p0318407750)" style="fill: #008000; fill-opacity: 0.6; stroke: #ffffff; stroke-opacity: 0.6; stroke-width: 2"/>
    <path d="M 453.545455 501.140254 
C 455.842181 501.140254 458.045148 500.227755 459.669179 498.603724 
C 461.29321 496.979694 462.205709 494.776726 462.205709 492.48 
C 462.205709 490.183274 461.29321 487.980306 459.669179 486.356276 
C 458.045148 484.732245 455.842181 483.819746 453.545455 483.819746 
C 451.248728 483.819746 449.045761 484.732245 447.42173 486.356276 
C 445.7977 487.980306 444.885201 490.183274 444.885201 492.48 
C 444.885201 494.776726 445.7977 496.979694 447.42173 498.603724 
C 449.045761 500.227755 451.248728 501.140254 453.545455 501.140254 
z
" clip-path="url(#p0318407750)" style="fill: #ff0000; fill-opacity: 0.6; stroke: #ffffff; stroke-opacity: 0.6; stroke-width: 2"/>
    <path d="M 453.545455 501.140254 
C 455.842181 501.140254 458.045148 500.227755 459.669179 498.603724 
C 461.29321 496.979694 462.205709 494.776726 462.205709 492.48 
C 462.205709 490.183274 461.29321 487.980306 459.669179 486.356276 
C 458.045148 484.732245 455.842181 483.819746 453.545455 483.819746 
C 451.248728 483.819746 449.045761 484.732245 447.42173 486.356276 
C 445.7977 487.980306 444.885201 490.183274 444.885201 492.48 
C 444.885201 494.776726 445.7977 496.979694 447.42173 498.603724 
C 449.045761 500.227755 451.248728 501.140254 453.545455 501.140254 
z
" clip-path="url(#p0318407750)" style="fill: #800080; fill-opacity: 0.6; stroke: #ffffff; stroke-opacity: 0.6; stroke-width: 2"/>
    <path d="M 453.545455 396.68 
C 454.87147 396.68 456.143354 396.153168 457.080988 395.215534 
C 458.018623 394.277899 458.545455 393.006015 458.545455 391.68 
C 458.545455 390.353985 458.018623 389.082101 457.080988 388.144466 
C 456.143354 387.206832 454.87147 386.68 453.545455 386.68 
C 452.219439 386.68 450.947555 387.206832 450.009921 388.144466 
C 449.072286 389.082101 448.545455 390.353985 448.545455 391.68 
C 448.545455 393.006015 449.072286 394.277899 450.009921 395.215534 
C 450.947555 396.153168 452.219439 396.68 453.545455 396.68 
z
" clip-path="url(#p0318407750)" style="fill: #800080; fill-opacity: 0.6; stroke: #ffffff; stroke-opacity: 0.6; stroke-width: 2"/>
    <path d="M 453.545455 295.88 
C 454.87147 295.88 456.143354 295.353168 457.080988 294.415534 
C 458.018623 293.477899 458.545455 292.206015 458.545455 290.88 
C 458.545455 289.553985 458.018623 288.282101 457.080988 287.344466 
C 456.143354 286.406832 454.87147 285.88 453.545455 285.88 
C 452.219439 285.88 450.947555 286.406832 450.009921 287.344466 
C 449.072286 288.282101 448.545455 289.553985 448.545455 290.88 
C 448.545455 292.206015 449.072286 293.477899 450.009921 294.415534 
C 450.947555 295.353168 452.219439 295.88 453.545455 295.88 
z
" clip-path="url(#p0318407750)" style="fill: #008000; fill-opacity: 0.6; stroke: #ffffff; stroke-opacity: 0.6; stroke-width: 2"/>
    <path d="M 453.545455 295.88 
C 454.87147 295.88 456.143354 295.353168 457.080988 294.415534 
C 458.018623 293.477899 458.545455 292.206015 458.545455 290.88 
C 458.545455 289.553985 458.018623 288.282101 457.080988 287.344466 
C 456.143354 286.406832 454.87147 285.88 453.545455 285.88 
C 452.219439 285.88 450.947555 286.406832 450.009921 287.344466 
C 449.072286 288.282101 448.545455 289.553985 448.545455 290.88 
C 448.545455 292.206015 449.072286 293.477899 450.009921 294.415534 
C 450.947555 295.353168 452.219439 295.88 453.545455 295.88 
z
" clip-path="url(#p0318407750)" style="fill: #ff0000; fill-opacity: 0.6; stroke: #ffffff; stroke-opacity: 0.6; stroke-width: 2"/>
    <path d="M 453.545455 295.88 
C 454.87147 295.88 456.143354 295.353168 457.080988 294.415534 
C 458.018623 293.477899 458.545455 292.206015 458.545455 290.88 
C 458.545455 289.553985 458.018623 288.282101 457.080988 287.344466 
C 456.143354 286.406832 454.87147 285.88 453.545455 285.88 
C 452.219439 285.88 450.947555 286.406832 450.009921 287.344466 
C 449.072286 288.282101 448.545455 289.553985 448.545455 290.88 
C 448.545455 292.206015 449.072286 293.477899 450.009921 294.415534 
C 450.947555 295.353168 452.219439 295.88 453.545455 295.88 
z
" clip-path="url(#p0318407750)" style="fill: #800080; fill-opacity: 0.6; stroke: #ffffff; stroke-opacity: 0.6; stroke-width: 2"/>
    <path d="M 453.545455 94.28 
C 454.87147 94.28 456.143354 93.753168 457.080988 92.815534 
C 458.018623 91.877899 458.545455 90.606016 458.545455 89.28 
C 458.545455 87.953985 458.018623 86.682101 457.080988 85.744466 
C 456.143354 84.806832 454.87147 84.28 453.545455 84.28 
C 452.219439 84.28 450.947555 84.806832 450.009921 85.744466 
C 449.072286 86.682101 448.545455 87.953985 448.545455 89.28 
C 448.545455 90.606016 449.072286 91.877899 450.009921 92.815534 
C 450.947555 93.753168 452.219439 94.28 453.545455 94.28 
z
" clip-path="url(#p0318407750)" style="fill: #ff0000; fill-opacity: 0.6; stroke: #ffffff; stroke-opacity: 0.6; stroke-width: 2"/>
    <path d="M 453.545455 94.28 
C 454.87147 94.28 456.143354 93.753168 457.080988 92.815534 
C 458.018623 91.877899 458.545455 90.606016 458.545455 89.28 
C 458.545455 87.953985 458.018623 86.682101 457.080988 85.744466 
C 456.143354 84.806832 454.87147 84.28 453.545455 84.28 
C 452.219439 84.28 450.947555 84.806832 450.009921 85.744466 
C 449.072286 86.682101 448.545455 87.953985 448.545455 89.28 
C 448.545455 90.606016 449.072286 91.877899 450.009921 92.815534 
C 450.947555 93.753168 452.219439 94.28 453.545455 94.28 
z
" clip-path="url(#p0318407750)" style="fill: #800080; fill-opacity: 0.6; stroke: #ffffff; stroke-opacity: 0.6; stroke-width: 2"/>
    <path d="M 453.545455 195.08 
C 454.87147 195.08 456.143354 194.553168 457.080988 193.615534 
C 458.018623 192.677899 458.545455 191.406016 458.545455 190.08 
C 458.545455 188.753985 458.018623 187.482101 457.080988 186.544466 
C 456.143354 185.606832 454.87147 185.08 453.545455 185.08 
C 452.219439 185.08 450.947555 185.606832 450.009921 186.544466 
C 449.072286 187.482101 448.545455 188.753985 448.545455 190.08 
C 448.545455 191.406016 449.072286 192.677899 450.009921 193.615534 
C 450.947555 194.553168 452.219439 195.08 453.545455 195.08 
z
" clip-path="url(#p0318407750)" style="fill: #0000ff; fill-opacity: 0.6; stroke: #ffffff; stroke-opacity: 0.6; stroke-width: 2"/>
    <path d="M 453.545455 198.740254 
C 455.842181 198.740254 458.045148 197.827755 459.669179 196.203724 
C 461.29321 194.579694 462.205709 192.376726 462.205709 190.08 
C 462.205709 187.783274 461.29321 185.580306 459.669179 183.956276 
C 458.045148 182.332245 455.842181 181.419746 453.545455 181.419746 
C 451.248728 181.419746 449.045761 182.332245 447.42173 183.956276 
C 445.7977 185.580306 444.885201 187.783274 444.885201 190.08 
C 444.885201 192.376726 445.7977 194.579694 447.42173 196.203724 
C 449.045761 197.827755 451.248728 198.740254 453.545455 198.740254 
z
" clip-path="url(#p0318407750)" style="fill: #008000; fill-opacity: 0.6; stroke: #ffffff; stroke-opacity: 0.6; stroke-width: 2"/>
    <path d="M 453.545455 197.151068 
C 455.420724 197.151068 457.219439 196.406016 458.545455 195.08 
C 459.87147 193.753985 460.616522 191.955269 460.616522 190.08 
C 460.616522 188.204731 459.87147 186.406016 458.545455 185.08 
C 457.219439 183.753985 455.420724 183.008932 453.545455 183.008932 
C 451.670185 183.008932 449.87147 183.753985 448.545455 185.08 
C 447.219439 186.406016 446.474387 188.204731 446.474387 190.08 
C 446.474387 191.955269 447.219439 193.753985 448.545455 195.08 
C 449.87147 196.406016 451.670185 197.151068 453.545455 197.151068 
z
" clip-path="url(#p0318407750)" style="fill: #ff0000; fill-opacity: 0.6; stroke: #ffffff; stroke-opacity: 0.6; stroke-width: 2"/>
    <path d="M 453.545455 200.08 
C 456.197486 200.08 458.741253 199.026337 460.616522 197.151068 
C 462.491791 195.275799 463.545455 192.732031 463.545455 190.08 
C 463.545455 187.427969 462.491791 184.884201 460.616522 183.008932 
C 458.741253 181.133663 456.197486 180.08 453.545455 180.08 
C 450.893424 180.08 448.349656 181.133663 446.474387 183.008932 
C 444.599118 184.884201 443.545455 187.427969 443.545455 190.08 
C 443.545455 192.732031 444.599118 195.275799 446.474387 197.151068 
C 448.349656 199.026337 450.893424 200.08 453.545455 200.08 
z
" clip-path="url(#p0318407750)" style="fill: #800080; fill-opacity: 0.6; stroke: #ffffff; stroke-opacity: 0.6; stroke-width: 2"/>
    <path d="M 622.636364 497.48 
C 623.962379 497.48 625.234263 496.953168 626.171898 496.015534 
C 627.109532 495.077899 627.636364 493.806016 627.636364 492.48 
C 627.636364 491.153985 627.109532 489.882101 626.171898 488.944466 
C 625.234263 488.006832 623.962379 487.48 622.636364 487.48 
C 621.310348 487.48 620.038464 488.006832 619.10083 488.944466 
C 618.163195 489.882101 617.636364 491.153985 617.636364 492.48 
C 617.636364 493.806016 618.163195 495.077899 619.10083 496.015534 
C 620.038464 496.953168 621.310348 497.48 622.636364 497.48 
z
" clip-path="url(#p0318407750)" style="fill: #0000ff; fill-opacity: 0.6; stroke: #ffffff; stroke-opacity: 0.6; stroke-width: 2"/>
    <path d="M 622.636364 497.48 
C 623.962379 497.48 625.234263 496.953168 626.171898 496.015534 
C 627.109532 495.077899 627.636364 493.806016 627.636364 492.48 
C 627.636364 491.153985 627.109532 489.882101 626.171898 488.944466 
C 625.234263 488.006832 623.962379 487.48 622.636364 487.48 
C 621.310348 487.48 620.038464 488.006832 619.10083 488.944466 
C 618.163195 489.882101 617.636364 491.153985 617.636364 492.48 
C 617.636364 493.806016 618.163195 495.077899 619.10083 496.015534 
C 620.038464 496.953168 621.310348 497.48 622.636364 497.48 
z
" clip-path="url(#p0318407750)" style="fill: #008000; fill-opacity: 0.6; stroke: #ffffff; stroke-opacity: 0.6; stroke-width: 2"/>
    <path d="M 622.636364 497.48 
C 623.962379 497.48 625.234263 496.953168 626.171898 496.015534 
C 627.109532 495.077899 627.636364 493.806016 627.636364 492.48 
C 627.636364 491.153985 627.109532 489.882101 626.171898 488.944466 
C 625.234263 488.006832 623.962379 487.48 622.636364 487.48 
C 621.310348 487.48 620.038464 488.006832 619.10083 488.944466 
C 618.163195 489.882101 617.636364 491.153985 617.636364 492.48 
C 617.636364 493.806016 618.163195 495.077899 619.10083 496.015534 
C 620.038464 496.953168 621.310348 497.48 622.636364 497.48 
z
" clip-path="url(#p0318407750)" style="fill: #ff0000; fill-opacity: 0.6; stroke: #ffffff; stroke-opacity: 0.6; stroke-width: 2"/>
    <path d="M 622.636364 497.48 
C 623.962379 497.48 625.234263 496.953168 626.171898 496.015534 
C 627.109532 495.077899 627.636364 493.806016 627.636364 492.48 
C 627.636364 491.153985 627.109532 489.882101 626.171898 488.944466 
C 625.234263 488.006832 623.962379 487.48 622.636364 487.48 
C 621.310348 487.48 620.038464 488.006832 619.10083 488.944466 
C 618.163195 489.882101 617.636364 491.153985 617.636364 492.48 
C 617.636364 493.806016 618.163195 495.077899 619.10083 496.015534 
C 620.038464 496.953168 621.310348 497.48 622.636364 497.48 
z
" clip-path="url(#p0318407750)" style="fill: #800080; fill-opacity: 0.6; stroke: #ffffff; stroke-opacity: 0.6; stroke-width: 2"/>
    <path d="M 622.636364 398.751068 
C 624.511633 398.751068 626.310348 398.006015 627.636364 396.68 
C 628.962379 395.353985 629.707431 393.555269 629.707431 391.68 
C 629.707431 389.804731 628.962379 388.006015 627.636364 386.68 
C 626.310348 385.353985 624.511633 384.608932 622.636364 384.608932 
C 620.761095 384.608932 618.962379 385.353985 617.636364 386.68 
C 616.310348 388.006015 615.565296 389.804731 615.565296 391.68 
C 615.565296 393.555269 616.310348 395.353985 617.636364 396.68 
C 618.962379 398.006015 620.761095 398.751068 622.636364 398.751068 
z
" clip-path="url(#p0318407750)" style="fill: #0000ff; fill-opacity: 0.6; stroke: #ffffff; stroke-opacity: 0.6; stroke-width: 2"/>
    <path d="M 622.636364 398.751068 
C 624.511633 398.751068 626.310348 398.006015 627.636364 396.68 
C 628.962379 395.353985 629.707431 393.555269 629.707431 391.68 
C 629.707431 389.804731 628.962379 388.006015 627.636364 386.68 
C 626.310348 385.353985 624.511633 384.608932 622.636364 384.608932 
C 620.761095 384.608932 618.962379 385.353985 617.636364 386.68 
C 616.310348 388.006015 615.565296 389.804731 615.565296 391.68 
C 615.565296 393.555269 616.310348 395.353985 617.636364 396.68 
C 618.962379 398.006015 620.761095 398.751068 622.636364 398.751068 
z
" clip-path="url(#p0318407750)" style="fill: #008000; fill-opacity: 0.6; stroke: #ffffff; stroke-opacity: 0.6; stroke-width: 2"/>
    <path d="M 622.636364 398.751068 
C 624.511633 398.751068 626.310348 398.006015 627.636364 396.68 
C 628.962379 395.353985 629.707431 393.555269 629.707431 391.68 
C 629.707431 389.804731 628.962379 388.006015 627.636364 386.68 
C 626.310348 385.353985 624.511633 384.608932 622.636364 384.608932 
C 620.761095 384.608932 618.962379 385.353985 617.636364 386.68 
C 616.310348 388.006015 615.565296 389.804731 615.565296 391.68 
C 615.565296 393.555269 616.310348 395.353985 617.636364 396.68 
C 618.962379 398.006015 620.761095 398.751068 622.636364 398.751068 
z
" clip-path="url(#p0318407750)" style="fill: #800080; fill-opacity: 0.6; stroke: #ffffff; stroke-opacity: 0.6; stroke-width: 2"/>
    <path d="M 622.636364 295.88 
C 623.962379 295.88 625.234263 295.353168 626.171898 294.415534 
C 627.109532 293.477899 627.636364 292.206015 627.636364 290.88 
C 627.636364 289.553985 627.109532 288.282101 626.171898 287.344466 
C 625.234263 286.406832 623.962379 285.88 622.636364 285.88 
C 621.310348 285.88 620.038464 286.406832 619.10083 287.344466 
C 618.163195 288.282101 617.636364 289.553985 617.636364 290.88 
C 617.636364 292.206015 618.163195 293.477899 619.10083 294.415534 
C 620.038464 295.353168 621.310348 295.88 622.636364 295.88 
z
" clip-path="url(#p0318407750)" style="fill: #0000ff; fill-opacity: 0.6; stroke: #ffffff; stroke-opacity: 0.6; stroke-width: 2"/>
    <path d="M 622.636364 295.88 
C 623.962379 295.88 625.234263 295.353168 626.171898 294.415534 
C 627.109532 293.477899 627.636364 292.206015 627.636364 290.88 
C 627.636364 289.553985 627.109532 288.282101 626.171898 287.344466 
C 625.234263 286.406832 623.962379 285.88 622.636364 285.88 
C 621.310348 285.88 620.038464 286.406832 619.10083 287.344466 
C 618.163195 288.282101 617.636364 289.553985 617.636364 290.88 
C 617.636364 292.206015 618.163195 293.477899 619.10083 294.415534 
C 620.038464 295.353168 621.310348 295.88 622.636364 295.88 
z
" clip-path="url(#p0318407750)" style="fill: #008000; fill-opacity: 0.6; stroke: #ffffff; stroke-opacity: 0.6; stroke-width: 2"/>
    <path d="M 622.636364 295.88 
C 623.962379 295.88 625.234263 295.353168 626.171898 294.415534 
C 627.109532 293.477899 627.636364 292.206015 627.636364 290.88 
C 627.636364 289.553985 627.109532 288.282101 626.171898 287.344466 
C 625.234263 286.406832 623.962379 285.88 622.636364 285.88 
C 621.310348 285.88 620.038464 286.406832 619.10083 287.344466 
C 618.163195 288.282101 617.636364 289.553985 617.636364 290.88 
C 617.636364 292.206015 618.163195 293.477899 619.10083 294.415534 
C 620.038464 295.353168 621.310348 295.88 622.636364 295.88 
z
" clip-path="url(#p0318407750)" style="fill: #800080; fill-opacity: 0.6; stroke: #ffffff; stroke-opacity: 0.6; stroke-width: 2"/>
    <path d="M 622.636364 94.28 
C 623.962379 94.28 625.234263 93.753168 626.171898 92.815534 
C 627.109532 91.877899 627.636364 90.606016 627.636364 89.28 
C 627.636364 87.953985 627.109532 86.682101 626.171898 85.744466 
C 625.234263 84.806832 623.962379 84.28 622.636364 84.28 
C 621.310348 84.28 620.038464 84.806832 619.10083 85.744466 
C 618.163195 86.682101 617.636364 87.953985 617.636364 89.28 
C 617.636364 90.606016 618.163195 91.877899 619.10083 92.815534 
C 620.038464 93.753168 621.310348 94.28 622.636364 94.28 
z
" clip-path="url(#p0318407750)" style="fill: #0000ff; fill-opacity: 0.6; stroke: #ffffff; stroke-opacity: 0.6; stroke-width: 2"/>
    <path d="M 622.636364 94.28 
C 623.962379 94.28 625.234263 93.753168 626.171898 92.815534 
C 627.109532 91.877899 627.636364 90.606016 627.636364 89.28 
C 627.636364 87.953985 627.109532 86.682101 626.171898 85.744466 
C 625.234263 84.806832 623.962379 84.28 622.636364 84.28 
C 621.310348 84.28 620.038464 84.806832 619.10083 85.744466 
C 618.163195 86.682101 617.636364 87.953985 617.636364 89.28 
C 617.636364 90.606016 618.163195 91.877899 619.10083 92.815534 
C 620.038464 93.753168 621.310348 94.28 622.636364 94.28 
z
" clip-path="url(#p0318407750)" style="fill: #008000; fill-opacity: 0.6; stroke: #ffffff; stroke-opacity: 0.6; stroke-width: 2"/>
    <path d="M 622.636364 94.28 
C 623.962379 94.28 625.234263 93.753168 626.171898 92.815534 
C 627.109532 91.877899 627.636364 90.606016 627.636364 89.28 
C 627.636364 87.953985 627.109532 86.682101 626.171898 85.744466 
C 625.234263 84.806832 623.962379 84.28 622.636364 84.28 
C 621.310348 84.28 620.038464 84.806832 619.10083 85.744466 
C 618.163195 86.682101 617.636364 87.953985 617.636364 89.28 
C 617.636364 90.606016 618.163195 91.877899 619.10083 92.815534 
C 620.038464 93.753168 621.310348 94.28 622.636364 94.28 
z
" clip-path="url(#p0318407750)" style="fill: #800080; fill-opacity: 0.6; stroke: #ffffff; stroke-opacity: 0.6; stroke-width: 2"/>
    <path d="M 622.636364 195.08 
C 623.962379 195.08 625.234263 194.553168 626.171898 193.615534 
C 627.109532 192.677899 627.636364 191.406016 627.636364 190.08 
C 627.636364 188.753985 627.109532 187.482101 626.171898 186.544466 
C 625.234263 185.606832 623.962379 185.08 622.636364 185.08 
C 621.310348 185.08 620.038464 185.606832 619.10083 186.544466 
C 618.163195 187.482101 617.636364 188.753985 617.636364 190.08 
C 617.636364 191.406016 618.163195 192.677899 619.10083 193.615534 
C 620.038464 194.553168 621.310348 195.08 622.636364 195.08 
z
" clip-path="url(#p0318407750)" style="fill: #0000ff; fill-opacity: 0.6; stroke: #ffffff; stroke-opacity: 0.6; stroke-width: 2"/>
    <path d="M 622.636364 195.08 
C 623.962379 195.08 625.234263 194.553168 626.171898 193.615534 
C 627.109532 192.677899 627.636364 191.406016 627.636364 190.08 
C 627.636364 188.753985 627.109532 187.482101 626.171898 186.544466 
C 625.234263 185.606832 623.962379 185.08 622.636364 185.08 
C 621.310348 185.08 620.038464 185.606832 619.10083 186.544466 
C 618.163195 187.482101 617.636364 188.753985 617.636364 190.08 
C 617.636364 191.406016 618.163195 192.677899 619.10083 193.615534 
C 620.038464 194.553168 621.310348 195.08 622.636364 195.08 
z
" clip-path="url(#p0318407750)" style="fill: #008000; fill-opacity: 0.6; stroke: #ffffff; stroke-opacity: 0.6; stroke-width: 2"/>
    <path d="M 622.636364 195.08 
C 623.962379 195.08 625.234263 194.553168 626.171898 193.615534 
C 627.109532 192.677899 627.636364 191.406016 627.636364 190.08 
C 627.636364 188.753985 627.109532 187.482101 626.171898 186.544466 
C 625.234263 185.606832 623.962379 185.08 622.636364 185.08 
C 621.310348 185.08 620.038464 185.606832 619.10083 186.544466 
C 618.163195 187.482101 617.636364 188.753985 617.636364 190.08 
C 617.636364 191.406016 618.163195 192.677899 619.10083 193.615534 
C 620.038464 194.553168 621.310348 195.08 622.636364 195.08 
z
" clip-path="url(#p0318407750)" style="fill: #800080; fill-opacity: 0.6; stroke: #ffffff; stroke-opacity: 0.6; stroke-width: 2"/>
   </g>
   <g id="matplotlib.axis_1">
    <g id="xtick_1">
     <g id="line2d_1">
      <path d="M 115.363636 512.64 
L 115.363636 69.12 
" clip-path="url(#p0318407750)" style="fill: none; stroke: #b0b0b0; stroke-width: 0.8; stroke-linecap: square"/>
     </g>
     <g id="line2d_2">
      <defs>
       <path id="m19f5522cd4" d="M 0 0 
L 0 3.5 
" style="stroke: #000000; stroke-width: 0.8"/>
      </defs>
      <g>
       <use xlink:href="#m19f5522cd4" x="115.363636" y="512.64" style="stroke: #000000; stroke-width: 0.8"/>
      </g>
     </g>
     <g id="text_1">
      <!-- Virtual Reality -->
      <g transform="translate(80.352699 527.238438) scale(0.1 -0.1)">
       <defs>
        <path id="DejaVuSans-56" d="M 1831 0 
L 50 4666 
L 709 4666 
L 2188 738 
L 3669 4666 
L 4325 4666 
L 2547 0 
L 1831 0 
z
" transform="scale(0.015625)"/>
        <path id="DejaVuSans-69" d="M 603 3500 
L 1178 3500 
L 1178 0 
L 603 0 
L 603 3500 
z
M 603 4863 
L 1178 4863 
L 1178 4134 
L 603 4134 
L 603 4863 
z
" transform="scale(0.015625)"/>
        <path id="DejaVuSans-72" d="M 2631 2963 
Q 2534 3019 2420 3045 
Q 2306 3072 2169 3072 
Q 1681 3072 1420 2755 
Q 1159 2438 1159 1844 
L 1159 0 
L 581 0 
L 581 3500 
L 1159 3500 
L 1159 2956 
Q 1341 3275 1631 3429 
Q 1922 3584 2338 3584 
Q 2397 3584 2469 3576 
Q 2541 3569 2628 3553 
L 2631 2963 
z
" transform="scale(0.015625)"/>
        <path id="DejaVuSans-74" d="M 1172 4494 
L 1172 3500 
L 2356 3500 
L 2356 3053 
L 1172 3053 
L 1172 1153 
Q 1172 725 1289 603 
Q 1406 481 1766 481 
L 2356 481 
L 2356 0 
L 1766 0 
Q 1100 0 847 248 
Q 594 497 594 1153 
L 594 3053 
L 172 3053 
L 172 3500 
L 594 3500 
L 594 4494 
L 1172 4494 
z
" transform="scale(0.015625)"/>
        <path id="DejaVuSans-75" d="M 544 1381 
L 544 3500 
L 1119 3500 
L 1119 1403 
Q 1119 906 1312 657 
Q 1506 409 1894 409 
Q 2359 409 2629 706 
Q 2900 1003 2900 1516 
L 2900 3500 
L 3475 3500 
L 3475 0 
L 2900 0 
L 2900 538 
Q 2691 219 2414 64 
Q 2138 -91 1772 -91 
Q 1169 -91 856 284 
Q 544 659 544 1381 
z
M 1991 3584 
L 1991 3584 
z
" transform="scale(0.015625)"/>
        <path id="DejaVuSans-61" d="M 2194 1759 
Q 1497 1759 1228 1600 
Q 959 1441 959 1056 
Q 959 750 1161 570 
Q 1363 391 1709 391 
Q 2188 391 2477 730 
Q 2766 1069 2766 1631 
L 2766 1759 
L 2194 1759 
z
M 3341 1997 
L 3341 0 
L 2766 0 
L 2766 531 
Q 2569 213 2275 61 
Q 1981 -91 1556 -91 
Q 1019 -91 701 211 
Q 384 513 384 1019 
Q 384 1609 779 1909 
Q 1175 2209 1959 2209 
L 2766 2209 
L 2766 2266 
Q 2766 2663 2505 2880 
Q 2244 3097 1772 3097 
Q 1472 3097 1187 3025 
Q 903 2953 641 2809 
L 641 3341 
Q 956 3463 1253 3523 
Q 1550 3584 1831 3584 
Q 2591 3584 2966 3190 
Q 3341 2797 3341 1997 
z
" transform="scale(0.015625)"/>
        <path id="DejaVuSans-6c" d="M 603 4863 
L 1178 4863 
L 1178 0 
L 603 0 
L 603 4863 
z
" transform="scale(0.015625)"/>
        <path id="DejaVuSans-20" transform="scale(0.015625)"/>
        <path id="DejaVuSans-52" d="M 2841 2188 
Q 3044 2119 3236 1894 
Q 3428 1669 3622 1275 
L 4263 0 
L 3584 0 
L 2988 1197 
Q 2756 1666 2539 1819 
Q 2322 1972 1947 1972 
L 1259 1972 
L 1259 0 
L 628 0 
L 628 4666 
L 2053 4666 
Q 2853 4666 3247 4331 
Q 3641 3997 3641 3322 
Q 3641 2881 3436 2590 
Q 3231 2300 2841 2188 
z
M 1259 4147 
L 1259 2491 
L 2053 2491 
Q 2509 2491 2742 2702 
Q 2975 2913 2975 3322 
Q 2975 3731 2742 3939 
Q 2509 4147 2053 4147 
L 1259 4147 
z
" transform="scale(0.015625)"/>
        <path id="DejaVuSans-65" d="M 3597 1894 
L 3597 1613 
L 953 1613 
Q 991 1019 1311 708 
Q 1631 397 2203 397 
Q 2534 397 2845 478 
Q 3156 559 3463 722 
L 3463 178 
Q 3153 47 2828 -22 
Q 2503 -91 2169 -91 
Q 1331 -91 842 396 
Q 353 884 353 1716 
Q 353 2575 817 3079 
Q 1281 3584 2069 3584 
Q 2775 3584 3186 3129 
Q 3597 2675 3597 1894 
z
M 3022 2063 
Q 3016 2534 2758 2815 
Q 2500 3097 2075 3097 
Q 1594 3097 1305 2825 
Q 1016 2553 972 2059 
L 3022 2063 
z
" transform="scale(0.015625)"/>
        <path id="DejaVuSans-79" d="M 2059 -325 
Q 1816 -950 1584 -1140 
Q 1353 -1331 966 -1331 
L 506 -1331 
L 506 -850 
L 844 -850 
Q 1081 -850 1212 -737 
Q 1344 -625 1503 -206 
L 1606 56 
L 191 3500 
L 800 3500 
L 1894 763 
L 2988 3500 
L 3597 3500 
L 2059 -325 
z
" transform="scale(0.015625)"/>
       </defs>
       <use xlink:href="#DejaVuSans-56"/>
       <use xlink:href="#DejaVuSans-69" x="66.158203"/>
       <use xlink:href="#DejaVuSans-72" x="93.941406"/>
       <use xlink:href="#DejaVuSans-74" x="135.054688"/>
       <use xlink:href="#DejaVuSans-75" x="174.263672"/>
       <use xlink:href="#DejaVuSans-61" x="237.642578"/>
       <use xlink:href="#DejaVuSans-6c" x="298.921875"/>
       <use xlink:href="#DejaVuSans-20" x="326.705078"/>
       <use xlink:href="#DejaVuSans-52" x="358.492188"/>
       <use xlink:href="#DejaVuSans-65" x="423.474609"/>
       <use xlink:href="#DejaVuSans-61" x="484.998047"/>
       <use xlink:href="#DejaVuSans-6c" x="546.277344"/>
       <use xlink:href="#DejaVuSans-69" x="574.060547"/>
       <use xlink:href="#DejaVuSans-74" x="601.84375"/>
       <use xlink:href="#DejaVuSans-79" x="641.052734"/>
      </g>
     </g>
    </g>
    <g id="xtick_2">
     <g id="line2d_3">
      <path d="M 284.454545 512.64 
L 284.454545 69.12 
" clip-path="url(#p0318407750)" style="fill: none; stroke: #b0b0b0; stroke-width: 0.8; stroke-linecap: square"/>
     </g>
     <g id="line2d_4">
      <g>
       <use xlink:href="#m19f5522cd4" x="284.454545" y="512.64" style="stroke: #000000; stroke-width: 0.8"/>
      </g>
     </g>
     <g id="text_2">
      <!-- Augmented Reality -->
      <g transform="translate(236.688139 527.238438) scale(0.1 -0.1)">
       <defs>
        <path id="DejaVuSans-41" d="M 2188 4044 
L 1331 1722 
L 3047 1722 
L 2188 4044 
z
M 1831 4666 
L 2547 4666 
L 4325 0 
L 3669 0 
L 3244 1197 
L 1141 1197 
L 716 0 
L 50 0 
L 1831 4666 
z
" transform="scale(0.015625)"/>
        <path id="DejaVuSans-67" d="M 2906 1791 
Q 2906 2416 2648 2759 
Q 2391 3103 1925 3103 
Q 1463 3103 1205 2759 
Q 947 2416 947 1791 
Q 947 1169 1205 825 
Q 1463 481 1925 481 
Q 2391 481 2648 825 
Q 2906 1169 2906 1791 
z
M 3481 434 
Q 3481 -459 3084 -895 
Q 2688 -1331 1869 -1331 
Q 1566 -1331 1297 -1286 
Q 1028 -1241 775 -1147 
L 775 -588 
Q 1028 -725 1275 -790 
Q 1522 -856 1778 -856 
Q 2344 -856 2625 -561 
Q 2906 -266 2906 331 
L 2906 616 
Q 2728 306 2450 153 
Q 2172 0 1784 0 
Q 1141 0 747 490 
Q 353 981 353 1791 
Q 353 2603 747 3093 
Q 1141 3584 1784 3584 
Q 2172 3584 2450 3431 
Q 2728 3278 2906 2969 
L 2906 3500 
L 3481 3500 
L 3481 434 
z
" transform="scale(0.015625)"/>
        <path id="DejaVuSans-6d" d="M 3328 2828 
Q 3544 3216 3844 3400 
Q 4144 3584 4550 3584 
Q 5097 3584 5394 3201 
Q 5691 2819 5691 2113 
L 5691 0 
L 5113 0 
L 5113 2094 
Q 5113 2597 4934 2840 
Q 4756 3084 4391 3084 
Q 3944 3084 3684 2787 
Q 3425 2491 3425 1978 
L 3425 0 
L 2847 0 
L 2847 2094 
Q 2847 2600 2669 2842 
Q 2491 3084 2119 3084 
Q 1678 3084 1418 2786 
Q 1159 2488 1159 1978 
L 1159 0 
L 581 0 
L 581 3500 
L 1159 3500 
L 1159 2956 
Q 1356 3278 1631 3431 
Q 1906 3584 2284 3584 
Q 2666 3584 2933 3390 
Q 3200 3197 3328 2828 
z
" transform="scale(0.015625)"/>
        <path id="DejaVuSans-6e" d="M 3513 2113 
L 3513 0 
L 2938 0 
L 2938 2094 
Q 2938 2591 2744 2837 
Q 2550 3084 2163 3084 
Q 1697 3084 1428 2787 
Q 1159 2491 1159 1978 
L 1159 0 
L 581 0 
L 581 3500 
L 1159 3500 
L 1159 2956 
Q 1366 3272 1645 3428 
Q 1925 3584 2291 3584 
Q 2894 3584 3203 3211 
Q 3513 2838 3513 2113 
z
" transform="scale(0.015625)"/>
        <path id="DejaVuSans-64" d="M 2906 2969 
L 2906 4863 
L 3481 4863 
L 3481 0 
L 2906 0 
L 2906 525 
Q 2725 213 2448 61 
Q 2172 -91 1784 -91 
Q 1150 -91 751 415 
Q 353 922 353 1747 
Q 353 2572 751 3078 
Q 1150 3584 1784 3584 
Q 2172 3584 2448 3432 
Q 2725 3281 2906 2969 
z
M 947 1747 
Q 947 1113 1208 752 
Q 1469 391 1925 391 
Q 2381 391 2643 752 
Q 2906 1113 2906 1747 
Q 2906 2381 2643 2742 
Q 2381 3103 1925 3103 
Q 1469 3103 1208 2742 
Q 947 2381 947 1747 
z
" transform="scale(0.015625)"/>
       </defs>
       <use xlink:href="#DejaVuSans-41"/>
       <use xlink:href="#DejaVuSans-75" x="68.408203"/>
       <use xlink:href="#DejaVuSans-67" x="131.787109"/>
       <use xlink:href="#DejaVuSans-6d" x="195.263672"/>
       <use xlink:href="#DejaVuSans-65" x="292.675781"/>
       <use xlink:href="#DejaVuSans-6e" x="354.199219"/>
       <use xlink:href="#DejaVuSans-74" x="417.578125"/>
       <use xlink:href="#DejaVuSans-65" x="456.787109"/>
       <use xlink:href="#DejaVuSans-64" x="518.310547"/>
       <use xlink:href="#DejaVuSans-20" x="581.787109"/>
       <use xlink:href="#DejaVuSans-52" x="613.574219"/>
       <use xlink:href="#DejaVuSans-65" x="678.556641"/>
       <use xlink:href="#DejaVuSans-61" x="740.080078"/>
       <use xlink:href="#DejaVuSans-6c" x="801.359375"/>
       <use xlink:href="#DejaVuSans-69" x="829.142578"/>
       <use xlink:href="#DejaVuSans-74" x="856.925781"/>
       <use xlink:href="#DejaVuSans-79" x="896.134766"/>
      </g>
     </g>
    </g>
    <g id="xtick_3">
     <g id="line2d_5">
      <path d="M 453.545455 512.64 
L 453.545455 69.12 
" clip-path="url(#p0318407750)" style="fill: none; stroke: #b0b0b0; stroke-width: 0.8; stroke-linecap: square"/>
     </g>
     <g id="line2d_6">
      <g>
       <use xlink:href="#m19f5522cd4" x="453.545455" y="512.64" style="stroke: #000000; stroke-width: 0.8"/>
      </g>
     </g>
     <g id="text_3">
      <!-- Mixed Reality -->
      <g transform="translate(420.111861 527.238438) scale(0.1 -0.1)">
       <defs>
        <path id="DejaVuSans-4d" d="M 628 4666 
L 1569 4666 
L 2759 1491 
L 3956 4666 
L 4897 4666 
L 4897 0 
L 4281 0 
L 4281 4097 
L 3078 897 
L 2444 897 
L 1241 4097 
L 1241 0 
L 628 0 
L 628 4666 
z
" transform="scale(0.015625)"/>
        <path id="DejaVuSans-78" d="M 3513 3500 
L 2247 1797 
L 3578 0 
L 2900 0 
L 1881 1375 
L 863 0 
L 184 0 
L 1544 1831 
L 300 3500 
L 978 3500 
L 1906 2253 
L 2834 3500 
L 3513 3500 
z
" transform="scale(0.015625)"/>
       </defs>
       <use xlink:href="#DejaVuSans-4d"/>
       <use xlink:href="#DejaVuSans-69" x="86.279297"/>
       <use xlink:href="#DejaVuSans-78" x="114.0625"/>
       <use xlink:href="#DejaVuSans-65" x="170.117188"/>
       <use xlink:href="#DejaVuSans-64" x="231.640625"/>
       <use xlink:href="#DejaVuSans-20" x="295.117188"/>
       <use xlink:href="#DejaVuSans-52" x="326.904297"/>
       <use xlink:href="#DejaVuSans-65" x="391.886719"/>
       <use xlink:href="#DejaVuSans-61" x="453.410156"/>
       <use xlink:href="#DejaVuSans-6c" x="514.689453"/>
       <use xlink:href="#DejaVuSans-69" x="542.472656"/>
       <use xlink:href="#DejaVuSans-74" x="570.255859"/>
       <use xlink:href="#DejaVuSans-79" x="609.464844"/>
      </g>
     </g>
    </g>
    <g id="xtick_4">
     <g id="line2d_7">
      <path d="M 622.636364 512.64 
L 622.636364 69.12 
" clip-path="url(#p0318407750)" style="fill: none; stroke: #b0b0b0; stroke-width: 0.8; stroke-linecap: square"/>
     </g>
     <g id="line2d_8">
      <g>
       <use xlink:href="#m19f5522cd4" x="622.636364" y="512.64" style="stroke: #000000; stroke-width: 0.8"/>
      </g>
     </g>
     <g id="text_4">
      <!-- Extended Reality -->
      <g transform="translate(580.210582 527.238438) scale(0.1 -0.1)">
       <defs>
        <path id="DejaVuSans-45" d="M 628 4666 
L 3578 4666 
L 3578 4134 
L 1259 4134 
L 1259 2753 
L 3481 2753 
L 3481 2222 
L 1259 2222 
L 1259 531 
L 3634 531 
L 3634 0 
L 628 0 
L 628 4666 
z
" transform="scale(0.015625)"/>
       </defs>
       <use xlink:href="#DejaVuSans-45"/>
       <use xlink:href="#DejaVuSans-78" x="63.183594"/>
       <use xlink:href="#DejaVuSans-74" x="122.363281"/>
       <use xlink:href="#DejaVuSans-65" x="161.572266"/>
       <use xlink:href="#DejaVuSans-6e" x="223.095703"/>
       <use xlink:href="#DejaVuSans-64" x="286.474609"/>
       <use xlink:href="#DejaVuSans-65" x="349.951172"/>
       <use xlink:href="#DejaVuSans-64" x="411.474609"/>
       <use xlink:href="#DejaVuSans-20" x="474.951172"/>
       <use xlink:href="#DejaVuSans-52" x="506.738281"/>
       <use xlink:href="#DejaVuSans-65" x="571.720703"/>
       <use xlink:href="#DejaVuSans-61" x="633.244141"/>
       <use xlink:href="#DejaVuSans-6c" x="694.523438"/>
       <use xlink:href="#DejaVuSans-69" x="722.306641"/>
       <use xlink:href="#DejaVuSans-74" x="750.089844"/>
       <use xlink:href="#DejaVuSans-79" x="789.298828"/>
      </g>
     </g>
    </g>
    <g id="text_5">
     <!-- reality -->
     <g transform="translate(353.21875 540.916563) scale(0.1 -0.1)">
      <use xlink:href="#DejaVuSans-72"/>
      <use xlink:href="#DejaVuSans-65" x="38.863281"/>
      <use xlink:href="#DejaVuSans-61" x="100.386719"/>
      <use xlink:href="#DejaVuSans-6c" x="161.666016"/>
      <use xlink:href="#DejaVuSans-69" x="189.449219"/>
      <use xlink:href="#DejaVuSans-74" x="217.232422"/>
      <use xlink:href="#DejaVuSans-79" x="256.441406"/>
     </g>
    </g>
   </g>
   <g id="matplotlib.axis_2">
    <g id="ytick_1">
     <g id="line2d_9">
      <path d="M 90 492.48 
L 648 492.48 
" clip-path="url(#p0318407750)" style="fill: none; stroke: #b0b0b0; stroke-width: 0.8; stroke-linecap: square"/>
     </g>
     <g id="line2d_10">
      <defs>
       <path id="mbddfd6da4f" d="M 0 0 
L -3.5 0 
" style="stroke: #000000; stroke-width: 0.8"/>
      </defs>
      <g>
       <use xlink:href="#mbddfd6da4f" x="90" y="492.48" style="stroke: #000000; stroke-width: 0.8"/>
      </g>
     </g>
     <g id="text_6">
      <!-- Application -->
      <g transform="translate(27.125 496.279219) scale(0.1 -0.1)">
       <defs>
        <path id="DejaVuSans-70" d="M 1159 525 
L 1159 -1331 
L 581 -1331 
L 581 3500 
L 1159 3500 
L 1159 2969 
Q 1341 3281 1617 3432 
Q 1894 3584 2278 3584 
Q 2916 3584 3314 3078 
Q 3713 2572 3713 1747 
Q 3713 922 3314 415 
Q 2916 -91 2278 -91 
Q 1894 -91 1617 61 
Q 1341 213 1159 525 
z
M 3116 1747 
Q 3116 2381 2855 2742 
Q 2594 3103 2138 3103 
Q 1681 3103 1420 2742 
Q 1159 2381 1159 1747 
Q 1159 1113 1420 752 
Q 1681 391 2138 391 
Q 2594 391 2855 752 
Q 3116 1113 3116 1747 
z
" transform="scale(0.015625)"/>
        <path id="DejaVuSans-63" d="M 3122 3366 
L 3122 2828 
Q 2878 2963 2633 3030 
Q 2388 3097 2138 3097 
Q 1578 3097 1268 2742 
Q 959 2388 959 1747 
Q 959 1106 1268 751 
Q 1578 397 2138 397 
Q 2388 397 2633 464 
Q 2878 531 3122 666 
L 3122 134 
Q 2881 22 2623 -34 
Q 2366 -91 2075 -91 
Q 1284 -91 818 406 
Q 353 903 353 1747 
Q 353 2603 823 3093 
Q 1294 3584 2113 3584 
Q 2378 3584 2631 3529 
Q 2884 3475 3122 3366 
z
" transform="scale(0.015625)"/>
        <path id="DejaVuSans-6f" d="M 1959 3097 
Q 1497 3097 1228 2736 
Q 959 2375 959 1747 
Q 959 1119 1226 758 
Q 1494 397 1959 397 
Q 2419 397 2687 759 
Q 2956 1122 2956 1747 
Q 2956 2369 2687 2733 
Q 2419 3097 1959 3097 
z
M 1959 3584 
Q 2709 3584 3137 3096 
Q 3566 2609 3566 1747 
Q 3566 888 3137 398 
Q 2709 -91 1959 -91 
Q 1206 -91 779 398 
Q 353 888 353 1747 
Q 353 2609 779 3096 
Q 1206 3584 1959 3584 
z
" transform="scale(0.015625)"/>
       </defs>
       <use xlink:href="#DejaVuSans-41"/>
       <use xlink:href="#DejaVuSans-70" x="68.408203"/>
       <use xlink:href="#DejaVuSans-70" x="131.884766"/>
       <use xlink:href="#DejaVuSans-6c" x="195.361328"/>
       <use xlink:href="#DejaVuSans-69" x="223.144531"/>
       <use xlink:href="#DejaVuSans-63" x="250.927734"/>
       <use xlink:href="#DejaVuSans-61" x="305.908203"/>
       <use xlink:href="#DejaVuSans-74" x="367.1875"/>
       <use xlink:href="#DejaVuSans-69" x="406.396484"/>
       <use xlink:href="#DejaVuSans-6f" x="434.179688"/>
       <use xlink:href="#DejaVuSans-6e" x="495.361328"/>
      </g>
     </g>
    </g>
    <g id="ytick_2">
     <g id="line2d_11">
      <path d="M 90 391.68 
L 648 391.68 
" clip-path="url(#p0318407750)" style="fill: none; stroke: #b0b0b0; stroke-width: 0.8; stroke-linecap: square"/>
     </g>
     <g id="line2d_12">
      <g>
       <use xlink:href="#mbddfd6da4f" x="90" y="391.68" style="stroke: #000000; stroke-width: 0.8"/>
      </g>
     </g>
     <g id="text_7">
      <!-- Evaluation -->
      <g transform="translate(30.235937 395.479219) scale(0.1 -0.1)">
       <defs>
        <path id="DejaVuSans-76" d="M 191 3500 
L 800 3500 
L 1894 563 
L 2988 3500 
L 3597 3500 
L 2284 0 
L 1503 0 
L 191 3500 
z
" transform="scale(0.015625)"/>
       </defs>
       <use xlink:href="#DejaVuSans-45"/>
       <use xlink:href="#DejaVuSans-76" x="63.183594"/>
       <use xlink:href="#DejaVuSans-61" x="122.363281"/>
       <use xlink:href="#DejaVuSans-6c" x="183.642578"/>
       <use xlink:href="#DejaVuSans-75" x="211.425781"/>
       <use xlink:href="#DejaVuSans-61" x="274.804688"/>
       <use xlink:href="#DejaVuSans-74" x="336.083984"/>
       <use xlink:href="#DejaVuSans-69" x="375.292969"/>
       <use xlink:href="#DejaVuSans-6f" x="403.076172"/>
       <use xlink:href="#DejaVuSans-6e" x="464.257812"/>
      </g>
     </g>
    </g>
    <g id="ytick_3">
     <g id="line2d_13">
      <path d="M 90 290.88 
L 648 290.88 
" clip-path="url(#p0318407750)" style="fill: none; stroke: #b0b0b0; stroke-width: 0.8; stroke-linecap: square"/>
     </g>
     <g id="line2d_14">
      <g>
       <use xlink:href="#mbddfd6da4f" x="90" y="290.88" style="stroke: #000000; stroke-width: 0.8"/>
      </g>
     </g>
     <g id="text_8">
      <!-- Model -->
      <g transform="translate(52.973438 294.679219) scale(0.1 -0.1)">
       <use xlink:href="#DejaVuSans-4d"/>
       <use xlink:href="#DejaVuSans-6f" x="86.279297"/>
       <use xlink:href="#DejaVuSans-64" x="147.460938"/>
       <use xlink:href="#DejaVuSans-65" x="210.9375"/>
       <use xlink:href="#DejaVuSans-6c" x="272.460938"/>
      </g>
     </g>
    </g>
    <g id="ytick_4">
     <g id="line2d_15">
      <path d="M 90 190.08 
L 648 190.08 
" clip-path="url(#p0318407750)" style="fill: none; stroke: #b0b0b0; stroke-width: 0.8; stroke-linecap: square"/>
     </g>
     <g id="line2d_16">
      <g>
       <use xlink:href="#mbddfd6da4f" x="90" y="190.08" style="stroke: #000000; stroke-width: 0.8"/>
      </g>
     </g>
     <g id="text_9">
      <!-- Technique -->
      <g transform="translate(32.648438 193.879219) scale(0.1 -0.1)">
       <defs>
        <path id="DejaVuSans-54" d="M -19 4666 
L 3928 4666 
L 3928 4134 
L 2272 4134 
L 2272 0 
L 1638 0 
L 1638 4134 
L -19 4134 
L -19 4666 
z
" transform="scale(0.015625)"/>
        <path id="DejaVuSans-68" d="M 3513 2113 
L 3513 0 
L 2938 0 
L 2938 2094 
Q 2938 2591 2744 2837 
Q 2550 3084 2163 3084 
Q 1697 3084 1428 2787 
Q 1159 2491 1159 1978 
L 1159 0 
L 581 0 
L 581 4863 
L 1159 4863 
L 1159 2956 
Q 1366 3272 1645 3428 
Q 1925 3584 2291 3584 
Q 2894 3584 3203 3211 
Q 3513 2838 3513 2113 
z
" transform="scale(0.015625)"/>
        <path id="DejaVuSans-71" d="M 947 1747 
Q 947 1113 1208 752 
Q 1469 391 1925 391 
Q 2381 391 2643 752 
Q 2906 1113 2906 1747 
Q 2906 2381 2643 2742 
Q 2381 3103 1925 3103 
Q 1469 3103 1208 2742 
Q 947 2381 947 1747 
z
M 2906 525 
Q 2725 213 2448 61 
Q 2172 -91 1784 -91 
Q 1150 -91 751 415 
Q 353 922 353 1747 
Q 353 2572 751 3078 
Q 1150 3584 1784 3584 
Q 2172 3584 2448 3432 
Q 2725 3281 2906 2969 
L 2906 3500 
L 3481 3500 
L 3481 -1331 
L 2906 -1331 
L 2906 525 
z
" transform="scale(0.015625)"/>
       </defs>
       <use xlink:href="#DejaVuSans-54"/>
       <use xlink:href="#DejaVuSans-65" x="44.083984"/>
       <use xlink:href="#DejaVuSans-63" x="105.607422"/>
       <use xlink:href="#DejaVuSans-68" x="160.587891"/>
       <use xlink:href="#DejaVuSans-6e" x="223.966797"/>
       <use xlink:href="#DejaVuSans-69" x="287.345703"/>
       <use xlink:href="#DejaVuSans-71" x="315.128906"/>
       <use xlink:href="#DejaVuSans-75" x="378.605469"/>
       <use xlink:href="#DejaVuSans-65" x="441.984375"/>
      </g>
     </g>
    </g>
    <g id="ytick_5">
     <g id="line2d_17">
      <path d="M 90 89.28 
L 648 89.28 
" clip-path="url(#p0318407750)" style="fill: none; stroke: #b0b0b0; stroke-width: 0.8; stroke-linecap: square"/>
     </g>
     <g id="line2d_18">
      <g>
       <use xlink:href="#mbddfd6da4f" x="90" y="89.28" style="stroke: #000000; stroke-width: 0.8"/>
      </g>
     </g>
     <g id="text_10">
      <!-- System -->
      <g transform="translate(45.709375 93.079219) scale(0.1 -0.1)">
       <defs>
        <path id="DejaVuSans-53" d="M 3425 4513 
L 3425 3897 
Q 3066 4069 2747 4153 
Q 2428 4238 2131 4238 
Q 1616 4238 1336 4038 
Q 1056 3838 1056 3469 
Q 1056 3159 1242 3001 
Q 1428 2844 1947 2747 
L 2328 2669 
Q 3034 2534 3370 2195 
Q 3706 1856 3706 1288 
Q 3706 609 3251 259 
Q 2797 -91 1919 -91 
Q 1588 -91 1214 -16 
Q 841 59 441 206 
L 441 856 
Q 825 641 1194 531 
Q 1563 422 1919 422 
Q 2459 422 2753 634 
Q 3047 847 3047 1241 
Q 3047 1584 2836 1778 
Q 2625 1972 2144 2069 
L 1759 2144 
Q 1053 2284 737 2584 
Q 422 2884 422 3419 
Q 422 4038 858 4394 
Q 1294 4750 2059 4750 
Q 2388 4750 2728 4690 
Q 3069 4631 3425 4513 
z
" transform="scale(0.015625)"/>
        <path id="DejaVuSans-73" d="M 2834 3397 
L 2834 2853 
Q 2591 2978 2328 3040 
Q 2066 3103 1784 3103 
Q 1356 3103 1142 2972 
Q 928 2841 928 2578 
Q 928 2378 1081 2264 
Q 1234 2150 1697 2047 
L 1894 2003 
Q 2506 1872 2764 1633 
Q 3022 1394 3022 966 
Q 3022 478 2636 193 
Q 2250 -91 1575 -91 
Q 1294 -91 989 -36 
Q 684 19 347 128 
L 347 722 
Q 666 556 975 473 
Q 1284 391 1588 391 
Q 1994 391 2212 530 
Q 2431 669 2431 922 
Q 2431 1156 2273 1281 
Q 2116 1406 1581 1522 
L 1381 1569 
Q 847 1681 609 1914 
Q 372 2147 372 2553 
Q 372 3047 722 3315 
Q 1072 3584 1716 3584 
Q 2034 3584 2315 3537 
Q 2597 3491 2834 3397 
z
" transform="scale(0.015625)"/>
       </defs>
       <use xlink:href="#DejaVuSans-53"/>
       <use xlink:href="#DejaVuSans-79" x="63.476562"/>
       <use xlink:href="#DejaVuSans-73" x="122.65625"/>
       <use xlink:href="#DejaVuSans-74" x="174.755859"/>
       <use xlink:href="#DejaVuSans-65" x="213.964844"/>
       <use xlink:href="#DejaVuSans-6d" x="275.488281"/>
      </g>
     </g>
    </g>
    <g id="text_11">
     <!-- venue -->
     <g transform="translate(21.045312 306.33) rotate(-90) scale(0.1 -0.1)">
      <use xlink:href="#DejaVuSans-76"/>
      <use xlink:href="#DejaVuSans-65" x="59.179688"/>
      <use xlink:href="#DejaVuSans-6e" x="120.703125"/>
      <use xlink:href="#DejaVuSans-75" x="184.082031"/>
      <use xlink:href="#DejaVuSans-65" x="247.460938"/>
     </g>
    </g>
   </g>
   <g id="patch_3">
    <path d="M 90 512.64 
L 90 69.12 
" style="fill: none; stroke: #000000; stroke-width: 0.8; stroke-linejoin: miter; stroke-linecap: square"/>
   </g>
   <g id="patch_4">
    <path d="M 648 512.64 
L 648 69.12 
" style="fill: none; stroke: #000000; stroke-width: 0.8; stroke-linejoin: miter; stroke-linecap: square"/>
   </g>
   <g id="patch_5">
    <path d="M 90 512.64 
L 648 512.64 
" style="fill: none; stroke: #000000; stroke-width: 0.8; stroke-linejoin: miter; stroke-linecap: square"/>
   </g>
   <g id="patch_6">
    <path d="M 90 69.12 
L 648 69.12 
" style="fill: none; stroke: #000000; stroke-width: 0.8; stroke-linejoin: miter; stroke-linecap: square"/>
   </g>
   <g id="text_12">
    <!-- Bubble Chart: reality vs venue by metaverse -->
    <g transform="translate(234.546562 63.12) scale(0.12 -0.12)">
     <defs>
      <path id="DejaVuSans-42" d="M 1259 2228 
L 1259 519 
L 2272 519 
Q 2781 519 3026 730 
Q 3272 941 3272 1375 
Q 3272 1813 3026 2020 
Q 2781 2228 2272 2228 
L 1259 2228 
z
M 1259 4147 
L 1259 2741 
L 2194 2741 
Q 2656 2741 2882 2914 
Q 3109 3088 3109 3444 
Q 3109 3797 2882 3972 
Q 2656 4147 2194 4147 
L 1259 4147 
z
M 628 4666 
L 2241 4666 
Q 2963 4666 3353 4366 
Q 3744 4066 3744 3513 
Q 3744 3084 3544 2831 
Q 3344 2578 2956 2516 
Q 3422 2416 3680 2098 
Q 3938 1781 3938 1306 
Q 3938 681 3513 340 
Q 3088 0 2303 0 
L 628 0 
L 628 4666 
z
" transform="scale(0.015625)"/>
      <path id="DejaVuSans-62" d="M 3116 1747 
Q 3116 2381 2855 2742 
Q 2594 3103 2138 3103 
Q 1681 3103 1420 2742 
Q 1159 2381 1159 1747 
Q 1159 1113 1420 752 
Q 1681 391 2138 391 
Q 2594 391 2855 752 
Q 3116 1113 3116 1747 
z
M 1159 2969 
Q 1341 3281 1617 3432 
Q 1894 3584 2278 3584 
Q 2916 3584 3314 3078 
Q 3713 2572 3713 1747 
Q 3713 922 3314 415 
Q 2916 -91 2278 -91 
Q 1894 -91 1617 61 
Q 1341 213 1159 525 
L 1159 0 
L 581 0 
L 581 4863 
L 1159 4863 
L 1159 2969 
z
" transform="scale(0.015625)"/>
      <path id="DejaVuSans-43" d="M 4122 4306 
L 4122 3641 
Q 3803 3938 3442 4084 
Q 3081 4231 2675 4231 
Q 1875 4231 1450 3742 
Q 1025 3253 1025 2328 
Q 1025 1406 1450 917 
Q 1875 428 2675 428 
Q 3081 428 3442 575 
Q 3803 722 4122 1019 
L 4122 359 
Q 3791 134 3420 21 
Q 3050 -91 2638 -91 
Q 1578 -91 968 557 
Q 359 1206 359 2328 
Q 359 3453 968 4101 
Q 1578 4750 2638 4750 
Q 3056 4750 3426 4639 
Q 3797 4528 4122 4306 
z
" transform="scale(0.015625)"/>
      <path id="DejaVuSans-3a" d="M 750 794 
L 1409 794 
L 1409 0 
L 750 0 
L 750 794 
z
M 750 3309 
L 1409 3309 
L 1409 2516 
L 750 2516 
L 750 3309 
z
" transform="scale(0.015625)"/>
     </defs>
     <use xlink:href="#DejaVuSans-42"/>
     <use xlink:href="#DejaVuSans-75" x="68.603516"/>
     <use xlink:href="#DejaVuSans-62" x="131.982422"/>
     <use xlink:href="#DejaVuSans-62" x="195.458984"/>
     <use xlink:href="#DejaVuSans-6c" x="258.935547"/>
     <use xlink:href="#DejaVuSans-65" x="286.71875"/>
     <use xlink:href="#DejaVuSans-20" x="348.242188"/>
     <use xlink:href="#DejaVuSans-43" x="380.029297"/>
     <use xlink:href="#DejaVuSans-68" x="449.853516"/>
     <use xlink:href="#DejaVuSans-61" x="513.232422"/>
     <use xlink:href="#DejaVuSans-72" x="574.511719"/>
     <use xlink:href="#DejaVuSans-74" x="615.625"/>
     <use xlink:href="#DejaVuSans-3a" x="654.833984"/>
     <use xlink:href="#DejaVuSans-20" x="688.525391"/>
     <use xlink:href="#DejaVuSans-72" x="720.3125"/>
     <use xlink:href="#DejaVuSans-65" x="759.175781"/>
     <use xlink:href="#DejaVuSans-61" x="820.699219"/>
     <use xlink:href="#DejaVuSans-6c" x="881.978516"/>
     <use xlink:href="#DejaVuSans-69" x="909.761719"/>
     <use xlink:href="#DejaVuSans-74" x="937.544922"/>
     <use xlink:href="#DejaVuSans-79" x="976.753906"/>
     <use xlink:href="#DejaVuSans-20" x="1035.933594"/>
     <use xlink:href="#DejaVuSans-76" x="1067.720703"/>
     <use xlink:href="#DejaVuSans-73" x="1126.900391"/>
     <use xlink:href="#DejaVuSans-20" x="1179"/>
     <use xlink:href="#DejaVuSans-76" x="1210.787109"/>
     <use xlink:href="#DejaVuSans-65" x="1269.966797"/>
     <use xlink:href="#DejaVuSans-6e" x="1331.490234"/>
     <use xlink:href="#DejaVuSans-75" x="1394.869141"/>
     <use xlink:href="#DejaVuSans-65" x="1458.248047"/>
     <use xlink:href="#DejaVuSans-20" x="1519.771484"/>
     <use xlink:href="#DejaVuSans-62" x="1551.558594"/>
     <use xlink:href="#DejaVuSans-79" x="1615.035156"/>
     <use xlink:href="#DejaVuSans-20" x="1674.214844"/>
     <use xlink:href="#DejaVuSans-6d" x="1706.001953"/>
     <use xlink:href="#DejaVuSans-65" x="1803.414062"/>
     <use xlink:href="#DejaVuSans-74" x="1864.9375"/>
     <use xlink:href="#DejaVuSans-61" x="1904.146484"/>
     <use xlink:href="#DejaVuSans-76" x="1965.425781"/>
     <use xlink:href="#DejaVuSans-65" x="2024.605469"/>
     <use xlink:href="#DejaVuSans-72" x="2086.128906"/>
     <use xlink:href="#DejaVuSans-73" x="2127.242188"/>
     <use xlink:href="#DejaVuSans-65" x="2179.341797"/>
    </g>
   </g>
   <g id="legend_1">
    <g id="patch_7">
     <path d="M 97 150.510625 
L 224.532813 150.510625 
Q 226.532813 150.510625 226.532813 148.510625 
L 226.532813 76.12 
Q 226.532813 74.12 224.532813 74.12 
L 97 74.12 
Q 95 74.12 95 76.12 
L 95 148.510625 
Q 95 150.510625 97 150.510625 
z
" style="fill: #ffffff; opacity: 0.8; stroke: #cccccc; stroke-linejoin: miter"/>
    </g>
    <g id="text_13">
     <!-- Metaverse -->
     <g transform="translate(134.578906 85.718437) scale(0.1 -0.1)">
      <use xlink:href="#DejaVuSans-4d"/>
      <use xlink:href="#DejaVuSans-65" x="86.279297"/>
      <use xlink:href="#DejaVuSans-74" x="147.802734"/>
      <use xlink:href="#DejaVuSans-61" x="187.011719"/>
      <use xlink:href="#DejaVuSans-76" x="248.291016"/>
      <use xlink:href="#DejaVuSans-65" x="307.470703"/>
      <use xlink:href="#DejaVuSans-72" x="368.994141"/>
      <use xlink:href="#DejaVuSans-73" x="410.107422"/>
      <use xlink:href="#DejaVuSans-65" x="462.207031"/>
     </g>
    </g>
    <g id="line2d_19">
     <path d="M 99 96.896563 
L 109 96.896563 
L 119 96.896563 
" style="fill: none; stroke: #ffffff; stroke-width: 1.5; stroke-linecap: square"/>
     <defs>
      <path id="m88cfb78f60" d="M 0 5 
C 1.326016 5 2.597899 4.473168 3.535534 3.535534 
C 4.473168 2.597899 5 1.326016 5 0 
C 5 -1.326016 4.473168 -2.597899 3.535534 -3.535534 
C 2.597899 -4.473168 1.326016 -5 0 -5 
C -1.326016 -5 -2.597899 -4.473168 -3.535534 -3.535534 
C -4.473168 -2.597899 -5 -1.326016 -5 0 
C -5 1.326016 -4.473168 2.597899 -3.535534 3.535534 
C -2.597899 4.473168 -1.326016 5 0 5 
z
" style="stroke: #ffffff"/>
     </defs>
     <g>
      <use xlink:href="#m88cfb78f60" x="109" y="96.896563" style="fill: #0000ff; stroke: #ffffff"/>
     </g>
    </g>
    <g id="text_14">
     <!-- Virtual World -->
     <g transform="translate(127 100.396563) scale(0.1 -0.1)">
      <defs>
       <path id="DejaVuSans-57" d="M 213 4666 
L 850 4666 
L 1831 722 
L 2809 4666 
L 3519 4666 
L 4500 722 
L 5478 4666 
L 6119 4666 
L 4947 0 
L 4153 0 
L 3169 4050 
L 2175 0 
L 1381 0 
L 213 4666 
z
" transform="scale(0.015625)"/>
      </defs>
      <use xlink:href="#DejaVuSans-56"/>
      <use xlink:href="#DejaVuSans-69" x="66.158203"/>
      <use xlink:href="#DejaVuSans-72" x="93.941406"/>
      <use xlink:href="#DejaVuSans-74" x="135.054688"/>
      <use xlink:href="#DejaVuSans-75" x="174.263672"/>
      <use xlink:href="#DejaVuSans-61" x="237.642578"/>
      <use xlink:href="#DejaVuSans-6c" x="298.921875"/>
      <use xlink:href="#DejaVuSans-20" x="326.705078"/>
      <use xlink:href="#DejaVuSans-57" x="358.492188"/>
      <use xlink:href="#DejaVuSans-6f" x="451.494141"/>
      <use xlink:href="#DejaVuSans-72" x="512.675781"/>
      <use xlink:href="#DejaVuSans-6c" x="553.789062"/>
      <use xlink:href="#DejaVuSans-64" x="581.572266"/>
     </g>
    </g>
    <g id="line2d_20">
     <path d="M 99 111.574688 
L 109 111.574688 
L 119 111.574688 
" style="fill: none; stroke: #ffffff; stroke-width: 1.5; stroke-linecap: square"/>
     <defs>
      <path id="m83cc43a035" d="M 0 5 
C 1.326016 5 2.597899 4.473168 3.535534 3.535534 
C 4.473168 2.597899 5 1.326016 5 0 
C 5 -1.326016 4.473168 -2.597899 3.535534 -3.535534 
C 2.597899 -4.473168 1.326016 -5 0 -5 
C -1.326016 -5 -2.597899 -4.473168 -3.535534 -3.535534 
C -4.473168 -2.597899 -5 -1.326016 -5 0 
C -5 1.326016 -4.473168 2.597899 -3.535534 3.535534 
C -2.597899 4.473168 -1.326016 5 0 5 
z
" style="stroke: #ffffff"/>
     </defs>
     <g>
      <use xlink:href="#m83cc43a035" x="109" y="111.574688" style="fill: #008000; stroke: #ffffff"/>
     </g>
    </g>
    <g id="text_15">
     <!-- Lifelogging -->
     <g transform="translate(127 115.074688) scale(0.1 -0.1)">
      <defs>
       <path id="DejaVuSans-4c" d="M 628 4666 
L 1259 4666 
L 1259 531 
L 3531 531 
L 3531 0 
L 628 0 
L 628 4666 
z
" transform="scale(0.015625)"/>
       <path id="DejaVuSans-66" d="M 2375 4863 
L 2375 4384 
L 1825 4384 
Q 1516 4384 1395 4259 
Q 1275 4134 1275 3809 
L 1275 3500 
L 2222 3500 
L 2222 3053 
L 1275 3053 
L 1275 0 
L 697 0 
L 697 3053 
L 147 3053 
L 147 3500 
L 697 3500 
L 697 3744 
Q 697 4328 969 4595 
Q 1241 4863 1831 4863 
L 2375 4863 
z
" transform="scale(0.015625)"/>
      </defs>
      <use xlink:href="#DejaVuSans-4c"/>
      <use xlink:href="#DejaVuSans-69" x="55.712891"/>
      <use xlink:href="#DejaVuSans-66" x="83.496094"/>
      <use xlink:href="#DejaVuSans-65" x="118.701172"/>
      <use xlink:href="#DejaVuSans-6c" x="180.224609"/>
      <use xlink:href="#DejaVuSans-6f" x="208.007812"/>
      <use xlink:href="#DejaVuSans-67" x="269.189453"/>
      <use xlink:href="#DejaVuSans-67" x="332.666016"/>
      <use xlink:href="#DejaVuSans-69" x="396.142578"/>
      <use xlink:href="#DejaVuSans-6e" x="423.925781"/>
      <use xlink:href="#DejaVuSans-67" x="487.304688"/>
     </g>
    </g>
    <g id="line2d_21">
     <path d="M 99 126.252813 
L 109 126.252813 
L 119 126.252813 
" style="fill: none; stroke: #ffffff; stroke-width: 1.5; stroke-linecap: square"/>
     <defs>
      <path id="maf2e2202b4" d="M 0 5 
C 1.326016 5 2.597899 4.473168 3.535534 3.535534 
C 4.473168 2.597899 5 1.326016 5 0 
C 5 -1.326016 4.473168 -2.597899 3.535534 -3.535534 
C 2.597899 -4.473168 1.326016 -5 0 -5 
C -1.326016 -5 -2.597899 -4.473168 -3.535534 -3.535534 
C -4.473168 -2.597899 -5 -1.326016 -5 0 
C -5 1.326016 -4.473168 2.597899 -3.535534 3.535534 
C -2.597899 4.473168 -1.326016 5 0 5 
z
" style="stroke: #ffffff"/>
     </defs>
     <g>
      <use xlink:href="#maf2e2202b4" x="109" y="126.252813" style="fill: #ff0000; stroke: #ffffff"/>
     </g>
    </g>
    <g id="text_16">
     <!-- Augmented Reality -->
     <g transform="translate(127 129.752813) scale(0.1 -0.1)">
      <use xlink:href="#DejaVuSans-41"/>
      <use xlink:href="#DejaVuSans-75" x="68.408203"/>
      <use xlink:href="#DejaVuSans-67" x="131.787109"/>
      <use xlink:href="#DejaVuSans-6d" x="195.263672"/>
      <use xlink:href="#DejaVuSans-65" x="292.675781"/>
      <use xlink:href="#DejaVuSans-6e" x="354.199219"/>
      <use xlink:href="#DejaVuSans-74" x="417.578125"/>
      <use xlink:href="#DejaVuSans-65" x="456.787109"/>
      <use xlink:href="#DejaVuSans-64" x="518.310547"/>
      <use xlink:href="#DejaVuSans-20" x="581.787109"/>
      <use xlink:href="#DejaVuSans-52" x="613.574219"/>
      <use xlink:href="#DejaVuSans-65" x="678.556641"/>
      <use xlink:href="#DejaVuSans-61" x="740.080078"/>
      <use xlink:href="#DejaVuSans-6c" x="801.359375"/>
      <use xlink:href="#DejaVuSans-69" x="829.142578"/>
      <use xlink:href="#DejaVuSans-74" x="856.925781"/>
      <use xlink:href="#DejaVuSans-79" x="896.134766"/>
     </g>
    </g>
    <g id="line2d_22">
     <path d="M 99 140.930938 
L 109 140.930938 
L 119 140.930938 
" style="fill: none; stroke: #ffffff; stroke-width: 1.5; stroke-linecap: square"/>
     <defs>
      <path id="m41df26331c" d="M 0 5 
C 1.326016 5 2.597899 4.473168 3.535534 3.535534 
C 4.473168 2.597899 5 1.326016 5 0 
C 5 -1.326016 4.473168 -2.597899 3.535534 -3.535534 
C 2.597899 -4.473168 1.326016 -5 0 -5 
C -1.326016 -5 -2.597899 -4.473168 -3.535534 -3.535534 
C -4.473168 -2.597899 -5 -1.326016 -5 0 
C -5 1.326016 -4.473168 2.597899 -3.535534 3.535534 
C -2.597899 4.473168 -1.326016 5 0 5 
z
" style="stroke: #ffffff"/>
     </defs>
     <g>
      <use xlink:href="#m41df26331c" x="109" y="140.930938" style="fill: #800080; stroke: #ffffff"/>
     </g>
    </g>
    <g id="text_17">
     <!-- Mirror World -->
     <g transform="translate(127 144.430938) scale(0.1 -0.1)">
      <use xlink:href="#DejaVuSans-4d"/>
      <use xlink:href="#DejaVuSans-69" x="86.279297"/>
      <use xlink:href="#DejaVuSans-72" x="114.0625"/>
      <use xlink:href="#DejaVuSans-72" x="153.425781"/>
      <use xlink:href="#DejaVuSans-6f" x="192.289062"/>
      <use xlink:href="#DejaVuSans-72" x="253.470703"/>
      <use xlink:href="#DejaVuSans-20" x="294.583984"/>
      <use xlink:href="#DejaVuSans-57" x="326.371094"/>
      <use xlink:href="#DejaVuSans-6f" x="419.373047"/>
      <use xlink:href="#DejaVuSans-72" x="480.554688"/>
      <use xlink:href="#DejaVuSans-6c" x="521.667969"/>
      <use xlink:href="#DejaVuSans-64" x="549.451172"/>
     </g>
    </g>
   </g>
  </g>
 </g>
 <defs>
  <clipPath id="p0318407750">
   <rect x="90" y="69.12" width="558" height="443.52"/>
  </clipPath>
 </defs>
</svg>
