<?xml version="1.0" encoding="utf-8" standalone="no"?>
<!DOCTYPE svg PUBLIC "-//W3C//DTD SVG 1.1//EN"
  "http://www.w3.org/Graphics/SVG/1.1/DTD/svg11.dtd">
<svg xmlns:xlink="http://www.w3.org/1999/xlink" width="720pt" height="576pt" viewBox="0 0 720 576" xmlns="http://www.w3.org/2000/svg" version="1.1">
 <metadata>
  <rdf:RDF xmlns:dc="http://purl.org/dc/elements/1.1/" xmlns:cc="http://creativecommons.org/ns#" xmlns:rdf="http://www.w3.org/1999/02/22-rdf-syntax-ns#">
   <cc:Work>
    <dc:type rdf:resource="http://purl.org/dc/dcmitype/StillImage"/>
    <dc:date>2024-09-02T12:50:07.368184</dc:date>
    <dc:format>image/svg+xml</dc:format>
    <dc:creator>
     <cc:Agent>
      <dc:title>Matplotlib v3.8.2, https://matplotlib.org/</dc:title>
     </cc:Agent>
    </dc:creator>
   </cc:Work>
  </rdf:RDF>
 </metadata>
 <defs>
  <style type="text/css">*{stroke-linejoin: round; stroke-linecap: butt}</style>
 </defs>
 <g id="figure_1">
  <g id="patch_1">
   <path d="M 0 576 
L 720 576 
L 720 0 
L 0 0 
z
" style="fill: #ffffff"/>
  </g>
  <g id="axes_1">
   <g id="patch_2">
    <path d="M 90 512.64 
L 648 512.64 
L 648 69.12 
L 90 69.12 
z
" style="fill: #ffffff"/>
   </g>
   <g id="PathCollection_1">
    <path d="M 115.363636 503.66034 
C 118.328697 503.66034 121.172716 502.482309 123.269331 500.385694 
C 125.365945 498.28908 126.543976 495.445061 126.543976 492.48 
C 126.543976 489.514939 125.365945 486.67092 123.269331 484.574306 
C 121.172716 482.477691 118.328697 481.29966 115.363636 481.29966 
C 112.398576 481.29966 109.554557 482.477691 107.457942 484.574306 
C 105.361328 486.67092 104.183296 489.514939 104.183296 492.48 
C 104.183296 495.445061 105.361328 498.28908 107.457942 500.385694 
C 109.554557 502.482309 112.398576 503.66034 115.363636 503.66034 
z
" clip-path="url(#pfa1dc0afe1)" style="fill: #808080; fill-opacity: 0.6; stroke: #ffffff; stroke-opacity: 0.6; stroke-width: 2"/>
    <path d="M 115.363636 505.708757 
C 118.871944 505.708757 122.237032 504.314891 124.71778 501.834143 
C 127.198528 499.353396 128.592393 495.988307 128.592393 492.48 
C 128.592393 488.971693 127.198528 485.606604 124.71778 483.125857 
C 122.237032 480.645109 118.871944 479.251243 115.363636 479.251243 
C 111.855329 479.251243 108.490241 480.645109 106.009493 483.125857 
C 103.528745 485.606604 102.13488 488.971693 102.13488 492.48 
C 102.13488 495.988307 103.528745 499.353396 106.009493 501.834143 
C 108.490241 504.314891 111.855329 505.708757 115.363636 505.708757 
z
" clip-path="url(#pfa1dc0afe1)" style="fill: #ff0000; fill-opacity: 0.6; stroke: #ffffff; stroke-opacity: 0.6; stroke-width: 2"/>
    <path d="M 115.363636 497.48 
C 116.689652 497.48 117.961536 496.953168 118.89917 496.015534 
C 119.836805 495.077899 120.363636 493.806016 120.363636 492.48 
C 120.363636 491.153985 119.836805 489.882101 118.89917 488.944466 
C 117.961536 488.006832 116.689652 487.48 115.363636 487.48 
C 114.037621 487.48 112.765737 488.006832 111.828102 488.944466 
C 110.890468 489.882101 110.363636 491.153985 110.363636 492.48 
C 110.363636 493.806016 110.890468 495.077899 111.828102 496.015534 
C 112.765737 496.953168 114.037621 497.48 115.363636 497.48 
z
" clip-path="url(#pfa1dc0afe1)" style="fill: #808080; fill-opacity: 0.6; stroke: #ffffff; stroke-opacity: 0.6; stroke-width: 2"/>
    <path d="M 115.363636 497.48 
C 116.689652 497.48 117.961536 496.953168 118.89917 496.015534 
C 119.836805 495.077899 120.363636 493.806016 120.363636 492.48 
C 120.363636 491.153985 119.836805 489.882101 118.89917 488.944466 
C 117.961536 488.006832 116.689652 487.48 115.363636 487.48 
C 114.037621 487.48 112.765737 488.006832 111.828102 488.944466 
C 110.890468 489.882101 110.363636 491.153985 110.363636 492.48 
C 110.363636 493.806016 110.890468 495.077899 111.828102 496.015534 
C 112.765737 496.953168 114.037621 497.48 115.363636 497.48 
z
" clip-path="url(#pfa1dc0afe1)" style="fill: #808080; fill-opacity: 0.6; stroke: #ffffff; stroke-opacity: 0.6; stroke-width: 2"/>
    <path d="M 115.363636 369.26034 
C 118.328697 369.26034 121.172716 368.082309 123.269331 365.985694 
C 125.365945 363.88908 126.543976 361.045061 126.543976 358.08 
C 126.543976 355.114939 125.365945 352.27092 123.269331 350.174306 
C 121.172716 348.077691 118.328697 346.89966 115.363636 346.89966 
C 112.398576 346.89966 109.554557 348.077691 107.457942 350.174306 
C 105.361328 352.27092 104.183296 355.114939 104.183296 358.08 
C 104.183296 361.045061 105.361328 363.88908 107.457942 365.985694 
C 109.554557 368.082309 112.398576 369.26034 115.363636 369.26034 
z
" clip-path="url(#pfa1dc0afe1)" style="fill: #808080; fill-opacity: 0.6; stroke: #ffffff; stroke-opacity: 0.6; stroke-width: 2"/>
    <path d="M 115.363636 369.26034 
C 118.328697 369.26034 121.172716 368.082309 123.269331 365.985694 
C 125.365945 363.88908 126.543976 361.045061 126.543976 358.08 
C 126.543976 355.114939 125.365945 352.27092 123.269331 350.174306 
C 121.172716 348.077691 118.328697 346.89966 115.363636 346.89966 
C 112.398576 346.89966 109.554557 348.077691 107.457942 350.174306 
C 105.361328 352.27092 104.183296 355.114939 104.183296 358.08 
C 104.183296 361.045061 105.361328 363.88908 107.457942 365.985694 
C 109.554557 368.082309 112.398576 369.26034 115.363636 369.26034 
z
" clip-path="url(#pfa1dc0afe1)" style="fill: #ff0000; fill-opacity: 0.6; stroke: #ffffff; stroke-opacity: 0.6; stroke-width: 2"/>
    <path d="M 115.363636 365.151068 
C 117.238905 365.151068 119.037621 364.406015 120.363636 363.08 
C 121.689652 361.753985 122.434704 359.955269 122.434704 358.08 
C 122.434704 356.204731 121.689652 354.406015 120.363636 353.08 
C 119.037621 351.753985 117.238905 351.008932 115.363636 351.008932 
C 113.488367 351.008932 111.689652 351.753985 110.363636 353.08 
C 109.037621 354.406015 108.292569 356.204731 108.292569 358.08 
C 108.292569 359.955269 109.037621 361.753985 110.363636 363.08 
C 111.689652 364.406015 113.488367 365.151068 115.363636 365.151068 
z
" clip-path="url(#pfa1dc0afe1)" style="fill: #808080; fill-opacity: 0.6; stroke: #ffffff; stroke-opacity: 0.6; stroke-width: 2"/>
    <path d="M 115.363636 233.68 
C 118.015667 233.68 120.559435 232.626337 122.434704 230.751068 
C 124.309973 228.875799 125.363636 226.332031 125.363636 223.68 
C 125.363636 221.027969 124.309973 218.484201 122.434704 216.608932 
C 120.559435 214.733663 118.015667 213.68 115.363636 213.68 
C 112.711605 213.68 110.167838 214.733663 108.292569 216.608932 
C 106.417299 218.484201 105.363636 221.027969 105.363636 223.68 
C 105.363636 226.332031 106.417299 228.875799 108.292569 230.751068 
C 110.167838 232.626337 112.711605 233.68 115.363636 233.68 
z
" clip-path="url(#pfa1dc0afe1)" style="fill: #808080; fill-opacity: 0.6; stroke: #ffffff; stroke-opacity: 0.6; stroke-width: 2"/>
    <path d="M 115.363636 230.751068 
C 117.238905 230.751068 119.037621 230.006016 120.363636 228.68 
C 121.689652 227.353984 122.434704 225.555269 122.434704 223.68 
C 122.434704 221.804731 121.689652 220.006016 120.363636 218.68 
C 119.037621 217.353984 117.238905 216.608932 115.363636 216.608932 
C 113.488367 216.608932 111.689652 217.353984 110.363636 218.68 
C 109.037621 220.006016 108.292569 221.804731 108.292569 223.68 
C 108.292569 225.555269 109.037621 227.353984 110.363636 228.68 
C 111.689652 230.006016 113.488367 230.751068 115.363636 230.751068 
z
" clip-path="url(#pfa1dc0afe1)" style="fill: #ff0000; fill-opacity: 0.6; stroke: #ffffff; stroke-opacity: 0.6; stroke-width: 2"/>
    <path d="M 115.363636 228.68 
C 116.689652 228.68 117.961536 228.153168 118.89917 227.215534 
C 119.836805 226.277899 120.363636 225.006016 120.363636 223.68 
C 120.363636 222.353984 119.836805 221.082101 118.89917 220.144466 
C 117.961536 219.206832 116.689652 218.68 115.363636 218.68 
C 114.037621 218.68 112.765737 219.206832 111.828102 220.144466 
C 110.890468 221.082101 110.363636 222.353984 110.363636 223.68 
C 110.363636 225.006016 110.890468 226.277899 111.828102 227.215534 
C 112.765737 228.153168 114.037621 228.68 115.363636 228.68 
z
" clip-path="url(#pfa1dc0afe1)" style="fill: #808080; fill-opacity: 0.6; stroke: #ffffff; stroke-opacity: 0.6; stroke-width: 2"/>
    <path d="M 115.363636 97.940254 
C 117.660363 97.940254 119.86333 97.027755 121.487361 95.403724 
C 123.111391 93.779694 124.02389 91.576726 124.02389 89.28 
C 124.02389 86.983274 123.111391 84.780306 121.487361 83.156276 
C 119.86333 81.532245 117.660363 80.619746 115.363636 80.619746 
C 113.06691 80.619746 110.863943 81.532245 109.239912 83.156276 
C 107.615881 84.780306 106.703382 86.983274 106.703382 89.28 
C 106.703382 91.576726 107.615881 93.779694 109.239912 95.403724 
C 110.863943 97.027755 113.06691 97.940254 115.363636 97.940254 
z
" clip-path="url(#pfa1dc0afe1)" style="fill: #808080; fill-opacity: 0.6; stroke: #ffffff; stroke-opacity: 0.6; stroke-width: 2"/>
    <path d="M 115.363636 99.28 
C 118.015667 99.28 120.559435 98.226337 122.434704 96.351068 
C 124.309973 94.475799 125.363636 91.932031 125.363636 89.28 
C 125.363636 86.627969 124.309973 84.084201 122.434704 82.208932 
C 120.559435 80.333663 118.015667 79.28 115.363636 79.28 
C 112.711605 79.28 110.167838 80.333663 108.292569 82.208932 
C 106.417299 84.084201 105.363636 86.627969 105.363636 89.28 
C 105.363636 91.932031 106.417299 94.475799 108.292569 96.351068 
C 110.167838 98.226337 112.711605 99.28 115.363636 99.28 
z
" clip-path="url(#pfa1dc0afe1)" style="fill: #ff0000; fill-opacity: 0.6; stroke: #ffffff; stroke-opacity: 0.6; stroke-width: 2"/>
    <path d="M 115.363636 96.351068 
C 117.238905 96.351068 119.037621 95.606015 120.363636 94.28 
C 121.689652 92.953984 122.434704 91.155269 122.434704 89.28 
C 122.434704 87.404731 121.689652 85.606015 120.363636 84.28 
C 119.037621 82.953984 117.238905 82.208932 115.363636 82.208932 
C 113.488367 82.208932 111.689652 82.953984 110.363636 84.28 
C 109.037621 85.606015 108.292569 87.404731 108.292569 89.28 
C 108.292569 91.155269 109.037621 92.953984 110.363636 94.28 
C 111.689652 95.606015 113.488367 96.351068 115.363636 96.351068 
z
" clip-path="url(#pfa1dc0afe1)" style="fill: #808080; fill-opacity: 0.6; stroke: #ffffff; stroke-opacity: 0.6; stroke-width: 2"/>
    <path d="M 242.181818 501.140254 
C 244.478544 501.140254 246.681512 500.227755 248.305543 498.603724 
C 249.929573 496.979694 250.842072 494.776726 250.842072 492.48 
C 250.842072 490.183274 249.929573 487.980306 248.305543 486.356276 
C 246.681512 484.732245 244.478544 483.819746 242.181818 483.819746 
C 239.885092 483.819746 237.682125 484.732245 236.058094 486.356276 
C 234.434063 487.980306 233.521564 490.183274 233.521564 492.48 
C 233.521564 494.776726 234.434063 496.979694 236.058094 498.603724 
C 237.682125 500.227755 239.885092 501.140254 242.181818 501.140254 
z
" clip-path="url(#pfa1dc0afe1)" style="fill: #808080; fill-opacity: 0.6; stroke: #ffffff; stroke-opacity: 0.6; stroke-width: 2"/>
    <path d="M 242.181818 499.551068 
C 244.057087 499.551068 245.855803 498.806016 247.181818 497.48 
C 248.507834 496.153985 249.252886 494.355269 249.252886 492.48 
C 249.252886 490.604731 248.507834 488.806016 247.181818 487.48 
C 245.855803 486.153985 244.057087 485.408932 242.181818 485.408932 
C 240.306549 485.408932 238.507834 486.153985 237.181818 487.48 
C 235.855803 488.806016 235.11075 490.604731 235.11075 492.48 
C 235.11075 494.355269 235.855803 496.153985 237.181818 497.48 
C 238.507834 498.806016 240.306549 499.551068 242.181818 499.551068 
z
" clip-path="url(#pfa1dc0afe1)" style="fill: #ff0000; fill-opacity: 0.6; stroke: #ffffff; stroke-opacity: 0.6; stroke-width: 2"/>
    <path d="M 242.181818 497.48 
C 243.507834 497.48 244.779718 496.953168 245.717352 496.015534 
C 246.654987 495.077899 247.181818 493.806016 247.181818 492.48 
C 247.181818 491.153985 246.654987 489.882101 245.717352 488.944466 
C 244.779718 488.006832 243.507834 487.48 242.181818 487.48 
C 240.855803 487.48 239.583919 488.006832 238.646284 488.944466 
C 237.70865 489.882101 237.181818 491.153985 237.181818 492.48 
C 237.181818 493.806016 237.70865 495.077899 238.646284 496.015534 
C 239.583919 496.953168 240.855803 497.48 242.181818 497.48 
z
" clip-path="url(#pfa1dc0afe1)" style="fill: #808080; fill-opacity: 0.6; stroke: #ffffff; stroke-opacity: 0.6; stroke-width: 2"/>
    <path d="M 242.181818 377.444917 
C 247.317454 377.444917 252.243439 375.404507 255.874882 371.773064 
C 259.506325 368.141621 261.546735 363.215636 261.546735 358.08 
C 261.546735 352.944364 259.506325 348.018379 255.874882 344.386936 
C 252.243439 340.755493 247.317454 338.715083 242.181818 338.715083 
C 237.046182 338.715083 232.120197 340.755493 228.488754 344.386936 
C 224.857311 348.018379 222.816901 352.944364 222.816901 358.08 
C 222.816901 363.215636 224.857311 368.141621 228.488754 371.773064 
C 232.120197 375.404507 237.046182 377.444917 242.181818 377.444917 
z
" clip-path="url(#pfa1dc0afe1)" style="fill: #808080; fill-opacity: 0.6; stroke: #ffffff; stroke-opacity: 0.6; stroke-width: 2"/>
    <path d="M 242.181818 373.08 
C 246.159865 373.08 249.975516 371.499505 252.78842 368.686602 
C 255.601324 365.873698 257.181818 362.058046 257.181818 358.08 
C 257.181818 354.101953 255.601324 350.286302 252.78842 347.473398 
C 249.975516 344.660495 246.159865 343.08 242.181818 343.08 
C 238.203772 343.08 234.38812 344.660495 231.575216 347.473398 
C 228.762313 350.286302 227.181818 354.101953 227.181818 358.08 
C 227.181818 362.058046 228.762313 365.873698 231.575216 368.686602 
C 234.38812 371.499505 238.203772 373.08 242.181818 373.08 
z
" clip-path="url(#pfa1dc0afe1)" style="fill: #ff0000; fill-opacity: 0.6; stroke: #ffffff; stroke-opacity: 0.6; stroke-width: 2"/>
    <path d="M 242.181818 363.08 
C 243.507834 363.08 244.779718 362.553168 245.717352 361.615534 
C 246.654987 360.677899 247.181818 359.406015 247.181818 358.08 
C 247.181818 356.753985 246.654987 355.482101 245.717352 354.544466 
C 244.779718 353.606832 243.507834 353.08 242.181818 353.08 
C 240.855803 353.08 239.583919 353.606832 238.646284 354.544466 
C 237.70865 355.482101 237.181818 356.753985 237.181818 358.08 
C 237.181818 359.406015 237.70865 360.677899 238.646284 361.615534 
C 239.583919 362.553168 240.855803 363.08 242.181818 363.08 
z
" clip-path="url(#pfa1dc0afe1)" style="fill: #808080; fill-opacity: 0.6; stroke: #ffffff; stroke-opacity: 0.6; stroke-width: 2"/>
    <path d="M 242.181818 363.08 
C 243.507834 363.08 244.779718 362.553168 245.717352 361.615534 
C 246.654987 360.677899 247.181818 359.406015 247.181818 358.08 
C 247.181818 356.753985 246.654987 355.482101 245.717352 354.544466 
C 244.779718 353.606832 243.507834 353.08 242.181818 353.08 
C 240.855803 353.08 239.583919 353.606832 238.646284 354.544466 
C 237.70865 355.482101 237.181818 356.753985 237.181818 358.08 
C 237.181818 359.406015 237.70865 360.677899 238.646284 361.615534 
C 239.583919 362.553168 240.855803 363.08 242.181818 363.08 
z
" clip-path="url(#pfa1dc0afe1)" style="fill: #808080; fill-opacity: 0.6; stroke: #ffffff; stroke-opacity: 0.6; stroke-width: 2"/>
    <path d="M 242.181818 235.927449 
C 245.42988 235.927449 248.545346 234.63698 250.842072 232.340254 
C 253.138798 230.043528 254.429267 226.928061 254.429267 223.68 
C 254.429267 220.431939 253.138798 217.316472 250.842072 215.019746 
C 248.545346 212.72302 245.42988 211.432551 242.181818 211.432551 
C 238.933757 211.432551 235.81829 212.72302 233.521564 215.019746 
C 231.224838 217.316472 229.934369 220.431939 229.934369 223.68 
C 229.934369 226.928061 231.224838 230.043528 233.521564 232.340254 
C 235.81829 234.63698 238.933757 235.927449 242.181818 235.927449 
z
" clip-path="url(#pfa1dc0afe1)" style="fill: #808080; fill-opacity: 0.6; stroke: #ffffff; stroke-opacity: 0.6; stroke-width: 2"/>
    <path d="M 242.181818 230.751068 
C 244.057087 230.751068 245.855803 230.006016 247.181818 228.68 
C 248.507834 227.353984 249.252886 225.555269 249.252886 223.68 
C 249.252886 221.804731 248.507834 220.006016 247.181818 218.68 
C 245.855803 217.353984 244.057087 216.608932 242.181818 216.608932 
C 240.306549 216.608932 238.507834 217.353984 237.181818 218.68 
C 235.855803 220.006016 235.11075 221.804731 235.11075 223.68 
C 235.11075 225.555269 235.855803 227.353984 237.181818 228.68 
C 238.507834 230.006016 240.306549 230.751068 242.181818 230.751068 
z
" clip-path="url(#pfa1dc0afe1)" style="fill: #ff0000; fill-opacity: 0.6; stroke: #ffffff; stroke-opacity: 0.6; stroke-width: 2"/>
    <path d="M 242.181818 228.68 
C 243.507834 228.68 244.779718 228.153168 245.717352 227.215534 
C 246.654987 226.277899 247.181818 225.006016 247.181818 223.68 
C 247.181818 222.353984 246.654987 221.082101 245.717352 220.144466 
C 244.779718 219.206832 243.507834 218.68 242.181818 218.68 
C 240.855803 218.68 239.583919 219.206832 238.646284 220.144466 
C 237.70865 221.082101 237.181818 222.353984 237.181818 223.68 
C 237.181818 225.006016 237.70865 226.277899 238.646284 227.215534 
C 239.583919 228.153168 240.855803 228.68 242.181818 228.68 
z
" clip-path="url(#pfa1dc0afe1)" style="fill: #808080; fill-opacity: 0.6; stroke: #ffffff; stroke-opacity: 0.6; stroke-width: 2"/>
    <path d="M 242.181818 101.527449 
C 245.42988 101.527449 248.545346 100.23698 250.842072 97.940254 
C 253.138798 95.643528 254.429267 92.528061 254.429267 89.28 
C 254.429267 86.031939 253.138798 82.916472 250.842072 80.619746 
C 248.545346 78.32302 245.42988 77.032551 242.181818 77.032551 
C 238.933757 77.032551 235.81829 78.32302 233.521564 80.619746 
C 231.224838 82.916472 229.934369 86.031939 229.934369 89.28 
C 229.934369 92.528061 231.224838 95.643528 233.521564 97.940254 
C 235.81829 100.23698 238.933757 101.527449 242.181818 101.527449 
z
" clip-path="url(#pfa1dc0afe1)" style="fill: #808080; fill-opacity: 0.6; stroke: #ffffff; stroke-opacity: 0.6; stroke-width: 2"/>
    <path d="M 242.181818 100.46034 
C 245.146879 100.46034 247.990898 99.282309 250.087512 97.185694 
C 252.184127 95.08908 253.362158 92.245061 253.362158 89.28 
C 253.362158 86.314939 252.184127 83.47092 250.087512 81.374306 
C 247.990898 79.277691 245.146879 78.09966 242.181818 78.09966 
C 239.216757 78.09966 236.372739 79.277691 234.276124 81.374306 
C 232.179509 83.47092 231.001478 86.314939 231.001478 89.28 
C 231.001478 92.245061 232.179509 95.08908 234.276124 97.185694 
C 236.372739 99.282309 239.216757 100.46034 242.181818 100.46034 
z
" clip-path="url(#pfa1dc0afe1)" style="fill: #ff0000; fill-opacity: 0.6; stroke: #ffffff; stroke-opacity: 0.6; stroke-width: 2"/>
    <path d="M 369 497.48 
C 370.326015 497.48 371.597899 496.953168 372.535534 496.015534 
C 373.473168 495.077899 374 493.806016 374 492.48 
C 374 491.153985 373.473168 489.882101 372.535534 488.944466 
C 371.597899 488.006832 370.326015 487.48 369 487.48 
C 367.673985 487.48 366.402101 488.006832 365.464466 488.944466 
C 364.526832 489.882101 364 491.153985 364 492.48 
C 364 493.806016 364.526832 495.077899 365.464466 496.015534 
C 366.402101 496.953168 367.673985 497.48 369 497.48 
z
" clip-path="url(#pfa1dc0afe1)" style="fill: #808080; fill-opacity: 0.6; stroke: #ffffff; stroke-opacity: 0.6; stroke-width: 2"/>
    <path d="M 369 497.48 
C 370.326015 497.48 371.597899 496.953168 372.535534 496.015534 
C 373.473168 495.077899 374 493.806016 374 492.48 
C 374 491.153985 373.473168 489.882101 372.535534 488.944466 
C 371.597899 488.006832 370.326015 487.48 369 487.48 
C 367.673985 487.48 366.402101 488.006832 365.464466 488.944466 
C 364.526832 489.882101 364 491.153985 364 492.48 
C 364 493.806016 364.526832 495.077899 365.464466 496.015534 
C 366.402101 496.953168 367.673985 497.48 369 497.48 
z
" clip-path="url(#pfa1dc0afe1)" style="fill: #ff0000; fill-opacity: 0.6; stroke: #ffffff; stroke-opacity: 0.6; stroke-width: 2"/>
    <path d="M 369 497.48 
C 370.326015 497.48 371.597899 496.953168 372.535534 496.015534 
C 373.473168 495.077899 374 493.806016 374 492.48 
C 374 491.153985 373.473168 489.882101 372.535534 488.944466 
C 371.597899 488.006832 370.326015 487.48 369 487.48 
C 367.673985 487.48 366.402101 488.006832 365.464466 488.944466 
C 364.526832 489.882101 364 491.153985 364 492.48 
C 364 493.806016 364.526832 495.077899 365.464466 496.015534 
C 366.402101 496.953168 367.673985 497.48 369 497.48 
z
" clip-path="url(#pfa1dc0afe1)" style="fill: #808080; fill-opacity: 0.6; stroke: #ffffff; stroke-opacity: 0.6; stroke-width: 2"/>
    <path d="M 369 497.48 
C 370.326015 497.48 371.597899 496.953168 372.535534 496.015534 
C 373.473168 495.077899 374 493.806016 374 492.48 
C 374 491.153985 373.473168 489.882101 372.535534 488.944466 
C 371.597899 488.006832 370.326015 487.48 369 487.48 
C 367.673985 487.48 366.402101 488.006832 365.464466 488.944466 
C 364.526832 489.882101 364 491.153985 364 492.48 
C 364 493.806016 364.526832 495.077899 365.464466 496.015534 
C 366.402101 496.953168 367.673985 497.48 369 497.48 
z
" clip-path="url(#pfa1dc0afe1)" style="fill: #808080; fill-opacity: 0.6; stroke: #ffffff; stroke-opacity: 0.6; stroke-width: 2"/>
    <path d="M 369 363.08 
C 370.326015 363.08 371.597899 362.553168 372.535534 361.615534 
C 373.473168 360.677899 374 359.406015 374 358.08 
C 374 356.753985 373.473168 355.482101 372.535534 354.544466 
C 371.597899 353.606832 370.326015 353.08 369 353.08 
C 367.673985 353.08 366.402101 353.606832 365.464466 354.544466 
C 364.526832 355.482101 364 356.753985 364 358.08 
C 364 359.406015 364.526832 360.677899 365.464466 361.615534 
C 366.402101 362.553168 367.673985 363.08 369 363.08 
z
" clip-path="url(#pfa1dc0afe1)" style="fill: #ff0000; fill-opacity: 0.6; stroke: #ffffff; stroke-opacity: 0.6; stroke-width: 2"/>
    <path d="M 495.818182 497.48 
C 497.144197 497.48 498.416081 496.953168 499.353716 496.015534 
C 500.29135 495.077899 500.818182 493.806016 500.818182 492.48 
C 500.818182 491.153985 500.29135 489.882101 499.353716 488.944466 
C 498.416081 488.006832 497.144197 487.48 495.818182 487.48 
C 494.492166 487.48 493.220282 488.006832 492.282648 488.944466 
C 491.345013 489.882101 490.818182 491.153985 490.818182 492.48 
C 490.818182 493.806016 491.345013 495.077899 492.282648 496.015534 
C 493.220282 496.953168 494.492166 497.48 495.818182 497.48 
z
" clip-path="url(#pfa1dc0afe1)" style="fill: #ff0000; fill-opacity: 0.6; stroke: #ffffff; stroke-opacity: 0.6; stroke-width: 2"/>
    <path d="M 495.818182 497.48 
C 497.144197 497.48 498.416081 496.953168 499.353716 496.015534 
C 500.29135 495.077899 500.818182 493.806016 500.818182 492.48 
C 500.818182 491.153985 500.29135 489.882101 499.353716 488.944466 
C 498.416081 488.006832 497.144197 487.48 495.818182 487.48 
C 494.492166 487.48 493.220282 488.006832 492.282648 488.944466 
C 491.345013 489.882101 490.818182 491.153985 490.818182 492.48 
C 490.818182 493.806016 491.345013 495.077899 492.282648 496.015534 
C 493.220282 496.953168 494.492166 497.48 495.818182 497.48 
z
" clip-path="url(#pfa1dc0afe1)" style="fill: #808080; fill-opacity: 0.6; stroke: #ffffff; stroke-opacity: 0.6; stroke-width: 2"/>
    <path d="M 495.818182 365.151068 
C 497.693451 365.151068 499.492166 364.406015 500.818182 363.08 
C 502.144197 361.753985 502.88925 359.955269 502.88925 358.08 
C 502.88925 356.204731 502.144197 354.406015 500.818182 353.08 
C 499.492166 351.753985 497.693451 351.008932 495.818182 351.008932 
C 493.942913 351.008932 492.144197 351.753985 490.818182 353.08 
C 489.492166 354.406015 488.747114 356.204731 488.747114 358.08 
C 488.747114 359.955269 489.492166 361.753985 490.818182 363.08 
C 492.144197 364.406015 493.942913 365.151068 495.818182 365.151068 
z
" clip-path="url(#pfa1dc0afe1)" style="fill: #ff0000; fill-opacity: 0.6; stroke: #ffffff; stroke-opacity: 0.6; stroke-width: 2"/>
    <path d="M 495.818182 363.08 
C 497.144197 363.08 498.416081 362.553168 499.353716 361.615534 
C 500.29135 360.677899 500.818182 359.406015 500.818182 358.08 
C 500.818182 356.753985 500.29135 355.482101 499.353716 354.544466 
C 498.416081 353.606832 497.144197 353.08 495.818182 353.08 
C 494.492166 353.08 493.220282 353.606832 492.282648 354.544466 
C 491.345013 355.482101 490.818182 356.753985 490.818182 358.08 
C 490.818182 359.406015 491.345013 360.677899 492.282648 361.615534 
C 493.220282 362.553168 494.492166 363.08 495.818182 363.08 
z
" clip-path="url(#pfa1dc0afe1)" style="fill: #808080; fill-opacity: 0.6; stroke: #ffffff; stroke-opacity: 0.6; stroke-width: 2"/>
    <path d="M 622.636364 513.693203 
C 628.262171 513.693203 633.658317 511.458047 637.636364 507.48 
C 641.61441 503.501954 643.849567 498.105807 643.849567 492.48 
C 643.849567 486.854193 641.61441 481.458047 637.636364 477.48 
C 633.658317 473.501954 628.262171 471.266797 622.636364 471.266797 
C 617.010556 471.266797 611.61441 473.501954 607.636364 477.48 
C 603.658317 481.458047 601.42316 486.854193 601.42316 492.48 
C 601.42316 498.105807 603.658317 503.501954 607.636364 507.48 
C 611.61441 511.458047 617.010556 513.693203 622.636364 513.693203 
z
" clip-path="url(#pfa1dc0afe1)" style="fill: #808080; fill-opacity: 0.6; stroke: #ffffff; stroke-opacity: 0.6; stroke-width: 2"/>
    <path d="M 622.636364 509.800508 
C 627.229816 509.800508 631.635751 507.97551 634.883812 504.727449 
C 638.131874 501.479387 639.956872 497.073452 639.956872 492.48 
C 639.956872 487.886548 638.131874 483.480613 634.883812 480.232551 
C 631.635751 476.98449 627.229816 475.159492 622.636364 475.159492 
C 618.042911 475.159492 613.636976 476.98449 610.388915 480.232551 
C 607.140854 483.480613 605.315856 487.886548 605.315856 492.48 
C 605.315856 497.073452 607.140854 501.479387 610.388915 504.727449 
C 613.636976 507.97551 618.042911 509.800508 622.636364 509.800508 
z
" clip-path="url(#pfa1dc0afe1)" style="fill: #ff0000; fill-opacity: 0.6; stroke: #ffffff; stroke-opacity: 0.6; stroke-width: 2"/>
    <path d="M 622.636364 502.48 
C 625.288395 502.48 627.832162 501.426337 629.707431 499.551068 
C 631.582701 497.675799 632.636364 495.132031 632.636364 492.48 
C 632.636364 489.827969 631.582701 487.284201 629.707431 485.408932 
C 627.832162 483.533663 625.288395 482.48 622.636364 482.48 
C 619.984333 482.48 617.440565 483.533663 615.565296 485.408932 
C 613.690027 487.284201 612.636364 489.827969 612.636364 492.48 
C 612.636364 495.132031 613.690027 497.675799 615.565296 499.551068 
C 617.440565 501.426337 619.984333 502.48 622.636364 502.48 
z
" clip-path="url(#pfa1dc0afe1)" style="fill: #808080; fill-opacity: 0.6; stroke: #ffffff; stroke-opacity: 0.6; stroke-width: 2"/>
    <path d="M 622.636364 497.48 
C 623.962379 497.48 625.234263 496.953168 626.171898 496.015534 
C 627.109532 495.077899 627.636364 493.806016 627.636364 492.48 
C 627.636364 491.153985 627.109532 489.882101 626.171898 488.944466 
C 625.234263 488.006832 623.962379 487.48 622.636364 487.48 
C 621.310348 487.48 620.038464 488.006832 619.10083 488.944466 
C 618.163195 489.882101 617.636364 491.153985 617.636364 492.48 
C 617.636364 493.806016 618.163195 495.077899 619.10083 496.015534 
C 620.038464 496.953168 621.310348 497.48 622.636364 497.48 
z
" clip-path="url(#pfa1dc0afe1)" style="fill: #808080; fill-opacity: 0.6; stroke: #ffffff; stroke-opacity: 0.6; stroke-width: 2"/>
    <path d="M 622.636364 363.08 
C 623.962379 363.08 625.234263 362.553168 626.171898 361.615534 
C 627.109532 360.677899 627.636364 359.406015 627.636364 358.08 
C 627.636364 356.753985 627.109532 355.482101 626.171898 354.544466 
C 625.234263 353.606832 623.962379 353.08 622.636364 353.08 
C 621.310348 353.08 620.038464 353.606832 619.10083 354.544466 
C 618.163195 355.482101 617.636364 356.753985 617.636364 358.08 
C 617.636364 359.406015 618.163195 360.677899 619.10083 361.615534 
C 620.038464 362.553168 621.310348 363.08 622.636364 363.08 
z
" clip-path="url(#pfa1dc0afe1)" style="fill: #808080; fill-opacity: 0.6; stroke: #ffffff; stroke-opacity: 0.6; stroke-width: 2"/>
    <path d="M 622.636364 366.740254 
C 624.93309 366.740254 627.136057 365.827755 628.760088 364.203724 
C 630.384119 362.579694 631.296618 360.376726 631.296618 358.08 
C 631.296618 355.783274 630.384119 353.580306 628.760088 351.956276 
C 627.136057 350.332245 624.93309 349.419746 622.636364 349.419746 
C 620.339637 349.419746 618.13667 350.332245 616.512639 351.956276 
C 614.888609 353.580306 613.97611 355.783274 613.97611 358.08 
C 613.97611 360.376726 614.888609 362.579694 616.512639 364.203724 
C 618.13667 365.827755 620.339637 366.740254 622.636364 366.740254 
z
" clip-path="url(#pfa1dc0afe1)" style="fill: #ff0000; fill-opacity: 0.6; stroke: #ffffff; stroke-opacity: 0.6; stroke-width: 2"/>
    <path d="M 622.636364 365.151068 
C 624.511633 365.151068 626.310348 364.406015 627.636364 363.08 
C 628.962379 361.753985 629.707431 359.955269 629.707431 358.08 
C 629.707431 356.204731 628.962379 354.406015 627.636364 353.08 
C 626.310348 351.753985 624.511633 351.008932 622.636364 351.008932 
C 620.761095 351.008932 618.962379 351.753985 617.636364 353.08 
C 616.310348 354.406015 615.565296 356.204731 615.565296 358.08 
C 615.565296 359.955269 616.310348 361.753985 617.636364 363.08 
C 618.962379 364.406015 620.761095 365.151068 622.636364 365.151068 
z
" clip-path="url(#pfa1dc0afe1)" style="fill: #808080; fill-opacity: 0.6; stroke: #ffffff; stroke-opacity: 0.6; stroke-width: 2"/>
    <path d="M 622.636364 232.340254 
C 624.93309 232.340254 627.136057 231.427755 628.760088 229.803724 
C 630.384119 228.179694 631.296618 225.976726 631.296618 223.68 
C 631.296618 221.383274 630.384119 219.180306 628.760088 217.556276 
C 627.136057 215.932245 624.93309 215.019746 622.636364 215.019746 
C 620.339637 215.019746 618.13667 215.932245 616.512639 217.556276 
C 614.888609 219.180306 613.97611 221.383274 613.97611 223.68 
C 613.97611 225.976726 614.888609 228.179694 616.512639 229.803724 
C 618.13667 231.427755 620.339637 232.340254 622.636364 232.340254 
z
" clip-path="url(#pfa1dc0afe1)" style="fill: #808080; fill-opacity: 0.6; stroke: #ffffff; stroke-opacity: 0.6; stroke-width: 2"/>
    <path d="M 622.636364 232.340254 
C 624.93309 232.340254 627.136057 231.427755 628.760088 229.803724 
C 630.384119 228.179694 631.296618 225.976726 631.296618 223.68 
C 631.296618 221.383274 630.384119 219.180306 628.760088 217.556276 
C 627.136057 215.932245 624.93309 215.019746 622.636364 215.019746 
C 620.339637 215.019746 618.13667 215.932245 616.512639 217.556276 
C 614.888609 219.180306 613.97611 221.383274 613.97611 223.68 
C 613.97611 225.976726 614.888609 228.179694 616.512639 229.803724 
C 618.13667 231.427755 620.339637 232.340254 622.636364 232.340254 
z
" clip-path="url(#pfa1dc0afe1)" style="fill: #ff0000; fill-opacity: 0.6; stroke: #ffffff; stroke-opacity: 0.6; stroke-width: 2"/>
    <path d="M 622.636364 97.940254 
C 624.93309 97.940254 627.136057 97.027755 628.760088 95.403724 
C 630.384119 93.779694 631.296618 91.576726 631.296618 89.28 
C 631.296618 86.983274 630.384119 84.780306 628.760088 83.156276 
C 627.136057 81.532245 624.93309 80.619746 622.636364 80.619746 
C 620.339637 80.619746 618.13667 81.532245 616.512639 83.156276 
C 614.888609 84.780306 613.97611 86.983274 613.97611 89.28 
C 613.97611 91.576726 614.888609 93.779694 616.512639 95.403724 
C 618.13667 97.027755 620.339637 97.940254 622.636364 97.940254 
z
" clip-path="url(#pfa1dc0afe1)" style="fill: #808080; fill-opacity: 0.6; stroke: #ffffff; stroke-opacity: 0.6; stroke-width: 2"/>
    <path d="M 622.636364 96.351068 
C 624.511633 96.351068 626.310348 95.606015 627.636364 94.28 
C 628.962379 92.953984 629.707431 91.155269 629.707431 89.28 
C 629.707431 87.404731 628.962379 85.606015 627.636364 84.28 
C 626.310348 82.953984 624.511633 82.208932 622.636364 82.208932 
C 620.761095 82.208932 618.962379 82.953984 617.636364 84.28 
C 616.310348 85.606015 615.565296 87.404731 615.565296 89.28 
C 615.565296 91.155269 616.310348 92.953984 617.636364 94.28 
C 618.962379 95.606015 620.761095 96.351068 622.636364 96.351068 
z
" clip-path="url(#pfa1dc0afe1)" style="fill: #ff0000; fill-opacity: 0.6; stroke: #ffffff; stroke-opacity: 0.6; stroke-width: 2"/>
    <path d="M 622.636364 96.351068 
C 624.511633 96.351068 626.310348 95.606015 627.636364 94.28 
C 628.962379 92.953984 629.707431 91.155269 629.707431 89.28 
C 629.707431 87.404731 628.962379 85.606015 627.636364 84.28 
C 626.310348 82.953984 624.511633 82.208932 622.636364 82.208932 
C 620.761095 82.208932 618.962379 82.953984 617.636364 84.28 
C 616.310348 85.606015 615.565296 87.404731 615.565296 89.28 
C 615.565296 91.155269 616.310348 92.953984 617.636364 94.28 
C 618.962379 95.606015 620.761095 96.351068 622.636364 96.351068 
z
" clip-path="url(#pfa1dc0afe1)" style="fill: #808080; fill-opacity: 0.6; stroke: #ffffff; stroke-opacity: 0.6; stroke-width: 2"/>
   </g>
   <g id="matplotlib.axis_1">
    <g id="xtick_1">
     <g id="line2d_1">
      <path d="M 115.363636 512.64 
L 115.363636 69.12 
" clip-path="url(#pfa1dc0afe1)" style="fill: none; stroke: #b0b0b0; stroke-width: 0.8; stroke-linecap: square"/>
     </g>
     <g id="line2d_2">
      <defs>
       <path id="mf237122c88" d="M 0 0 
L 0 3.5 
" style="stroke: #000000; stroke-width: 0.8"/>
      </defs>
      <g>
       <use xlink:href="#mf237122c88" x="115.363636" y="512.64" style="stroke: #000000; stroke-width: 0.8"/>
      </g>
     </g>
     <g id="text_1">
      <!-- Application -->
      <g transform="translate(87.426136 527.238438) scale(0.1 -0.1)">
       <defs>
        <path id="DejaVuSans-41" d="M 2188 4044 
L 1331 1722 
L 3047 1722 
L 2188 4044 
z
M 1831 4666 
L 2547 4666 
L 4325 0 
L 3669 0 
L 3244 1197 
L 1141 1197 
L 716 0 
L 50 0 
L 1831 4666 
z
" transform="scale(0.015625)"/>
        <path id="DejaVuSans-70" d="M 1159 525 
L 1159 -1331 
L 581 -1331 
L 581 3500 
L 1159 3500 
L 1159 2969 
Q 1341 3281 1617 3432 
Q 1894 3584 2278 3584 
Q 2916 3584 3314 3078 
Q 3713 2572 3713 1747 
Q 3713 922 3314 415 
Q 2916 -91 2278 -91 
Q 1894 -91 1617 61 
Q 1341 213 1159 525 
z
M 3116 1747 
Q 3116 2381 2855 2742 
Q 2594 3103 2138 3103 
Q 1681 3103 1420 2742 
Q 1159 2381 1159 1747 
Q 1159 1113 1420 752 
Q 1681 391 2138 391 
Q 2594 391 2855 752 
Q 3116 1113 3116 1747 
z
" transform="scale(0.015625)"/>
        <path id="DejaVuSans-6c" d="M 603 4863 
L 1178 4863 
L 1178 0 
L 603 0 
L 603 4863 
z
" transform="scale(0.015625)"/>
        <path id="DejaVuSans-69" d="M 603 3500 
L 1178 3500 
L 1178 0 
L 603 0 
L 603 3500 
z
M 603 4863 
L 1178 4863 
L 1178 4134 
L 603 4134 
L 603 4863 
z
" transform="scale(0.015625)"/>
        <path id="DejaVuSans-63" d="M 3122 3366 
L 3122 2828 
Q 2878 2963 2633 3030 
Q 2388 3097 2138 3097 
Q 1578 3097 1268 2742 
Q 959 2388 959 1747 
Q 959 1106 1268 751 
Q 1578 397 2138 397 
Q 2388 397 2633 464 
Q 2878 531 3122 666 
L 3122 134 
Q 2881 22 2623 -34 
Q 2366 -91 2075 -91 
Q 1284 -91 818 406 
Q 353 903 353 1747 
Q 353 2603 823 3093 
Q 1294 3584 2113 3584 
Q 2378 3584 2631 3529 
Q 2884 3475 3122 3366 
z
" transform="scale(0.015625)"/>
        <path id="DejaVuSans-61" d="M 2194 1759 
Q 1497 1759 1228 1600 
Q 959 1441 959 1056 
Q 959 750 1161 570 
Q 1363 391 1709 391 
Q 2188 391 2477 730 
Q 2766 1069 2766 1631 
L 2766 1759 
L 2194 1759 
z
M 3341 1997 
L 3341 0 
L 2766 0 
L 2766 531 
Q 2569 213 2275 61 
Q 1981 -91 1556 -91 
Q 1019 -91 701 211 
Q 384 513 384 1019 
Q 384 1609 779 1909 
Q 1175 2209 1959 2209 
L 2766 2209 
L 2766 2266 
Q 2766 2663 2505 2880 
Q 2244 3097 1772 3097 
Q 1472 3097 1187 3025 
Q 903 2953 641 2809 
L 641 3341 
Q 956 3463 1253 3523 
Q 1550 3584 1831 3584 
Q 2591 3584 2966 3190 
Q 3341 2797 3341 1997 
z
" transform="scale(0.015625)"/>
        <path id="DejaVuSans-74" d="M 1172 4494 
L 1172 3500 
L 2356 3500 
L 2356 3053 
L 1172 3053 
L 1172 1153 
Q 1172 725 1289 603 
Q 1406 481 1766 481 
L 2356 481 
L 2356 0 
L 1766 0 
Q 1100 0 847 248 
Q 594 497 594 1153 
L 594 3053 
L 172 3053 
L 172 3500 
L 594 3500 
L 594 4494 
L 1172 4494 
z
" transform="scale(0.015625)"/>
        <path id="DejaVuSans-6f" d="M 1959 3097 
Q 1497 3097 1228 2736 
Q 959 2375 959 1747 
Q 959 1119 1226 758 
Q 1494 397 1959 397 
Q 2419 397 2687 759 
Q 2956 1122 2956 1747 
Q 2956 2369 2687 2733 
Q 2419 3097 1959 3097 
z
M 1959 3584 
Q 2709 3584 3137 3096 
Q 3566 2609 3566 1747 
Q 3566 888 3137 398 
Q 2709 -91 1959 -91 
Q 1206 -91 779 398 
Q 353 888 353 1747 
Q 353 2609 779 3096 
Q 1206 3584 1959 3584 
z
" transform="scale(0.015625)"/>
        <path id="DejaVuSans-6e" d="M 3513 2113 
L 3513 0 
L 2938 0 
L 2938 2094 
Q 2938 2591 2744 2837 
Q 2550 3084 2163 3084 
Q 1697 3084 1428 2787 
Q 1159 2491 1159 1978 
L 1159 0 
L 581 0 
L 581 3500 
L 1159 3500 
L 1159 2956 
Q 1366 3272 1645 3428 
Q 1925 3584 2291 3584 
Q 2894 3584 3203 3211 
Q 3513 2838 3513 2113 
z
" transform="scale(0.015625)"/>
       </defs>
       <use xlink:href="#DejaVuSans-41"/>
       <use xlink:href="#DejaVuSans-70" x="68.408203"/>
       <use xlink:href="#DejaVuSans-70" x="131.884766"/>
       <use xlink:href="#DejaVuSans-6c" x="195.361328"/>
       <use xlink:href="#DejaVuSans-69" x="223.144531"/>
       <use xlink:href="#DejaVuSans-63" x="250.927734"/>
       <use xlink:href="#DejaVuSans-61" x="305.908203"/>
       <use xlink:href="#DejaVuSans-74" x="367.1875"/>
       <use xlink:href="#DejaVuSans-69" x="406.396484"/>
       <use xlink:href="#DejaVuSans-6f" x="434.179688"/>
       <use xlink:href="#DejaVuSans-6e" x="495.361328"/>
      </g>
     </g>
    </g>
    <g id="xtick_2">
     <g id="line2d_3">
      <path d="M 242.181818 512.64 
L 242.181818 69.12 
" clip-path="url(#pfa1dc0afe1)" style="fill: none; stroke: #b0b0b0; stroke-width: 0.8; stroke-linecap: square"/>
     </g>
     <g id="line2d_4">
      <g>
       <use xlink:href="#mf237122c88" x="242.181818" y="512.64" style="stroke: #000000; stroke-width: 0.8"/>
      </g>
     </g>
     <g id="text_2">
      <!-- Evaluation -->
      <g transform="translate(215.799787 527.238438) scale(0.1 -0.1)">
       <defs>
        <path id="DejaVuSans-45" d="M 628 4666 
L 3578 4666 
L 3578 4134 
L 1259 4134 
L 1259 2753 
L 3481 2753 
L 3481 2222 
L 1259 2222 
L 1259 531 
L 3634 531 
L 3634 0 
L 628 0 
L 628 4666 
z
" transform="scale(0.015625)"/>
        <path id="DejaVuSans-76" d="M 191 3500 
L 800 3500 
L 1894 563 
L 2988 3500 
L 3597 3500 
L 2284 0 
L 1503 0 
L 191 3500 
z
" transform="scale(0.015625)"/>
        <path id="DejaVuSans-75" d="M 544 1381 
L 544 3500 
L 1119 3500 
L 1119 1403 
Q 1119 906 1312 657 
Q 1506 409 1894 409 
Q 2359 409 2629 706 
Q 2900 1003 2900 1516 
L 2900 3500 
L 3475 3500 
L 3475 0 
L 2900 0 
L 2900 538 
Q 2691 219 2414 64 
Q 2138 -91 1772 -91 
Q 1169 -91 856 284 
Q 544 659 544 1381 
z
M 1991 3584 
L 1991 3584 
z
" transform="scale(0.015625)"/>
       </defs>
       <use xlink:href="#DejaVuSans-45"/>
       <use xlink:href="#DejaVuSans-76" x="63.183594"/>
       <use xlink:href="#DejaVuSans-61" x="122.363281"/>
       <use xlink:href="#DejaVuSans-6c" x="183.642578"/>
       <use xlink:href="#DejaVuSans-75" x="211.425781"/>
       <use xlink:href="#DejaVuSans-61" x="274.804688"/>
       <use xlink:href="#DejaVuSans-74" x="336.083984"/>
       <use xlink:href="#DejaVuSans-69" x="375.292969"/>
       <use xlink:href="#DejaVuSans-6f" x="403.076172"/>
       <use xlink:href="#DejaVuSans-6e" x="464.257812"/>
      </g>
     </g>
    </g>
    <g id="xtick_3">
     <g id="line2d_5">
      <path d="M 369 512.64 
L 369 69.12 
" clip-path="url(#pfa1dc0afe1)" style="fill: none; stroke: #b0b0b0; stroke-width: 0.8; stroke-linecap: square"/>
     </g>
     <g id="line2d_6">
      <g>
       <use xlink:href="#mf237122c88" x="369" y="512.64" style="stroke: #000000; stroke-width: 0.8"/>
      </g>
     </g>
     <g id="text_3">
      <!-- Model -->
      <g transform="translate(353.986719 527.238438) scale(0.1 -0.1)">
       <defs>
        <path id="DejaVuSans-4d" d="M 628 4666 
L 1569 4666 
L 2759 1491 
L 3956 4666 
L 4897 4666 
L 4897 0 
L 4281 0 
L 4281 4097 
L 3078 897 
L 2444 897 
L 1241 4097 
L 1241 0 
L 628 0 
L 628 4666 
z
" transform="scale(0.015625)"/>
        <path id="DejaVuSans-64" d="M 2906 2969 
L 2906 4863 
L 3481 4863 
L 3481 0 
L 2906 0 
L 2906 525 
Q 2725 213 2448 61 
Q 2172 -91 1784 -91 
Q 1150 -91 751 415 
Q 353 922 353 1747 
Q 353 2572 751 3078 
Q 1150 3584 1784 3584 
Q 2172 3584 2448 3432 
Q 2725 3281 2906 2969 
z
M 947 1747 
Q 947 1113 1208 752 
Q 1469 391 1925 391 
Q 2381 391 2643 752 
Q 2906 1113 2906 1747 
Q 2906 2381 2643 2742 
Q 2381 3103 1925 3103 
Q 1469 3103 1208 2742 
Q 947 2381 947 1747 
z
" transform="scale(0.015625)"/>
        <path id="DejaVuSans-65" d="M 3597 1894 
L 3597 1613 
L 953 1613 
Q 991 1019 1311 708 
Q 1631 397 2203 397 
Q 2534 397 2845 478 
Q 3156 559 3463 722 
L 3463 178 
Q 3153 47 2828 -22 
Q 2503 -91 2169 -91 
Q 1331 -91 842 396 
Q 353 884 353 1716 
Q 353 2575 817 3079 
Q 1281 3584 2069 3584 
Q 2775 3584 3186 3129 
Q 3597 2675 3597 1894 
z
M 3022 2063 
Q 3016 2534 2758 2815 
Q 2500 3097 2075 3097 
Q 1594 3097 1305 2825 
Q 1016 2553 972 2059 
L 3022 2063 
z
" transform="scale(0.015625)"/>
       </defs>
       <use xlink:href="#DejaVuSans-4d"/>
       <use xlink:href="#DejaVuSans-6f" x="86.279297"/>
       <use xlink:href="#DejaVuSans-64" x="147.460938"/>
       <use xlink:href="#DejaVuSans-65" x="210.9375"/>
       <use xlink:href="#DejaVuSans-6c" x="272.460938"/>
      </g>
     </g>
    </g>
    <g id="xtick_4">
     <g id="line2d_7">
      <path d="M 495.818182 512.64 
L 495.818182 69.12 
" clip-path="url(#pfa1dc0afe1)" style="fill: none; stroke: #b0b0b0; stroke-width: 0.8; stroke-linecap: square"/>
     </g>
     <g id="line2d_8">
      <g>
       <use xlink:href="#mf237122c88" x="495.818182" y="512.64" style="stroke: #000000; stroke-width: 0.8"/>
      </g>
     </g>
     <g id="text_4">
      <!-- System -->
      <g transform="translate(477.172869 527.238438) scale(0.1 -0.1)">
       <defs>
        <path id="DejaVuSans-53" d="M 3425 4513 
L 3425 3897 
Q 3066 4069 2747 4153 
Q 2428 4238 2131 4238 
Q 1616 4238 1336 4038 
Q 1056 3838 1056 3469 
Q 1056 3159 1242 3001 
Q 1428 2844 1947 2747 
L 2328 2669 
Q 3034 2534 3370 2195 
Q 3706 1856 3706 1288 
Q 3706 609 3251 259 
Q 2797 -91 1919 -91 
Q 1588 -91 1214 -16 
Q 841 59 441 206 
L 441 856 
Q 825 641 1194 531 
Q 1563 422 1919 422 
Q 2459 422 2753 634 
Q 3047 847 3047 1241 
Q 3047 1584 2836 1778 
Q 2625 1972 2144 2069 
L 1759 2144 
Q 1053 2284 737 2584 
Q 422 2884 422 3419 
Q 422 4038 858 4394 
Q 1294 4750 2059 4750 
Q 2388 4750 2728 4690 
Q 3069 4631 3425 4513 
z
" transform="scale(0.015625)"/>
        <path id="DejaVuSans-79" d="M 2059 -325 
Q 1816 -950 1584 -1140 
Q 1353 -1331 966 -1331 
L 506 -1331 
L 506 -850 
L 844 -850 
Q 1081 -850 1212 -737 
Q 1344 -625 1503 -206 
L 1606 56 
L 191 3500 
L 800 3500 
L 1894 763 
L 2988 3500 
L 3597 3500 
L 2059 -325 
z
" transform="scale(0.015625)"/>
        <path id="DejaVuSans-73" d="M 2834 3397 
L 2834 2853 
Q 2591 2978 2328 3040 
Q 2066 3103 1784 3103 
Q 1356 3103 1142 2972 
Q 928 2841 928 2578 
Q 928 2378 1081 2264 
Q 1234 2150 1697 2047 
L 1894 2003 
Q 2506 1872 2764 1633 
Q 3022 1394 3022 966 
Q 3022 478 2636 193 
Q 2250 -91 1575 -91 
Q 1294 -91 989 -36 
Q 684 19 347 128 
L 347 722 
Q 666 556 975 473 
Q 1284 391 1588 391 
Q 1994 391 2212 530 
Q 2431 669 2431 922 
Q 2431 1156 2273 1281 
Q 2116 1406 1581 1522 
L 1381 1569 
Q 847 1681 609 1914 
Q 372 2147 372 2553 
Q 372 3047 722 3315 
Q 1072 3584 1716 3584 
Q 2034 3584 2315 3537 
Q 2597 3491 2834 3397 
z
" transform="scale(0.015625)"/>
        <path id="DejaVuSans-6d" d="M 3328 2828 
Q 3544 3216 3844 3400 
Q 4144 3584 4550 3584 
Q 5097 3584 5394 3201 
Q 5691 2819 5691 2113 
L 5691 0 
L 5113 0 
L 5113 2094 
Q 5113 2597 4934 2840 
Q 4756 3084 4391 3084 
Q 3944 3084 3684 2787 
Q 3425 2491 3425 1978 
L 3425 0 
L 2847 0 
L 2847 2094 
Q 2847 2600 2669 2842 
Q 2491 3084 2119 3084 
Q 1678 3084 1418 2786 
Q 1159 2488 1159 1978 
L 1159 0 
L 581 0 
L 581 3500 
L 1159 3500 
L 1159 2956 
Q 1356 3278 1631 3431 
Q 1906 3584 2284 3584 
Q 2666 3584 2933 3390 
Q 3200 3197 3328 2828 
z
" transform="scale(0.015625)"/>
       </defs>
       <use xlink:href="#DejaVuSans-53"/>
       <use xlink:href="#DejaVuSans-79" x="63.476562"/>
       <use xlink:href="#DejaVuSans-73" x="122.65625"/>
       <use xlink:href="#DejaVuSans-74" x="174.755859"/>
       <use xlink:href="#DejaVuSans-65" x="213.964844"/>
       <use xlink:href="#DejaVuSans-6d" x="275.488281"/>
      </g>
     </g>
    </g>
    <g id="xtick_5">
     <g id="line2d_9">
      <path d="M 622.636364 512.64 
L 622.636364 69.12 
" clip-path="url(#pfa1dc0afe1)" style="fill: none; stroke: #b0b0b0; stroke-width: 0.8; stroke-linecap: square"/>
     </g>
     <g id="line2d_10">
      <g>
       <use xlink:href="#mf237122c88" x="622.636364" y="512.64" style="stroke: #000000; stroke-width: 0.8"/>
      </g>
     </g>
     <g id="text_5">
      <!-- Technique -->
      <g transform="translate(597.460582 527.238438) scale(0.1 -0.1)">
       <defs>
        <path id="DejaVuSans-54" d="M -19 4666 
L 3928 4666 
L 3928 4134 
L 2272 4134 
L 2272 0 
L 1638 0 
L 1638 4134 
L -19 4134 
L -19 4666 
z
" transform="scale(0.015625)"/>
        <path id="DejaVuSans-68" d="M 3513 2113 
L 3513 0 
L 2938 0 
L 2938 2094 
Q 2938 2591 2744 2837 
Q 2550 3084 2163 3084 
Q 1697 3084 1428 2787 
Q 1159 2491 1159 1978 
L 1159 0 
L 581 0 
L 581 4863 
L 1159 4863 
L 1159 2956 
Q 1366 3272 1645 3428 
Q 1925 3584 2291 3584 
Q 2894 3584 3203 3211 
Q 3513 2838 3513 2113 
z
" transform="scale(0.015625)"/>
        <path id="DejaVuSans-71" d="M 947 1747 
Q 947 1113 1208 752 
Q 1469 391 1925 391 
Q 2381 391 2643 752 
Q 2906 1113 2906 1747 
Q 2906 2381 2643 2742 
Q 2381 3103 1925 3103 
Q 1469 3103 1208 2742 
Q 947 2381 947 1747 
z
M 2906 525 
Q 2725 213 2448 61 
Q 2172 -91 1784 -91 
Q 1150 -91 751 415 
Q 353 922 353 1747 
Q 353 2572 751 3078 
Q 1150 3584 1784 3584 
Q 2172 3584 2448 3432 
Q 2725 3281 2906 2969 
L 2906 3500 
L 3481 3500 
L 3481 -1331 
L 2906 -1331 
L 2906 525 
z
" transform="scale(0.015625)"/>
       </defs>
       <use xlink:href="#DejaVuSans-54"/>
       <use xlink:href="#DejaVuSans-65" x="44.083984"/>
       <use xlink:href="#DejaVuSans-63" x="105.607422"/>
       <use xlink:href="#DejaVuSans-68" x="160.587891"/>
       <use xlink:href="#DejaVuSans-6e" x="223.966797"/>
       <use xlink:href="#DejaVuSans-69" x="287.345703"/>
       <use xlink:href="#DejaVuSans-71" x="315.128906"/>
       <use xlink:href="#DejaVuSans-75" x="378.605469"/>
       <use xlink:href="#DejaVuSans-65" x="441.984375"/>
      </g>
     </g>
    </g>
    <g id="text_6">
     <!-- evaluation -->
     <g transform="translate(342.700781 540.916563) scale(0.1 -0.1)">
      <use xlink:href="#DejaVuSans-65"/>
      <use xlink:href="#DejaVuSans-76" x="61.523438"/>
      <use xlink:href="#DejaVuSans-61" x="120.703125"/>
      <use xlink:href="#DejaVuSans-6c" x="181.982422"/>
      <use xlink:href="#DejaVuSans-75" x="209.765625"/>
      <use xlink:href="#DejaVuSans-61" x="273.144531"/>
      <use xlink:href="#DejaVuSans-74" x="334.423828"/>
      <use xlink:href="#DejaVuSans-69" x="373.632812"/>
      <use xlink:href="#DejaVuSans-6f" x="401.416016"/>
      <use xlink:href="#DejaVuSans-6e" x="462.597656"/>
     </g>
    </g>
   </g>
   <g id="matplotlib.axis_2">
    <g id="ytick_1">
     <g id="line2d_11">
      <path d="M 90 492.48 
L 648 492.48 
" clip-path="url(#pfa1dc0afe1)" style="fill: none; stroke: #b0b0b0; stroke-width: 0.8; stroke-linecap: square"/>
     </g>
     <g id="line2d_12">
      <defs>
       <path id="m7fb35a11d4" d="M 0 0 
L -3.5 0 
" style="stroke: #000000; stroke-width: 0.8"/>
      </defs>
      <g>
       <use xlink:href="#m7fb35a11d4" x="90" y="492.48" style="stroke: #000000; stroke-width: 0.8"/>
      </g>
     </g>
     <g id="text_7">
      <!-- Algorithm Performance -->
      <g transform="translate(-32.515625 496.279219) scale(0.1 -0.1)">
       <defs>
        <path id="DejaVuSans-67" d="M 2906 1791 
Q 2906 2416 2648 2759 
Q 2391 3103 1925 3103 
Q 1463 3103 1205 2759 
Q 947 2416 947 1791 
Q 947 1169 1205 825 
Q 1463 481 1925 481 
Q 2391 481 2648 825 
Q 2906 1169 2906 1791 
z
M 3481 434 
Q 3481 -459 3084 -895 
Q 2688 -1331 1869 -1331 
Q 1566 -1331 1297 -1286 
Q 1028 -1241 775 -1147 
L 775 -588 
Q 1028 -725 1275 -790 
Q 1522 -856 1778 -856 
Q 2344 -856 2625 -561 
Q 2906 -266 2906 331 
L 2906 616 
Q 2728 306 2450 153 
Q 2172 0 1784 0 
Q 1141 0 747 490 
Q 353 981 353 1791 
Q 353 2603 747 3093 
Q 1141 3584 1784 3584 
Q 2172 3584 2450 3431 
Q 2728 3278 2906 2969 
L 2906 3500 
L 3481 3500 
L 3481 434 
z
" transform="scale(0.015625)"/>
        <path id="DejaVuSans-72" d="M 2631 2963 
Q 2534 3019 2420 3045 
Q 2306 3072 2169 3072 
Q 1681 3072 1420 2755 
Q 1159 2438 1159 1844 
L 1159 0 
L 581 0 
L 581 3500 
L 1159 3500 
L 1159 2956 
Q 1341 3275 1631 3429 
Q 1922 3584 2338 3584 
Q 2397 3584 2469 3576 
Q 2541 3569 2628 3553 
L 2631 2963 
z
" transform="scale(0.015625)"/>
        <path id="DejaVuSans-20" transform="scale(0.015625)"/>
        <path id="DejaVuSans-50" d="M 1259 4147 
L 1259 2394 
L 2053 2394 
Q 2494 2394 2734 2622 
Q 2975 2850 2975 3272 
Q 2975 3691 2734 3919 
Q 2494 4147 2053 4147 
L 1259 4147 
z
M 628 4666 
L 2053 4666 
Q 2838 4666 3239 4311 
Q 3641 3956 3641 3272 
Q 3641 2581 3239 2228 
Q 2838 1875 2053 1875 
L 1259 1875 
L 1259 0 
L 628 0 
L 628 4666 
z
" transform="scale(0.015625)"/>
        <path id="DejaVuSans-66" d="M 2375 4863 
L 2375 4384 
L 1825 4384 
Q 1516 4384 1395 4259 
Q 1275 4134 1275 3809 
L 1275 3500 
L 2222 3500 
L 2222 3053 
L 1275 3053 
L 1275 0 
L 697 0 
L 697 3053 
L 147 3053 
L 147 3500 
L 697 3500 
L 697 3744 
Q 697 4328 969 4595 
Q 1241 4863 1831 4863 
L 2375 4863 
z
" transform="scale(0.015625)"/>
       </defs>
       <use xlink:href="#DejaVuSans-41"/>
       <use xlink:href="#DejaVuSans-6c" x="68.408203"/>
       <use xlink:href="#DejaVuSans-67" x="96.191406"/>
       <use xlink:href="#DejaVuSans-6f" x="159.667969"/>
       <use xlink:href="#DejaVuSans-72" x="220.849609"/>
       <use xlink:href="#DejaVuSans-69" x="261.962891"/>
       <use xlink:href="#DejaVuSans-74" x="289.746094"/>
       <use xlink:href="#DejaVuSans-68" x="328.955078"/>
       <use xlink:href="#DejaVuSans-6d" x="392.333984"/>
       <use xlink:href="#DejaVuSans-20" x="489.746094"/>
       <use xlink:href="#DejaVuSans-50" x="521.533203"/>
       <use xlink:href="#DejaVuSans-65" x="578.210938"/>
       <use xlink:href="#DejaVuSans-72" x="639.734375"/>
       <use xlink:href="#DejaVuSans-66" x="680.847656"/>
       <use xlink:href="#DejaVuSans-6f" x="716.052734"/>
       <use xlink:href="#DejaVuSans-72" x="777.234375"/>
       <use xlink:href="#DejaVuSans-6d" x="816.597656"/>
       <use xlink:href="#DejaVuSans-61" x="914.009766"/>
       <use xlink:href="#DejaVuSans-6e" x="975.289062"/>
       <use xlink:href="#DejaVuSans-63" x="1038.667969"/>
       <use xlink:href="#DejaVuSans-65" x="1093.648438"/>
      </g>
     </g>
    </g>
    <g id="ytick_2">
     <g id="line2d_13">
      <path d="M 90 358.08 
L 648 358.08 
" clip-path="url(#pfa1dc0afe1)" style="fill: none; stroke: #b0b0b0; stroke-width: 0.8; stroke-linecap: square"/>
     </g>
     <g id="line2d_14">
      <g>
       <use xlink:href="#m7fb35a11d4" x="90" y="358.08" style="stroke: #000000; stroke-width: 0.8"/>
      </g>
     </g>
     <g id="text_8">
      <!-- Environment and Practices -->
      <g transform="translate(-51.16875 361.879219) scale(0.1 -0.1)">
       <use xlink:href="#DejaVuSans-45"/>
       <use xlink:href="#DejaVuSans-6e" x="63.183594"/>
       <use xlink:href="#DejaVuSans-76" x="126.5625"/>
       <use xlink:href="#DejaVuSans-69" x="185.742188"/>
       <use xlink:href="#DejaVuSans-72" x="213.525391"/>
       <use xlink:href="#DejaVuSans-6f" x="252.388672"/>
       <use xlink:href="#DejaVuSans-6e" x="313.570312"/>
       <use xlink:href="#DejaVuSans-6d" x="376.949219"/>
       <use xlink:href="#DejaVuSans-65" x="474.361328"/>
       <use xlink:href="#DejaVuSans-6e" x="535.884766"/>
       <use xlink:href="#DejaVuSans-74" x="599.263672"/>
       <use xlink:href="#DejaVuSans-20" x="638.472656"/>
       <use xlink:href="#DejaVuSans-61" x="670.259766"/>
       <use xlink:href="#DejaVuSans-6e" x="731.539062"/>
       <use xlink:href="#DejaVuSans-64" x="794.917969"/>
       <use xlink:href="#DejaVuSans-20" x="858.394531"/>
       <use xlink:href="#DejaVuSans-50" x="890.181641"/>
       <use xlink:href="#DejaVuSans-72" x="948.734375"/>
       <use xlink:href="#DejaVuSans-61" x="989.847656"/>
       <use xlink:href="#DejaVuSans-63" x="1051.126953"/>
       <use xlink:href="#DejaVuSans-74" x="1106.107422"/>
       <use xlink:href="#DejaVuSans-69" x="1145.316406"/>
       <use xlink:href="#DejaVuSans-63" x="1173.099609"/>
       <use xlink:href="#DejaVuSans-65" x="1228.080078"/>
       <use xlink:href="#DejaVuSans-73" x="1289.603516"/>
      </g>
     </g>
    </g>
    <g id="ytick_3">
     <g id="line2d_15">
      <path d="M 90 223.68 
L 648 223.68 
" clip-path="url(#pfa1dc0afe1)" style="fill: none; stroke: #b0b0b0; stroke-width: 0.8; stroke-linecap: square"/>
     </g>
     <g id="line2d_16">
      <g>
       <use xlink:href="#m7fb35a11d4" x="90" y="223.68" style="stroke: #000000; stroke-width: 0.8"/>
      </g>
     </g>
     <g id="text_9">
      <!-- User Performance -->
      <g transform="translate(-6.334375 227.479219) scale(0.1 -0.1)">
       <defs>
        <path id="DejaVuSans-55" d="M 556 4666 
L 1191 4666 
L 1191 1831 
Q 1191 1081 1462 751 
Q 1734 422 2344 422 
Q 2950 422 3222 751 
Q 3494 1081 3494 1831 
L 3494 4666 
L 4128 4666 
L 4128 1753 
Q 4128 841 3676 375 
Q 3225 -91 2344 -91 
Q 1459 -91 1007 375 
Q 556 841 556 1753 
L 556 4666 
z
" transform="scale(0.015625)"/>
       </defs>
       <use xlink:href="#DejaVuSans-55"/>
       <use xlink:href="#DejaVuSans-73" x="73.193359"/>
       <use xlink:href="#DejaVuSans-65" x="125.292969"/>
       <use xlink:href="#DejaVuSans-72" x="186.816406"/>
       <use xlink:href="#DejaVuSans-20" x="227.929688"/>
       <use xlink:href="#DejaVuSans-50" x="259.716797"/>
       <use xlink:href="#DejaVuSans-65" x="316.394531"/>
       <use xlink:href="#DejaVuSans-72" x="377.917969"/>
       <use xlink:href="#DejaVuSans-66" x="419.03125"/>
       <use xlink:href="#DejaVuSans-6f" x="454.236328"/>
       <use xlink:href="#DejaVuSans-72" x="515.417969"/>
       <use xlink:href="#DejaVuSans-6d" x="554.78125"/>
       <use xlink:href="#DejaVuSans-61" x="652.193359"/>
       <use xlink:href="#DejaVuSans-6e" x="713.472656"/>
       <use xlink:href="#DejaVuSans-63" x="776.851562"/>
       <use xlink:href="#DejaVuSans-65" x="831.832031"/>
      </g>
     </g>
    </g>
    <g id="ytick_4">
     <g id="line2d_17">
      <path d="M 90 89.28 
L 648 89.28 
" clip-path="url(#pfa1dc0afe1)" style="fill: none; stroke: #b0b0b0; stroke-width: 0.8; stroke-linecap: square"/>
     </g>
     <g id="line2d_18">
      <g>
       <use xlink:href="#m7fb35a11d4" x="90" y="89.28" style="stroke: #000000; stroke-width: 0.8"/>
      </g>
     </g>
     <g id="text_10">
      <!-- User Experience -->
      <g transform="translate(1.259375 93.079219) scale(0.1 -0.1)">
       <defs>
        <path id="DejaVuSans-78" d="M 3513 3500 
L 2247 1797 
L 3578 0 
L 2900 0 
L 1881 1375 
L 863 0 
L 184 0 
L 1544 1831 
L 300 3500 
L 978 3500 
L 1906 2253 
L 2834 3500 
L 3513 3500 
z
" transform="scale(0.015625)"/>
       </defs>
       <use xlink:href="#DejaVuSans-55"/>
       <use xlink:href="#DejaVuSans-73" x="73.193359"/>
       <use xlink:href="#DejaVuSans-65" x="125.292969"/>
       <use xlink:href="#DejaVuSans-72" x="186.816406"/>
       <use xlink:href="#DejaVuSans-20" x="227.929688"/>
       <use xlink:href="#DejaVuSans-45" x="259.716797"/>
       <use xlink:href="#DejaVuSans-78" x="322.900391"/>
       <use xlink:href="#DejaVuSans-70" x="382.080078"/>
       <use xlink:href="#DejaVuSans-65" x="445.556641"/>
       <use xlink:href="#DejaVuSans-72" x="507.080078"/>
       <use xlink:href="#DejaVuSans-69" x="548.193359"/>
       <use xlink:href="#DejaVuSans-65" x="575.976562"/>
       <use xlink:href="#DejaVuSans-6e" x="637.5"/>
       <use xlink:href="#DejaVuSans-63" x="700.878906"/>
       <use xlink:href="#DejaVuSans-65" x="755.859375"/>
      </g>
     </g>
    </g>
    <g id="text_11">
     <!-- strategy -->
     <g transform="translate(-57.248438 311.734688) rotate(-90) scale(0.1 -0.1)">
      <use xlink:href="#DejaVuSans-73"/>
      <use xlink:href="#DejaVuSans-74" x="52.099609"/>
      <use xlink:href="#DejaVuSans-72" x="91.308594"/>
      <use xlink:href="#DejaVuSans-61" x="132.421875"/>
      <use xlink:href="#DejaVuSans-74" x="193.701172"/>
      <use xlink:href="#DejaVuSans-65" x="232.910156"/>
      <use xlink:href="#DejaVuSans-67" x="294.433594"/>
      <use xlink:href="#DejaVuSans-79" x="357.910156"/>
     </g>
    </g>
   </g>
   <g id="patch_3">
    <path d="M 90 512.64 
L 90 69.12 
" style="fill: none; stroke: #000000; stroke-width: 0.8; stroke-linejoin: miter; stroke-linecap: square"/>
   </g>
   <g id="patch_4">
    <path d="M 648 512.64 
L 648 69.12 
" style="fill: none; stroke: #000000; stroke-width: 0.8; stroke-linejoin: miter; stroke-linecap: square"/>
   </g>
   <g id="patch_5">
    <path d="M 90 512.64 
L 648 512.64 
" style="fill: none; stroke: #000000; stroke-width: 0.8; stroke-linejoin: miter; stroke-linecap: square"/>
   </g>
   <g id="patch_6">
    <path d="M 90 69.12 
L 648 69.12 
" style="fill: none; stroke: #000000; stroke-width: 0.8; stroke-linejoin: miter; stroke-linecap: square"/>
   </g>
   <g id="text_12">
    <!-- Bubble Chart: evaluation vs strategy by metaverse -->
    <g transform="translate(215.439375 63.12) scale(0.12 -0.12)">
     <defs>
      <path id="DejaVuSans-42" d="M 1259 2228 
L 1259 519 
L 2272 519 
Q 2781 519 3026 730 
Q 3272 941 3272 1375 
Q 3272 1813 3026 2020 
Q 2781 2228 2272 2228 
L 1259 2228 
z
M 1259 4147 
L 1259 2741 
L 2194 2741 
Q 2656 2741 2882 2914 
Q 3109 3088 3109 3444 
Q 3109 3797 2882 3972 
Q 2656 4147 2194 4147 
L 1259 4147 
z
M 628 4666 
L 2241 4666 
Q 2963 4666 3353 4366 
Q 3744 4066 3744 3513 
Q 3744 3084 3544 2831 
Q 3344 2578 2956 2516 
Q 3422 2416 3680 2098 
Q 3938 1781 3938 1306 
Q 3938 681 3513 340 
Q 3088 0 2303 0 
L 628 0 
L 628 4666 
z
" transform="scale(0.015625)"/>
      <path id="DejaVuSans-62" d="M 3116 1747 
Q 3116 2381 2855 2742 
Q 2594 3103 2138 3103 
Q 1681 3103 1420 2742 
Q 1159 2381 1159 1747 
Q 1159 1113 1420 752 
Q 1681 391 2138 391 
Q 2594 391 2855 752 
Q 3116 1113 3116 1747 
z
M 1159 2969 
Q 1341 3281 1617 3432 
Q 1894 3584 2278 3584 
Q 2916 3584 3314 3078 
Q 3713 2572 3713 1747 
Q 3713 922 3314 415 
Q 2916 -91 2278 -91 
Q 1894 -91 1617 61 
Q 1341 213 1159 525 
L 1159 0 
L 581 0 
L 581 4863 
L 1159 4863 
L 1159 2969 
z
" transform="scale(0.015625)"/>
      <path id="DejaVuSans-43" d="M 4122 4306 
L 4122 3641 
Q 3803 3938 3442 4084 
Q 3081 4231 2675 4231 
Q 1875 4231 1450 3742 
Q 1025 3253 1025 2328 
Q 1025 1406 1450 917 
Q 1875 428 2675 428 
Q 3081 428 3442 575 
Q 3803 722 4122 1019 
L 4122 359 
Q 3791 134 3420 21 
Q 3050 -91 2638 -91 
Q 1578 -91 968 557 
Q 359 1206 359 2328 
Q 359 3453 968 4101 
Q 1578 4750 2638 4750 
Q 3056 4750 3426 4639 
Q 3797 4528 4122 4306 
z
" transform="scale(0.015625)"/>
      <path id="DejaVuSans-3a" d="M 750 794 
L 1409 794 
L 1409 0 
L 750 0 
L 750 794 
z
M 750 3309 
L 1409 3309 
L 1409 2516 
L 750 2516 
L 750 3309 
z
" transform="scale(0.015625)"/>
     </defs>
     <use xlink:href="#DejaVuSans-42"/>
     <use xlink:href="#DejaVuSans-75" x="68.603516"/>
     <use xlink:href="#DejaVuSans-62" x="131.982422"/>
     <use xlink:href="#DejaVuSans-62" x="195.458984"/>
     <use xlink:href="#DejaVuSans-6c" x="258.935547"/>
     <use xlink:href="#DejaVuSans-65" x="286.71875"/>
     <use xlink:href="#DejaVuSans-20" x="348.242188"/>
     <use xlink:href="#DejaVuSans-43" x="380.029297"/>
     <use xlink:href="#DejaVuSans-68" x="449.853516"/>
     <use xlink:href="#DejaVuSans-61" x="513.232422"/>
     <use xlink:href="#DejaVuSans-72" x="574.511719"/>
     <use xlink:href="#DejaVuSans-74" x="615.625"/>
     <use xlink:href="#DejaVuSans-3a" x="654.833984"/>
     <use xlink:href="#DejaVuSans-20" x="688.525391"/>
     <use xlink:href="#DejaVuSans-65" x="720.3125"/>
     <use xlink:href="#DejaVuSans-76" x="781.835938"/>
     <use xlink:href="#DejaVuSans-61" x="841.015625"/>
     <use xlink:href="#DejaVuSans-6c" x="902.294922"/>
     <use xlink:href="#DejaVuSans-75" x="930.078125"/>
     <use xlink:href="#DejaVuSans-61" x="993.457031"/>
     <use xlink:href="#DejaVuSans-74" x="1054.736328"/>
     <use xlink:href="#DejaVuSans-69" x="1093.945312"/>
     <use xlink:href="#DejaVuSans-6f" x="1121.728516"/>
     <use xlink:href="#DejaVuSans-6e" x="1182.910156"/>
     <use xlink:href="#DejaVuSans-20" x="1246.289062"/>
     <use xlink:href="#DejaVuSans-76" x="1278.076172"/>
     <use xlink:href="#DejaVuSans-73" x="1337.255859"/>
     <use xlink:href="#DejaVuSans-20" x="1389.355469"/>
     <use xlink:href="#DejaVuSans-73" x="1421.142578"/>
     <use xlink:href="#DejaVuSans-74" x="1473.242188"/>
     <use xlink:href="#DejaVuSans-72" x="1512.451172"/>
     <use xlink:href="#DejaVuSans-61" x="1553.564453"/>
     <use xlink:href="#DejaVuSans-74" x="1614.84375"/>
     <use xlink:href="#DejaVuSans-65" x="1654.052734"/>
     <use xlink:href="#DejaVuSans-67" x="1715.576172"/>
     <use xlink:href="#DejaVuSans-79" x="1779.052734"/>
     <use xlink:href="#DejaVuSans-20" x="1838.232422"/>
     <use xlink:href="#DejaVuSans-62" x="1870.019531"/>
     <use xlink:href="#DejaVuSans-79" x="1933.496094"/>
     <use xlink:href="#DejaVuSans-20" x="1992.675781"/>
     <use xlink:href="#DejaVuSans-6d" x="2024.462891"/>
     <use xlink:href="#DejaVuSans-65" x="2121.875"/>
     <use xlink:href="#DejaVuSans-74" x="2183.398438"/>
     <use xlink:href="#DejaVuSans-61" x="2222.607422"/>
     <use xlink:href="#DejaVuSans-76" x="2283.886719"/>
     <use xlink:href="#DejaVuSans-65" x="2343.066406"/>
     <use xlink:href="#DejaVuSans-72" x="2404.589844"/>
     <use xlink:href="#DejaVuSans-73" x="2445.703125"/>
     <use xlink:href="#DejaVuSans-65" x="2497.802734"/>
    </g>
   </g>
   <g id="legend_1">
    <g id="patch_7">
     <path d="M 513.467188 329.075313 
L 641 329.075313 
Q 643 329.075313 643 327.075313 
L 643 254.684688 
Q 643 252.684688 641 252.684688 
L 513.467188 252.684688 
Q 511.467188 252.684688 511.467188 254.684688 
L 511.467188 327.075313 
Q 511.467188 329.075313 513.467188 329.075313 
z
" style="fill: #ffffff; opacity: 0.8; stroke: #cccccc; stroke-linejoin: miter"/>
    </g>
    <g id="text_13">
     <!-- Metaverse -->
     <g transform="translate(551.046094 264.283125) scale(0.1 -0.1)">
      <use xlink:href="#DejaVuSans-4d"/>
      <use xlink:href="#DejaVuSans-65" x="86.279297"/>
      <use xlink:href="#DejaVuSans-74" x="147.802734"/>
      <use xlink:href="#DejaVuSans-61" x="187.011719"/>
      <use xlink:href="#DejaVuSans-76" x="248.291016"/>
      <use xlink:href="#DejaVuSans-65" x="307.470703"/>
      <use xlink:href="#DejaVuSans-72" x="368.994141"/>
      <use xlink:href="#DejaVuSans-73" x="410.107422"/>
      <use xlink:href="#DejaVuSans-65" x="462.207031"/>
     </g>
    </g>
    <g id="line2d_19">
     <path d="M 515.467188 275.46125 
L 525.467188 275.46125 
L 535.467188 275.46125 
" style="fill: none; stroke: #ffffff; stroke-width: 1.5; stroke-linecap: square"/>
     <defs>
      <path id="m7b6d74b0c1" d="M 0 5 
C 1.326016 5 2.597899 4.473168 3.535534 3.535534 
C 4.473168 2.597899 5 1.326016 5 0 
C 5 -1.326016 4.473168 -2.597899 3.535534 -3.535534 
C 2.597899 -4.473168 1.326016 -5 0 -5 
C -1.326016 -5 -2.597899 -4.473168 -3.535534 -3.535534 
C -4.473168 -2.597899 -5 -1.326016 -5 0 
C -5 1.326016 -4.473168 2.597899 -3.535534 3.535534 
C -2.597899 4.473168 -1.326016 5 0 5 
z
" style="stroke: #ffffff"/>
     </defs>
     <g>
      <use xlink:href="#m7b6d74b0c1" x="525.467188" y="275.46125" style="fill: #0000ff; stroke: #ffffff"/>
     </g>
    </g>
    <g id="text_14">
     <!-- Virtual World -->
     <g transform="translate(543.467188 278.96125) scale(0.1 -0.1)">
      <defs>
       <path id="DejaVuSans-56" d="M 1831 0 
L 50 4666 
L 709 4666 
L 2188 738 
L 3669 4666 
L 4325 4666 
L 2547 0 
L 1831 0 
z
" transform="scale(0.015625)"/>
       <path id="DejaVuSans-57" d="M 213 4666 
L 850 4666 
L 1831 722 
L 2809 4666 
L 3519 4666 
L 4500 722 
L 5478 4666 
L 6119 4666 
L 4947 0 
L 4153 0 
L 3169 4050 
L 2175 0 
L 1381 0 
L 213 4666 
z
" transform="scale(0.015625)"/>
      </defs>
      <use xlink:href="#DejaVuSans-56"/>
      <use xlink:href="#DejaVuSans-69" x="66.158203"/>
      <use xlink:href="#DejaVuSans-72" x="93.941406"/>
      <use xlink:href="#DejaVuSans-74" x="135.054688"/>
      <use xlink:href="#DejaVuSans-75" x="174.263672"/>
      <use xlink:href="#DejaVuSans-61" x="237.642578"/>
      <use xlink:href="#DejaVuSans-6c" x="298.921875"/>
      <use xlink:href="#DejaVuSans-20" x="326.705078"/>
      <use xlink:href="#DejaVuSans-57" x="358.492188"/>
      <use xlink:href="#DejaVuSans-6f" x="451.494141"/>
      <use xlink:href="#DejaVuSans-72" x="512.675781"/>
      <use xlink:href="#DejaVuSans-6c" x="553.789062"/>
      <use xlink:href="#DejaVuSans-64" x="581.572266"/>
     </g>
    </g>
    <g id="line2d_20">
     <path d="M 515.467188 290.139375 
L 525.467188 290.139375 
L 535.467188 290.139375 
" style="fill: none; stroke: #ffffff; stroke-width: 1.5; stroke-linecap: square"/>
     <defs>
      <path id="mf8e9233bb9" d="M 0 5 
C 1.326016 5 2.597899 4.473168 3.535534 3.535534 
C 4.473168 2.597899 5 1.326016 5 0 
C 5 -1.326016 4.473168 -2.597899 3.535534 -3.535534 
C 2.597899 -4.473168 1.326016 -5 0 -5 
C -1.326016 -5 -2.597899 -4.473168 -3.535534 -3.535534 
C -4.473168 -2.597899 -5 -1.326016 -5 0 
C -5 1.326016 -4.473168 2.597899 -3.535534 3.535534 
C -2.597899 4.473168 -1.326016 5 0 5 
z
" style="stroke: #ffffff"/>
     </defs>
     <g>
      <use xlink:href="#mf8e9233bb9" x="525.467188" y="290.139375" style="fill: #008000; stroke: #ffffff"/>
     </g>
    </g>
    <g id="text_15">
     <!-- Lifelogging -->
     <g transform="translate(543.467188 293.639375) scale(0.1 -0.1)">
      <defs>
       <path id="DejaVuSans-4c" d="M 628 4666 
L 1259 4666 
L 1259 531 
L 3531 531 
L 3531 0 
L 628 0 
L 628 4666 
z
" transform="scale(0.015625)"/>
      </defs>
      <use xlink:href="#DejaVuSans-4c"/>
      <use xlink:href="#DejaVuSans-69" x="55.712891"/>
      <use xlink:href="#DejaVuSans-66" x="83.496094"/>
      <use xlink:href="#DejaVuSans-65" x="118.701172"/>
      <use xlink:href="#DejaVuSans-6c" x="180.224609"/>
      <use xlink:href="#DejaVuSans-6f" x="208.007812"/>
      <use xlink:href="#DejaVuSans-67" x="269.189453"/>
      <use xlink:href="#DejaVuSans-67" x="332.666016"/>
      <use xlink:href="#DejaVuSans-69" x="396.142578"/>
      <use xlink:href="#DejaVuSans-6e" x="423.925781"/>
      <use xlink:href="#DejaVuSans-67" x="487.304688"/>
     </g>
    </g>
    <g id="line2d_21">
     <path d="M 515.467188 304.8175 
L 525.467188 304.8175 
L 535.467188 304.8175 
" style="fill: none; stroke: #ffffff; stroke-width: 1.5; stroke-linecap: square"/>
     <defs>
      <path id="m2c73e6886f" d="M 0 5 
C 1.326016 5 2.597899 4.473168 3.535534 3.535534 
C 4.473168 2.597899 5 1.326016 5 0 
C 5 -1.326016 4.473168 -2.597899 3.535534 -3.535534 
C 2.597899 -4.473168 1.326016 -5 0 -5 
C -1.326016 -5 -2.597899 -4.473168 -3.535534 -3.535534 
C -4.473168 -2.597899 -5 -1.326016 -5 0 
C -5 1.326016 -4.473168 2.597899 -3.535534 3.535534 
C -2.597899 4.473168 -1.326016 5 0 5 
z
" style="stroke: #ffffff"/>
     </defs>
     <g>
      <use xlink:href="#m2c73e6886f" x="525.467188" y="304.8175" style="fill: #ff0000; stroke: #ffffff"/>
     </g>
    </g>
    <g id="text_16">
     <!-- Augmented Reality -->
     <g transform="translate(543.467188 308.3175) scale(0.1 -0.1)">
      <defs>
       <path id="DejaVuSans-52" d="M 2841 2188 
Q 3044 2119 3236 1894 
Q 3428 1669 3622 1275 
L 4263 0 
L 3584 0 
L 2988 1197 
Q 2756 1666 2539 1819 
Q 2322 1972 1947 1972 
L 1259 1972 
L 1259 0 
L 628 0 
L 628 4666 
L 2053 4666 
Q 2853 4666 3247 4331 
Q 3641 3997 3641 3322 
Q 3641 2881 3436 2590 
Q 3231 2300 2841 2188 
z
M 1259 4147 
L 1259 2491 
L 2053 2491 
Q 2509 2491 2742 2702 
Q 2975 2913 2975 3322 
Q 2975 3731 2742 3939 
Q 2509 4147 2053 4147 
L 1259 4147 
z
" transform="scale(0.015625)"/>
      </defs>
      <use xlink:href="#DejaVuSans-41"/>
      <use xlink:href="#DejaVuSans-75" x="68.408203"/>
      <use xlink:href="#DejaVuSans-67" x="131.787109"/>
      <use xlink:href="#DejaVuSans-6d" x="195.263672"/>
      <use xlink:href="#DejaVuSans-65" x="292.675781"/>
      <use xlink:href="#DejaVuSans-6e" x="354.199219"/>
      <use xlink:href="#DejaVuSans-74" x="417.578125"/>
      <use xlink:href="#DejaVuSans-65" x="456.787109"/>
      <use xlink:href="#DejaVuSans-64" x="518.310547"/>
      <use xlink:href="#DejaVuSans-20" x="581.787109"/>
      <use xlink:href="#DejaVuSans-52" x="613.574219"/>
      <use xlink:href="#DejaVuSans-65" x="678.556641"/>
      <use xlink:href="#DejaVuSans-61" x="740.080078"/>
      <use xlink:href="#DejaVuSans-6c" x="801.359375"/>
      <use xlink:href="#DejaVuSans-69" x="829.142578"/>
      <use xlink:href="#DejaVuSans-74" x="856.925781"/>
      <use xlink:href="#DejaVuSans-79" x="896.134766"/>
     </g>
    </g>
    <g id="line2d_22">
     <path d="M 515.467188 319.495625 
L 525.467188 319.495625 
L 535.467188 319.495625 
" style="fill: none; stroke: #ffffff; stroke-width: 1.5; stroke-linecap: square"/>
     <defs>
      <path id="m76bf30e920" d="M 0 5 
C 1.326016 5 2.597899 4.473168 3.535534 3.535534 
C 4.473168 2.597899 5 1.326016 5 0 
C 5 -1.326016 4.473168 -2.597899 3.535534 -3.535534 
C 2.597899 -4.473168 1.326016 -5 0 -5 
C -1.326016 -5 -2.597899 -4.473168 -3.535534 -3.535534 
C -4.473168 -2.597899 -5 -1.326016 -5 0 
C -5 1.326016 -4.473168 2.597899 -3.535534 3.535534 
C -2.597899 4.473168 -1.326016 5 0 5 
z
" style="stroke: #ffffff"/>
     </defs>
     <g>
      <use xlink:href="#m76bf30e920" x="525.467188" y="319.495625" style="fill: #800080; stroke: #ffffff"/>
     </g>
    </g>
    <g id="text_17">
     <!-- Mirror World -->
     <g transform="translate(543.467188 322.995625) scale(0.1 -0.1)">
      <use xlink:href="#DejaVuSans-4d"/>
      <use xlink:href="#DejaVuSans-69" x="86.279297"/>
      <use xlink:href="#DejaVuSans-72" x="114.0625"/>
      <use xlink:href="#DejaVuSans-72" x="153.425781"/>
      <use xlink:href="#DejaVuSans-6f" x="192.289062"/>
      <use xlink:href="#DejaVuSans-72" x="253.470703"/>
      <use xlink:href="#DejaVuSans-20" x="294.583984"/>
      <use xlink:href="#DejaVuSans-57" x="326.371094"/>
      <use xlink:href="#DejaVuSans-6f" x="419.373047"/>
      <use xlink:href="#DejaVuSans-72" x="480.554688"/>
      <use xlink:href="#DejaVuSans-6c" x="521.667969"/>
      <use xlink:href="#DejaVuSans-64" x="549.451172"/>
     </g>
    </g>
   </g>
  </g>
 </g>
 <defs>
  <clipPath id="pfa1dc0afe1">
   <rect x="90" y="69.12" width="558" height="443.52"/>
  </clipPath>
 </defs>
</svg>
