<?xml version="1.0" encoding="utf-8" standalone="no"?>
<!DOCTYPE svg PUBLIC "-//W3C//DTD SVG 1.1//EN"
  "http://www.w3.org/Graphics/SVG/1.1/DTD/svg11.dtd">
<svg xmlns:xlink="http://www.w3.org/1999/xlink" width="720pt" height="576pt" viewBox="0 0 720 576" xmlns="http://www.w3.org/2000/svg" version="1.1">
 <metadata>
  <rdf:RDF xmlns:dc="http://purl.org/dc/elements/1.1/" xmlns:cc="http://creativecommons.org/ns#" xmlns:rdf="http://www.w3.org/1999/02/22-rdf-syntax-ns#">
   <cc:Work>
    <dc:type rdf:resource="http://purl.org/dc/dcmitype/StillImage"/>
    <dc:date>2024-09-02T12:50:15.312102</dc:date>
    <dc:format>image/svg+xml</dc:format>
    <dc:creator>
     <cc:Agent>
      <dc:title>Matplotlib v3.8.2, https://matplotlib.org/</dc:title>
     </cc:Agent>
    </dc:creator>
   </cc:Work>
  </rdf:RDF>
 </metadata>
 <defs>
  <style type="text/css">*{stroke-linejoin: round; stroke-linecap: butt}</style>
 </defs>
 <g id="figure_1">
  <g id="patch_1">
   <path d="M 0 576 
L 720 576 
L 720 0 
L 0 0 
z
" style="fill: #ffffff"/>
  </g>
  <g id="axes_1">
   <g id="patch_2">
    <path d="M 90 512.64 
L 648 512.64 
L 648 69.12 
L 90 69.12 
z
" style="fill: #ffffff"/>
   </g>
   <g id="PathCollection_1">
    <path d="M 115.363636 518.460762 
C 122.253815 518.460762 128.862717 515.723265 133.734809 510.851173 
C 138.606901 505.979081 141.344398 499.370179 141.344398 492.48 
C 141.344398 485.589821 138.606901 478.980919 133.734809 474.108827 
C 128.862717 469.236735 122.253815 466.499238 115.363636 466.499238 
C 108.473458 466.499238 101.864555 469.236735 96.992463 474.108827 
C 92.120371 478.980919 89.382874 485.589821 89.382874 492.48 
C 89.382874 499.370179 92.120371 505.979081 96.992463 510.851173 
C 101.864555 515.723265 108.473458 518.460762 115.363636 518.460762 
z
" clip-path="url(#pc1a712b413)" style="fill: #808080; fill-opacity: 0.6; stroke: #ffffff; stroke-opacity: 0.6; stroke-width: 2"/>
    <path d="M 115.363636 505.708757 
C 118.871944 505.708757 122.237032 504.314891 124.71778 501.834143 
C 127.198528 499.353396 128.592393 495.988307 128.592393 492.48 
C 128.592393 488.971693 127.198528 485.606604 124.71778 483.125857 
C 122.237032 480.645109 118.871944 479.251243 115.363636 479.251243 
C 111.855329 479.251243 108.490241 480.645109 106.009493 483.125857 
C 103.528745 485.606604 102.13488 488.971693 102.13488 492.48 
C 102.13488 495.988307 103.528745 499.353396 106.009493 501.834143 
C 108.490241 504.314891 111.855329 505.708757 115.363636 505.708757 
z
" clip-path="url(#pc1a712b413)" style="fill: #808080; fill-opacity: 0.6; stroke: #ffffff; stroke-opacity: 0.6; stroke-width: 2"/>
    <path d="M 115.363636 499.551068 
C 117.238905 499.551068 119.037621 498.806016 120.363636 497.48 
C 121.689652 496.153985 122.434704 494.355269 122.434704 492.48 
C 122.434704 490.604731 121.689652 488.806016 120.363636 487.48 
C 119.037621 486.153985 117.238905 485.408932 115.363636 485.408932 
C 113.488367 485.408932 111.689652 486.153985 110.363636 487.48 
C 109.037621 488.806016 108.292569 490.604731 108.292569 492.48 
C 108.292569 494.355269 109.037621 496.153985 110.363636 497.48 
C 111.689652 498.806016 113.488367 499.551068 115.363636 499.551068 
z
" clip-path="url(#pc1a712b413)" style="fill: #808080; fill-opacity: 0.6; stroke: #ffffff; stroke-opacity: 0.6; stroke-width: 2"/>
    <path d="M 115.363636 503.66034 
C 118.328697 503.66034 121.172716 502.482309 123.269331 500.385694 
C 125.365945 498.28908 126.543976 495.445061 126.543976 492.48 
C 126.543976 489.514939 125.365945 486.67092 123.269331 484.574306 
C 121.172716 482.477691 118.328697 481.29966 115.363636 481.29966 
C 112.398576 481.29966 109.554557 482.477691 107.457942 484.574306 
C 105.361328 486.67092 104.183296 489.514939 104.183296 492.48 
C 104.183296 495.445061 105.361328 498.28908 107.457942 500.385694 
C 109.554557 502.482309 112.398576 503.66034 115.363636 503.66034 
z
" clip-path="url(#pc1a712b413)" style="fill: #808080; fill-opacity: 0.6; stroke: #ffffff; stroke-opacity: 0.6; stroke-width: 2"/>
    <path d="M 115.363636 380.992878 
C 121.440203 380.992878 127.268707 378.578633 131.565488 374.281852 
C 135.862269 369.98507 138.276515 364.156566 138.276515 358.08 
C 138.276515 352.003434 135.862269 346.17493 131.565488 341.878148 
C 127.268707 337.581367 121.440203 335.167122 115.363636 335.167122 
C 109.28707 335.167122 103.458566 337.581367 99.161785 341.878148 
C 94.865003 346.17493 92.450758 352.003434 92.450758 358.08 
C 92.450758 364.156566 94.865003 369.98507 99.161785 374.281852 
C 103.458566 378.578633 109.28707 380.992878 115.363636 380.992878 
z
" clip-path="url(#pc1a712b413)" style="fill: #808080; fill-opacity: 0.6; stroke: #ffffff; stroke-opacity: 0.6; stroke-width: 2"/>
    <path d="M 115.363636 366.740254 
C 117.660363 366.740254 119.86333 365.827755 121.487361 364.203724 
C 123.111391 362.579694 124.02389 360.376726 124.02389 358.08 
C 124.02389 355.783274 123.111391 353.580306 121.487361 351.956276 
C 119.86333 350.332245 117.660363 349.419746 115.363636 349.419746 
C 113.06691 349.419746 110.863943 350.332245 109.239912 351.956276 
C 107.615881 353.580306 106.703382 355.783274 106.703382 358.08 
C 106.703382 360.376726 107.615881 362.579694 109.239912 364.203724 
C 110.863943 365.827755 113.06691 366.740254 115.363636 366.740254 
z
" clip-path="url(#pc1a712b413)" style="fill: #808080; fill-opacity: 0.6; stroke: #ffffff; stroke-opacity: 0.6; stroke-width: 2"/>
    <path d="M 115.363636 363.08 
C 116.689652 363.08 117.961536 362.553168 118.89917 361.615534 
C 119.836805 360.677899 120.363636 359.406015 120.363636 358.08 
C 120.363636 356.753985 119.836805 355.482101 118.89917 354.544466 
C 117.961536 353.606832 116.689652 353.08 115.363636 353.08 
C 114.037621 353.08 112.765737 353.606832 111.828102 354.544466 
C 110.890468 355.482101 110.363636 356.753985 110.363636 358.08 
C 110.363636 359.406015 110.890468 360.677899 111.828102 361.615534 
C 112.765737 362.553168 114.037621 363.08 115.363636 363.08 
z
" clip-path="url(#pc1a712b413)" style="fill: #808080; fill-opacity: 0.6; stroke: #ffffff; stroke-opacity: 0.6; stroke-width: 2"/>
    <path d="M 115.363636 363.08 
C 116.689652 363.08 117.961536 362.553168 118.89917 361.615534 
C 119.836805 360.677899 120.363636 359.406015 120.363636 358.08 
C 120.363636 356.753985 119.836805 355.482101 118.89917 354.544466 
C 117.961536 353.606832 116.689652 353.08 115.363636 353.08 
C 114.037621 353.08 112.765737 353.606832 111.828102 354.544466 
C 110.890468 355.482101 110.363636 356.753985 110.363636 358.08 
C 110.363636 359.406015 110.890468 360.677899 111.828102 361.615534 
C 112.765737 362.553168 114.037621 363.08 115.363636 363.08 
z
" clip-path="url(#pc1a712b413)" style="fill: #808080; fill-opacity: 0.6; stroke: #ffffff; stroke-opacity: 0.6; stroke-width: 2"/>
    <path d="M 115.363636 241.707756 
C 120.144653 241.707756 124.730496 239.808238 128.111185 236.427549 
C 131.491875 233.046859 133.391393 228.461017 133.391393 223.68 
C 133.391393 218.898983 131.491875 214.313141 128.111185 210.932451 
C 124.730496 207.551762 120.144653 205.652244 115.363636 205.652244 
C 110.582619 205.652244 105.996777 207.551762 102.616088 210.932451 
C 99.235398 214.313141 97.33588 218.898983 97.33588 223.68 
C 97.33588 228.461017 99.235398 233.046859 102.616088 236.427549 
C 105.996777 239.808238 110.582619 241.707756 115.363636 241.707756 
z
" clip-path="url(#pc1a712b413)" style="fill: #808080; fill-opacity: 0.6; stroke: #ffffff; stroke-opacity: 0.6; stroke-width: 2"/>
    <path d="M 115.363636 228.68 
C 116.689652 228.68 117.961536 228.153168 118.89917 227.215534 
C 119.836805 226.277899 120.363636 225.006016 120.363636 223.68 
C 120.363636 222.353984 119.836805 221.082101 118.89917 220.144466 
C 117.961536 219.206832 116.689652 218.68 115.363636 218.68 
C 114.037621 218.68 112.765737 219.206832 111.828102 220.144466 
C 110.890468 221.082101 110.363636 222.353984 110.363636 223.68 
C 110.363636 225.006016 110.890468 226.277899 111.828102 227.215534 
C 112.765737 228.153168 114.037621 228.68 115.363636 228.68 
z
" clip-path="url(#pc1a712b413)" style="fill: #808080; fill-opacity: 0.6; stroke: #ffffff; stroke-opacity: 0.6; stroke-width: 2"/>
    <path d="M 115.363636 106.600508 
C 119.957089 106.600508 124.363024 104.77551 127.611085 101.527449 
C 130.859146 98.279387 132.684144 93.873452 132.684144 89.28 
C 132.684144 84.686548 130.859146 80.280613 127.611085 77.032551 
C 124.363024 73.78449 119.957089 71.959492 115.363636 71.959492 
C 110.770184 71.959492 106.364249 73.78449 103.116188 77.032551 
C 99.868126 80.280613 98.043128 84.686548 98.043128 89.28 
C 98.043128 93.873452 99.868126 98.279387 103.116188 101.527449 
C 106.364249 104.77551 110.770184 106.600508 115.363636 106.600508 
z
" clip-path="url(#pc1a712b413)" style="fill: #808080; fill-opacity: 0.6; stroke: #ffffff; stroke-opacity: 0.6; stroke-width: 2"/>
    <path d="M 115.363636 96.351068 
C 117.238905 96.351068 119.037621 95.606015 120.363636 94.28 
C 121.689652 92.953984 122.434704 91.155269 122.434704 89.28 
C 122.434704 87.404731 121.689652 85.606015 120.363636 84.28 
C 119.037621 82.953984 117.238905 82.208932 115.363636 82.208932 
C 113.488367 82.208932 111.689652 82.953984 110.363636 84.28 
C 109.037621 85.606015 108.292569 87.404731 108.292569 89.28 
C 108.292569 91.155269 109.037621 92.953984 110.363636 94.28 
C 111.689652 95.606015 113.488367 96.351068 115.363636 96.351068 
z
" clip-path="url(#pc1a712b413)" style="fill: #808080; fill-opacity: 0.6; stroke: #ffffff; stroke-opacity: 0.6; stroke-width: 2"/>
    <path d="M 115.363636 94.28 
C 116.689652 94.28 117.961536 93.753168 118.89917 92.815534 
C 119.836805 91.877899 120.363636 90.606015 120.363636 89.28 
C 120.363636 87.953984 119.836805 86.682101 118.89917 85.744466 
C 117.961536 84.806832 116.689652 84.28 115.363636 84.28 
C 114.037621 84.28 112.765737 84.806832 111.828102 85.744466 
C 110.890468 86.682101 110.363636 87.953984 110.363636 89.28 
C 110.363636 90.606015 110.890468 91.877899 111.828102 92.815534 
C 112.765737 93.753168 114.037621 94.28 115.363636 94.28 
z
" clip-path="url(#pc1a712b413)" style="fill: #808080; fill-opacity: 0.6; stroke: #ffffff; stroke-opacity: 0.6; stroke-width: 2"/>
    <path d="M 284.454545 515.932079 
C 290.674109 515.932079 296.639774 513.46102 301.037669 509.063124 
C 305.435565 504.665228 307.906624 498.699564 307.906624 492.48 
C 307.906624 486.260436 305.435565 480.294772 301.037669 475.896876 
C 296.639774 471.49898 290.674109 469.027921 284.454545 469.027921 
C 278.234981 469.027921 272.269317 471.49898 267.871422 475.896876 
C 263.473526 480.294772 261.002467 486.260436 261.002467 492.48 
C 261.002467 498.699564 263.473526 504.665228 267.871422 509.063124 
C 272.269317 513.46102 278.234981 515.932079 284.454545 515.932079 
z
" clip-path="url(#pc1a712b413)" style="fill: #808080; fill-opacity: 0.6; stroke: #ffffff; stroke-opacity: 0.6; stroke-width: 2"/>
    <path d="M 284.454545 512.48 
C 289.758607 512.48 294.846143 510.372674 298.596681 506.622136 
C 302.347219 502.871597 304.454545 497.784062 304.454545 492.48 
C 304.454545 487.175938 302.347219 482.088403 298.596681 478.337864 
C 294.846143 474.587326 289.758607 472.48 284.454545 472.48 
C 279.150483 472.48 274.062948 474.587326 270.31241 478.337864 
C 266.561872 482.088403 264.454545 487.175938 264.454545 492.48 
C 264.454545 497.784062 266.561872 502.871597 270.31241 506.622136 
C 274.062948 510.372674 279.150483 512.48 284.454545 512.48 
z
" clip-path="url(#pc1a712b413)" style="fill: #808080; fill-opacity: 0.6; stroke: #ffffff; stroke-opacity: 0.6; stroke-width: 2"/>
    <path d="M 284.454545 503.66034 
C 287.419606 503.66034 290.263625 502.482309 292.36024 500.385694 
C 294.456854 498.28908 295.634885 495.445061 295.634885 492.48 
C 295.634885 489.514939 294.456854 486.67092 292.36024 484.574306 
C 290.263625 482.477691 287.419606 481.29966 284.454545 481.29966 
C 281.489485 481.29966 278.645466 482.477691 276.548851 484.574306 
C 274.452237 486.67092 273.274206 489.514939 273.274206 492.48 
C 273.274206 495.445061 274.452237 498.28908 276.548851 500.385694 
C 278.645466 502.482309 281.489485 503.66034 284.454545 503.66034 
z
" clip-path="url(#pc1a712b413)" style="fill: #808080; fill-opacity: 0.6; stroke: #ffffff; stroke-opacity: 0.6; stroke-width: 2"/>
    <path d="M 284.454545 503.66034 
C 287.419606 503.66034 290.263625 502.482309 292.36024 500.385694 
C 294.456854 498.28908 295.634885 495.445061 295.634885 492.48 
C 295.634885 489.514939 294.456854 486.67092 292.36024 484.574306 
C 290.263625 482.477691 287.419606 481.29966 284.454545 481.29966 
C 281.489485 481.29966 278.645466 482.477691 276.548851 484.574306 
C 274.452237 486.67092 273.274206 489.514939 273.274206 492.48 
C 273.274206 495.445061 274.452237 498.28908 276.548851 500.385694 
C 278.645466 502.482309 281.489485 503.66034 284.454545 503.66034 
z
" clip-path="url(#pc1a712b413)" style="fill: #808080; fill-opacity: 0.6; stroke: #ffffff; stroke-opacity: 0.6; stroke-width: 2"/>
    <path d="M 284.454545 370.327449 
C 287.702607 370.327449 290.818073 369.03698 293.114799 366.740254 
C 295.411526 364.443528 296.701994 361.328061 296.701994 358.08 
C 296.701994 354.831939 295.411526 351.716472 293.114799 349.419746 
C 290.818073 347.12302 287.702607 345.832551 284.454545 345.832551 
C 281.206484 345.832551 278.091018 347.12302 275.794291 349.419746 
C 273.497565 351.716472 272.207097 354.831939 272.207097 358.08 
C 272.207097 361.328061 273.497565 364.443528 275.794291 366.740254 
C 278.091018 369.03698 281.206484 370.327449 284.454545 370.327449 
z
" clip-path="url(#pc1a712b413)" style="fill: #808080; fill-opacity: 0.6; stroke: #ffffff; stroke-opacity: 0.6; stroke-width: 2"/>
    <path d="M 284.454545 373.08 
C 288.432592 373.08 292.248244 371.499505 295.061147 368.686602 
C 297.874051 365.873698 299.454545 362.058046 299.454545 358.08 
C 299.454545 354.101953 297.874051 350.286302 295.061147 347.473398 
C 292.248244 344.660495 288.432592 343.08 284.454545 343.08 
C 280.476499 343.08 276.660847 344.660495 273.847944 347.473398 
C 271.03504 350.286302 269.454545 354.101953 269.454545 358.08 
C 269.454545 362.058046 271.03504 365.873698 273.847944 368.686602 
C 276.660847 371.499505 280.476499 373.08 284.454545 373.08 
z
" clip-path="url(#pc1a712b413)" style="fill: #808080; fill-opacity: 0.6; stroke: #ffffff; stroke-opacity: 0.6; stroke-width: 2"/>
    <path d="M 284.454545 368.08 
C 287.106576 368.08 289.650344 367.026337 291.525613 365.151068 
C 293.400882 363.275799 294.454545 360.732031 294.454545 358.08 
C 294.454545 355.427969 293.400882 352.884201 291.525613 351.008932 
C 289.650344 349.133663 287.106576 348.08 284.454545 348.08 
C 281.802514 348.08 279.258747 349.133663 277.383478 351.008932 
C 275.508209 352.884201 274.454545 355.427969 274.454545 358.08 
C 274.454545 360.732031 275.508209 363.275799 277.383478 365.151068 
C 279.258747 367.026337 281.802514 368.08 284.454545 368.08 
z
" clip-path="url(#pc1a712b413)" style="fill: #808080; fill-opacity: 0.6; stroke: #ffffff; stroke-opacity: 0.6; stroke-width: 2"/>
    <path d="M 284.454545 363.08 
C 285.780561 363.08 287.052445 362.553168 287.990079 361.615534 
C 288.927714 360.677899 289.454545 359.406015 289.454545 358.08 
C 289.454545 356.753985 288.927714 355.482101 287.990079 354.544466 
C 287.052445 353.606832 285.780561 353.08 284.454545 353.08 
C 283.12853 353.08 281.856646 353.606832 280.919012 354.544466 
C 279.981377 355.482101 279.454545 356.753985 279.454545 358.08 
C 279.454545 359.406015 279.981377 360.677899 280.919012 361.615534 
C 281.856646 362.553168 283.12853 363.08 284.454545 363.08 
z
" clip-path="url(#pc1a712b413)" style="fill: #808080; fill-opacity: 0.6; stroke: #ffffff; stroke-opacity: 0.6; stroke-width: 2"/>
    <path d="M 284.454545 234.86034 
C 287.419606 234.86034 290.263625 233.682309 292.36024 231.585694 
C 294.456854 229.48908 295.634885 226.645061 295.634885 223.68 
C 295.634885 220.714939 294.456854 217.87092 292.36024 215.774306 
C 290.263625 213.677691 287.419606 212.49966 284.454545 212.49966 
C 281.489485 212.49966 278.645466 213.677691 276.548851 215.774306 
C 274.452237 217.87092 273.274206 220.714939 273.274206 223.68 
C 273.274206 226.645061 274.452237 229.48908 276.548851 231.585694 
C 278.645466 233.682309 281.489485 234.86034 284.454545 234.86034 
z
" clip-path="url(#pc1a712b413)" style="fill: #808080; fill-opacity: 0.6; stroke: #ffffff; stroke-opacity: 0.6; stroke-width: 2"/>
    <path d="M 284.454545 234.86034 
C 287.419606 234.86034 290.263625 233.682309 292.36024 231.585694 
C 294.456854 229.48908 295.634885 226.645061 295.634885 223.68 
C 295.634885 220.714939 294.456854 217.87092 292.36024 215.774306 
C 290.263625 213.677691 287.419606 212.49966 284.454545 212.49966 
C 281.489485 212.49966 278.645466 213.677691 276.548851 215.774306 
C 274.452237 217.87092 273.274206 220.714939 273.274206 223.68 
C 273.274206 226.645061 274.452237 229.48908 276.548851 231.585694 
C 278.645466 233.682309 281.489485 234.86034 284.454545 234.86034 
z
" clip-path="url(#pc1a712b413)" style="fill: #808080; fill-opacity: 0.6; stroke: #ffffff; stroke-opacity: 0.6; stroke-width: 2"/>
    <path d="M 284.454545 228.68 
C 285.780561 228.68 287.052445 228.153168 287.990079 227.215534 
C 288.927714 226.277899 289.454545 225.006016 289.454545 223.68 
C 289.454545 222.353984 288.927714 221.082101 287.990079 220.144466 
C 287.052445 219.206832 285.780561 218.68 284.454545 218.68 
C 283.12853 218.68 281.856646 219.206832 280.919012 220.144466 
C 279.981377 221.082101 279.454545 222.353984 279.454545 223.68 
C 279.454545 225.006016 279.981377 226.277899 280.919012 227.215534 
C 281.856646 228.153168 283.12853 228.68 284.454545 228.68 
z
" clip-path="url(#pc1a712b413)" style="fill: #808080; fill-opacity: 0.6; stroke: #ffffff; stroke-opacity: 0.6; stroke-width: 2"/>
    <path d="M 284.454545 99.28 
C 287.106576 99.28 289.650344 98.226337 291.525613 96.351068 
C 293.400882 94.475799 294.454545 91.932031 294.454545 89.28 
C 294.454545 86.627969 293.400882 84.084201 291.525613 82.208932 
C 289.650344 80.333663 287.106576 79.28 284.454545 79.28 
C 281.802514 79.28 279.258747 80.333663 277.383478 82.208932 
C 275.508209 84.084201 274.454545 86.627969 274.454545 89.28 
C 274.454545 91.932031 275.508209 94.475799 277.383478 96.351068 
C 279.258747 98.226337 281.802514 99.28 284.454545 99.28 
z
" clip-path="url(#pc1a712b413)" style="fill: #808080; fill-opacity: 0.6; stroke: #ffffff; stroke-opacity: 0.6; stroke-width: 2"/>
    <path d="M 284.454545 102.508757 
C 287.962853 102.508757 291.327941 101.114891 293.808689 98.634143 
C 296.289437 96.153396 297.683302 92.788307 297.683302 89.28 
C 297.683302 85.771693 296.289437 82.406604 293.808689 79.925857 
C 291.327941 77.445109 287.962853 76.051243 284.454545 76.051243 
C 280.946238 76.051243 277.58115 77.445109 275.100402 79.925857 
C 272.619654 82.406604 271.225789 85.771693 271.225789 89.28 
C 271.225789 92.788307 272.619654 96.153396 275.100402 98.634143 
C 277.58115 101.114891 280.946238 102.508757 284.454545 102.508757 
z
" clip-path="url(#pc1a712b413)" style="fill: #808080; fill-opacity: 0.6; stroke: #ffffff; stroke-opacity: 0.6; stroke-width: 2"/>
    <path d="M 284.454545 99.28 
C 287.106576 99.28 289.650344 98.226337 291.525613 96.351068 
C 293.400882 94.475799 294.454545 91.932031 294.454545 89.28 
C 294.454545 86.627969 293.400882 84.084201 291.525613 82.208932 
C 289.650344 80.333663 287.106576 79.28 284.454545 79.28 
C 281.802514 79.28 279.258747 80.333663 277.383478 82.208932 
C 275.508209 84.084201 274.454545 86.627969 274.454545 89.28 
C 274.454545 91.932031 275.508209 94.475799 277.383478 96.351068 
C 279.258747 98.226337 281.802514 99.28 284.454545 99.28 
z
" clip-path="url(#pc1a712b413)" style="fill: #808080; fill-opacity: 0.6; stroke: #ffffff; stroke-opacity: 0.6; stroke-width: 2"/>
    <path d="M 453.545455 504.727449 
C 456.793516 504.727449 459.908982 503.43698 462.205709 501.140254 
C 464.502435 498.843528 465.792903 495.728061 465.792903 492.48 
C 465.792903 489.231939 464.502435 486.116472 462.205709 483.819746 
C 459.908982 481.52302 456.793516 480.232551 453.545455 480.232551 
C 450.297393 480.232551 447.181927 481.52302 444.885201 483.819746 
C 442.588474 486.116472 441.298006 489.231939 441.298006 492.48 
C 441.298006 495.728061 442.588474 498.843528 444.885201 501.140254 
C 447.181927 503.43698 450.297393 504.727449 453.545455 504.727449 
z
" clip-path="url(#pc1a712b413)" style="fill: #808080; fill-opacity: 0.6; stroke: #ffffff; stroke-opacity: 0.6; stroke-width: 2"/>
    <path d="M 453.545455 516.459158 
C 459.904801 516.459158 466.004542 513.932562 470.50128 509.435825 
C 474.998017 504.939088 477.524612 498.839347 477.524612 492.48 
C 477.524612 486.120653 474.998017 480.020912 470.50128 475.524175 
C 466.004542 471.027438 459.904801 468.500842 453.545455 468.500842 
C 447.186108 468.500842 441.086367 471.027438 436.58963 475.524175 
C 432.092892 480.020912 429.566297 486.120653 429.566297 492.48 
C 429.566297 498.839347 432.092892 504.939088 436.58963 509.435825 
C 441.086367 513.932562 447.186108 516.459158 453.545455 516.459158 
z
" clip-path="url(#pc1a712b413)" style="fill: #808080; fill-opacity: 0.6; stroke: #ffffff; stroke-opacity: 0.6; stroke-width: 2"/>
    <path d="M 453.545455 502.48 
C 456.197486 502.48 458.741253 501.426337 460.616522 499.551068 
C 462.491791 497.675799 463.545455 495.132031 463.545455 492.48 
C 463.545455 489.827969 462.491791 487.284201 460.616522 485.408932 
C 458.741253 483.533663 456.197486 482.48 453.545455 482.48 
C 450.893424 482.48 448.349656 483.533663 446.474387 485.408932 
C 444.599118 487.284201 443.545455 489.827969 443.545455 492.48 
C 443.545455 495.132031 444.599118 497.675799 446.474387 499.551068 
C 448.349656 501.426337 450.893424 502.48 453.545455 502.48 
z
" clip-path="url(#pc1a712b413)" style="fill: #808080; fill-opacity: 0.6; stroke: #ffffff; stroke-opacity: 0.6; stroke-width: 2"/>
    <path d="M 453.545455 497.48 
C 454.87147 497.48 456.143354 496.953168 457.080988 496.015534 
C 458.018623 495.077899 458.545455 493.806016 458.545455 492.48 
C 458.545455 491.153985 458.018623 489.882101 457.080988 488.944466 
C 456.143354 488.006832 454.87147 487.48 453.545455 487.48 
C 452.219439 487.48 450.947555 488.006832 450.009921 488.944466 
C 449.072286 489.882101 448.545455 491.153985 448.545455 492.48 
C 448.545455 493.806016 449.072286 495.077899 450.009921 496.015534 
C 450.947555 496.953168 452.219439 497.48 453.545455 497.48 
z
" clip-path="url(#pc1a712b413)" style="fill: #808080; fill-opacity: 0.6; stroke: #ffffff; stroke-opacity: 0.6; stroke-width: 2"/>
    <path d="M 453.545455 366.740254 
C 455.842181 366.740254 458.045148 365.827755 459.669179 364.203724 
C 461.29321 362.579694 462.205709 360.376726 462.205709 358.08 
C 462.205709 355.783274 461.29321 353.580306 459.669179 351.956276 
C 458.045148 350.332245 455.842181 349.419746 453.545455 349.419746 
C 451.248728 349.419746 449.045761 350.332245 447.42173 351.956276 
C 445.7977 353.580306 444.885201 355.783274 444.885201 358.08 
C 444.885201 360.376726 445.7977 362.579694 447.42173 364.203724 
C 449.045761 365.827755 451.248728 366.740254 453.545455 366.740254 
z
" clip-path="url(#pc1a712b413)" style="fill: #808080; fill-opacity: 0.6; stroke: #ffffff; stroke-opacity: 0.6; stroke-width: 2"/>
    <path d="M 453.545455 380.44068 
C 459.475576 380.44068 465.163614 378.084617 469.356843 373.891388 
C 473.550072 369.698159 475.906134 364.010122 475.906134 358.08 
C 475.906134 352.149878 473.550072 346.461841 469.356843 342.268612 
C 465.163614 338.075383 459.475576 335.71932 453.545455 335.71932 
C 447.615333 335.71932 441.927295 338.075383 437.734066 342.268612 
C 433.540837 346.461841 431.184775 352.149878 431.184775 358.08 
C 431.184775 364.010122 433.540837 369.698159 437.734066 373.891388 
C 441.927295 378.084617 447.615333 380.44068 453.545455 380.44068 
z
" clip-path="url(#pc1a712b413)" style="fill: #808080; fill-opacity: 0.6; stroke: #ffffff; stroke-opacity: 0.6; stroke-width: 2"/>
    <path d="M 453.545455 368.08 
C 456.197486 368.08 458.741253 367.026337 460.616522 365.151068 
C 462.491791 363.275799 463.545455 360.732031 463.545455 358.08 
C 463.545455 355.427969 462.491791 352.884201 460.616522 351.008932 
C 458.741253 349.133663 456.197486 348.08 453.545455 348.08 
C 450.893424 348.08 448.349656 349.133663 446.474387 351.008932 
C 444.599118 352.884201 443.545455 355.427969 443.545455 358.08 
C 443.545455 360.732031 444.599118 363.275799 446.474387 365.151068 
C 448.349656 367.026337 450.893424 368.08 453.545455 368.08 
z
" clip-path="url(#pc1a712b413)" style="fill: #808080; fill-opacity: 0.6; stroke: #ffffff; stroke-opacity: 0.6; stroke-width: 2"/>
    <path d="M 453.545455 228.68 
C 454.87147 228.68 456.143354 228.153168 457.080988 227.215534 
C 458.018623 226.277899 458.545455 225.006016 458.545455 223.68 
C 458.545455 222.353984 458.018623 221.082101 457.080988 220.144466 
C 456.143354 219.206832 454.87147 218.68 453.545455 218.68 
C 452.219439 218.68 450.947555 219.206832 450.009921 220.144466 
C 449.072286 221.082101 448.545455 222.353984 448.545455 223.68 
C 448.545455 225.006016 449.072286 226.277899 450.009921 227.215534 
C 450.947555 228.153168 452.219439 228.68 453.545455 228.68 
z
" clip-path="url(#pc1a712b413)" style="fill: #808080; fill-opacity: 0.6; stroke: #ffffff; stroke-opacity: 0.6; stroke-width: 2"/>
    <path d="M 453.545455 236.908757 
C 457.053762 236.908757 460.41885 235.514891 462.899598 233.034143 
C 465.380346 230.553396 466.774211 227.188307 466.774211 223.68 
C 466.774211 220.171693 465.380346 216.806604 462.899598 214.325857 
C 460.41885 211.845109 457.053762 210.451243 453.545455 210.451243 
C 450.037147 210.451243 446.672059 211.845109 444.191311 214.325857 
C 441.710563 216.806604 440.316698 220.171693 440.316698 223.68 
C 440.316698 227.188307 441.710563 230.553396 444.191311 233.034143 
C 446.672059 235.514891 450.037147 236.908757 453.545455 236.908757 
z
" clip-path="url(#pc1a712b413)" style="fill: #808080; fill-opacity: 0.6; stroke: #ffffff; stroke-opacity: 0.6; stroke-width: 2"/>
    <path d="M 453.545455 228.68 
C 454.87147 228.68 456.143354 228.153168 457.080988 227.215534 
C 458.018623 226.277899 458.545455 225.006016 458.545455 223.68 
C 458.545455 222.353984 458.018623 221.082101 457.080988 220.144466 
C 456.143354 219.206832 454.87147 218.68 453.545455 218.68 
C 452.219439 218.68 450.947555 219.206832 450.009921 220.144466 
C 449.072286 221.082101 448.545455 222.353984 448.545455 223.68 
C 448.545455 225.006016 449.072286 226.277899 450.009921 227.215534 
C 450.947555 228.153168 452.219439 228.68 453.545455 228.68 
z
" clip-path="url(#pc1a712b413)" style="fill: #808080; fill-opacity: 0.6; stroke: #ffffff; stroke-opacity: 0.6; stroke-width: 2"/>
    <path d="M 453.545455 96.351068 
C 455.420724 96.351068 457.219439 95.606015 458.545455 94.28 
C 459.87147 92.953984 460.616522 91.155269 460.616522 89.28 
C 460.616522 87.404731 459.87147 85.606015 458.545455 84.28 
C 457.219439 82.953984 455.420724 82.208932 453.545455 82.208932 
C 451.670185 82.208932 449.87147 82.953984 448.545455 84.28 
C 447.219439 85.606015 446.474387 87.404731 446.474387 89.28 
C 446.474387 91.155269 447.219439 92.953984 448.545455 94.28 
C 449.87147 95.606015 451.670185 96.351068 453.545455 96.351068 
z
" clip-path="url(#pc1a712b413)" style="fill: #808080; fill-opacity: 0.6; stroke: #ffffff; stroke-opacity: 0.6; stroke-width: 2"/>
    <path d="M 453.545455 105.863124 
C 457.94335 105.863124 462.161712 104.115821 465.271494 101.006039 
C 468.381276 97.896257 470.128578 93.677896 470.128578 89.28 
C 470.128578 84.882104 468.381276 80.663743 465.271494 77.553961 
C 462.161712 74.444179 457.94335 72.696876 453.545455 72.696876 
C 449.147559 72.696876 444.929197 74.444179 441.819415 77.553961 
C 438.709633 80.663743 436.962331 84.882104 436.962331 89.28 
C 436.962331 93.677896 438.709633 97.896257 441.819415 101.006039 
C 444.929197 104.115821 449.147559 105.863124 453.545455 105.863124 
z
" clip-path="url(#pc1a712b413)" style="fill: #808080; fill-opacity: 0.6; stroke: #ffffff; stroke-opacity: 0.6; stroke-width: 2"/>
    <path d="M 453.545455 97.940254 
C 455.842181 97.940254 458.045148 97.027755 459.669179 95.403724 
C 461.29321 93.779694 462.205709 91.576726 462.205709 89.28 
C 462.205709 86.983274 461.29321 84.780306 459.669179 83.156276 
C 458.045148 81.532245 455.842181 80.619746 453.545455 80.619746 
C 451.248728 80.619746 449.045761 81.532245 447.42173 83.156276 
C 445.7977 84.780306 444.885201 86.983274 444.885201 89.28 
C 444.885201 91.576726 445.7977 93.779694 447.42173 95.403724 
C 449.045761 97.027755 451.248728 97.940254 453.545455 97.940254 
z
" clip-path="url(#pc1a712b413)" style="fill: #808080; fill-opacity: 0.6; stroke: #ffffff; stroke-opacity: 0.6; stroke-width: 2"/>
    <path d="M 622.636364 505.708757 
C 626.144671 505.708757 629.509759 504.314891 631.990507 501.834143 
C 634.471255 499.353396 635.86512 495.988307 635.86512 492.48 
C 635.86512 488.971693 634.471255 485.606604 631.990507 483.125857 
C 629.509759 480.645109 626.144671 479.251243 622.636364 479.251243 
C 619.128056 479.251243 615.762968 480.645109 613.28222 483.125857 
C 610.801472 485.606604 609.407607 488.971693 609.407607 492.48 
C 609.407607 495.988307 610.801472 499.353396 613.28222 501.834143 
C 615.762968 504.314891 619.128056 505.708757 622.636364 505.708757 
z
" clip-path="url(#pc1a712b413)" style="fill: #808080; fill-opacity: 0.6; stroke: #ffffff; stroke-opacity: 0.6; stroke-width: 2"/>
    <path d="M 622.636364 508.291388 
C 626.829593 508.291388 630.851643 506.625401 633.816704 503.66034 
C 636.781764 500.695279 638.447752 496.673229 638.447752 492.48 
C 638.447752 488.286771 636.781764 484.264721 633.816704 481.29966 
C 630.851643 478.334599 626.829593 476.668612 622.636364 476.668612 
C 618.443134 476.668612 614.421085 478.334599 611.456024 481.29966 
C 608.490963 484.264721 606.824975 488.286771 606.824975 492.48 
C 606.824975 496.673229 608.490963 500.695279 611.456024 503.66034 
C 614.421085 506.625401 618.443134 508.291388 622.636364 508.291388 
z
" clip-path="url(#pc1a712b413)" style="fill: #808080; fill-opacity: 0.6; stroke: #ffffff; stroke-opacity: 0.6; stroke-width: 2"/>
    <path d="M 622.636364 504.727449 
C 625.884425 504.727449 628.999891 503.43698 631.296618 501.140254 
C 633.593344 498.843528 634.883812 495.728061 634.883812 492.48 
C 634.883812 489.231939 633.593344 486.116472 631.296618 483.819746 
C 628.999891 481.52302 625.884425 480.232551 622.636364 480.232551 
C 619.388302 480.232551 616.272836 481.52302 613.97611 483.819746 
C 611.679383 486.116472 610.388915 489.231939 610.388915 492.48 
C 610.388915 495.728061 611.679383 498.843528 613.97611 501.140254 
C 616.272836 503.43698 619.388302 504.727449 622.636364 504.727449 
z
" clip-path="url(#pc1a712b413)" style="fill: #808080; fill-opacity: 0.6; stroke: #ffffff; stroke-opacity: 0.6; stroke-width: 2"/>
    <path d="M 622.636364 503.66034 
C 625.601424 503.66034 628.445443 502.482309 630.542058 500.385694 
C 632.638672 498.28908 633.816704 495.445061 633.816704 492.48 
C 633.816704 489.514939 632.638672 486.67092 630.542058 484.574306 
C 628.445443 482.477691 625.601424 481.29966 622.636364 481.29966 
C 619.671303 481.29966 616.827284 482.477691 614.730669 484.574306 
C 612.634055 486.67092 611.456024 489.514939 611.456024 492.48 
C 611.456024 495.445061 612.634055 498.28908 614.730669 500.385694 
C 616.827284 502.482309 619.671303 503.66034 622.636364 503.66034 
z
" clip-path="url(#pc1a712b413)" style="fill: #808080; fill-opacity: 0.6; stroke: #ffffff; stroke-opacity: 0.6; stroke-width: 2"/>
    <path d="M 622.636364 366.740254 
C 624.93309 366.740254 627.136057 365.827755 628.760088 364.203724 
C 630.384119 362.579694 631.296618 360.376726 631.296618 358.08 
C 631.296618 355.783274 630.384119 353.580306 628.760088 351.956276 
C 627.136057 350.332245 624.93309 349.419746 622.636364 349.419746 
C 620.339637 349.419746 618.13667 350.332245 616.512639 351.956276 
C 614.888609 353.580306 613.97611 355.783274 613.97611 358.08 
C 613.97611 360.376726 614.888609 362.579694 616.512639 364.203724 
C 618.13667 365.827755 620.339637 366.740254 622.636364 366.740254 
z
" clip-path="url(#pc1a712b413)" style="fill: #808080; fill-opacity: 0.6; stroke: #ffffff; stroke-opacity: 0.6; stroke-width: 2"/>
    <path d="M 622.636364 370.327449 
C 625.884425 370.327449 628.999891 369.03698 631.296618 366.740254 
C 633.593344 364.443528 634.883812 361.328061 634.883812 358.08 
C 634.883812 354.831939 633.593344 351.716472 631.296618 349.419746 
C 628.999891 347.12302 625.884425 345.832551 622.636364 345.832551 
C 619.388302 345.832551 616.272836 347.12302 613.97611 349.419746 
C 611.679383 351.716472 610.388915 354.831939 610.388915 358.08 
C 610.388915 361.328061 611.679383 364.443528 613.97611 366.740254 
C 616.272836 369.03698 619.388302 370.327449 622.636364 370.327449 
z
" clip-path="url(#pc1a712b413)" style="fill: #808080; fill-opacity: 0.6; stroke: #ffffff; stroke-opacity: 0.6; stroke-width: 2"/>
    <path d="M 622.636364 370.327449 
C 625.884425 370.327449 628.999891 369.03698 631.296618 366.740254 
C 633.593344 364.443528 634.883812 361.328061 634.883812 358.08 
C 634.883812 354.831939 633.593344 351.716472 631.296618 349.419746 
C 628.999891 347.12302 625.884425 345.832551 622.636364 345.832551 
C 619.388302 345.832551 616.272836 347.12302 613.97611 349.419746 
C 611.679383 351.716472 610.388915 354.831939 610.388915 358.08 
C 610.388915 361.328061 611.679383 364.443528 613.97611 366.740254 
C 616.272836 369.03698 619.388302 370.327449 622.636364 370.327449 
z
" clip-path="url(#pc1a712b413)" style="fill: #808080; fill-opacity: 0.6; stroke: #ffffff; stroke-opacity: 0.6; stroke-width: 2"/>
    <path d="M 622.636364 363.08 
C 623.962379 363.08 625.234263 362.553168 626.171898 361.615534 
C 627.109532 360.677899 627.636364 359.406015 627.636364 358.08 
C 627.636364 356.753985 627.109532 355.482101 626.171898 354.544466 
C 625.234263 353.606832 623.962379 353.08 622.636364 353.08 
C 621.310348 353.08 620.038464 353.606832 619.10083 354.544466 
C 618.163195 355.482101 617.636364 356.753985 617.636364 358.08 
C 617.636364 359.406015 618.163195 360.677899 619.10083 361.615534 
C 620.038464 362.553168 621.310348 363.08 622.636364 363.08 
z
" clip-path="url(#pc1a712b413)" style="fill: #808080; fill-opacity: 0.6; stroke: #ffffff; stroke-opacity: 0.6; stroke-width: 2"/>
    <path d="M 622.636364 228.68 
C 623.962379 228.68 625.234263 228.153168 626.171898 227.215534 
C 627.109532 226.277899 627.636364 225.006016 627.636364 223.68 
C 627.636364 222.353984 627.109532 221.082101 626.171898 220.144466 
C 625.234263 219.206832 623.962379 218.68 622.636364 218.68 
C 621.310348 218.68 620.038464 219.206832 619.10083 220.144466 
C 618.163195 221.082101 617.636364 222.353984 617.636364 223.68 
C 617.636364 225.006016 618.163195 226.277899 619.10083 227.215534 
C 620.038464 228.153168 621.310348 228.68 622.636364 228.68 
z
" clip-path="url(#pc1a712b413)" style="fill: #808080; fill-opacity: 0.6; stroke: #ffffff; stroke-opacity: 0.6; stroke-width: 2"/>
    <path d="M 622.636364 230.751068 
C 624.511633 230.751068 626.310348 230.006016 627.636364 228.68 
C 628.962379 227.353984 629.707431 225.555269 629.707431 223.68 
C 629.707431 221.804731 628.962379 220.006016 627.636364 218.68 
C 626.310348 217.353984 624.511633 216.608932 622.636364 216.608932 
C 620.761095 216.608932 618.962379 217.353984 617.636364 218.68 
C 616.310348 220.006016 615.565296 221.804731 615.565296 223.68 
C 615.565296 225.555269 616.310348 227.353984 617.636364 228.68 
C 618.962379 230.006016 620.761095 230.751068 622.636364 230.751068 
z
" clip-path="url(#pc1a712b413)" style="fill: #808080; fill-opacity: 0.6; stroke: #ffffff; stroke-opacity: 0.6; stroke-width: 2"/>
    <path d="M 622.636364 230.751068 
C 624.511633 230.751068 626.310348 230.006016 627.636364 228.68 
C 628.962379 227.353984 629.707431 225.555269 629.707431 223.68 
C 629.707431 221.804731 628.962379 220.006016 627.636364 218.68 
C 626.310348 217.353984 624.511633 216.608932 622.636364 216.608932 
C 620.761095 216.608932 618.962379 217.353984 617.636364 218.68 
C 616.310348 220.006016 615.565296 221.804731 615.565296 223.68 
C 615.565296 225.555269 616.310348 227.353984 617.636364 228.68 
C 618.962379 230.006016 620.761095 230.751068 622.636364 230.751068 
z
" clip-path="url(#pc1a712b413)" style="fill: #808080; fill-opacity: 0.6; stroke: #ffffff; stroke-opacity: 0.6; stroke-width: 2"/>
    <path d="M 622.636364 96.351068 
C 624.511633 96.351068 626.310348 95.606015 627.636364 94.28 
C 628.962379 92.953984 629.707431 91.155269 629.707431 89.28 
C 629.707431 87.404731 628.962379 85.606015 627.636364 84.28 
C 626.310348 82.953984 624.511633 82.208932 622.636364 82.208932 
C 620.761095 82.208932 618.962379 82.953984 617.636364 84.28 
C 616.310348 85.606015 615.565296 87.404731 615.565296 89.28 
C 615.565296 91.155269 616.310348 92.953984 617.636364 94.28 
C 618.962379 95.606015 620.761095 96.351068 622.636364 96.351068 
z
" clip-path="url(#pc1a712b413)" style="fill: #808080; fill-opacity: 0.6; stroke: #ffffff; stroke-opacity: 0.6; stroke-width: 2"/>
    <path d="M 622.636364 99.28 
C 625.288395 99.28 627.832162 98.226337 629.707431 96.351068 
C 631.582701 94.475799 632.636364 91.932031 632.636364 89.28 
C 632.636364 86.627969 631.582701 84.084201 629.707431 82.208932 
C 627.832162 80.333663 625.288395 79.28 622.636364 79.28 
C 619.984333 79.28 617.440565 80.333663 615.565296 82.208932 
C 613.690027 84.084201 612.636364 86.627969 612.636364 89.28 
C 612.636364 91.932031 613.690027 94.475799 615.565296 96.351068 
C 617.440565 98.226337 619.984333 99.28 622.636364 99.28 
z
" clip-path="url(#pc1a712b413)" style="fill: #808080; fill-opacity: 0.6; stroke: #ffffff; stroke-opacity: 0.6; stroke-width: 2"/>
    <path d="M 622.636364 99.28 
C 625.288395 99.28 627.832162 98.226337 629.707431 96.351068 
C 631.582701 94.475799 632.636364 91.932031 632.636364 89.28 
C 632.636364 86.627969 631.582701 84.084201 629.707431 82.208932 
C 627.832162 80.333663 625.288395 79.28 622.636364 79.28 
C 619.984333 79.28 617.440565 80.333663 615.565296 82.208932 
C 613.690027 84.084201 612.636364 86.627969 612.636364 89.28 
C 612.636364 91.932031 613.690027 94.475799 615.565296 96.351068 
C 617.440565 98.226337 619.984333 99.28 622.636364 99.28 
z
" clip-path="url(#pc1a712b413)" style="fill: #808080; fill-opacity: 0.6; stroke: #ffffff; stroke-opacity: 0.6; stroke-width: 2"/>
   </g>
   <g id="matplotlib.axis_1">
    <g id="xtick_1">
     <g id="line2d_1">
      <path d="M 115.363636 512.64 
L 115.363636 69.12 
" clip-path="url(#pc1a712b413)" style="fill: none; stroke: #b0b0b0; stroke-width: 0.8; stroke-linecap: square"/>
     </g>
     <g id="line2d_2">
      <defs>
       <path id="ma17bea6740" d="M 0 0 
L 0 3.5 
" style="stroke: #000000; stroke-width: 0.8"/>
      </defs>
      <g>
       <use xlink:href="#ma17bea6740" x="115.363636" y="512.64" style="stroke: #000000; stroke-width: 0.8"/>
      </g>
     </g>
     <g id="text_1">
      <!-- Virtual World -->
      <g transform="translate(83.112074 527.238438) scale(0.1 -0.1)">
       <defs>
        <path id="DejaVuSans-56" d="M 1831 0 
L 50 4666 
L 709 4666 
L 2188 738 
L 3669 4666 
L 4325 4666 
L 2547 0 
L 1831 0 
z
" transform="scale(0.015625)"/>
        <path id="DejaVuSans-69" d="M 603 3500 
L 1178 3500 
L 1178 0 
L 603 0 
L 603 3500 
z
M 603 4863 
L 1178 4863 
L 1178 4134 
L 603 4134 
L 603 4863 
z
" transform="scale(0.015625)"/>
        <path id="DejaVuSans-72" d="M 2631 2963 
Q 2534 3019 2420 3045 
Q 2306 3072 2169 3072 
Q 1681 3072 1420 2755 
Q 1159 2438 1159 1844 
L 1159 0 
L 581 0 
L 581 3500 
L 1159 3500 
L 1159 2956 
Q 1341 3275 1631 3429 
Q 1922 3584 2338 3584 
Q 2397 3584 2469 3576 
Q 2541 3569 2628 3553 
L 2631 2963 
z
" transform="scale(0.015625)"/>
        <path id="DejaVuSans-74" d="M 1172 4494 
L 1172 3500 
L 2356 3500 
L 2356 3053 
L 1172 3053 
L 1172 1153 
Q 1172 725 1289 603 
Q 1406 481 1766 481 
L 2356 481 
L 2356 0 
L 1766 0 
Q 1100 0 847 248 
Q 594 497 594 1153 
L 594 3053 
L 172 3053 
L 172 3500 
L 594 3500 
L 594 4494 
L 1172 4494 
z
" transform="scale(0.015625)"/>
        <path id="DejaVuSans-75" d="M 544 1381 
L 544 3500 
L 1119 3500 
L 1119 1403 
Q 1119 906 1312 657 
Q 1506 409 1894 409 
Q 2359 409 2629 706 
Q 2900 1003 2900 1516 
L 2900 3500 
L 3475 3500 
L 3475 0 
L 2900 0 
L 2900 538 
Q 2691 219 2414 64 
Q 2138 -91 1772 -91 
Q 1169 -91 856 284 
Q 544 659 544 1381 
z
M 1991 3584 
L 1991 3584 
z
" transform="scale(0.015625)"/>
        <path id="DejaVuSans-61" d="M 2194 1759 
Q 1497 1759 1228 1600 
Q 959 1441 959 1056 
Q 959 750 1161 570 
Q 1363 391 1709 391 
Q 2188 391 2477 730 
Q 2766 1069 2766 1631 
L 2766 1759 
L 2194 1759 
z
M 3341 1997 
L 3341 0 
L 2766 0 
L 2766 531 
Q 2569 213 2275 61 
Q 1981 -91 1556 -91 
Q 1019 -91 701 211 
Q 384 513 384 1019 
Q 384 1609 779 1909 
Q 1175 2209 1959 2209 
L 2766 2209 
L 2766 2266 
Q 2766 2663 2505 2880 
Q 2244 3097 1772 3097 
Q 1472 3097 1187 3025 
Q 903 2953 641 2809 
L 641 3341 
Q 956 3463 1253 3523 
Q 1550 3584 1831 3584 
Q 2591 3584 2966 3190 
Q 3341 2797 3341 1997 
z
" transform="scale(0.015625)"/>
        <path id="DejaVuSans-6c" d="M 603 4863 
L 1178 4863 
L 1178 0 
L 603 0 
L 603 4863 
z
" transform="scale(0.015625)"/>
        <path id="DejaVuSans-20" transform="scale(0.015625)"/>
        <path id="DejaVuSans-57" d="M 213 4666 
L 850 4666 
L 1831 722 
L 2809 4666 
L 3519 4666 
L 4500 722 
L 5478 4666 
L 6119 4666 
L 4947 0 
L 4153 0 
L 3169 4050 
L 2175 0 
L 1381 0 
L 213 4666 
z
" transform="scale(0.015625)"/>
        <path id="DejaVuSans-6f" d="M 1959 3097 
Q 1497 3097 1228 2736 
Q 959 2375 959 1747 
Q 959 1119 1226 758 
Q 1494 397 1959 397 
Q 2419 397 2687 759 
Q 2956 1122 2956 1747 
Q 2956 2369 2687 2733 
Q 2419 3097 1959 3097 
z
M 1959 3584 
Q 2709 3584 3137 3096 
Q 3566 2609 3566 1747 
Q 3566 888 3137 398 
Q 2709 -91 1959 -91 
Q 1206 -91 779 398 
Q 353 888 353 1747 
Q 353 2609 779 3096 
Q 1206 3584 1959 3584 
z
" transform="scale(0.015625)"/>
        <path id="DejaVuSans-64" d="M 2906 2969 
L 2906 4863 
L 3481 4863 
L 3481 0 
L 2906 0 
L 2906 525 
Q 2725 213 2448 61 
Q 2172 -91 1784 -91 
Q 1150 -91 751 415 
Q 353 922 353 1747 
Q 353 2572 751 3078 
Q 1150 3584 1784 3584 
Q 2172 3584 2448 3432 
Q 2725 3281 2906 2969 
z
M 947 1747 
Q 947 1113 1208 752 
Q 1469 391 1925 391 
Q 2381 391 2643 752 
Q 2906 1113 2906 1747 
Q 2906 2381 2643 2742 
Q 2381 3103 1925 3103 
Q 1469 3103 1208 2742 
Q 947 2381 947 1747 
z
" transform="scale(0.015625)"/>
       </defs>
       <use xlink:href="#DejaVuSans-56"/>
       <use xlink:href="#DejaVuSans-69" x="66.158203"/>
       <use xlink:href="#DejaVuSans-72" x="93.941406"/>
       <use xlink:href="#DejaVuSans-74" x="135.054688"/>
       <use xlink:href="#DejaVuSans-75" x="174.263672"/>
       <use xlink:href="#DejaVuSans-61" x="237.642578"/>
       <use xlink:href="#DejaVuSans-6c" x="298.921875"/>
       <use xlink:href="#DejaVuSans-20" x="326.705078"/>
       <use xlink:href="#DejaVuSans-57" x="358.492188"/>
       <use xlink:href="#DejaVuSans-6f" x="451.494141"/>
       <use xlink:href="#DejaVuSans-72" x="512.675781"/>
       <use xlink:href="#DejaVuSans-6c" x="553.789062"/>
       <use xlink:href="#DejaVuSans-64" x="581.572266"/>
      </g>
     </g>
    </g>
    <g id="xtick_2">
     <g id="line2d_3">
      <path d="M 284.454545 512.64 
L 284.454545 69.12 
" clip-path="url(#pc1a712b413)" style="fill: none; stroke: #b0b0b0; stroke-width: 0.8; stroke-linecap: square"/>
     </g>
     <g id="line2d_4">
      <g>
       <use xlink:href="#ma17bea6740" x="284.454545" y="512.64" style="stroke: #000000; stroke-width: 0.8"/>
      </g>
     </g>
     <g id="text_2">
      <!-- Lifelogging -->
      <g transform="translate(256.91392 527.238438) scale(0.1 -0.1)">
       <defs>
        <path id="DejaVuSans-4c" d="M 628 4666 
L 1259 4666 
L 1259 531 
L 3531 531 
L 3531 0 
L 628 0 
L 628 4666 
z
" transform="scale(0.015625)"/>
        <path id="DejaVuSans-66" d="M 2375 4863 
L 2375 4384 
L 1825 4384 
Q 1516 4384 1395 4259 
Q 1275 4134 1275 3809 
L 1275 3500 
L 2222 3500 
L 2222 3053 
L 1275 3053 
L 1275 0 
L 697 0 
L 697 3053 
L 147 3053 
L 147 3500 
L 697 3500 
L 697 3744 
Q 697 4328 969 4595 
Q 1241 4863 1831 4863 
L 2375 4863 
z
" transform="scale(0.015625)"/>
        <path id="DejaVuSans-65" d="M 3597 1894 
L 3597 1613 
L 953 1613 
Q 991 1019 1311 708 
Q 1631 397 2203 397 
Q 2534 397 2845 478 
Q 3156 559 3463 722 
L 3463 178 
Q 3153 47 2828 -22 
Q 2503 -91 2169 -91 
Q 1331 -91 842 396 
Q 353 884 353 1716 
Q 353 2575 817 3079 
Q 1281 3584 2069 3584 
Q 2775 3584 3186 3129 
Q 3597 2675 3597 1894 
z
M 3022 2063 
Q 3016 2534 2758 2815 
Q 2500 3097 2075 3097 
Q 1594 3097 1305 2825 
Q 1016 2553 972 2059 
L 3022 2063 
z
" transform="scale(0.015625)"/>
        <path id="DejaVuSans-67" d="M 2906 1791 
Q 2906 2416 2648 2759 
Q 2391 3103 1925 3103 
Q 1463 3103 1205 2759 
Q 947 2416 947 1791 
Q 947 1169 1205 825 
Q 1463 481 1925 481 
Q 2391 481 2648 825 
Q 2906 1169 2906 1791 
z
M 3481 434 
Q 3481 -459 3084 -895 
Q 2688 -1331 1869 -1331 
Q 1566 -1331 1297 -1286 
Q 1028 -1241 775 -1147 
L 775 -588 
Q 1028 -725 1275 -790 
Q 1522 -856 1778 -856 
Q 2344 -856 2625 -561 
Q 2906 -266 2906 331 
L 2906 616 
Q 2728 306 2450 153 
Q 2172 0 1784 0 
Q 1141 0 747 490 
Q 353 981 353 1791 
Q 353 2603 747 3093 
Q 1141 3584 1784 3584 
Q 2172 3584 2450 3431 
Q 2728 3278 2906 2969 
L 2906 3500 
L 3481 3500 
L 3481 434 
z
" transform="scale(0.015625)"/>
        <path id="DejaVuSans-6e" d="M 3513 2113 
L 3513 0 
L 2938 0 
L 2938 2094 
Q 2938 2591 2744 2837 
Q 2550 3084 2163 3084 
Q 1697 3084 1428 2787 
Q 1159 2491 1159 1978 
L 1159 0 
L 581 0 
L 581 3500 
L 1159 3500 
L 1159 2956 
Q 1366 3272 1645 3428 
Q 1925 3584 2291 3584 
Q 2894 3584 3203 3211 
Q 3513 2838 3513 2113 
z
" transform="scale(0.015625)"/>
       </defs>
       <use xlink:href="#DejaVuSans-4c"/>
       <use xlink:href="#DejaVuSans-69" x="55.712891"/>
       <use xlink:href="#DejaVuSans-66" x="83.496094"/>
       <use xlink:href="#DejaVuSans-65" x="118.701172"/>
       <use xlink:href="#DejaVuSans-6c" x="180.224609"/>
       <use xlink:href="#DejaVuSans-6f" x="208.007812"/>
       <use xlink:href="#DejaVuSans-67" x="269.189453"/>
       <use xlink:href="#DejaVuSans-67" x="332.666016"/>
       <use xlink:href="#DejaVuSans-69" x="396.142578"/>
       <use xlink:href="#DejaVuSans-6e" x="423.925781"/>
       <use xlink:href="#DejaVuSans-67" x="487.304688"/>
      </g>
     </g>
    </g>
    <g id="xtick_3">
     <g id="line2d_5">
      <path d="M 453.545455 512.64 
L 453.545455 69.12 
" clip-path="url(#pc1a712b413)" style="fill: none; stroke: #b0b0b0; stroke-width: 0.8; stroke-linecap: square"/>
     </g>
     <g id="line2d_6">
      <g>
       <use xlink:href="#ma17bea6740" x="453.545455" y="512.64" style="stroke: #000000; stroke-width: 0.8"/>
      </g>
     </g>
     <g id="text_3">
      <!-- Augmented Reality -->
      <g transform="translate(405.779048 527.238438) scale(0.1 -0.1)">
       <defs>
        <path id="DejaVuSans-41" d="M 2188 4044 
L 1331 1722 
L 3047 1722 
L 2188 4044 
z
M 1831 4666 
L 2547 4666 
L 4325 0 
L 3669 0 
L 3244 1197 
L 1141 1197 
L 716 0 
L 50 0 
L 1831 4666 
z
" transform="scale(0.015625)"/>
        <path id="DejaVuSans-6d" d="M 3328 2828 
Q 3544 3216 3844 3400 
Q 4144 3584 4550 3584 
Q 5097 3584 5394 3201 
Q 5691 2819 5691 2113 
L 5691 0 
L 5113 0 
L 5113 2094 
Q 5113 2597 4934 2840 
Q 4756 3084 4391 3084 
Q 3944 3084 3684 2787 
Q 3425 2491 3425 1978 
L 3425 0 
L 2847 0 
L 2847 2094 
Q 2847 2600 2669 2842 
Q 2491 3084 2119 3084 
Q 1678 3084 1418 2786 
Q 1159 2488 1159 1978 
L 1159 0 
L 581 0 
L 581 3500 
L 1159 3500 
L 1159 2956 
Q 1356 3278 1631 3431 
Q 1906 3584 2284 3584 
Q 2666 3584 2933 3390 
Q 3200 3197 3328 2828 
z
" transform="scale(0.015625)"/>
        <path id="DejaVuSans-52" d="M 2841 2188 
Q 3044 2119 3236 1894 
Q 3428 1669 3622 1275 
L 4263 0 
L 3584 0 
L 2988 1197 
Q 2756 1666 2539 1819 
Q 2322 1972 1947 1972 
L 1259 1972 
L 1259 0 
L 628 0 
L 628 4666 
L 2053 4666 
Q 2853 4666 3247 4331 
Q 3641 3997 3641 3322 
Q 3641 2881 3436 2590 
Q 3231 2300 2841 2188 
z
M 1259 4147 
L 1259 2491 
L 2053 2491 
Q 2509 2491 2742 2702 
Q 2975 2913 2975 3322 
Q 2975 3731 2742 3939 
Q 2509 4147 2053 4147 
L 1259 4147 
z
" transform="scale(0.015625)"/>
        <path id="DejaVuSans-79" d="M 2059 -325 
Q 1816 -950 1584 -1140 
Q 1353 -1331 966 -1331 
L 506 -1331 
L 506 -850 
L 844 -850 
Q 1081 -850 1212 -737 
Q 1344 -625 1503 -206 
L 1606 56 
L 191 3500 
L 800 3500 
L 1894 763 
L 2988 3500 
L 3597 3500 
L 2059 -325 
z
" transform="scale(0.015625)"/>
       </defs>
       <use xlink:href="#DejaVuSans-41"/>
       <use xlink:href="#DejaVuSans-75" x="68.408203"/>
       <use xlink:href="#DejaVuSans-67" x="131.787109"/>
       <use xlink:href="#DejaVuSans-6d" x="195.263672"/>
       <use xlink:href="#DejaVuSans-65" x="292.675781"/>
       <use xlink:href="#DejaVuSans-6e" x="354.199219"/>
       <use xlink:href="#DejaVuSans-74" x="417.578125"/>
       <use xlink:href="#DejaVuSans-65" x="456.787109"/>
       <use xlink:href="#DejaVuSans-64" x="518.310547"/>
       <use xlink:href="#DejaVuSans-20" x="581.787109"/>
       <use xlink:href="#DejaVuSans-52" x="613.574219"/>
       <use xlink:href="#DejaVuSans-65" x="678.556641"/>
       <use xlink:href="#DejaVuSans-61" x="740.080078"/>
       <use xlink:href="#DejaVuSans-6c" x="801.359375"/>
       <use xlink:href="#DejaVuSans-69" x="829.142578"/>
       <use xlink:href="#DejaVuSans-74" x="856.925781"/>
       <use xlink:href="#DejaVuSans-79" x="896.134766"/>
      </g>
     </g>
    </g>
    <g id="xtick_4">
     <g id="line2d_7">
      <path d="M 622.636364 512.64 
L 622.636364 69.12 
" clip-path="url(#pc1a712b413)" style="fill: none; stroke: #b0b0b0; stroke-width: 0.8; stroke-linecap: square"/>
     </g>
     <g id="line2d_8">
      <g>
       <use xlink:href="#ma17bea6740" x="622.636364" y="512.64" style="stroke: #000000; stroke-width: 0.8"/>
      </g>
     </g>
     <g id="text_4">
      <!-- Mirror World -->
      <g transform="translate(591.99027 527.238438) scale(0.1 -0.1)">
       <defs>
        <path id="DejaVuSans-4d" d="M 628 4666 
L 1569 4666 
L 2759 1491 
L 3956 4666 
L 4897 4666 
L 4897 0 
L 4281 0 
L 4281 4097 
L 3078 897 
L 2444 897 
L 1241 4097 
L 1241 0 
L 628 0 
L 628 4666 
z
" transform="scale(0.015625)"/>
       </defs>
       <use xlink:href="#DejaVuSans-4d"/>
       <use xlink:href="#DejaVuSans-69" x="86.279297"/>
       <use xlink:href="#DejaVuSans-72" x="114.0625"/>
       <use xlink:href="#DejaVuSans-72" x="153.425781"/>
       <use xlink:href="#DejaVuSans-6f" x="192.289062"/>
       <use xlink:href="#DejaVuSans-72" x="253.470703"/>
       <use xlink:href="#DejaVuSans-20" x="294.583984"/>
       <use xlink:href="#DejaVuSans-57" x="326.371094"/>
       <use xlink:href="#DejaVuSans-6f" x="419.373047"/>
       <use xlink:href="#DejaVuSans-72" x="480.554688"/>
       <use xlink:href="#DejaVuSans-6c" x="521.667969"/>
       <use xlink:href="#DejaVuSans-64" x="549.451172"/>
      </g>
     </g>
    </g>
    <g id="text_5">
     <!-- strategy -->
     <g transform="translate(348.145312 540.916563) scale(0.1 -0.1)">
      <defs>
       <path id="DejaVuSans-73" d="M 2834 3397 
L 2834 2853 
Q 2591 2978 2328 3040 
Q 2066 3103 1784 3103 
Q 1356 3103 1142 2972 
Q 928 2841 928 2578 
Q 928 2378 1081 2264 
Q 1234 2150 1697 2047 
L 1894 2003 
Q 2506 1872 2764 1633 
Q 3022 1394 3022 966 
Q 3022 478 2636 193 
Q 2250 -91 1575 -91 
Q 1294 -91 989 -36 
Q 684 19 347 128 
L 347 722 
Q 666 556 975 473 
Q 1284 391 1588 391 
Q 1994 391 2212 530 
Q 2431 669 2431 922 
Q 2431 1156 2273 1281 
Q 2116 1406 1581 1522 
L 1381 1569 
Q 847 1681 609 1914 
Q 372 2147 372 2553 
Q 372 3047 722 3315 
Q 1072 3584 1716 3584 
Q 2034 3584 2315 3537 
Q 2597 3491 2834 3397 
z
" transform="scale(0.015625)"/>
      </defs>
      <use xlink:href="#DejaVuSans-73"/>
      <use xlink:href="#DejaVuSans-74" x="52.099609"/>
      <use xlink:href="#DejaVuSans-72" x="91.308594"/>
      <use xlink:href="#DejaVuSans-61" x="132.421875"/>
      <use xlink:href="#DejaVuSans-74" x="193.701172"/>
      <use xlink:href="#DejaVuSans-65" x="232.910156"/>
      <use xlink:href="#DejaVuSans-67" x="294.433594"/>
      <use xlink:href="#DejaVuSans-79" x="357.910156"/>
     </g>
    </g>
   </g>
   <g id="matplotlib.axis_2">
    <g id="ytick_1">
     <g id="line2d_9">
      <path d="M 90 492.48 
L 648 492.48 
" clip-path="url(#pc1a712b413)" style="fill: none; stroke: #b0b0b0; stroke-width: 0.8; stroke-linecap: square"/>
     </g>
     <g id="line2d_10">
      <defs>
       <path id="m87c5ee3119" d="M 0 0 
L -3.5 0 
" style="stroke: #000000; stroke-width: 0.8"/>
      </defs>
      <g>
       <use xlink:href="#m87c5ee3119" x="90" y="492.48" style="stroke: #000000; stroke-width: 0.8"/>
      </g>
     </g>
     <g id="text_6">
      <!-- Algorithm Performance -->
      <g transform="translate(-32.515625 496.279219) scale(0.1 -0.1)">
       <defs>
        <path id="DejaVuSans-68" d="M 3513 2113 
L 3513 0 
L 2938 0 
L 2938 2094 
Q 2938 2591 2744 2837 
Q 2550 3084 2163 3084 
Q 1697 3084 1428 2787 
Q 1159 2491 1159 1978 
L 1159 0 
L 581 0 
L 581 4863 
L 1159 4863 
L 1159 2956 
Q 1366 3272 1645 3428 
Q 1925 3584 2291 3584 
Q 2894 3584 3203 3211 
Q 3513 2838 3513 2113 
z
" transform="scale(0.015625)"/>
        <path id="DejaVuSans-50" d="M 1259 4147 
L 1259 2394 
L 2053 2394 
Q 2494 2394 2734 2622 
Q 2975 2850 2975 3272 
Q 2975 3691 2734 3919 
Q 2494 4147 2053 4147 
L 1259 4147 
z
M 628 4666 
L 2053 4666 
Q 2838 4666 3239 4311 
Q 3641 3956 3641 3272 
Q 3641 2581 3239 2228 
Q 2838 1875 2053 1875 
L 1259 1875 
L 1259 0 
L 628 0 
L 628 4666 
z
" transform="scale(0.015625)"/>
        <path id="DejaVuSans-63" d="M 3122 3366 
L 3122 2828 
Q 2878 2963 2633 3030 
Q 2388 3097 2138 3097 
Q 1578 3097 1268 2742 
Q 959 2388 959 1747 
Q 959 1106 1268 751 
Q 1578 397 2138 397 
Q 2388 397 2633 464 
Q 2878 531 3122 666 
L 3122 134 
Q 2881 22 2623 -34 
Q 2366 -91 2075 -91 
Q 1284 -91 818 406 
Q 353 903 353 1747 
Q 353 2603 823 3093 
Q 1294 3584 2113 3584 
Q 2378 3584 2631 3529 
Q 2884 3475 3122 3366 
z
" transform="scale(0.015625)"/>
       </defs>
       <use xlink:href="#DejaVuSans-41"/>
       <use xlink:href="#DejaVuSans-6c" x="68.408203"/>
       <use xlink:href="#DejaVuSans-67" x="96.191406"/>
       <use xlink:href="#DejaVuSans-6f" x="159.667969"/>
       <use xlink:href="#DejaVuSans-72" x="220.849609"/>
       <use xlink:href="#DejaVuSans-69" x="261.962891"/>
       <use xlink:href="#DejaVuSans-74" x="289.746094"/>
       <use xlink:href="#DejaVuSans-68" x="328.955078"/>
       <use xlink:href="#DejaVuSans-6d" x="392.333984"/>
       <use xlink:href="#DejaVuSans-20" x="489.746094"/>
       <use xlink:href="#DejaVuSans-50" x="521.533203"/>
       <use xlink:href="#DejaVuSans-65" x="578.210938"/>
       <use xlink:href="#DejaVuSans-72" x="639.734375"/>
       <use xlink:href="#DejaVuSans-66" x="680.847656"/>
       <use xlink:href="#DejaVuSans-6f" x="716.052734"/>
       <use xlink:href="#DejaVuSans-72" x="777.234375"/>
       <use xlink:href="#DejaVuSans-6d" x="816.597656"/>
       <use xlink:href="#DejaVuSans-61" x="914.009766"/>
       <use xlink:href="#DejaVuSans-6e" x="975.289062"/>
       <use xlink:href="#DejaVuSans-63" x="1038.667969"/>
       <use xlink:href="#DejaVuSans-65" x="1093.648438"/>
      </g>
     </g>
    </g>
    <g id="ytick_2">
     <g id="line2d_11">
      <path d="M 90 358.08 
L 648 358.08 
" clip-path="url(#pc1a712b413)" style="fill: none; stroke: #b0b0b0; stroke-width: 0.8; stroke-linecap: square"/>
     </g>
     <g id="line2d_12">
      <g>
       <use xlink:href="#m87c5ee3119" x="90" y="358.08" style="stroke: #000000; stroke-width: 0.8"/>
      </g>
     </g>
     <g id="text_7">
      <!-- Environment and Practices -->
      <g transform="translate(-51.16875 361.879219) scale(0.1 -0.1)">
       <defs>
        <path id="DejaVuSans-45" d="M 628 4666 
L 3578 4666 
L 3578 4134 
L 1259 4134 
L 1259 2753 
L 3481 2753 
L 3481 2222 
L 1259 2222 
L 1259 531 
L 3634 531 
L 3634 0 
L 628 0 
L 628 4666 
z
" transform="scale(0.015625)"/>
        <path id="DejaVuSans-76" d="M 191 3500 
L 800 3500 
L 1894 563 
L 2988 3500 
L 3597 3500 
L 2284 0 
L 1503 0 
L 191 3500 
z
" transform="scale(0.015625)"/>
       </defs>
       <use xlink:href="#DejaVuSans-45"/>
       <use xlink:href="#DejaVuSans-6e" x="63.183594"/>
       <use xlink:href="#DejaVuSans-76" x="126.5625"/>
       <use xlink:href="#DejaVuSans-69" x="185.742188"/>
       <use xlink:href="#DejaVuSans-72" x="213.525391"/>
       <use xlink:href="#DejaVuSans-6f" x="252.388672"/>
       <use xlink:href="#DejaVuSans-6e" x="313.570312"/>
       <use xlink:href="#DejaVuSans-6d" x="376.949219"/>
       <use xlink:href="#DejaVuSans-65" x="474.361328"/>
       <use xlink:href="#DejaVuSans-6e" x="535.884766"/>
       <use xlink:href="#DejaVuSans-74" x="599.263672"/>
       <use xlink:href="#DejaVuSans-20" x="638.472656"/>
       <use xlink:href="#DejaVuSans-61" x="670.259766"/>
       <use xlink:href="#DejaVuSans-6e" x="731.539062"/>
       <use xlink:href="#DejaVuSans-64" x="794.917969"/>
       <use xlink:href="#DejaVuSans-20" x="858.394531"/>
       <use xlink:href="#DejaVuSans-50" x="890.181641"/>
       <use xlink:href="#DejaVuSans-72" x="948.734375"/>
       <use xlink:href="#DejaVuSans-61" x="989.847656"/>
       <use xlink:href="#DejaVuSans-63" x="1051.126953"/>
       <use xlink:href="#DejaVuSans-74" x="1106.107422"/>
       <use xlink:href="#DejaVuSans-69" x="1145.316406"/>
       <use xlink:href="#DejaVuSans-63" x="1173.099609"/>
       <use xlink:href="#DejaVuSans-65" x="1228.080078"/>
       <use xlink:href="#DejaVuSans-73" x="1289.603516"/>
      </g>
     </g>
    </g>
    <g id="ytick_3">
     <g id="line2d_13">
      <path d="M 90 223.68 
L 648 223.68 
" clip-path="url(#pc1a712b413)" style="fill: none; stroke: #b0b0b0; stroke-width: 0.8; stroke-linecap: square"/>
     </g>
     <g id="line2d_14">
      <g>
       <use xlink:href="#m87c5ee3119" x="90" y="223.68" style="stroke: #000000; stroke-width: 0.8"/>
      </g>
     </g>
     <g id="text_8">
      <!-- User Performance -->
      <g transform="translate(-6.334375 227.479219) scale(0.1 -0.1)">
       <defs>
        <path id="DejaVuSans-55" d="M 556 4666 
L 1191 4666 
L 1191 1831 
Q 1191 1081 1462 751 
Q 1734 422 2344 422 
Q 2950 422 3222 751 
Q 3494 1081 3494 1831 
L 3494 4666 
L 4128 4666 
L 4128 1753 
Q 4128 841 3676 375 
Q 3225 -91 2344 -91 
Q 1459 -91 1007 375 
Q 556 841 556 1753 
L 556 4666 
z
" transform="scale(0.015625)"/>
       </defs>
       <use xlink:href="#DejaVuSans-55"/>
       <use xlink:href="#DejaVuSans-73" x="73.193359"/>
       <use xlink:href="#DejaVuSans-65" x="125.292969"/>
       <use xlink:href="#DejaVuSans-72" x="186.816406"/>
       <use xlink:href="#DejaVuSans-20" x="227.929688"/>
       <use xlink:href="#DejaVuSans-50" x="259.716797"/>
       <use xlink:href="#DejaVuSans-65" x="316.394531"/>
       <use xlink:href="#DejaVuSans-72" x="377.917969"/>
       <use xlink:href="#DejaVuSans-66" x="419.03125"/>
       <use xlink:href="#DejaVuSans-6f" x="454.236328"/>
       <use xlink:href="#DejaVuSans-72" x="515.417969"/>
       <use xlink:href="#DejaVuSans-6d" x="554.78125"/>
       <use xlink:href="#DejaVuSans-61" x="652.193359"/>
       <use xlink:href="#DejaVuSans-6e" x="713.472656"/>
       <use xlink:href="#DejaVuSans-63" x="776.851562"/>
       <use xlink:href="#DejaVuSans-65" x="831.832031"/>
      </g>
     </g>
    </g>
    <g id="ytick_4">
     <g id="line2d_15">
      <path d="M 90 89.28 
L 648 89.28 
" clip-path="url(#pc1a712b413)" style="fill: none; stroke: #b0b0b0; stroke-width: 0.8; stroke-linecap: square"/>
     </g>
     <g id="line2d_16">
      <g>
       <use xlink:href="#m87c5ee3119" x="90" y="89.28" style="stroke: #000000; stroke-width: 0.8"/>
      </g>
     </g>
     <g id="text_9">
      <!-- User Experience -->
      <g transform="translate(1.259375 93.079219) scale(0.1 -0.1)">
       <defs>
        <path id="DejaVuSans-78" d="M 3513 3500 
L 2247 1797 
L 3578 0 
L 2900 0 
L 1881 1375 
L 863 0 
L 184 0 
L 1544 1831 
L 300 3500 
L 978 3500 
L 1906 2253 
L 2834 3500 
L 3513 3500 
z
" transform="scale(0.015625)"/>
        <path id="DejaVuSans-70" d="M 1159 525 
L 1159 -1331 
L 581 -1331 
L 581 3500 
L 1159 3500 
L 1159 2969 
Q 1341 3281 1617 3432 
Q 1894 3584 2278 3584 
Q 2916 3584 3314 3078 
Q 3713 2572 3713 1747 
Q 3713 922 3314 415 
Q 2916 -91 2278 -91 
Q 1894 -91 1617 61 
Q 1341 213 1159 525 
z
M 3116 1747 
Q 3116 2381 2855 2742 
Q 2594 3103 2138 3103 
Q 1681 3103 1420 2742 
Q 1159 2381 1159 1747 
Q 1159 1113 1420 752 
Q 1681 391 2138 391 
Q 2594 391 2855 752 
Q 3116 1113 3116 1747 
z
" transform="scale(0.015625)"/>
       </defs>
       <use xlink:href="#DejaVuSans-55"/>
       <use xlink:href="#DejaVuSans-73" x="73.193359"/>
       <use xlink:href="#DejaVuSans-65" x="125.292969"/>
       <use xlink:href="#DejaVuSans-72" x="186.816406"/>
       <use xlink:href="#DejaVuSans-20" x="227.929688"/>
       <use xlink:href="#DejaVuSans-45" x="259.716797"/>
       <use xlink:href="#DejaVuSans-78" x="322.900391"/>
       <use xlink:href="#DejaVuSans-70" x="382.080078"/>
       <use xlink:href="#DejaVuSans-65" x="445.556641"/>
       <use xlink:href="#DejaVuSans-72" x="507.080078"/>
       <use xlink:href="#DejaVuSans-69" x="548.193359"/>
       <use xlink:href="#DejaVuSans-65" x="575.976562"/>
       <use xlink:href="#DejaVuSans-6e" x="637.5"/>
       <use xlink:href="#DejaVuSans-63" x="700.878906"/>
       <use xlink:href="#DejaVuSans-65" x="755.859375"/>
      </g>
     </g>
    </g>
    <g id="text_10">
     <!-- metaverse -->
     <g transform="translate(-57.248438 317.62375) rotate(-90) scale(0.1 -0.1)">
      <use xlink:href="#DejaVuSans-6d"/>
      <use xlink:href="#DejaVuSans-65" x="97.412109"/>
      <use xlink:href="#DejaVuSans-74" x="158.935547"/>
      <use xlink:href="#DejaVuSans-61" x="198.144531"/>
      <use xlink:href="#DejaVuSans-76" x="259.423828"/>
      <use xlink:href="#DejaVuSans-65" x="318.603516"/>
      <use xlink:href="#DejaVuSans-72" x="380.126953"/>
      <use xlink:href="#DejaVuSans-73" x="421.240234"/>
      <use xlink:href="#DejaVuSans-65" x="473.339844"/>
     </g>
    </g>
   </g>
   <g id="patch_3">
    <path d="M 90 512.64 
L 90 69.12 
" style="fill: none; stroke: #000000; stroke-width: 0.8; stroke-linejoin: miter; stroke-linecap: square"/>
   </g>
   <g id="patch_4">
    <path d="M 648 512.64 
L 648 69.12 
" style="fill: none; stroke: #000000; stroke-width: 0.8; stroke-linejoin: miter; stroke-linecap: square"/>
   </g>
   <g id="patch_5">
    <path d="M 90 512.64 
L 648 512.64 
" style="fill: none; stroke: #000000; stroke-width: 0.8; stroke-linejoin: miter; stroke-linecap: square"/>
   </g>
   <g id="patch_6">
    <path d="M 90 69.12 
L 648 69.12 
" style="fill: none; stroke: #000000; stroke-width: 0.8; stroke-linejoin: miter; stroke-linecap: square"/>
   </g>
   <g id="text_11">
    <!-- Bubble Chart: strategy vs metaverse by papertype -->
    <g transform="translate(216.140625 63.12) scale(0.12 -0.12)">
     <defs>
      <path id="DejaVuSans-42" d="M 1259 2228 
L 1259 519 
L 2272 519 
Q 2781 519 3026 730 
Q 3272 941 3272 1375 
Q 3272 1813 3026 2020 
Q 2781 2228 2272 2228 
L 1259 2228 
z
M 1259 4147 
L 1259 2741 
L 2194 2741 
Q 2656 2741 2882 2914 
Q 3109 3088 3109 3444 
Q 3109 3797 2882 3972 
Q 2656 4147 2194 4147 
L 1259 4147 
z
M 628 4666 
L 2241 4666 
Q 2963 4666 3353 4366 
Q 3744 4066 3744 3513 
Q 3744 3084 3544 2831 
Q 3344 2578 2956 2516 
Q 3422 2416 3680 2098 
Q 3938 1781 3938 1306 
Q 3938 681 3513 340 
Q 3088 0 2303 0 
L 628 0 
L 628 4666 
z
" transform="scale(0.015625)"/>
      <path id="DejaVuSans-62" d="M 3116 1747 
Q 3116 2381 2855 2742 
Q 2594 3103 2138 3103 
Q 1681 3103 1420 2742 
Q 1159 2381 1159 1747 
Q 1159 1113 1420 752 
Q 1681 391 2138 391 
Q 2594 391 2855 752 
Q 3116 1113 3116 1747 
z
M 1159 2969 
Q 1341 3281 1617 3432 
Q 1894 3584 2278 3584 
Q 2916 3584 3314 3078 
Q 3713 2572 3713 1747 
Q 3713 922 3314 415 
Q 2916 -91 2278 -91 
Q 1894 -91 1617 61 
Q 1341 213 1159 525 
L 1159 0 
L 581 0 
L 581 4863 
L 1159 4863 
L 1159 2969 
z
" transform="scale(0.015625)"/>
      <path id="DejaVuSans-43" d="M 4122 4306 
L 4122 3641 
Q 3803 3938 3442 4084 
Q 3081 4231 2675 4231 
Q 1875 4231 1450 3742 
Q 1025 3253 1025 2328 
Q 1025 1406 1450 917 
Q 1875 428 2675 428 
Q 3081 428 3442 575 
Q 3803 722 4122 1019 
L 4122 359 
Q 3791 134 3420 21 
Q 3050 -91 2638 -91 
Q 1578 -91 968 557 
Q 359 1206 359 2328 
Q 359 3453 968 4101 
Q 1578 4750 2638 4750 
Q 3056 4750 3426 4639 
Q 3797 4528 4122 4306 
z
" transform="scale(0.015625)"/>
      <path id="DejaVuSans-3a" d="M 750 794 
L 1409 794 
L 1409 0 
L 750 0 
L 750 794 
z
M 750 3309 
L 1409 3309 
L 1409 2516 
L 750 2516 
L 750 3309 
z
" transform="scale(0.015625)"/>
     </defs>
     <use xlink:href="#DejaVuSans-42"/>
     <use xlink:href="#DejaVuSans-75" x="68.603516"/>
     <use xlink:href="#DejaVuSans-62" x="131.982422"/>
     <use xlink:href="#DejaVuSans-62" x="195.458984"/>
     <use xlink:href="#DejaVuSans-6c" x="258.935547"/>
     <use xlink:href="#DejaVuSans-65" x="286.71875"/>
     <use xlink:href="#DejaVuSans-20" x="348.242188"/>
     <use xlink:href="#DejaVuSans-43" x="380.029297"/>
     <use xlink:href="#DejaVuSans-68" x="449.853516"/>
     <use xlink:href="#DejaVuSans-61" x="513.232422"/>
     <use xlink:href="#DejaVuSans-72" x="574.511719"/>
     <use xlink:href="#DejaVuSans-74" x="615.625"/>
     <use xlink:href="#DejaVuSans-3a" x="654.833984"/>
     <use xlink:href="#DejaVuSans-20" x="688.525391"/>
     <use xlink:href="#DejaVuSans-73" x="720.3125"/>
     <use xlink:href="#DejaVuSans-74" x="772.412109"/>
     <use xlink:href="#DejaVuSans-72" x="811.621094"/>
     <use xlink:href="#DejaVuSans-61" x="852.734375"/>
     <use xlink:href="#DejaVuSans-74" x="914.013672"/>
     <use xlink:href="#DejaVuSans-65" x="953.222656"/>
     <use xlink:href="#DejaVuSans-67" x="1014.746094"/>
     <use xlink:href="#DejaVuSans-79" x="1078.222656"/>
     <use xlink:href="#DejaVuSans-20" x="1137.402344"/>
     <use xlink:href="#DejaVuSans-76" x="1169.189453"/>
     <use xlink:href="#DejaVuSans-73" x="1228.369141"/>
     <use xlink:href="#DejaVuSans-20" x="1280.46875"/>
     <use xlink:href="#DejaVuSans-6d" x="1312.255859"/>
     <use xlink:href="#DejaVuSans-65" x="1409.667969"/>
     <use xlink:href="#DejaVuSans-74" x="1471.191406"/>
     <use xlink:href="#DejaVuSans-61" x="1510.400391"/>
     <use xlink:href="#DejaVuSans-76" x="1571.679688"/>
     <use xlink:href="#DejaVuSans-65" x="1630.859375"/>
     <use xlink:href="#DejaVuSans-72" x="1692.382812"/>
     <use xlink:href="#DejaVuSans-73" x="1733.496094"/>
     <use xlink:href="#DejaVuSans-65" x="1785.595703"/>
     <use xlink:href="#DejaVuSans-20" x="1847.119141"/>
     <use xlink:href="#DejaVuSans-62" x="1878.90625"/>
     <use xlink:href="#DejaVuSans-79" x="1942.382812"/>
     <use xlink:href="#DejaVuSans-20" x="2001.5625"/>
     <use xlink:href="#DejaVuSans-70" x="2033.349609"/>
     <use xlink:href="#DejaVuSans-61" x="2096.826172"/>
     <use xlink:href="#DejaVuSans-70" x="2158.105469"/>
     <use xlink:href="#DejaVuSans-65" x="2221.582031"/>
     <use xlink:href="#DejaVuSans-72" x="2283.105469"/>
     <use xlink:href="#DejaVuSans-74" x="2324.21875"/>
     <use xlink:href="#DejaVuSans-79" x="2363.427734"/>
     <use xlink:href="#DejaVuSans-70" x="2422.607422"/>
     <use xlink:href="#DejaVuSans-65" x="2486.083984"/>
    </g>
   </g>
   <g id="legend_1">
    <g id="patch_7">
     <path d="M 553.125 336.414375 
L 641 336.414375 
Q 643 336.414375 643 334.414375 
L 643 247.345625 
Q 643 245.345625 641 245.345625 
L 553.125 245.345625 
Q 551.125 245.345625 551.125 247.345625 
L 551.125 334.414375 
Q 551.125 336.414375 553.125 336.414375 
z
" style="fill: #ffffff; opacity: 0.8; stroke: #cccccc; stroke-linejoin: miter"/>
    </g>
    <g id="text_12">
     <!-- Papertype -->
     <g transform="translate(571.732031 256.944063) scale(0.1 -0.1)">
      <use xlink:href="#DejaVuSans-50"/>
      <use xlink:href="#DejaVuSans-61" x="55.802734"/>
      <use xlink:href="#DejaVuSans-70" x="117.082031"/>
      <use xlink:href="#DejaVuSans-65" x="180.558594"/>
      <use xlink:href="#DejaVuSans-72" x="242.082031"/>
      <use xlink:href="#DejaVuSans-74" x="283.195312"/>
      <use xlink:href="#DejaVuSans-79" x="322.404297"/>
      <use xlink:href="#DejaVuSans-70" x="381.583984"/>
      <use xlink:href="#DejaVuSans-65" x="445.060547"/>
     </g>
    </g>
    <g id="line2d_17">
     <path d="M 555.125 268.122188 
L 565.125 268.122188 
L 575.125 268.122188 
" style="fill: none; stroke: #ffffff; stroke-width: 1.5; stroke-linecap: square"/>
     <defs>
      <path id="m14b1cf198e" d="M 0 5 
C 1.326016 5 2.597899 4.473168 3.535534 3.535534 
C 4.473168 2.597899 5 1.326016 5 0 
C 5 -1.326016 4.473168 -2.597899 3.535534 -3.535534 
C 2.597899 -4.473168 1.326016 -5 0 -5 
C -1.326016 -5 -2.597899 -4.473168 -3.535534 -3.535534 
C -4.473168 -2.597899 -5 -1.326016 -5 0 
C -5 1.326016 -4.473168 2.597899 -3.535534 3.535534 
C -2.597899 4.473168 -1.326016 5 0 5 
z
" style="stroke: #ffffff"/>
     </defs>
     <g>
      <use xlink:href="#m14b1cf198e" x="565.125" y="268.122188" style="fill: #0000ff; stroke: #ffffff"/>
     </g>
    </g>
    <g id="text_13">
     <!-- Application -->
     <g transform="translate(583.125 271.622188) scale(0.1 -0.1)">
      <use xlink:href="#DejaVuSans-41"/>
      <use xlink:href="#DejaVuSans-70" x="68.408203"/>
      <use xlink:href="#DejaVuSans-70" x="131.884766"/>
      <use xlink:href="#DejaVuSans-6c" x="195.361328"/>
      <use xlink:href="#DejaVuSans-69" x="223.144531"/>
      <use xlink:href="#DejaVuSans-63" x="250.927734"/>
      <use xlink:href="#DejaVuSans-61" x="305.908203"/>
      <use xlink:href="#DejaVuSans-74" x="367.1875"/>
      <use xlink:href="#DejaVuSans-69" x="406.396484"/>
      <use xlink:href="#DejaVuSans-6f" x="434.179688"/>
      <use xlink:href="#DejaVuSans-6e" x="495.361328"/>
     </g>
    </g>
    <g id="line2d_18">
     <path d="M 555.125 282.800313 
L 565.125 282.800313 
L 575.125 282.800313 
" style="fill: none; stroke: #ffffff; stroke-width: 1.5; stroke-linecap: square"/>
     <defs>
      <path id="ma4b361ce59" d="M 0 5 
C 1.326016 5 2.597899 4.473168 3.535534 3.535534 
C 4.473168 2.597899 5 1.326016 5 0 
C 5 -1.326016 4.473168 -2.597899 3.535534 -3.535534 
C 2.597899 -4.473168 1.326016 -5 0 -5 
C -1.326016 -5 -2.597899 -4.473168 -3.535534 -3.535534 
C -4.473168 -2.597899 -5 -1.326016 -5 0 
C -5 1.326016 -4.473168 2.597899 -3.535534 3.535534 
C -2.597899 4.473168 -1.326016 5 0 5 
z
" style="stroke: #ffffff"/>
     </defs>
     <g>
      <use xlink:href="#ma4b361ce59" x="565.125" y="282.800313" style="fill: #008000; stroke: #ffffff"/>
     </g>
    </g>
    <g id="text_14">
     <!-- Evaluation -->
     <g transform="translate(583.125 286.300313) scale(0.1 -0.1)">
      <use xlink:href="#DejaVuSans-45"/>
      <use xlink:href="#DejaVuSans-76" x="63.183594"/>
      <use xlink:href="#DejaVuSans-61" x="122.363281"/>
      <use xlink:href="#DejaVuSans-6c" x="183.642578"/>
      <use xlink:href="#DejaVuSans-75" x="211.425781"/>
      <use xlink:href="#DejaVuSans-61" x="274.804688"/>
      <use xlink:href="#DejaVuSans-74" x="336.083984"/>
      <use xlink:href="#DejaVuSans-69" x="375.292969"/>
      <use xlink:href="#DejaVuSans-6f" x="403.076172"/>
      <use xlink:href="#DejaVuSans-6e" x="464.257812"/>
     </g>
    </g>
    <g id="line2d_19">
     <path d="M 555.125 297.478438 
L 565.125 297.478438 
L 575.125 297.478438 
" style="fill: none; stroke: #ffffff; stroke-width: 1.5; stroke-linecap: square"/>
     <defs>
      <path id="mc6f71e867f" d="M 0 5 
C 1.326016 5 2.597899 4.473168 3.535534 3.535534 
C 4.473168 2.597899 5 1.326016 5 0 
C 5 -1.326016 4.473168 -2.597899 3.535534 -3.535534 
C 2.597899 -4.473168 1.326016 -5 0 -5 
C -1.326016 -5 -2.597899 -4.473168 -3.535534 -3.535534 
C -4.473168 -2.597899 -5 -1.326016 -5 0 
C -5 1.326016 -4.473168 2.597899 -3.535534 3.535534 
C -2.597899 4.473168 -1.326016 5 0 5 
z
" style="stroke: #ffffff"/>
     </defs>
     <g>
      <use xlink:href="#mc6f71e867f" x="565.125" y="297.478438" style="fill: #ff0000; stroke: #ffffff"/>
     </g>
    </g>
    <g id="text_15">
     <!-- Model -->
     <g transform="translate(583.125 300.978438) scale(0.1 -0.1)">
      <use xlink:href="#DejaVuSans-4d"/>
      <use xlink:href="#DejaVuSans-6f" x="86.279297"/>
      <use xlink:href="#DejaVuSans-64" x="147.460938"/>
      <use xlink:href="#DejaVuSans-65" x="210.9375"/>
      <use xlink:href="#DejaVuSans-6c" x="272.460938"/>
     </g>
    </g>
    <g id="line2d_20">
     <path d="M 555.125 312.156563 
L 565.125 312.156563 
L 575.125 312.156563 
" style="fill: none; stroke: #ffffff; stroke-width: 1.5; stroke-linecap: square"/>
     <defs>
      <path id="m0268e17d30" d="M 0 5 
C 1.326016 5 2.597899 4.473168 3.535534 3.535534 
C 4.473168 2.597899 5 1.326016 5 0 
C 5 -1.326016 4.473168 -2.597899 3.535534 -3.535534 
C 2.597899 -4.473168 1.326016 -5 0 -5 
C -1.326016 -5 -2.597899 -4.473168 -3.535534 -3.535534 
C -4.473168 -2.597899 -5 -1.326016 -5 0 
C -5 1.326016 -4.473168 2.597899 -3.535534 3.535534 
C -2.597899 4.473168 -1.326016 5 0 5 
z
" style="stroke: #ffffff"/>
     </defs>
     <g>
      <use xlink:href="#m0268e17d30" x="565.125" y="312.156563" style="fill: #800080; stroke: #ffffff"/>
     </g>
    </g>
    <g id="text_16">
     <!-- System -->
     <g transform="translate(583.125 315.656563) scale(0.1 -0.1)">
      <defs>
       <path id="DejaVuSans-53" d="M 3425 4513 
L 3425 3897 
Q 3066 4069 2747 4153 
Q 2428 4238 2131 4238 
Q 1616 4238 1336 4038 
Q 1056 3838 1056 3469 
Q 1056 3159 1242 3001 
Q 1428 2844 1947 2747 
L 2328 2669 
Q 3034 2534 3370 2195 
Q 3706 1856 3706 1288 
Q 3706 609 3251 259 
Q 2797 -91 1919 -91 
Q 1588 -91 1214 -16 
Q 841 59 441 206 
L 441 856 
Q 825 641 1194 531 
Q 1563 422 1919 422 
Q 2459 422 2753 634 
Q 3047 847 3047 1241 
Q 3047 1584 2836 1778 
Q 2625 1972 2144 2069 
L 1759 2144 
Q 1053 2284 737 2584 
Q 422 2884 422 3419 
Q 422 4038 858 4394 
Q 1294 4750 2059 4750 
Q 2388 4750 2728 4690 
Q 3069 4631 3425 4513 
z
" transform="scale(0.015625)"/>
      </defs>
      <use xlink:href="#DejaVuSans-53"/>
      <use xlink:href="#DejaVuSans-79" x="63.476562"/>
      <use xlink:href="#DejaVuSans-73" x="122.65625"/>
      <use xlink:href="#DejaVuSans-74" x="174.755859"/>
      <use xlink:href="#DejaVuSans-65" x="213.964844"/>
      <use xlink:href="#DejaVuSans-6d" x="275.488281"/>
     </g>
    </g>
    <g id="line2d_21">
     <path d="M 555.125 326.834688 
L 565.125 326.834688 
L 575.125 326.834688 
" style="fill: none; stroke: #ffffff; stroke-width: 1.5; stroke-linecap: square"/>
     <defs>
      <path id="m4f2ee9d974" d="M 0 5 
C 1.326016 5 2.597899 4.473168 3.535534 3.535534 
C 4.473168 2.597899 5 1.326016 5 0 
C 5 -1.326016 4.473168 -2.597899 3.535534 -3.535534 
C 2.597899 -4.473168 1.326016 -5 0 -5 
C -1.326016 -5 -2.597899 -4.473168 -3.535534 -3.535534 
C -4.473168 -2.597899 -5 -1.326016 -5 0 
C -5 1.326016 -4.473168 2.597899 -3.535534 3.535534 
C -2.597899 4.473168 -1.326016 5 0 5 
z
" style="stroke: #ffffff"/>
     </defs>
     <g>
      <use xlink:href="#m4f2ee9d974" x="565.125" y="326.834688" style="fill: #00ffff; stroke: #ffffff"/>
     </g>
    </g>
    <g id="text_17">
     <!-- Technique -->
     <g transform="translate(583.125 330.334688) scale(0.1 -0.1)">
      <defs>
       <path id="DejaVuSans-54" d="M -19 4666 
L 3928 4666 
L 3928 4134 
L 2272 4134 
L 2272 0 
L 1638 0 
L 1638 4134 
L -19 4134 
L -19 4666 
z
" transform="scale(0.015625)"/>
       <path id="DejaVuSans-71" d="M 947 1747 
Q 947 1113 1208 752 
Q 1469 391 1925 391 
Q 2381 391 2643 752 
Q 2906 1113 2906 1747 
Q 2906 2381 2643 2742 
Q 2381 3103 1925 3103 
Q 1469 3103 1208 2742 
Q 947 2381 947 1747 
z
M 2906 525 
Q 2725 213 2448 61 
Q 2172 -91 1784 -91 
Q 1150 -91 751 415 
Q 353 922 353 1747 
Q 353 2572 751 3078 
Q 1150 3584 1784 3584 
Q 2172 3584 2448 3432 
Q 2725 3281 2906 2969 
L 2906 3500 
L 3481 3500 
L 3481 -1331 
L 2906 -1331 
L 2906 525 
z
" transform="scale(0.015625)"/>
      </defs>
      <use xlink:href="#DejaVuSans-54"/>
      <use xlink:href="#DejaVuSans-65" x="44.083984"/>
      <use xlink:href="#DejaVuSans-63" x="105.607422"/>
      <use xlink:href="#DejaVuSans-68" x="160.587891"/>
      <use xlink:href="#DejaVuSans-6e" x="223.966797"/>
      <use xlink:href="#DejaVuSans-69" x="287.345703"/>
      <use xlink:href="#DejaVuSans-71" x="315.128906"/>
      <use xlink:href="#DejaVuSans-75" x="378.605469"/>
      <use xlink:href="#DejaVuSans-65" x="441.984375"/>
     </g>
    </g>
   </g>
  </g>
 </g>
 <defs>
  <clipPath id="pc1a712b413">
   <rect x="90" y="69.12" width="558" height="443.52"/>
  </clipPath>
 </defs>
</svg>
