<?xml version="1.0" encoding="utf-8" standalone="no"?>
<!DOCTYPE svg PUBLIC "-//W3C//DTD SVG 1.1//EN"
  "http://www.w3.org/Graphics/SVG/1.1/DTD/svg11.dtd">
<svg xmlns:xlink="http://www.w3.org/1999/xlink" width="720pt" height="576pt" viewBox="0 0 720 576" xmlns="http://www.w3.org/2000/svg" version="1.1">
 <metadata>
  <rdf:RDF xmlns:dc="http://purl.org/dc/elements/1.1/" xmlns:cc="http://creativecommons.org/ns#" xmlns:rdf="http://www.w3.org/1999/02/22-rdf-syntax-ns#">
   <cc:Work>
    <dc:type rdf:resource="http://purl.org/dc/dcmitype/StillImage"/>
    <dc:date>2024-09-02T12:50:15.708101</dc:date>
    <dc:format>image/svg+xml</dc:format>
    <dc:creator>
     <cc:Agent>
      <dc:title>Matplotlib v3.8.2, https://matplotlib.org/</dc:title>
     </cc:Agent>
    </dc:creator>
   </cc:Work>
  </rdf:RDF>
 </metadata>
 <defs>
  <style type="text/css">*{stroke-linejoin: round; stroke-linecap: butt}</style>
 </defs>
 <g id="figure_1">
  <g id="patch_1">
   <path d="M 0 576 
L 720 576 
L 720 0 
L 0 0 
z
" style="fill: #ffffff"/>
  </g>
  <g id="axes_1">
   <g id="patch_2">
    <path d="M 90 512.64 
L 648 512.64 
L 648 69.12 
L 90 69.12 
z
" style="fill: #ffffff"/>
   </g>
   <g id="PathCollection_1">
    <path d="M 115.363636 509.063124 
C 119.761532 509.063124 123.979894 507.315821 127.089676 504.206039 
C 130.199458 501.096257 131.94676 496.877896 131.94676 492.48 
C 131.94676 488.082104 130.199458 483.863743 127.089676 480.753961 
C 123.979894 477.644179 119.761532 475.896876 115.363636 475.896876 
C 110.96574 475.896876 106.747379 477.644179 103.637597 480.753961 
C 100.527815 483.863743 98.780512 488.082104 98.780512 492.48 
C 98.780512 496.877896 100.527815 501.096257 103.637597 504.206039 
C 106.747379 507.315821 110.96574 509.063124 115.363636 509.063124 
z
" clip-path="url(#p74e476d441)" style="fill: #808080; fill-opacity: 0.6; stroke: #ffffff; stroke-opacity: 0.6; stroke-width: 2"/>
    <path d="M 115.363636 506.622136 
C 119.114175 506.622136 122.711605 505.132031 125.363636 502.48 
C 128.015667 499.827969 129.505772 496.230538 129.505772 492.48 
C 129.505772 488.729462 128.015667 485.132031 125.363636 482.48 
C 122.711605 479.827969 119.114175 478.337864 115.363636 478.337864 
C 111.613098 478.337864 108.015667 479.827969 105.363636 482.48 
C 102.711605 485.132031 101.221501 488.729462 101.221501 492.48 
C 101.221501 496.230538 102.711605 499.827969 105.363636 502.48 
C 108.015667 505.132031 111.613098 506.622136 115.363636 506.622136 
z
" clip-path="url(#p74e476d441)" style="fill: #808080; fill-opacity: 0.6; stroke: #ffffff; stroke-opacity: 0.6; stroke-width: 2"/>
    <path d="M 115.363636 438.508757 
C 118.871944 438.508757 122.237032 437.114891 124.71778 434.634143 
C 127.198528 432.153396 128.592393 428.788307 128.592393 425.28 
C 128.592393 421.771693 127.198528 418.406604 124.71778 415.925857 
C 122.237032 413.445109 118.871944 412.051243 115.363636 412.051243 
C 111.855329 412.051243 108.490241 413.445109 106.009493 415.925857 
C 103.528745 418.406604 102.13488 421.771693 102.13488 425.28 
C 102.13488 428.788307 103.528745 432.153396 106.009493 434.634143 
C 108.490241 437.114891 111.855329 438.508757 115.363636 438.508757 
z
" clip-path="url(#p74e476d441)" style="fill: #808080; fill-opacity: 0.6; stroke: #ffffff; stroke-opacity: 0.6; stroke-width: 2"/>
    <path d="M 115.363636 435.28 
C 118.015667 435.28 120.559435 434.226337 122.434704 432.351068 
C 124.309973 430.475799 125.363636 427.932031 125.363636 425.28 
C 125.363636 422.627969 124.309973 420.084201 122.434704 418.208932 
C 120.559435 416.333663 118.015667 415.28 115.363636 415.28 
C 112.711605 415.28 110.167838 416.333663 108.292569 418.208932 
C 106.417299 420.084201 105.363636 422.627969 105.363636 425.28 
C 105.363636 427.932031 106.417299 430.475799 108.292569 432.351068 
C 110.167838 434.226337 112.711605 435.28 115.363636 435.28 
z
" clip-path="url(#p74e476d441)" style="fill: #808080; fill-opacity: 0.6; stroke: #ffffff; stroke-opacity: 0.6; stroke-width: 2"/>
    <path d="M 115.363636 430.28 
C 116.689652 430.28 117.961536 429.753168 118.89917 428.815534 
C 119.836805 427.877899 120.363636 426.606015 120.363636 425.28 
C 120.363636 423.953984 119.836805 422.682101 118.89917 421.744466 
C 117.961536 420.806832 116.689652 420.28 115.363636 420.28 
C 114.037621 420.28 112.765737 420.806832 111.828102 421.744466 
C 110.890468 422.682101 110.363636 423.953984 110.363636 425.28 
C 110.363636 426.606015 110.890468 427.877899 111.828102 428.815534 
C 112.765737 429.753168 114.037621 430.28 115.363636 430.28 
z
" clip-path="url(#p74e476d441)" style="fill: #808080; fill-opacity: 0.6; stroke: #ffffff; stroke-opacity: 0.6; stroke-width: 2"/>
    <path d="M 115.363636 363.08 
C 116.689652 363.08 117.961536 362.553168 118.89917 361.615534 
C 119.836805 360.677899 120.363636 359.406015 120.363636 358.08 
C 120.363636 356.753985 119.836805 355.482101 118.89917 354.544466 
C 117.961536 353.606832 116.689652 353.08 115.363636 353.08 
C 114.037621 353.08 112.765737 353.606832 111.828102 354.544466 
C 110.890468 355.482101 110.363636 356.753985 110.363636 358.08 
C 110.363636 359.406015 110.890468 360.677899 111.828102 361.615534 
C 112.765737 362.553168 114.037621 363.08 115.363636 363.08 
z
" clip-path="url(#p74e476d441)" style="fill: #808080; fill-opacity: 0.6; stroke: #ffffff; stroke-opacity: 0.6; stroke-width: 2"/>
    <path d="M 115.363636 299.540254 
C 117.660363 299.540254 119.86333 298.627755 121.487361 297.003724 
C 123.111391 295.379694 124.02389 293.176726 124.02389 290.88 
C 124.02389 288.583274 123.111391 286.380306 121.487361 284.756276 
C 119.86333 283.132245 117.660363 282.219746 115.363636 282.219746 
C 113.06691 282.219746 110.863943 283.132245 109.239912 284.756276 
C 107.615881 286.380306 106.703382 288.583274 106.703382 290.88 
C 106.703382 293.176726 107.615881 295.379694 109.239912 297.003724 
C 110.863943 298.627755 113.06691 299.540254 115.363636 299.540254 
z
" clip-path="url(#p74e476d441)" style="fill: #808080; fill-opacity: 0.6; stroke: #ffffff; stroke-opacity: 0.6; stroke-width: 2"/>
    <path d="M 115.363636 297.951068 
C 117.238905 297.951068 119.037621 297.206015 120.363636 295.88 
C 121.689652 294.553985 122.434704 292.755269 122.434704 290.88 
C 122.434704 289.004731 121.689652 287.206015 120.363636 285.88 
C 119.037621 284.553985 117.238905 283.808932 115.363636 283.808932 
C 113.488367 283.808932 111.689652 284.553985 110.363636 285.88 
C 109.037621 287.206015 108.292569 289.004731 108.292569 290.88 
C 108.292569 292.755269 109.037621 294.553985 110.363636 295.88 
C 111.689652 297.206015 113.488367 297.951068 115.363636 297.951068 
z
" clip-path="url(#p74e476d441)" style="fill: #808080; fill-opacity: 0.6; stroke: #ffffff; stroke-opacity: 0.6; stroke-width: 2"/>
    <path d="M 115.363636 295.88 
C 116.689652 295.88 117.961536 295.353168 118.89917 294.415534 
C 119.836805 293.477899 120.363636 292.206015 120.363636 290.88 
C 120.363636 289.553985 119.836805 288.282101 118.89917 287.344466 
C 117.961536 286.406832 116.689652 285.88 115.363636 285.88 
C 114.037621 285.88 112.765737 286.406832 111.828102 287.344466 
C 110.890468 288.282101 110.363636 289.553985 110.363636 290.88 
C 110.363636 292.206015 110.890468 293.477899 111.828102 294.415534 
C 112.765737 295.353168 114.037621 295.88 115.363636 295.88 
z
" clip-path="url(#p74e476d441)" style="fill: #808080; fill-opacity: 0.6; stroke: #ffffff; stroke-opacity: 0.6; stroke-width: 2"/>
    <path d="M 115.363636 246.04068 
C 121.293758 246.04068 126.981795 243.684617 131.175025 239.491388 
C 135.368254 235.298159 137.724316 229.610122 137.724316 223.68 
C 137.724316 217.749878 135.368254 212.061841 131.175025 207.868612 
C 126.981795 203.675383 121.293758 201.31932 115.363636 201.31932 
C 109.433515 201.31932 103.745477 203.675383 99.552248 207.868612 
C 95.359019 212.061841 93.002957 217.749878 93.002957 223.68 
C 93.002957 229.610122 95.359019 235.298159 99.552248 239.491388 
C 103.745477 243.684617 109.433515 246.04068 115.363636 246.04068 
z
" clip-path="url(#p74e476d441)" style="fill: #808080; fill-opacity: 0.6; stroke: #ffffff; stroke-opacity: 0.6; stroke-width: 2"/>
    <path d="M 115.363636 241.000508 
C 119.957089 241.000508 124.363024 239.17551 127.611085 235.927449 
C 130.859146 232.679387 132.684144 228.273452 132.684144 223.68 
C 132.684144 219.086548 130.859146 214.680613 127.611085 211.432551 
C 124.363024 208.18449 119.957089 206.359492 115.363636 206.359492 
C 110.770184 206.359492 106.364249 208.18449 103.116188 211.432551 
C 99.868126 214.680613 98.043128 219.086548 98.043128 223.68 
C 98.043128 228.273452 99.868126 232.679387 103.116188 235.927449 
C 106.364249 239.17551 110.770184 241.000508 115.363636 241.000508 
z
" clip-path="url(#p74e476d441)" style="fill: #808080; fill-opacity: 0.6; stroke: #ffffff; stroke-opacity: 0.6; stroke-width: 2"/>
    <path d="M 115.363636 235.927449 
C 118.611698 235.927449 121.727164 234.63698 124.02389 232.340254 
C 126.320617 230.043528 127.611085 226.928061 127.611085 223.68 
C 127.611085 220.431939 126.320617 217.316472 124.02389 215.019746 
C 121.727164 212.72302 118.611698 211.432551 115.363636 211.432551 
C 112.115575 211.432551 109.000109 212.72302 106.703382 215.019746 
C 104.406656 217.316472 103.116188 220.431939 103.116188 223.68 
C 103.116188 226.928061 104.406656 230.043528 106.703382 232.340254 
C 109.000109 234.63698 112.115575 235.927449 115.363636 235.927449 
z
" clip-path="url(#p74e476d441)" style="fill: #808080; fill-opacity: 0.6; stroke: #ffffff; stroke-opacity: 0.6; stroke-width: 2"/>
    <path d="M 115.363636 238.68 
C 119.341683 238.68 123.157334 237.099505 125.970238 234.286602 
C 128.783142 231.473698 130.363636 227.658047 130.363636 223.68 
C 130.363636 219.701954 128.783142 215.886302 125.970238 213.073398 
C 123.157334 210.260495 119.341683 208.68 115.363636 208.68 
C 111.38559 208.68 107.569938 210.260495 104.757035 213.073398 
C 101.944131 215.886302 100.363636 219.701954 100.363636 223.68 
C 100.363636 227.658047 101.944131 231.473698 104.757035 234.286602 
C 107.569938 237.099505 111.38559 238.68 115.363636 238.68 
z
" clip-path="url(#p74e476d441)" style="fill: #808080; fill-opacity: 0.6; stroke: #ffffff; stroke-opacity: 0.6; stroke-width: 2"/>
    <path d="M 115.363636 169.708757 
C 118.871944 169.708757 122.237032 168.314891 124.71778 165.834143 
C 127.198528 163.353396 128.592393 159.988307 128.592393 156.48 
C 128.592393 152.971693 127.198528 149.606604 124.71778 147.125857 
C 122.237032 144.645109 118.871944 143.251243 115.363636 143.251243 
C 111.855329 143.251243 108.490241 144.645109 106.009493 147.125857 
C 103.528745 149.606604 102.13488 152.971693 102.13488 156.48 
C 102.13488 159.988307 103.528745 163.353396 106.009493 165.834143 
C 108.490241 168.314891 111.855329 169.708757 115.363636 169.708757 
z
" clip-path="url(#p74e476d441)" style="fill: #808080; fill-opacity: 0.6; stroke: #ffffff; stroke-opacity: 0.6; stroke-width: 2"/>
    <path d="M 115.363636 167.66034 
C 118.328697 167.66034 121.172716 166.482309 123.269331 164.385694 
C 125.365945 162.28908 126.543976 159.445061 126.543976 156.48 
C 126.543976 153.514939 125.365945 150.67092 123.269331 148.574306 
C 121.172716 146.477691 118.328697 145.29966 115.363636 145.29966 
C 112.398576 145.29966 109.554557 146.477691 107.457942 148.574306 
C 105.361328 150.67092 104.183296 153.514939 104.183296 156.48 
C 104.183296 159.445061 105.361328 162.28908 107.457942 164.385694 
C 109.554557 166.482309 112.398576 167.66034 115.363636 167.66034 
z
" clip-path="url(#p74e476d441)" style="fill: #808080; fill-opacity: 0.6; stroke: #ffffff; stroke-opacity: 0.6; stroke-width: 2"/>
    <path d="M 115.363636 163.551068 
C 117.238905 163.551068 119.037621 162.806016 120.363636 161.48 
C 121.689652 160.153985 122.434704 158.355269 122.434704 156.48 
C 122.434704 154.604731 121.689652 152.806016 120.363636 151.48 
C 119.037621 150.153985 117.238905 149.408932 115.363636 149.408932 
C 113.488367 149.408932 111.689652 150.153985 110.363636 151.48 
C 109.037621 152.806016 108.292569 154.604731 108.292569 156.48 
C 108.292569 158.355269 109.037621 160.153985 110.363636 161.48 
C 111.689652 162.806016 113.488367 163.551068 115.363636 163.551068 
z
" clip-path="url(#p74e476d441)" style="fill: #808080; fill-opacity: 0.6; stroke: #ffffff; stroke-opacity: 0.6; stroke-width: 2"/>
    <path d="M 115.363636 165.140254 
C 117.660363 165.140254 119.86333 164.227755 121.487361 162.603724 
C 123.111391 160.979694 124.02389 158.776726 124.02389 156.48 
C 124.02389 154.183274 123.111391 151.980306 121.487361 150.356276 
C 119.86333 148.732245 117.660363 147.819746 115.363636 147.819746 
C 113.06691 147.819746 110.863943 148.732245 109.239912 150.356276 
C 107.615881 151.980306 106.703382 154.183274 106.703382 156.48 
C 106.703382 158.776726 107.615881 160.979694 109.239912 162.603724 
C 110.863943 164.227755 113.06691 165.140254 115.363636 165.140254 
z
" clip-path="url(#p74e476d441)" style="fill: #808080; fill-opacity: 0.6; stroke: #ffffff; stroke-opacity: 0.6; stroke-width: 2"/>
    <path d="M 115.363636 97.940254 
C 117.660363 97.940254 119.86333 97.027755 121.487361 95.403724 
C 123.111391 93.779694 124.02389 91.576726 124.02389 89.28 
C 124.02389 86.983274 123.111391 84.780306 121.487361 83.156276 
C 119.86333 81.532245 117.660363 80.619746 115.363636 80.619746 
C 113.06691 80.619746 110.863943 81.532245 109.239912 83.156276 
C 107.615881 84.780306 106.703382 86.983274 106.703382 89.28 
C 106.703382 91.576726 107.615881 93.779694 109.239912 95.403724 
C 110.863943 97.027755 113.06691 97.940254 115.363636 97.940254 
z
" clip-path="url(#p74e476d441)" style="fill: #808080; fill-opacity: 0.6; stroke: #ffffff; stroke-opacity: 0.6; stroke-width: 2"/>
    <path d="M 115.363636 94.28 
C 116.689652 94.28 117.961536 93.753168 118.89917 92.815534 
C 119.836805 91.877899 120.363636 90.606015 120.363636 89.28 
C 120.363636 87.953984 119.836805 86.682101 118.89917 85.744466 
C 117.961536 84.806832 116.689652 84.28 115.363636 84.28 
C 114.037621 84.28 112.765737 84.806832 111.828102 85.744466 
C 110.890468 86.682101 110.363636 87.953984 110.363636 89.28 
C 110.363636 90.606015 110.890468 91.877899 111.828102 92.815534 
C 112.765737 93.753168 114.037621 94.28 115.363636 94.28 
z
" clip-path="url(#p74e476d441)" style="fill: #808080; fill-opacity: 0.6; stroke: #ffffff; stroke-opacity: 0.6; stroke-width: 2"/>
    <path d="M 115.363636 94.28 
C 116.689652 94.28 117.961536 93.753168 118.89917 92.815534 
C 119.836805 91.877899 120.363636 90.606015 120.363636 89.28 
C 120.363636 87.953984 119.836805 86.682101 118.89917 85.744466 
C 117.961536 84.806832 116.689652 84.28 115.363636 84.28 
C 114.037621 84.28 112.765737 84.806832 111.828102 85.744466 
C 110.890468 86.682101 110.363636 87.953984 110.363636 89.28 
C 110.363636 90.606015 110.890468 91.877899 111.828102 92.815534 
C 112.765737 93.753168 114.037621 94.28 115.363636 94.28 
z
" clip-path="url(#p74e476d441)" style="fill: #808080; fill-opacity: 0.6; stroke: #ffffff; stroke-opacity: 0.6; stroke-width: 2"/>
    <path d="M 115.363636 94.28 
C 116.689652 94.28 117.961536 93.753168 118.89917 92.815534 
C 119.836805 91.877899 120.363636 90.606015 120.363636 89.28 
C 120.363636 87.953984 119.836805 86.682101 118.89917 85.744466 
C 117.961536 84.806832 116.689652 84.28 115.363636 84.28 
C 114.037621 84.28 112.765737 84.806832 111.828102 85.744466 
C 110.890468 86.682101 110.363636 87.953984 110.363636 89.28 
C 110.363636 90.606015 110.890468 91.877899 111.828102 92.815534 
C 112.765737 93.753168 114.037621 94.28 115.363636 94.28 
z
" clip-path="url(#p74e476d441)" style="fill: #808080; fill-opacity: 0.6; stroke: #ffffff; stroke-opacity: 0.6; stroke-width: 2"/>
    <path d="M 284.454545 506.622136 
C 288.205084 506.622136 291.802514 505.132031 294.454545 502.48 
C 297.106576 499.827969 298.596681 496.230538 298.596681 492.48 
C 298.596681 488.729462 297.106576 485.132031 294.454545 482.48 
C 291.802514 479.827969 288.205084 478.337864 284.454545 478.337864 
C 280.704007 478.337864 277.106576 479.827969 274.454545 482.48 
C 271.802514 485.132031 270.31241 488.729462 270.31241 492.48 
C 270.31241 496.230538 271.802514 499.827969 274.454545 502.48 
C 277.106576 505.132031 280.704007 506.622136 284.454545 506.622136 
z
" clip-path="url(#p74e476d441)" style="fill: #808080; fill-opacity: 0.6; stroke: #ffffff; stroke-opacity: 0.6; stroke-width: 2"/>
    <path d="M 284.454545 507.48 
C 288.432592 507.48 292.248244 505.899505 295.061147 503.086602 
C 297.874051 500.273698 299.454545 496.458047 299.454545 492.48 
C 299.454545 488.501954 297.874051 484.686302 295.061147 481.873398 
C 292.248244 479.060495 288.432592 477.48 284.454545 477.48 
C 280.476499 477.48 276.660847 479.060495 273.847944 481.873398 
C 271.03504 484.686302 269.454545 488.501954 269.454545 492.48 
C 269.454545 496.458047 271.03504 500.273698 273.847944 503.086602 
C 276.660847 505.899505 280.476499 507.48 284.454545 507.48 
z
" clip-path="url(#p74e476d441)" style="fill: #808080; fill-opacity: 0.6; stroke: #ffffff; stroke-opacity: 0.6; stroke-width: 2"/>
    <path d="M 284.454545 497.48 
C 285.780561 497.48 287.052445 496.953168 287.990079 496.015534 
C 288.927714 495.077899 289.454545 493.806016 289.454545 492.48 
C 289.454545 491.153985 288.927714 489.882101 287.990079 488.944466 
C 287.052445 488.006832 285.780561 487.48 284.454545 487.48 
C 283.12853 487.48 281.856646 488.006832 280.919012 488.944466 
C 279.981377 489.882101 279.454545 491.153985 279.454545 492.48 
C 279.454545 493.806016 279.981377 495.077899 280.919012 496.015534 
C 281.856646 496.953168 283.12853 497.48 284.454545 497.48 
z
" clip-path="url(#p74e476d441)" style="fill: #808080; fill-opacity: 0.6; stroke: #ffffff; stroke-opacity: 0.6; stroke-width: 2"/>
    <path d="M 284.454545 497.48 
C 285.780561 497.48 287.052445 496.953168 287.990079 496.015534 
C 288.927714 495.077899 289.454545 493.806016 289.454545 492.48 
C 289.454545 491.153985 288.927714 489.882101 287.990079 488.944466 
C 287.052445 488.006832 285.780561 487.48 284.454545 487.48 
C 283.12853 487.48 281.856646 488.006832 280.919012 488.944466 
C 279.981377 489.882101 279.454545 491.153985 279.454545 492.48 
C 279.454545 493.806016 279.981377 495.077899 280.919012 496.015534 
C 281.856646 496.953168 283.12853 497.48 284.454545 497.48 
z
" clip-path="url(#p74e476d441)" style="fill: #808080; fill-opacity: 0.6; stroke: #ffffff; stroke-opacity: 0.6; stroke-width: 2"/>
    <path d="M 284.454545 435.28 
C 287.106576 435.28 289.650344 434.226337 291.525613 432.351068 
C 293.400882 430.475799 294.454545 427.932031 294.454545 425.28 
C 294.454545 422.627969 293.400882 420.084201 291.525613 418.208932 
C 289.650344 416.333663 287.106576 415.28 284.454545 415.28 
C 281.802514 415.28 279.258747 416.333663 277.383478 418.208932 
C 275.508209 420.084201 274.454545 422.627969 274.454545 425.28 
C 274.454545 427.932031 275.508209 430.475799 277.383478 432.351068 
C 279.258747 434.226337 281.802514 435.28 284.454545 435.28 
z
" clip-path="url(#p74e476d441)" style="fill: #808080; fill-opacity: 0.6; stroke: #ffffff; stroke-opacity: 0.6; stroke-width: 2"/>
    <path d="M 284.454545 436.46034 
C 287.419606 436.46034 290.263625 435.282309 292.36024 433.185694 
C 294.456854 431.08908 295.634885 428.245061 295.634885 425.28 
C 295.634885 422.314939 294.456854 419.47092 292.36024 417.374306 
C 290.263625 415.277691 287.419606 414.09966 284.454545 414.09966 
C 281.489485 414.09966 278.645466 415.277691 276.548851 417.374306 
C 274.452237 419.47092 273.274206 422.314939 273.274206 425.28 
C 273.274206 428.245061 274.452237 431.08908 276.548851 433.185694 
C 278.645466 435.282309 281.489485 436.46034 284.454545 436.46034 
z
" clip-path="url(#p74e476d441)" style="fill: #808080; fill-opacity: 0.6; stroke: #ffffff; stroke-opacity: 0.6; stroke-width: 2"/>
    <path d="M 284.454545 430.28 
C 285.780561 430.28 287.052445 429.753168 287.990079 428.815534 
C 288.927714 427.877899 289.454545 426.606015 289.454545 425.28 
C 289.454545 423.953984 288.927714 422.682101 287.990079 421.744466 
C 287.052445 420.806832 285.780561 420.28 284.454545 420.28 
C 283.12853 420.28 281.856646 420.806832 280.919012 421.744466 
C 279.981377 422.682101 279.454545 423.953984 279.454545 425.28 
C 279.454545 426.606015 279.981377 427.877899 280.919012 428.815534 
C 281.856646 429.753168 283.12853 430.28 284.454545 430.28 
z
" clip-path="url(#p74e476d441)" style="fill: #808080; fill-opacity: 0.6; stroke: #ffffff; stroke-opacity: 0.6; stroke-width: 2"/>
    <path d="M 284.454545 430.28 
C 285.780561 430.28 287.052445 429.753168 287.990079 428.815534 
C 288.927714 427.877899 289.454545 426.606015 289.454545 425.28 
C 289.454545 423.953984 288.927714 422.682101 287.990079 421.744466 
C 287.052445 420.806832 285.780561 420.28 284.454545 420.28 
C 283.12853 420.28 281.856646 420.806832 280.919012 421.744466 
C 279.981377 422.682101 279.454545 423.953984 279.454545 425.28 
C 279.454545 426.606015 279.981377 427.877899 280.919012 428.815534 
C 281.856646 429.753168 283.12853 430.28 284.454545 430.28 
z
" clip-path="url(#p74e476d441)" style="fill: #808080; fill-opacity: 0.6; stroke: #ffffff; stroke-opacity: 0.6; stroke-width: 2"/>
    <path d="M 284.454545 366.740254 
C 286.751272 366.740254 288.954239 365.827755 290.57827 364.203724 
C 292.2023 362.579694 293.114799 360.376726 293.114799 358.08 
C 293.114799 355.783274 292.2023 353.580306 290.57827 351.956276 
C 288.954239 350.332245 286.751272 349.419746 284.454545 349.419746 
C 282.157819 349.419746 279.954852 350.332245 278.330821 351.956276 
C 276.70679 353.580306 275.794291 355.783274 275.794291 358.08 
C 275.794291 360.376726 276.70679 362.579694 278.330821 364.203724 
C 279.954852 365.827755 282.157819 366.740254 284.454545 366.740254 
z
" clip-path="url(#p74e476d441)" style="fill: #808080; fill-opacity: 0.6; stroke: #ffffff; stroke-opacity: 0.6; stroke-width: 2"/>
    <path d="M 284.454545 366.740254 
C 286.751272 366.740254 288.954239 365.827755 290.57827 364.203724 
C 292.2023 362.579694 293.114799 360.376726 293.114799 358.08 
C 293.114799 355.783274 292.2023 353.580306 290.57827 351.956276 
C 288.954239 350.332245 286.751272 349.419746 284.454545 349.419746 
C 282.157819 349.419746 279.954852 350.332245 278.330821 351.956276 
C 276.70679 353.580306 275.794291 355.783274 275.794291 358.08 
C 275.794291 360.376726 276.70679 362.579694 278.330821 364.203724 
C 279.954852 365.827755 282.157819 366.740254 284.454545 366.740254 
z
" clip-path="url(#p74e476d441)" style="fill: #808080; fill-opacity: 0.6; stroke: #ffffff; stroke-opacity: 0.6; stroke-width: 2"/>
    <path d="M 284.454545 297.951068 
C 286.329815 297.951068 288.12853 297.206015 289.454545 295.88 
C 290.780561 294.553985 291.525613 292.755269 291.525613 290.88 
C 291.525613 289.004731 290.780561 287.206015 289.454545 285.88 
C 288.12853 284.553985 286.329815 283.808932 284.454545 283.808932 
C 282.579276 283.808932 280.780561 284.553985 279.454545 285.88 
C 278.12853 287.206015 277.383478 289.004731 277.383478 290.88 
C 277.383478 292.755269 278.12853 294.553985 279.454545 295.88 
C 280.780561 297.206015 282.579276 297.951068 284.454545 297.951068 
z
" clip-path="url(#p74e476d441)" style="fill: #808080; fill-opacity: 0.6; stroke: #ffffff; stroke-opacity: 0.6; stroke-width: 2"/>
    <path d="M 284.454545 299.540254 
C 286.751272 299.540254 288.954239 298.627755 290.57827 297.003724 
C 292.2023 295.379694 293.114799 293.176726 293.114799 290.88 
C 293.114799 288.583274 292.2023 286.380306 290.57827 284.756276 
C 288.954239 283.132245 286.751272 282.219746 284.454545 282.219746 
C 282.157819 282.219746 279.954852 283.132245 278.330821 284.756276 
C 276.70679 286.380306 275.794291 288.583274 275.794291 290.88 
C 275.794291 293.176726 276.70679 295.379694 278.330821 297.003724 
C 279.954852 298.627755 282.157819 299.540254 284.454545 299.540254 
z
" clip-path="url(#p74e476d441)" style="fill: #808080; fill-opacity: 0.6; stroke: #ffffff; stroke-opacity: 0.6; stroke-width: 2"/>
    <path d="M 284.454545 295.88 
C 285.780561 295.88 287.052445 295.353168 287.990079 294.415534 
C 288.927714 293.477899 289.454545 292.206015 289.454545 290.88 
C 289.454545 289.553985 288.927714 288.282101 287.990079 287.344466 
C 287.052445 286.406832 285.780561 285.88 284.454545 285.88 
C 283.12853 285.88 281.856646 286.406832 280.919012 287.344466 
C 279.981377 288.282101 279.454545 289.553985 279.454545 290.88 
C 279.454545 292.206015 279.981377 293.477899 280.919012 294.415534 
C 281.856646 295.353168 283.12853 295.88 284.454545 295.88 
z
" clip-path="url(#p74e476d441)" style="fill: #808080; fill-opacity: 0.6; stroke: #ffffff; stroke-opacity: 0.6; stroke-width: 2"/>
    <path d="M 284.454545 295.88 
C 285.780561 295.88 287.052445 295.353168 287.990079 294.415534 
C 288.927714 293.477899 289.454545 292.206015 289.454545 290.88 
C 289.454545 289.553985 288.927714 288.282101 287.990079 287.344466 
C 287.052445 286.406832 285.780561 285.88 284.454545 285.88 
C 283.12853 285.88 281.856646 286.406832 280.919012 287.344466 
C 279.981377 288.282101 279.454545 289.553985 279.454545 290.88 
C 279.454545 292.206015 279.981377 293.477899 280.919012 294.415534 
C 281.856646 295.353168 283.12853 295.88 284.454545 295.88 
z
" clip-path="url(#p74e476d441)" style="fill: #808080; fill-opacity: 0.6; stroke: #ffffff; stroke-opacity: 0.6; stroke-width: 2"/>
    <path d="M 284.454545 241.000508 
C 289.047998 241.000508 293.453933 239.17551 296.701994 235.927449 
C 299.950056 232.679387 301.775054 228.273452 301.775054 223.68 
C 301.775054 219.086548 299.950056 214.680613 296.701994 211.432551 
C 293.453933 208.18449 289.047998 206.359492 284.454545 206.359492 
C 279.861093 206.359492 275.455158 208.18449 272.207097 211.432551 
C 268.959035 214.680613 267.134037 219.086548 267.134037 223.68 
C 267.134037 228.273452 268.959035 232.679387 272.207097 235.927449 
C 275.455158 239.17551 279.861093 241.000508 284.454545 241.000508 
z
" clip-path="url(#p74e476d441)" style="fill: #808080; fill-opacity: 0.6; stroke: #ffffff; stroke-opacity: 0.6; stroke-width: 2"/>
    <path d="M 284.454545 244.893203 
C 290.080353 244.893203 295.476499 242.658047 299.454545 238.68 
C 303.432592 234.701954 305.667749 229.305807 305.667749 223.68 
C 305.667749 218.054193 303.432592 212.658047 299.454545 208.68 
C 295.476499 204.701954 290.080353 202.466797 284.454545 202.466797 
C 278.828738 202.466797 273.432592 204.701954 269.454545 208.68 
C 265.476499 212.658047 263.241342 218.054193 263.241342 223.68 
C 263.241342 229.305807 265.476499 234.701954 269.454545 238.68 
C 273.432592 242.658047 278.828738 244.893203 284.454545 244.893203 
z
" clip-path="url(#p74e476d441)" style="fill: #808080; fill-opacity: 0.6; stroke: #ffffff; stroke-opacity: 0.6; stroke-width: 2"/>
    <path d="M 284.454545 241.000508 
C 289.047998 241.000508 293.453933 239.17551 296.701994 235.927449 
C 299.950056 232.679387 301.775054 228.273452 301.775054 223.68 
C 301.775054 219.086548 299.950056 214.680613 296.701994 211.432551 
C 293.453933 208.18449 289.047998 206.359492 284.454545 206.359492 
C 279.861093 206.359492 275.455158 208.18449 272.207097 211.432551 
C 268.959035 214.680613 267.134037 219.086548 267.134037 223.68 
C 267.134037 228.273452 268.959035 232.679387 272.207097 235.927449 
C 275.455158 239.17551 279.861093 241.000508 284.454545 241.000508 
z
" clip-path="url(#p74e476d441)" style="fill: #808080; fill-opacity: 0.6; stroke: #ffffff; stroke-opacity: 0.6; stroke-width: 2"/>
    <path d="M 284.454545 240.263124 
C 288.852441 240.263124 293.070803 238.515821 296.180585 235.406039 
C 299.290367 232.296257 301.037669 228.077896 301.037669 223.68 
C 301.037669 219.282104 299.290367 215.063743 296.180585 211.953961 
C 293.070803 208.844179 288.852441 207.096876 284.454545 207.096876 
C 280.05665 207.096876 275.838288 208.844179 272.728506 211.953961 
C 269.618724 215.063743 267.871422 219.282104 267.871422 223.68 
C 267.871422 228.077896 269.618724 232.296257 272.728506 235.406039 
C 275.838288 238.515821 280.05665 240.263124 284.454545 240.263124 
z
" clip-path="url(#p74e476d441)" style="fill: #808080; fill-opacity: 0.6; stroke: #ffffff; stroke-opacity: 0.6; stroke-width: 2"/>
    <path d="M 284.454545 167.66034 
C 287.419606 167.66034 290.263625 166.482309 292.36024 164.385694 
C 294.456854 162.28908 295.634885 159.445061 295.634885 156.48 
C 295.634885 153.514939 294.456854 150.67092 292.36024 148.574306 
C 290.263625 146.477691 287.419606 145.29966 284.454545 145.29966 
C 281.489485 145.29966 278.645466 146.477691 276.548851 148.574306 
C 274.452237 150.67092 273.274206 153.514939 273.274206 156.48 
C 273.274206 159.445061 274.452237 162.28908 276.548851 164.385694 
C 278.645466 166.482309 281.489485 167.66034 284.454545 167.66034 
z
" clip-path="url(#p74e476d441)" style="fill: #808080; fill-opacity: 0.6; stroke: #ffffff; stroke-opacity: 0.6; stroke-width: 2"/>
    <path d="M 284.454545 169.708757 
C 287.962853 169.708757 291.327941 168.314891 293.808689 165.834143 
C 296.289437 163.353396 297.683302 159.988307 297.683302 156.48 
C 297.683302 152.971693 296.289437 149.606604 293.808689 147.125857 
C 291.327941 144.645109 287.962853 143.251243 284.454545 143.251243 
C 280.946238 143.251243 277.58115 144.645109 275.100402 147.125857 
C 272.619654 149.606604 271.225789 152.971693 271.225789 156.48 
C 271.225789 159.988307 272.619654 163.353396 275.100402 165.834143 
C 277.58115 168.314891 280.946238 169.708757 284.454545 169.708757 
z
" clip-path="url(#p74e476d441)" style="fill: #808080; fill-opacity: 0.6; stroke: #ffffff; stroke-opacity: 0.6; stroke-width: 2"/>
    <path d="M 284.454545 165.140254 
C 286.751272 165.140254 288.954239 164.227755 290.57827 162.603724 
C 292.2023 160.979694 293.114799 158.776726 293.114799 156.48 
C 293.114799 154.183274 292.2023 151.980306 290.57827 150.356276 
C 288.954239 148.732245 286.751272 147.819746 284.454545 147.819746 
C 282.157819 147.819746 279.954852 148.732245 278.330821 150.356276 
C 276.70679 151.980306 275.794291 154.183274 275.794291 156.48 
C 275.794291 158.776726 276.70679 160.979694 278.330821 162.603724 
C 279.954852 164.227755 282.157819 165.140254 284.454545 165.140254 
z
" clip-path="url(#p74e476d441)" style="fill: #808080; fill-opacity: 0.6; stroke: #ffffff; stroke-opacity: 0.6; stroke-width: 2"/>
    <path d="M 284.454545 166.48 
C 287.106576 166.48 289.650344 165.426337 291.525613 163.551068 
C 293.400882 161.675799 294.454545 159.132031 294.454545 156.48 
C 294.454545 153.827969 293.400882 151.284201 291.525613 149.408932 
C 289.650344 147.533663 287.106576 146.48 284.454545 146.48 
C 281.802514 146.48 279.258747 147.533663 277.383478 149.408932 
C 275.508209 151.284201 274.454545 153.827969 274.454545 156.48 
C 274.454545 159.132031 275.508209 161.675799 277.383478 163.551068 
C 279.258747 165.426337 281.802514 166.48 284.454545 166.48 
z
" clip-path="url(#p74e476d441)" style="fill: #808080; fill-opacity: 0.6; stroke: #ffffff; stroke-opacity: 0.6; stroke-width: 2"/>
    <path d="M 284.454545 94.28 
C 285.780561 94.28 287.052445 93.753168 287.990079 92.815534 
C 288.927714 91.877899 289.454545 90.606015 289.454545 89.28 
C 289.454545 87.953984 288.927714 86.682101 287.990079 85.744466 
C 287.052445 84.806832 285.780561 84.28 284.454545 84.28 
C 283.12853 84.28 281.856646 84.806832 280.919012 85.744466 
C 279.981377 86.682101 279.454545 87.953984 279.454545 89.28 
C 279.454545 90.606015 279.981377 91.877899 280.919012 92.815534 
C 281.856646 93.753168 283.12853 94.28 284.454545 94.28 
z
" clip-path="url(#p74e476d441)" style="fill: #808080; fill-opacity: 0.6; stroke: #ffffff; stroke-opacity: 0.6; stroke-width: 2"/>
    <path d="M 284.454545 96.351068 
C 286.329815 96.351068 288.12853 95.606015 289.454545 94.28 
C 290.780561 92.953984 291.525613 91.155269 291.525613 89.28 
C 291.525613 87.404731 290.780561 85.606015 289.454545 84.28 
C 288.12853 82.953984 286.329815 82.208932 284.454545 82.208932 
C 282.579276 82.208932 280.780561 82.953984 279.454545 84.28 
C 278.12853 85.606015 277.383478 87.404731 277.383478 89.28 
C 277.383478 91.155269 278.12853 92.953984 279.454545 94.28 
C 280.780561 95.606015 282.579276 96.351068 284.454545 96.351068 
z
" clip-path="url(#p74e476d441)" style="fill: #808080; fill-opacity: 0.6; stroke: #ffffff; stroke-opacity: 0.6; stroke-width: 2"/>
    <path d="M 284.454545 94.28 
C 285.780561 94.28 287.052445 93.753168 287.990079 92.815534 
C 288.927714 91.877899 289.454545 90.606015 289.454545 89.28 
C 289.454545 87.953984 288.927714 86.682101 287.990079 85.744466 
C 287.052445 84.806832 285.780561 84.28 284.454545 84.28 
C 283.12853 84.28 281.856646 84.806832 280.919012 85.744466 
C 279.981377 86.682101 279.454545 87.953984 279.454545 89.28 
C 279.454545 90.606015 279.981377 91.877899 280.919012 92.815534 
C 281.856646 93.753168 283.12853 94.28 284.454545 94.28 
z
" clip-path="url(#p74e476d441)" style="fill: #808080; fill-opacity: 0.6; stroke: #ffffff; stroke-opacity: 0.6; stroke-width: 2"/>
    <path d="M 453.545455 497.48 
C 454.87147 497.48 456.143354 496.953168 457.080988 496.015534 
C 458.018623 495.077899 458.545455 493.806016 458.545455 492.48 
C 458.545455 491.153985 458.018623 489.882101 457.080988 488.944466 
C 456.143354 488.006832 454.87147 487.48 453.545455 487.48 
C 452.219439 487.48 450.947555 488.006832 450.009921 488.944466 
C 449.072286 489.882101 448.545455 491.153985 448.545455 492.48 
C 448.545455 493.806016 449.072286 495.077899 450.009921 496.015534 
C 450.947555 496.953168 452.219439 497.48 453.545455 497.48 
z
" clip-path="url(#p74e476d441)" style="fill: #808080; fill-opacity: 0.6; stroke: #ffffff; stroke-opacity: 0.6; stroke-width: 2"/>
    <path d="M 453.545455 499.551068 
C 455.420724 499.551068 457.219439 498.806016 458.545455 497.48 
C 459.87147 496.153985 460.616522 494.355269 460.616522 492.48 
C 460.616522 490.604731 459.87147 488.806016 458.545455 487.48 
C 457.219439 486.153985 455.420724 485.408932 453.545455 485.408932 
C 451.670185 485.408932 449.87147 486.153985 448.545455 487.48 
C 447.219439 488.806016 446.474387 490.604731 446.474387 492.48 
C 446.474387 494.355269 447.219439 496.153985 448.545455 497.48 
C 449.87147 498.806016 451.670185 499.551068 453.545455 499.551068 
z
" clip-path="url(#p74e476d441)" style="fill: #808080; fill-opacity: 0.6; stroke: #ffffff; stroke-opacity: 0.6; stroke-width: 2"/>
    <path d="M 453.545455 499.551068 
C 455.420724 499.551068 457.219439 498.806016 458.545455 497.48 
C 459.87147 496.153985 460.616522 494.355269 460.616522 492.48 
C 460.616522 490.604731 459.87147 488.806016 458.545455 487.48 
C 457.219439 486.153985 455.420724 485.408932 453.545455 485.408932 
C 451.670185 485.408932 449.87147 486.153985 448.545455 487.48 
C 447.219439 488.806016 446.474387 490.604731 446.474387 492.48 
C 446.474387 494.355269 447.219439 496.153985 448.545455 497.48 
C 449.87147 498.806016 451.670185 499.551068 453.545455 499.551068 
z
" clip-path="url(#p74e476d441)" style="fill: #808080; fill-opacity: 0.6; stroke: #ffffff; stroke-opacity: 0.6; stroke-width: 2"/>
    <path d="M 453.545455 430.28 
C 454.87147 430.28 456.143354 429.753168 457.080988 428.815534 
C 458.018623 427.877899 458.545455 426.606015 458.545455 425.28 
C 458.545455 423.953984 458.018623 422.682101 457.080988 421.744466 
C 456.143354 420.806832 454.87147 420.28 453.545455 420.28 
C 452.219439 420.28 450.947555 420.806832 450.009921 421.744466 
C 449.072286 422.682101 448.545455 423.953984 448.545455 425.28 
C 448.545455 426.606015 449.072286 427.877899 450.009921 428.815534 
C 450.947555 429.753168 452.219439 430.28 453.545455 430.28 
z
" clip-path="url(#p74e476d441)" style="fill: #808080; fill-opacity: 0.6; stroke: #ffffff; stroke-opacity: 0.6; stroke-width: 2"/>
    <path d="M 453.545455 433.940254 
C 455.842181 433.940254 458.045148 433.027755 459.669179 431.403724 
C 461.29321 429.779694 462.205709 427.576726 462.205709 425.28 
C 462.205709 422.983274 461.29321 420.780306 459.669179 419.156276 
C 458.045148 417.532245 455.842181 416.619746 453.545455 416.619746 
C 451.248728 416.619746 449.045761 417.532245 447.42173 419.156276 
C 445.7977 420.780306 444.885201 422.983274 444.885201 425.28 
C 444.885201 427.576726 445.7977 429.779694 447.42173 431.403724 
C 449.045761 433.027755 451.248728 433.940254 453.545455 433.940254 
z
" clip-path="url(#p74e476d441)" style="fill: #808080; fill-opacity: 0.6; stroke: #ffffff; stroke-opacity: 0.6; stroke-width: 2"/>
    <path d="M 453.545455 366.740254 
C 455.842181 366.740254 458.045148 365.827755 459.669179 364.203724 
C 461.29321 362.579694 462.205709 360.376726 462.205709 358.08 
C 462.205709 355.783274 461.29321 353.580306 459.669179 351.956276 
C 458.045148 350.332245 455.842181 349.419746 453.545455 349.419746 
C 451.248728 349.419746 449.045761 350.332245 447.42173 351.956276 
C 445.7977 353.580306 444.885201 355.783274 444.885201 358.08 
C 444.885201 360.376726 445.7977 362.579694 447.42173 364.203724 
C 449.045761 365.827755 451.248728 366.740254 453.545455 366.740254 
z
" clip-path="url(#p74e476d441)" style="fill: #808080; fill-opacity: 0.6; stroke: #ffffff; stroke-opacity: 0.6; stroke-width: 2"/>
    <path d="M 453.545455 368.08 
C 456.197486 368.08 458.741253 367.026337 460.616522 365.151068 
C 462.491791 363.275799 463.545455 360.732031 463.545455 358.08 
C 463.545455 355.427969 462.491791 352.884201 460.616522 351.008932 
C 458.741253 349.133663 456.197486 348.08 453.545455 348.08 
C 450.893424 348.08 448.349656 349.133663 446.474387 351.008932 
C 444.599118 352.884201 443.545455 355.427969 443.545455 358.08 
C 443.545455 360.732031 444.599118 363.275799 446.474387 365.151068 
C 448.349656 367.026337 450.893424 368.08 453.545455 368.08 
z
" clip-path="url(#p74e476d441)" style="fill: #808080; fill-opacity: 0.6; stroke: #ffffff; stroke-opacity: 0.6; stroke-width: 2"/>
    <path d="M 453.545455 295.88 
C 454.87147 295.88 456.143354 295.353168 457.080988 294.415534 
C 458.018623 293.477899 458.545455 292.206015 458.545455 290.88 
C 458.545455 289.553985 458.018623 288.282101 457.080988 287.344466 
C 456.143354 286.406832 454.87147 285.88 453.545455 285.88 
C 452.219439 285.88 450.947555 286.406832 450.009921 287.344466 
C 449.072286 288.282101 448.545455 289.553985 448.545455 290.88 
C 448.545455 292.206015 449.072286 293.477899 450.009921 294.415534 
C 450.947555 295.353168 452.219439 295.88 453.545455 295.88 
z
" clip-path="url(#p74e476d441)" style="fill: #808080; fill-opacity: 0.6; stroke: #ffffff; stroke-opacity: 0.6; stroke-width: 2"/>
    <path d="M 453.545455 297.951068 
C 455.420724 297.951068 457.219439 297.206015 458.545455 295.88 
C 459.87147 294.553985 460.616522 292.755269 460.616522 290.88 
C 460.616522 289.004731 459.87147 287.206015 458.545455 285.88 
C 457.219439 284.553985 455.420724 283.808932 453.545455 283.808932 
C 451.670185 283.808932 449.87147 284.553985 448.545455 285.88 
C 447.219439 287.206015 446.474387 289.004731 446.474387 290.88 
C 446.474387 292.755269 447.219439 294.553985 448.545455 295.88 
C 449.87147 297.206015 451.670185 297.951068 453.545455 297.951068 
z
" clip-path="url(#p74e476d441)" style="fill: #808080; fill-opacity: 0.6; stroke: #ffffff; stroke-opacity: 0.6; stroke-width: 2"/>
    <path d="M 453.545455 235.927449 
C 456.793516 235.927449 459.908982 234.63698 462.205709 232.340254 
C 464.502435 230.043528 465.792903 226.928061 465.792903 223.68 
C 465.792903 220.431939 464.502435 217.316472 462.205709 215.019746 
C 459.908982 212.72302 456.793516 211.432551 453.545455 211.432551 
C 450.297393 211.432551 447.181927 212.72302 444.885201 215.019746 
C 442.588474 217.316472 441.298006 220.431939 441.298006 223.68 
C 441.298006 226.928061 442.588474 230.043528 444.885201 232.340254 
C 447.181927 234.63698 450.297393 235.927449 453.545455 235.927449 
z
" clip-path="url(#p74e476d441)" style="fill: #808080; fill-opacity: 0.6; stroke: #ffffff; stroke-opacity: 0.6; stroke-width: 2"/>
    <path d="M 453.545455 241.000508 
C 458.138907 241.000508 462.544842 239.17551 465.792903 235.927449 
C 469.040965 232.679387 470.865963 228.273452 470.865963 223.68 
C 470.865963 219.086548 469.040965 214.680613 465.792903 211.432551 
C 462.544842 208.18449 458.138907 206.359492 453.545455 206.359492 
C 448.952002 206.359492 444.546067 208.18449 441.298006 211.432551 
C 438.049944 214.680613 436.224946 219.086548 436.224946 223.68 
C 436.224946 228.273452 438.049944 232.679387 441.298006 235.927449 
C 444.546067 239.17551 448.952002 241.000508 453.545455 241.000508 
z
" clip-path="url(#p74e476d441)" style="fill: #808080; fill-opacity: 0.6; stroke: #ffffff; stroke-opacity: 0.6; stroke-width: 2"/>
    <path d="M 453.545455 246.04068 
C 459.475576 246.04068 465.163614 243.684617 469.356843 239.491388 
C 473.550072 235.298159 475.906134 229.610122 475.906134 223.68 
C 475.906134 217.749878 473.550072 212.061841 469.356843 207.868612 
C 465.163614 203.675383 459.475576 201.31932 453.545455 201.31932 
C 447.615333 201.31932 441.927295 203.675383 437.734066 207.868612 
C 433.540837 212.061841 431.184775 217.749878 431.184775 223.68 
C 431.184775 229.610122 433.540837 235.298159 437.734066 239.491388 
C 441.927295 243.684617 447.615333 246.04068 453.545455 246.04068 
z
" clip-path="url(#p74e476d441)" style="fill: #808080; fill-opacity: 0.6; stroke: #ffffff; stroke-opacity: 0.6; stroke-width: 2"/>
    <path d="M 453.545455 238.68 
C 457.523501 238.68 461.339153 237.099505 464.152056 234.286602 
C 466.96496 231.473698 468.545455 227.658047 468.545455 223.68 
C 468.545455 219.701954 466.96496 215.886302 464.152056 213.073398 
C 461.339153 210.260495 457.523501 208.68 453.545455 208.68 
C 449.567408 208.68 445.751756 210.260495 442.938853 213.073398 
C 440.125949 215.886302 438.545455 219.701954 438.545455 223.68 
C 438.545455 227.658047 440.125949 231.473698 442.938853 234.286602 
C 445.751756 237.099505 449.567408 238.68 453.545455 238.68 
z
" clip-path="url(#p74e476d441)" style="fill: #808080; fill-opacity: 0.6; stroke: #ffffff; stroke-opacity: 0.6; stroke-width: 2"/>
    <path d="M 453.545455 163.551068 
C 455.420724 163.551068 457.219439 162.806016 458.545455 161.48 
C 459.87147 160.153985 460.616522 158.355269 460.616522 156.48 
C 460.616522 154.604731 459.87147 152.806016 458.545455 151.48 
C 457.219439 150.153985 455.420724 149.408932 453.545455 149.408932 
C 451.670185 149.408932 449.87147 150.153985 448.545455 151.48 
C 447.219439 152.806016 446.474387 154.604731 446.474387 156.48 
C 446.474387 158.355269 447.219439 160.153985 448.545455 161.48 
C 449.87147 162.806016 451.670185 163.551068 453.545455 163.551068 
z
" clip-path="url(#p74e476d441)" style="fill: #808080; fill-opacity: 0.6; stroke: #ffffff; stroke-opacity: 0.6; stroke-width: 2"/>
    <path d="M 453.545455 165.140254 
C 455.842181 165.140254 458.045148 164.227755 459.669179 162.603724 
C 461.29321 160.979694 462.205709 158.776726 462.205709 156.48 
C 462.205709 154.183274 461.29321 151.980306 459.669179 150.356276 
C 458.045148 148.732245 455.842181 147.819746 453.545455 147.819746 
C 451.248728 147.819746 449.045761 148.732245 447.42173 150.356276 
C 445.7977 151.980306 444.885201 154.183274 444.885201 156.48 
C 444.885201 158.776726 445.7977 160.979694 447.42173 162.603724 
C 449.045761 164.227755 451.248728 165.140254 453.545455 165.140254 
z
" clip-path="url(#p74e476d441)" style="fill: #808080; fill-opacity: 0.6; stroke: #ffffff; stroke-opacity: 0.6; stroke-width: 2"/>
    <path d="M 453.545455 167.66034 
C 456.510515 167.66034 459.354534 166.482309 461.451149 164.385694 
C 463.547763 162.28908 464.725794 159.445061 464.725794 156.48 
C 464.725794 153.514939 463.547763 150.67092 461.451149 148.574306 
C 459.354534 146.477691 456.510515 145.29966 453.545455 145.29966 
C 450.580394 145.29966 447.736375 146.477691 445.63976 148.574306 
C 443.543146 150.67092 442.365115 153.514939 442.365115 156.48 
C 442.365115 159.445061 443.543146 162.28908 445.63976 164.385694 
C 447.736375 166.482309 450.580394 167.66034 453.545455 167.66034 
z
" clip-path="url(#p74e476d441)" style="fill: #808080; fill-opacity: 0.6; stroke: #ffffff; stroke-opacity: 0.6; stroke-width: 2"/>
    <path d="M 453.545455 163.551068 
C 455.420724 163.551068 457.219439 162.806016 458.545455 161.48 
C 459.87147 160.153985 460.616522 158.355269 460.616522 156.48 
C 460.616522 154.604731 459.87147 152.806016 458.545455 151.48 
C 457.219439 150.153985 455.420724 149.408932 453.545455 149.408932 
C 451.670185 149.408932 449.87147 150.153985 448.545455 151.48 
C 447.219439 152.806016 446.474387 154.604731 446.474387 156.48 
C 446.474387 158.355269 447.219439 160.153985 448.545455 161.48 
C 449.87147 162.806016 451.670185 163.551068 453.545455 163.551068 
z
" clip-path="url(#p74e476d441)" style="fill: #808080; fill-opacity: 0.6; stroke: #ffffff; stroke-opacity: 0.6; stroke-width: 2"/>
    <path d="M 453.545455 94.28 
C 454.87147 94.28 456.143354 93.753168 457.080988 92.815534 
C 458.018623 91.877899 458.545455 90.606015 458.545455 89.28 
C 458.545455 87.953984 458.018623 86.682101 457.080988 85.744466 
C 456.143354 84.806832 454.87147 84.28 453.545455 84.28 
C 452.219439 84.28 450.947555 84.806832 450.009921 85.744466 
C 449.072286 86.682101 448.545455 87.953984 448.545455 89.28 
C 448.545455 90.606015 449.072286 91.877899 450.009921 92.815534 
C 450.947555 93.753168 452.219439 94.28 453.545455 94.28 
z
" clip-path="url(#p74e476d441)" style="fill: #808080; fill-opacity: 0.6; stroke: #ffffff; stroke-opacity: 0.6; stroke-width: 2"/>
    <path d="M 453.545455 94.28 
C 454.87147 94.28 456.143354 93.753168 457.080988 92.815534 
C 458.018623 91.877899 458.545455 90.606015 458.545455 89.28 
C 458.545455 87.953984 458.018623 86.682101 457.080988 85.744466 
C 456.143354 84.806832 454.87147 84.28 453.545455 84.28 
C 452.219439 84.28 450.947555 84.806832 450.009921 85.744466 
C 449.072286 86.682101 448.545455 87.953984 448.545455 89.28 
C 448.545455 90.606015 449.072286 91.877899 450.009921 92.815534 
C 450.947555 93.753168 452.219439 94.28 453.545455 94.28 
z
" clip-path="url(#p74e476d441)" style="fill: #808080; fill-opacity: 0.6; stroke: #ffffff; stroke-opacity: 0.6; stroke-width: 2"/>
    <path d="M 453.545455 100.46034 
C 456.510515 100.46034 459.354534 99.282309 461.451149 97.185694 
C 463.547763 95.08908 464.725794 92.245061 464.725794 89.28 
C 464.725794 86.314939 463.547763 83.47092 461.451149 81.374306 
C 459.354534 79.277691 456.510515 78.09966 453.545455 78.09966 
C 450.580394 78.09966 447.736375 79.277691 445.63976 81.374306 
C 443.543146 83.47092 442.365115 86.314939 442.365115 89.28 
C 442.365115 92.245061 443.543146 95.08908 445.63976 97.185694 
C 447.736375 99.282309 450.580394 100.46034 453.545455 100.46034 
z
" clip-path="url(#p74e476d441)" style="fill: #808080; fill-opacity: 0.6; stroke: #ffffff; stroke-opacity: 0.6; stroke-width: 2"/>
    <path d="M 453.545455 94.28 
C 454.87147 94.28 456.143354 93.753168 457.080988 92.815534 
C 458.018623 91.877899 458.545455 90.606015 458.545455 89.28 
C 458.545455 87.953984 458.018623 86.682101 457.080988 85.744466 
C 456.143354 84.806832 454.87147 84.28 453.545455 84.28 
C 452.219439 84.28 450.947555 84.806832 450.009921 85.744466 
C 449.072286 86.682101 448.545455 87.953984 448.545455 89.28 
C 448.545455 90.606015 449.072286 91.877899 450.009921 92.815534 
C 450.947555 93.753168 452.219439 94.28 453.545455 94.28 
z
" clip-path="url(#p74e476d441)" style="fill: #808080; fill-opacity: 0.6; stroke: #ffffff; stroke-opacity: 0.6; stroke-width: 2"/>
    <path d="M 622.636364 497.48 
C 623.962379 497.48 625.234263 496.953168 626.171898 496.015534 
C 627.109532 495.077899 627.636364 493.806016 627.636364 492.48 
C 627.636364 491.153985 627.109532 489.882101 626.171898 488.944466 
C 625.234263 488.006832 623.962379 487.48 622.636364 487.48 
C 621.310348 487.48 620.038464 488.006832 619.10083 488.944466 
C 618.163195 489.882101 617.636364 491.153985 617.636364 492.48 
C 617.636364 493.806016 618.163195 495.077899 619.10083 496.015534 
C 620.038464 496.953168 621.310348 497.48 622.636364 497.48 
z
" clip-path="url(#p74e476d441)" style="fill: #808080; fill-opacity: 0.6; stroke: #ffffff; stroke-opacity: 0.6; stroke-width: 2"/>
    <path d="M 622.636364 499.551068 
C 624.511633 499.551068 626.310348 498.806016 627.636364 497.48 
C 628.962379 496.153985 629.707431 494.355269 629.707431 492.48 
C 629.707431 490.604731 628.962379 488.806016 627.636364 487.48 
C 626.310348 486.153985 624.511633 485.408932 622.636364 485.408932 
C 620.761095 485.408932 618.962379 486.153985 617.636364 487.48 
C 616.310348 488.806016 615.565296 490.604731 615.565296 492.48 
C 615.565296 494.355269 616.310348 496.153985 617.636364 497.48 
C 618.962379 498.806016 620.761095 499.551068 622.636364 499.551068 
z
" clip-path="url(#p74e476d441)" style="fill: #808080; fill-opacity: 0.6; stroke: #ffffff; stroke-opacity: 0.6; stroke-width: 2"/>
    <path d="M 622.636364 499.551068 
C 624.511633 499.551068 626.310348 498.806016 627.636364 497.48 
C 628.962379 496.153985 629.707431 494.355269 629.707431 492.48 
C 629.707431 490.604731 628.962379 488.806016 627.636364 487.48 
C 626.310348 486.153985 624.511633 485.408932 622.636364 485.408932 
C 620.761095 485.408932 618.962379 486.153985 617.636364 487.48 
C 616.310348 488.806016 615.565296 490.604731 615.565296 492.48 
C 615.565296 494.355269 616.310348 496.153985 617.636364 497.48 
C 618.962379 498.806016 620.761095 499.551068 622.636364 499.551068 
z
" clip-path="url(#p74e476d441)" style="fill: #808080; fill-opacity: 0.6; stroke: #ffffff; stroke-opacity: 0.6; stroke-width: 2"/>
    <path d="M 622.636364 430.28 
C 623.962379 430.28 625.234263 429.753168 626.171898 428.815534 
C 627.109532 427.877899 627.636364 426.606015 627.636364 425.28 
C 627.636364 423.953984 627.109532 422.682101 626.171898 421.744466 
C 625.234263 420.806832 623.962379 420.28 622.636364 420.28 
C 621.310348 420.28 620.038464 420.806832 619.10083 421.744466 
C 618.163195 422.682101 617.636364 423.953984 617.636364 425.28 
C 617.636364 426.606015 618.163195 427.877899 619.10083 428.815534 
C 620.038464 429.753168 621.310348 430.28 622.636364 430.28 
z
" clip-path="url(#p74e476d441)" style="fill: #808080; fill-opacity: 0.6; stroke: #ffffff; stroke-opacity: 0.6; stroke-width: 2"/>
    <path d="M 622.636364 430.28 
C 623.962379 430.28 625.234263 429.753168 626.171898 428.815534 
C 627.109532 427.877899 627.636364 426.606015 627.636364 425.28 
C 627.636364 423.953984 627.109532 422.682101 626.171898 421.744466 
C 625.234263 420.806832 623.962379 420.28 622.636364 420.28 
C 621.310348 420.28 620.038464 420.806832 619.10083 421.744466 
C 618.163195 422.682101 617.636364 423.953984 617.636364 425.28 
C 617.636364 426.606015 618.163195 427.877899 619.10083 428.815534 
C 620.038464 429.753168 621.310348 430.28 622.636364 430.28 
z
" clip-path="url(#p74e476d441)" style="fill: #808080; fill-opacity: 0.6; stroke: #ffffff; stroke-opacity: 0.6; stroke-width: 2"/>
    <path d="M 622.636364 430.28 
C 623.962379 430.28 625.234263 429.753168 626.171898 428.815534 
C 627.109532 427.877899 627.636364 426.606015 627.636364 425.28 
C 627.636364 423.953984 627.109532 422.682101 626.171898 421.744466 
C 625.234263 420.806832 623.962379 420.28 622.636364 420.28 
C 621.310348 420.28 620.038464 420.806832 619.10083 421.744466 
C 618.163195 422.682101 617.636364 423.953984 617.636364 425.28 
C 617.636364 426.606015 618.163195 427.877899 619.10083 428.815534 
C 620.038464 429.753168 621.310348 430.28 622.636364 430.28 
z
" clip-path="url(#p74e476d441)" style="fill: #808080; fill-opacity: 0.6; stroke: #ffffff; stroke-opacity: 0.6; stroke-width: 2"/>
    <path d="M 622.636364 295.88 
C 623.962379 295.88 625.234263 295.353168 626.171898 294.415534 
C 627.109532 293.477899 627.636364 292.206015 627.636364 290.88 
C 627.636364 289.553985 627.109532 288.282101 626.171898 287.344466 
C 625.234263 286.406832 623.962379 285.88 622.636364 285.88 
C 621.310348 285.88 620.038464 286.406832 619.10083 287.344466 
C 618.163195 288.282101 617.636364 289.553985 617.636364 290.88 
C 617.636364 292.206015 618.163195 293.477899 619.10083 294.415534 
C 620.038464 295.353168 621.310348 295.88 622.636364 295.88 
z
" clip-path="url(#p74e476d441)" style="fill: #808080; fill-opacity: 0.6; stroke: #ffffff; stroke-opacity: 0.6; stroke-width: 2"/>
    <path d="M 622.636364 295.88 
C 623.962379 295.88 625.234263 295.353168 626.171898 294.415534 
C 627.109532 293.477899 627.636364 292.206015 627.636364 290.88 
C 627.636364 289.553985 627.109532 288.282101 626.171898 287.344466 
C 625.234263 286.406832 623.962379 285.88 622.636364 285.88 
C 621.310348 285.88 620.038464 286.406832 619.10083 287.344466 
C 618.163195 288.282101 617.636364 289.553985 617.636364 290.88 
C 617.636364 292.206015 618.163195 293.477899 619.10083 294.415534 
C 620.038464 295.353168 621.310348 295.88 622.636364 295.88 
z
" clip-path="url(#p74e476d441)" style="fill: #808080; fill-opacity: 0.6; stroke: #ffffff; stroke-opacity: 0.6; stroke-width: 2"/>
    <path d="M 622.636364 295.88 
C 623.962379 295.88 625.234263 295.353168 626.171898 294.415534 
C 627.109532 293.477899 627.636364 292.206015 627.636364 290.88 
C 627.636364 289.553985 627.109532 288.282101 626.171898 287.344466 
C 625.234263 286.406832 623.962379 285.88 622.636364 285.88 
C 621.310348 285.88 620.038464 286.406832 619.10083 287.344466 
C 618.163195 288.282101 617.636364 289.553985 617.636364 290.88 
C 617.636364 292.206015 618.163195 293.477899 619.10083 294.415534 
C 620.038464 295.353168 621.310348 295.88 622.636364 295.88 
z
" clip-path="url(#p74e476d441)" style="fill: #808080; fill-opacity: 0.6; stroke: #ffffff; stroke-opacity: 0.6; stroke-width: 2"/>
    <path d="M 622.636364 238.68 
C 626.61441 238.68 630.430062 237.099505 633.242965 234.286602 
C 636.055869 231.473698 637.636364 227.658047 637.636364 223.68 
C 637.636364 219.701954 636.055869 215.886302 633.242965 213.073398 
C 630.430062 210.260495 626.61441 208.68 622.636364 208.68 
C 618.658317 208.68 614.842666 210.260495 612.029762 213.073398 
C 609.216858 215.886302 607.636364 219.701954 607.636364 223.68 
C 607.636364 227.658047 609.216858 231.473698 612.029762 234.286602 
C 614.842666 237.099505 618.658317 238.68 622.636364 238.68 
z
" clip-path="url(#p74e476d441)" style="fill: #808080; fill-opacity: 0.6; stroke: #ffffff; stroke-opacity: 0.6; stroke-width: 2"/>
    <path d="M 622.636364 240.263124 
C 627.03426 240.263124 631.252621 238.515821 634.362403 235.406039 
C 637.472185 232.296257 639.219488 228.077896 639.219488 223.68 
C 639.219488 219.282104 637.472185 215.063743 634.362403 211.953961 
C 631.252621 208.844179 627.03426 207.096876 622.636364 207.096876 
C 618.238468 207.096876 614.020106 208.844179 610.910324 211.953961 
C 607.800542 215.063743 606.05324 219.282104 606.05324 223.68 
C 606.05324 228.077896 607.800542 232.296257 610.910324 235.406039 
C 614.020106 238.515821 618.238468 240.263124 622.636364 240.263124 
z
" clip-path="url(#p74e476d441)" style="fill: #808080; fill-opacity: 0.6; stroke: #ffffff; stroke-opacity: 0.6; stroke-width: 2"/>
    <path d="M 622.636364 238.68 
C 626.61441 238.68 630.430062 237.099505 633.242965 234.286602 
C 636.055869 231.473698 637.636364 227.658047 637.636364 223.68 
C 637.636364 219.701954 636.055869 215.886302 633.242965 213.073398 
C 630.430062 210.260495 626.61441 208.68 622.636364 208.68 
C 618.658317 208.68 614.842666 210.260495 612.029762 213.073398 
C 609.216858 215.886302 607.636364 219.701954 607.636364 223.68 
C 607.636364 227.658047 609.216858 231.473698 612.029762 234.286602 
C 614.842666 237.099505 618.658317 238.68 622.636364 238.68 
z
" clip-path="url(#p74e476d441)" style="fill: #808080; fill-opacity: 0.6; stroke: #ffffff; stroke-opacity: 0.6; stroke-width: 2"/>
    <path d="M 622.636364 241.000508 
C 627.229816 241.000508 631.635751 239.17551 634.883812 235.927449 
C 638.131874 232.679387 639.956872 228.273452 639.956872 223.68 
C 639.956872 219.086548 638.131874 214.680613 634.883812 211.432551 
C 631.635751 208.18449 627.229816 206.359492 622.636364 206.359492 
C 618.042911 206.359492 613.636976 208.18449 610.388915 211.432551 
C 607.140854 214.680613 605.315856 219.086548 605.315856 223.68 
C 605.315856 228.273452 607.140854 232.679387 610.388915 235.927449 
C 613.636976 239.17551 618.042911 241.000508 622.636364 241.000508 
z
" clip-path="url(#p74e476d441)" style="fill: #808080; fill-opacity: 0.6; stroke: #ffffff; stroke-opacity: 0.6; stroke-width: 2"/>
    <path d="M 622.636364 165.140254 
C 624.93309 165.140254 627.136057 164.227755 628.760088 162.603724 
C 630.384119 160.979694 631.296618 158.776726 631.296618 156.48 
C 631.296618 154.183274 630.384119 151.980306 628.760088 150.356276 
C 627.136057 148.732245 624.93309 147.819746 622.636364 147.819746 
C 620.339637 147.819746 618.13667 148.732245 616.512639 150.356276 
C 614.888609 151.980306 613.97611 154.183274 613.97611 156.48 
C 613.97611 158.776726 614.888609 160.979694 616.512639 162.603724 
C 618.13667 164.227755 620.339637 165.140254 622.636364 165.140254 
z
" clip-path="url(#p74e476d441)" style="fill: #808080; fill-opacity: 0.6; stroke: #ffffff; stroke-opacity: 0.6; stroke-width: 2"/>
    <path d="M 622.636364 166.48 
C 625.288395 166.48 627.832162 165.426337 629.707431 163.551068 
C 631.582701 161.675799 632.636364 159.132031 632.636364 156.48 
C 632.636364 153.827969 631.582701 151.284201 629.707431 149.408932 
C 627.832162 147.533663 625.288395 146.48 622.636364 146.48 
C 619.984333 146.48 617.440565 147.533663 615.565296 149.408932 
C 613.690027 151.284201 612.636364 153.827969 612.636364 156.48 
C 612.636364 159.132031 613.690027 161.675799 615.565296 163.551068 
C 617.440565 165.426337 619.984333 166.48 622.636364 166.48 
z
" clip-path="url(#p74e476d441)" style="fill: #808080; fill-opacity: 0.6; stroke: #ffffff; stroke-opacity: 0.6; stroke-width: 2"/>
    <path d="M 622.636364 163.551068 
C 624.511633 163.551068 626.310348 162.806016 627.636364 161.48 
C 628.962379 160.153985 629.707431 158.355269 629.707431 156.48 
C 629.707431 154.604731 628.962379 152.806016 627.636364 151.48 
C 626.310348 150.153985 624.511633 149.408932 622.636364 149.408932 
C 620.761095 149.408932 618.962379 150.153985 617.636364 151.48 
C 616.310348 152.806016 615.565296 154.604731 615.565296 156.48 
C 615.565296 158.355269 616.310348 160.153985 617.636364 161.48 
C 618.962379 162.806016 620.761095 163.551068 622.636364 163.551068 
z
" clip-path="url(#p74e476d441)" style="fill: #808080; fill-opacity: 0.6; stroke: #ffffff; stroke-opacity: 0.6; stroke-width: 2"/>
    <path d="M 622.636364 167.66034 
C 625.601424 167.66034 628.445443 166.482309 630.542058 164.385694 
C 632.638672 162.28908 633.816704 159.445061 633.816704 156.48 
C 633.816704 153.514939 632.638672 150.67092 630.542058 148.574306 
C 628.445443 146.477691 625.601424 145.29966 622.636364 145.29966 
C 619.671303 145.29966 616.827284 146.477691 614.730669 148.574306 
C 612.634055 150.67092 611.456024 153.514939 611.456024 156.48 
C 611.456024 159.445061 612.634055 162.28908 614.730669 164.385694 
C 616.827284 166.482309 619.671303 167.66034 622.636364 167.66034 
z
" clip-path="url(#p74e476d441)" style="fill: #808080; fill-opacity: 0.6; stroke: #ffffff; stroke-opacity: 0.6; stroke-width: 2"/>
    <path d="M 622.636364 94.28 
C 623.962379 94.28 625.234263 93.753168 626.171898 92.815534 
C 627.109532 91.877899 627.636364 90.606015 627.636364 89.28 
C 627.636364 87.953984 627.109532 86.682101 626.171898 85.744466 
C 625.234263 84.806832 623.962379 84.28 622.636364 84.28 
C 621.310348 84.28 620.038464 84.806832 619.10083 85.744466 
C 618.163195 86.682101 617.636364 87.953984 617.636364 89.28 
C 617.636364 90.606015 618.163195 91.877899 619.10083 92.815534 
C 620.038464 93.753168 621.310348 94.28 622.636364 94.28 
z
" clip-path="url(#p74e476d441)" style="fill: #808080; fill-opacity: 0.6; stroke: #ffffff; stroke-opacity: 0.6; stroke-width: 2"/>
    <path d="M 622.636364 94.28 
C 623.962379 94.28 625.234263 93.753168 626.171898 92.815534 
C 627.109532 91.877899 627.636364 90.606015 627.636364 89.28 
C 627.636364 87.953984 627.109532 86.682101 626.171898 85.744466 
C 625.234263 84.806832 623.962379 84.28 622.636364 84.28 
C 621.310348 84.28 620.038464 84.806832 619.10083 85.744466 
C 618.163195 86.682101 617.636364 87.953984 617.636364 89.28 
C 617.636364 90.606015 618.163195 91.877899 619.10083 92.815534 
C 620.038464 93.753168 621.310348 94.28 622.636364 94.28 
z
" clip-path="url(#p74e476d441)" style="fill: #808080; fill-opacity: 0.6; stroke: #ffffff; stroke-opacity: 0.6; stroke-width: 2"/>
    <path d="M 622.636364 94.28 
C 623.962379 94.28 625.234263 93.753168 626.171898 92.815534 
C 627.109532 91.877899 627.636364 90.606015 627.636364 89.28 
C 627.636364 87.953984 627.109532 86.682101 626.171898 85.744466 
C 625.234263 84.806832 623.962379 84.28 622.636364 84.28 
C 621.310348 84.28 620.038464 84.806832 619.10083 85.744466 
C 618.163195 86.682101 617.636364 87.953984 617.636364 89.28 
C 617.636364 90.606015 618.163195 91.877899 619.10083 92.815534 
C 620.038464 93.753168 621.310348 94.28 622.636364 94.28 
z
" clip-path="url(#p74e476d441)" style="fill: #808080; fill-opacity: 0.6; stroke: #ffffff; stroke-opacity: 0.6; stroke-width: 2"/>
   </g>
   <g id="matplotlib.axis_1">
    <g id="xtick_1">
     <g id="line2d_1">
      <path d="M 115.363636 512.64 
L 115.363636 69.12 
" clip-path="url(#p74e476d441)" style="fill: none; stroke: #b0b0b0; stroke-width: 0.8; stroke-linecap: square"/>
     </g>
     <g id="line2d_2">
      <defs>
       <path id="m60169d9c7a" d="M 0 0 
L 0 3.5 
" style="stroke: #000000; stroke-width: 0.8"/>
      </defs>
      <g>
       <use xlink:href="#m60169d9c7a" x="115.363636" y="512.64" style="stroke: #000000; stroke-width: 0.8"/>
      </g>
     </g>
     <g id="text_1">
      <!-- Virtual World -->
      <g transform="translate(83.112074 527.238438) scale(0.1 -0.1)">
       <defs>
        <path id="DejaVuSans-56" d="M 1831 0 
L 50 4666 
L 709 4666 
L 2188 738 
L 3669 4666 
L 4325 4666 
L 2547 0 
L 1831 0 
z
" transform="scale(0.015625)"/>
        <path id="DejaVuSans-69" d="M 603 3500 
L 1178 3500 
L 1178 0 
L 603 0 
L 603 3500 
z
M 603 4863 
L 1178 4863 
L 1178 4134 
L 603 4134 
L 603 4863 
z
" transform="scale(0.015625)"/>
        <path id="DejaVuSans-72" d="M 2631 2963 
Q 2534 3019 2420 3045 
Q 2306 3072 2169 3072 
Q 1681 3072 1420 2755 
Q 1159 2438 1159 1844 
L 1159 0 
L 581 0 
L 581 3500 
L 1159 3500 
L 1159 2956 
Q 1341 3275 1631 3429 
Q 1922 3584 2338 3584 
Q 2397 3584 2469 3576 
Q 2541 3569 2628 3553 
L 2631 2963 
z
" transform="scale(0.015625)"/>
        <path id="DejaVuSans-74" d="M 1172 4494 
L 1172 3500 
L 2356 3500 
L 2356 3053 
L 1172 3053 
L 1172 1153 
Q 1172 725 1289 603 
Q 1406 481 1766 481 
L 2356 481 
L 2356 0 
L 1766 0 
Q 1100 0 847 248 
Q 594 497 594 1153 
L 594 3053 
L 172 3053 
L 172 3500 
L 594 3500 
L 594 4494 
L 1172 4494 
z
" transform="scale(0.015625)"/>
        <path id="DejaVuSans-75" d="M 544 1381 
L 544 3500 
L 1119 3500 
L 1119 1403 
Q 1119 906 1312 657 
Q 1506 409 1894 409 
Q 2359 409 2629 706 
Q 2900 1003 2900 1516 
L 2900 3500 
L 3475 3500 
L 3475 0 
L 2900 0 
L 2900 538 
Q 2691 219 2414 64 
Q 2138 -91 1772 -91 
Q 1169 -91 856 284 
Q 544 659 544 1381 
z
M 1991 3584 
L 1991 3584 
z
" transform="scale(0.015625)"/>
        <path id="DejaVuSans-61" d="M 2194 1759 
Q 1497 1759 1228 1600 
Q 959 1441 959 1056 
Q 959 750 1161 570 
Q 1363 391 1709 391 
Q 2188 391 2477 730 
Q 2766 1069 2766 1631 
L 2766 1759 
L 2194 1759 
z
M 3341 1997 
L 3341 0 
L 2766 0 
L 2766 531 
Q 2569 213 2275 61 
Q 1981 -91 1556 -91 
Q 1019 -91 701 211 
Q 384 513 384 1019 
Q 384 1609 779 1909 
Q 1175 2209 1959 2209 
L 2766 2209 
L 2766 2266 
Q 2766 2663 2505 2880 
Q 2244 3097 1772 3097 
Q 1472 3097 1187 3025 
Q 903 2953 641 2809 
L 641 3341 
Q 956 3463 1253 3523 
Q 1550 3584 1831 3584 
Q 2591 3584 2966 3190 
Q 3341 2797 3341 1997 
z
" transform="scale(0.015625)"/>
        <path id="DejaVuSans-6c" d="M 603 4863 
L 1178 4863 
L 1178 0 
L 603 0 
L 603 4863 
z
" transform="scale(0.015625)"/>
        <path id="DejaVuSans-20" transform="scale(0.015625)"/>
        <path id="DejaVuSans-57" d="M 213 4666 
L 850 4666 
L 1831 722 
L 2809 4666 
L 3519 4666 
L 4500 722 
L 5478 4666 
L 6119 4666 
L 4947 0 
L 4153 0 
L 3169 4050 
L 2175 0 
L 1381 0 
L 213 4666 
z
" transform="scale(0.015625)"/>
        <path id="DejaVuSans-6f" d="M 1959 3097 
Q 1497 3097 1228 2736 
Q 959 2375 959 1747 
Q 959 1119 1226 758 
Q 1494 397 1959 397 
Q 2419 397 2687 759 
Q 2956 1122 2956 1747 
Q 2956 2369 2687 2733 
Q 2419 3097 1959 3097 
z
M 1959 3584 
Q 2709 3584 3137 3096 
Q 3566 2609 3566 1747 
Q 3566 888 3137 398 
Q 2709 -91 1959 -91 
Q 1206 -91 779 398 
Q 353 888 353 1747 
Q 353 2609 779 3096 
Q 1206 3584 1959 3584 
z
" transform="scale(0.015625)"/>
        <path id="DejaVuSans-64" d="M 2906 2969 
L 2906 4863 
L 3481 4863 
L 3481 0 
L 2906 0 
L 2906 525 
Q 2725 213 2448 61 
Q 2172 -91 1784 -91 
Q 1150 -91 751 415 
Q 353 922 353 1747 
Q 353 2572 751 3078 
Q 1150 3584 1784 3584 
Q 2172 3584 2448 3432 
Q 2725 3281 2906 2969 
z
M 947 1747 
Q 947 1113 1208 752 
Q 1469 391 1925 391 
Q 2381 391 2643 752 
Q 2906 1113 2906 1747 
Q 2906 2381 2643 2742 
Q 2381 3103 1925 3103 
Q 1469 3103 1208 2742 
Q 947 2381 947 1747 
z
" transform="scale(0.015625)"/>
       </defs>
       <use xlink:href="#DejaVuSans-56"/>
       <use xlink:href="#DejaVuSans-69" x="66.158203"/>
       <use xlink:href="#DejaVuSans-72" x="93.941406"/>
       <use xlink:href="#DejaVuSans-74" x="135.054688"/>
       <use xlink:href="#DejaVuSans-75" x="174.263672"/>
       <use xlink:href="#DejaVuSans-61" x="237.642578"/>
       <use xlink:href="#DejaVuSans-6c" x="298.921875"/>
       <use xlink:href="#DejaVuSans-20" x="326.705078"/>
       <use xlink:href="#DejaVuSans-57" x="358.492188"/>
       <use xlink:href="#DejaVuSans-6f" x="451.494141"/>
       <use xlink:href="#DejaVuSans-72" x="512.675781"/>
       <use xlink:href="#DejaVuSans-6c" x="553.789062"/>
       <use xlink:href="#DejaVuSans-64" x="581.572266"/>
      </g>
     </g>
    </g>
    <g id="xtick_2">
     <g id="line2d_3">
      <path d="M 284.454545 512.64 
L 284.454545 69.12 
" clip-path="url(#p74e476d441)" style="fill: none; stroke: #b0b0b0; stroke-width: 0.8; stroke-linecap: square"/>
     </g>
     <g id="line2d_4">
      <g>
       <use xlink:href="#m60169d9c7a" x="284.454545" y="512.64" style="stroke: #000000; stroke-width: 0.8"/>
      </g>
     </g>
     <g id="text_2">
      <!-- Lifelogging -->
      <g transform="translate(256.91392 527.238438) scale(0.1 -0.1)">
       <defs>
        <path id="DejaVuSans-4c" d="M 628 4666 
L 1259 4666 
L 1259 531 
L 3531 531 
L 3531 0 
L 628 0 
L 628 4666 
z
" transform="scale(0.015625)"/>
        <path id="DejaVuSans-66" d="M 2375 4863 
L 2375 4384 
L 1825 4384 
Q 1516 4384 1395 4259 
Q 1275 4134 1275 3809 
L 1275 3500 
L 2222 3500 
L 2222 3053 
L 1275 3053 
L 1275 0 
L 697 0 
L 697 3053 
L 147 3053 
L 147 3500 
L 697 3500 
L 697 3744 
Q 697 4328 969 4595 
Q 1241 4863 1831 4863 
L 2375 4863 
z
" transform="scale(0.015625)"/>
        <path id="DejaVuSans-65" d="M 3597 1894 
L 3597 1613 
L 953 1613 
Q 991 1019 1311 708 
Q 1631 397 2203 397 
Q 2534 397 2845 478 
Q 3156 559 3463 722 
L 3463 178 
Q 3153 47 2828 -22 
Q 2503 -91 2169 -91 
Q 1331 -91 842 396 
Q 353 884 353 1716 
Q 353 2575 817 3079 
Q 1281 3584 2069 3584 
Q 2775 3584 3186 3129 
Q 3597 2675 3597 1894 
z
M 3022 2063 
Q 3016 2534 2758 2815 
Q 2500 3097 2075 3097 
Q 1594 3097 1305 2825 
Q 1016 2553 972 2059 
L 3022 2063 
z
" transform="scale(0.015625)"/>
        <path id="DejaVuSans-67" d="M 2906 1791 
Q 2906 2416 2648 2759 
Q 2391 3103 1925 3103 
Q 1463 3103 1205 2759 
Q 947 2416 947 1791 
Q 947 1169 1205 825 
Q 1463 481 1925 481 
Q 2391 481 2648 825 
Q 2906 1169 2906 1791 
z
M 3481 434 
Q 3481 -459 3084 -895 
Q 2688 -1331 1869 -1331 
Q 1566 -1331 1297 -1286 
Q 1028 -1241 775 -1147 
L 775 -588 
Q 1028 -725 1275 -790 
Q 1522 -856 1778 -856 
Q 2344 -856 2625 -561 
Q 2906 -266 2906 331 
L 2906 616 
Q 2728 306 2450 153 
Q 2172 0 1784 0 
Q 1141 0 747 490 
Q 353 981 353 1791 
Q 353 2603 747 3093 
Q 1141 3584 1784 3584 
Q 2172 3584 2450 3431 
Q 2728 3278 2906 2969 
L 2906 3500 
L 3481 3500 
L 3481 434 
z
" transform="scale(0.015625)"/>
        <path id="DejaVuSans-6e" d="M 3513 2113 
L 3513 0 
L 2938 0 
L 2938 2094 
Q 2938 2591 2744 2837 
Q 2550 3084 2163 3084 
Q 1697 3084 1428 2787 
Q 1159 2491 1159 1978 
L 1159 0 
L 581 0 
L 581 3500 
L 1159 3500 
L 1159 2956 
Q 1366 3272 1645 3428 
Q 1925 3584 2291 3584 
Q 2894 3584 3203 3211 
Q 3513 2838 3513 2113 
z
" transform="scale(0.015625)"/>
       </defs>
       <use xlink:href="#DejaVuSans-4c"/>
       <use xlink:href="#DejaVuSans-69" x="55.712891"/>
       <use xlink:href="#DejaVuSans-66" x="83.496094"/>
       <use xlink:href="#DejaVuSans-65" x="118.701172"/>
       <use xlink:href="#DejaVuSans-6c" x="180.224609"/>
       <use xlink:href="#DejaVuSans-6f" x="208.007812"/>
       <use xlink:href="#DejaVuSans-67" x="269.189453"/>
       <use xlink:href="#DejaVuSans-67" x="332.666016"/>
       <use xlink:href="#DejaVuSans-69" x="396.142578"/>
       <use xlink:href="#DejaVuSans-6e" x="423.925781"/>
       <use xlink:href="#DejaVuSans-67" x="487.304688"/>
      </g>
     </g>
    </g>
    <g id="xtick_3">
     <g id="line2d_5">
      <path d="M 453.545455 512.64 
L 453.545455 69.12 
" clip-path="url(#p74e476d441)" style="fill: none; stroke: #b0b0b0; stroke-width: 0.8; stroke-linecap: square"/>
     </g>
     <g id="line2d_6">
      <g>
       <use xlink:href="#m60169d9c7a" x="453.545455" y="512.64" style="stroke: #000000; stroke-width: 0.8"/>
      </g>
     </g>
     <g id="text_3">
      <!-- Augmented Reality -->
      <g transform="translate(405.779048 527.238438) scale(0.1 -0.1)">
       <defs>
        <path id="DejaVuSans-41" d="M 2188 4044 
L 1331 1722 
L 3047 1722 
L 2188 4044 
z
M 1831 4666 
L 2547 4666 
L 4325 0 
L 3669 0 
L 3244 1197 
L 1141 1197 
L 716 0 
L 50 0 
L 1831 4666 
z
" transform="scale(0.015625)"/>
        <path id="DejaVuSans-6d" d="M 3328 2828 
Q 3544 3216 3844 3400 
Q 4144 3584 4550 3584 
Q 5097 3584 5394 3201 
Q 5691 2819 5691 2113 
L 5691 0 
L 5113 0 
L 5113 2094 
Q 5113 2597 4934 2840 
Q 4756 3084 4391 3084 
Q 3944 3084 3684 2787 
Q 3425 2491 3425 1978 
L 3425 0 
L 2847 0 
L 2847 2094 
Q 2847 2600 2669 2842 
Q 2491 3084 2119 3084 
Q 1678 3084 1418 2786 
Q 1159 2488 1159 1978 
L 1159 0 
L 581 0 
L 581 3500 
L 1159 3500 
L 1159 2956 
Q 1356 3278 1631 3431 
Q 1906 3584 2284 3584 
Q 2666 3584 2933 3390 
Q 3200 3197 3328 2828 
z
" transform="scale(0.015625)"/>
        <path id="DejaVuSans-52" d="M 2841 2188 
Q 3044 2119 3236 1894 
Q 3428 1669 3622 1275 
L 4263 0 
L 3584 0 
L 2988 1197 
Q 2756 1666 2539 1819 
Q 2322 1972 1947 1972 
L 1259 1972 
L 1259 0 
L 628 0 
L 628 4666 
L 2053 4666 
Q 2853 4666 3247 4331 
Q 3641 3997 3641 3322 
Q 3641 2881 3436 2590 
Q 3231 2300 2841 2188 
z
M 1259 4147 
L 1259 2491 
L 2053 2491 
Q 2509 2491 2742 2702 
Q 2975 2913 2975 3322 
Q 2975 3731 2742 3939 
Q 2509 4147 2053 4147 
L 1259 4147 
z
" transform="scale(0.015625)"/>
        <path id="DejaVuSans-79" d="M 2059 -325 
Q 1816 -950 1584 -1140 
Q 1353 -1331 966 -1331 
L 506 -1331 
L 506 -850 
L 844 -850 
Q 1081 -850 1212 -737 
Q 1344 -625 1503 -206 
L 1606 56 
L 191 3500 
L 800 3500 
L 1894 763 
L 2988 3500 
L 3597 3500 
L 2059 -325 
z
" transform="scale(0.015625)"/>
       </defs>
       <use xlink:href="#DejaVuSans-41"/>
       <use xlink:href="#DejaVuSans-75" x="68.408203"/>
       <use xlink:href="#DejaVuSans-67" x="131.787109"/>
       <use xlink:href="#DejaVuSans-6d" x="195.263672"/>
       <use xlink:href="#DejaVuSans-65" x="292.675781"/>
       <use xlink:href="#DejaVuSans-6e" x="354.199219"/>
       <use xlink:href="#DejaVuSans-74" x="417.578125"/>
       <use xlink:href="#DejaVuSans-65" x="456.787109"/>
       <use xlink:href="#DejaVuSans-64" x="518.310547"/>
       <use xlink:href="#DejaVuSans-20" x="581.787109"/>
       <use xlink:href="#DejaVuSans-52" x="613.574219"/>
       <use xlink:href="#DejaVuSans-65" x="678.556641"/>
       <use xlink:href="#DejaVuSans-61" x="740.080078"/>
       <use xlink:href="#DejaVuSans-6c" x="801.359375"/>
       <use xlink:href="#DejaVuSans-69" x="829.142578"/>
       <use xlink:href="#DejaVuSans-74" x="856.925781"/>
       <use xlink:href="#DejaVuSans-79" x="896.134766"/>
      </g>
     </g>
    </g>
    <g id="xtick_4">
     <g id="line2d_7">
      <path d="M 622.636364 512.64 
L 622.636364 69.12 
" clip-path="url(#p74e476d441)" style="fill: none; stroke: #b0b0b0; stroke-width: 0.8; stroke-linecap: square"/>
     </g>
     <g id="line2d_8">
      <g>
       <use xlink:href="#m60169d9c7a" x="622.636364" y="512.64" style="stroke: #000000; stroke-width: 0.8"/>
      </g>
     </g>
     <g id="text_4">
      <!-- Mirror World -->
      <g transform="translate(591.99027 527.238438) scale(0.1 -0.1)">
       <defs>
        <path id="DejaVuSans-4d" d="M 628 4666 
L 1569 4666 
L 2759 1491 
L 3956 4666 
L 4897 4666 
L 4897 0 
L 4281 0 
L 4281 4097 
L 3078 897 
L 2444 897 
L 1241 4097 
L 1241 0 
L 628 0 
L 628 4666 
z
" transform="scale(0.015625)"/>
       </defs>
       <use xlink:href="#DejaVuSans-4d"/>
       <use xlink:href="#DejaVuSans-69" x="86.279297"/>
       <use xlink:href="#DejaVuSans-72" x="114.0625"/>
       <use xlink:href="#DejaVuSans-72" x="153.425781"/>
       <use xlink:href="#DejaVuSans-6f" x="192.289062"/>
       <use xlink:href="#DejaVuSans-72" x="253.470703"/>
       <use xlink:href="#DejaVuSans-20" x="294.583984"/>
       <use xlink:href="#DejaVuSans-57" x="326.371094"/>
       <use xlink:href="#DejaVuSans-6f" x="419.373047"/>
       <use xlink:href="#DejaVuSans-72" x="480.554688"/>
       <use xlink:href="#DejaVuSans-6c" x="521.667969"/>
       <use xlink:href="#DejaVuSans-64" x="549.451172"/>
      </g>
     </g>
    </g>
    <g id="text_5">
     <!-- strategy -->
     <g transform="translate(348.145312 540.916563) scale(0.1 -0.1)">
      <defs>
       <path id="DejaVuSans-73" d="M 2834 3397 
L 2834 2853 
Q 2591 2978 2328 3040 
Q 2066 3103 1784 3103 
Q 1356 3103 1142 2972 
Q 928 2841 928 2578 
Q 928 2378 1081 2264 
Q 1234 2150 1697 2047 
L 1894 2003 
Q 2506 1872 2764 1633 
Q 3022 1394 3022 966 
Q 3022 478 2636 193 
Q 2250 -91 1575 -91 
Q 1294 -91 989 -36 
Q 684 19 347 128 
L 347 722 
Q 666 556 975 473 
Q 1284 391 1588 391 
Q 1994 391 2212 530 
Q 2431 669 2431 922 
Q 2431 1156 2273 1281 
Q 2116 1406 1581 1522 
L 1381 1569 
Q 847 1681 609 1914 
Q 372 2147 372 2553 
Q 372 3047 722 3315 
Q 1072 3584 1716 3584 
Q 2034 3584 2315 3537 
Q 2597 3491 2834 3397 
z
" transform="scale(0.015625)"/>
      </defs>
      <use xlink:href="#DejaVuSans-73"/>
      <use xlink:href="#DejaVuSans-74" x="52.099609"/>
      <use xlink:href="#DejaVuSans-72" x="91.308594"/>
      <use xlink:href="#DejaVuSans-61" x="132.421875"/>
      <use xlink:href="#DejaVuSans-74" x="193.701172"/>
      <use xlink:href="#DejaVuSans-65" x="232.910156"/>
      <use xlink:href="#DejaVuSans-67" x="294.433594"/>
      <use xlink:href="#DejaVuSans-79" x="357.910156"/>
     </g>
    </g>
   </g>
   <g id="matplotlib.axis_2">
    <g id="ytick_1">
     <g id="line2d_9">
      <path d="M 90 492.48 
L 648 492.48 
" clip-path="url(#p74e476d441)" style="fill: none; stroke: #b0b0b0; stroke-width: 0.8; stroke-linecap: square"/>
     </g>
     <g id="line2d_10">
      <defs>
       <path id="mf4c4dd71d9" d="M 0 0 
L -3.5 0 
" style="stroke: #000000; stroke-width: 0.8"/>
      </defs>
      <g>
       <use xlink:href="#mf4c4dd71d9" x="90" y="492.48" style="stroke: #000000; stroke-width: 0.8"/>
      </g>
     </g>
     <g id="text_6">
      <!-- VR -->
      <g transform="translate(69.210938 496.279219) scale(0.1 -0.1)">
       <use xlink:href="#DejaVuSans-56"/>
       <use xlink:href="#DejaVuSans-52" x="68.408203"/>
      </g>
     </g>
    </g>
    <g id="ytick_2">
     <g id="line2d_11">
      <path d="M 90 425.28 
L 648 425.28 
" clip-path="url(#p74e476d441)" style="fill: none; stroke: #b0b0b0; stroke-width: 0.8; stroke-linecap: square"/>
     </g>
     <g id="line2d_12">
      <g>
       <use xlink:href="#mf4c4dd71d9" x="90" y="425.28" style="stroke: #000000; stroke-width: 0.8"/>
      </g>
     </g>
     <g id="text_7">
      <!-- CHI -->
      <g transform="translate(65.546875 429.079219) scale(0.1 -0.1)">
       <defs>
        <path id="DejaVuSans-43" d="M 4122 4306 
L 4122 3641 
Q 3803 3938 3442 4084 
Q 3081 4231 2675 4231 
Q 1875 4231 1450 3742 
Q 1025 3253 1025 2328 
Q 1025 1406 1450 917 
Q 1875 428 2675 428 
Q 3081 428 3442 575 
Q 3803 722 4122 1019 
L 4122 359 
Q 3791 134 3420 21 
Q 3050 -91 2638 -91 
Q 1578 -91 968 557 
Q 359 1206 359 2328 
Q 359 3453 968 4101 
Q 1578 4750 2638 4750 
Q 3056 4750 3426 4639 
Q 3797 4528 4122 4306 
z
" transform="scale(0.015625)"/>
        <path id="DejaVuSans-48" d="M 628 4666 
L 1259 4666 
L 1259 2753 
L 3553 2753 
L 3553 4666 
L 4184 4666 
L 4184 0 
L 3553 0 
L 3553 2222 
L 1259 2222 
L 1259 0 
L 628 0 
L 628 4666 
z
" transform="scale(0.015625)"/>
        <path id="DejaVuSans-49" d="M 628 4666 
L 1259 4666 
L 1259 0 
L 628 0 
L 628 4666 
z
" transform="scale(0.015625)"/>
       </defs>
       <use xlink:href="#DejaVuSans-43"/>
       <use xlink:href="#DejaVuSans-48" x="69.824219"/>
       <use xlink:href="#DejaVuSans-49" x="145.019531"/>
      </g>
     </g>
    </g>
    <g id="ytick_3">
     <g id="line2d_13">
      <path d="M 90 358.08 
L 648 358.08 
" clip-path="url(#p74e476d441)" style="fill: none; stroke: #b0b0b0; stroke-width: 0.8; stroke-linecap: square"/>
     </g>
     <g id="line2d_14">
      <g>
       <use xlink:href="#mf4c4dd71d9" x="90" y="358.08" style="stroke: #000000; stroke-width: 0.8"/>
      </g>
     </g>
     <g id="text_8">
      <!-- UIST -->
      <g transform="translate(60.275 361.879219) scale(0.1 -0.1)">
       <defs>
        <path id="DejaVuSans-55" d="M 556 4666 
L 1191 4666 
L 1191 1831 
Q 1191 1081 1462 751 
Q 1734 422 2344 422 
Q 2950 422 3222 751 
Q 3494 1081 3494 1831 
L 3494 4666 
L 4128 4666 
L 4128 1753 
Q 4128 841 3676 375 
Q 3225 -91 2344 -91 
Q 1459 -91 1007 375 
Q 556 841 556 1753 
L 556 4666 
z
" transform="scale(0.015625)"/>
        <path id="DejaVuSans-53" d="M 3425 4513 
L 3425 3897 
Q 3066 4069 2747 4153 
Q 2428 4238 2131 4238 
Q 1616 4238 1336 4038 
Q 1056 3838 1056 3469 
Q 1056 3159 1242 3001 
Q 1428 2844 1947 2747 
L 2328 2669 
Q 3034 2534 3370 2195 
Q 3706 1856 3706 1288 
Q 3706 609 3251 259 
Q 2797 -91 1919 -91 
Q 1588 -91 1214 -16 
Q 841 59 441 206 
L 441 856 
Q 825 641 1194 531 
Q 1563 422 1919 422 
Q 2459 422 2753 634 
Q 3047 847 3047 1241 
Q 3047 1584 2836 1778 
Q 2625 1972 2144 2069 
L 1759 2144 
Q 1053 2284 737 2584 
Q 422 2884 422 3419 
Q 422 4038 858 4394 
Q 1294 4750 2059 4750 
Q 2388 4750 2728 4690 
Q 3069 4631 3425 4513 
z
" transform="scale(0.015625)"/>
        <path id="DejaVuSans-54" d="M -19 4666 
L 3928 4666 
L 3928 4134 
L 2272 4134 
L 2272 0 
L 1638 0 
L 1638 4134 
L -19 4134 
L -19 4666 
z
" transform="scale(0.015625)"/>
       </defs>
       <use xlink:href="#DejaVuSans-55"/>
       <use xlink:href="#DejaVuSans-49" x="73.193359"/>
       <use xlink:href="#DejaVuSans-53" x="102.685547"/>
       <use xlink:href="#DejaVuSans-54" x="166.162109"/>
      </g>
     </g>
    </g>
    <g id="ytick_4">
     <g id="line2d_15">
      <path d="M 90 290.88 
L 648 290.88 
" clip-path="url(#p74e476d441)" style="fill: none; stroke: #b0b0b0; stroke-width: 0.8; stroke-linecap: square"/>
     </g>
     <g id="line2d_16">
      <g>
       <use xlink:href="#mf4c4dd71d9" x="90" y="290.88" style="stroke: #000000; stroke-width: 0.8"/>
      </g>
     </g>
     <g id="text_9">
      <!-- TVCG -->
      <g transform="translate(55.320312 294.679219) scale(0.1 -0.1)">
       <defs>
        <path id="DejaVuSans-47" d="M 3809 666 
L 3809 1919 
L 2778 1919 
L 2778 2438 
L 4434 2438 
L 4434 434 
Q 4069 175 3628 42 
Q 3188 -91 2688 -91 
Q 1594 -91 976 548 
Q 359 1188 359 2328 
Q 359 3472 976 4111 
Q 1594 4750 2688 4750 
Q 3144 4750 3555 4637 
Q 3966 4525 4313 4306 
L 4313 3634 
Q 3963 3931 3569 4081 
Q 3175 4231 2741 4231 
Q 1884 4231 1454 3753 
Q 1025 3275 1025 2328 
Q 1025 1384 1454 906 
Q 1884 428 2741 428 
Q 3075 428 3337 486 
Q 3600 544 3809 666 
z
" transform="scale(0.015625)"/>
       </defs>
       <use xlink:href="#DejaVuSans-54"/>
       <use xlink:href="#DejaVuSans-56" x="61.083984"/>
       <use xlink:href="#DejaVuSans-43" x="129.492188"/>
       <use xlink:href="#DejaVuSans-47" x="199.316406"/>
      </g>
     </g>
    </g>
    <g id="ytick_5">
     <g id="line2d_17">
      <path d="M 90 223.68 
L 648 223.68 
" clip-path="url(#p74e476d441)" style="fill: none; stroke: #b0b0b0; stroke-width: 0.8; stroke-linecap: square"/>
     </g>
     <g id="line2d_18">
      <g>
       <use xlink:href="#mf4c4dd71d9" x="90" y="223.68" style="stroke: #000000; stroke-width: 0.8"/>
      </g>
     </g>
     <g id="text_10">
      <!-- Other Venues -->
      <g transform="translate(15.171875 227.479219) scale(0.1 -0.1)">
       <defs>
        <path id="DejaVuSans-4f" d="M 2522 4238 
Q 1834 4238 1429 3725 
Q 1025 3213 1025 2328 
Q 1025 1447 1429 934 
Q 1834 422 2522 422 
Q 3209 422 3611 934 
Q 4013 1447 4013 2328 
Q 4013 3213 3611 3725 
Q 3209 4238 2522 4238 
z
M 2522 4750 
Q 3503 4750 4090 4092 
Q 4678 3434 4678 2328 
Q 4678 1225 4090 567 
Q 3503 -91 2522 -91 
Q 1538 -91 948 565 
Q 359 1222 359 2328 
Q 359 3434 948 4092 
Q 1538 4750 2522 4750 
z
" transform="scale(0.015625)"/>
        <path id="DejaVuSans-68" d="M 3513 2113 
L 3513 0 
L 2938 0 
L 2938 2094 
Q 2938 2591 2744 2837 
Q 2550 3084 2163 3084 
Q 1697 3084 1428 2787 
Q 1159 2491 1159 1978 
L 1159 0 
L 581 0 
L 581 4863 
L 1159 4863 
L 1159 2956 
Q 1366 3272 1645 3428 
Q 1925 3584 2291 3584 
Q 2894 3584 3203 3211 
Q 3513 2838 3513 2113 
z
" transform="scale(0.015625)"/>
       </defs>
       <use xlink:href="#DejaVuSans-4f"/>
       <use xlink:href="#DejaVuSans-74" x="78.710938"/>
       <use xlink:href="#DejaVuSans-68" x="117.919922"/>
       <use xlink:href="#DejaVuSans-65" x="181.298828"/>
       <use xlink:href="#DejaVuSans-72" x="242.822266"/>
       <use xlink:href="#DejaVuSans-20" x="283.935547"/>
       <use xlink:href="#DejaVuSans-56" x="315.722656"/>
       <use xlink:href="#DejaVuSans-65" x="376.380859"/>
       <use xlink:href="#DejaVuSans-6e" x="437.904297"/>
       <use xlink:href="#DejaVuSans-75" x="501.283203"/>
       <use xlink:href="#DejaVuSans-65" x="564.662109"/>
       <use xlink:href="#DejaVuSans-73" x="626.185547"/>
      </g>
     </g>
    </g>
    <g id="ytick_6">
     <g id="line2d_19">
      <path d="M 90 156.48 
L 648 156.48 
" clip-path="url(#p74e476d441)" style="fill: none; stroke: #b0b0b0; stroke-width: 0.8; stroke-linecap: square"/>
     </g>
     <g id="line2d_20">
      <g>
       <use xlink:href="#mf4c4dd71d9" x="90" y="156.48" style="stroke: #000000; stroke-width: 0.8"/>
      </g>
     </g>
     <g id="text_11">
      <!-- USS -->
      <g transform="translate(62.984375 160.279219) scale(0.1 -0.1)">
       <use xlink:href="#DejaVuSans-55"/>
       <use xlink:href="#DejaVuSans-53" x="73.193359"/>
       <use xlink:href="#DejaVuSans-53" x="136.669922"/>
      </g>
     </g>
    </g>
    <g id="ytick_7">
     <g id="line2d_21">
      <path d="M 90 89.28 
L 648 89.28 
" clip-path="url(#p74e476d441)" style="fill: none; stroke: #b0b0b0; stroke-width: 0.8; stroke-linecap: square"/>
     </g>
     <g id="line2d_22">
      <g>
       <use xlink:href="#mf4c4dd71d9" x="90" y="89.28" style="stroke: #000000; stroke-width: 0.8"/>
      </g>
     </g>
     <g id="text_12">
      <!-- SP -->
      <g transform="translate(70.621875 93.079219) scale(0.1 -0.1)">
       <defs>
        <path id="DejaVuSans-50" d="M 1259 4147 
L 1259 2394 
L 2053 2394 
Q 2494 2394 2734 2622 
Q 2975 2850 2975 3272 
Q 2975 3691 2734 3919 
Q 2494 4147 2053 4147 
L 1259 4147 
z
M 628 4666 
L 2053 4666 
Q 2838 4666 3239 4311 
Q 3641 3956 3641 3272 
Q 3641 2581 3239 2228 
Q 2838 1875 2053 1875 
L 1259 1875 
L 1259 0 
L 628 0 
L 628 4666 
z
" transform="scale(0.015625)"/>
       </defs>
       <use xlink:href="#DejaVuSans-53"/>
       <use xlink:href="#DejaVuSans-50" x="63.476562"/>
      </g>
     </g>
    </g>
    <g id="text_13">
     <!-- reality -->
     <g transform="translate(9.092187 306.66125) rotate(-90) scale(0.1 -0.1)">
      <use xlink:href="#DejaVuSans-72"/>
      <use xlink:href="#DejaVuSans-65" x="38.863281"/>
      <use xlink:href="#DejaVuSans-61" x="100.386719"/>
      <use xlink:href="#DejaVuSans-6c" x="161.666016"/>
      <use xlink:href="#DejaVuSans-69" x="189.449219"/>
      <use xlink:href="#DejaVuSans-74" x="217.232422"/>
      <use xlink:href="#DejaVuSans-79" x="256.441406"/>
     </g>
    </g>
   </g>
   <g id="patch_3">
    <path d="M 90 512.64 
L 90 69.12 
" style="fill: none; stroke: #000000; stroke-width: 0.8; stroke-linejoin: miter; stroke-linecap: square"/>
   </g>
   <g id="patch_4">
    <path d="M 648 512.64 
L 648 69.12 
" style="fill: none; stroke: #000000; stroke-width: 0.8; stroke-linejoin: miter; stroke-linecap: square"/>
   </g>
   <g id="patch_5">
    <path d="M 90 512.64 
L 648 512.64 
" style="fill: none; stroke: #000000; stroke-width: 0.8; stroke-linejoin: miter; stroke-linecap: square"/>
   </g>
   <g id="patch_6">
    <path d="M 90 69.12 
L 648 69.12 
" style="fill: none; stroke: #000000; stroke-width: 0.8; stroke-linejoin: miter; stroke-linecap: square"/>
   </g>
   <g id="text_14">
    <!-- Bubble Chart: strategy vs reality by papertype -->
    <g transform="translate(229.295625 63.12) scale(0.12 -0.12)">
     <defs>
      <path id="DejaVuSans-42" d="M 1259 2228 
L 1259 519 
L 2272 519 
Q 2781 519 3026 730 
Q 3272 941 3272 1375 
Q 3272 1813 3026 2020 
Q 2781 2228 2272 2228 
L 1259 2228 
z
M 1259 4147 
L 1259 2741 
L 2194 2741 
Q 2656 2741 2882 2914 
Q 3109 3088 3109 3444 
Q 3109 3797 2882 3972 
Q 2656 4147 2194 4147 
L 1259 4147 
z
M 628 4666 
L 2241 4666 
Q 2963 4666 3353 4366 
Q 3744 4066 3744 3513 
Q 3744 3084 3544 2831 
Q 3344 2578 2956 2516 
Q 3422 2416 3680 2098 
Q 3938 1781 3938 1306 
Q 3938 681 3513 340 
Q 3088 0 2303 0 
L 628 0 
L 628 4666 
z
" transform="scale(0.015625)"/>
      <path id="DejaVuSans-62" d="M 3116 1747 
Q 3116 2381 2855 2742 
Q 2594 3103 2138 3103 
Q 1681 3103 1420 2742 
Q 1159 2381 1159 1747 
Q 1159 1113 1420 752 
Q 1681 391 2138 391 
Q 2594 391 2855 752 
Q 3116 1113 3116 1747 
z
M 1159 2969 
Q 1341 3281 1617 3432 
Q 1894 3584 2278 3584 
Q 2916 3584 3314 3078 
Q 3713 2572 3713 1747 
Q 3713 922 3314 415 
Q 2916 -91 2278 -91 
Q 1894 -91 1617 61 
Q 1341 213 1159 525 
L 1159 0 
L 581 0 
L 581 4863 
L 1159 4863 
L 1159 2969 
z
" transform="scale(0.015625)"/>
      <path id="DejaVuSans-3a" d="M 750 794 
L 1409 794 
L 1409 0 
L 750 0 
L 750 794 
z
M 750 3309 
L 1409 3309 
L 1409 2516 
L 750 2516 
L 750 3309 
z
" transform="scale(0.015625)"/>
      <path id="DejaVuSans-76" d="M 191 3500 
L 800 3500 
L 1894 563 
L 2988 3500 
L 3597 3500 
L 2284 0 
L 1503 0 
L 191 3500 
z
" transform="scale(0.015625)"/>
      <path id="DejaVuSans-70" d="M 1159 525 
L 1159 -1331 
L 581 -1331 
L 581 3500 
L 1159 3500 
L 1159 2969 
Q 1341 3281 1617 3432 
Q 1894 3584 2278 3584 
Q 2916 3584 3314 3078 
Q 3713 2572 3713 1747 
Q 3713 922 3314 415 
Q 2916 -91 2278 -91 
Q 1894 -91 1617 61 
Q 1341 213 1159 525 
z
M 3116 1747 
Q 3116 2381 2855 2742 
Q 2594 3103 2138 3103 
Q 1681 3103 1420 2742 
Q 1159 2381 1159 1747 
Q 1159 1113 1420 752 
Q 1681 391 2138 391 
Q 2594 391 2855 752 
Q 3116 1113 3116 1747 
z
" transform="scale(0.015625)"/>
     </defs>
     <use xlink:href="#DejaVuSans-42"/>
     <use xlink:href="#DejaVuSans-75" x="68.603516"/>
     <use xlink:href="#DejaVuSans-62" x="131.982422"/>
     <use xlink:href="#DejaVuSans-62" x="195.458984"/>
     <use xlink:href="#DejaVuSans-6c" x="258.935547"/>
     <use xlink:href="#DejaVuSans-65" x="286.71875"/>
     <use xlink:href="#DejaVuSans-20" x="348.242188"/>
     <use xlink:href="#DejaVuSans-43" x="380.029297"/>
     <use xlink:href="#DejaVuSans-68" x="449.853516"/>
     <use xlink:href="#DejaVuSans-61" x="513.232422"/>
     <use xlink:href="#DejaVuSans-72" x="574.511719"/>
     <use xlink:href="#DejaVuSans-74" x="615.625"/>
     <use xlink:href="#DejaVuSans-3a" x="654.833984"/>
     <use xlink:href="#DejaVuSans-20" x="688.525391"/>
     <use xlink:href="#DejaVuSans-73" x="720.3125"/>
     <use xlink:href="#DejaVuSans-74" x="772.412109"/>
     <use xlink:href="#DejaVuSans-72" x="811.621094"/>
     <use xlink:href="#DejaVuSans-61" x="852.734375"/>
     <use xlink:href="#DejaVuSans-74" x="914.013672"/>
     <use xlink:href="#DejaVuSans-65" x="953.222656"/>
     <use xlink:href="#DejaVuSans-67" x="1014.746094"/>
     <use xlink:href="#DejaVuSans-79" x="1078.222656"/>
     <use xlink:href="#DejaVuSans-20" x="1137.402344"/>
     <use xlink:href="#DejaVuSans-76" x="1169.189453"/>
     <use xlink:href="#DejaVuSans-73" x="1228.369141"/>
     <use xlink:href="#DejaVuSans-20" x="1280.46875"/>
     <use xlink:href="#DejaVuSans-72" x="1312.255859"/>
     <use xlink:href="#DejaVuSans-65" x="1351.119141"/>
     <use xlink:href="#DejaVuSans-61" x="1412.642578"/>
     <use xlink:href="#DejaVuSans-6c" x="1473.921875"/>
     <use xlink:href="#DejaVuSans-69" x="1501.705078"/>
     <use xlink:href="#DejaVuSans-74" x="1529.488281"/>
     <use xlink:href="#DejaVuSans-79" x="1568.697266"/>
     <use xlink:href="#DejaVuSans-20" x="1627.876953"/>
     <use xlink:href="#DejaVuSans-62" x="1659.664062"/>
     <use xlink:href="#DejaVuSans-79" x="1723.140625"/>
     <use xlink:href="#DejaVuSans-20" x="1782.320312"/>
     <use xlink:href="#DejaVuSans-70" x="1814.107422"/>
     <use xlink:href="#DejaVuSans-61" x="1877.583984"/>
     <use xlink:href="#DejaVuSans-70" x="1938.863281"/>
     <use xlink:href="#DejaVuSans-65" x="2002.339844"/>
     <use xlink:href="#DejaVuSans-72" x="2063.863281"/>
     <use xlink:href="#DejaVuSans-74" x="2104.976562"/>
     <use xlink:href="#DejaVuSans-79" x="2144.185547"/>
     <use xlink:href="#DejaVuSans-70" x="2203.365234"/>
     <use xlink:href="#DejaVuSans-65" x="2266.841797"/>
    </g>
   </g>
   <g id="legend_1">
    <g id="patch_7">
     <path d="M 325.0625 507.64 
L 412.9375 507.64 
Q 414.9375 507.64 414.9375 505.64 
L 414.9375 418.57125 
Q 414.9375 416.57125 412.9375 416.57125 
L 325.0625 416.57125 
Q 323.0625 416.57125 323.0625 418.57125 
L 323.0625 505.64 
Q 323.0625 507.64 325.0625 507.64 
z
" style="fill: #ffffff; opacity: 0.8; stroke: #cccccc; stroke-linejoin: miter"/>
    </g>
    <g id="text_15">
     <!-- Papertype -->
     <g transform="translate(343.669531 428.169688) scale(0.1 -0.1)">
      <use xlink:href="#DejaVuSans-50"/>
      <use xlink:href="#DejaVuSans-61" x="55.802734"/>
      <use xlink:href="#DejaVuSans-70" x="117.082031"/>
      <use xlink:href="#DejaVuSans-65" x="180.558594"/>
      <use xlink:href="#DejaVuSans-72" x="242.082031"/>
      <use xlink:href="#DejaVuSans-74" x="283.195312"/>
      <use xlink:href="#DejaVuSans-79" x="322.404297"/>
      <use xlink:href="#DejaVuSans-70" x="381.583984"/>
      <use xlink:href="#DejaVuSans-65" x="445.060547"/>
     </g>
    </g>
    <g id="line2d_23">
     <path d="M 327.0625 439.347813 
L 337.0625 439.347813 
L 347.0625 439.347813 
" style="fill: none; stroke: #ffffff; stroke-width: 1.5; stroke-linecap: square"/>
     <defs>
      <path id="m9587ed1756" d="M 0 5 
C 1.326016 5 2.597899 4.473168 3.535534 3.535534 
C 4.473168 2.597899 5 1.326016 5 0 
C 5 -1.326016 4.473168 -2.597899 3.535534 -3.535534 
C 2.597899 -4.473168 1.326016 -5 0 -5 
C -1.326016 -5 -2.597899 -4.473168 -3.535534 -3.535534 
C -4.473168 -2.597899 -5 -1.326016 -5 0 
C -5 1.326016 -4.473168 2.597899 -3.535534 3.535534 
C -2.597899 4.473168 -1.326016 5 0 5 
z
" style="stroke: #ffffff"/>
     </defs>
     <g>
      <use xlink:href="#m9587ed1756" x="337.0625" y="439.347813" style="fill: #0000ff; stroke: #ffffff"/>
     </g>
    </g>
    <g id="text_16">
     <!-- Application -->
     <g transform="translate(355.0625 442.847813) scale(0.1 -0.1)">
      <defs>
       <path id="DejaVuSans-63" d="M 3122 3366 
L 3122 2828 
Q 2878 2963 2633 3030 
Q 2388 3097 2138 3097 
Q 1578 3097 1268 2742 
Q 959 2388 959 1747 
Q 959 1106 1268 751 
Q 1578 397 2138 397 
Q 2388 397 2633 464 
Q 2878 531 3122 666 
L 3122 134 
Q 2881 22 2623 -34 
Q 2366 -91 2075 -91 
Q 1284 -91 818 406 
Q 353 903 353 1747 
Q 353 2603 823 3093 
Q 1294 3584 2113 3584 
Q 2378 3584 2631 3529 
Q 2884 3475 3122 3366 
z
" transform="scale(0.015625)"/>
      </defs>
      <use xlink:href="#DejaVuSans-41"/>
      <use xlink:href="#DejaVuSans-70" x="68.408203"/>
      <use xlink:href="#DejaVuSans-70" x="131.884766"/>
      <use xlink:href="#DejaVuSans-6c" x="195.361328"/>
      <use xlink:href="#DejaVuSans-69" x="223.144531"/>
      <use xlink:href="#DejaVuSans-63" x="250.927734"/>
      <use xlink:href="#DejaVuSans-61" x="305.908203"/>
      <use xlink:href="#DejaVuSans-74" x="367.1875"/>
      <use xlink:href="#DejaVuSans-69" x="406.396484"/>
      <use xlink:href="#DejaVuSans-6f" x="434.179688"/>
      <use xlink:href="#DejaVuSans-6e" x="495.361328"/>
     </g>
    </g>
    <g id="line2d_24">
     <path d="M 327.0625 454.025937 
L 337.0625 454.025937 
L 347.0625 454.025937 
" style="fill: none; stroke: #ffffff; stroke-width: 1.5; stroke-linecap: square"/>
     <defs>
      <path id="m2fca7d7649" d="M 0 5 
C 1.326016 5 2.597899 4.473168 3.535534 3.535534 
C 4.473168 2.597899 5 1.326016 5 0 
C 5 -1.326016 4.473168 -2.597899 3.535534 -3.535534 
C 2.597899 -4.473168 1.326016 -5 0 -5 
C -1.326016 -5 -2.597899 -4.473168 -3.535534 -3.535534 
C -4.473168 -2.597899 -5 -1.326016 -5 0 
C -5 1.326016 -4.473168 2.597899 -3.535534 3.535534 
C -2.597899 4.473168 -1.326016 5 0 5 
z
" style="stroke: #ffffff"/>
     </defs>
     <g>
      <use xlink:href="#m2fca7d7649" x="337.0625" y="454.025937" style="fill: #008000; stroke: #ffffff"/>
     </g>
    </g>
    <g id="text_17">
     <!-- Evaluation -->
     <g transform="translate(355.0625 457.525937) scale(0.1 -0.1)">
      <defs>
       <path id="DejaVuSans-45" d="M 628 4666 
L 3578 4666 
L 3578 4134 
L 1259 4134 
L 1259 2753 
L 3481 2753 
L 3481 2222 
L 1259 2222 
L 1259 531 
L 3634 531 
L 3634 0 
L 628 0 
L 628 4666 
z
" transform="scale(0.015625)"/>
      </defs>
      <use xlink:href="#DejaVuSans-45"/>
      <use xlink:href="#DejaVuSans-76" x="63.183594"/>
      <use xlink:href="#DejaVuSans-61" x="122.363281"/>
      <use xlink:href="#DejaVuSans-6c" x="183.642578"/>
      <use xlink:href="#DejaVuSans-75" x="211.425781"/>
      <use xlink:href="#DejaVuSans-61" x="274.804688"/>
      <use xlink:href="#DejaVuSans-74" x="336.083984"/>
      <use xlink:href="#DejaVuSans-69" x="375.292969"/>
      <use xlink:href="#DejaVuSans-6f" x="403.076172"/>
      <use xlink:href="#DejaVuSans-6e" x="464.257812"/>
     </g>
    </g>
    <g id="line2d_25">
     <path d="M 327.0625 468.704063 
L 337.0625 468.704063 
L 347.0625 468.704063 
" style="fill: none; stroke: #ffffff; stroke-width: 1.5; stroke-linecap: square"/>
     <defs>
      <path id="m6eb2b4ec3d" d="M 0 5 
C 1.326016 5 2.597899 4.473168 3.535534 3.535534 
C 4.473168 2.597899 5 1.326016 5 0 
C 5 -1.326016 4.473168 -2.597899 3.535534 -3.535534 
C 2.597899 -4.473168 1.326016 -5 0 -5 
C -1.326016 -5 -2.597899 -4.473168 -3.535534 -3.535534 
C -4.473168 -2.597899 -5 -1.326016 -5 0 
C -5 1.326016 -4.473168 2.597899 -3.535534 3.535534 
C -2.597899 4.473168 -1.326016 5 0 5 
z
" style="stroke: #ffffff"/>
     </defs>
     <g>
      <use xlink:href="#m6eb2b4ec3d" x="337.0625" y="468.704063" style="fill: #ff0000; stroke: #ffffff"/>
     </g>
    </g>
    <g id="text_18">
     <!-- Model -->
     <g transform="translate(355.0625 472.204063) scale(0.1 -0.1)">
      <use xlink:href="#DejaVuSans-4d"/>
      <use xlink:href="#DejaVuSans-6f" x="86.279297"/>
      <use xlink:href="#DejaVuSans-64" x="147.460938"/>
      <use xlink:href="#DejaVuSans-65" x="210.9375"/>
      <use xlink:href="#DejaVuSans-6c" x="272.460938"/>
     </g>
    </g>
    <g id="line2d_26">
     <path d="M 327.0625 483.382187 
L 337.0625 483.382187 
L 347.0625 483.382187 
" style="fill: none; stroke: #ffffff; stroke-width: 1.5; stroke-linecap: square"/>
     <defs>
      <path id="m164886e696" d="M 0 5 
C 1.326016 5 2.597899 4.473168 3.535534 3.535534 
C 4.473168 2.597899 5 1.326016 5 0 
C 5 -1.326016 4.473168 -2.597899 3.535534 -3.535534 
C 2.597899 -4.473168 1.326016 -5 0 -5 
C -1.326016 -5 -2.597899 -4.473168 -3.535534 -3.535534 
C -4.473168 -2.597899 -5 -1.326016 -5 0 
C -5 1.326016 -4.473168 2.597899 -3.535534 3.535534 
C -2.597899 4.473168 -1.326016 5 0 5 
z
" style="stroke: #ffffff"/>
     </defs>
     <g>
      <use xlink:href="#m164886e696" x="337.0625" y="483.382187" style="fill: #800080; stroke: #ffffff"/>
     </g>
    </g>
    <g id="text_19">
     <!-- System -->
     <g transform="translate(355.0625 486.882187) scale(0.1 -0.1)">
      <use xlink:href="#DejaVuSans-53"/>
      <use xlink:href="#DejaVuSans-79" x="63.476562"/>
      <use xlink:href="#DejaVuSans-73" x="122.65625"/>
      <use xlink:href="#DejaVuSans-74" x="174.755859"/>
      <use xlink:href="#DejaVuSans-65" x="213.964844"/>
      <use xlink:href="#DejaVuSans-6d" x="275.488281"/>
     </g>
    </g>
    <g id="line2d_27">
     <path d="M 327.0625 498.060313 
L 337.0625 498.060313 
L 347.0625 498.060313 
" style="fill: none; stroke: #ffffff; stroke-width: 1.5; stroke-linecap: square"/>
     <defs>
      <path id="m68a2f83798" d="M 0 5 
C 1.326016 5 2.597899 4.473168 3.535534 3.535534 
C 4.473168 2.597899 5 1.326016 5 0 
C 5 -1.326016 4.473168 -2.597899 3.535534 -3.535534 
C 2.597899 -4.473168 1.326016 -5 0 -5 
C -1.326016 -5 -2.597899 -4.473168 -3.535534 -3.535534 
C -4.473168 -2.597899 -5 -1.326016 -5 0 
C -5 1.326016 -4.473168 2.597899 -3.535534 3.535534 
C -2.597899 4.473168 -1.326016 5 0 5 
z
" style="stroke: #ffffff"/>
     </defs>
     <g>
      <use xlink:href="#m68a2f83798" x="337.0625" y="498.060313" style="fill: #00ffff; stroke: #ffffff"/>
     </g>
    </g>
    <g id="text_20">
     <!-- Technique -->
     <g transform="translate(355.0625 501.560313) scale(0.1 -0.1)">
      <defs>
       <path id="DejaVuSans-71" d="M 947 1747 
Q 947 1113 1208 752 
Q 1469 391 1925 391 
Q 2381 391 2643 752 
Q 2906 1113 2906 1747 
Q 2906 2381 2643 2742 
Q 2381 3103 1925 3103 
Q 1469 3103 1208 2742 
Q 947 2381 947 1747 
z
M 2906 525 
Q 2725 213 2448 61 
Q 2172 -91 1784 -91 
Q 1150 -91 751 415 
Q 353 922 353 1747 
Q 353 2572 751 3078 
Q 1150 3584 1784 3584 
Q 2172 3584 2448 3432 
Q 2725 3281 2906 2969 
L 2906 3500 
L 3481 3500 
L 3481 -1331 
L 2906 -1331 
L 2906 525 
z
" transform="scale(0.015625)"/>
      </defs>
      <use xlink:href="#DejaVuSans-54"/>
      <use xlink:href="#DejaVuSans-65" x="44.083984"/>
      <use xlink:href="#DejaVuSans-63" x="105.607422"/>
      <use xlink:href="#DejaVuSans-68" x="160.587891"/>
      <use xlink:href="#DejaVuSans-6e" x="223.966797"/>
      <use xlink:href="#DejaVuSans-69" x="287.345703"/>
      <use xlink:href="#DejaVuSans-71" x="315.128906"/>
      <use xlink:href="#DejaVuSans-75" x="378.605469"/>
      <use xlink:href="#DejaVuSans-65" x="441.984375"/>
     </g>
    </g>
   </g>
  </g>
 </g>
 <defs>
  <clipPath id="p74e476d441">
   <rect x="90" y="69.12" width="558" height="443.52"/>
  </clipPath>
 </defs>
</svg>
