<?xml version="1.0" encoding="utf-8" standalone="no"?>
<!DOCTYPE svg PUBLIC "-//W3C//DTD SVG 1.1//EN"
  "http://www.w3.org/Graphics/SVG/1.1/DTD/svg11.dtd">
<svg xmlns:xlink="http://www.w3.org/1999/xlink" width="720pt" height="576pt" viewBox="0 0 720 576" xmlns="http://www.w3.org/2000/svg" version="1.1">
 <metadata>
  <rdf:RDF xmlns:dc="http://purl.org/dc/elements/1.1/" xmlns:cc="http://creativecommons.org/ns#" xmlns:rdf="http://www.w3.org/1999/02/22-rdf-syntax-ns#">
   <cc:Work>
    <dc:type rdf:resource="http://purl.org/dc/dcmitype/StillImage"/>
    <dc:date>2024-09-02T16:21:36.364360</dc:date>
    <dc:format>image/svg+xml</dc:format>
    <dc:creator>
     <cc:Agent>
      <dc:title>Matplotlib v3.8.2, https://matplotlib.org/</dc:title>
     </cc:Agent>
    </dc:creator>
   </cc:Work>
  </rdf:RDF>
 </metadata>
 <defs>
  <style type="text/css">*{stroke-linejoin: round; stroke-linecap: butt}</style>
 </defs>
 <g id="figure_1">
  <g id="patch_1">
   <path d="M 0 576 
L 720 576 
L 720 0 
L 0 0 
z
" style="fill: #ffffff"/>
  </g>
  <g id="axes_1">
   <g id="patch_2">
    <path d="M 90 512.64 
L 648 512.64 
L 648 69.12 
L 90 69.12 
z
" style="fill: #ffffff"/>
   </g>
   <g id="PathCollection_1">
    <path d="M 115.363636 504.727449 
C 118.611698 504.727449 121.727164 503.43698 124.02389 501.140254 
C 126.320617 498.843528 127.611085 495.728061 127.611085 492.48 
C 127.611085 489.231939 126.320617 486.116472 124.02389 483.819746 
C 121.727164 481.52302 118.611698 480.232551 115.363636 480.232551 
C 112.115575 480.232551 109.000109 481.52302 106.703382 483.819746 
C 104.406656 486.116472 103.116188 489.231939 103.116188 492.48 
C 103.116188 495.728061 104.406656 498.843528 106.703382 501.140254 
C 109.000109 503.43698 112.115575 504.727449 115.363636 504.727449 
z
" clip-path="url(#pd6b48266bf)" style="fill: #0000ff; fill-opacity: 0.6; stroke: #ffffff; stroke-opacity: 0.6; stroke-width: 2"/>
    <path d="M 115.363636 502.48 
C 118.015667 502.48 120.559435 501.426337 122.434704 499.551068 
C 124.309973 497.675799 125.363636 495.132031 125.363636 492.48 
C 125.363636 489.827969 124.309973 487.284201 122.434704 485.408932 
C 120.559435 483.533663 118.015667 482.48 115.363636 482.48 
C 112.711605 482.48 110.167838 483.533663 108.292569 485.408932 
C 106.417299 487.284201 105.363636 489.827969 105.363636 492.48 
C 105.363636 495.132031 106.417299 497.675799 108.292569 499.551068 
C 110.167838 501.426337 112.711605 502.48 115.363636 502.48 
z
" clip-path="url(#pd6b48266bf)" style="fill: #008000; fill-opacity: 0.6; stroke: #ffffff; stroke-opacity: 0.6; stroke-width: 2"/>
    <path d="M 115.363636 499.551068 
C 117.238905 499.551068 119.037621 498.806016 120.363636 497.48 
C 121.689652 496.153985 122.434704 494.355269 122.434704 492.48 
C 122.434704 490.604731 121.689652 488.806016 120.363636 487.48 
C 119.037621 486.153985 117.238905 485.408932 115.363636 485.408932 
C 113.488367 485.408932 111.689652 486.153985 110.363636 487.48 
C 109.037621 488.806016 108.292569 490.604731 108.292569 492.48 
C 108.292569 494.355269 109.037621 496.153985 110.363636 497.48 
C 111.689652 498.806016 113.488367 499.551068 115.363636 499.551068 
z
" clip-path="url(#pd6b48266bf)" style="fill: #ff0000; fill-opacity: 0.6; stroke: #ffffff; stroke-opacity: 0.6; stroke-width: 2"/>
    <path d="M 115.363636 497.48 
C 116.689652 497.48 117.961536 496.953168 118.89917 496.015534 
C 119.836805 495.077899 120.363636 493.806016 120.363636 492.48 
C 120.363636 491.153985 119.836805 489.882101 118.89917 488.944466 
C 117.961536 488.006832 116.689652 487.48 115.363636 487.48 
C 114.037621 487.48 112.765737 488.006832 111.828102 488.944466 
C 110.890468 489.882101 110.363636 491.153985 110.363636 492.48 
C 110.363636 493.806016 110.890468 495.077899 111.828102 496.015534 
C 112.765737 496.953168 114.037621 497.48 115.363636 497.48 
z
" clip-path="url(#pd6b48266bf)" style="fill: #800080; fill-opacity: 0.6; stroke: #ffffff; stroke-opacity: 0.6; stroke-width: 2"/>
    <path d="M 115.363636 514.274495 
C 121.143604 514.274495 126.687617 511.978089 130.774671 507.891035 
C 134.861726 503.803981 137.158131 498.259968 137.158131 492.48 
C 137.158131 486.700032 134.861726 481.156019 130.774671 477.068965 
C 126.687617 472.981911 121.143604 470.685505 115.363636 470.685505 
C 109.583669 470.685505 104.039656 472.981911 99.952601 477.068965 
C 95.865547 481.156019 93.569142 486.700032 93.569142 492.48 
C 93.569142 498.259968 95.865547 503.803981 99.952601 507.891035 
C 104.039656 511.978089 109.583669 514.274495 115.363636 514.274495 
z
" clip-path="url(#pd6b48266bf)" style="fill: #00ffff; fill-opacity: 0.6; stroke: #ffffff; stroke-opacity: 0.6; stroke-width: 2"/>
    <path d="M 115.363636 369.26034 
C 118.328697 369.26034 121.172716 368.082309 123.269331 365.985694 
C 125.365945 363.88908 126.543976 361.045061 126.543976 358.08 
C 126.543976 355.114939 125.365945 352.27092 123.269331 350.174306 
C 121.172716 348.077691 118.328697 346.89966 115.363636 346.89966 
C 112.398576 346.89966 109.554557 348.077691 107.457942 350.174306 
C 105.361328 352.27092 104.183296 355.114939 104.183296 358.08 
C 104.183296 361.045061 105.361328 363.88908 107.457942 365.985694 
C 109.554557 368.082309 112.398576 369.26034 115.363636 369.26034 
z
" clip-path="url(#pd6b48266bf)" style="fill: #0000ff; fill-opacity: 0.6; stroke: #ffffff; stroke-opacity: 0.6; stroke-width: 2"/>
    <path d="M 115.363636 368.08 
C 118.015667 368.08 120.559435 367.026337 122.434704 365.151068 
C 124.309973 363.275799 125.363636 360.732031 125.363636 358.08 
C 125.363636 355.427969 124.309973 352.884201 122.434704 351.008932 
C 120.559435 349.133663 118.015667 348.08 115.363636 348.08 
C 112.711605 348.08 110.167838 349.133663 108.292569 351.008932 
C 106.417299 352.884201 105.363636 355.427969 105.363636 358.08 
C 105.363636 360.732031 106.417299 363.275799 108.292569 365.151068 
C 110.167838 367.026337 112.711605 368.08 115.363636 368.08 
z
" clip-path="url(#pd6b48266bf)" style="fill: #008000; fill-opacity: 0.6; stroke: #ffffff; stroke-opacity: 0.6; stroke-width: 2"/>
    <path d="M 115.363636 365.151068 
C 117.238905 365.151068 119.037621 364.406015 120.363636 363.08 
C 121.689652 361.753985 122.434704 359.955269 122.434704 358.08 
C 122.434704 356.204731 121.689652 354.406015 120.363636 353.08 
C 119.037621 351.753985 117.238905 351.008932 115.363636 351.008932 
C 113.488367 351.008932 111.689652 351.753985 110.363636 353.08 
C 109.037621 354.406015 108.292569 356.204731 108.292569 358.08 
C 108.292569 359.955269 109.037621 361.753985 110.363636 363.08 
C 111.689652 364.406015 113.488367 365.151068 115.363636 365.151068 
z
" clip-path="url(#pd6b48266bf)" style="fill: #ff0000; fill-opacity: 0.6; stroke: #ffffff; stroke-opacity: 0.6; stroke-width: 2"/>
    <path d="M 115.363636 365.151068 
C 117.238905 365.151068 119.037621 364.406015 120.363636 363.08 
C 121.689652 361.753985 122.434704 359.955269 122.434704 358.08 
C 122.434704 356.204731 121.689652 354.406015 120.363636 353.08 
C 119.037621 351.753985 117.238905 351.008932 115.363636 351.008932 
C 113.488367 351.008932 111.689652 351.753985 110.363636 353.08 
C 109.037621 354.406015 108.292569 356.204731 108.292569 358.08 
C 108.292569 359.955269 109.037621 361.753985 110.363636 363.08 
C 111.689652 364.406015 113.488367 365.151068 115.363636 365.151068 
z
" clip-path="url(#pd6b48266bf)" style="fill: #800080; fill-opacity: 0.6; stroke: #ffffff; stroke-opacity: 0.6; stroke-width: 2"/>
    <path d="M 115.363636 382.574897 
C 121.859759 382.574897 128.090692 379.993961 132.684144 375.400508 
C 137.277597 370.807056 139.858534 364.576123 139.858534 358.08 
C 139.858534 351.583877 137.277597 345.352944 132.684144 340.759492 
C 128.090692 336.166039 121.859759 333.585103 115.363636 333.585103 
C 108.867514 333.585103 102.636581 336.166039 98.043128 340.759492 
C 93.449676 345.352944 90.868739 351.583877 90.868739 358.08 
C 90.868739 364.576123 93.449676 370.807056 98.043128 375.400508 
C 102.636581 379.993961 108.867514 382.574897 115.363636 382.574897 
z
" clip-path="url(#pd6b48266bf)" style="fill: #00ffff; fill-opacity: 0.6; stroke: #ffffff; stroke-opacity: 0.6; stroke-width: 2"/>
    <path d="M 115.363636 236.908757 
C 118.871944 236.908757 122.237032 235.514891 124.71778 233.034143 
C 127.198528 230.553396 128.592393 227.188307 128.592393 223.68 
C 128.592393 220.171693 127.198528 216.806604 124.71778 214.325857 
C 122.237032 211.845109 118.871944 210.451243 115.363636 210.451243 
C 111.855329 210.451243 108.490241 211.845109 106.009493 214.325857 
C 103.528745 216.806604 102.13488 220.171693 102.13488 223.68 
C 102.13488 227.188307 103.528745 230.553396 106.009493 233.034143 
C 108.490241 235.514891 111.855329 236.908757 115.363636 236.908757 
z
" clip-path="url(#pd6b48266bf)" style="fill: #0000ff; fill-opacity: 0.6; stroke: #ffffff; stroke-opacity: 0.6; stroke-width: 2"/>
    <path d="M 115.363636 230.751068 
C 117.238905 230.751068 119.037621 230.006016 120.363636 228.68 
C 121.689652 227.353984 122.434704 225.555269 122.434704 223.68 
C 122.434704 221.804731 121.689652 220.006016 120.363636 218.68 
C 119.037621 217.353984 117.238905 216.608932 115.363636 216.608932 
C 113.488367 216.608932 111.689652 217.353984 110.363636 218.68 
C 109.037621 220.006016 108.292569 221.804731 108.292569 223.68 
C 108.292569 225.555269 109.037621 227.353984 110.363636 228.68 
C 111.689652 230.006016 113.488367 230.751068 115.363636 230.751068 
z
" clip-path="url(#pd6b48266bf)" style="fill: #008000; fill-opacity: 0.6; stroke: #ffffff; stroke-opacity: 0.6; stroke-width: 2"/>
    <path d="M 115.363636 228.68 
C 116.689652 228.68 117.961536 228.153168 118.89917 227.215534 
C 119.836805 226.277899 120.363636 225.006016 120.363636 223.68 
C 120.363636 222.353984 119.836805 221.082101 118.89917 220.144466 
C 117.961536 219.206832 116.689652 218.68 115.363636 218.68 
C 114.037621 218.68 112.765737 219.206832 111.828102 220.144466 
C 110.890468 221.082101 110.363636 222.353984 110.363636 223.68 
C 110.363636 225.006016 110.890468 226.277899 111.828102 227.215534 
C 112.765737 228.153168 114.037621 228.68 115.363636 228.68 
z
" clip-path="url(#pd6b48266bf)" style="fill: #ff0000; fill-opacity: 0.6; stroke: #ffffff; stroke-opacity: 0.6; stroke-width: 2"/>
    <path d="M 115.363636 230.751068 
C 117.238905 230.751068 119.037621 230.006016 120.363636 228.68 
C 121.689652 227.353984 122.434704 225.555269 122.434704 223.68 
C 122.434704 221.804731 121.689652 220.006016 120.363636 218.68 
C 119.037621 217.353984 117.238905 216.608932 115.363636 216.608932 
C 113.488367 216.608932 111.689652 217.353984 110.363636 218.68 
C 109.037621 220.006016 108.292569 221.804731 108.292569 223.68 
C 108.292569 225.555269 109.037621 227.353984 110.363636 228.68 
C 111.689652 230.006016 113.488367 230.751068 115.363636 230.751068 
z
" clip-path="url(#pd6b48266bf)" style="fill: #800080; fill-opacity: 0.6; stroke: #ffffff; stroke-opacity: 0.6; stroke-width: 2"/>
    <path d="M 115.363636 241.000508 
C 119.957089 241.000508 124.363024 239.17551 127.611085 235.927449 
C 130.859146 232.679387 132.684144 228.273452 132.684144 223.68 
C 132.684144 219.086548 130.859146 214.680613 127.611085 211.432551 
C 124.363024 208.18449 119.957089 206.359492 115.363636 206.359492 
C 110.770184 206.359492 106.364249 208.18449 103.116188 211.432551 
C 99.868126 214.680613 98.043128 219.086548 98.043128 223.68 
C 98.043128 228.273452 99.868126 232.679387 103.116188 235.927449 
C 106.364249 239.17551 110.770184 241.000508 115.363636 241.000508 
z
" clip-path="url(#pd6b48266bf)" style="fill: #00ffff; fill-opacity: 0.6; stroke: #ffffff; stroke-opacity: 0.6; stroke-width: 2"/>
    <path d="M 115.363636 96.351068 
C 117.238905 96.351068 119.037621 95.606015 120.363636 94.28 
C 121.689652 92.953984 122.434704 91.155269 122.434704 89.28 
C 122.434704 87.404731 121.689652 85.606015 120.363636 84.28 
C 119.037621 82.953984 117.238905 82.208932 115.363636 82.208932 
C 113.488367 82.208932 111.689652 82.953984 110.363636 84.28 
C 109.037621 85.606015 108.292569 87.404731 108.292569 89.28 
C 108.292569 91.155269 109.037621 92.953984 110.363636 94.28 
C 111.689652 95.606015 113.488367 96.351068 115.363636 96.351068 
z
" clip-path="url(#pd6b48266bf)" style="fill: #0000ff; fill-opacity: 0.6; stroke: #ffffff; stroke-opacity: 0.6; stroke-width: 2"/>
    <path d="M 115.363636 96.351068 
C 117.238905 96.351068 119.037621 95.606015 120.363636 94.28 
C 121.689652 92.953984 122.434704 91.155269 122.434704 89.28 
C 122.434704 87.404731 121.689652 85.606015 120.363636 84.28 
C 119.037621 82.953984 117.238905 82.208932 115.363636 82.208932 
C 113.488367 82.208932 111.689652 82.953984 110.363636 84.28 
C 109.037621 85.606015 108.292569 87.404731 108.292569 89.28 
C 108.292569 91.155269 109.037621 92.953984 110.363636 94.28 
C 111.689652 95.606015 113.488367 96.351068 115.363636 96.351068 
z
" clip-path="url(#pd6b48266bf)" style="fill: #008000; fill-opacity: 0.6; stroke: #ffffff; stroke-opacity: 0.6; stroke-width: 2"/>
    <path d="M 115.363636 96.351068 
C 117.238905 96.351068 119.037621 95.606015 120.363636 94.28 
C 121.689652 92.953984 122.434704 91.155269 122.434704 89.28 
C 122.434704 87.404731 121.689652 85.606015 120.363636 84.28 
C 119.037621 82.953984 117.238905 82.208932 115.363636 82.208932 
C 113.488367 82.208932 111.689652 82.953984 110.363636 84.28 
C 109.037621 85.606015 108.292569 87.404731 108.292569 89.28 
C 108.292569 91.155269 109.037621 92.953984 110.363636 94.28 
C 111.689652 95.606015 113.488367 96.351068 115.363636 96.351068 
z
" clip-path="url(#pd6b48266bf)" style="fill: #ff0000; fill-opacity: 0.6; stroke: #ffffff; stroke-opacity: 0.6; stroke-width: 2"/>
    <path d="M 115.363636 96.351068 
C 117.238905 96.351068 119.037621 95.606015 120.363636 94.28 
C 121.689652 92.953984 122.434704 91.155269 122.434704 89.28 
C 122.434704 87.404731 121.689652 85.606015 120.363636 84.28 
C 119.037621 82.953984 117.238905 82.208932 115.363636 82.208932 
C 113.488367 82.208932 111.689652 82.953984 110.363636 84.28 
C 109.037621 85.606015 108.292569 87.404731 108.292569 89.28 
C 108.292569 91.155269 109.037621 92.953984 110.363636 94.28 
C 111.689652 95.606015 113.488367 96.351068 115.363636 96.351068 
z
" clip-path="url(#pd6b48266bf)" style="fill: #800080; fill-opacity: 0.6; stroke: #ffffff; stroke-opacity: 0.6; stroke-width: 2"/>
    <path d="M 115.363636 104.28 
C 119.341683 104.28 123.157334 102.699505 125.970238 99.886602 
C 128.783142 97.073698 130.363636 93.258046 130.363636 89.28 
C 130.363636 85.301953 128.783142 81.486302 125.970238 78.673398 
C 123.157334 75.860495 119.341683 74.28 115.363636 74.28 
C 111.38559 74.28 107.569938 75.860495 104.757035 78.673398 
C 101.944131 81.486302 100.363636 85.301953 100.363636 89.28 
C 100.363636 93.258046 101.944131 97.073698 104.757035 99.886602 
C 107.569938 102.699505 111.38559 104.28 115.363636 104.28 
z
" clip-path="url(#pd6b48266bf)" style="fill: #00ffff; fill-opacity: 0.6; stroke: #ffffff; stroke-opacity: 0.6; stroke-width: 2"/>
    <path d="M 199.909091 505.708757 
C 203.417398 505.708757 206.782487 504.314891 209.263234 501.834143 
C 211.743982 499.353396 213.137847 495.988307 213.137847 492.48 
C 213.137847 488.971693 211.743982 485.606604 209.263234 483.125857 
C 206.782487 480.645109 203.417398 479.251243 199.909091 479.251243 
C 196.400784 479.251243 193.035695 480.645109 190.554947 483.125857 
C 188.0742 485.606604 186.680334 488.971693 186.680334 492.48 
C 186.680334 495.988307 188.0742 499.353396 190.554947 501.834143 
C 193.035695 504.314891 196.400784 505.708757 199.909091 505.708757 
z
" clip-path="url(#pd6b48266bf)" style="fill: #0000ff; fill-opacity: 0.6; stroke: #ffffff; stroke-opacity: 0.6; stroke-width: 2"/>
    <path d="M 199.909091 511.844917 
C 205.044727 511.844917 209.970712 509.804507 213.602155 506.173064 
C 217.233598 502.541621 219.274008 497.615636 219.274008 492.48 
C 219.274008 487.344364 217.233598 482.418379 213.602155 478.786936 
C 209.970712 475.155493 205.044727 473.115083 199.909091 473.115083 
C 194.773455 473.115083 189.84747 475.155493 186.216027 478.786936 
C 182.584584 482.418379 180.544174 487.344364 180.544174 492.48 
C 180.544174 497.615636 182.584584 502.541621 186.216027 506.173064 
C 189.84747 509.804507 194.773455 511.844917 199.909091 511.844917 
z
" clip-path="url(#pd6b48266bf)" style="fill: #008000; fill-opacity: 0.6; stroke: #ffffff; stroke-opacity: 0.6; stroke-width: 2"/>
    <path d="M 199.909091 503.66034 
C 202.874152 503.66034 205.71817 502.482309 207.814785 500.385694 
C 209.9114 498.28908 211.089431 495.445061 211.089431 492.48 
C 211.089431 489.514939 209.9114 486.67092 207.814785 484.574306 
C 205.71817 482.477691 202.874152 481.29966 199.909091 481.29966 
C 196.94403 481.29966 194.100011 482.477691 192.003397 484.574306 
C 189.906782 486.67092 188.728751 489.514939 188.728751 492.48 
C 188.728751 495.445061 189.906782 498.28908 192.003397 500.385694 
C 194.100011 502.482309 196.94403 503.66034 199.909091 503.66034 
z
" clip-path="url(#pd6b48266bf)" style="fill: #00ffff; fill-opacity: 0.6; stroke: #ffffff; stroke-opacity: 0.6; stroke-width: 2"/>
    <path d="M 199.909091 369.26034 
C 202.874152 369.26034 205.71817 368.082309 207.814785 365.985694 
C 209.9114 363.88908 211.089431 361.045061 211.089431 358.08 
C 211.089431 355.114939 209.9114 352.27092 207.814785 350.174306 
C 205.71817 348.077691 202.874152 346.89966 199.909091 346.89966 
C 196.94403 346.89966 194.100011 348.077691 192.003397 350.174306 
C 189.906782 352.27092 188.728751 355.114939 188.728751 358.08 
C 188.728751 361.045061 189.906782 363.88908 192.003397 365.985694 
C 194.100011 368.082309 196.94403 369.26034 199.909091 369.26034 
z
" clip-path="url(#pd6b48266bf)" style="fill: #0000ff; fill-opacity: 0.6; stroke: #ffffff; stroke-opacity: 0.6; stroke-width: 2"/>
    <path d="M 199.909091 371.308757 
C 203.417398 371.308757 206.782487 369.914891 209.263234 367.434143 
C 211.743982 364.953396 213.137847 361.588307 213.137847 358.08 
C 213.137847 354.571693 211.743982 351.206604 209.263234 348.725857 
C 206.782487 346.245109 203.417398 344.851243 199.909091 344.851243 
C 196.400784 344.851243 193.035695 346.245109 190.554947 348.725857 
C 188.0742 351.206604 186.680334 354.571693 186.680334 358.08 
C 186.680334 361.588307 188.0742 364.953396 190.554947 367.434143 
C 193.035695 369.914891 196.400784 371.308757 199.909091 371.308757 
z
" clip-path="url(#pd6b48266bf)" style="fill: #008000; fill-opacity: 0.6; stroke: #ffffff; stroke-opacity: 0.6; stroke-width: 2"/>
    <path d="M 199.909091 372.222136 
C 203.659629 372.222136 207.25706 370.732031 209.909091 368.08 
C 212.561122 365.427969 214.051227 361.830538 214.051227 358.08 
C 214.051227 354.329462 212.561122 350.732031 209.909091 348.08 
C 207.25706 345.427969 203.659629 343.937864 199.909091 343.937864 
C 196.158553 343.937864 192.561122 345.427969 189.909091 348.08 
C 187.25706 350.732031 185.766955 354.329462 185.766955 358.08 
C 185.766955 361.830538 187.25706 365.427969 189.909091 368.08 
C 192.561122 370.732031 196.158553 372.222136 199.909091 372.222136 
z
" clip-path="url(#pd6b48266bf)" style="fill: #00ffff; fill-opacity: 0.6; stroke: #ffffff; stroke-opacity: 0.6; stroke-width: 2"/>
    <path d="M 199.909091 235.927449 
C 203.157152 235.927449 206.272619 234.63698 208.569345 232.340254 
C 210.866071 230.043528 212.15654 226.928061 212.15654 223.68 
C 212.15654 220.431939 210.866071 217.316472 208.569345 215.019746 
C 206.272619 212.72302 203.157152 211.432551 199.909091 211.432551 
C 196.66103 211.432551 193.545563 212.72302 191.248837 215.019746 
C 188.952111 217.316472 187.661642 220.431939 187.661642 223.68 
C 187.661642 226.928061 188.952111 230.043528 191.248837 232.340254 
C 193.545563 234.63698 196.66103 235.927449 199.909091 235.927449 
z
" clip-path="url(#pd6b48266bf)" style="fill: #0000ff; fill-opacity: 0.6; stroke: #ffffff; stroke-opacity: 0.6; stroke-width: 2"/>
    <path d="M 199.909091 234.86034 
C 202.874152 234.86034 205.71817 233.682309 207.814785 231.585694 
C 209.9114 229.48908 211.089431 226.645061 211.089431 223.68 
C 211.089431 220.714939 209.9114 217.87092 207.814785 215.774306 
C 205.71817 213.677691 202.874152 212.49966 199.909091 212.49966 
C 196.94403 212.49966 194.100011 213.677691 192.003397 215.774306 
C 189.906782 217.87092 188.728751 220.714939 188.728751 223.68 
C 188.728751 226.645061 189.906782 229.48908 192.003397 231.585694 
C 194.100011 233.682309 196.94403 234.86034 199.909091 234.86034 
z
" clip-path="url(#pd6b48266bf)" style="fill: #008000; fill-opacity: 0.6; stroke: #ffffff; stroke-opacity: 0.6; stroke-width: 2"/>
    <path d="M 199.909091 233.68 
C 202.561122 233.68 205.10489 232.626337 206.980159 230.751068 
C 208.855428 228.875799 209.909091 226.332031 209.909091 223.68 
C 209.909091 221.027969 208.855428 218.484201 206.980159 216.608932 
C 205.10489 214.733663 202.561122 213.68 199.909091 213.68 
C 197.25706 213.68 194.713292 214.733663 192.838023 216.608932 
C 190.962754 218.484201 189.909091 221.027969 189.909091 223.68 
C 189.909091 226.332031 190.962754 228.875799 192.838023 230.751068 
C 194.713292 232.626337 197.25706 233.68 199.909091 233.68 
z
" clip-path="url(#pd6b48266bf)" style="fill: #00ffff; fill-opacity: 0.6; stroke: #ffffff; stroke-opacity: 0.6; stroke-width: 2"/>
    <path d="M 199.909091 96.351068 
C 201.78436 96.351068 203.583075 95.606015 204.909091 94.28 
C 206.235106 92.953984 206.980159 91.155269 206.980159 89.28 
C 206.980159 87.404731 206.235106 85.606015 204.909091 84.28 
C 203.583075 82.953984 201.78436 82.208932 199.909091 82.208932 
C 198.033822 82.208932 196.235106 82.953984 194.909091 84.28 
C 193.583075 85.606015 192.838023 87.404731 192.838023 89.28 
C 192.838023 91.155269 193.583075 92.953984 194.909091 94.28 
C 196.235106 95.606015 198.033822 96.351068 199.909091 96.351068 
z
" clip-path="url(#pd6b48266bf)" style="fill: #0000ff; fill-opacity: 0.6; stroke: #ffffff; stroke-opacity: 0.6; stroke-width: 2"/>
    <path d="M 199.909091 96.351068 
C 201.78436 96.351068 203.583075 95.606015 204.909091 94.28 
C 206.235106 92.953984 206.980159 91.155269 206.980159 89.28 
C 206.980159 87.404731 206.235106 85.606015 204.909091 84.28 
C 203.583075 82.953984 201.78436 82.208932 199.909091 82.208932 
C 198.033822 82.208932 196.235106 82.953984 194.909091 84.28 
C 193.583075 85.606015 192.838023 87.404731 192.838023 89.28 
C 192.838023 91.155269 193.583075 92.953984 194.909091 94.28 
C 196.235106 95.606015 198.033822 96.351068 199.909091 96.351068 
z
" clip-path="url(#pd6b48266bf)" style="fill: #008000; fill-opacity: 0.6; stroke: #ffffff; stroke-opacity: 0.6; stroke-width: 2"/>
    <path d="M 199.909091 97.940254 
C 202.205817 97.940254 204.408785 97.027755 206.032815 95.403724 
C 207.656846 93.779694 208.569345 91.576726 208.569345 89.28 
C 208.569345 86.983274 207.656846 84.780306 206.032815 83.156276 
C 204.408785 81.532245 202.205817 80.619746 199.909091 80.619746 
C 197.612365 80.619746 195.409397 81.532245 193.785367 83.156276 
C 192.161336 84.780306 191.248837 86.983274 191.248837 89.28 
C 191.248837 91.576726 192.161336 93.779694 193.785367 95.403724 
C 195.409397 97.027755 197.612365 97.940254 199.909091 97.940254 
z
" clip-path="url(#pd6b48266bf)" style="fill: #00ffff; fill-opacity: 0.6; stroke: #ffffff; stroke-opacity: 0.6; stroke-width: 2"/>
    <path d="M 284.454545 497.48 
C 285.780561 497.48 287.052445 496.953168 287.990079 496.015534 
C 288.927714 495.077899 289.454545 493.806016 289.454545 492.48 
C 289.454545 491.153985 288.927714 489.882101 287.990079 488.944466 
C 287.052445 488.006832 285.780561 487.48 284.454545 487.48 
C 283.12853 487.48 281.856646 488.006832 280.919012 488.944466 
C 279.981377 489.882101 279.454545 491.153985 279.454545 492.48 
C 279.454545 493.806016 279.981377 495.077899 280.919012 496.015534 
C 281.856646 496.953168 283.12853 497.48 284.454545 497.48 
z
" clip-path="url(#pd6b48266bf)" style="fill: #0000ff; fill-opacity: 0.6; stroke: #ffffff; stroke-opacity: 0.6; stroke-width: 2"/>
    <path d="M 284.454545 509.800508 
C 289.047998 509.800508 293.453933 507.97551 296.701994 504.727449 
C 299.950056 501.479387 301.775054 497.073452 301.775054 492.48 
C 301.775054 487.886548 299.950056 483.480613 296.701994 480.232551 
C 293.453933 476.98449 289.047998 475.159492 284.454545 475.159492 
C 279.861093 475.159492 275.455158 476.98449 272.207097 480.232551 
C 268.959035 483.480613 267.134037 487.886548 267.134037 492.48 
C 267.134037 497.073452 268.959035 501.479387 272.207097 504.727449 
C 275.455158 507.97551 279.861093 509.800508 284.454545 509.800508 
z
" clip-path="url(#pd6b48266bf)" style="fill: #008000; fill-opacity: 0.6; stroke: #ffffff; stroke-opacity: 0.6; stroke-width: 2"/>
    <path d="M 284.454545 497.48 
C 285.780561 497.48 287.052445 496.953168 287.990079 496.015534 
C 288.927714 495.077899 289.454545 493.806016 289.454545 492.48 
C 289.454545 491.153985 288.927714 489.882101 287.990079 488.944466 
C 287.052445 488.006832 285.780561 487.48 284.454545 487.48 
C 283.12853 487.48 281.856646 488.006832 280.919012 488.944466 
C 279.981377 489.882101 279.454545 491.153985 279.454545 492.48 
C 279.454545 493.806016 279.981377 495.077899 280.919012 496.015534 
C 281.856646 496.953168 283.12853 497.48 284.454545 497.48 
z
" clip-path="url(#pd6b48266bf)" style="fill: #00ffff; fill-opacity: 0.6; stroke: #ffffff; stroke-opacity: 0.6; stroke-width: 2"/>
    <path d="M 284.454545 371.308757 
C 287.962853 371.308757 291.327941 369.914891 293.808689 367.434143 
C 296.289437 364.953396 297.683302 361.588307 297.683302 358.08 
C 297.683302 354.571693 296.289437 351.206604 293.808689 348.725857 
C 291.327941 346.245109 287.962853 344.851243 284.454545 344.851243 
C 280.946238 344.851243 277.58115 346.245109 275.100402 348.725857 
C 272.619654 351.206604 271.225789 354.571693 271.225789 358.08 
C 271.225789 361.588307 272.619654 364.953396 275.100402 367.434143 
C 277.58115 369.914891 280.946238 371.308757 284.454545 371.308757 
z
" clip-path="url(#pd6b48266bf)" style="fill: #008000; fill-opacity: 0.6; stroke: #ffffff; stroke-opacity: 0.6; stroke-width: 2"/>
    <path d="M 284.454545 365.151068 
C 286.329815 365.151068 288.12853 364.406015 289.454545 363.08 
C 290.780561 361.753985 291.525613 359.955269 291.525613 358.08 
C 291.525613 356.204731 290.780561 354.406015 289.454545 353.08 
C 288.12853 351.753985 286.329815 351.008932 284.454545 351.008932 
C 282.579276 351.008932 280.780561 351.753985 279.454545 353.08 
C 278.12853 354.406015 277.383478 356.204731 277.383478 358.08 
C 277.383478 359.955269 278.12853 361.753985 279.454545 363.08 
C 280.780561 364.406015 282.579276 365.151068 284.454545 365.151068 
z
" clip-path="url(#pd6b48266bf)" style="fill: #00ffff; fill-opacity: 0.6; stroke: #ffffff; stroke-opacity: 0.6; stroke-width: 2"/>
    <path d="M 284.454545 228.68 
C 285.780561 228.68 287.052445 228.153168 287.990079 227.215534 
C 288.927714 226.277899 289.454545 225.006016 289.454545 223.68 
C 289.454545 222.353984 288.927714 221.082101 287.990079 220.144466 
C 287.052445 219.206832 285.780561 218.68 284.454545 218.68 
C 283.12853 218.68 281.856646 219.206832 280.919012 220.144466 
C 279.981377 221.082101 279.454545 222.353984 279.454545 223.68 
C 279.454545 225.006016 279.981377 226.277899 280.919012 227.215534 
C 281.856646 228.153168 283.12853 228.68 284.454545 228.68 
z
" clip-path="url(#pd6b48266bf)" style="fill: #0000ff; fill-opacity: 0.6; stroke: #ffffff; stroke-opacity: 0.6; stroke-width: 2"/>
    <path d="M 284.454545 236.908757 
C 287.962853 236.908757 291.327941 235.514891 293.808689 233.034143 
C 296.289437 230.553396 297.683302 227.188307 297.683302 223.68 
C 297.683302 220.171693 296.289437 216.806604 293.808689 214.325857 
C 291.327941 211.845109 287.962853 210.451243 284.454545 210.451243 
C 280.946238 210.451243 277.58115 211.845109 275.100402 214.325857 
C 272.619654 216.806604 271.225789 220.171693 271.225789 223.68 
C 271.225789 227.188307 272.619654 230.553396 275.100402 233.034143 
C 277.58115 235.514891 280.946238 236.908757 284.454545 236.908757 
z
" clip-path="url(#pd6b48266bf)" style="fill: #008000; fill-opacity: 0.6; stroke: #ffffff; stroke-opacity: 0.6; stroke-width: 2"/>
    <path d="M 284.454545 228.68 
C 285.780561 228.68 287.052445 228.153168 287.990079 227.215534 
C 288.927714 226.277899 289.454545 225.006016 289.454545 223.68 
C 289.454545 222.353984 288.927714 221.082101 287.990079 220.144466 
C 287.052445 219.206832 285.780561 218.68 284.454545 218.68 
C 283.12853 218.68 281.856646 219.206832 280.919012 220.144466 
C 279.981377 221.082101 279.454545 222.353984 279.454545 223.68 
C 279.454545 225.006016 279.981377 226.277899 280.919012 227.215534 
C 281.856646 228.153168 283.12853 228.68 284.454545 228.68 
z
" clip-path="url(#pd6b48266bf)" style="fill: #800080; fill-opacity: 0.6; stroke: #ffffff; stroke-opacity: 0.6; stroke-width: 2"/>
    <path d="M 284.454545 97.940254 
C 286.751272 97.940254 288.954239 97.027755 290.57827 95.403724 
C 292.2023 93.779694 293.114799 91.576726 293.114799 89.28 
C 293.114799 86.983274 292.2023 84.780306 290.57827 83.156276 
C 288.954239 81.532245 286.751272 80.619746 284.454545 80.619746 
C 282.157819 80.619746 279.954852 81.532245 278.330821 83.156276 
C 276.70679 84.780306 275.794291 86.983274 275.794291 89.28 
C 275.794291 91.576726 276.70679 93.779694 278.330821 95.403724 
C 279.954852 97.027755 282.157819 97.940254 284.454545 97.940254 
z
" clip-path="url(#pd6b48266bf)" style="fill: #008000; fill-opacity: 0.6; stroke: #ffffff; stroke-opacity: 0.6; stroke-width: 2"/>
    <path d="M 284.454545 94.28 
C 285.780561 94.28 287.052445 93.753168 287.990079 92.815534 
C 288.927714 91.877899 289.454545 90.606015 289.454545 89.28 
C 289.454545 87.953984 288.927714 86.682101 287.990079 85.744466 
C 287.052445 84.806832 285.780561 84.28 284.454545 84.28 
C 283.12853 84.28 281.856646 84.806832 280.919012 85.744466 
C 279.981377 86.682101 279.454545 87.953984 279.454545 89.28 
C 279.454545 90.606015 279.981377 91.877899 280.919012 92.815534 
C 281.856646 93.753168 283.12853 94.28 284.454545 94.28 
z
" clip-path="url(#pd6b48266bf)" style="fill: #00ffff; fill-opacity: 0.6; stroke: #ffffff; stroke-opacity: 0.6; stroke-width: 2"/>
    <path d="M 369 503.66034 
C 371.965061 503.66034 374.80908 502.482309 376.905694 500.385694 
C 379.002309 498.28908 380.18034 495.445061 380.18034 492.48 
C 380.18034 489.514939 379.002309 486.67092 376.905694 484.574306 
C 374.80908 482.477691 371.965061 481.29966 369 481.29966 
C 366.034939 481.29966 363.19092 482.477691 361.094306 484.574306 
C 358.997691 486.67092 357.81966 489.514939 357.81966 492.48 
C 357.81966 495.445061 358.997691 498.28908 361.094306 500.385694 
C 363.19092 502.482309 366.034939 503.66034 369 503.66034 
z
" clip-path="url(#pd6b48266bf)" style="fill: #0000ff; fill-opacity: 0.6; stroke: #ffffff; stroke-opacity: 0.6; stroke-width: 2"/>
    <path d="M 369 504.727449 
C 372.248061 504.727449 375.363528 503.43698 377.660254 501.140254 
C 379.95698 498.843528 381.247449 495.728061 381.247449 492.48 
C 381.247449 489.231939 379.95698 486.116472 377.660254 483.819746 
C 375.363528 481.52302 372.248061 480.232551 369 480.232551 
C 365.751939 480.232551 362.636472 481.52302 360.339746 483.819746 
C 358.04302 486.116472 356.752551 489.231939 356.752551 492.48 
C 356.752551 495.728061 358.04302 498.843528 360.339746 501.140254 
C 362.636472 503.43698 365.751939 504.727449 369 504.727449 
z
" clip-path="url(#pd6b48266bf)" style="fill: #008000; fill-opacity: 0.6; stroke: #ffffff; stroke-opacity: 0.6; stroke-width: 2"/>
    <path d="M 369 497.48 
C 370.326015 497.48 371.597899 496.953168 372.535534 496.015534 
C 373.473168 495.077899 374 493.806016 374 492.48 
C 374 491.153985 373.473168 489.882101 372.535534 488.944466 
C 371.597899 488.006832 370.326015 487.48 369 487.48 
C 367.673985 487.48 366.402101 488.006832 365.464466 488.944466 
C 364.526832 489.882101 364 491.153985 364 492.48 
C 364 493.806016 364.526832 495.077899 365.464466 496.015534 
C 366.402101 496.953168 367.673985 497.48 369 497.48 
z
" clip-path="url(#pd6b48266bf)" style="fill: #00ffff; fill-opacity: 0.6; stroke: #ffffff; stroke-opacity: 0.6; stroke-width: 2"/>
    <path d="M 369 366.740254 
C 371.296726 366.740254 373.499694 365.827755 375.123724 364.203724 
C 376.747755 362.579694 377.660254 360.376726 377.660254 358.08 
C 377.660254 355.783274 376.747755 353.580306 375.123724 351.956276 
C 373.499694 350.332245 371.296726 349.419746 369 349.419746 
C 366.703274 349.419746 364.500306 350.332245 362.876276 351.956276 
C 361.252245 353.580306 360.339746 355.783274 360.339746 358.08 
C 360.339746 360.376726 361.252245 362.579694 362.876276 364.203724 
C 364.500306 365.827755 366.703274 366.740254 369 366.740254 
z
" clip-path="url(#pd6b48266bf)" style="fill: #0000ff; fill-opacity: 0.6; stroke: #ffffff; stroke-opacity: 0.6; stroke-width: 2"/>
    <path d="M 369 365.151068 
C 370.875269 365.151068 372.673985 364.406015 374 363.08 
C 375.326015 361.753985 376.071068 359.955269 376.071068 358.08 
C 376.071068 356.204731 375.326015 354.406015 374 353.08 
C 372.673985 351.753985 370.875269 351.008932 369 351.008932 
C 367.124731 351.008932 365.326015 351.753985 364 353.08 
C 362.673985 354.406015 361.928932 356.204731 361.928932 358.08 
C 361.928932 359.955269 362.673985 361.753985 364 363.08 
C 365.326015 364.406015 367.124731 365.151068 369 365.151068 
z
" clip-path="url(#pd6b48266bf)" style="fill: #008000; fill-opacity: 0.6; stroke: #ffffff; stroke-opacity: 0.6; stroke-width: 2"/>
    <path d="M 369 366.740254 
C 371.296726 366.740254 373.499694 365.827755 375.123724 364.203724 
C 376.747755 362.579694 377.660254 360.376726 377.660254 358.08 
C 377.660254 355.783274 376.747755 353.580306 375.123724 351.956276 
C 373.499694 350.332245 371.296726 349.419746 369 349.419746 
C 366.703274 349.419746 364.500306 350.332245 362.876276 351.956276 
C 361.252245 353.580306 360.339746 355.783274 360.339746 358.08 
C 360.339746 360.376726 361.252245 362.579694 362.876276 364.203724 
C 364.500306 365.827755 366.703274 366.740254 369 366.740254 
z
" clip-path="url(#pd6b48266bf)" style="fill: #00ffff; fill-opacity: 0.6; stroke: #ffffff; stroke-opacity: 0.6; stroke-width: 2"/>
    <path d="M 369 233.68 
C 371.652031 233.68 374.195799 232.626337 376.071068 230.751068 
C 377.946337 228.875799 379 226.332031 379 223.68 
C 379 221.027969 377.946337 218.484201 376.071068 216.608932 
C 374.195799 214.733663 371.652031 213.68 369 213.68 
C 366.347969 213.68 363.804201 214.733663 361.928932 216.608932 
C 360.053663 218.484201 359 221.027969 359 223.68 
C 359 226.332031 360.053663 228.875799 361.928932 230.751068 
C 363.804201 232.626337 366.347969 233.68 369 233.68 
z
" clip-path="url(#pd6b48266bf)" style="fill: #0000ff; fill-opacity: 0.6; stroke: #ffffff; stroke-opacity: 0.6; stroke-width: 2"/>
    <path d="M 369 232.340254 
C 371.296726 232.340254 373.499694 231.427755 375.123724 229.803724 
C 376.747755 228.179694 377.660254 225.976726 377.660254 223.68 
C 377.660254 221.383274 376.747755 219.180306 375.123724 217.556276 
C 373.499694 215.932245 371.296726 215.019746 369 215.019746 
C 366.703274 215.019746 364.500306 215.932245 362.876276 217.556276 
C 361.252245 219.180306 360.339746 221.383274 360.339746 223.68 
C 360.339746 225.976726 361.252245 228.179694 362.876276 229.803724 
C 364.500306 231.427755 366.703274 232.340254 369 232.340254 
z
" clip-path="url(#pd6b48266bf)" style="fill: #008000; fill-opacity: 0.6; stroke: #ffffff; stroke-opacity: 0.6; stroke-width: 2"/>
    <path d="M 369 228.68 
C 370.326015 228.68 371.597899 228.153168 372.535534 227.215534 
C 373.473168 226.277899 374 225.006016 374 223.68 
C 374 222.353984 373.473168 221.082101 372.535534 220.144466 
C 371.597899 219.206832 370.326015 218.68 369 218.68 
C 367.673985 218.68 366.402101 219.206832 365.464466 220.144466 
C 364.526832 221.082101 364 222.353984 364 223.68 
C 364 225.006016 364.526832 226.277899 365.464466 227.215534 
C 366.402101 228.153168 367.673985 228.68 369 228.68 
z
" clip-path="url(#pd6b48266bf)" style="fill: #ff0000; fill-opacity: 0.6; stroke: #ffffff; stroke-opacity: 0.6; stroke-width: 2"/>
    <path d="M 369 232.340254 
C 371.296726 232.340254 373.499694 231.427755 375.123724 229.803724 
C 376.747755 228.179694 377.660254 225.976726 377.660254 223.68 
C 377.660254 221.383274 376.747755 219.180306 375.123724 217.556276 
C 373.499694 215.932245 371.296726 215.019746 369 215.019746 
C 366.703274 215.019746 364.500306 215.932245 362.876276 217.556276 
C 361.252245 219.180306 360.339746 221.383274 360.339746 223.68 
C 360.339746 225.976726 361.252245 228.179694 362.876276 229.803724 
C 364.500306 231.427755 366.703274 232.340254 369 232.340254 
z
" clip-path="url(#pd6b48266bf)" style="fill: #00ffff; fill-opacity: 0.6; stroke: #ffffff; stroke-opacity: 0.6; stroke-width: 2"/>
    <path d="M 369 96.351068 
C 370.875269 96.351068 372.673985 95.606015 374 94.28 
C 375.326015 92.953984 376.071068 91.155269 376.071068 89.28 
C 376.071068 87.404731 375.326015 85.606015 374 84.28 
C 372.673985 82.953984 370.875269 82.208932 369 82.208932 
C 367.124731 82.208932 365.326015 82.953984 364 84.28 
C 362.673985 85.606015 361.928932 87.404731 361.928932 89.28 
C 361.928932 91.155269 362.673985 92.953984 364 94.28 
C 365.326015 95.606015 367.124731 96.351068 369 96.351068 
z
" clip-path="url(#pd6b48266bf)" style="fill: #0000ff; fill-opacity: 0.6; stroke: #ffffff; stroke-opacity: 0.6; stroke-width: 2"/>
    <path d="M 369 96.351068 
C 370.875269 96.351068 372.673985 95.606015 374 94.28 
C 375.326015 92.953984 376.071068 91.155269 376.071068 89.28 
C 376.071068 87.404731 375.326015 85.606015 374 84.28 
C 372.673985 82.953984 370.875269 82.208932 369 82.208932 
C 367.124731 82.208932 365.326015 82.953984 364 84.28 
C 362.673985 85.606015 361.928932 87.404731 361.928932 89.28 
C 361.928932 91.155269 362.673985 92.953984 364 94.28 
C 365.326015 95.606015 367.124731 96.351068 369 96.351068 
z
" clip-path="url(#pd6b48266bf)" style="fill: #00ffff; fill-opacity: 0.6; stroke: #ffffff; stroke-opacity: 0.6; stroke-width: 2"/>
    <path d="M 453.545455 499.551068 
C 455.420724 499.551068 457.219439 498.806016 458.545455 497.48 
C 459.87147 496.153985 460.616522 494.355269 460.616522 492.48 
C 460.616522 490.604731 459.87147 488.806016 458.545455 487.48 
C 457.219439 486.153985 455.420724 485.408932 453.545455 485.408932 
C 451.670185 485.408932 449.87147 486.153985 448.545455 487.48 
C 447.219439 488.806016 446.474387 490.604731 446.474387 492.48 
C 446.474387 494.355269 447.219439 496.153985 448.545455 497.48 
C 449.87147 498.806016 451.670185 499.551068 453.545455 499.551068 
z
" clip-path="url(#pd6b48266bf)" style="fill: #0000ff; fill-opacity: 0.6; stroke: #ffffff; stroke-opacity: 0.6; stroke-width: 2"/>
    <path d="M 453.545455 499.551068 
C 455.420724 499.551068 457.219439 498.806016 458.545455 497.48 
C 459.87147 496.153985 460.616522 494.355269 460.616522 492.48 
C 460.616522 490.604731 459.87147 488.806016 458.545455 487.48 
C 457.219439 486.153985 455.420724 485.408932 453.545455 485.408932 
C 451.670185 485.408932 449.87147 486.153985 448.545455 487.48 
C 447.219439 488.806016 446.474387 490.604731 446.474387 492.48 
C 446.474387 494.355269 447.219439 496.153985 448.545455 497.48 
C 449.87147 498.806016 451.670185 499.551068 453.545455 499.551068 
z
" clip-path="url(#pd6b48266bf)" style="fill: #008000; fill-opacity: 0.6; stroke: #ffffff; stroke-opacity: 0.6; stroke-width: 2"/>
    <path d="M 453.545455 497.48 
C 454.87147 497.48 456.143354 496.953168 457.080988 496.015534 
C 458.018623 495.077899 458.545455 493.806016 458.545455 492.48 
C 458.545455 491.153985 458.018623 489.882101 457.080988 488.944466 
C 456.143354 488.006832 454.87147 487.48 453.545455 487.48 
C 452.219439 487.48 450.947555 488.006832 450.009921 488.944466 
C 449.072286 489.882101 448.545455 491.153985 448.545455 492.48 
C 448.545455 493.806016 449.072286 495.077899 450.009921 496.015534 
C 450.947555 496.953168 452.219439 497.48 453.545455 497.48 
z
" clip-path="url(#pd6b48266bf)" style="fill: #ff0000; fill-opacity: 0.6; stroke: #ffffff; stroke-opacity: 0.6; stroke-width: 2"/>
    <path d="M 453.545455 509.063124 
C 457.94335 509.063124 462.161712 507.315821 465.271494 504.206039 
C 468.381276 501.096257 470.128578 496.877896 470.128578 492.48 
C 470.128578 488.082104 468.381276 483.863743 465.271494 480.753961 
C 462.161712 477.644179 457.94335 475.896876 453.545455 475.896876 
C 449.147559 475.896876 444.929197 477.644179 441.819415 480.753961 
C 438.709633 483.863743 436.962331 488.082104 436.962331 492.48 
C 436.962331 496.877896 438.709633 501.096257 441.819415 504.206039 
C 444.929197 507.315821 449.147559 509.063124 453.545455 509.063124 
z
" clip-path="url(#pd6b48266bf)" style="fill: #00ffff; fill-opacity: 0.6; stroke: #ffffff; stroke-opacity: 0.6; stroke-width: 2"/>
    <path d="M 453.545455 365.151068 
C 455.420724 365.151068 457.219439 364.406015 458.545455 363.08 
C 459.87147 361.753985 460.616522 359.955269 460.616522 358.08 
C 460.616522 356.204731 459.87147 354.406015 458.545455 353.08 
C 457.219439 351.753985 455.420724 351.008932 453.545455 351.008932 
C 451.670185 351.008932 449.87147 351.753985 448.545455 353.08 
C 447.219439 354.406015 446.474387 356.204731 446.474387 358.08 
C 446.474387 359.955269 447.219439 361.753985 448.545455 363.08 
C 449.87147 364.406015 451.670185 365.151068 453.545455 365.151068 
z
" clip-path="url(#pd6b48266bf)" style="fill: #0000ff; fill-opacity: 0.6; stroke: #ffffff; stroke-opacity: 0.6; stroke-width: 2"/>
    <path d="M 453.545455 365.151068 
C 455.420724 365.151068 457.219439 364.406015 458.545455 363.08 
C 459.87147 361.753985 460.616522 359.955269 460.616522 358.08 
C 460.616522 356.204731 459.87147 354.406015 458.545455 353.08 
C 457.219439 351.753985 455.420724 351.008932 453.545455 351.008932 
C 451.670185 351.008932 449.87147 351.753985 448.545455 353.08 
C 447.219439 354.406015 446.474387 356.204731 446.474387 358.08 
C 446.474387 359.955269 447.219439 361.753985 448.545455 363.08 
C 449.87147 364.406015 451.670185 365.151068 453.545455 365.151068 
z
" clip-path="url(#pd6b48266bf)" style="fill: #008000; fill-opacity: 0.6; stroke: #ffffff; stroke-opacity: 0.6; stroke-width: 2"/>
    <path d="M 453.545455 365.151068 
C 455.420724 365.151068 457.219439 364.406015 458.545455 363.08 
C 459.87147 361.753985 460.616522 359.955269 460.616522 358.08 
C 460.616522 356.204731 459.87147 354.406015 458.545455 353.08 
C 457.219439 351.753985 455.420724 351.008932 453.545455 351.008932 
C 451.670185 351.008932 449.87147 351.753985 448.545455 353.08 
C 447.219439 354.406015 446.474387 356.204731 446.474387 358.08 
C 446.474387 359.955269 447.219439 361.753985 448.545455 363.08 
C 449.87147 364.406015 451.670185 365.151068 453.545455 365.151068 
z
" clip-path="url(#pd6b48266bf)" style="fill: #ff0000; fill-opacity: 0.6; stroke: #ffffff; stroke-opacity: 0.6; stroke-width: 2"/>
    <path d="M 453.545455 374.663124 
C 457.94335 374.663124 462.161712 372.915821 465.271494 369.806039 
C 468.381276 366.696257 470.128578 362.477896 470.128578 358.08 
C 470.128578 353.682104 468.381276 349.463743 465.271494 346.353961 
C 462.161712 343.244179 457.94335 341.496876 453.545455 341.496876 
C 449.147559 341.496876 444.929197 343.244179 441.819415 346.353961 
C 438.709633 349.463743 436.962331 353.682104 436.962331 358.08 
C 436.962331 362.477896 438.709633 366.696257 441.819415 369.806039 
C 444.929197 372.915821 449.147559 374.663124 453.545455 374.663124 
z
" clip-path="url(#pd6b48266bf)" style="fill: #00ffff; fill-opacity: 0.6; stroke: #ffffff; stroke-opacity: 0.6; stroke-width: 2"/>
    <path d="M 453.545455 228.68 
C 454.87147 228.68 456.143354 228.153168 457.080988 227.215534 
C 458.018623 226.277899 458.545455 225.006016 458.545455 223.68 
C 458.545455 222.353984 458.018623 221.082101 457.080988 220.144466 
C 456.143354 219.206832 454.87147 218.68 453.545455 218.68 
C 452.219439 218.68 450.947555 219.206832 450.009921 220.144466 
C 449.072286 221.082101 448.545455 222.353984 448.545455 223.68 
C 448.545455 225.006016 449.072286 226.277899 450.009921 227.215534 
C 450.947555 228.153168 452.219439 228.68 453.545455 228.68 
z
" clip-path="url(#pd6b48266bf)" style="fill: #0000ff; fill-opacity: 0.6; stroke: #ffffff; stroke-opacity: 0.6; stroke-width: 2"/>
    <path d="M 453.545455 228.68 
C 454.87147 228.68 456.143354 228.153168 457.080988 227.215534 
C 458.018623 226.277899 458.545455 225.006016 458.545455 223.68 
C 458.545455 222.353984 458.018623 221.082101 457.080988 220.144466 
C 456.143354 219.206832 454.87147 218.68 453.545455 218.68 
C 452.219439 218.68 450.947555 219.206832 450.009921 220.144466 
C 449.072286 221.082101 448.545455 222.353984 448.545455 223.68 
C 448.545455 225.006016 449.072286 226.277899 450.009921 227.215534 
C 450.947555 228.153168 452.219439 228.68 453.545455 228.68 
z
" clip-path="url(#pd6b48266bf)" style="fill: #008000; fill-opacity: 0.6; stroke: #ffffff; stroke-opacity: 0.6; stroke-width: 2"/>
    <path d="M 453.545455 228.68 
C 454.87147 228.68 456.143354 228.153168 457.080988 227.215534 
C 458.018623 226.277899 458.545455 225.006016 458.545455 223.68 
C 458.545455 222.353984 458.018623 221.082101 457.080988 220.144466 
C 456.143354 219.206832 454.87147 218.68 453.545455 218.68 
C 452.219439 218.68 450.947555 219.206832 450.009921 220.144466 
C 449.072286 221.082101 448.545455 222.353984 448.545455 223.68 
C 448.545455 225.006016 449.072286 226.277899 450.009921 227.215534 
C 450.947555 228.153168 452.219439 228.68 453.545455 228.68 
z
" clip-path="url(#pd6b48266bf)" style="fill: #ff0000; fill-opacity: 0.6; stroke: #ffffff; stroke-opacity: 0.6; stroke-width: 2"/>
    <path d="M 453.545455 232.340254 
C 455.842181 232.340254 458.045148 231.427755 459.669179 229.803724 
C 461.29321 228.179694 462.205709 225.976726 462.205709 223.68 
C 462.205709 221.383274 461.29321 219.180306 459.669179 217.556276 
C 458.045148 215.932245 455.842181 215.019746 453.545455 215.019746 
C 451.248728 215.019746 449.045761 215.932245 447.42173 217.556276 
C 445.7977 219.180306 444.885201 221.383274 444.885201 223.68 
C 444.885201 225.976726 445.7977 228.179694 447.42173 229.803724 
C 449.045761 231.427755 451.248728 232.340254 453.545455 232.340254 
z
" clip-path="url(#pd6b48266bf)" style="fill: #00ffff; fill-opacity: 0.6; stroke: #ffffff; stroke-opacity: 0.6; stroke-width: 2"/>
    <path d="M 453.545455 94.28 
C 454.87147 94.28 456.143354 93.753168 457.080988 92.815534 
C 458.018623 91.877899 458.545455 90.606015 458.545455 89.28 
C 458.545455 87.953984 458.018623 86.682101 457.080988 85.744466 
C 456.143354 84.806832 454.87147 84.28 453.545455 84.28 
C 452.219439 84.28 450.947555 84.806832 450.009921 85.744466 
C 449.072286 86.682101 448.545455 87.953984 448.545455 89.28 
C 448.545455 90.606015 449.072286 91.877899 450.009921 92.815534 
C 450.947555 93.753168 452.219439 94.28 453.545455 94.28 
z
" clip-path="url(#pd6b48266bf)" style="fill: #008000; fill-opacity: 0.6; stroke: #ffffff; stroke-opacity: 0.6; stroke-width: 2"/>
    <path d="M 453.545455 96.351068 
C 455.420724 96.351068 457.219439 95.606015 458.545455 94.28 
C 459.87147 92.953984 460.616522 91.155269 460.616522 89.28 
C 460.616522 87.404731 459.87147 85.606015 458.545455 84.28 
C 457.219439 82.953984 455.420724 82.208932 453.545455 82.208932 
C 451.670185 82.208932 449.87147 82.953984 448.545455 84.28 
C 447.219439 85.606015 446.474387 87.404731 446.474387 89.28 
C 446.474387 91.155269 447.219439 92.953984 448.545455 94.28 
C 449.87147 95.606015 451.670185 96.351068 453.545455 96.351068 
z
" clip-path="url(#pd6b48266bf)" style="fill: #ff0000; fill-opacity: 0.6; stroke: #ffffff; stroke-opacity: 0.6; stroke-width: 2"/>
    <path d="M 453.545455 97.940254 
C 455.842181 97.940254 458.045148 97.027755 459.669179 95.403724 
C 461.29321 93.779694 462.205709 91.576726 462.205709 89.28 
C 462.205709 86.983274 461.29321 84.780306 459.669179 83.156276 
C 458.045148 81.532245 455.842181 80.619746 453.545455 80.619746 
C 451.248728 80.619746 449.045761 81.532245 447.42173 83.156276 
C 445.7977 84.780306 444.885201 86.983274 444.885201 89.28 
C 444.885201 91.576726 445.7977 93.779694 447.42173 95.403724 
C 449.045761 97.027755 451.248728 97.940254 453.545455 97.940254 
z
" clip-path="url(#pd6b48266bf)" style="fill: #00ffff; fill-opacity: 0.6; stroke: #ffffff; stroke-opacity: 0.6; stroke-width: 2"/>
    <path d="M 538.090909 497.48 
C 539.416925 497.48 540.688808 496.953168 541.626443 496.015534 
C 542.564078 495.077899 543.090909 493.806016 543.090909 492.48 
C 543.090909 491.153985 542.564078 489.882101 541.626443 488.944466 
C 540.688808 488.006832 539.416925 487.48 538.090909 487.48 
C 536.764894 487.48 535.49301 488.006832 534.555375 488.944466 
C 533.617741 489.882101 533.090909 491.153985 533.090909 492.48 
C 533.090909 493.806016 533.617741 495.077899 534.555375 496.015534 
C 535.49301 496.953168 536.764894 497.48 538.090909 497.48 
z
" clip-path="url(#pd6b48266bf)" style="fill: #008000; fill-opacity: 0.6; stroke: #ffffff; stroke-opacity: 0.6; stroke-width: 2"/>
    <path d="M 538.090909 363.08 
C 539.416925 363.08 540.688808 362.553168 541.626443 361.615534 
C 542.564078 360.677899 543.090909 359.406015 543.090909 358.08 
C 543.090909 356.753985 542.564078 355.482101 541.626443 354.544466 
C 540.688808 353.606832 539.416925 353.08 538.090909 353.08 
C 536.764894 353.08 535.49301 353.606832 534.555375 354.544466 
C 533.617741 355.482101 533.090909 356.753985 533.090909 358.08 
C 533.090909 359.406015 533.617741 360.677899 534.555375 361.615534 
C 535.49301 362.553168 536.764894 363.08 538.090909 363.08 
z
" clip-path="url(#pd6b48266bf)" style="fill: #008000; fill-opacity: 0.6; stroke: #ffffff; stroke-opacity: 0.6; stroke-width: 2"/>
    <path d="M 538.090909 228.68 
C 539.416925 228.68 540.688808 228.153168 541.626443 227.215534 
C 542.564078 226.277899 543.090909 225.006016 543.090909 223.68 
C 543.090909 222.353984 542.564078 221.082101 541.626443 220.144466 
C 540.688808 219.206832 539.416925 218.68 538.090909 218.68 
C 536.764894 218.68 535.49301 219.206832 534.555375 220.144466 
C 533.617741 221.082101 533.090909 222.353984 533.090909 223.68 
C 533.090909 225.006016 533.617741 226.277899 534.555375 227.215534 
C 535.49301 228.153168 536.764894 228.68 538.090909 228.68 
z
" clip-path="url(#pd6b48266bf)" style="fill: #800080; fill-opacity: 0.6; stroke: #ffffff; stroke-opacity: 0.6; stroke-width: 2"/>
    <path d="M 538.090909 94.28 
C 539.416925 94.28 540.688808 93.753168 541.626443 92.815534 
C 542.564078 91.877899 543.090909 90.606015 543.090909 89.28 
C 543.090909 87.953984 542.564078 86.682101 541.626443 85.744466 
C 540.688808 84.806832 539.416925 84.28 538.090909 84.28 
C 536.764894 84.28 535.49301 84.806832 534.555375 85.744466 
C 533.617741 86.682101 533.090909 87.953984 533.090909 89.28 
C 533.090909 90.606015 533.617741 91.877899 534.555375 92.815534 
C 535.49301 93.753168 536.764894 94.28 538.090909 94.28 
z
" clip-path="url(#pd6b48266bf)" style="fill: #008000; fill-opacity: 0.6; stroke: #ffffff; stroke-opacity: 0.6; stroke-width: 2"/>
    <path d="M 538.090909 94.28 
C 539.416925 94.28 540.688808 93.753168 541.626443 92.815534 
C 542.564078 91.877899 543.090909 90.606015 543.090909 89.28 
C 543.090909 87.953984 542.564078 86.682101 541.626443 85.744466 
C 540.688808 84.806832 539.416925 84.28 538.090909 84.28 
C 536.764894 84.28 535.49301 84.806832 534.555375 85.744466 
C 533.617741 86.682101 533.090909 87.953984 533.090909 89.28 
C 533.090909 90.606015 533.617741 91.877899 534.555375 92.815534 
C 535.49301 93.753168 536.764894 94.28 538.090909 94.28 
z
" clip-path="url(#pd6b48266bf)" style="fill: #800080; fill-opacity: 0.6; stroke: #ffffff; stroke-opacity: 0.6; stroke-width: 2"/>
    <path d="M 622.636364 497.48 
C 623.962379 497.48 625.234263 496.953168 626.171898 496.015534 
C 627.109532 495.077899 627.636364 493.806016 627.636364 492.48 
C 627.636364 491.153985 627.109532 489.882101 626.171898 488.944466 
C 625.234263 488.006832 623.962379 487.48 622.636364 487.48 
C 621.310348 487.48 620.038464 488.006832 619.10083 488.944466 
C 618.163195 489.882101 617.636364 491.153985 617.636364 492.48 
C 617.636364 493.806016 618.163195 495.077899 619.10083 496.015534 
C 620.038464 496.953168 621.310348 497.48 622.636364 497.48 
z
" clip-path="url(#pd6b48266bf)" style="fill: #ff0000; fill-opacity: 0.6; stroke: #ffffff; stroke-opacity: 0.6; stroke-width: 2"/>
    <path d="M 622.636364 228.68 
C 623.962379 228.68 625.234263 228.153168 626.171898 227.215534 
C 627.109532 226.277899 627.636364 225.006016 627.636364 223.68 
C 627.636364 222.353984 627.109532 221.082101 626.171898 220.144466 
C 625.234263 219.206832 623.962379 218.68 622.636364 218.68 
C 621.310348 218.68 620.038464 219.206832 619.10083 220.144466 
C 618.163195 221.082101 617.636364 222.353984 617.636364 223.68 
C 617.636364 225.006016 618.163195 226.277899 619.10083 227.215534 
C 620.038464 228.153168 621.310348 228.68 622.636364 228.68 
z
" clip-path="url(#pd6b48266bf)" style="fill: #ff0000; fill-opacity: 0.6; stroke: #ffffff; stroke-opacity: 0.6; stroke-width: 2"/>
   </g>
   <g id="matplotlib.axis_1">
    <g id="xtick_1">
     <g id="line2d_1">
      <path d="M 115.363636 512.64 
L 115.363636 69.12 
" clip-path="url(#pd6b48266bf)" style="fill: none; stroke: #b0b0b0; stroke-width: 0.8; stroke-linecap: square"/>
     </g>
     <g id="line2d_2">
      <defs>
       <path id="m121390194f" d="M 0 0 
L 0 3.5 
" style="stroke: #000000; stroke-width: 0.8"/>
      </defs>
      <g>
       <use xlink:href="#m121390194f" x="115.363636" y="512.64" style="stroke: #000000; stroke-width: 0.8"/>
      </g>
     </g>
     <g id="text_1">
      <!-- Benchmarking -->
      <g transform="translate(79.152699 527.238438) scale(0.1 -0.1)">
       <defs>
        <path id="DejaVuSans-42" d="M 1259 2228 
L 1259 519 
L 2272 519 
Q 2781 519 3026 730 
Q 3272 941 3272 1375 
Q 3272 1813 3026 2020 
Q 2781 2228 2272 2228 
L 1259 2228 
z
M 1259 4147 
L 1259 2741 
L 2194 2741 
Q 2656 2741 2882 2914 
Q 3109 3088 3109 3444 
Q 3109 3797 2882 3972 
Q 2656 4147 2194 4147 
L 1259 4147 
z
M 628 4666 
L 2241 4666 
Q 2963 4666 3353 4366 
Q 3744 4066 3744 3513 
Q 3744 3084 3544 2831 
Q 3344 2578 2956 2516 
Q 3422 2416 3680 2098 
Q 3938 1781 3938 1306 
Q 3938 681 3513 340 
Q 3088 0 2303 0 
L 628 0 
L 628 4666 
z
" transform="scale(0.015625)"/>
        <path id="DejaVuSans-65" d="M 3597 1894 
L 3597 1613 
L 953 1613 
Q 991 1019 1311 708 
Q 1631 397 2203 397 
Q 2534 397 2845 478 
Q 3156 559 3463 722 
L 3463 178 
Q 3153 47 2828 -22 
Q 2503 -91 2169 -91 
Q 1331 -91 842 396 
Q 353 884 353 1716 
Q 353 2575 817 3079 
Q 1281 3584 2069 3584 
Q 2775 3584 3186 3129 
Q 3597 2675 3597 1894 
z
M 3022 2063 
Q 3016 2534 2758 2815 
Q 2500 3097 2075 3097 
Q 1594 3097 1305 2825 
Q 1016 2553 972 2059 
L 3022 2063 
z
" transform="scale(0.015625)"/>
        <path id="DejaVuSans-6e" d="M 3513 2113 
L 3513 0 
L 2938 0 
L 2938 2094 
Q 2938 2591 2744 2837 
Q 2550 3084 2163 3084 
Q 1697 3084 1428 2787 
Q 1159 2491 1159 1978 
L 1159 0 
L 581 0 
L 581 3500 
L 1159 3500 
L 1159 2956 
Q 1366 3272 1645 3428 
Q 1925 3584 2291 3584 
Q 2894 3584 3203 3211 
Q 3513 2838 3513 2113 
z
" transform="scale(0.015625)"/>
        <path id="DejaVuSans-63" d="M 3122 3366 
L 3122 2828 
Q 2878 2963 2633 3030 
Q 2388 3097 2138 3097 
Q 1578 3097 1268 2742 
Q 959 2388 959 1747 
Q 959 1106 1268 751 
Q 1578 397 2138 397 
Q 2388 397 2633 464 
Q 2878 531 3122 666 
L 3122 134 
Q 2881 22 2623 -34 
Q 2366 -91 2075 -91 
Q 1284 -91 818 406 
Q 353 903 353 1747 
Q 353 2603 823 3093 
Q 1294 3584 2113 3584 
Q 2378 3584 2631 3529 
Q 2884 3475 3122 3366 
z
" transform="scale(0.015625)"/>
        <path id="DejaVuSans-68" d="M 3513 2113 
L 3513 0 
L 2938 0 
L 2938 2094 
Q 2938 2591 2744 2837 
Q 2550 3084 2163 3084 
Q 1697 3084 1428 2787 
Q 1159 2491 1159 1978 
L 1159 0 
L 581 0 
L 581 4863 
L 1159 4863 
L 1159 2956 
Q 1366 3272 1645 3428 
Q 1925 3584 2291 3584 
Q 2894 3584 3203 3211 
Q 3513 2838 3513 2113 
z
" transform="scale(0.015625)"/>
        <path id="DejaVuSans-6d" d="M 3328 2828 
Q 3544 3216 3844 3400 
Q 4144 3584 4550 3584 
Q 5097 3584 5394 3201 
Q 5691 2819 5691 2113 
L 5691 0 
L 5113 0 
L 5113 2094 
Q 5113 2597 4934 2840 
Q 4756 3084 4391 3084 
Q 3944 3084 3684 2787 
Q 3425 2491 3425 1978 
L 3425 0 
L 2847 0 
L 2847 2094 
Q 2847 2600 2669 2842 
Q 2491 3084 2119 3084 
Q 1678 3084 1418 2786 
Q 1159 2488 1159 1978 
L 1159 0 
L 581 0 
L 581 3500 
L 1159 3500 
L 1159 2956 
Q 1356 3278 1631 3431 
Q 1906 3584 2284 3584 
Q 2666 3584 2933 3390 
Q 3200 3197 3328 2828 
z
" transform="scale(0.015625)"/>
        <path id="DejaVuSans-61" d="M 2194 1759 
Q 1497 1759 1228 1600 
Q 959 1441 959 1056 
Q 959 750 1161 570 
Q 1363 391 1709 391 
Q 2188 391 2477 730 
Q 2766 1069 2766 1631 
L 2766 1759 
L 2194 1759 
z
M 3341 1997 
L 3341 0 
L 2766 0 
L 2766 531 
Q 2569 213 2275 61 
Q 1981 -91 1556 -91 
Q 1019 -91 701 211 
Q 384 513 384 1019 
Q 384 1609 779 1909 
Q 1175 2209 1959 2209 
L 2766 2209 
L 2766 2266 
Q 2766 2663 2505 2880 
Q 2244 3097 1772 3097 
Q 1472 3097 1187 3025 
Q 903 2953 641 2809 
L 641 3341 
Q 956 3463 1253 3523 
Q 1550 3584 1831 3584 
Q 2591 3584 2966 3190 
Q 3341 2797 3341 1997 
z
" transform="scale(0.015625)"/>
        <path id="DejaVuSans-72" d="M 2631 2963 
Q 2534 3019 2420 3045 
Q 2306 3072 2169 3072 
Q 1681 3072 1420 2755 
Q 1159 2438 1159 1844 
L 1159 0 
L 581 0 
L 581 3500 
L 1159 3500 
L 1159 2956 
Q 1341 3275 1631 3429 
Q 1922 3584 2338 3584 
Q 2397 3584 2469 3576 
Q 2541 3569 2628 3553 
L 2631 2963 
z
" transform="scale(0.015625)"/>
        <path id="DejaVuSans-6b" d="M 581 4863 
L 1159 4863 
L 1159 1991 
L 2875 3500 
L 3609 3500 
L 1753 1863 
L 3688 0 
L 2938 0 
L 1159 1709 
L 1159 0 
L 581 0 
L 581 4863 
z
" transform="scale(0.015625)"/>
        <path id="DejaVuSans-69" d="M 603 3500 
L 1178 3500 
L 1178 0 
L 603 0 
L 603 3500 
z
M 603 4863 
L 1178 4863 
L 1178 4134 
L 603 4134 
L 603 4863 
z
" transform="scale(0.015625)"/>
        <path id="DejaVuSans-67" d="M 2906 1791 
Q 2906 2416 2648 2759 
Q 2391 3103 1925 3103 
Q 1463 3103 1205 2759 
Q 947 2416 947 1791 
Q 947 1169 1205 825 
Q 1463 481 1925 481 
Q 2391 481 2648 825 
Q 2906 1169 2906 1791 
z
M 3481 434 
Q 3481 -459 3084 -895 
Q 2688 -1331 1869 -1331 
Q 1566 -1331 1297 -1286 
Q 1028 -1241 775 -1147 
L 775 -588 
Q 1028 -725 1275 -790 
Q 1522 -856 1778 -856 
Q 2344 -856 2625 -561 
Q 2906 -266 2906 331 
L 2906 616 
Q 2728 306 2450 153 
Q 2172 0 1784 0 
Q 1141 0 747 490 
Q 353 981 353 1791 
Q 353 2603 747 3093 
Q 1141 3584 1784 3584 
Q 2172 3584 2450 3431 
Q 2728 3278 2906 2969 
L 2906 3500 
L 3481 3500 
L 3481 434 
z
" transform="scale(0.015625)"/>
       </defs>
       <use xlink:href="#DejaVuSans-42"/>
       <use xlink:href="#DejaVuSans-65" x="68.603516"/>
       <use xlink:href="#DejaVuSans-6e" x="130.126953"/>
       <use xlink:href="#DejaVuSans-63" x="193.505859"/>
       <use xlink:href="#DejaVuSans-68" x="248.486328"/>
       <use xlink:href="#DejaVuSans-6d" x="311.865234"/>
       <use xlink:href="#DejaVuSans-61" x="409.277344"/>
       <use xlink:href="#DejaVuSans-72" x="470.556641"/>
       <use xlink:href="#DejaVuSans-6b" x="511.669922"/>
       <use xlink:href="#DejaVuSans-69" x="569.580078"/>
       <use xlink:href="#DejaVuSans-6e" x="597.363281"/>
       <use xlink:href="#DejaVuSans-67" x="660.742188"/>
      </g>
     </g>
    </g>
    <g id="xtick_2">
     <g id="line2d_3">
      <path d="M 199.909091 512.64 
L 199.909091 69.12 
" clip-path="url(#pd6b48266bf)" style="fill: none; stroke: #b0b0b0; stroke-width: 0.8; stroke-linecap: square"/>
     </g>
     <g id="line2d_4">
      <g>
       <use xlink:href="#m121390194f" x="199.909091" y="512.64" style="stroke: #000000; stroke-width: 0.8"/>
      </g>
     </g>
     <g id="text_2">
      <!-- Human Experimentation -->
      <g transform="translate(138.756747 527.238438) scale(0.1 -0.1)">
       <defs>
        <path id="DejaVuSans-48" d="M 628 4666 
L 1259 4666 
L 1259 2753 
L 3553 2753 
L 3553 4666 
L 4184 4666 
L 4184 0 
L 3553 0 
L 3553 2222 
L 1259 2222 
L 1259 0 
L 628 0 
L 628 4666 
z
" transform="scale(0.015625)"/>
        <path id="DejaVuSans-75" d="M 544 1381 
L 544 3500 
L 1119 3500 
L 1119 1403 
Q 1119 906 1312 657 
Q 1506 409 1894 409 
Q 2359 409 2629 706 
Q 2900 1003 2900 1516 
L 2900 3500 
L 3475 3500 
L 3475 0 
L 2900 0 
L 2900 538 
Q 2691 219 2414 64 
Q 2138 -91 1772 -91 
Q 1169 -91 856 284 
Q 544 659 544 1381 
z
M 1991 3584 
L 1991 3584 
z
" transform="scale(0.015625)"/>
        <path id="DejaVuSans-20" transform="scale(0.015625)"/>
        <path id="DejaVuSans-45" d="M 628 4666 
L 3578 4666 
L 3578 4134 
L 1259 4134 
L 1259 2753 
L 3481 2753 
L 3481 2222 
L 1259 2222 
L 1259 531 
L 3634 531 
L 3634 0 
L 628 0 
L 628 4666 
z
" transform="scale(0.015625)"/>
        <path id="DejaVuSans-78" d="M 3513 3500 
L 2247 1797 
L 3578 0 
L 2900 0 
L 1881 1375 
L 863 0 
L 184 0 
L 1544 1831 
L 300 3500 
L 978 3500 
L 1906 2253 
L 2834 3500 
L 3513 3500 
z
" transform="scale(0.015625)"/>
        <path id="DejaVuSans-70" d="M 1159 525 
L 1159 -1331 
L 581 -1331 
L 581 3500 
L 1159 3500 
L 1159 2969 
Q 1341 3281 1617 3432 
Q 1894 3584 2278 3584 
Q 2916 3584 3314 3078 
Q 3713 2572 3713 1747 
Q 3713 922 3314 415 
Q 2916 -91 2278 -91 
Q 1894 -91 1617 61 
Q 1341 213 1159 525 
z
M 3116 1747 
Q 3116 2381 2855 2742 
Q 2594 3103 2138 3103 
Q 1681 3103 1420 2742 
Q 1159 2381 1159 1747 
Q 1159 1113 1420 752 
Q 1681 391 2138 391 
Q 2594 391 2855 752 
Q 3116 1113 3116 1747 
z
" transform="scale(0.015625)"/>
        <path id="DejaVuSans-74" d="M 1172 4494 
L 1172 3500 
L 2356 3500 
L 2356 3053 
L 1172 3053 
L 1172 1153 
Q 1172 725 1289 603 
Q 1406 481 1766 481 
L 2356 481 
L 2356 0 
L 1766 0 
Q 1100 0 847 248 
Q 594 497 594 1153 
L 594 3053 
L 172 3053 
L 172 3500 
L 594 3500 
L 594 4494 
L 1172 4494 
z
" transform="scale(0.015625)"/>
        <path id="DejaVuSans-6f" d="M 1959 3097 
Q 1497 3097 1228 2736 
Q 959 2375 959 1747 
Q 959 1119 1226 758 
Q 1494 397 1959 397 
Q 2419 397 2687 759 
Q 2956 1122 2956 1747 
Q 2956 2369 2687 2733 
Q 2419 3097 1959 3097 
z
M 1959 3584 
Q 2709 3584 3137 3096 
Q 3566 2609 3566 1747 
Q 3566 888 3137 398 
Q 2709 -91 1959 -91 
Q 1206 -91 779 398 
Q 353 888 353 1747 
Q 353 2609 779 3096 
Q 1206 3584 1959 3584 
z
" transform="scale(0.015625)"/>
       </defs>
       <use xlink:href="#DejaVuSans-48"/>
       <use xlink:href="#DejaVuSans-75" x="75.195312"/>
       <use xlink:href="#DejaVuSans-6d" x="138.574219"/>
       <use xlink:href="#DejaVuSans-61" x="235.986328"/>
       <use xlink:href="#DejaVuSans-6e" x="297.265625"/>
       <use xlink:href="#DejaVuSans-20" x="360.644531"/>
       <use xlink:href="#DejaVuSans-45" x="392.431641"/>
       <use xlink:href="#DejaVuSans-78" x="455.615234"/>
       <use xlink:href="#DejaVuSans-70" x="514.794922"/>
       <use xlink:href="#DejaVuSans-65" x="578.271484"/>
       <use xlink:href="#DejaVuSans-72" x="639.794922"/>
       <use xlink:href="#DejaVuSans-69" x="680.908203"/>
       <use xlink:href="#DejaVuSans-6d" x="708.691406"/>
       <use xlink:href="#DejaVuSans-65" x="806.103516"/>
       <use xlink:href="#DejaVuSans-6e" x="867.626953"/>
       <use xlink:href="#DejaVuSans-74" x="931.005859"/>
       <use xlink:href="#DejaVuSans-61" x="970.214844"/>
       <use xlink:href="#DejaVuSans-74" x="1031.494141"/>
       <use xlink:href="#DejaVuSans-69" x="1070.703125"/>
       <use xlink:href="#DejaVuSans-6f" x="1098.486328"/>
       <use xlink:href="#DejaVuSans-6e" x="1159.667969"/>
      </g>
     </g>
    </g>
    <g id="xtick_3">
     <g id="line2d_5">
      <path d="M 284.454545 512.64 
L 284.454545 69.12 
" clip-path="url(#pd6b48266bf)" style="fill: none; stroke: #b0b0b0; stroke-width: 0.8; stroke-linecap: square"/>
     </g>
     <g id="line2d_6">
      <g>
       <use xlink:href="#m121390194f" x="284.454545" y="512.64" style="stroke: #000000; stroke-width: 0.8"/>
      </g>
     </g>
     <g id="text_3">
      <!-- Interview -->
      <g transform="translate(261.204545 527.238438) scale(0.1 -0.1)">
       <defs>
        <path id="DejaVuSans-49" d="M 628 4666 
L 1259 4666 
L 1259 0 
L 628 0 
L 628 4666 
z
" transform="scale(0.015625)"/>
        <path id="DejaVuSans-76" d="M 191 3500 
L 800 3500 
L 1894 563 
L 2988 3500 
L 3597 3500 
L 2284 0 
L 1503 0 
L 191 3500 
z
" transform="scale(0.015625)"/>
        <path id="DejaVuSans-77" d="M 269 3500 
L 844 3500 
L 1563 769 
L 2278 3500 
L 2956 3500 
L 3675 769 
L 4391 3500 
L 4966 3500 
L 4050 0 
L 3372 0 
L 2619 2869 
L 1863 0 
L 1184 0 
L 269 3500 
z
" transform="scale(0.015625)"/>
       </defs>
       <use xlink:href="#DejaVuSans-49"/>
       <use xlink:href="#DejaVuSans-6e" x="29.492188"/>
       <use xlink:href="#DejaVuSans-74" x="92.871094"/>
       <use xlink:href="#DejaVuSans-65" x="132.080078"/>
       <use xlink:href="#DejaVuSans-72" x="193.603516"/>
       <use xlink:href="#DejaVuSans-76" x="234.716797"/>
       <use xlink:href="#DejaVuSans-69" x="293.896484"/>
       <use xlink:href="#DejaVuSans-65" x="321.679688"/>
       <use xlink:href="#DejaVuSans-77" x="383.203125"/>
      </g>
     </g>
    </g>
    <g id="xtick_4">
     <g id="line2d_7">
      <path d="M 369 512.64 
L 369 69.12 
" clip-path="url(#pd6b48266bf)" style="fill: none; stroke: #b0b0b0; stroke-width: 0.8; stroke-linecap: square"/>
     </g>
     <g id="line2d_8">
      <g>
       <use xlink:href="#m121390194f" x="369" y="512.64" style="stroke: #000000; stroke-width: 0.8"/>
      </g>
     </g>
     <g id="text_4">
      <!-- Questionnaire -->
      <g transform="translate(333.995313 527.238438) scale(0.1 -0.1)">
       <defs>
        <path id="DejaVuSans-51" d="M 2522 4238 
Q 1834 4238 1429 3725 
Q 1025 3213 1025 2328 
Q 1025 1447 1429 934 
Q 1834 422 2522 422 
Q 3209 422 3611 934 
Q 4013 1447 4013 2328 
Q 4013 3213 3611 3725 
Q 3209 4238 2522 4238 
z
M 3406 84 
L 4238 -825 
L 3475 -825 
L 2784 -78 
Q 2681 -84 2626 -87 
Q 2572 -91 2522 -91 
Q 1538 -91 948 567 
Q 359 1225 359 2328 
Q 359 3434 948 4092 
Q 1538 4750 2522 4750 
Q 3503 4750 4090 4092 
Q 4678 3434 4678 2328 
Q 4678 1516 4351 937 
Q 4025 359 3406 84 
z
" transform="scale(0.015625)"/>
        <path id="DejaVuSans-73" d="M 2834 3397 
L 2834 2853 
Q 2591 2978 2328 3040 
Q 2066 3103 1784 3103 
Q 1356 3103 1142 2972 
Q 928 2841 928 2578 
Q 928 2378 1081 2264 
Q 1234 2150 1697 2047 
L 1894 2003 
Q 2506 1872 2764 1633 
Q 3022 1394 3022 966 
Q 3022 478 2636 193 
Q 2250 -91 1575 -91 
Q 1294 -91 989 -36 
Q 684 19 347 128 
L 347 722 
Q 666 556 975 473 
Q 1284 391 1588 391 
Q 1994 391 2212 530 
Q 2431 669 2431 922 
Q 2431 1156 2273 1281 
Q 2116 1406 1581 1522 
L 1381 1569 
Q 847 1681 609 1914 
Q 372 2147 372 2553 
Q 372 3047 722 3315 
Q 1072 3584 1716 3584 
Q 2034 3584 2315 3537 
Q 2597 3491 2834 3397 
z
" transform="scale(0.015625)"/>
       </defs>
       <use xlink:href="#DejaVuSans-51"/>
       <use xlink:href="#DejaVuSans-75" x="78.710938"/>
       <use xlink:href="#DejaVuSans-65" x="142.089844"/>
       <use xlink:href="#DejaVuSans-73" x="203.613281"/>
       <use xlink:href="#DejaVuSans-74" x="255.712891"/>
       <use xlink:href="#DejaVuSans-69" x="294.921875"/>
       <use xlink:href="#DejaVuSans-6f" x="322.705078"/>
       <use xlink:href="#DejaVuSans-6e" x="383.886719"/>
       <use xlink:href="#DejaVuSans-6e" x="447.265625"/>
       <use xlink:href="#DejaVuSans-61" x="510.644531"/>
       <use xlink:href="#DejaVuSans-69" x="571.923828"/>
       <use xlink:href="#DejaVuSans-72" x="599.707031"/>
       <use xlink:href="#DejaVuSans-65" x="638.570312"/>
      </g>
     </g>
    </g>
    <g id="xtick_5">
     <g id="line2d_9">
      <path d="M 453.545455 512.64 
L 453.545455 69.12 
" clip-path="url(#pd6b48266bf)" style="fill: none; stroke: #b0b0b0; stroke-width: 0.8; stroke-linecap: square"/>
     </g>
     <g id="line2d_10">
      <g>
       <use xlink:href="#m121390194f" x="453.545455" y="512.64" style="stroke: #000000; stroke-width: 0.8"/>
      </g>
     </g>
     <g id="text_5">
      <!-- Data Science -->
      <g transform="translate(420.634517 527.238438) scale(0.1 -0.1)">
       <defs>
        <path id="DejaVuSans-44" d="M 1259 4147 
L 1259 519 
L 2022 519 
Q 2988 519 3436 956 
Q 3884 1394 3884 2338 
Q 3884 3275 3436 3711 
Q 2988 4147 2022 4147 
L 1259 4147 
z
M 628 4666 
L 1925 4666 
Q 3281 4666 3915 4102 
Q 4550 3538 4550 2338 
Q 4550 1131 3912 565 
Q 3275 0 1925 0 
L 628 0 
L 628 4666 
z
" transform="scale(0.015625)"/>
        <path id="DejaVuSans-53" d="M 3425 4513 
L 3425 3897 
Q 3066 4069 2747 4153 
Q 2428 4238 2131 4238 
Q 1616 4238 1336 4038 
Q 1056 3838 1056 3469 
Q 1056 3159 1242 3001 
Q 1428 2844 1947 2747 
L 2328 2669 
Q 3034 2534 3370 2195 
Q 3706 1856 3706 1288 
Q 3706 609 3251 259 
Q 2797 -91 1919 -91 
Q 1588 -91 1214 -16 
Q 841 59 441 206 
L 441 856 
Q 825 641 1194 531 
Q 1563 422 1919 422 
Q 2459 422 2753 634 
Q 3047 847 3047 1241 
Q 3047 1584 2836 1778 
Q 2625 1972 2144 2069 
L 1759 2144 
Q 1053 2284 737 2584 
Q 422 2884 422 3419 
Q 422 4038 858 4394 
Q 1294 4750 2059 4750 
Q 2388 4750 2728 4690 
Q 3069 4631 3425 4513 
z
" transform="scale(0.015625)"/>
       </defs>
       <use xlink:href="#DejaVuSans-44"/>
       <use xlink:href="#DejaVuSans-61" x="77.001953"/>
       <use xlink:href="#DejaVuSans-74" x="138.28125"/>
       <use xlink:href="#DejaVuSans-61" x="177.490234"/>
       <use xlink:href="#DejaVuSans-20" x="238.769531"/>
       <use xlink:href="#DejaVuSans-53" x="270.556641"/>
       <use xlink:href="#DejaVuSans-63" x="334.033203"/>
       <use xlink:href="#DejaVuSans-69" x="389.013672"/>
       <use xlink:href="#DejaVuSans-65" x="416.796875"/>
       <use xlink:href="#DejaVuSans-6e" x="478.320312"/>
       <use xlink:href="#DejaVuSans-63" x="541.699219"/>
       <use xlink:href="#DejaVuSans-65" x="596.679688"/>
      </g>
     </g>
    </g>
    <g id="xtick_6">
     <g id="line2d_11">
      <path d="M 538.090909 512.64 
L 538.090909 69.12 
" clip-path="url(#pd6b48266bf)" style="fill: none; stroke: #b0b0b0; stroke-width: 0.8; stroke-linecap: square"/>
     </g>
     <g id="line2d_12">
      <g>
       <use xlink:href="#m121390194f" x="538.090909" y="512.64" style="stroke: #000000; stroke-width: 0.8"/>
      </g>
     </g>
     <g id="text_6">
      <!-- Engineering Research -->
      <g transform="translate(483.569034 527.238438) scale(0.1 -0.1)">
       <defs>
        <path id="DejaVuSans-52" d="M 2841 2188 
Q 3044 2119 3236 1894 
Q 3428 1669 3622 1275 
L 4263 0 
L 3584 0 
L 2988 1197 
Q 2756 1666 2539 1819 
Q 2322 1972 1947 1972 
L 1259 1972 
L 1259 0 
L 628 0 
L 628 4666 
L 2053 4666 
Q 2853 4666 3247 4331 
Q 3641 3997 3641 3322 
Q 3641 2881 3436 2590 
Q 3231 2300 2841 2188 
z
M 1259 4147 
L 1259 2491 
L 2053 2491 
Q 2509 2491 2742 2702 
Q 2975 2913 2975 3322 
Q 2975 3731 2742 3939 
Q 2509 4147 2053 4147 
L 1259 4147 
z
" transform="scale(0.015625)"/>
       </defs>
       <use xlink:href="#DejaVuSans-45"/>
       <use xlink:href="#DejaVuSans-6e" x="63.183594"/>
       <use xlink:href="#DejaVuSans-67" x="126.5625"/>
       <use xlink:href="#DejaVuSans-69" x="190.039062"/>
       <use xlink:href="#DejaVuSans-6e" x="217.822266"/>
       <use xlink:href="#DejaVuSans-65" x="281.201172"/>
       <use xlink:href="#DejaVuSans-65" x="342.724609"/>
       <use xlink:href="#DejaVuSans-72" x="404.248047"/>
       <use xlink:href="#DejaVuSans-69" x="445.361328"/>
       <use xlink:href="#DejaVuSans-6e" x="473.144531"/>
       <use xlink:href="#DejaVuSans-67" x="536.523438"/>
       <use xlink:href="#DejaVuSans-20" x="600"/>
       <use xlink:href="#DejaVuSans-52" x="631.787109"/>
       <use xlink:href="#DejaVuSans-65" x="696.769531"/>
       <use xlink:href="#DejaVuSans-73" x="758.292969"/>
       <use xlink:href="#DejaVuSans-65" x="810.392578"/>
       <use xlink:href="#DejaVuSans-61" x="871.916016"/>
       <use xlink:href="#DejaVuSans-72" x="933.195312"/>
       <use xlink:href="#DejaVuSans-63" x="972.058594"/>
       <use xlink:href="#DejaVuSans-68" x="1027.039062"/>
      </g>
     </g>
    </g>
    <g id="xtick_7">
     <g id="line2d_13">
      <path d="M 622.636364 512.64 
L 622.636364 69.12 
" clip-path="url(#pd6b48266bf)" style="fill: none; stroke: #b0b0b0; stroke-width: 0.8; stroke-linecap: square"/>
     </g>
     <g id="line2d_14">
      <g>
       <use xlink:href="#m121390194f" x="622.636364" y="512.64" style="stroke: #000000; stroke-width: 0.8"/>
      </g>
     </g>
     <g id="text_7">
      <!-- Meta Science -->
      <g transform="translate(589.248864 527.238438) scale(0.1 -0.1)">
       <defs>
        <path id="DejaVuSans-4d" d="M 628 4666 
L 1569 4666 
L 2759 1491 
L 3956 4666 
L 4897 4666 
L 4897 0 
L 4281 0 
L 4281 4097 
L 3078 897 
L 2444 897 
L 1241 4097 
L 1241 0 
L 628 0 
L 628 4666 
z
" transform="scale(0.015625)"/>
       </defs>
       <use xlink:href="#DejaVuSans-4d"/>
       <use xlink:href="#DejaVuSans-65" x="86.279297"/>
       <use xlink:href="#DejaVuSans-74" x="147.802734"/>
       <use xlink:href="#DejaVuSans-61" x="187.011719"/>
       <use xlink:href="#DejaVuSans-20" x="248.291016"/>
       <use xlink:href="#DejaVuSans-53" x="280.078125"/>
       <use xlink:href="#DejaVuSans-63" x="343.554688"/>
       <use xlink:href="#DejaVuSans-69" x="398.535156"/>
       <use xlink:href="#DejaVuSans-65" x="426.318359"/>
       <use xlink:href="#DejaVuSans-6e" x="487.841797"/>
       <use xlink:href="#DejaVuSans-63" x="551.220703"/>
       <use xlink:href="#DejaVuSans-65" x="606.201172"/>
      </g>
     </g>
    </g>
    <g id="text_8">
     <!-- strategy -->
     <g transform="translate(348.145312 540.916563) scale(0.1 -0.1)">
      <defs>
       <path id="DejaVuSans-79" d="M 2059 -325 
Q 1816 -950 1584 -1140 
Q 1353 -1331 966 -1331 
L 506 -1331 
L 506 -850 
L 844 -850 
Q 1081 -850 1212 -737 
Q 1344 -625 1503 -206 
L 1606 56 
L 191 3500 
L 800 3500 
L 1894 763 
L 2988 3500 
L 3597 3500 
L 2059 -325 
z
" transform="scale(0.015625)"/>
      </defs>
      <use xlink:href="#DejaVuSans-73"/>
      <use xlink:href="#DejaVuSans-74" x="52.099609"/>
      <use xlink:href="#DejaVuSans-72" x="91.308594"/>
      <use xlink:href="#DejaVuSans-61" x="132.421875"/>
      <use xlink:href="#DejaVuSans-74" x="193.701172"/>
      <use xlink:href="#DejaVuSans-65" x="232.910156"/>
      <use xlink:href="#DejaVuSans-67" x="294.433594"/>
      <use xlink:href="#DejaVuSans-79" x="357.910156"/>
     </g>
    </g>
   </g>
   <g id="matplotlib.axis_2">
    <g id="ytick_1">
     <g id="line2d_15">
      <path d="M 90 492.48 
L 648 492.48 
" clip-path="url(#pd6b48266bf)" style="fill: none; stroke: #b0b0b0; stroke-width: 0.8; stroke-linecap: square"/>
     </g>
     <g id="line2d_16">
      <defs>
       <path id="m0dbfb125d0" d="M 0 0 
L -3.5 0 
" style="stroke: #000000; stroke-width: 0.8"/>
      </defs>
      <g>
       <use xlink:href="#m0dbfb125d0" x="90" y="492.48" style="stroke: #000000; stroke-width: 0.8"/>
      </g>
     </g>
     <g id="text_9">
      <!-- Virtual World -->
      <g transform="translate(18.496875 496.279219) scale(0.1 -0.1)">
       <defs>
        <path id="DejaVuSans-56" d="M 1831 0 
L 50 4666 
L 709 4666 
L 2188 738 
L 3669 4666 
L 4325 4666 
L 2547 0 
L 1831 0 
z
" transform="scale(0.015625)"/>
        <path id="DejaVuSans-6c" d="M 603 4863 
L 1178 4863 
L 1178 0 
L 603 0 
L 603 4863 
z
" transform="scale(0.015625)"/>
        <path id="DejaVuSans-57" d="M 213 4666 
L 850 4666 
L 1831 722 
L 2809 4666 
L 3519 4666 
L 4500 722 
L 5478 4666 
L 6119 4666 
L 4947 0 
L 4153 0 
L 3169 4050 
L 2175 0 
L 1381 0 
L 213 4666 
z
" transform="scale(0.015625)"/>
        <path id="DejaVuSans-64" d="M 2906 2969 
L 2906 4863 
L 3481 4863 
L 3481 0 
L 2906 0 
L 2906 525 
Q 2725 213 2448 61 
Q 2172 -91 1784 -91 
Q 1150 -91 751 415 
Q 353 922 353 1747 
Q 353 2572 751 3078 
Q 1150 3584 1784 3584 
Q 2172 3584 2448 3432 
Q 2725 3281 2906 2969 
z
M 947 1747 
Q 947 1113 1208 752 
Q 1469 391 1925 391 
Q 2381 391 2643 752 
Q 2906 1113 2906 1747 
Q 2906 2381 2643 2742 
Q 2381 3103 1925 3103 
Q 1469 3103 1208 2742 
Q 947 2381 947 1747 
z
" transform="scale(0.015625)"/>
       </defs>
       <use xlink:href="#DejaVuSans-56"/>
       <use xlink:href="#DejaVuSans-69" x="66.158203"/>
       <use xlink:href="#DejaVuSans-72" x="93.941406"/>
       <use xlink:href="#DejaVuSans-74" x="135.054688"/>
       <use xlink:href="#DejaVuSans-75" x="174.263672"/>
       <use xlink:href="#DejaVuSans-61" x="237.642578"/>
       <use xlink:href="#DejaVuSans-6c" x="298.921875"/>
       <use xlink:href="#DejaVuSans-20" x="326.705078"/>
       <use xlink:href="#DejaVuSans-57" x="358.492188"/>
       <use xlink:href="#DejaVuSans-6f" x="451.494141"/>
       <use xlink:href="#DejaVuSans-72" x="512.675781"/>
       <use xlink:href="#DejaVuSans-6c" x="553.789062"/>
       <use xlink:href="#DejaVuSans-64" x="581.572266"/>
      </g>
     </g>
    </g>
    <g id="ytick_2">
     <g id="line2d_17">
      <path d="M 90 358.08 
L 648 358.08 
" clip-path="url(#pd6b48266bf)" style="fill: none; stroke: #b0b0b0; stroke-width: 0.8; stroke-linecap: square"/>
     </g>
     <g id="line2d_18">
      <g>
       <use xlink:href="#m0dbfb125d0" x="90" y="358.08" style="stroke: #000000; stroke-width: 0.8"/>
      </g>
     </g>
     <g id="text_10">
      <!-- Lifelogging -->
      <g transform="translate(27.91875 361.879219) scale(0.1 -0.1)">
       <defs>
        <path id="DejaVuSans-4c" d="M 628 4666 
L 1259 4666 
L 1259 531 
L 3531 531 
L 3531 0 
L 628 0 
L 628 4666 
z
" transform="scale(0.015625)"/>
        <path id="DejaVuSans-66" d="M 2375 4863 
L 2375 4384 
L 1825 4384 
Q 1516 4384 1395 4259 
Q 1275 4134 1275 3809 
L 1275 3500 
L 2222 3500 
L 2222 3053 
L 1275 3053 
L 1275 0 
L 697 0 
L 697 3053 
L 147 3053 
L 147 3500 
L 697 3500 
L 697 3744 
Q 697 4328 969 4595 
Q 1241 4863 1831 4863 
L 2375 4863 
z
" transform="scale(0.015625)"/>
       </defs>
       <use xlink:href="#DejaVuSans-4c"/>
       <use xlink:href="#DejaVuSans-69" x="55.712891"/>
       <use xlink:href="#DejaVuSans-66" x="83.496094"/>
       <use xlink:href="#DejaVuSans-65" x="118.701172"/>
       <use xlink:href="#DejaVuSans-6c" x="180.224609"/>
       <use xlink:href="#DejaVuSans-6f" x="208.007812"/>
       <use xlink:href="#DejaVuSans-67" x="269.189453"/>
       <use xlink:href="#DejaVuSans-67" x="332.666016"/>
       <use xlink:href="#DejaVuSans-69" x="396.142578"/>
       <use xlink:href="#DejaVuSans-6e" x="423.925781"/>
       <use xlink:href="#DejaVuSans-67" x="487.304688"/>
      </g>
     </g>
    </g>
    <g id="ytick_3">
     <g id="line2d_19">
      <path d="M 90 223.68 
L 648 223.68 
" clip-path="url(#pd6b48266bf)" style="fill: none; stroke: #b0b0b0; stroke-width: 0.8; stroke-linecap: square"/>
     </g>
     <g id="line2d_20">
      <g>
       <use xlink:href="#m0dbfb125d0" x="90" y="223.68" style="stroke: #000000; stroke-width: 0.8"/>
      </g>
     </g>
     <g id="text_11">
      <!-- Augmented Reality -->
      <g transform="translate(-12.532813 227.479219) scale(0.1 -0.1)">
       <defs>
        <path id="DejaVuSans-41" d="M 2188 4044 
L 1331 1722 
L 3047 1722 
L 2188 4044 
z
M 1831 4666 
L 2547 4666 
L 4325 0 
L 3669 0 
L 3244 1197 
L 1141 1197 
L 716 0 
L 50 0 
L 1831 4666 
z
" transform="scale(0.015625)"/>
       </defs>
       <use xlink:href="#DejaVuSans-41"/>
       <use xlink:href="#DejaVuSans-75" x="68.408203"/>
       <use xlink:href="#DejaVuSans-67" x="131.787109"/>
       <use xlink:href="#DejaVuSans-6d" x="195.263672"/>
       <use xlink:href="#DejaVuSans-65" x="292.675781"/>
       <use xlink:href="#DejaVuSans-6e" x="354.199219"/>
       <use xlink:href="#DejaVuSans-74" x="417.578125"/>
       <use xlink:href="#DejaVuSans-65" x="456.787109"/>
       <use xlink:href="#DejaVuSans-64" x="518.310547"/>
       <use xlink:href="#DejaVuSans-20" x="581.787109"/>
       <use xlink:href="#DejaVuSans-52" x="613.574219"/>
       <use xlink:href="#DejaVuSans-65" x="678.556641"/>
       <use xlink:href="#DejaVuSans-61" x="740.080078"/>
       <use xlink:href="#DejaVuSans-6c" x="801.359375"/>
       <use xlink:href="#DejaVuSans-69" x="829.142578"/>
       <use xlink:href="#DejaVuSans-74" x="856.925781"/>
       <use xlink:href="#DejaVuSans-79" x="896.134766"/>
      </g>
     </g>
    </g>
    <g id="ytick_4">
     <g id="line2d_21">
      <path d="M 90 89.28 
L 648 89.28 
" clip-path="url(#pd6b48266bf)" style="fill: none; stroke: #b0b0b0; stroke-width: 0.8; stroke-linecap: square"/>
     </g>
     <g id="line2d_22">
      <g>
       <use xlink:href="#m0dbfb125d0" x="90" y="89.28" style="stroke: #000000; stroke-width: 0.8"/>
      </g>
     </g>
     <g id="text_12">
      <!-- Mirror World -->
      <g transform="translate(21.707812 93.079219) scale(0.1 -0.1)">
       <use xlink:href="#DejaVuSans-4d"/>
       <use xlink:href="#DejaVuSans-69" x="86.279297"/>
       <use xlink:href="#DejaVuSans-72" x="114.0625"/>
       <use xlink:href="#DejaVuSans-72" x="153.425781"/>
       <use xlink:href="#DejaVuSans-6f" x="192.289062"/>
       <use xlink:href="#DejaVuSans-72" x="253.470703"/>
       <use xlink:href="#DejaVuSans-20" x="294.583984"/>
       <use xlink:href="#DejaVuSans-57" x="326.371094"/>
       <use xlink:href="#DejaVuSans-6f" x="419.373047"/>
       <use xlink:href="#DejaVuSans-72" x="480.554688"/>
       <use xlink:href="#DejaVuSans-6c" x="521.667969"/>
       <use xlink:href="#DejaVuSans-64" x="549.451172"/>
      </g>
     </g>
    </g>
    <g id="text_13">
     <!-- metaverse -->
     <g transform="translate(-18.6125 317.62375) rotate(-90) scale(0.1 -0.1)">
      <use xlink:href="#DejaVuSans-6d"/>
      <use xlink:href="#DejaVuSans-65" x="97.412109"/>
      <use xlink:href="#DejaVuSans-74" x="158.935547"/>
      <use xlink:href="#DejaVuSans-61" x="198.144531"/>
      <use xlink:href="#DejaVuSans-76" x="259.423828"/>
      <use xlink:href="#DejaVuSans-65" x="318.603516"/>
      <use xlink:href="#DejaVuSans-72" x="380.126953"/>
      <use xlink:href="#DejaVuSans-73" x="421.240234"/>
      <use xlink:href="#DejaVuSans-65" x="473.339844"/>
     </g>
    </g>
   </g>
   <g id="patch_3">
    <path d="M 90 512.64 
L 90 69.12 
" style="fill: none; stroke: #000000; stroke-width: 0.8; stroke-linejoin: miter; stroke-linecap: square"/>
   </g>
   <g id="patch_4">
    <path d="M 648 512.64 
L 648 69.12 
" style="fill: none; stroke: #000000; stroke-width: 0.8; stroke-linejoin: miter; stroke-linecap: square"/>
   </g>
   <g id="patch_5">
    <path d="M 90 512.64 
L 648 512.64 
" style="fill: none; stroke: #000000; stroke-width: 0.8; stroke-linejoin: miter; stroke-linecap: square"/>
   </g>
   <g id="patch_6">
    <path d="M 90 69.12 
L 648 69.12 
" style="fill: none; stroke: #000000; stroke-width: 0.8; stroke-linejoin: miter; stroke-linecap: square"/>
   </g>
   <g id="text_14">
    <!-- Bubble Chart: strategy vs metaverse by papertype -->
    <g transform="translate(216.140625 63.12) scale(0.12 -0.12)">
     <defs>
      <path id="DejaVuSans-62" d="M 3116 1747 
Q 3116 2381 2855 2742 
Q 2594 3103 2138 3103 
Q 1681 3103 1420 2742 
Q 1159 2381 1159 1747 
Q 1159 1113 1420 752 
Q 1681 391 2138 391 
Q 2594 391 2855 752 
Q 3116 1113 3116 1747 
z
M 1159 2969 
Q 1341 3281 1617 3432 
Q 1894 3584 2278 3584 
Q 2916 3584 3314 3078 
Q 3713 2572 3713 1747 
Q 3713 922 3314 415 
Q 2916 -91 2278 -91 
Q 1894 -91 1617 61 
Q 1341 213 1159 525 
L 1159 0 
L 581 0 
L 581 4863 
L 1159 4863 
L 1159 2969 
z
" transform="scale(0.015625)"/>
      <path id="DejaVuSans-43" d="M 4122 4306 
L 4122 3641 
Q 3803 3938 3442 4084 
Q 3081 4231 2675 4231 
Q 1875 4231 1450 3742 
Q 1025 3253 1025 2328 
Q 1025 1406 1450 917 
Q 1875 428 2675 428 
Q 3081 428 3442 575 
Q 3803 722 4122 1019 
L 4122 359 
Q 3791 134 3420 21 
Q 3050 -91 2638 -91 
Q 1578 -91 968 557 
Q 359 1206 359 2328 
Q 359 3453 968 4101 
Q 1578 4750 2638 4750 
Q 3056 4750 3426 4639 
Q 3797 4528 4122 4306 
z
" transform="scale(0.015625)"/>
      <path id="DejaVuSans-3a" d="M 750 794 
L 1409 794 
L 1409 0 
L 750 0 
L 750 794 
z
M 750 3309 
L 1409 3309 
L 1409 2516 
L 750 2516 
L 750 3309 
z
" transform="scale(0.015625)"/>
     </defs>
     <use xlink:href="#DejaVuSans-42"/>
     <use xlink:href="#DejaVuSans-75" x="68.603516"/>
     <use xlink:href="#DejaVuSans-62" x="131.982422"/>
     <use xlink:href="#DejaVuSans-62" x="195.458984"/>
     <use xlink:href="#DejaVuSans-6c" x="258.935547"/>
     <use xlink:href="#DejaVuSans-65" x="286.71875"/>
     <use xlink:href="#DejaVuSans-20" x="348.242188"/>
     <use xlink:href="#DejaVuSans-43" x="380.029297"/>
     <use xlink:href="#DejaVuSans-68" x="449.853516"/>
     <use xlink:href="#DejaVuSans-61" x="513.232422"/>
     <use xlink:href="#DejaVuSans-72" x="574.511719"/>
     <use xlink:href="#DejaVuSans-74" x="615.625"/>
     <use xlink:href="#DejaVuSans-3a" x="654.833984"/>
     <use xlink:href="#DejaVuSans-20" x="688.525391"/>
     <use xlink:href="#DejaVuSans-73" x="720.3125"/>
     <use xlink:href="#DejaVuSans-74" x="772.412109"/>
     <use xlink:href="#DejaVuSans-72" x="811.621094"/>
     <use xlink:href="#DejaVuSans-61" x="852.734375"/>
     <use xlink:href="#DejaVuSans-74" x="914.013672"/>
     <use xlink:href="#DejaVuSans-65" x="953.222656"/>
     <use xlink:href="#DejaVuSans-67" x="1014.746094"/>
     <use xlink:href="#DejaVuSans-79" x="1078.222656"/>
     <use xlink:href="#DejaVuSans-20" x="1137.402344"/>
     <use xlink:href="#DejaVuSans-76" x="1169.189453"/>
     <use xlink:href="#DejaVuSans-73" x="1228.369141"/>
     <use xlink:href="#DejaVuSans-20" x="1280.46875"/>
     <use xlink:href="#DejaVuSans-6d" x="1312.255859"/>
     <use xlink:href="#DejaVuSans-65" x="1409.667969"/>
     <use xlink:href="#DejaVuSans-74" x="1471.191406"/>
     <use xlink:href="#DejaVuSans-61" x="1510.400391"/>
     <use xlink:href="#DejaVuSans-76" x="1571.679688"/>
     <use xlink:href="#DejaVuSans-65" x="1630.859375"/>
     <use xlink:href="#DejaVuSans-72" x="1692.382812"/>
     <use xlink:href="#DejaVuSans-73" x="1733.496094"/>
     <use xlink:href="#DejaVuSans-65" x="1785.595703"/>
     <use xlink:href="#DejaVuSans-20" x="1847.119141"/>
     <use xlink:href="#DejaVuSans-62" x="1878.90625"/>
     <use xlink:href="#DejaVuSans-79" x="1942.382812"/>
     <use xlink:href="#DejaVuSans-20" x="2001.5625"/>
     <use xlink:href="#DejaVuSans-70" x="2033.349609"/>
     <use xlink:href="#DejaVuSans-61" x="2096.826172"/>
     <use xlink:href="#DejaVuSans-70" x="2158.105469"/>
     <use xlink:href="#DejaVuSans-65" x="2221.582031"/>
     <use xlink:href="#DejaVuSans-72" x="2283.105469"/>
     <use xlink:href="#DejaVuSans-74" x="2324.21875"/>
     <use xlink:href="#DejaVuSans-79" x="2363.427734"/>
     <use xlink:href="#DejaVuSans-70" x="2422.607422"/>
     <use xlink:href="#DejaVuSans-65" x="2486.083984"/>
    </g>
   </g>
   <g id="legend_1">
    <g id="patch_7">
     <path d="M 553.125 165.18875 
L 641 165.18875 
Q 643 165.18875 643 163.18875 
L 643 76.12 
Q 643 74.12 641 74.12 
L 553.125 74.12 
Q 551.125 74.12 551.125 76.12 
L 551.125 163.18875 
Q 551.125 165.18875 553.125 165.18875 
z
" style="fill: #ffffff; opacity: 0.8; stroke: #cccccc; stroke-linejoin: miter"/>
    </g>
    <g id="text_15">
     <!-- Papertype -->
     <g transform="translate(571.732031 85.718438) scale(0.1 -0.1)">
      <defs>
       <path id="DejaVuSans-50" d="M 1259 4147 
L 1259 2394 
L 2053 2394 
Q 2494 2394 2734 2622 
Q 2975 2850 2975 3272 
Q 2975 3691 2734 3919 
Q 2494 4147 2053 4147 
L 1259 4147 
z
M 628 4666 
L 2053 4666 
Q 2838 4666 3239 4311 
Q 3641 3956 3641 3272 
Q 3641 2581 3239 2228 
Q 2838 1875 2053 1875 
L 1259 1875 
L 1259 0 
L 628 0 
L 628 4666 
z
" transform="scale(0.015625)"/>
      </defs>
      <use xlink:href="#DejaVuSans-50"/>
      <use xlink:href="#DejaVuSans-61" x="55.802734"/>
      <use xlink:href="#DejaVuSans-70" x="117.082031"/>
      <use xlink:href="#DejaVuSans-65" x="180.558594"/>
      <use xlink:href="#DejaVuSans-72" x="242.082031"/>
      <use xlink:href="#DejaVuSans-74" x="283.195312"/>
      <use xlink:href="#DejaVuSans-79" x="322.404297"/>
      <use xlink:href="#DejaVuSans-70" x="381.583984"/>
      <use xlink:href="#DejaVuSans-65" x="445.060547"/>
     </g>
    </g>
    <g id="line2d_23">
     <path d="M 555.125 96.896563 
L 565.125 96.896563 
L 575.125 96.896563 
" style="fill: none; stroke: #ffffff; stroke-width: 1.5; stroke-linecap: square"/>
     <defs>
      <path id="mbeaef1c197" d="M 0 5 
C 1.326016 5 2.597899 4.473168 3.535534 3.535534 
C 4.473168 2.597899 5 1.326016 5 0 
C 5 -1.326016 4.473168 -2.597899 3.535534 -3.535534 
C 2.597899 -4.473168 1.326016 -5 0 -5 
C -1.326016 -5 -2.597899 -4.473168 -3.535534 -3.535534 
C -4.473168 -2.597899 -5 -1.326016 -5 0 
C -5 1.326016 -4.473168 2.597899 -3.535534 3.535534 
C -2.597899 4.473168 -1.326016 5 0 5 
z
" style="stroke: #ffffff"/>
     </defs>
     <g>
      <use xlink:href="#mbeaef1c197" x="565.125" y="96.896563" style="fill: #0000ff; stroke: #ffffff"/>
     </g>
    </g>
    <g id="text_16">
     <!-- Application -->
     <g transform="translate(583.125 100.396563) scale(0.1 -0.1)">
      <use xlink:href="#DejaVuSans-41"/>
      <use xlink:href="#DejaVuSans-70" x="68.408203"/>
      <use xlink:href="#DejaVuSans-70" x="131.884766"/>
      <use xlink:href="#DejaVuSans-6c" x="195.361328"/>
      <use xlink:href="#DejaVuSans-69" x="223.144531"/>
      <use xlink:href="#DejaVuSans-63" x="250.927734"/>
      <use xlink:href="#DejaVuSans-61" x="305.908203"/>
      <use xlink:href="#DejaVuSans-74" x="367.1875"/>
      <use xlink:href="#DejaVuSans-69" x="406.396484"/>
      <use xlink:href="#DejaVuSans-6f" x="434.179688"/>
      <use xlink:href="#DejaVuSans-6e" x="495.361328"/>
     </g>
    </g>
    <g id="line2d_24">
     <path d="M 555.125 111.574688 
L 565.125 111.574688 
L 575.125 111.574688 
" style="fill: none; stroke: #ffffff; stroke-width: 1.5; stroke-linecap: square"/>
     <defs>
      <path id="me7f9287a47" d="M 0 5 
C 1.326016 5 2.597899 4.473168 3.535534 3.535534 
C 4.473168 2.597899 5 1.326016 5 0 
C 5 -1.326016 4.473168 -2.597899 3.535534 -3.535534 
C 2.597899 -4.473168 1.326016 -5 0 -5 
C -1.326016 -5 -2.597899 -4.473168 -3.535534 -3.535534 
C -4.473168 -2.597899 -5 -1.326016 -5 0 
C -5 1.326016 -4.473168 2.597899 -3.535534 3.535534 
C -2.597899 4.473168 -1.326016 5 0 5 
z
" style="stroke: #ffffff"/>
     </defs>
     <g>
      <use xlink:href="#me7f9287a47" x="565.125" y="111.574688" style="fill: #008000; stroke: #ffffff"/>
     </g>
    </g>
    <g id="text_17">
     <!-- Evaluation -->
     <g transform="translate(583.125 115.074688) scale(0.1 -0.1)">
      <use xlink:href="#DejaVuSans-45"/>
      <use xlink:href="#DejaVuSans-76" x="63.183594"/>
      <use xlink:href="#DejaVuSans-61" x="122.363281"/>
      <use xlink:href="#DejaVuSans-6c" x="183.642578"/>
      <use xlink:href="#DejaVuSans-75" x="211.425781"/>
      <use xlink:href="#DejaVuSans-61" x="274.804688"/>
      <use xlink:href="#DejaVuSans-74" x="336.083984"/>
      <use xlink:href="#DejaVuSans-69" x="375.292969"/>
      <use xlink:href="#DejaVuSans-6f" x="403.076172"/>
      <use xlink:href="#DejaVuSans-6e" x="464.257812"/>
     </g>
    </g>
    <g id="line2d_25">
     <path d="M 555.125 126.252813 
L 565.125 126.252813 
L 575.125 126.252813 
" style="fill: none; stroke: #ffffff; stroke-width: 1.5; stroke-linecap: square"/>
     <defs>
      <path id="m67e77b98c6" d="M 0 5 
C 1.326016 5 2.597899 4.473168 3.535534 3.535534 
C 4.473168 2.597899 5 1.326016 5 0 
C 5 -1.326016 4.473168 -2.597899 3.535534 -3.535534 
C 2.597899 -4.473168 1.326016 -5 0 -5 
C -1.326016 -5 -2.597899 -4.473168 -3.535534 -3.535534 
C -4.473168 -2.597899 -5 -1.326016 -5 0 
C -5 1.326016 -4.473168 2.597899 -3.535534 3.535534 
C -2.597899 4.473168 -1.326016 5 0 5 
z
" style="stroke: #ffffff"/>
     </defs>
     <g>
      <use xlink:href="#m67e77b98c6" x="565.125" y="126.252813" style="fill: #ff0000; stroke: #ffffff"/>
     </g>
    </g>
    <g id="text_18">
     <!-- Model -->
     <g transform="translate(583.125 129.752813) scale(0.1 -0.1)">
      <use xlink:href="#DejaVuSans-4d"/>
      <use xlink:href="#DejaVuSans-6f" x="86.279297"/>
      <use xlink:href="#DejaVuSans-64" x="147.460938"/>
      <use xlink:href="#DejaVuSans-65" x="210.9375"/>
      <use xlink:href="#DejaVuSans-6c" x="272.460938"/>
     </g>
    </g>
    <g id="line2d_26">
     <path d="M 555.125 140.930938 
L 565.125 140.930938 
L 575.125 140.930938 
" style="fill: none; stroke: #ffffff; stroke-width: 1.5; stroke-linecap: square"/>
     <defs>
      <path id="maf3f875440" d="M 0 5 
C 1.326016 5 2.597899 4.473168 3.535534 3.535534 
C 4.473168 2.597899 5 1.326016 5 0 
C 5 -1.326016 4.473168 -2.597899 3.535534 -3.535534 
C 2.597899 -4.473168 1.326016 -5 0 -5 
C -1.326016 -5 -2.597899 -4.473168 -3.535534 -3.535534 
C -4.473168 -2.597899 -5 -1.326016 -5 0 
C -5 1.326016 -4.473168 2.597899 -3.535534 3.535534 
C -2.597899 4.473168 -1.326016 5 0 5 
z
" style="stroke: #ffffff"/>
     </defs>
     <g>
      <use xlink:href="#maf3f875440" x="565.125" y="140.930938" style="fill: #800080; stroke: #ffffff"/>
     </g>
    </g>
    <g id="text_19">
     <!-- System -->
     <g transform="translate(583.125 144.430938) scale(0.1 -0.1)">
      <use xlink:href="#DejaVuSans-53"/>
      <use xlink:href="#DejaVuSans-79" x="63.476562"/>
      <use xlink:href="#DejaVuSans-73" x="122.65625"/>
      <use xlink:href="#DejaVuSans-74" x="174.755859"/>
      <use xlink:href="#DejaVuSans-65" x="213.964844"/>
      <use xlink:href="#DejaVuSans-6d" x="275.488281"/>
     </g>
    </g>
    <g id="line2d_27">
     <path d="M 555.125 155.609063 
L 565.125 155.609063 
L 575.125 155.609063 
" style="fill: none; stroke: #ffffff; stroke-width: 1.5; stroke-linecap: square"/>
     <defs>
      <path id="mcd03d6630d" d="M 0 5 
C 1.326016 5 2.597899 4.473168 3.535534 3.535534 
C 4.473168 2.597899 5 1.326016 5 0 
C 5 -1.326016 4.473168 -2.597899 3.535534 -3.535534 
C 2.597899 -4.473168 1.326016 -5 0 -5 
C -1.326016 -5 -2.597899 -4.473168 -3.535534 -3.535534 
C -4.473168 -2.597899 -5 -1.326016 -5 0 
C -5 1.326016 -4.473168 2.597899 -3.535534 3.535534 
C -2.597899 4.473168 -1.326016 5 0 5 
z
" style="stroke: #ffffff"/>
     </defs>
     <g>
      <use xlink:href="#mcd03d6630d" x="565.125" y="155.609063" style="fill: #00ffff; stroke: #ffffff"/>
     </g>
    </g>
    <g id="text_20">
     <!-- Technique -->
     <g transform="translate(583.125 159.109063) scale(0.1 -0.1)">
      <defs>
       <path id="DejaVuSans-54" d="M -19 4666 
L 3928 4666 
L 3928 4134 
L 2272 4134 
L 2272 0 
L 1638 0 
L 1638 4134 
L -19 4134 
L -19 4666 
z
" transform="scale(0.015625)"/>
       <path id="DejaVuSans-71" d="M 947 1747 
Q 947 1113 1208 752 
Q 1469 391 1925 391 
Q 2381 391 2643 752 
Q 2906 1113 2906 1747 
Q 2906 2381 2643 2742 
Q 2381 3103 1925 3103 
Q 1469 3103 1208 2742 
Q 947 2381 947 1747 
z
M 2906 525 
Q 2725 213 2448 61 
Q 2172 -91 1784 -91 
Q 1150 -91 751 415 
Q 353 922 353 1747 
Q 353 2572 751 3078 
Q 1150 3584 1784 3584 
Q 2172 3584 2448 3432 
Q 2725 3281 2906 2969 
L 2906 3500 
L 3481 3500 
L 3481 -1331 
L 2906 -1331 
L 2906 525 
z
" transform="scale(0.015625)"/>
      </defs>
      <use xlink:href="#DejaVuSans-54"/>
      <use xlink:href="#DejaVuSans-65" x="44.083984"/>
      <use xlink:href="#DejaVuSans-63" x="105.607422"/>
      <use xlink:href="#DejaVuSans-68" x="160.587891"/>
      <use xlink:href="#DejaVuSans-6e" x="223.966797"/>
      <use xlink:href="#DejaVuSans-69" x="287.345703"/>
      <use xlink:href="#DejaVuSans-71" x="315.128906"/>
      <use xlink:href="#DejaVuSans-75" x="378.605469"/>
      <use xlink:href="#DejaVuSans-65" x="441.984375"/>
     </g>
    </g>
   </g>
  </g>
 </g>
 <defs>
  <clipPath id="pd6b48266bf">
   <rect x="90" y="69.12" width="558" height="443.52"/>
  </clipPath>
 </defs>
</svg>
