<?xml version="1.0" encoding="utf-8" standalone="no"?>
<!DOCTYPE svg PUBLIC "-//W3C//DTD SVG 1.1//EN"
  "http://www.w3.org/Graphics/SVG/1.1/DTD/svg11.dtd">
<svg xmlns:xlink="http://www.w3.org/1999/xlink" width="720pt" height="576pt" viewBox="0 0 720 576" xmlns="http://www.w3.org/2000/svg" version="1.1">
 <metadata>
  <rdf:RDF xmlns:dc="http://purl.org/dc/elements/1.1/" xmlns:cc="http://creativecommons.org/ns#" xmlns:rdf="http://www.w3.org/1999/02/22-rdf-syntax-ns#">
   <cc:Work>
    <dc:type rdf:resource="http://purl.org/dc/dcmitype/StillImage"/>
    <dc:date>2024-09-02T12:50:13.203813</dc:date>
    <dc:format>image/svg+xml</dc:format>
    <dc:creator>
     <cc:Agent>
      <dc:title>Matplotlib v3.8.2, https://matplotlib.org/</dc:title>
     </cc:Agent>
    </dc:creator>
   </cc:Work>
  </rdf:RDF>
 </metadata>
 <defs>
  <style type="text/css">*{stroke-linejoin: round; stroke-linecap: butt}</style>
 </defs>
 <g id="figure_1">
  <g id="patch_1">
   <path d="M 0 576 
L 720 576 
L 720 0 
L 0 0 
z
" style="fill: #ffffff"/>
  </g>
  <g id="axes_1">
   <g id="patch_2">
    <path d="M 90 512.64 
L 648 512.64 
L 648 69.12 
L 90 69.12 
z
" style="fill: #ffffff"/>
   </g>
   <g id="PathCollection_1">
    <path d="M 115.363636 497.48 
C 116.689652 497.48 117.961536 496.953168 118.89917 496.015534 
C 119.836805 495.077899 120.363636 493.806016 120.363636 492.48 
C 120.363636 491.153985 119.836805 489.882101 118.89917 488.944466 
C 117.961536 488.006832 116.689652 487.48 115.363636 487.48 
C 114.037621 487.48 112.765737 488.006832 111.828102 488.944466 
C 110.890468 489.882101 110.363636 491.153985 110.363636 492.48 
C 110.363636 493.806016 110.890468 495.077899 111.828102 496.015534 
C 112.765737 496.953168 114.037621 497.48 115.363636 497.48 
z
" clip-path="url(#p463193632d)" style="fill: #808080; fill-opacity: 0.6; stroke: #ffffff; stroke-opacity: 0.6; stroke-width: 2"/>
    <path d="M 115.363636 506.622136 
C 119.114175 506.622136 122.711605 505.132031 125.363636 502.48 
C 128.015667 499.827969 129.505772 496.230538 129.505772 492.48 
C 129.505772 488.729462 128.015667 485.132031 125.363636 482.48 
C 122.711605 479.827969 119.114175 478.337864 115.363636 478.337864 
C 111.613098 478.337864 108.015667 479.827969 105.363636 482.48 
C 102.711605 485.132031 101.221501 488.729462 101.221501 492.48 
C 101.221501 496.230538 102.711605 499.827969 105.363636 502.48 
C 108.015667 505.132031 111.613098 506.622136 115.363636 506.622136 
z
" clip-path="url(#p463193632d)" style="fill: #808080; fill-opacity: 0.6; stroke: #ffffff; stroke-opacity: 0.6; stroke-width: 2"/>
    <path d="M 115.363636 430.28 
C 116.689652 430.28 117.961536 429.753168 118.89917 428.815534 
C 119.836805 427.877899 120.363636 426.606015 120.363636 425.28 
C 120.363636 423.953984 119.836805 422.682101 118.89917 421.744466 
C 117.961536 420.806832 116.689652 420.28 115.363636 420.28 
C 114.037621 420.28 112.765737 420.806832 111.828102 421.744466 
C 110.890468 422.682101 110.363636 423.953984 110.363636 425.28 
C 110.363636 426.606015 110.890468 427.877899 111.828102 428.815534 
C 112.765737 429.753168 114.037621 430.28 115.363636 430.28 
z
" clip-path="url(#p463193632d)" style="fill: #808080; fill-opacity: 0.6; stroke: #ffffff; stroke-opacity: 0.6; stroke-width: 2"/>
    <path d="M 115.363636 365.151068 
C 117.238905 365.151068 119.037621 364.406015 120.363636 363.08 
C 121.689652 361.753985 122.434704 359.955269 122.434704 358.08 
C 122.434704 356.204731 121.689652 354.406015 120.363636 353.08 
C 119.037621 351.753985 117.238905 351.008932 115.363636 351.008932 
C 113.488367 351.008932 111.689652 351.753985 110.363636 353.08 
C 109.037621 354.406015 108.292569 356.204731 108.292569 358.08 
C 108.292569 359.955269 109.037621 361.753985 110.363636 363.08 
C 111.689652 364.406015 113.488367 365.151068 115.363636 365.151068 
z
" clip-path="url(#p463193632d)" style="fill: #808080; fill-opacity: 0.6; stroke: #ffffff; stroke-opacity: 0.6; stroke-width: 2"/>
    <path d="M 115.363636 295.88 
C 116.689652 295.88 117.961536 295.353168 118.89917 294.415534 
C 119.836805 293.477899 120.363636 292.206015 120.363636 290.88 
C 120.363636 289.553985 119.836805 288.282101 118.89917 287.344466 
C 117.961536 286.406832 116.689652 285.88 115.363636 285.88 
C 114.037621 285.88 112.765737 286.406832 111.828102 287.344466 
C 110.890468 288.282101 110.363636 289.553985 110.363636 290.88 
C 110.363636 292.206015 110.890468 293.477899 111.828102 294.415534 
C 112.765737 295.353168 114.037621 295.88 115.363636 295.88 
z
" clip-path="url(#p463193632d)" style="fill: #808080; fill-opacity: 0.6; stroke: #ffffff; stroke-opacity: 0.6; stroke-width: 2"/>
    <path d="M 115.363636 299.540254 
C 117.660363 299.540254 119.86333 298.627755 121.487361 297.003724 
C 123.111391 295.379694 124.02389 293.176726 124.02389 290.88 
C 124.02389 288.583274 123.111391 286.380306 121.487361 284.756276 
C 119.86333 283.132245 117.660363 282.219746 115.363636 282.219746 
C 113.06691 282.219746 110.863943 283.132245 109.239912 284.756276 
C 107.615881 286.380306 106.703382 288.583274 106.703382 290.88 
C 106.703382 293.176726 107.615881 295.379694 109.239912 297.003724 
C 110.863943 298.627755 113.06691 299.540254 115.363636 299.540254 
z
" clip-path="url(#p463193632d)" style="fill: #808080; fill-opacity: 0.6; stroke: #ffffff; stroke-opacity: 0.6; stroke-width: 2"/>
    <path d="M 115.363636 232.340254 
C 117.660363 232.340254 119.86333 231.427755 121.487361 229.803724 
C 123.111391 228.179694 124.02389 225.976726 124.02389 223.68 
C 124.02389 221.383274 123.111391 219.180306 121.487361 217.556276 
C 119.86333 215.932245 117.660363 215.019746 115.363636 215.019746 
C 113.06691 215.019746 110.863943 215.932245 109.239912 217.556276 
C 107.615881 219.180306 106.703382 221.383274 106.703382 223.68 
C 106.703382 225.976726 107.615881 228.179694 109.239912 229.803724 
C 110.863943 231.427755 113.06691 232.340254 115.363636 232.340254 
z
" clip-path="url(#p463193632d)" style="fill: #808080; fill-opacity: 0.6; stroke: #ffffff; stroke-opacity: 0.6; stroke-width: 2"/>
    <path d="M 115.363636 232.340254 
C 117.660363 232.340254 119.86333 231.427755 121.487361 229.803724 
C 123.111391 228.179694 124.02389 225.976726 124.02389 223.68 
C 124.02389 221.383274 123.111391 219.180306 121.487361 217.556276 
C 119.86333 215.932245 117.660363 215.019746 115.363636 215.019746 
C 113.06691 215.019746 110.863943 215.932245 109.239912 217.556276 
C 107.615881 219.180306 106.703382 221.383274 106.703382 223.68 
C 106.703382 225.976726 107.615881 228.179694 109.239912 229.803724 
C 110.863943 231.427755 113.06691 232.340254 115.363636 232.340254 
z
" clip-path="url(#p463193632d)" style="fill: #808080; fill-opacity: 0.6; stroke: #ffffff; stroke-opacity: 0.6; stroke-width: 2"/>
    <path d="M 115.363636 232.340254 
C 117.660363 232.340254 119.86333 231.427755 121.487361 229.803724 
C 123.111391 228.179694 124.02389 225.976726 124.02389 223.68 
C 124.02389 221.383274 123.111391 219.180306 121.487361 217.556276 
C 119.86333 215.932245 117.660363 215.019746 115.363636 215.019746 
C 113.06691 215.019746 110.863943 215.932245 109.239912 217.556276 
C 107.615881 219.180306 106.703382 221.383274 106.703382 223.68 
C 106.703382 225.976726 107.615881 228.179694 109.239912 229.803724 
C 110.863943 231.427755 113.06691 232.340254 115.363636 232.340254 
z
" clip-path="url(#p463193632d)" style="fill: #808080; fill-opacity: 0.6; stroke: #ffffff; stroke-opacity: 0.6; stroke-width: 2"/>
    <path d="M 115.363636 239.491388 
C 119.556866 239.491388 123.578915 237.825401 126.543976 234.86034 
C 129.509037 231.895279 131.175025 227.873229 131.175025 223.68 
C 131.175025 219.486771 129.509037 215.464721 126.543976 212.49966 
C 123.578915 209.534599 119.556866 207.868612 115.363636 207.868612 
C 111.170407 207.868612 107.148357 209.534599 104.183296 212.49966 
C 101.218236 215.464721 99.552248 219.486771 99.552248 223.68 
C 99.552248 227.873229 101.218236 231.895279 104.183296 234.86034 
C 107.148357 237.825401 111.170407 239.491388 115.363636 239.491388 
z
" clip-path="url(#p463193632d)" style="fill: #808080; fill-opacity: 0.6; stroke: #ffffff; stroke-opacity: 0.6; stroke-width: 2"/>
    <path d="M 115.363636 167.66034 
C 118.328697 167.66034 121.172716 166.482309 123.269331 164.385694 
C 125.365945 162.28908 126.543976 159.445061 126.543976 156.48 
C 126.543976 153.514939 125.365945 150.67092 123.269331 148.574306 
C 121.172716 146.477691 118.328697 145.29966 115.363636 145.29966 
C 112.398576 145.29966 109.554557 146.477691 107.457942 148.574306 
C 105.361328 150.67092 104.183296 153.514939 104.183296 156.48 
C 104.183296 159.445061 105.361328 162.28908 107.457942 164.385694 
C 109.554557 166.482309 112.398576 167.66034 115.363636 167.66034 
z
" clip-path="url(#p463193632d)" style="fill: #808080; fill-opacity: 0.6; stroke: #ffffff; stroke-opacity: 0.6; stroke-width: 2"/>
    <path d="M 115.363636 165.140254 
C 117.660363 165.140254 119.86333 164.227755 121.487361 162.603724 
C 123.111391 160.979694 124.02389 158.776726 124.02389 156.48 
C 124.02389 154.183274 123.111391 151.980306 121.487361 150.356276 
C 119.86333 148.732245 117.660363 147.819746 115.363636 147.819746 
C 113.06691 147.819746 110.863943 148.732245 109.239912 150.356276 
C 107.615881 151.980306 106.703382 154.183274 106.703382 156.48 
C 106.703382 158.776726 107.615881 160.979694 109.239912 162.603724 
C 110.863943 164.227755 113.06691 165.140254 115.363636 165.140254 
z
" clip-path="url(#p463193632d)" style="fill: #808080; fill-opacity: 0.6; stroke: #ffffff; stroke-opacity: 0.6; stroke-width: 2"/>
    <path d="M 115.363636 165.140254 
C 117.660363 165.140254 119.86333 164.227755 121.487361 162.603724 
C 123.111391 160.979694 124.02389 158.776726 124.02389 156.48 
C 124.02389 154.183274 123.111391 151.980306 121.487361 150.356276 
C 119.86333 148.732245 117.660363 147.819746 115.363636 147.819746 
C 113.06691 147.819746 110.863943 148.732245 109.239912 150.356276 
C 107.615881 151.980306 106.703382 154.183274 106.703382 156.48 
C 106.703382 158.776726 107.615881 160.979694 109.239912 162.603724 
C 110.863943 164.227755 113.06691 165.140254 115.363636 165.140254 
z
" clip-path="url(#p463193632d)" style="fill: #808080; fill-opacity: 0.6; stroke: #ffffff; stroke-opacity: 0.6; stroke-width: 2"/>
    <path d="M 115.363636 96.351068 
C 117.238905 96.351068 119.037621 95.606015 120.363636 94.28 
C 121.689652 92.953984 122.434704 91.155269 122.434704 89.28 
C 122.434704 87.404731 121.689652 85.606015 120.363636 84.28 
C 119.037621 82.953984 117.238905 82.208932 115.363636 82.208932 
C 113.488367 82.208932 111.689652 82.953984 110.363636 84.28 
C 109.037621 85.606015 108.292569 87.404731 108.292569 89.28 
C 108.292569 91.155269 109.037621 92.953984 110.363636 94.28 
C 111.689652 95.606015 113.488367 96.351068 115.363636 96.351068 
z
" clip-path="url(#p463193632d)" style="fill: #808080; fill-opacity: 0.6; stroke: #ffffff; stroke-opacity: 0.6; stroke-width: 2"/>
    <path d="M 115.363636 96.351068 
C 117.238905 96.351068 119.037621 95.606015 120.363636 94.28 
C 121.689652 92.953984 122.434704 91.155269 122.434704 89.28 
C 122.434704 87.404731 121.689652 85.606015 120.363636 84.28 
C 119.037621 82.953984 117.238905 82.208932 115.363636 82.208932 
C 113.488367 82.208932 111.689652 82.953984 110.363636 84.28 
C 109.037621 85.606015 108.292569 87.404731 108.292569 89.28 
C 108.292569 91.155269 109.037621 92.953984 110.363636 94.28 
C 111.689652 95.606015 113.488367 96.351068 115.363636 96.351068 
z
" clip-path="url(#p463193632d)" style="fill: #808080; fill-opacity: 0.6; stroke: #ffffff; stroke-opacity: 0.6; stroke-width: 2"/>
    <path d="M 199.909091 499.551068 
C 201.78436 499.551068 203.583075 498.806016 204.909091 497.48 
C 206.235106 496.153985 206.980159 494.355269 206.980159 492.48 
C 206.980159 490.604731 206.235106 488.806016 204.909091 487.48 
C 203.583075 486.153985 201.78436 485.408932 199.909091 485.408932 
C 198.033822 485.408932 196.235106 486.153985 194.909091 487.48 
C 193.583075 488.806016 192.838023 490.604731 192.838023 492.48 
C 192.838023 494.355269 193.583075 496.153985 194.909091 497.48 
C 196.235106 498.806016 198.033822 499.551068 199.909091 499.551068 
z
" clip-path="url(#p463193632d)" style="fill: #808080; fill-opacity: 0.6; stroke: #ffffff; stroke-opacity: 0.6; stroke-width: 2"/>
    <path d="M 199.909091 501.140254 
C 202.205817 501.140254 204.408785 500.227755 206.032815 498.603724 
C 207.656846 496.979694 208.569345 494.776726 208.569345 492.48 
C 208.569345 490.183274 207.656846 487.980306 206.032815 486.356276 
C 204.408785 484.732245 202.205817 483.819746 199.909091 483.819746 
C 197.612365 483.819746 195.409397 484.732245 193.785367 486.356276 
C 192.161336 487.980306 191.248837 490.183274 191.248837 492.48 
C 191.248837 494.776726 192.161336 496.979694 193.785367 498.603724 
C 195.409397 500.227755 197.612365 501.140254 199.909091 501.140254 
z
" clip-path="url(#p463193632d)" style="fill: #808080; fill-opacity: 0.6; stroke: #ffffff; stroke-opacity: 0.6; stroke-width: 2"/>
    <path d="M 199.909091 497.48 
C 201.235106 497.48 202.50699 496.953168 203.444625 496.015534 
C 204.382259 495.077899 204.909091 493.806016 204.909091 492.48 
C 204.909091 491.153985 204.382259 489.882101 203.444625 488.944466 
C 202.50699 488.006832 201.235106 487.48 199.909091 487.48 
C 198.583075 487.48 197.311192 488.006832 196.373557 488.944466 
C 195.435922 489.882101 194.909091 491.153985 194.909091 492.48 
C 194.909091 493.806016 195.435922 495.077899 196.373557 496.015534 
C 197.311192 496.953168 198.583075 497.48 199.909091 497.48 
z
" clip-path="url(#p463193632d)" style="fill: #808080; fill-opacity: 0.6; stroke: #ffffff; stroke-opacity: 0.6; stroke-width: 2"/>
    <path d="M 199.909091 432.351068 
C 201.78436 432.351068 203.583075 431.606015 204.909091 430.28 
C 206.235106 428.953984 206.980159 427.155269 206.980159 425.28 
C 206.980159 423.404731 206.235106 421.606015 204.909091 420.28 
C 203.583075 418.953984 201.78436 418.208932 199.909091 418.208932 
C 198.033822 418.208932 196.235106 418.953984 194.909091 420.28 
C 193.583075 421.606015 192.838023 423.404731 192.838023 425.28 
C 192.838023 427.155269 193.583075 428.953984 194.909091 430.28 
C 196.235106 431.606015 198.033822 432.351068 199.909091 432.351068 
z
" clip-path="url(#p463193632d)" style="fill: #808080; fill-opacity: 0.6; stroke: #ffffff; stroke-opacity: 0.6; stroke-width: 2"/>
    <path d="M 199.909091 437.527449 
C 203.157152 437.527449 206.272619 436.23698 208.569345 433.940254 
C 210.866071 431.643528 212.15654 428.528061 212.15654 425.28 
C 212.15654 422.031939 210.866071 418.916472 208.569345 416.619746 
C 206.272619 414.32302 203.157152 413.032551 199.909091 413.032551 
C 196.66103 413.032551 193.545563 414.32302 191.248837 416.619746 
C 188.952111 418.916472 187.661642 422.031939 187.661642 425.28 
C 187.661642 428.528061 188.952111 431.643528 191.248837 433.940254 
C 193.545563 436.23698 196.66103 437.527449 199.909091 437.527449 
z
" clip-path="url(#p463193632d)" style="fill: #808080; fill-opacity: 0.6; stroke: #ffffff; stroke-opacity: 0.6; stroke-width: 2"/>
    <path d="M 199.909091 363.08 
C 201.235106 363.08 202.50699 362.553168 203.444625 361.615534 
C 204.382259 360.677899 204.909091 359.406015 204.909091 358.08 
C 204.909091 356.753985 204.382259 355.482101 203.444625 354.544466 
C 202.50699 353.606832 201.235106 353.08 199.909091 353.08 
C 198.583075 353.08 197.311192 353.606832 196.373557 354.544466 
C 195.435922 355.482101 194.909091 356.753985 194.909091 358.08 
C 194.909091 359.406015 195.435922 360.677899 196.373557 361.615534 
C 197.311192 362.553168 198.583075 363.08 199.909091 363.08 
z
" clip-path="url(#p463193632d)" style="fill: #808080; fill-opacity: 0.6; stroke: #ffffff; stroke-opacity: 0.6; stroke-width: 2"/>
    <path d="M 199.909091 365.151068 
C 201.78436 365.151068 203.583075 364.406015 204.909091 363.08 
C 206.235106 361.753985 206.980159 359.955269 206.980159 358.08 
C 206.980159 356.204731 206.235106 354.406015 204.909091 353.08 
C 203.583075 351.753985 201.78436 351.008932 199.909091 351.008932 
C 198.033822 351.008932 196.235106 351.753985 194.909091 353.08 
C 193.583075 354.406015 192.838023 356.204731 192.838023 358.08 
C 192.838023 359.955269 193.583075 361.753985 194.909091 363.08 
C 196.235106 364.406015 198.033822 365.151068 199.909091 365.151068 
z
" clip-path="url(#p463193632d)" style="fill: #808080; fill-opacity: 0.6; stroke: #ffffff; stroke-opacity: 0.6; stroke-width: 2"/>
    <path d="M 199.909091 295.88 
C 201.235106 295.88 202.50699 295.353168 203.444625 294.415534 
C 204.382259 293.477899 204.909091 292.206015 204.909091 290.88 
C 204.909091 289.553985 204.382259 288.282101 203.444625 287.344466 
C 202.50699 286.406832 201.235106 285.88 199.909091 285.88 
C 198.583075 285.88 197.311192 286.406832 196.373557 287.344466 
C 195.435922 288.282101 194.909091 289.553985 194.909091 290.88 
C 194.909091 292.206015 195.435922 293.477899 196.373557 294.415534 
C 197.311192 295.353168 198.583075 295.88 199.909091 295.88 
z
" clip-path="url(#p463193632d)" style="fill: #808080; fill-opacity: 0.6; stroke: #ffffff; stroke-opacity: 0.6; stroke-width: 2"/>
    <path d="M 199.909091 295.88 
C 201.235106 295.88 202.50699 295.353168 203.444625 294.415534 
C 204.382259 293.477899 204.909091 292.206015 204.909091 290.88 
C 204.909091 289.553985 204.382259 288.282101 203.444625 287.344466 
C 202.50699 286.406832 201.235106 285.88 199.909091 285.88 
C 198.583075 285.88 197.311192 286.406832 196.373557 287.344466 
C 195.435922 288.282101 194.909091 289.553985 194.909091 290.88 
C 194.909091 292.206015 195.435922 293.477899 196.373557 294.415534 
C 197.311192 295.353168 198.583075 295.88 199.909091 295.88 
z
" clip-path="url(#p463193632d)" style="fill: #808080; fill-opacity: 0.6; stroke: #ffffff; stroke-opacity: 0.6; stroke-width: 2"/>
    <path d="M 199.909091 233.68 
C 202.561122 233.68 205.10489 232.626337 206.980159 230.751068 
C 208.855428 228.875799 209.909091 226.332031 209.909091 223.68 
C 209.909091 221.027969 208.855428 218.484201 206.980159 216.608932 
C 205.10489 214.733663 202.561122 213.68 199.909091 213.68 
C 197.25706 213.68 194.713292 214.733663 192.838023 216.608932 
C 190.962754 218.484201 189.909091 221.027969 189.909091 223.68 
C 189.909091 226.332031 190.962754 228.875799 192.838023 230.751068 
C 194.713292 232.626337 197.25706 233.68 199.909091 233.68 
z
" clip-path="url(#p463193632d)" style="fill: #808080; fill-opacity: 0.6; stroke: #ffffff; stroke-opacity: 0.6; stroke-width: 2"/>
    <path d="M 199.909091 238.68 
C 203.887137 238.68 207.702789 237.099505 210.515693 234.286602 
C 213.328596 231.473698 214.909091 227.658047 214.909091 223.68 
C 214.909091 219.701954 213.328596 215.886302 210.515693 213.073398 
C 207.702789 210.260495 203.887137 208.68 199.909091 208.68 
C 195.931044 208.68 192.115393 210.260495 189.302489 213.073398 
C 186.489586 215.886302 184.909091 219.701954 184.909091 223.68 
C 184.909091 227.658047 186.489586 231.473698 189.302489 234.286602 
C 192.115393 237.099505 195.931044 238.68 199.909091 238.68 
z
" clip-path="url(#p463193632d)" style="fill: #808080; fill-opacity: 0.6; stroke: #ffffff; stroke-opacity: 0.6; stroke-width: 2"/>
    <path d="M 199.909091 232.340254 
C 202.205817 232.340254 204.408785 231.427755 206.032815 229.803724 
C 207.656846 228.179694 208.569345 225.976726 208.569345 223.68 
C 208.569345 221.383274 207.656846 219.180306 206.032815 217.556276 
C 204.408785 215.932245 202.205817 215.019746 199.909091 215.019746 
C 197.612365 215.019746 195.409397 215.932245 193.785367 217.556276 
C 192.161336 219.180306 191.248837 221.383274 191.248837 223.68 
C 191.248837 225.976726 192.161336 228.179694 193.785367 229.803724 
C 195.409397 231.427755 197.612365 232.340254 199.909091 232.340254 
z
" clip-path="url(#p463193632d)" style="fill: #808080; fill-opacity: 0.6; stroke: #ffffff; stroke-opacity: 0.6; stroke-width: 2"/>
    <path d="M 199.909091 161.48 
C 201.235106 161.48 202.50699 160.953168 203.444625 160.015534 
C 204.382259 159.077899 204.909091 157.806016 204.909091 156.48 
C 204.909091 155.153985 204.382259 153.882101 203.444625 152.944466 
C 202.50699 152.006832 201.235106 151.48 199.909091 151.48 
C 198.583075 151.48 197.311192 152.006832 196.373557 152.944466 
C 195.435922 153.882101 194.909091 155.153985 194.909091 156.48 
C 194.909091 157.806016 195.435922 159.077899 196.373557 160.015534 
C 197.311192 160.953168 198.583075 161.48 199.909091 161.48 
z
" clip-path="url(#p463193632d)" style="fill: #808080; fill-opacity: 0.6; stroke: #ffffff; stroke-opacity: 0.6; stroke-width: 2"/>
    <path d="M 199.909091 161.48 
C 201.235106 161.48 202.50699 160.953168 203.444625 160.015534 
C 204.382259 159.077899 204.909091 157.806016 204.909091 156.48 
C 204.909091 155.153985 204.382259 153.882101 203.444625 152.944466 
C 202.50699 152.006832 201.235106 151.48 199.909091 151.48 
C 198.583075 151.48 197.311192 152.006832 196.373557 152.944466 
C 195.435922 153.882101 194.909091 155.153985 194.909091 156.48 
C 194.909091 157.806016 195.435922 159.077899 196.373557 160.015534 
C 197.311192 160.953168 198.583075 161.48 199.909091 161.48 
z
" clip-path="url(#p463193632d)" style="fill: #808080; fill-opacity: 0.6; stroke: #ffffff; stroke-opacity: 0.6; stroke-width: 2"/>
    <path d="M 199.909091 163.551068 
C 201.78436 163.551068 203.583075 162.806016 204.909091 161.48 
C 206.235106 160.153985 206.980159 158.355269 206.980159 156.48 
C 206.980159 154.604731 206.235106 152.806016 204.909091 151.48 
C 203.583075 150.153985 201.78436 149.408932 199.909091 149.408932 
C 198.033822 149.408932 196.235106 150.153985 194.909091 151.48 
C 193.583075 152.806016 192.838023 154.604731 192.838023 156.48 
C 192.838023 158.355269 193.583075 160.153985 194.909091 161.48 
C 196.235106 162.806016 198.033822 163.551068 199.909091 163.551068 
z
" clip-path="url(#p463193632d)" style="fill: #808080; fill-opacity: 0.6; stroke: #ffffff; stroke-opacity: 0.6; stroke-width: 2"/>
    <path d="M 199.909091 94.28 
C 201.235106 94.28 202.50699 93.753168 203.444625 92.815534 
C 204.382259 91.877899 204.909091 90.606015 204.909091 89.28 
C 204.909091 87.953984 204.382259 86.682101 203.444625 85.744466 
C 202.50699 84.806832 201.235106 84.28 199.909091 84.28 
C 198.583075 84.28 197.311192 84.806832 196.373557 85.744466 
C 195.435922 86.682101 194.909091 87.953984 194.909091 89.28 
C 194.909091 90.606015 195.435922 91.877899 196.373557 92.815534 
C 197.311192 93.753168 198.583075 94.28 199.909091 94.28 
z
" clip-path="url(#p463193632d)" style="fill: #808080; fill-opacity: 0.6; stroke: #ffffff; stroke-opacity: 0.6; stroke-width: 2"/>
    <path d="M 199.909091 96.351068 
C 201.78436 96.351068 203.583075 95.606015 204.909091 94.28 
C 206.235106 92.953984 206.980159 91.155269 206.980159 89.28 
C 206.980159 87.404731 206.235106 85.606015 204.909091 84.28 
C 203.583075 82.953984 201.78436 82.208932 199.909091 82.208932 
C 198.033822 82.208932 196.235106 82.953984 194.909091 84.28 
C 193.583075 85.606015 192.838023 87.404731 192.838023 89.28 
C 192.838023 91.155269 193.583075 92.953984 194.909091 94.28 
C 196.235106 95.606015 198.033822 96.351068 199.909091 96.351068 
z
" clip-path="url(#p463193632d)" style="fill: #808080; fill-opacity: 0.6; stroke: #ffffff; stroke-opacity: 0.6; stroke-width: 2"/>
    <path d="M 284.454545 499.551068 
C 286.329815 499.551068 288.12853 498.806016 289.454545 497.48 
C 290.780561 496.153985 291.525613 494.355269 291.525613 492.48 
C 291.525613 490.604731 290.780561 488.806016 289.454545 487.48 
C 288.12853 486.153985 286.329815 485.408932 284.454545 485.408932 
C 282.579276 485.408932 280.780561 486.153985 279.454545 487.48 
C 278.12853 488.806016 277.383478 490.604731 277.383478 492.48 
C 277.383478 494.355269 278.12853 496.153985 279.454545 497.48 
C 280.780561 498.806016 282.579276 499.551068 284.454545 499.551068 
z
" clip-path="url(#p463193632d)" style="fill: #808080; fill-opacity: 0.6; stroke: #ffffff; stroke-opacity: 0.6; stroke-width: 2"/>
    <path d="M 284.454545 436.46034 
C 287.419606 436.46034 290.263625 435.282309 292.36024 433.185694 
C 294.456854 431.08908 295.634885 428.245061 295.634885 425.28 
C 295.634885 422.314939 294.456854 419.47092 292.36024 417.374306 
C 290.263625 415.277691 287.419606 414.09966 284.454545 414.09966 
C 281.489485 414.09966 278.645466 415.277691 276.548851 417.374306 
C 274.452237 419.47092 273.274206 422.314939 273.274206 425.28 
C 273.274206 428.245061 274.452237 431.08908 276.548851 433.185694 
C 278.645466 435.282309 281.489485 436.46034 284.454545 436.46034 
z
" clip-path="url(#p463193632d)" style="fill: #808080; fill-opacity: 0.6; stroke: #ffffff; stroke-opacity: 0.6; stroke-width: 2"/>
    <path d="M 284.454545 430.28 
C 285.780561 430.28 287.052445 429.753168 287.990079 428.815534 
C 288.927714 427.877899 289.454545 426.606015 289.454545 425.28 
C 289.454545 423.953984 288.927714 422.682101 287.990079 421.744466 
C 287.052445 420.806832 285.780561 420.28 284.454545 420.28 
C 283.12853 420.28 281.856646 420.806832 280.919012 421.744466 
C 279.981377 422.682101 279.454545 423.953984 279.454545 425.28 
C 279.454545 426.606015 279.981377 427.877899 280.919012 428.815534 
C 281.856646 429.753168 283.12853 430.28 284.454545 430.28 
z
" clip-path="url(#p463193632d)" style="fill: #808080; fill-opacity: 0.6; stroke: #ffffff; stroke-opacity: 0.6; stroke-width: 2"/>
    <path d="M 284.454545 363.08 
C 285.780561 363.08 287.052445 362.553168 287.990079 361.615534 
C 288.927714 360.677899 289.454545 359.406015 289.454545 358.08 
C 289.454545 356.753985 288.927714 355.482101 287.990079 354.544466 
C 287.052445 353.606832 285.780561 353.08 284.454545 353.08 
C 283.12853 353.08 281.856646 353.606832 280.919012 354.544466 
C 279.981377 355.482101 279.454545 356.753985 279.454545 358.08 
C 279.454545 359.406015 279.981377 360.677899 280.919012 361.615534 
C 281.856646 362.553168 283.12853 363.08 284.454545 363.08 
z
" clip-path="url(#p463193632d)" style="fill: #808080; fill-opacity: 0.6; stroke: #ffffff; stroke-opacity: 0.6; stroke-width: 2"/>
    <path d="M 284.454545 365.151068 
C 286.329815 365.151068 288.12853 364.406015 289.454545 363.08 
C 290.780561 361.753985 291.525613 359.955269 291.525613 358.08 
C 291.525613 356.204731 290.780561 354.406015 289.454545 353.08 
C 288.12853 351.753985 286.329815 351.008932 284.454545 351.008932 
C 282.579276 351.008932 280.780561 351.753985 279.454545 353.08 
C 278.12853 354.406015 277.383478 356.204731 277.383478 358.08 
C 277.383478 359.955269 278.12853 361.753985 279.454545 363.08 
C 280.780561 364.406015 282.579276 365.151068 284.454545 365.151068 
z
" clip-path="url(#p463193632d)" style="fill: #808080; fill-opacity: 0.6; stroke: #ffffff; stroke-opacity: 0.6; stroke-width: 2"/>
    <path d="M 284.454545 295.88 
C 285.780561 295.88 287.052445 295.353168 287.990079 294.415534 
C 288.927714 293.477899 289.454545 292.206015 289.454545 290.88 
C 289.454545 289.553985 288.927714 288.282101 287.990079 287.344466 
C 287.052445 286.406832 285.780561 285.88 284.454545 285.88 
C 283.12853 285.88 281.856646 286.406832 280.919012 287.344466 
C 279.981377 288.282101 279.454545 289.553985 279.454545 290.88 
C 279.454545 292.206015 279.981377 293.477899 280.919012 294.415534 
C 281.856646 295.353168 283.12853 295.88 284.454545 295.88 
z
" clip-path="url(#p463193632d)" style="fill: #808080; fill-opacity: 0.6; stroke: #ffffff; stroke-opacity: 0.6; stroke-width: 2"/>
    <path d="M 284.454545 295.88 
C 285.780561 295.88 287.052445 295.353168 287.990079 294.415534 
C 288.927714 293.477899 289.454545 292.206015 289.454545 290.88 
C 289.454545 289.553985 288.927714 288.282101 287.990079 287.344466 
C 287.052445 286.406832 285.780561 285.88 284.454545 285.88 
C 283.12853 285.88 281.856646 286.406832 280.919012 287.344466 
C 279.981377 288.282101 279.454545 289.553985 279.454545 290.88 
C 279.454545 292.206015 279.981377 293.477899 280.919012 294.415534 
C 281.856646 295.353168 283.12853 295.88 284.454545 295.88 
z
" clip-path="url(#p463193632d)" style="fill: #808080; fill-opacity: 0.6; stroke: #ffffff; stroke-opacity: 0.6; stroke-width: 2"/>
    <path d="M 284.454545 236.908757 
C 287.962853 236.908757 291.327941 235.514891 293.808689 233.034143 
C 296.289437 230.553396 297.683302 227.188307 297.683302 223.68 
C 297.683302 220.171693 296.289437 216.806604 293.808689 214.325857 
C 291.327941 211.845109 287.962853 210.451243 284.454545 210.451243 
C 280.946238 210.451243 277.58115 211.845109 275.100402 214.325857 
C 272.619654 216.806604 271.225789 220.171693 271.225789 223.68 
C 271.225789 227.188307 272.619654 230.553396 275.100402 233.034143 
C 277.58115 235.514891 280.946238 236.908757 284.454545 236.908757 
z
" clip-path="url(#p463193632d)" style="fill: #808080; fill-opacity: 0.6; stroke: #ffffff; stroke-opacity: 0.6; stroke-width: 2"/>
    <path d="M 284.454545 161.48 
C 285.780561 161.48 287.052445 160.953168 287.990079 160.015534 
C 288.927714 159.077899 289.454545 157.806016 289.454545 156.48 
C 289.454545 155.153985 288.927714 153.882101 287.990079 152.944466 
C 287.052445 152.006832 285.780561 151.48 284.454545 151.48 
C 283.12853 151.48 281.856646 152.006832 280.919012 152.944466 
C 279.981377 153.882101 279.454545 155.153985 279.454545 156.48 
C 279.454545 157.806016 279.981377 159.077899 280.919012 160.015534 
C 281.856646 160.953168 283.12853 161.48 284.454545 161.48 
z
" clip-path="url(#p463193632d)" style="fill: #808080; fill-opacity: 0.6; stroke: #ffffff; stroke-opacity: 0.6; stroke-width: 2"/>
    <path d="M 284.454545 161.48 
C 285.780561 161.48 287.052445 160.953168 287.990079 160.015534 
C 288.927714 159.077899 289.454545 157.806016 289.454545 156.48 
C 289.454545 155.153985 288.927714 153.882101 287.990079 152.944466 
C 287.052445 152.006832 285.780561 151.48 284.454545 151.48 
C 283.12853 151.48 281.856646 152.006832 280.919012 152.944466 
C 279.981377 153.882101 279.454545 155.153985 279.454545 156.48 
C 279.454545 157.806016 279.981377 159.077899 280.919012 160.015534 
C 281.856646 160.953168 283.12853 161.48 284.454545 161.48 
z
" clip-path="url(#p463193632d)" style="fill: #808080; fill-opacity: 0.6; stroke: #ffffff; stroke-opacity: 0.6; stroke-width: 2"/>
    <path d="M 284.454545 96.351068 
C 286.329815 96.351068 288.12853 95.606015 289.454545 94.28 
C 290.780561 92.953984 291.525613 91.155269 291.525613 89.28 
C 291.525613 87.404731 290.780561 85.606015 289.454545 84.28 
C 288.12853 82.953984 286.329815 82.208932 284.454545 82.208932 
C 282.579276 82.208932 280.780561 82.953984 279.454545 84.28 
C 278.12853 85.606015 277.383478 87.404731 277.383478 89.28 
C 277.383478 91.155269 278.12853 92.953984 279.454545 94.28 
C 280.780561 95.606015 282.579276 96.351068 284.454545 96.351068 
z
" clip-path="url(#p463193632d)" style="fill: #808080; fill-opacity: 0.6; stroke: #ffffff; stroke-opacity: 0.6; stroke-width: 2"/>
    <path d="M 369 497.48 
C 370.326015 497.48 371.597899 496.953168 372.535534 496.015534 
C 373.473168 495.077899 374 493.806016 374 492.48 
C 374 491.153985 373.473168 489.882101 372.535534 488.944466 
C 371.597899 488.006832 370.326015 487.48 369 487.48 
C 367.673985 487.48 366.402101 488.006832 365.464466 488.944466 
C 364.526832 489.882101 364 491.153985 364 492.48 
C 364 493.806016 364.526832 495.077899 365.464466 496.015534 
C 366.402101 496.953168 367.673985 497.48 369 497.48 
z
" clip-path="url(#p463193632d)" style="fill: #808080; fill-opacity: 0.6; stroke: #ffffff; stroke-opacity: 0.6; stroke-width: 2"/>
    <path d="M 369 499.551068 
C 370.875269 499.551068 372.673985 498.806016 374 497.48 
C 375.326015 496.153985 376.071068 494.355269 376.071068 492.48 
C 376.071068 490.604731 375.326015 488.806016 374 487.48 
C 372.673985 486.153985 370.875269 485.408932 369 485.408932 
C 367.124731 485.408932 365.326015 486.153985 364 487.48 
C 362.673985 488.806016 361.928932 490.604731 361.928932 492.48 
C 361.928932 494.355269 362.673985 496.153985 364 497.48 
C 365.326015 498.806016 367.124731 499.551068 369 499.551068 
z
" clip-path="url(#p463193632d)" style="fill: #808080; fill-opacity: 0.6; stroke: #ffffff; stroke-opacity: 0.6; stroke-width: 2"/>
    <path d="M 369 497.48 
C 370.326015 497.48 371.597899 496.953168 372.535534 496.015534 
C 373.473168 495.077899 374 493.806016 374 492.48 
C 374 491.153985 373.473168 489.882101 372.535534 488.944466 
C 371.597899 488.006832 370.326015 487.48 369 487.48 
C 367.673985 487.48 366.402101 488.006832 365.464466 488.944466 
C 364.526832 489.882101 364 491.153985 364 492.48 
C 364 493.806016 364.526832 495.077899 365.464466 496.015534 
C 366.402101 496.953168 367.673985 497.48 369 497.48 
z
" clip-path="url(#p463193632d)" style="fill: #808080; fill-opacity: 0.6; stroke: #ffffff; stroke-opacity: 0.6; stroke-width: 2"/>
    <path d="M 369 432.351068 
C 370.875269 432.351068 372.673985 431.606015 374 430.28 
C 375.326015 428.953984 376.071068 427.155269 376.071068 425.28 
C 376.071068 423.404731 375.326015 421.606015 374 420.28 
C 372.673985 418.953984 370.875269 418.208932 369 418.208932 
C 367.124731 418.208932 365.326015 418.953984 364 420.28 
C 362.673985 421.606015 361.928932 423.404731 361.928932 425.28 
C 361.928932 427.155269 362.673985 428.953984 364 430.28 
C 365.326015 431.606015 367.124731 432.351068 369 432.351068 
z
" clip-path="url(#p463193632d)" style="fill: #808080; fill-opacity: 0.6; stroke: #ffffff; stroke-opacity: 0.6; stroke-width: 2"/>
    <path d="M 369 432.351068 
C 370.875269 432.351068 372.673985 431.606015 374 430.28 
C 375.326015 428.953984 376.071068 427.155269 376.071068 425.28 
C 376.071068 423.404731 375.326015 421.606015 374 420.28 
C 372.673985 418.953984 370.875269 418.208932 369 418.208932 
C 367.124731 418.208932 365.326015 418.953984 364 420.28 
C 362.673985 421.606015 361.928932 423.404731 361.928932 425.28 
C 361.928932 427.155269 362.673985 428.953984 364 430.28 
C 365.326015 431.606015 367.124731 432.351068 369 432.351068 
z
" clip-path="url(#p463193632d)" style="fill: #808080; fill-opacity: 0.6; stroke: #ffffff; stroke-opacity: 0.6; stroke-width: 2"/>
    <path d="M 369 295.88 
C 370.326015 295.88 371.597899 295.353168 372.535534 294.415534 
C 373.473168 293.477899 374 292.206015 374 290.88 
C 374 289.553985 373.473168 288.282101 372.535534 287.344466 
C 371.597899 286.406832 370.326015 285.88 369 285.88 
C 367.673985 285.88 366.402101 286.406832 365.464466 287.344466 
C 364.526832 288.282101 364 289.553985 364 290.88 
C 364 292.206015 364.526832 293.477899 365.464466 294.415534 
C 366.402101 295.353168 367.673985 295.88 369 295.88 
z
" clip-path="url(#p463193632d)" style="fill: #808080; fill-opacity: 0.6; stroke: #ffffff; stroke-opacity: 0.6; stroke-width: 2"/>
    <path d="M 369 230.751068 
C 370.875269 230.751068 372.673985 230.006016 374 228.68 
C 375.326015 227.353984 376.071068 225.555269 376.071068 223.68 
C 376.071068 221.804731 375.326015 220.006016 374 218.68 
C 372.673985 217.353984 370.875269 216.608932 369 216.608932 
C 367.124731 216.608932 365.326015 217.353984 364 218.68 
C 362.673985 220.006016 361.928932 221.804731 361.928932 223.68 
C 361.928932 225.555269 362.673985 227.353984 364 228.68 
C 365.326015 230.006016 367.124731 230.751068 369 230.751068 
z
" clip-path="url(#p463193632d)" style="fill: #808080; fill-opacity: 0.6; stroke: #ffffff; stroke-opacity: 0.6; stroke-width: 2"/>
    <path d="M 369 234.86034 
C 371.965061 234.86034 374.80908 233.682309 376.905694 231.585694 
C 379.002309 229.48908 380.18034 226.645061 380.18034 223.68 
C 380.18034 220.714939 379.002309 217.87092 376.905694 215.774306 
C 374.80908 213.677691 371.965061 212.49966 369 212.49966 
C 366.034939 212.49966 363.19092 213.677691 361.094306 215.774306 
C 358.997691 217.87092 357.81966 220.714939 357.81966 223.68 
C 357.81966 226.645061 358.997691 229.48908 361.094306 231.585694 
C 363.19092 233.682309 366.034939 234.86034 369 234.86034 
z
" clip-path="url(#p463193632d)" style="fill: #808080; fill-opacity: 0.6; stroke: #ffffff; stroke-opacity: 0.6; stroke-width: 2"/>
    <path d="M 369 228.68 
C 370.326015 228.68 371.597899 228.153168 372.535534 227.215534 
C 373.473168 226.277899 374 225.006016 374 223.68 
C 374 222.353984 373.473168 221.082101 372.535534 220.144466 
C 371.597899 219.206832 370.326015 218.68 369 218.68 
C 367.673985 218.68 366.402101 219.206832 365.464466 220.144466 
C 364.526832 221.082101 364 222.353984 364 223.68 
C 364 225.006016 364.526832 226.277899 365.464466 227.215534 
C 366.402101 228.153168 367.673985 228.68 369 228.68 
z
" clip-path="url(#p463193632d)" style="fill: #808080; fill-opacity: 0.6; stroke: #ffffff; stroke-opacity: 0.6; stroke-width: 2"/>
    <path d="M 369 228.68 
C 370.326015 228.68 371.597899 228.153168 372.535534 227.215534 
C 373.473168 226.277899 374 225.006016 374 223.68 
C 374 222.353984 373.473168 221.082101 372.535534 220.144466 
C 371.597899 219.206832 370.326015 218.68 369 218.68 
C 367.673985 218.68 366.402101 219.206832 365.464466 220.144466 
C 364.526832 221.082101 364 222.353984 364 223.68 
C 364 225.006016 364.526832 226.277899 365.464466 227.215534 
C 366.402101 228.153168 367.673985 228.68 369 228.68 
z
" clip-path="url(#p463193632d)" style="fill: #808080; fill-opacity: 0.6; stroke: #ffffff; stroke-opacity: 0.6; stroke-width: 2"/>
    <path d="M 369 161.48 
C 370.326015 161.48 371.597899 160.953168 372.535534 160.015534 
C 373.473168 159.077899 374 157.806016 374 156.48 
C 374 155.153985 373.473168 153.882101 372.535534 152.944466 
C 371.597899 152.006832 370.326015 151.48 369 151.48 
C 367.673985 151.48 366.402101 152.006832 365.464466 152.944466 
C 364.526832 153.882101 364 155.153985 364 156.48 
C 364 157.806016 364.526832 159.077899 365.464466 160.015534 
C 366.402101 160.953168 367.673985 161.48 369 161.48 
z
" clip-path="url(#p463193632d)" style="fill: #808080; fill-opacity: 0.6; stroke: #ffffff; stroke-opacity: 0.6; stroke-width: 2"/>
    <path d="M 369 161.48 
C 370.326015 161.48 371.597899 160.953168 372.535534 160.015534 
C 373.473168 159.077899 374 157.806016 374 156.48 
C 374 155.153985 373.473168 153.882101 372.535534 152.944466 
C 371.597899 152.006832 370.326015 151.48 369 151.48 
C 367.673985 151.48 366.402101 152.006832 365.464466 152.944466 
C 364.526832 153.882101 364 155.153985 364 156.48 
C 364 157.806016 364.526832 159.077899 365.464466 160.015534 
C 366.402101 160.953168 367.673985 161.48 369 161.48 
z
" clip-path="url(#p463193632d)" style="fill: #808080; fill-opacity: 0.6; stroke: #ffffff; stroke-opacity: 0.6; stroke-width: 2"/>
    <path d="M 369 94.28 
C 370.326015 94.28 371.597899 93.753168 372.535534 92.815534 
C 373.473168 91.877899 374 90.606015 374 89.28 
C 374 87.953984 373.473168 86.682101 372.535534 85.744466 
C 371.597899 84.806832 370.326015 84.28 369 84.28 
C 367.673985 84.28 366.402101 84.806832 365.464466 85.744466 
C 364.526832 86.682101 364 87.953984 364 89.28 
C 364 90.606015 364.526832 91.877899 365.464466 92.815534 
C 366.402101 93.753168 367.673985 94.28 369 94.28 
z
" clip-path="url(#p463193632d)" style="fill: #808080; fill-opacity: 0.6; stroke: #ffffff; stroke-opacity: 0.6; stroke-width: 2"/>
    <path d="M 453.545455 497.48 
C 454.87147 497.48 456.143354 496.953168 457.080988 496.015534 
C 458.018623 495.077899 458.545455 493.806016 458.545455 492.48 
C 458.545455 491.153985 458.018623 489.882101 457.080988 488.944466 
C 456.143354 488.006832 454.87147 487.48 453.545455 487.48 
C 452.219439 487.48 450.947555 488.006832 450.009921 488.944466 
C 449.072286 489.882101 448.545455 491.153985 448.545455 492.48 
C 448.545455 493.806016 449.072286 495.077899 450.009921 496.015534 
C 450.947555 496.953168 452.219439 497.48 453.545455 497.48 
z
" clip-path="url(#p463193632d)" style="fill: #808080; fill-opacity: 0.6; stroke: #ffffff; stroke-opacity: 0.6; stroke-width: 2"/>
    <path d="M 453.545455 502.48 
C 456.197486 502.48 458.741253 501.426337 460.616522 499.551068 
C 462.491791 497.675799 463.545455 495.132031 463.545455 492.48 
C 463.545455 489.827969 462.491791 487.284201 460.616522 485.408932 
C 458.741253 483.533663 456.197486 482.48 453.545455 482.48 
C 450.893424 482.48 448.349656 483.533663 446.474387 485.408932 
C 444.599118 487.284201 443.545455 489.827969 443.545455 492.48 
C 443.545455 495.132031 444.599118 497.675799 446.474387 499.551068 
C 448.349656 501.426337 450.893424 502.48 453.545455 502.48 
z
" clip-path="url(#p463193632d)" style="fill: #808080; fill-opacity: 0.6; stroke: #ffffff; stroke-opacity: 0.6; stroke-width: 2"/>
    <path d="M 453.545455 365.151068 
C 455.420724 365.151068 457.219439 364.406015 458.545455 363.08 
C 459.87147 361.753985 460.616522 359.955269 460.616522 358.08 
C 460.616522 356.204731 459.87147 354.406015 458.545455 353.08 
C 457.219439 351.753985 455.420724 351.008932 453.545455 351.008932 
C 451.670185 351.008932 449.87147 351.753985 448.545455 353.08 
C 447.219439 354.406015 446.474387 356.204731 446.474387 358.08 
C 446.474387 359.955269 447.219439 361.753985 448.545455 363.08 
C 449.87147 364.406015 451.670185 365.151068 453.545455 365.151068 
z
" clip-path="url(#p463193632d)" style="fill: #808080; fill-opacity: 0.6; stroke: #ffffff; stroke-opacity: 0.6; stroke-width: 2"/>
    <path d="M 453.545455 295.88 
C 454.87147 295.88 456.143354 295.353168 457.080988 294.415534 
C 458.018623 293.477899 458.545455 292.206015 458.545455 290.88 
C 458.545455 289.553985 458.018623 288.282101 457.080988 287.344466 
C 456.143354 286.406832 454.87147 285.88 453.545455 285.88 
C 452.219439 285.88 450.947555 286.406832 450.009921 287.344466 
C 449.072286 288.282101 448.545455 289.553985 448.545455 290.88 
C 448.545455 292.206015 449.072286 293.477899 450.009921 294.415534 
C 450.947555 295.353168 452.219439 295.88 453.545455 295.88 
z
" clip-path="url(#p463193632d)" style="fill: #808080; fill-opacity: 0.6; stroke: #ffffff; stroke-opacity: 0.6; stroke-width: 2"/>
    <path d="M 453.545455 230.751068 
C 455.420724 230.751068 457.219439 230.006016 458.545455 228.68 
C 459.87147 227.353984 460.616522 225.555269 460.616522 223.68 
C 460.616522 221.804731 459.87147 220.006016 458.545455 218.68 
C 457.219439 217.353984 455.420724 216.608932 453.545455 216.608932 
C 451.670185 216.608932 449.87147 217.353984 448.545455 218.68 
C 447.219439 220.006016 446.474387 221.804731 446.474387 223.68 
C 446.474387 225.555269 447.219439 227.353984 448.545455 228.68 
C 449.87147 230.006016 451.670185 230.751068 453.545455 230.751068 
z
" clip-path="url(#p463193632d)" style="fill: #808080; fill-opacity: 0.6; stroke: #ffffff; stroke-opacity: 0.6; stroke-width: 2"/>
    <path d="M 453.545455 230.751068 
C 455.420724 230.751068 457.219439 230.006016 458.545455 228.68 
C 459.87147 227.353984 460.616522 225.555269 460.616522 223.68 
C 460.616522 221.804731 459.87147 220.006016 458.545455 218.68 
C 457.219439 217.353984 455.420724 216.608932 453.545455 216.608932 
C 451.670185 216.608932 449.87147 217.353984 448.545455 218.68 
C 447.219439 220.006016 446.474387 221.804731 446.474387 223.68 
C 446.474387 225.555269 447.219439 227.353984 448.545455 228.68 
C 449.87147 230.006016 451.670185 230.751068 453.545455 230.751068 
z
" clip-path="url(#p463193632d)" style="fill: #808080; fill-opacity: 0.6; stroke: #ffffff; stroke-opacity: 0.6; stroke-width: 2"/>
    <path d="M 453.545455 233.68 
C 456.197486 233.68 458.741253 232.626337 460.616522 230.751068 
C 462.491791 228.875799 463.545455 226.332031 463.545455 223.68 
C 463.545455 221.027969 462.491791 218.484201 460.616522 216.608932 
C 458.741253 214.733663 456.197486 213.68 453.545455 213.68 
C 450.893424 213.68 448.349656 214.733663 446.474387 216.608932 
C 444.599118 218.484201 443.545455 221.027969 443.545455 223.68 
C 443.545455 226.332031 444.599118 228.875799 446.474387 230.751068 
C 448.349656 232.626337 450.893424 233.68 453.545455 233.68 
z
" clip-path="url(#p463193632d)" style="fill: #808080; fill-opacity: 0.6; stroke: #ffffff; stroke-opacity: 0.6; stroke-width: 2"/>
    <path d="M 453.545455 163.551068 
C 455.420724 163.551068 457.219439 162.806016 458.545455 161.48 
C 459.87147 160.153985 460.616522 158.355269 460.616522 156.48 
C 460.616522 154.604731 459.87147 152.806016 458.545455 151.48 
C 457.219439 150.153985 455.420724 149.408932 453.545455 149.408932 
C 451.670185 149.408932 449.87147 150.153985 448.545455 151.48 
C 447.219439 152.806016 446.474387 154.604731 446.474387 156.48 
C 446.474387 158.355269 447.219439 160.153985 448.545455 161.48 
C 449.87147 162.806016 451.670185 163.551068 453.545455 163.551068 
z
" clip-path="url(#p463193632d)" style="fill: #808080; fill-opacity: 0.6; stroke: #ffffff; stroke-opacity: 0.6; stroke-width: 2"/>
    <path d="M 453.545455 94.28 
C 454.87147 94.28 456.143354 93.753168 457.080988 92.815534 
C 458.018623 91.877899 458.545455 90.606015 458.545455 89.28 
C 458.545455 87.953984 458.018623 86.682101 457.080988 85.744466 
C 456.143354 84.806832 454.87147 84.28 453.545455 84.28 
C 452.219439 84.28 450.947555 84.806832 450.009921 85.744466 
C 449.072286 86.682101 448.545455 87.953984 448.545455 89.28 
C 448.545455 90.606015 449.072286 91.877899 450.009921 92.815534 
C 450.947555 93.753168 452.219439 94.28 453.545455 94.28 
z
" clip-path="url(#p463193632d)" style="fill: #808080; fill-opacity: 0.6; stroke: #ffffff; stroke-opacity: 0.6; stroke-width: 2"/>
    <path d="M 538.090909 228.68 
C 539.416925 228.68 540.688808 228.153168 541.626443 227.215534 
C 542.564078 226.277899 543.090909 225.006016 543.090909 223.68 
C 543.090909 222.353984 542.564078 221.082101 541.626443 220.144466 
C 540.688808 219.206832 539.416925 218.68 538.090909 218.68 
C 536.764894 218.68 535.49301 219.206832 534.555375 220.144466 
C 533.617741 221.082101 533.090909 222.353984 533.090909 223.68 
C 533.090909 225.006016 533.617741 226.277899 534.555375 227.215534 
C 535.49301 228.153168 536.764894 228.68 538.090909 228.68 
z
" clip-path="url(#p463193632d)" style="fill: #808080; fill-opacity: 0.6; stroke: #ffffff; stroke-opacity: 0.6; stroke-width: 2"/>
    <path d="M 538.090909 161.48 
C 539.416925 161.48 540.688808 160.953168 541.626443 160.015534 
C 542.564078 159.077899 543.090909 157.806016 543.090909 156.48 
C 543.090909 155.153985 542.564078 153.882101 541.626443 152.944466 
C 540.688808 152.006832 539.416925 151.48 538.090909 151.48 
C 536.764894 151.48 535.49301 152.006832 534.555375 152.944466 
C 533.617741 153.882101 533.090909 155.153985 533.090909 156.48 
C 533.090909 157.806016 533.617741 159.077899 534.555375 160.015534 
C 535.49301 160.953168 536.764894 161.48 538.090909 161.48 
z
" clip-path="url(#p463193632d)" style="fill: #808080; fill-opacity: 0.6; stroke: #ffffff; stroke-opacity: 0.6; stroke-width: 2"/>
    <path d="M 622.636364 230.751068 
C 624.511633 230.751068 626.310348 230.006016 627.636364 228.68 
C 628.962379 227.353984 629.707431 225.555269 629.707431 223.68 
C 629.707431 221.804731 628.962379 220.006016 627.636364 218.68 
C 626.310348 217.353984 624.511633 216.608932 622.636364 216.608932 
C 620.761095 216.608932 618.962379 217.353984 617.636364 218.68 
C 616.310348 220.006016 615.565296 221.804731 615.565296 223.68 
C 615.565296 225.555269 616.310348 227.353984 617.636364 228.68 
C 618.962379 230.006016 620.761095 230.751068 622.636364 230.751068 
z
" clip-path="url(#p463193632d)" style="fill: #808080; fill-opacity: 0.6; stroke: #ffffff; stroke-opacity: 0.6; stroke-width: 2"/>
   </g>
   <g id="matplotlib.axis_1">
    <g id="xtick_1">
     <g id="line2d_1">
      <path d="M 115.363636 512.64 
L 115.363636 69.12 
" clip-path="url(#p463193632d)" style="fill: none; stroke: #b0b0b0; stroke-width: 0.8; stroke-linecap: square"/>
     </g>
     <g id="line2d_2">
      <defs>
       <path id="m341d9e229b" d="M 0 0 
L 0 3.5 
" style="stroke: #000000; stroke-width: 0.8"/>
      </defs>
      <g>
       <use xlink:href="#m341d9e229b" x="115.363636" y="512.64" style="stroke: #000000; stroke-width: 0.8"/>
      </g>
     </g>
     <g id="text_1">
      <!-- Benchmarking -->
      <g transform="translate(79.152699 527.238438) scale(0.1 -0.1)">
       <defs>
        <path id="DejaVuSans-42" d="M 1259 2228 
L 1259 519 
L 2272 519 
Q 2781 519 3026 730 
Q 3272 941 3272 1375 
Q 3272 1813 3026 2020 
Q 2781 2228 2272 2228 
L 1259 2228 
z
M 1259 4147 
L 1259 2741 
L 2194 2741 
Q 2656 2741 2882 2914 
Q 3109 3088 3109 3444 
Q 3109 3797 2882 3972 
Q 2656 4147 2194 4147 
L 1259 4147 
z
M 628 4666 
L 2241 4666 
Q 2963 4666 3353 4366 
Q 3744 4066 3744 3513 
Q 3744 3084 3544 2831 
Q 3344 2578 2956 2516 
Q 3422 2416 3680 2098 
Q 3938 1781 3938 1306 
Q 3938 681 3513 340 
Q 3088 0 2303 0 
L 628 0 
L 628 4666 
z
" transform="scale(0.015625)"/>
        <path id="DejaVuSans-65" d="M 3597 1894 
L 3597 1613 
L 953 1613 
Q 991 1019 1311 708 
Q 1631 397 2203 397 
Q 2534 397 2845 478 
Q 3156 559 3463 722 
L 3463 178 
Q 3153 47 2828 -22 
Q 2503 -91 2169 -91 
Q 1331 -91 842 396 
Q 353 884 353 1716 
Q 353 2575 817 3079 
Q 1281 3584 2069 3584 
Q 2775 3584 3186 3129 
Q 3597 2675 3597 1894 
z
M 3022 2063 
Q 3016 2534 2758 2815 
Q 2500 3097 2075 3097 
Q 1594 3097 1305 2825 
Q 1016 2553 972 2059 
L 3022 2063 
z
" transform="scale(0.015625)"/>
        <path id="DejaVuSans-6e" d="M 3513 2113 
L 3513 0 
L 2938 0 
L 2938 2094 
Q 2938 2591 2744 2837 
Q 2550 3084 2163 3084 
Q 1697 3084 1428 2787 
Q 1159 2491 1159 1978 
L 1159 0 
L 581 0 
L 581 3500 
L 1159 3500 
L 1159 2956 
Q 1366 3272 1645 3428 
Q 1925 3584 2291 3584 
Q 2894 3584 3203 3211 
Q 3513 2838 3513 2113 
z
" transform="scale(0.015625)"/>
        <path id="DejaVuSans-63" d="M 3122 3366 
L 3122 2828 
Q 2878 2963 2633 3030 
Q 2388 3097 2138 3097 
Q 1578 3097 1268 2742 
Q 959 2388 959 1747 
Q 959 1106 1268 751 
Q 1578 397 2138 397 
Q 2388 397 2633 464 
Q 2878 531 3122 666 
L 3122 134 
Q 2881 22 2623 -34 
Q 2366 -91 2075 -91 
Q 1284 -91 818 406 
Q 353 903 353 1747 
Q 353 2603 823 3093 
Q 1294 3584 2113 3584 
Q 2378 3584 2631 3529 
Q 2884 3475 3122 3366 
z
" transform="scale(0.015625)"/>
        <path id="DejaVuSans-68" d="M 3513 2113 
L 3513 0 
L 2938 0 
L 2938 2094 
Q 2938 2591 2744 2837 
Q 2550 3084 2163 3084 
Q 1697 3084 1428 2787 
Q 1159 2491 1159 1978 
L 1159 0 
L 581 0 
L 581 4863 
L 1159 4863 
L 1159 2956 
Q 1366 3272 1645 3428 
Q 1925 3584 2291 3584 
Q 2894 3584 3203 3211 
Q 3513 2838 3513 2113 
z
" transform="scale(0.015625)"/>
        <path id="DejaVuSans-6d" d="M 3328 2828 
Q 3544 3216 3844 3400 
Q 4144 3584 4550 3584 
Q 5097 3584 5394 3201 
Q 5691 2819 5691 2113 
L 5691 0 
L 5113 0 
L 5113 2094 
Q 5113 2597 4934 2840 
Q 4756 3084 4391 3084 
Q 3944 3084 3684 2787 
Q 3425 2491 3425 1978 
L 3425 0 
L 2847 0 
L 2847 2094 
Q 2847 2600 2669 2842 
Q 2491 3084 2119 3084 
Q 1678 3084 1418 2786 
Q 1159 2488 1159 1978 
L 1159 0 
L 581 0 
L 581 3500 
L 1159 3500 
L 1159 2956 
Q 1356 3278 1631 3431 
Q 1906 3584 2284 3584 
Q 2666 3584 2933 3390 
Q 3200 3197 3328 2828 
z
" transform="scale(0.015625)"/>
        <path id="DejaVuSans-61" d="M 2194 1759 
Q 1497 1759 1228 1600 
Q 959 1441 959 1056 
Q 959 750 1161 570 
Q 1363 391 1709 391 
Q 2188 391 2477 730 
Q 2766 1069 2766 1631 
L 2766 1759 
L 2194 1759 
z
M 3341 1997 
L 3341 0 
L 2766 0 
L 2766 531 
Q 2569 213 2275 61 
Q 1981 -91 1556 -91 
Q 1019 -91 701 211 
Q 384 513 384 1019 
Q 384 1609 779 1909 
Q 1175 2209 1959 2209 
L 2766 2209 
L 2766 2266 
Q 2766 2663 2505 2880 
Q 2244 3097 1772 3097 
Q 1472 3097 1187 3025 
Q 903 2953 641 2809 
L 641 3341 
Q 956 3463 1253 3523 
Q 1550 3584 1831 3584 
Q 2591 3584 2966 3190 
Q 3341 2797 3341 1997 
z
" transform="scale(0.015625)"/>
        <path id="DejaVuSans-72" d="M 2631 2963 
Q 2534 3019 2420 3045 
Q 2306 3072 2169 3072 
Q 1681 3072 1420 2755 
Q 1159 2438 1159 1844 
L 1159 0 
L 581 0 
L 581 3500 
L 1159 3500 
L 1159 2956 
Q 1341 3275 1631 3429 
Q 1922 3584 2338 3584 
Q 2397 3584 2469 3576 
Q 2541 3569 2628 3553 
L 2631 2963 
z
" transform="scale(0.015625)"/>
        <path id="DejaVuSans-6b" d="M 581 4863 
L 1159 4863 
L 1159 1991 
L 2875 3500 
L 3609 3500 
L 1753 1863 
L 3688 0 
L 2938 0 
L 1159 1709 
L 1159 0 
L 581 0 
L 581 4863 
z
" transform="scale(0.015625)"/>
        <path id="DejaVuSans-69" d="M 603 3500 
L 1178 3500 
L 1178 0 
L 603 0 
L 603 3500 
z
M 603 4863 
L 1178 4863 
L 1178 4134 
L 603 4134 
L 603 4863 
z
" transform="scale(0.015625)"/>
        <path id="DejaVuSans-67" d="M 2906 1791 
Q 2906 2416 2648 2759 
Q 2391 3103 1925 3103 
Q 1463 3103 1205 2759 
Q 947 2416 947 1791 
Q 947 1169 1205 825 
Q 1463 481 1925 481 
Q 2391 481 2648 825 
Q 2906 1169 2906 1791 
z
M 3481 434 
Q 3481 -459 3084 -895 
Q 2688 -1331 1869 -1331 
Q 1566 -1331 1297 -1286 
Q 1028 -1241 775 -1147 
L 775 -588 
Q 1028 -725 1275 -790 
Q 1522 -856 1778 -856 
Q 2344 -856 2625 -561 
Q 2906 -266 2906 331 
L 2906 616 
Q 2728 306 2450 153 
Q 2172 0 1784 0 
Q 1141 0 747 490 
Q 353 981 353 1791 
Q 353 2603 747 3093 
Q 1141 3584 1784 3584 
Q 2172 3584 2450 3431 
Q 2728 3278 2906 2969 
L 2906 3500 
L 3481 3500 
L 3481 434 
z
" transform="scale(0.015625)"/>
       </defs>
       <use xlink:href="#DejaVuSans-42"/>
       <use xlink:href="#DejaVuSans-65" x="68.603516"/>
       <use xlink:href="#DejaVuSans-6e" x="130.126953"/>
       <use xlink:href="#DejaVuSans-63" x="193.505859"/>
       <use xlink:href="#DejaVuSans-68" x="248.486328"/>
       <use xlink:href="#DejaVuSans-6d" x="311.865234"/>
       <use xlink:href="#DejaVuSans-61" x="409.277344"/>
       <use xlink:href="#DejaVuSans-72" x="470.556641"/>
       <use xlink:href="#DejaVuSans-6b" x="511.669922"/>
       <use xlink:href="#DejaVuSans-69" x="569.580078"/>
       <use xlink:href="#DejaVuSans-6e" x="597.363281"/>
       <use xlink:href="#DejaVuSans-67" x="660.742188"/>
      </g>
     </g>
    </g>
    <g id="xtick_2">
     <g id="line2d_3">
      <path d="M 199.909091 512.64 
L 199.909091 69.12 
" clip-path="url(#p463193632d)" style="fill: none; stroke: #b0b0b0; stroke-width: 0.8; stroke-linecap: square"/>
     </g>
     <g id="line2d_4">
      <g>
       <use xlink:href="#m341d9e229b" x="199.909091" y="512.64" style="stroke: #000000; stroke-width: 0.8"/>
      </g>
     </g>
     <g id="text_2">
      <!-- Human Experimentation -->
      <g transform="translate(138.756747 527.238438) scale(0.1 -0.1)">
       <defs>
        <path id="DejaVuSans-48" d="M 628 4666 
L 1259 4666 
L 1259 2753 
L 3553 2753 
L 3553 4666 
L 4184 4666 
L 4184 0 
L 3553 0 
L 3553 2222 
L 1259 2222 
L 1259 0 
L 628 0 
L 628 4666 
z
" transform="scale(0.015625)"/>
        <path id="DejaVuSans-75" d="M 544 1381 
L 544 3500 
L 1119 3500 
L 1119 1403 
Q 1119 906 1312 657 
Q 1506 409 1894 409 
Q 2359 409 2629 706 
Q 2900 1003 2900 1516 
L 2900 3500 
L 3475 3500 
L 3475 0 
L 2900 0 
L 2900 538 
Q 2691 219 2414 64 
Q 2138 -91 1772 -91 
Q 1169 -91 856 284 
Q 544 659 544 1381 
z
M 1991 3584 
L 1991 3584 
z
" transform="scale(0.015625)"/>
        <path id="DejaVuSans-20" transform="scale(0.015625)"/>
        <path id="DejaVuSans-45" d="M 628 4666 
L 3578 4666 
L 3578 4134 
L 1259 4134 
L 1259 2753 
L 3481 2753 
L 3481 2222 
L 1259 2222 
L 1259 531 
L 3634 531 
L 3634 0 
L 628 0 
L 628 4666 
z
" transform="scale(0.015625)"/>
        <path id="DejaVuSans-78" d="M 3513 3500 
L 2247 1797 
L 3578 0 
L 2900 0 
L 1881 1375 
L 863 0 
L 184 0 
L 1544 1831 
L 300 3500 
L 978 3500 
L 1906 2253 
L 2834 3500 
L 3513 3500 
z
" transform="scale(0.015625)"/>
        <path id="DejaVuSans-70" d="M 1159 525 
L 1159 -1331 
L 581 -1331 
L 581 3500 
L 1159 3500 
L 1159 2969 
Q 1341 3281 1617 3432 
Q 1894 3584 2278 3584 
Q 2916 3584 3314 3078 
Q 3713 2572 3713 1747 
Q 3713 922 3314 415 
Q 2916 -91 2278 -91 
Q 1894 -91 1617 61 
Q 1341 213 1159 525 
z
M 3116 1747 
Q 3116 2381 2855 2742 
Q 2594 3103 2138 3103 
Q 1681 3103 1420 2742 
Q 1159 2381 1159 1747 
Q 1159 1113 1420 752 
Q 1681 391 2138 391 
Q 2594 391 2855 752 
Q 3116 1113 3116 1747 
z
" transform="scale(0.015625)"/>
        <path id="DejaVuSans-74" d="M 1172 4494 
L 1172 3500 
L 2356 3500 
L 2356 3053 
L 1172 3053 
L 1172 1153 
Q 1172 725 1289 603 
Q 1406 481 1766 481 
L 2356 481 
L 2356 0 
L 1766 0 
Q 1100 0 847 248 
Q 594 497 594 1153 
L 594 3053 
L 172 3053 
L 172 3500 
L 594 3500 
L 594 4494 
L 1172 4494 
z
" transform="scale(0.015625)"/>
        <path id="DejaVuSans-6f" d="M 1959 3097 
Q 1497 3097 1228 2736 
Q 959 2375 959 1747 
Q 959 1119 1226 758 
Q 1494 397 1959 397 
Q 2419 397 2687 759 
Q 2956 1122 2956 1747 
Q 2956 2369 2687 2733 
Q 2419 3097 1959 3097 
z
M 1959 3584 
Q 2709 3584 3137 3096 
Q 3566 2609 3566 1747 
Q 3566 888 3137 398 
Q 2709 -91 1959 -91 
Q 1206 -91 779 398 
Q 353 888 353 1747 
Q 353 2609 779 3096 
Q 1206 3584 1959 3584 
z
" transform="scale(0.015625)"/>
       </defs>
       <use xlink:href="#DejaVuSans-48"/>
       <use xlink:href="#DejaVuSans-75" x="75.195312"/>
       <use xlink:href="#DejaVuSans-6d" x="138.574219"/>
       <use xlink:href="#DejaVuSans-61" x="235.986328"/>
       <use xlink:href="#DejaVuSans-6e" x="297.265625"/>
       <use xlink:href="#DejaVuSans-20" x="360.644531"/>
       <use xlink:href="#DejaVuSans-45" x="392.431641"/>
       <use xlink:href="#DejaVuSans-78" x="455.615234"/>
       <use xlink:href="#DejaVuSans-70" x="514.794922"/>
       <use xlink:href="#DejaVuSans-65" x="578.271484"/>
       <use xlink:href="#DejaVuSans-72" x="639.794922"/>
       <use xlink:href="#DejaVuSans-69" x="680.908203"/>
       <use xlink:href="#DejaVuSans-6d" x="708.691406"/>
       <use xlink:href="#DejaVuSans-65" x="806.103516"/>
       <use xlink:href="#DejaVuSans-6e" x="867.626953"/>
       <use xlink:href="#DejaVuSans-74" x="931.005859"/>
       <use xlink:href="#DejaVuSans-61" x="970.214844"/>
       <use xlink:href="#DejaVuSans-74" x="1031.494141"/>
       <use xlink:href="#DejaVuSans-69" x="1070.703125"/>
       <use xlink:href="#DejaVuSans-6f" x="1098.486328"/>
       <use xlink:href="#DejaVuSans-6e" x="1159.667969"/>
      </g>
     </g>
    </g>
    <g id="xtick_3">
     <g id="line2d_5">
      <path d="M 284.454545 512.64 
L 284.454545 69.12 
" clip-path="url(#p463193632d)" style="fill: none; stroke: #b0b0b0; stroke-width: 0.8; stroke-linecap: square"/>
     </g>
     <g id="line2d_6">
      <g>
       <use xlink:href="#m341d9e229b" x="284.454545" y="512.64" style="stroke: #000000; stroke-width: 0.8"/>
      </g>
     </g>
     <g id="text_3">
      <!-- Interview -->
      <g transform="translate(261.204545 527.238438) scale(0.1 -0.1)">
       <defs>
        <path id="DejaVuSans-49" d="M 628 4666 
L 1259 4666 
L 1259 0 
L 628 0 
L 628 4666 
z
" transform="scale(0.015625)"/>
        <path id="DejaVuSans-76" d="M 191 3500 
L 800 3500 
L 1894 563 
L 2988 3500 
L 3597 3500 
L 2284 0 
L 1503 0 
L 191 3500 
z
" transform="scale(0.015625)"/>
        <path id="DejaVuSans-77" d="M 269 3500 
L 844 3500 
L 1563 769 
L 2278 3500 
L 2956 3500 
L 3675 769 
L 4391 3500 
L 4966 3500 
L 4050 0 
L 3372 0 
L 2619 2869 
L 1863 0 
L 1184 0 
L 269 3500 
z
" transform="scale(0.015625)"/>
       </defs>
       <use xlink:href="#DejaVuSans-49"/>
       <use xlink:href="#DejaVuSans-6e" x="29.492188"/>
       <use xlink:href="#DejaVuSans-74" x="92.871094"/>
       <use xlink:href="#DejaVuSans-65" x="132.080078"/>
       <use xlink:href="#DejaVuSans-72" x="193.603516"/>
       <use xlink:href="#DejaVuSans-76" x="234.716797"/>
       <use xlink:href="#DejaVuSans-69" x="293.896484"/>
       <use xlink:href="#DejaVuSans-65" x="321.679688"/>
       <use xlink:href="#DejaVuSans-77" x="383.203125"/>
      </g>
     </g>
    </g>
    <g id="xtick_4">
     <g id="line2d_7">
      <path d="M 369 512.64 
L 369 69.12 
" clip-path="url(#p463193632d)" style="fill: none; stroke: #b0b0b0; stroke-width: 0.8; stroke-linecap: square"/>
     </g>
     <g id="line2d_8">
      <g>
       <use xlink:href="#m341d9e229b" x="369" y="512.64" style="stroke: #000000; stroke-width: 0.8"/>
      </g>
     </g>
     <g id="text_4">
      <!-- Questionnaire -->
      <g transform="translate(333.995313 527.238438) scale(0.1 -0.1)">
       <defs>
        <path id="DejaVuSans-51" d="M 2522 4238 
Q 1834 4238 1429 3725 
Q 1025 3213 1025 2328 
Q 1025 1447 1429 934 
Q 1834 422 2522 422 
Q 3209 422 3611 934 
Q 4013 1447 4013 2328 
Q 4013 3213 3611 3725 
Q 3209 4238 2522 4238 
z
M 3406 84 
L 4238 -825 
L 3475 -825 
L 2784 -78 
Q 2681 -84 2626 -87 
Q 2572 -91 2522 -91 
Q 1538 -91 948 567 
Q 359 1225 359 2328 
Q 359 3434 948 4092 
Q 1538 4750 2522 4750 
Q 3503 4750 4090 4092 
Q 4678 3434 4678 2328 
Q 4678 1516 4351 937 
Q 4025 359 3406 84 
z
" transform="scale(0.015625)"/>
        <path id="DejaVuSans-73" d="M 2834 3397 
L 2834 2853 
Q 2591 2978 2328 3040 
Q 2066 3103 1784 3103 
Q 1356 3103 1142 2972 
Q 928 2841 928 2578 
Q 928 2378 1081 2264 
Q 1234 2150 1697 2047 
L 1894 2003 
Q 2506 1872 2764 1633 
Q 3022 1394 3022 966 
Q 3022 478 2636 193 
Q 2250 -91 1575 -91 
Q 1294 -91 989 -36 
Q 684 19 347 128 
L 347 722 
Q 666 556 975 473 
Q 1284 391 1588 391 
Q 1994 391 2212 530 
Q 2431 669 2431 922 
Q 2431 1156 2273 1281 
Q 2116 1406 1581 1522 
L 1381 1569 
Q 847 1681 609 1914 
Q 372 2147 372 2553 
Q 372 3047 722 3315 
Q 1072 3584 1716 3584 
Q 2034 3584 2315 3537 
Q 2597 3491 2834 3397 
z
" transform="scale(0.015625)"/>
       </defs>
       <use xlink:href="#DejaVuSans-51"/>
       <use xlink:href="#DejaVuSans-75" x="78.710938"/>
       <use xlink:href="#DejaVuSans-65" x="142.089844"/>
       <use xlink:href="#DejaVuSans-73" x="203.613281"/>
       <use xlink:href="#DejaVuSans-74" x="255.712891"/>
       <use xlink:href="#DejaVuSans-69" x="294.921875"/>
       <use xlink:href="#DejaVuSans-6f" x="322.705078"/>
       <use xlink:href="#DejaVuSans-6e" x="383.886719"/>
       <use xlink:href="#DejaVuSans-6e" x="447.265625"/>
       <use xlink:href="#DejaVuSans-61" x="510.644531"/>
       <use xlink:href="#DejaVuSans-69" x="571.923828"/>
       <use xlink:href="#DejaVuSans-72" x="599.707031"/>
       <use xlink:href="#DejaVuSans-65" x="638.570312"/>
      </g>
     </g>
    </g>
    <g id="xtick_5">
     <g id="line2d_9">
      <path d="M 453.545455 512.64 
L 453.545455 69.12 
" clip-path="url(#p463193632d)" style="fill: none; stroke: #b0b0b0; stroke-width: 0.8; stroke-linecap: square"/>
     </g>
     <g id="line2d_10">
      <g>
       <use xlink:href="#m341d9e229b" x="453.545455" y="512.64" style="stroke: #000000; stroke-width: 0.8"/>
      </g>
     </g>
     <g id="text_5">
      <!-- Data Science -->
      <g transform="translate(420.634517 527.238438) scale(0.1 -0.1)">
       <defs>
        <path id="DejaVuSans-44" d="M 1259 4147 
L 1259 519 
L 2022 519 
Q 2988 519 3436 956 
Q 3884 1394 3884 2338 
Q 3884 3275 3436 3711 
Q 2988 4147 2022 4147 
L 1259 4147 
z
M 628 4666 
L 1925 4666 
Q 3281 4666 3915 4102 
Q 4550 3538 4550 2338 
Q 4550 1131 3912 565 
Q 3275 0 1925 0 
L 628 0 
L 628 4666 
z
" transform="scale(0.015625)"/>
        <path id="DejaVuSans-53" d="M 3425 4513 
L 3425 3897 
Q 3066 4069 2747 4153 
Q 2428 4238 2131 4238 
Q 1616 4238 1336 4038 
Q 1056 3838 1056 3469 
Q 1056 3159 1242 3001 
Q 1428 2844 1947 2747 
L 2328 2669 
Q 3034 2534 3370 2195 
Q 3706 1856 3706 1288 
Q 3706 609 3251 259 
Q 2797 -91 1919 -91 
Q 1588 -91 1214 -16 
Q 841 59 441 206 
L 441 856 
Q 825 641 1194 531 
Q 1563 422 1919 422 
Q 2459 422 2753 634 
Q 3047 847 3047 1241 
Q 3047 1584 2836 1778 
Q 2625 1972 2144 2069 
L 1759 2144 
Q 1053 2284 737 2584 
Q 422 2884 422 3419 
Q 422 4038 858 4394 
Q 1294 4750 2059 4750 
Q 2388 4750 2728 4690 
Q 3069 4631 3425 4513 
z
" transform="scale(0.015625)"/>
       </defs>
       <use xlink:href="#DejaVuSans-44"/>
       <use xlink:href="#DejaVuSans-61" x="77.001953"/>
       <use xlink:href="#DejaVuSans-74" x="138.28125"/>
       <use xlink:href="#DejaVuSans-61" x="177.490234"/>
       <use xlink:href="#DejaVuSans-20" x="238.769531"/>
       <use xlink:href="#DejaVuSans-53" x="270.556641"/>
       <use xlink:href="#DejaVuSans-63" x="334.033203"/>
       <use xlink:href="#DejaVuSans-69" x="389.013672"/>
       <use xlink:href="#DejaVuSans-65" x="416.796875"/>
       <use xlink:href="#DejaVuSans-6e" x="478.320312"/>
       <use xlink:href="#DejaVuSans-63" x="541.699219"/>
       <use xlink:href="#DejaVuSans-65" x="596.679688"/>
      </g>
     </g>
    </g>
    <g id="xtick_6">
     <g id="line2d_11">
      <path d="M 538.090909 512.64 
L 538.090909 69.12 
" clip-path="url(#p463193632d)" style="fill: none; stroke: #b0b0b0; stroke-width: 0.8; stroke-linecap: square"/>
     </g>
     <g id="line2d_12">
      <g>
       <use xlink:href="#m341d9e229b" x="538.090909" y="512.64" style="stroke: #000000; stroke-width: 0.8"/>
      </g>
     </g>
     <g id="text_6">
      <!-- Engineering Research -->
      <g transform="translate(483.569034 527.238438) scale(0.1 -0.1)">
       <defs>
        <path id="DejaVuSans-52" d="M 2841 2188 
Q 3044 2119 3236 1894 
Q 3428 1669 3622 1275 
L 4263 0 
L 3584 0 
L 2988 1197 
Q 2756 1666 2539 1819 
Q 2322 1972 1947 1972 
L 1259 1972 
L 1259 0 
L 628 0 
L 628 4666 
L 2053 4666 
Q 2853 4666 3247 4331 
Q 3641 3997 3641 3322 
Q 3641 2881 3436 2590 
Q 3231 2300 2841 2188 
z
M 1259 4147 
L 1259 2491 
L 2053 2491 
Q 2509 2491 2742 2702 
Q 2975 2913 2975 3322 
Q 2975 3731 2742 3939 
Q 2509 4147 2053 4147 
L 1259 4147 
z
" transform="scale(0.015625)"/>
       </defs>
       <use xlink:href="#DejaVuSans-45"/>
       <use xlink:href="#DejaVuSans-6e" x="63.183594"/>
       <use xlink:href="#DejaVuSans-67" x="126.5625"/>
       <use xlink:href="#DejaVuSans-69" x="190.039062"/>
       <use xlink:href="#DejaVuSans-6e" x="217.822266"/>
       <use xlink:href="#DejaVuSans-65" x="281.201172"/>
       <use xlink:href="#DejaVuSans-65" x="342.724609"/>
       <use xlink:href="#DejaVuSans-72" x="404.248047"/>
       <use xlink:href="#DejaVuSans-69" x="445.361328"/>
       <use xlink:href="#DejaVuSans-6e" x="473.144531"/>
       <use xlink:href="#DejaVuSans-67" x="536.523438"/>
       <use xlink:href="#DejaVuSans-20" x="600"/>
       <use xlink:href="#DejaVuSans-52" x="631.787109"/>
       <use xlink:href="#DejaVuSans-65" x="696.769531"/>
       <use xlink:href="#DejaVuSans-73" x="758.292969"/>
       <use xlink:href="#DejaVuSans-65" x="810.392578"/>
       <use xlink:href="#DejaVuSans-61" x="871.916016"/>
       <use xlink:href="#DejaVuSans-72" x="933.195312"/>
       <use xlink:href="#DejaVuSans-63" x="972.058594"/>
       <use xlink:href="#DejaVuSans-68" x="1027.039062"/>
      </g>
     </g>
    </g>
    <g id="xtick_7">
     <g id="line2d_13">
      <path d="M 622.636364 512.64 
L 622.636364 69.12 
" clip-path="url(#p463193632d)" style="fill: none; stroke: #b0b0b0; stroke-width: 0.8; stroke-linecap: square"/>
     </g>
     <g id="line2d_14">
      <g>
       <use xlink:href="#m341d9e229b" x="622.636364" y="512.64" style="stroke: #000000; stroke-width: 0.8"/>
      </g>
     </g>
     <g id="text_7">
      <!-- Meta Science -->
      <g transform="translate(589.248864 527.238438) scale(0.1 -0.1)">
       <defs>
        <path id="DejaVuSans-4d" d="M 628 4666 
L 1569 4666 
L 2759 1491 
L 3956 4666 
L 4897 4666 
L 4897 0 
L 4281 0 
L 4281 4097 
L 3078 897 
L 2444 897 
L 1241 4097 
L 1241 0 
L 628 0 
L 628 4666 
z
" transform="scale(0.015625)"/>
       </defs>
       <use xlink:href="#DejaVuSans-4d"/>
       <use xlink:href="#DejaVuSans-65" x="86.279297"/>
       <use xlink:href="#DejaVuSans-74" x="147.802734"/>
       <use xlink:href="#DejaVuSans-61" x="187.011719"/>
       <use xlink:href="#DejaVuSans-20" x="248.291016"/>
       <use xlink:href="#DejaVuSans-53" x="280.078125"/>
       <use xlink:href="#DejaVuSans-63" x="343.554688"/>
       <use xlink:href="#DejaVuSans-69" x="398.535156"/>
       <use xlink:href="#DejaVuSans-65" x="426.318359"/>
       <use xlink:href="#DejaVuSans-6e" x="487.841797"/>
       <use xlink:href="#DejaVuSans-63" x="551.220703"/>
       <use xlink:href="#DejaVuSans-65" x="606.201172"/>
      </g>
     </g>
    </g>
    <g id="text_8">
     <!-- venue -->
     <g transform="translate(353.55 540.916563) scale(0.1 -0.1)">
      <use xlink:href="#DejaVuSans-76"/>
      <use xlink:href="#DejaVuSans-65" x="59.179688"/>
      <use xlink:href="#DejaVuSans-6e" x="120.703125"/>
      <use xlink:href="#DejaVuSans-75" x="184.082031"/>
      <use xlink:href="#DejaVuSans-65" x="247.460938"/>
     </g>
    </g>
   </g>
   <g id="matplotlib.axis_2">
    <g id="ytick_1">
     <g id="line2d_15">
      <path d="M 90 492.48 
L 648 492.48 
" clip-path="url(#p463193632d)" style="fill: none; stroke: #b0b0b0; stroke-width: 0.8; stroke-linecap: square"/>
     </g>
     <g id="line2d_16">
      <defs>
       <path id="mddda5770d0" d="M 0 0 
L -3.5 0 
" style="stroke: #000000; stroke-width: 0.8"/>
      </defs>
      <g>
       <use xlink:href="#mddda5770d0" x="90" y="492.48" style="stroke: #000000; stroke-width: 0.8"/>
      </g>
     </g>
     <g id="text_9">
      <!-- VR -->
      <g transform="translate(69.210938 496.279219) scale(0.1 -0.1)">
       <defs>
        <path id="DejaVuSans-56" d="M 1831 0 
L 50 4666 
L 709 4666 
L 2188 738 
L 3669 4666 
L 4325 4666 
L 2547 0 
L 1831 0 
z
" transform="scale(0.015625)"/>
       </defs>
       <use xlink:href="#DejaVuSans-56"/>
       <use xlink:href="#DejaVuSans-52" x="68.408203"/>
      </g>
     </g>
    </g>
    <g id="ytick_2">
     <g id="line2d_17">
      <path d="M 90 425.28 
L 648 425.28 
" clip-path="url(#p463193632d)" style="fill: none; stroke: #b0b0b0; stroke-width: 0.8; stroke-linecap: square"/>
     </g>
     <g id="line2d_18">
      <g>
       <use xlink:href="#mddda5770d0" x="90" y="425.28" style="stroke: #000000; stroke-width: 0.8"/>
      </g>
     </g>
     <g id="text_10">
      <!-- CHI -->
      <g transform="translate(65.546875 429.079219) scale(0.1 -0.1)">
       <defs>
        <path id="DejaVuSans-43" d="M 4122 4306 
L 4122 3641 
Q 3803 3938 3442 4084 
Q 3081 4231 2675 4231 
Q 1875 4231 1450 3742 
Q 1025 3253 1025 2328 
Q 1025 1406 1450 917 
Q 1875 428 2675 428 
Q 3081 428 3442 575 
Q 3803 722 4122 1019 
L 4122 359 
Q 3791 134 3420 21 
Q 3050 -91 2638 -91 
Q 1578 -91 968 557 
Q 359 1206 359 2328 
Q 359 3453 968 4101 
Q 1578 4750 2638 4750 
Q 3056 4750 3426 4639 
Q 3797 4528 4122 4306 
z
" transform="scale(0.015625)"/>
       </defs>
       <use xlink:href="#DejaVuSans-43"/>
       <use xlink:href="#DejaVuSans-48" x="69.824219"/>
       <use xlink:href="#DejaVuSans-49" x="145.019531"/>
      </g>
     </g>
    </g>
    <g id="ytick_3">
     <g id="line2d_19">
      <path d="M 90 358.08 
L 648 358.08 
" clip-path="url(#p463193632d)" style="fill: none; stroke: #b0b0b0; stroke-width: 0.8; stroke-linecap: square"/>
     </g>
     <g id="line2d_20">
      <g>
       <use xlink:href="#mddda5770d0" x="90" y="358.08" style="stroke: #000000; stroke-width: 0.8"/>
      </g>
     </g>
     <g id="text_11">
      <!-- UIST -->
      <g transform="translate(60.275 361.879219) scale(0.1 -0.1)">
       <defs>
        <path id="DejaVuSans-55" d="M 556 4666 
L 1191 4666 
L 1191 1831 
Q 1191 1081 1462 751 
Q 1734 422 2344 422 
Q 2950 422 3222 751 
Q 3494 1081 3494 1831 
L 3494 4666 
L 4128 4666 
L 4128 1753 
Q 4128 841 3676 375 
Q 3225 -91 2344 -91 
Q 1459 -91 1007 375 
Q 556 841 556 1753 
L 556 4666 
z
" transform="scale(0.015625)"/>
        <path id="DejaVuSans-54" d="M -19 4666 
L 3928 4666 
L 3928 4134 
L 2272 4134 
L 2272 0 
L 1638 0 
L 1638 4134 
L -19 4134 
L -19 4666 
z
" transform="scale(0.015625)"/>
       </defs>
       <use xlink:href="#DejaVuSans-55"/>
       <use xlink:href="#DejaVuSans-49" x="73.193359"/>
       <use xlink:href="#DejaVuSans-53" x="102.685547"/>
       <use xlink:href="#DejaVuSans-54" x="166.162109"/>
      </g>
     </g>
    </g>
    <g id="ytick_4">
     <g id="line2d_21">
      <path d="M 90 290.88 
L 648 290.88 
" clip-path="url(#p463193632d)" style="fill: none; stroke: #b0b0b0; stroke-width: 0.8; stroke-linecap: square"/>
     </g>
     <g id="line2d_22">
      <g>
       <use xlink:href="#mddda5770d0" x="90" y="290.88" style="stroke: #000000; stroke-width: 0.8"/>
      </g>
     </g>
     <g id="text_12">
      <!-- TVCG -->
      <g transform="translate(55.320312 294.679219) scale(0.1 -0.1)">
       <defs>
        <path id="DejaVuSans-47" d="M 3809 666 
L 3809 1919 
L 2778 1919 
L 2778 2438 
L 4434 2438 
L 4434 434 
Q 4069 175 3628 42 
Q 3188 -91 2688 -91 
Q 1594 -91 976 548 
Q 359 1188 359 2328 
Q 359 3472 976 4111 
Q 1594 4750 2688 4750 
Q 3144 4750 3555 4637 
Q 3966 4525 4313 4306 
L 4313 3634 
Q 3963 3931 3569 4081 
Q 3175 4231 2741 4231 
Q 1884 4231 1454 3753 
Q 1025 3275 1025 2328 
Q 1025 1384 1454 906 
Q 1884 428 2741 428 
Q 3075 428 3337 486 
Q 3600 544 3809 666 
z
" transform="scale(0.015625)"/>
       </defs>
       <use xlink:href="#DejaVuSans-54"/>
       <use xlink:href="#DejaVuSans-56" x="61.083984"/>
       <use xlink:href="#DejaVuSans-43" x="129.492188"/>
       <use xlink:href="#DejaVuSans-47" x="199.316406"/>
      </g>
     </g>
    </g>
    <g id="ytick_5">
     <g id="line2d_23">
      <path d="M 90 223.68 
L 648 223.68 
" clip-path="url(#p463193632d)" style="fill: none; stroke: #b0b0b0; stroke-width: 0.8; stroke-linecap: square"/>
     </g>
     <g id="line2d_24">
      <g>
       <use xlink:href="#mddda5770d0" x="90" y="223.68" style="stroke: #000000; stroke-width: 0.8"/>
      </g>
     </g>
     <g id="text_13">
      <!-- Other Venues -->
      <g transform="translate(15.171875 227.479219) scale(0.1 -0.1)">
       <defs>
        <path id="DejaVuSans-4f" d="M 2522 4238 
Q 1834 4238 1429 3725 
Q 1025 3213 1025 2328 
Q 1025 1447 1429 934 
Q 1834 422 2522 422 
Q 3209 422 3611 934 
Q 4013 1447 4013 2328 
Q 4013 3213 3611 3725 
Q 3209 4238 2522 4238 
z
M 2522 4750 
Q 3503 4750 4090 4092 
Q 4678 3434 4678 2328 
Q 4678 1225 4090 567 
Q 3503 -91 2522 -91 
Q 1538 -91 948 565 
Q 359 1222 359 2328 
Q 359 3434 948 4092 
Q 1538 4750 2522 4750 
z
" transform="scale(0.015625)"/>
       </defs>
       <use xlink:href="#DejaVuSans-4f"/>
       <use xlink:href="#DejaVuSans-74" x="78.710938"/>
       <use xlink:href="#DejaVuSans-68" x="117.919922"/>
       <use xlink:href="#DejaVuSans-65" x="181.298828"/>
       <use xlink:href="#DejaVuSans-72" x="242.822266"/>
       <use xlink:href="#DejaVuSans-20" x="283.935547"/>
       <use xlink:href="#DejaVuSans-56" x="315.722656"/>
       <use xlink:href="#DejaVuSans-65" x="376.380859"/>
       <use xlink:href="#DejaVuSans-6e" x="437.904297"/>
       <use xlink:href="#DejaVuSans-75" x="501.283203"/>
       <use xlink:href="#DejaVuSans-65" x="564.662109"/>
       <use xlink:href="#DejaVuSans-73" x="626.185547"/>
      </g>
     </g>
    </g>
    <g id="ytick_6">
     <g id="line2d_25">
      <path d="M 90 156.48 
L 648 156.48 
" clip-path="url(#p463193632d)" style="fill: none; stroke: #b0b0b0; stroke-width: 0.8; stroke-linecap: square"/>
     </g>
     <g id="line2d_26">
      <g>
       <use xlink:href="#mddda5770d0" x="90" y="156.48" style="stroke: #000000; stroke-width: 0.8"/>
      </g>
     </g>
     <g id="text_14">
      <!-- USS -->
      <g transform="translate(62.984375 160.279219) scale(0.1 -0.1)">
       <use xlink:href="#DejaVuSans-55"/>
       <use xlink:href="#DejaVuSans-53" x="73.193359"/>
       <use xlink:href="#DejaVuSans-53" x="136.669922"/>
      </g>
     </g>
    </g>
    <g id="ytick_7">
     <g id="line2d_27">
      <path d="M 90 89.28 
L 648 89.28 
" clip-path="url(#p463193632d)" style="fill: none; stroke: #b0b0b0; stroke-width: 0.8; stroke-linecap: square"/>
     </g>
     <g id="line2d_28">
      <g>
       <use xlink:href="#mddda5770d0" x="90" y="89.28" style="stroke: #000000; stroke-width: 0.8"/>
      </g>
     </g>
     <g id="text_15">
      <!-- SP -->
      <g transform="translate(70.621875 93.079219) scale(0.1 -0.1)">
       <defs>
        <path id="DejaVuSans-50" d="M 1259 4147 
L 1259 2394 
L 2053 2394 
Q 2494 2394 2734 2622 
Q 2975 2850 2975 3272 
Q 2975 3691 2734 3919 
Q 2494 4147 2053 4147 
L 1259 4147 
z
M 628 4666 
L 2053 4666 
Q 2838 4666 3239 4311 
Q 3641 3956 3641 3272 
Q 3641 2581 3239 2228 
Q 2838 1875 2053 1875 
L 1259 1875 
L 1259 0 
L 628 0 
L 628 4666 
z
" transform="scale(0.015625)"/>
       </defs>
       <use xlink:href="#DejaVuSans-53"/>
       <use xlink:href="#DejaVuSans-50" x="63.476562"/>
      </g>
     </g>
    </g>
    <g id="text_16">
     <!-- reality -->
     <g transform="translate(9.092187 306.66125) rotate(-90) scale(0.1 -0.1)">
      <defs>
       <path id="DejaVuSans-6c" d="M 603 4863 
L 1178 4863 
L 1178 0 
L 603 0 
L 603 4863 
z
" transform="scale(0.015625)"/>
       <path id="DejaVuSans-79" d="M 2059 -325 
Q 1816 -950 1584 -1140 
Q 1353 -1331 966 -1331 
L 506 -1331 
L 506 -850 
L 844 -850 
Q 1081 -850 1212 -737 
Q 1344 -625 1503 -206 
L 1606 56 
L 191 3500 
L 800 3500 
L 1894 763 
L 2988 3500 
L 3597 3500 
L 2059 -325 
z
" transform="scale(0.015625)"/>
      </defs>
      <use xlink:href="#DejaVuSans-72"/>
      <use xlink:href="#DejaVuSans-65" x="38.863281"/>
      <use xlink:href="#DejaVuSans-61" x="100.386719"/>
      <use xlink:href="#DejaVuSans-6c" x="161.666016"/>
      <use xlink:href="#DejaVuSans-69" x="189.449219"/>
      <use xlink:href="#DejaVuSans-74" x="217.232422"/>
      <use xlink:href="#DejaVuSans-79" x="256.441406"/>
     </g>
    </g>
   </g>
   <g id="patch_3">
    <path d="M 90 512.64 
L 90 69.12 
" style="fill: none; stroke: #000000; stroke-width: 0.8; stroke-linejoin: miter; stroke-linecap: square"/>
   </g>
   <g id="patch_4">
    <path d="M 648 512.64 
L 648 69.12 
" style="fill: none; stroke: #000000; stroke-width: 0.8; stroke-linejoin: miter; stroke-linecap: square"/>
   </g>
   <g id="patch_5">
    <path d="M 90 512.64 
L 648 512.64 
" style="fill: none; stroke: #000000; stroke-width: 0.8; stroke-linejoin: miter; stroke-linecap: square"/>
   </g>
   <g id="patch_6">
    <path d="M 90 69.12 
L 648 69.12 
" style="fill: none; stroke: #000000; stroke-width: 0.8; stroke-linejoin: miter; stroke-linecap: square"/>
   </g>
   <g id="text_17">
    <!-- Bubble Chart: venue vs reality by metaverse -->
    <g transform="translate(234.546562 63.12) scale(0.12 -0.12)">
     <defs>
      <path id="DejaVuSans-62" d="M 3116 1747 
Q 3116 2381 2855 2742 
Q 2594 3103 2138 3103 
Q 1681 3103 1420 2742 
Q 1159 2381 1159 1747 
Q 1159 1113 1420 752 
Q 1681 391 2138 391 
Q 2594 391 2855 752 
Q 3116 1113 3116 1747 
z
M 1159 2969 
Q 1341 3281 1617 3432 
Q 1894 3584 2278 3584 
Q 2916 3584 3314 3078 
Q 3713 2572 3713 1747 
Q 3713 922 3314 415 
Q 2916 -91 2278 -91 
Q 1894 -91 1617 61 
Q 1341 213 1159 525 
L 1159 0 
L 581 0 
L 581 4863 
L 1159 4863 
L 1159 2969 
z
" transform="scale(0.015625)"/>
      <path id="DejaVuSans-3a" d="M 750 794 
L 1409 794 
L 1409 0 
L 750 0 
L 750 794 
z
M 750 3309 
L 1409 3309 
L 1409 2516 
L 750 2516 
L 750 3309 
z
" transform="scale(0.015625)"/>
     </defs>
     <use xlink:href="#DejaVuSans-42"/>
     <use xlink:href="#DejaVuSans-75" x="68.603516"/>
     <use xlink:href="#DejaVuSans-62" x="131.982422"/>
     <use xlink:href="#DejaVuSans-62" x="195.458984"/>
     <use xlink:href="#DejaVuSans-6c" x="258.935547"/>
     <use xlink:href="#DejaVuSans-65" x="286.71875"/>
     <use xlink:href="#DejaVuSans-20" x="348.242188"/>
     <use xlink:href="#DejaVuSans-43" x="380.029297"/>
     <use xlink:href="#DejaVuSans-68" x="449.853516"/>
     <use xlink:href="#DejaVuSans-61" x="513.232422"/>
     <use xlink:href="#DejaVuSans-72" x="574.511719"/>
     <use xlink:href="#DejaVuSans-74" x="615.625"/>
     <use xlink:href="#DejaVuSans-3a" x="654.833984"/>
     <use xlink:href="#DejaVuSans-20" x="688.525391"/>
     <use xlink:href="#DejaVuSans-76" x="720.3125"/>
     <use xlink:href="#DejaVuSans-65" x="779.492188"/>
     <use xlink:href="#DejaVuSans-6e" x="841.015625"/>
     <use xlink:href="#DejaVuSans-75" x="904.394531"/>
     <use xlink:href="#DejaVuSans-65" x="967.773438"/>
     <use xlink:href="#DejaVuSans-20" x="1029.296875"/>
     <use xlink:href="#DejaVuSans-76" x="1061.083984"/>
     <use xlink:href="#DejaVuSans-73" x="1120.263672"/>
     <use xlink:href="#DejaVuSans-20" x="1172.363281"/>
     <use xlink:href="#DejaVuSans-72" x="1204.150391"/>
     <use xlink:href="#DejaVuSans-65" x="1243.013672"/>
     <use xlink:href="#DejaVuSans-61" x="1304.537109"/>
     <use xlink:href="#DejaVuSans-6c" x="1365.816406"/>
     <use xlink:href="#DejaVuSans-69" x="1393.599609"/>
     <use xlink:href="#DejaVuSans-74" x="1421.382812"/>
     <use xlink:href="#DejaVuSans-79" x="1460.591797"/>
     <use xlink:href="#DejaVuSans-20" x="1519.771484"/>
     <use xlink:href="#DejaVuSans-62" x="1551.558594"/>
     <use xlink:href="#DejaVuSans-79" x="1615.035156"/>
     <use xlink:href="#DejaVuSans-20" x="1674.214844"/>
     <use xlink:href="#DejaVuSans-6d" x="1706.001953"/>
     <use xlink:href="#DejaVuSans-65" x="1803.414062"/>
     <use xlink:href="#DejaVuSans-74" x="1864.9375"/>
     <use xlink:href="#DejaVuSans-61" x="1904.146484"/>
     <use xlink:href="#DejaVuSans-76" x="1965.425781"/>
     <use xlink:href="#DejaVuSans-65" x="2024.605469"/>
     <use xlink:href="#DejaVuSans-72" x="2086.128906"/>
     <use xlink:href="#DejaVuSans-73" x="2127.242188"/>
     <use xlink:href="#DejaVuSans-65" x="2179.341797"/>
    </g>
   </g>
   <g id="legend_1">
    <g id="patch_7">
     <path d="M 513.467188 150.510625 
L 641 150.510625 
Q 643 150.510625 643 148.510625 
L 643 76.12 
Q 643 74.12 641 74.12 
L 513.467188 74.12 
Q 511.467188 74.12 511.467188 76.12 
L 511.467188 148.510625 
Q 511.467188 150.510625 513.467188 150.510625 
z
" style="fill: #ffffff; opacity: 0.8; stroke: #cccccc; stroke-linejoin: miter"/>
    </g>
    <g id="text_18">
     <!-- Metaverse -->
     <g transform="translate(551.046094 85.718437) scale(0.1 -0.1)">
      <use xlink:href="#DejaVuSans-4d"/>
      <use xlink:href="#DejaVuSans-65" x="86.279297"/>
      <use xlink:href="#DejaVuSans-74" x="147.802734"/>
      <use xlink:href="#DejaVuSans-61" x="187.011719"/>
      <use xlink:href="#DejaVuSans-76" x="248.291016"/>
      <use xlink:href="#DejaVuSans-65" x="307.470703"/>
      <use xlink:href="#DejaVuSans-72" x="368.994141"/>
      <use xlink:href="#DejaVuSans-73" x="410.107422"/>
      <use xlink:href="#DejaVuSans-65" x="462.207031"/>
     </g>
    </g>
    <g id="line2d_29">
     <path d="M 515.467188 96.896563 
L 525.467188 96.896563 
L 535.467188 96.896563 
" style="fill: none; stroke: #ffffff; stroke-width: 1.5; stroke-linecap: square"/>
     <defs>
      <path id="maa3ff1bb06" d="M 0 5 
C 1.326016 5 2.597899 4.473168 3.535534 3.535534 
C 4.473168 2.597899 5 1.326016 5 0 
C 5 -1.326016 4.473168 -2.597899 3.535534 -3.535534 
C 2.597899 -4.473168 1.326016 -5 0 -5 
C -1.326016 -5 -2.597899 -4.473168 -3.535534 -3.535534 
C -4.473168 -2.597899 -5 -1.326016 -5 0 
C -5 1.326016 -4.473168 2.597899 -3.535534 3.535534 
C -2.597899 4.473168 -1.326016 5 0 5 
z
" style="stroke: #ffffff"/>
     </defs>
     <g>
      <use xlink:href="#maa3ff1bb06" x="525.467188" y="96.896563" style="fill: #0000ff; stroke: #ffffff"/>
     </g>
    </g>
    <g id="text_19">
     <!-- Virtual World -->
     <g transform="translate(543.467188 100.396563) scale(0.1 -0.1)">
      <defs>
       <path id="DejaVuSans-57" d="M 213 4666 
L 850 4666 
L 1831 722 
L 2809 4666 
L 3519 4666 
L 4500 722 
L 5478 4666 
L 6119 4666 
L 4947 0 
L 4153 0 
L 3169 4050 
L 2175 0 
L 1381 0 
L 213 4666 
z
" transform="scale(0.015625)"/>
       <path id="DejaVuSans-64" d="M 2906 2969 
L 2906 4863 
L 3481 4863 
L 3481 0 
L 2906 0 
L 2906 525 
Q 2725 213 2448 61 
Q 2172 -91 1784 -91 
Q 1150 -91 751 415 
Q 353 922 353 1747 
Q 353 2572 751 3078 
Q 1150 3584 1784 3584 
Q 2172 3584 2448 3432 
Q 2725 3281 2906 2969 
z
M 947 1747 
Q 947 1113 1208 752 
Q 1469 391 1925 391 
Q 2381 391 2643 752 
Q 2906 1113 2906 1747 
Q 2906 2381 2643 2742 
Q 2381 3103 1925 3103 
Q 1469 3103 1208 2742 
Q 947 2381 947 1747 
z
" transform="scale(0.015625)"/>
      </defs>
      <use xlink:href="#DejaVuSans-56"/>
      <use xlink:href="#DejaVuSans-69" x="66.158203"/>
      <use xlink:href="#DejaVuSans-72" x="93.941406"/>
      <use xlink:href="#DejaVuSans-74" x="135.054688"/>
      <use xlink:href="#DejaVuSans-75" x="174.263672"/>
      <use xlink:href="#DejaVuSans-61" x="237.642578"/>
      <use xlink:href="#DejaVuSans-6c" x="298.921875"/>
      <use xlink:href="#DejaVuSans-20" x="326.705078"/>
      <use xlink:href="#DejaVuSans-57" x="358.492188"/>
      <use xlink:href="#DejaVuSans-6f" x="451.494141"/>
      <use xlink:href="#DejaVuSans-72" x="512.675781"/>
      <use xlink:href="#DejaVuSans-6c" x="553.789062"/>
      <use xlink:href="#DejaVuSans-64" x="581.572266"/>
     </g>
    </g>
    <g id="line2d_30">
     <path d="M 515.467188 111.574688 
L 525.467188 111.574688 
L 535.467188 111.574688 
" style="fill: none; stroke: #ffffff; stroke-width: 1.5; stroke-linecap: square"/>
     <defs>
      <path id="me04069a43f" d="M 0 5 
C 1.326016 5 2.597899 4.473168 3.535534 3.535534 
C 4.473168 2.597899 5 1.326016 5 0 
C 5 -1.326016 4.473168 -2.597899 3.535534 -3.535534 
C 2.597899 -4.473168 1.326016 -5 0 -5 
C -1.326016 -5 -2.597899 -4.473168 -3.535534 -3.535534 
C -4.473168 -2.597899 -5 -1.326016 -5 0 
C -5 1.326016 -4.473168 2.597899 -3.535534 3.535534 
C -2.597899 4.473168 -1.326016 5 0 5 
z
" style="stroke: #ffffff"/>
     </defs>
     <g>
      <use xlink:href="#me04069a43f" x="525.467188" y="111.574688" style="fill: #008000; stroke: #ffffff"/>
     </g>
    </g>
    <g id="text_20">
     <!-- Lifelogging -->
     <g transform="translate(543.467188 115.074688) scale(0.1 -0.1)">
      <defs>
       <path id="DejaVuSans-4c" d="M 628 4666 
L 1259 4666 
L 1259 531 
L 3531 531 
L 3531 0 
L 628 0 
L 628 4666 
z
" transform="scale(0.015625)"/>
       <path id="DejaVuSans-66" d="M 2375 4863 
L 2375 4384 
L 1825 4384 
Q 1516 4384 1395 4259 
Q 1275 4134 1275 3809 
L 1275 3500 
L 2222 3500 
L 2222 3053 
L 1275 3053 
L 1275 0 
L 697 0 
L 697 3053 
L 147 3053 
L 147 3500 
L 697 3500 
L 697 3744 
Q 697 4328 969 4595 
Q 1241 4863 1831 4863 
L 2375 4863 
z
" transform="scale(0.015625)"/>
      </defs>
      <use xlink:href="#DejaVuSans-4c"/>
      <use xlink:href="#DejaVuSans-69" x="55.712891"/>
      <use xlink:href="#DejaVuSans-66" x="83.496094"/>
      <use xlink:href="#DejaVuSans-65" x="118.701172"/>
      <use xlink:href="#DejaVuSans-6c" x="180.224609"/>
      <use xlink:href="#DejaVuSans-6f" x="208.007812"/>
      <use xlink:href="#DejaVuSans-67" x="269.189453"/>
      <use xlink:href="#DejaVuSans-67" x="332.666016"/>
      <use xlink:href="#DejaVuSans-69" x="396.142578"/>
      <use xlink:href="#DejaVuSans-6e" x="423.925781"/>
      <use xlink:href="#DejaVuSans-67" x="487.304688"/>
     </g>
    </g>
    <g id="line2d_31">
     <path d="M 515.467188 126.252813 
L 525.467188 126.252813 
L 535.467188 126.252813 
" style="fill: none; stroke: #ffffff; stroke-width: 1.5; stroke-linecap: square"/>
     <defs>
      <path id="macaa768206" d="M 0 5 
C 1.326016 5 2.597899 4.473168 3.535534 3.535534 
C 4.473168 2.597899 5 1.326016 5 0 
C 5 -1.326016 4.473168 -2.597899 3.535534 -3.535534 
C 2.597899 -4.473168 1.326016 -5 0 -5 
C -1.326016 -5 -2.597899 -4.473168 -3.535534 -3.535534 
C -4.473168 -2.597899 -5 -1.326016 -5 0 
C -5 1.326016 -4.473168 2.597899 -3.535534 3.535534 
C -2.597899 4.473168 -1.326016 5 0 5 
z
" style="stroke: #ffffff"/>
     </defs>
     <g>
      <use xlink:href="#macaa768206" x="525.467188" y="126.252813" style="fill: #ff0000; stroke: #ffffff"/>
     </g>
    </g>
    <g id="text_21">
     <!-- Augmented Reality -->
     <g transform="translate(543.467188 129.752813) scale(0.1 -0.1)">
      <defs>
       <path id="DejaVuSans-41" d="M 2188 4044 
L 1331 1722 
L 3047 1722 
L 2188 4044 
z
M 1831 4666 
L 2547 4666 
L 4325 0 
L 3669 0 
L 3244 1197 
L 1141 1197 
L 716 0 
L 50 0 
L 1831 4666 
z
" transform="scale(0.015625)"/>
      </defs>
      <use xlink:href="#DejaVuSans-41"/>
      <use xlink:href="#DejaVuSans-75" x="68.408203"/>
      <use xlink:href="#DejaVuSans-67" x="131.787109"/>
      <use xlink:href="#DejaVuSans-6d" x="195.263672"/>
      <use xlink:href="#DejaVuSans-65" x="292.675781"/>
      <use xlink:href="#DejaVuSans-6e" x="354.199219"/>
      <use xlink:href="#DejaVuSans-74" x="417.578125"/>
      <use xlink:href="#DejaVuSans-65" x="456.787109"/>
      <use xlink:href="#DejaVuSans-64" x="518.310547"/>
      <use xlink:href="#DejaVuSans-20" x="581.787109"/>
      <use xlink:href="#DejaVuSans-52" x="613.574219"/>
      <use xlink:href="#DejaVuSans-65" x="678.556641"/>
      <use xlink:href="#DejaVuSans-61" x="740.080078"/>
      <use xlink:href="#DejaVuSans-6c" x="801.359375"/>
      <use xlink:href="#DejaVuSans-69" x="829.142578"/>
      <use xlink:href="#DejaVuSans-74" x="856.925781"/>
      <use xlink:href="#DejaVuSans-79" x="896.134766"/>
     </g>
    </g>
    <g id="line2d_32">
     <path d="M 515.467188 140.930938 
L 525.467188 140.930938 
L 535.467188 140.930938 
" style="fill: none; stroke: #ffffff; stroke-width: 1.5; stroke-linecap: square"/>
     <defs>
      <path id="m74a72684f6" d="M 0 5 
C 1.326016 5 2.597899 4.473168 3.535534 3.535534 
C 4.473168 2.597899 5 1.326016 5 0 
C 5 -1.326016 4.473168 -2.597899 3.535534 -3.535534 
C 2.597899 -4.473168 1.326016 -5 0 -5 
C -1.326016 -5 -2.597899 -4.473168 -3.535534 -3.535534 
C -4.473168 -2.597899 -5 -1.326016 -5 0 
C -5 1.326016 -4.473168 2.597899 -3.535534 3.535534 
C -2.597899 4.473168 -1.326016 5 0 5 
z
" style="stroke: #ffffff"/>
     </defs>
     <g>
      <use xlink:href="#m74a72684f6" x="525.467188" y="140.930938" style="fill: #800080; stroke: #ffffff"/>
     </g>
    </g>
    <g id="text_22">
     <!-- Mirror World -->
     <g transform="translate(543.467188 144.430938) scale(0.1 -0.1)">
      <use xlink:href="#DejaVuSans-4d"/>
      <use xlink:href="#DejaVuSans-69" x="86.279297"/>
      <use xlink:href="#DejaVuSans-72" x="114.0625"/>
      <use xlink:href="#DejaVuSans-72" x="153.425781"/>
      <use xlink:href="#DejaVuSans-6f" x="192.289062"/>
      <use xlink:href="#DejaVuSans-72" x="253.470703"/>
      <use xlink:href="#DejaVuSans-20" x="294.583984"/>
      <use xlink:href="#DejaVuSans-57" x="326.371094"/>
      <use xlink:href="#DejaVuSans-6f" x="419.373047"/>
      <use xlink:href="#DejaVuSans-72" x="480.554688"/>
      <use xlink:href="#DejaVuSans-6c" x="521.667969"/>
      <use xlink:href="#DejaVuSans-64" x="549.451172"/>
     </g>
    </g>
   </g>
  </g>
 </g>
 <defs>
  <clipPath id="p463193632d">
   <rect x="90" y="69.12" width="558" height="443.52"/>
  </clipPath>
 </defs>
</svg>
