<?xml version="1.0" encoding="utf-8" standalone="no"?>
<!DOCTYPE svg PUBLIC "-//W3C//DTD SVG 1.1//EN"
  "http://www.w3.org/Graphics/SVG/1.1/DTD/svg11.dtd">
<svg xmlns:xlink="http://www.w3.org/1999/xlink" width="720pt" height="576pt" viewBox="0 0 720 576" xmlns="http://www.w3.org/2000/svg" version="1.1">
 <metadata>
  <rdf:RDF xmlns:dc="http://purl.org/dc/elements/1.1/" xmlns:cc="http://creativecommons.org/ns#" xmlns:rdf="http://www.w3.org/1999/02/22-rdf-syntax-ns#">
   <cc:Work>
    <dc:type rdf:resource="http://purl.org/dc/dcmitype/StillImage"/>
    <dc:date>2024-09-02T12:50:16.128138</dc:date>
    <dc:format>image/svg+xml</dc:format>
    <dc:creator>
     <cc:Agent>
      <dc:title>Matplotlib v3.8.2, https://matplotlib.org/</dc:title>
     </cc:Agent>
    </dc:creator>
   </cc:Work>
  </rdf:RDF>
 </metadata>
 <defs>
  <style type="text/css">*{stroke-linejoin: round; stroke-linecap: butt}</style>
 </defs>
 <g id="figure_1">
  <g id="patch_1">
   <path d="M 0 576 
L 720 576 
L 720 0 
L 0 0 
z
" style="fill: #ffffff"/>
  </g>
  <g id="axes_1">
   <g id="patch_2">
    <path d="M 90 512.64 
L 648 512.64 
L 648 69.12 
L 90 69.12 
z
" style="fill: #ffffff"/>
   </g>
   <g id="PathCollection_1">
    <path d="M 115.363636 497.48 
C 116.689652 497.48 117.961536 496.953168 118.89917 496.015534 
C 119.836805 495.077899 120.363636 493.806016 120.363636 492.48 
C 120.363636 491.153985 119.836805 489.882101 118.89917 488.944466 
C 117.961536 488.006832 116.689652 487.48 115.363636 487.48 
C 114.037621 487.48 112.765737 488.006832 111.828102 488.944466 
C 110.890468 489.882101 110.363636 491.153985 110.363636 492.48 
C 110.363636 493.806016 110.890468 495.077899 111.828102 496.015534 
C 112.765737 496.953168 114.037621 497.48 115.363636 497.48 
z
" clip-path="url(#p83044c11cf)" style="fill: #0000ff; fill-opacity: 0.6; stroke: #ffffff; stroke-opacity: 0.6; stroke-width: 2"/>
    <path d="M 115.363636 506.622136 
C 119.114175 506.622136 122.711605 505.132031 125.363636 502.48 
C 128.015667 499.827969 129.505772 496.230538 129.505772 492.48 
C 129.505772 488.729462 128.015667 485.132031 125.363636 482.48 
C 122.711605 479.827969 119.114175 478.337864 115.363636 478.337864 
C 111.613098 478.337864 108.015667 479.827969 105.363636 482.48 
C 102.711605 485.132031 101.221501 488.729462 101.221501 492.48 
C 101.221501 496.230538 102.711605 499.827969 105.363636 502.48 
C 108.015667 505.132031 111.613098 506.622136 115.363636 506.622136 
z
" clip-path="url(#p83044c11cf)" style="fill: #00ffff; fill-opacity: 0.6; stroke: #ffffff; stroke-opacity: 0.6; stroke-width: 2"/>
    <path d="M 115.363636 430.28 
C 116.689652 430.28 117.961536 429.753168 118.89917 428.815534 
C 119.836805 427.877899 120.363636 426.606015 120.363636 425.28 
C 120.363636 423.953984 119.836805 422.682101 118.89917 421.744466 
C 117.961536 420.806832 116.689652 420.28 115.363636 420.28 
C 114.037621 420.28 112.765737 420.806832 111.828102 421.744466 
C 110.890468 422.682101 110.363636 423.953984 110.363636 425.28 
C 110.363636 426.606015 110.890468 427.877899 111.828102 428.815534 
C 112.765737 429.753168 114.037621 430.28 115.363636 430.28 
z
" clip-path="url(#p83044c11cf)" style="fill: #008000; fill-opacity: 0.6; stroke: #ffffff; stroke-opacity: 0.6; stroke-width: 2"/>
    <path d="M 115.363636 365.151068 
C 117.238905 365.151068 119.037621 364.406015 120.363636 363.08 
C 121.689652 361.753985 122.434704 359.955269 122.434704 358.08 
C 122.434704 356.204731 121.689652 354.406015 120.363636 353.08 
C 119.037621 351.753985 117.238905 351.008932 115.363636 351.008932 
C 113.488367 351.008932 111.689652 351.753985 110.363636 353.08 
C 109.037621 354.406015 108.292569 356.204731 108.292569 358.08 
C 108.292569 359.955269 109.037621 361.753985 110.363636 363.08 
C 111.689652 364.406015 113.488367 365.151068 115.363636 365.151068 
z
" clip-path="url(#p83044c11cf)" style="fill: #00ffff; fill-opacity: 0.6; stroke: #ffffff; stroke-opacity: 0.6; stroke-width: 2"/>
    <path d="M 115.363636 295.88 
C 116.689652 295.88 117.961536 295.353168 118.89917 294.415534 
C 119.836805 293.477899 120.363636 292.206015 120.363636 290.88 
C 120.363636 289.553985 119.836805 288.282101 118.89917 287.344466 
C 117.961536 286.406832 116.689652 285.88 115.363636 285.88 
C 114.037621 285.88 112.765737 286.406832 111.828102 287.344466 
C 110.890468 288.282101 110.363636 289.553985 110.363636 290.88 
C 110.363636 292.206015 110.890468 293.477899 111.828102 294.415534 
C 112.765737 295.353168 114.037621 295.88 115.363636 295.88 
z
" clip-path="url(#p83044c11cf)" style="fill: #008000; fill-opacity: 0.6; stroke: #ffffff; stroke-opacity: 0.6; stroke-width: 2"/>
    <path d="M 115.363636 299.540254 
C 117.660363 299.540254 119.86333 298.627755 121.487361 297.003724 
C 123.111391 295.379694 124.02389 293.176726 124.02389 290.88 
C 124.02389 288.583274 123.111391 286.380306 121.487361 284.756276 
C 119.86333 283.132245 117.660363 282.219746 115.363636 282.219746 
C 113.06691 282.219746 110.863943 283.132245 109.239912 284.756276 
C 107.615881 286.380306 106.703382 288.583274 106.703382 290.88 
C 106.703382 293.176726 107.615881 295.379694 109.239912 297.003724 
C 110.863943 298.627755 113.06691 299.540254 115.363636 299.540254 
z
" clip-path="url(#p83044c11cf)" style="fill: #00ffff; fill-opacity: 0.6; stroke: #ffffff; stroke-opacity: 0.6; stroke-width: 2"/>
    <path d="M 115.363636 232.340254 
C 117.660363 232.340254 119.86333 231.427755 121.487361 229.803724 
C 123.111391 228.179694 124.02389 225.976726 124.02389 223.68 
C 124.02389 221.383274 123.111391 219.180306 121.487361 217.556276 
C 119.86333 215.932245 117.660363 215.019746 115.363636 215.019746 
C 113.06691 215.019746 110.863943 215.932245 109.239912 217.556276 
C 107.615881 219.180306 106.703382 221.383274 106.703382 223.68 
C 106.703382 225.976726 107.615881 228.179694 109.239912 229.803724 
C 110.863943 231.427755 113.06691 232.340254 115.363636 232.340254 
z
" clip-path="url(#p83044c11cf)" style="fill: #0000ff; fill-opacity: 0.6; stroke: #ffffff; stroke-opacity: 0.6; stroke-width: 2"/>
    <path d="M 115.363636 232.340254 
C 117.660363 232.340254 119.86333 231.427755 121.487361 229.803724 
C 123.111391 228.179694 124.02389 225.976726 124.02389 223.68 
C 124.02389 221.383274 123.111391 219.180306 121.487361 217.556276 
C 119.86333 215.932245 117.660363 215.019746 115.363636 215.019746 
C 113.06691 215.019746 110.863943 215.932245 109.239912 217.556276 
C 107.615881 219.180306 106.703382 221.383274 106.703382 223.68 
C 106.703382 225.976726 107.615881 228.179694 109.239912 229.803724 
C 110.863943 231.427755 113.06691 232.340254 115.363636 232.340254 
z
" clip-path="url(#p83044c11cf)" style="fill: #ff0000; fill-opacity: 0.6; stroke: #ffffff; stroke-opacity: 0.6; stroke-width: 2"/>
    <path d="M 115.363636 230.751068 
C 117.238905 230.751068 119.037621 230.006016 120.363636 228.68 
C 121.689652 227.353984 122.434704 225.555269 122.434704 223.68 
C 122.434704 221.804731 121.689652 220.006016 120.363636 218.68 
C 119.037621 217.353984 117.238905 216.608932 115.363636 216.608932 
C 113.488367 216.608932 111.689652 217.353984 110.363636 218.68 
C 109.037621 220.006016 108.292569 221.804731 108.292569 223.68 
C 108.292569 225.555269 109.037621 227.353984 110.363636 228.68 
C 111.689652 230.006016 113.488367 230.751068 115.363636 230.751068 
z
" clip-path="url(#p83044c11cf)" style="fill: #800080; fill-opacity: 0.6; stroke: #ffffff; stroke-opacity: 0.6; stroke-width: 2"/>
    <path d="M 115.363636 239.491388 
C 119.556866 239.491388 123.578915 237.825401 126.543976 234.86034 
C 129.509037 231.895279 131.175025 227.873229 131.175025 223.68 
C 131.175025 219.486771 129.509037 215.464721 126.543976 212.49966 
C 123.578915 209.534599 119.556866 207.868612 115.363636 207.868612 
C 111.170407 207.868612 107.148357 209.534599 104.183296 212.49966 
C 101.218236 215.464721 99.552248 219.486771 99.552248 223.68 
C 99.552248 227.873229 101.218236 231.895279 104.183296 234.86034 
C 107.148357 237.825401 111.170407 239.491388 115.363636 239.491388 
z
" clip-path="url(#p83044c11cf)" style="fill: #00ffff; fill-opacity: 0.6; stroke: #ffffff; stroke-opacity: 0.6; stroke-width: 2"/>
    <path d="M 115.363636 167.66034 
C 118.328697 167.66034 121.172716 166.482309 123.269331 164.385694 
C 125.365945 162.28908 126.543976 159.445061 126.543976 156.48 
C 126.543976 153.514939 125.365945 150.67092 123.269331 148.574306 
C 121.172716 146.477691 118.328697 145.29966 115.363636 145.29966 
C 112.398576 145.29966 109.554557 146.477691 107.457942 148.574306 
C 105.361328 150.67092 104.183296 153.514939 104.183296 156.48 
C 104.183296 159.445061 105.361328 162.28908 107.457942 164.385694 
C 109.554557 166.482309 112.398576 167.66034 115.363636 167.66034 
z
" clip-path="url(#p83044c11cf)" style="fill: #0000ff; fill-opacity: 0.6; stroke: #ffffff; stroke-opacity: 0.6; stroke-width: 2"/>
    <path d="M 115.363636 165.140254 
C 117.660363 165.140254 119.86333 164.227755 121.487361 162.603724 
C 123.111391 160.979694 124.02389 158.776726 124.02389 156.48 
C 124.02389 154.183274 123.111391 151.980306 121.487361 150.356276 
C 119.86333 148.732245 117.660363 147.819746 115.363636 147.819746 
C 113.06691 147.819746 110.863943 148.732245 109.239912 150.356276 
C 107.615881 151.980306 106.703382 154.183274 106.703382 156.48 
C 106.703382 158.776726 107.615881 160.979694 109.239912 162.603724 
C 110.863943 164.227755 113.06691 165.140254 115.363636 165.140254 
z
" clip-path="url(#p83044c11cf)" style="fill: #008000; fill-opacity: 0.6; stroke: #ffffff; stroke-opacity: 0.6; stroke-width: 2"/>
    <path d="M 115.363636 165.140254 
C 117.660363 165.140254 119.86333 164.227755 121.487361 162.603724 
C 123.111391 160.979694 124.02389 158.776726 124.02389 156.48 
C 124.02389 154.183274 123.111391 151.980306 121.487361 150.356276 
C 119.86333 148.732245 117.660363 147.819746 115.363636 147.819746 
C 113.06691 147.819746 110.863943 148.732245 109.239912 150.356276 
C 107.615881 151.980306 106.703382 154.183274 106.703382 156.48 
C 106.703382 158.776726 107.615881 160.979694 109.239912 162.603724 
C 110.863943 164.227755 113.06691 165.140254 115.363636 165.140254 
z
" clip-path="url(#p83044c11cf)" style="fill: #00ffff; fill-opacity: 0.6; stroke: #ffffff; stroke-opacity: 0.6; stroke-width: 2"/>
    <path d="M 115.363636 96.351068 
C 117.238905 96.351068 119.037621 95.606015 120.363636 94.28 
C 121.689652 92.953984 122.434704 91.155269 122.434704 89.28 
C 122.434704 87.404731 121.689652 85.606015 120.363636 84.28 
C 119.037621 82.953984 117.238905 82.208932 115.363636 82.208932 
C 113.488367 82.208932 111.689652 82.953984 110.363636 84.28 
C 109.037621 85.606015 108.292569 87.404731 108.292569 89.28 
C 108.292569 91.155269 109.037621 92.953984 110.363636 94.28 
C 111.689652 95.606015 113.488367 96.351068 115.363636 96.351068 
z
" clip-path="url(#p83044c11cf)" style="fill: #0000ff; fill-opacity: 0.6; stroke: #ffffff; stroke-opacity: 0.6; stroke-width: 2"/>
    <path d="M 115.363636 96.351068 
C 117.238905 96.351068 119.037621 95.606015 120.363636 94.28 
C 121.689652 92.953984 122.434704 91.155269 122.434704 89.28 
C 122.434704 87.404731 121.689652 85.606015 120.363636 84.28 
C 119.037621 82.953984 117.238905 82.208932 115.363636 82.208932 
C 113.488367 82.208932 111.689652 82.953984 110.363636 84.28 
C 109.037621 85.606015 108.292569 87.404731 108.292569 89.28 
C 108.292569 91.155269 109.037621 92.953984 110.363636 94.28 
C 111.689652 95.606015 113.488367 96.351068 115.363636 96.351068 
z
" clip-path="url(#p83044c11cf)" style="fill: #00ffff; fill-opacity: 0.6; stroke: #ffffff; stroke-opacity: 0.6; stroke-width: 2"/>
    <path d="M 284.454545 497.48 
C 285.780561 497.48 287.052445 496.953168 287.990079 496.015534 
C 288.927714 495.077899 289.454545 493.806016 289.454545 492.48 
C 289.454545 491.153985 288.927714 489.882101 287.990079 488.944466 
C 287.052445 488.006832 285.780561 487.48 284.454545 487.48 
C 283.12853 487.48 281.856646 488.006832 280.919012 488.944466 
C 279.981377 489.882101 279.454545 491.153985 279.454545 492.48 
C 279.454545 493.806016 279.981377 495.077899 280.919012 496.015534 
C 281.856646 496.953168 283.12853 497.48 284.454545 497.48 
z
" clip-path="url(#p83044c11cf)" style="fill: #0000ff; fill-opacity: 0.6; stroke: #ffffff; stroke-opacity: 0.6; stroke-width: 2"/>
    <path d="M 284.454545 501.140254 
C 286.751272 501.140254 288.954239 500.227755 290.57827 498.603724 
C 292.2023 496.979694 293.114799 494.776726 293.114799 492.48 
C 293.114799 490.183274 292.2023 487.980306 290.57827 486.356276 
C 288.954239 484.732245 286.751272 483.819746 284.454545 483.819746 
C 282.157819 483.819746 279.954852 484.732245 278.330821 486.356276 
C 276.70679 487.980306 275.794291 490.183274 275.794291 492.48 
C 275.794291 494.776726 276.70679 496.979694 278.330821 498.603724 
C 279.954852 500.227755 282.157819 501.140254 284.454545 501.140254 
z
" clip-path="url(#p83044c11cf)" style="fill: #008000; fill-opacity: 0.6; stroke: #ffffff; stroke-opacity: 0.6; stroke-width: 2"/>
    <path d="M 284.454545 497.48 
C 285.780561 497.48 287.052445 496.953168 287.990079 496.015534 
C 288.927714 495.077899 289.454545 493.806016 289.454545 492.48 
C 289.454545 491.153985 288.927714 489.882101 287.990079 488.944466 
C 287.052445 488.006832 285.780561 487.48 284.454545 487.48 
C 283.12853 487.48 281.856646 488.006832 280.919012 488.944466 
C 279.981377 489.882101 279.454545 491.153985 279.454545 492.48 
C 279.454545 493.806016 279.981377 495.077899 280.919012 496.015534 
C 281.856646 496.953168 283.12853 497.48 284.454545 497.48 
z
" clip-path="url(#p83044c11cf)" style="fill: #00ffff; fill-opacity: 0.6; stroke: #ffffff; stroke-opacity: 0.6; stroke-width: 2"/>
    <path d="M 284.454545 432.351068 
C 286.329815 432.351068 288.12853 431.606015 289.454545 430.28 
C 290.780561 428.953984 291.525613 427.155269 291.525613 425.28 
C 291.525613 423.404731 290.780561 421.606015 289.454545 420.28 
C 288.12853 418.953984 286.329815 418.208932 284.454545 418.208932 
C 282.579276 418.208932 280.780561 418.953984 279.454545 420.28 
C 278.12853 421.606015 277.383478 423.404731 277.383478 425.28 
C 277.383478 427.155269 278.12853 428.953984 279.454545 430.28 
C 280.780561 431.606015 282.579276 432.351068 284.454545 432.351068 
z
" clip-path="url(#p83044c11cf)" style="fill: #0000ff; fill-opacity: 0.6; stroke: #ffffff; stroke-opacity: 0.6; stroke-width: 2"/>
    <path d="M 284.454545 437.527449 
C 287.702607 437.527449 290.818073 436.23698 293.114799 433.940254 
C 295.411526 431.643528 296.701994 428.528061 296.701994 425.28 
C 296.701994 422.031939 295.411526 418.916472 293.114799 416.619746 
C 290.818073 414.32302 287.702607 413.032551 284.454545 413.032551 
C 281.206484 413.032551 278.091018 414.32302 275.794291 416.619746 
C 273.497565 418.916472 272.207097 422.031939 272.207097 425.28 
C 272.207097 428.528061 273.497565 431.643528 275.794291 433.940254 
C 278.091018 436.23698 281.206484 437.527449 284.454545 437.527449 
z
" clip-path="url(#p83044c11cf)" style="fill: #008000; fill-opacity: 0.6; stroke: #ffffff; stroke-opacity: 0.6; stroke-width: 2"/>
    <path d="M 284.454545 430.28 
C 285.780561 430.28 287.052445 429.753168 287.990079 428.815534 
C 288.927714 427.877899 289.454545 426.606015 289.454545 425.28 
C 289.454545 423.953984 288.927714 422.682101 287.990079 421.744466 
C 287.052445 420.806832 285.780561 420.28 284.454545 420.28 
C 283.12853 420.28 281.856646 420.806832 280.919012 421.744466 
C 279.981377 422.682101 279.454545 423.953984 279.454545 425.28 
C 279.454545 426.606015 279.981377 427.877899 280.919012 428.815534 
C 281.856646 429.753168 283.12853 430.28 284.454545 430.28 
z
" clip-path="url(#p83044c11cf)" style="fill: #800080; fill-opacity: 0.6; stroke: #ffffff; stroke-opacity: 0.6; stroke-width: 2"/>
    <path d="M 284.454545 363.08 
C 285.780561 363.08 287.052445 362.553168 287.990079 361.615534 
C 288.927714 360.677899 289.454545 359.406015 289.454545 358.08 
C 289.454545 356.753985 288.927714 355.482101 287.990079 354.544466 
C 287.052445 353.606832 285.780561 353.08 284.454545 353.08 
C 283.12853 353.08 281.856646 353.606832 280.919012 354.544466 
C 279.981377 355.482101 279.454545 356.753985 279.454545 358.08 
C 279.454545 359.406015 279.981377 360.677899 280.919012 361.615534 
C 281.856646 362.553168 283.12853 363.08 284.454545 363.08 
z
" clip-path="url(#p83044c11cf)" style="fill: #0000ff; fill-opacity: 0.6; stroke: #ffffff; stroke-opacity: 0.6; stroke-width: 2"/>
    <path d="M 284.454545 365.151068 
C 286.329815 365.151068 288.12853 364.406015 289.454545 363.08 
C 290.780561 361.753985 291.525613 359.955269 291.525613 358.08 
C 291.525613 356.204731 290.780561 354.406015 289.454545 353.08 
C 288.12853 351.753985 286.329815 351.008932 284.454545 351.008932 
C 282.579276 351.008932 280.780561 351.753985 279.454545 353.08 
C 278.12853 354.406015 277.383478 356.204731 277.383478 358.08 
C 277.383478 359.955269 278.12853 361.753985 279.454545 363.08 
C 280.780561 364.406015 282.579276 365.151068 284.454545 365.151068 
z
" clip-path="url(#p83044c11cf)" style="fill: #008000; fill-opacity: 0.6; stroke: #ffffff; stroke-opacity: 0.6; stroke-width: 2"/>
    <path d="M 284.454545 295.88 
C 285.780561 295.88 287.052445 295.353168 287.990079 294.415534 
C 288.927714 293.477899 289.454545 292.206015 289.454545 290.88 
C 289.454545 289.553985 288.927714 288.282101 287.990079 287.344466 
C 287.052445 286.406832 285.780561 285.88 284.454545 285.88 
C 283.12853 285.88 281.856646 286.406832 280.919012 287.344466 
C 279.981377 288.282101 279.454545 289.553985 279.454545 290.88 
C 279.454545 292.206015 279.981377 293.477899 280.919012 294.415534 
C 281.856646 295.353168 283.12853 295.88 284.454545 295.88 
z
" clip-path="url(#p83044c11cf)" style="fill: #0000ff; fill-opacity: 0.6; stroke: #ffffff; stroke-opacity: 0.6; stroke-width: 2"/>
    <path d="M 284.454545 230.751068 
C 286.329815 230.751068 288.12853 230.006016 289.454545 228.68 
C 290.780561 227.353984 291.525613 225.555269 291.525613 223.68 
C 291.525613 221.804731 290.780561 220.006016 289.454545 218.68 
C 288.12853 217.353984 286.329815 216.608932 284.454545 216.608932 
C 282.579276 216.608932 280.780561 217.353984 279.454545 218.68 
C 278.12853 220.006016 277.383478 221.804731 277.383478 223.68 
C 277.383478 225.555269 278.12853 227.353984 279.454545 228.68 
C 280.780561 230.006016 282.579276 230.751068 284.454545 230.751068 
z
" clip-path="url(#p83044c11cf)" style="fill: #0000ff; fill-opacity: 0.6; stroke: #ffffff; stroke-opacity: 0.6; stroke-width: 2"/>
    <path d="M 284.454545 240.263124 
C 288.852441 240.263124 293.070803 238.515821 296.180585 235.406039 
C 299.290367 232.296257 301.037669 228.077896 301.037669 223.68 
C 301.037669 219.282104 299.290367 215.063743 296.180585 211.953961 
C 293.070803 208.844179 288.852441 207.096876 284.454545 207.096876 
C 280.05665 207.096876 275.838288 208.844179 272.728506 211.953961 
C 269.618724 215.063743 267.871422 219.282104 267.871422 223.68 
C 267.871422 228.077896 269.618724 232.296257 272.728506 235.406039 
C 275.838288 238.515821 280.05665 240.263124 284.454545 240.263124 
z
" clip-path="url(#p83044c11cf)" style="fill: #008000; fill-opacity: 0.6; stroke: #ffffff; stroke-opacity: 0.6; stroke-width: 2"/>
    <path d="M 284.454545 228.68 
C 285.780561 228.68 287.052445 228.153168 287.990079 227.215534 
C 288.927714 226.277899 289.454545 225.006016 289.454545 223.68 
C 289.454545 222.353984 288.927714 221.082101 287.990079 220.144466 
C 287.052445 219.206832 285.780561 218.68 284.454545 218.68 
C 283.12853 218.68 281.856646 219.206832 280.919012 220.144466 
C 279.981377 221.082101 279.454545 222.353984 279.454545 223.68 
C 279.454545 225.006016 279.981377 226.277899 280.919012 227.215534 
C 281.856646 228.153168 283.12853 228.68 284.454545 228.68 
z
" clip-path="url(#p83044c11cf)" style="fill: #ff0000; fill-opacity: 0.6; stroke: #ffffff; stroke-opacity: 0.6; stroke-width: 2"/>
    <path d="M 284.454545 228.68 
C 285.780561 228.68 287.052445 228.153168 287.990079 227.215534 
C 288.927714 226.277899 289.454545 225.006016 289.454545 223.68 
C 289.454545 222.353984 288.927714 221.082101 287.990079 220.144466 
C 287.052445 219.206832 285.780561 218.68 284.454545 218.68 
C 283.12853 218.68 281.856646 219.206832 280.919012 220.144466 
C 279.981377 221.082101 279.454545 222.353984 279.454545 223.68 
C 279.454545 225.006016 279.981377 226.277899 280.919012 227.215534 
C 281.856646 228.153168 283.12853 228.68 284.454545 228.68 
z
" clip-path="url(#p83044c11cf)" style="fill: #800080; fill-opacity: 0.6; stroke: #ffffff; stroke-opacity: 0.6; stroke-width: 2"/>
    <path d="M 284.454545 228.68 
C 285.780561 228.68 287.052445 228.153168 287.990079 227.215534 
C 288.927714 226.277899 289.454545 225.006016 289.454545 223.68 
C 289.454545 222.353984 288.927714 221.082101 287.990079 220.144466 
C 287.052445 219.206832 285.780561 218.68 284.454545 218.68 
C 283.12853 218.68 281.856646 219.206832 280.919012 220.144466 
C 279.981377 221.082101 279.454545 222.353984 279.454545 223.68 
C 279.454545 225.006016 279.981377 226.277899 280.919012 227.215534 
C 281.856646 228.153168 283.12853 228.68 284.454545 228.68 
z
" clip-path="url(#p83044c11cf)" style="fill: #00ffff; fill-opacity: 0.6; stroke: #ffffff; stroke-opacity: 0.6; stroke-width: 2"/>
    <path d="M 284.454545 161.48 
C 285.780561 161.48 287.052445 160.953168 287.990079 160.015534 
C 288.927714 159.077899 289.454545 157.806016 289.454545 156.48 
C 289.454545 155.153985 288.927714 153.882101 287.990079 152.944466 
C 287.052445 152.006832 285.780561 151.48 284.454545 151.48 
C 283.12853 151.48 281.856646 152.006832 280.919012 152.944466 
C 279.981377 153.882101 279.454545 155.153985 279.454545 156.48 
C 279.454545 157.806016 279.981377 159.077899 280.919012 160.015534 
C 281.856646 160.953168 283.12853 161.48 284.454545 161.48 
z
" clip-path="url(#p83044c11cf)" style="fill: #0000ff; fill-opacity: 0.6; stroke: #ffffff; stroke-opacity: 0.6; stroke-width: 2"/>
    <path d="M 284.454545 161.48 
C 285.780561 161.48 287.052445 160.953168 287.990079 160.015534 
C 288.927714 159.077899 289.454545 157.806016 289.454545 156.48 
C 289.454545 155.153985 288.927714 153.882101 287.990079 152.944466 
C 287.052445 152.006832 285.780561 151.48 284.454545 151.48 
C 283.12853 151.48 281.856646 152.006832 280.919012 152.944466 
C 279.981377 153.882101 279.454545 155.153985 279.454545 156.48 
C 279.454545 157.806016 279.981377 159.077899 280.919012 160.015534 
C 281.856646 160.953168 283.12853 161.48 284.454545 161.48 
z
" clip-path="url(#p83044c11cf)" style="fill: #008000; fill-opacity: 0.6; stroke: #ffffff; stroke-opacity: 0.6; stroke-width: 2"/>
    <path d="M 284.454545 163.551068 
C 286.329815 163.551068 288.12853 162.806016 289.454545 161.48 
C 290.780561 160.153985 291.525613 158.355269 291.525613 156.48 
C 291.525613 154.604731 290.780561 152.806016 289.454545 151.48 
C 288.12853 150.153985 286.329815 149.408932 284.454545 149.408932 
C 282.579276 149.408932 280.780561 150.153985 279.454545 151.48 
C 278.12853 152.806016 277.383478 154.604731 277.383478 156.48 
C 277.383478 158.355269 278.12853 160.153985 279.454545 161.48 
C 280.780561 162.806016 282.579276 163.551068 284.454545 163.551068 
z
" clip-path="url(#p83044c11cf)" style="fill: #00ffff; fill-opacity: 0.6; stroke: #ffffff; stroke-opacity: 0.6; stroke-width: 2"/>
    <path d="M 284.454545 94.28 
C 285.780561 94.28 287.052445 93.753168 287.990079 92.815534 
C 288.927714 91.877899 289.454545 90.606015 289.454545 89.28 
C 289.454545 87.953984 288.927714 86.682101 287.990079 85.744466 
C 287.052445 84.806832 285.780561 84.28 284.454545 84.28 
C 283.12853 84.28 281.856646 84.806832 280.919012 85.744466 
C 279.981377 86.682101 279.454545 87.953984 279.454545 89.28 
C 279.454545 90.606015 279.981377 91.877899 280.919012 92.815534 
C 281.856646 93.753168 283.12853 94.28 284.454545 94.28 
z
" clip-path="url(#p83044c11cf)" style="fill: #0000ff; fill-opacity: 0.6; stroke: #ffffff; stroke-opacity: 0.6; stroke-width: 2"/>
    <path d="M 284.454545 96.351068 
C 286.329815 96.351068 288.12853 95.606015 289.454545 94.28 
C 290.780561 92.953984 291.525613 91.155269 291.525613 89.28 
C 291.525613 87.404731 290.780561 85.606015 289.454545 84.28 
C 288.12853 82.953984 286.329815 82.208932 284.454545 82.208932 
C 282.579276 82.208932 280.780561 82.953984 279.454545 84.28 
C 278.12853 85.606015 277.383478 87.404731 277.383478 89.28 
C 277.383478 91.155269 278.12853 92.953984 279.454545 94.28 
C 280.780561 95.606015 282.579276 96.351068 284.454545 96.351068 
z
" clip-path="url(#p83044c11cf)" style="fill: #008000; fill-opacity: 0.6; stroke: #ffffff; stroke-opacity: 0.6; stroke-width: 2"/>
    <path d="M 453.545455 497.48 
C 454.87147 497.48 456.143354 496.953168 457.080988 496.015534 
C 458.018623 495.077899 458.545455 493.806016 458.545455 492.48 
C 458.545455 491.153985 458.018623 489.882101 457.080988 488.944466 
C 456.143354 488.006832 454.87147 487.48 453.545455 487.48 
C 452.219439 487.48 450.947555 488.006832 450.009921 488.944466 
C 449.072286 489.882101 448.545455 491.153985 448.545455 492.48 
C 448.545455 493.806016 449.072286 495.077899 450.009921 496.015534 
C 450.947555 496.953168 452.219439 497.48 453.545455 497.48 
z
" clip-path="url(#p83044c11cf)" style="fill: #0000ff; fill-opacity: 0.6; stroke: #ffffff; stroke-opacity: 0.6; stroke-width: 2"/>
    <path d="M 453.545455 497.48 
C 454.87147 497.48 456.143354 496.953168 457.080988 496.015534 
C 458.018623 495.077899 458.545455 493.806016 458.545455 492.48 
C 458.545455 491.153985 458.018623 489.882101 457.080988 488.944466 
C 456.143354 488.006832 454.87147 487.48 453.545455 487.48 
C 452.219439 487.48 450.947555 488.006832 450.009921 488.944466 
C 449.072286 489.882101 448.545455 491.153985 448.545455 492.48 
C 448.545455 493.806016 449.072286 495.077899 450.009921 496.015534 
C 450.947555 496.953168 452.219439 497.48 453.545455 497.48 
z
" clip-path="url(#p83044c11cf)" style="fill: #008000; fill-opacity: 0.6; stroke: #ffffff; stroke-opacity: 0.6; stroke-width: 2"/>
    <path d="M 453.545455 432.351068 
C 455.420724 432.351068 457.219439 431.606015 458.545455 430.28 
C 459.87147 428.953984 460.616522 427.155269 460.616522 425.28 
C 460.616522 423.404731 459.87147 421.606015 458.545455 420.28 
C 457.219439 418.953984 455.420724 418.208932 453.545455 418.208932 
C 451.670185 418.208932 449.87147 418.953984 448.545455 420.28 
C 447.219439 421.606015 446.474387 423.404731 446.474387 425.28 
C 446.474387 427.155269 447.219439 428.953984 448.545455 430.28 
C 449.87147 431.606015 451.670185 432.351068 453.545455 432.351068 
z
" clip-path="url(#p83044c11cf)" style="fill: #0000ff; fill-opacity: 0.6; stroke: #ffffff; stroke-opacity: 0.6; stroke-width: 2"/>
    <path d="M 453.545455 432.351068 
C 455.420724 432.351068 457.219439 431.606015 458.545455 430.28 
C 459.87147 428.953984 460.616522 427.155269 460.616522 425.28 
C 460.616522 423.404731 459.87147 421.606015 458.545455 420.28 
C 457.219439 418.953984 455.420724 418.208932 453.545455 418.208932 
C 451.670185 418.208932 449.87147 418.953984 448.545455 420.28 
C 447.219439 421.606015 446.474387 423.404731 446.474387 425.28 
C 446.474387 427.155269 447.219439 428.953984 448.545455 430.28 
C 449.87147 431.606015 451.670185 432.351068 453.545455 432.351068 
z
" clip-path="url(#p83044c11cf)" style="fill: #008000; fill-opacity: 0.6; stroke: #ffffff; stroke-opacity: 0.6; stroke-width: 2"/>
    <path d="M 453.545455 295.88 
C 454.87147 295.88 456.143354 295.353168 457.080988 294.415534 
C 458.018623 293.477899 458.545455 292.206015 458.545455 290.88 
C 458.545455 289.553985 458.018623 288.282101 457.080988 287.344466 
C 456.143354 286.406832 454.87147 285.88 453.545455 285.88 
C 452.219439 285.88 450.947555 286.406832 450.009921 287.344466 
C 449.072286 288.282101 448.545455 289.553985 448.545455 290.88 
C 448.545455 292.206015 449.072286 293.477899 450.009921 294.415534 
C 450.947555 295.353168 452.219439 295.88 453.545455 295.88 
z
" clip-path="url(#p83044c11cf)" style="fill: #0000ff; fill-opacity: 0.6; stroke: #ffffff; stroke-opacity: 0.6; stroke-width: 2"/>
    <path d="M 453.545455 230.751068 
C 455.420724 230.751068 457.219439 230.006016 458.545455 228.68 
C 459.87147 227.353984 460.616522 225.555269 460.616522 223.68 
C 460.616522 221.804731 459.87147 220.006016 458.545455 218.68 
C 457.219439 217.353984 455.420724 216.608932 453.545455 216.608932 
C 451.670185 216.608932 449.87147 217.353984 448.545455 218.68 
C 447.219439 220.006016 446.474387 221.804731 446.474387 223.68 
C 446.474387 225.555269 447.219439 227.353984 448.545455 228.68 
C 449.87147 230.006016 451.670185 230.751068 453.545455 230.751068 
z
" clip-path="url(#p83044c11cf)" style="fill: #0000ff; fill-opacity: 0.6; stroke: #ffffff; stroke-opacity: 0.6; stroke-width: 2"/>
    <path d="M 453.545455 234.86034 
C 456.510515 234.86034 459.354534 233.682309 461.451149 231.585694 
C 463.547763 229.48908 464.725794 226.645061 464.725794 223.68 
C 464.725794 220.714939 463.547763 217.87092 461.451149 215.774306 
C 459.354534 213.677691 456.510515 212.49966 453.545455 212.49966 
C 450.580394 212.49966 447.736375 213.677691 445.63976 215.774306 
C 443.543146 217.87092 442.365115 220.714939 442.365115 223.68 
C 442.365115 226.645061 443.543146 229.48908 445.63976 231.585694 
C 447.736375 233.682309 450.580394 234.86034 453.545455 234.86034 
z
" clip-path="url(#p83044c11cf)" style="fill: #008000; fill-opacity: 0.6; stroke: #ffffff; stroke-opacity: 0.6; stroke-width: 2"/>
    <path d="M 453.545455 230.751068 
C 455.420724 230.751068 457.219439 230.006016 458.545455 228.68 
C 459.87147 227.353984 460.616522 225.555269 460.616522 223.68 
C 460.616522 221.804731 459.87147 220.006016 458.545455 218.68 
C 457.219439 217.353984 455.420724 216.608932 453.545455 216.608932 
C 451.670185 216.608932 449.87147 217.353984 448.545455 218.68 
C 447.219439 220.006016 446.474387 221.804731 446.474387 223.68 
C 446.474387 225.555269 447.219439 227.353984 448.545455 228.68 
C 449.87147 230.006016 451.670185 230.751068 453.545455 230.751068 
z
" clip-path="url(#p83044c11cf)" style="fill: #00ffff; fill-opacity: 0.6; stroke: #ffffff; stroke-opacity: 0.6; stroke-width: 2"/>
    <path d="M 453.545455 161.48 
C 454.87147 161.48 456.143354 160.953168 457.080988 160.015534 
C 458.018623 159.077899 458.545455 157.806016 458.545455 156.48 
C 458.545455 155.153985 458.018623 153.882101 457.080988 152.944466 
C 456.143354 152.006832 454.87147 151.48 453.545455 151.48 
C 452.219439 151.48 450.947555 152.006832 450.009921 152.944466 
C 449.072286 153.882101 448.545455 155.153985 448.545455 156.48 
C 448.545455 157.806016 449.072286 159.077899 450.009921 160.015534 
C 450.947555 160.953168 452.219439 161.48 453.545455 161.48 
z
" clip-path="url(#p83044c11cf)" style="fill: #008000; fill-opacity: 0.6; stroke: #ffffff; stroke-opacity: 0.6; stroke-width: 2"/>
    <path d="M 453.545455 161.48 
C 454.87147 161.48 456.143354 160.953168 457.080988 160.015534 
C 458.018623 159.077899 458.545455 157.806016 458.545455 156.48 
C 458.545455 155.153985 458.018623 153.882101 457.080988 152.944466 
C 456.143354 152.006832 454.87147 151.48 453.545455 151.48 
C 452.219439 151.48 450.947555 152.006832 450.009921 152.944466 
C 449.072286 153.882101 448.545455 155.153985 448.545455 156.48 
C 448.545455 157.806016 449.072286 159.077899 450.009921 160.015534 
C 450.947555 160.953168 452.219439 161.48 453.545455 161.48 
z
" clip-path="url(#p83044c11cf)" style="fill: #00ffff; fill-opacity: 0.6; stroke: #ffffff; stroke-opacity: 0.6; stroke-width: 2"/>
    <path d="M 453.545455 96.351068 
C 455.420724 96.351068 457.219439 95.606015 458.545455 94.28 
C 459.87147 92.953984 460.616522 91.155269 460.616522 89.28 
C 460.616522 87.404731 459.87147 85.606015 458.545455 84.28 
C 457.219439 82.953984 455.420724 82.208932 453.545455 82.208932 
C 451.670185 82.208932 449.87147 82.953984 448.545455 84.28 
C 447.219439 85.606015 446.474387 87.404731 446.474387 89.28 
C 446.474387 91.155269 447.219439 92.953984 448.545455 94.28 
C 449.87147 95.606015 451.670185 96.351068 453.545455 96.351068 
z
" clip-path="url(#p83044c11cf)" style="fill: #00ffff; fill-opacity: 0.6; stroke: #ffffff; stroke-opacity: 0.6; stroke-width: 2"/>
    <path d="M 622.636364 497.48 
C 623.962379 497.48 625.234263 496.953168 626.171898 496.015534 
C 627.109532 495.077899 627.636364 493.806016 627.636364 492.48 
C 627.636364 491.153985 627.109532 489.882101 626.171898 488.944466 
C 625.234263 488.006832 623.962379 487.48 622.636364 487.48 
C 621.310348 487.48 620.038464 488.006832 619.10083 488.944466 
C 618.163195 489.882101 617.636364 491.153985 617.636364 492.48 
C 617.636364 493.806016 618.163195 495.077899 619.10083 496.015534 
C 620.038464 496.953168 621.310348 497.48 622.636364 497.48 
z
" clip-path="url(#p83044c11cf)" style="fill: #0000ff; fill-opacity: 0.6; stroke: #ffffff; stroke-opacity: 0.6; stroke-width: 2"/>
    <path d="M 622.636364 499.551068 
C 624.511633 499.551068 626.310348 498.806016 627.636364 497.48 
C 628.962379 496.153985 629.707431 494.355269 629.707431 492.48 
C 629.707431 490.604731 628.962379 488.806016 627.636364 487.48 
C 626.310348 486.153985 624.511633 485.408932 622.636364 485.408932 
C 620.761095 485.408932 618.962379 486.153985 617.636364 487.48 
C 616.310348 488.806016 615.565296 490.604731 615.565296 492.48 
C 615.565296 494.355269 616.310348 496.153985 617.636364 497.48 
C 618.962379 498.806016 620.761095 499.551068 622.636364 499.551068 
z
" clip-path="url(#p83044c11cf)" style="fill: #008000; fill-opacity: 0.6; stroke: #ffffff; stroke-opacity: 0.6; stroke-width: 2"/>
    <path d="M 622.636364 497.48 
C 623.962379 497.48 625.234263 496.953168 626.171898 496.015534 
C 627.109532 495.077899 627.636364 493.806016 627.636364 492.48 
C 627.636364 491.153985 627.109532 489.882101 626.171898 488.944466 
C 625.234263 488.006832 623.962379 487.48 622.636364 487.48 
C 621.310348 487.48 620.038464 488.006832 619.10083 488.944466 
C 618.163195 489.882101 617.636364 491.153985 617.636364 492.48 
C 617.636364 493.806016 618.163195 495.077899 619.10083 496.015534 
C 620.038464 496.953168 621.310348 497.48 622.636364 497.48 
z
" clip-path="url(#p83044c11cf)" style="fill: #00ffff; fill-opacity: 0.6; stroke: #ffffff; stroke-opacity: 0.6; stroke-width: 2"/>
    <path d="M 622.636364 430.28 
C 623.962379 430.28 625.234263 429.753168 626.171898 428.815534 
C 627.109532 427.877899 627.636364 426.606015 627.636364 425.28 
C 627.636364 423.953984 627.109532 422.682101 626.171898 421.744466 
C 625.234263 420.806832 623.962379 420.28 622.636364 420.28 
C 621.310348 420.28 620.038464 420.806832 619.10083 421.744466 
C 618.163195 422.682101 617.636364 423.953984 617.636364 425.28 
C 617.636364 426.606015 618.163195 427.877899 619.10083 428.815534 
C 620.038464 429.753168 621.310348 430.28 622.636364 430.28 
z
" clip-path="url(#p83044c11cf)" style="fill: #0000ff; fill-opacity: 0.6; stroke: #ffffff; stroke-opacity: 0.6; stroke-width: 2"/>
    <path d="M 622.636364 432.351068 
C 624.511633 432.351068 626.310348 431.606015 627.636364 430.28 
C 628.962379 428.953984 629.707431 427.155269 629.707431 425.28 
C 629.707431 423.404731 628.962379 421.606015 627.636364 420.28 
C 626.310348 418.953984 624.511633 418.208932 622.636364 418.208932 
C 620.761095 418.208932 618.962379 418.953984 617.636364 420.28 
C 616.310348 421.606015 615.565296 423.404731 615.565296 425.28 
C 615.565296 427.155269 616.310348 428.953984 617.636364 430.28 
C 618.962379 431.606015 620.761095 432.351068 622.636364 432.351068 
z
" clip-path="url(#p83044c11cf)" style="fill: #008000; fill-opacity: 0.6; stroke: #ffffff; stroke-opacity: 0.6; stroke-width: 2"/>
    <path d="M 622.636364 365.151068 
C 624.511633 365.151068 626.310348 364.406015 627.636364 363.08 
C 628.962379 361.753985 629.707431 359.955269 629.707431 358.08 
C 629.707431 356.204731 628.962379 354.406015 627.636364 353.08 
C 626.310348 351.753985 624.511633 351.008932 622.636364 351.008932 
C 620.761095 351.008932 618.962379 351.753985 617.636364 353.08 
C 616.310348 354.406015 615.565296 356.204731 615.565296 358.08 
C 615.565296 359.955269 616.310348 361.753985 617.636364 363.08 
C 618.962379 364.406015 620.761095 365.151068 622.636364 365.151068 
z
" clip-path="url(#p83044c11cf)" style="fill: #008000; fill-opacity: 0.6; stroke: #ffffff; stroke-opacity: 0.6; stroke-width: 2"/>
    <path d="M 622.636364 295.88 
C 623.962379 295.88 625.234263 295.353168 626.171898 294.415534 
C 627.109532 293.477899 627.636364 292.206015 627.636364 290.88 
C 627.636364 289.553985 627.109532 288.282101 626.171898 287.344466 
C 625.234263 286.406832 623.962379 285.88 622.636364 285.88 
C 621.310348 285.88 620.038464 286.406832 619.10083 287.344466 
C 618.163195 288.282101 617.636364 289.553985 617.636364 290.88 
C 617.636364 292.206015 618.163195 293.477899 619.10083 294.415534 
C 620.038464 295.353168 621.310348 295.88 622.636364 295.88 
z
" clip-path="url(#p83044c11cf)" style="fill: #0000ff; fill-opacity: 0.6; stroke: #ffffff; stroke-opacity: 0.6; stroke-width: 2"/>
    <path d="M 622.636364 295.88 
C 623.962379 295.88 625.234263 295.353168 626.171898 294.415534 
C 627.109532 293.477899 627.636364 292.206015 627.636364 290.88 
C 627.636364 289.553985 627.109532 288.282101 626.171898 287.344466 
C 625.234263 286.406832 623.962379 285.88 622.636364 285.88 
C 621.310348 285.88 620.038464 286.406832 619.10083 287.344466 
C 618.163195 288.282101 617.636364 289.553985 617.636364 290.88 
C 617.636364 292.206015 618.163195 293.477899 619.10083 294.415534 
C 620.038464 295.353168 621.310348 295.88 622.636364 295.88 
z
" clip-path="url(#p83044c11cf)" style="fill: #00ffff; fill-opacity: 0.6; stroke: #ffffff; stroke-opacity: 0.6; stroke-width: 2"/>
    <path d="M 622.636364 232.340254 
C 624.93309 232.340254 627.136057 231.427755 628.760088 229.803724 
C 630.384119 228.179694 631.296618 225.976726 631.296618 223.68 
C 631.296618 221.383274 630.384119 219.180306 628.760088 217.556276 
C 627.136057 215.932245 624.93309 215.019746 622.636364 215.019746 
C 620.339637 215.019746 618.13667 215.932245 616.512639 217.556276 
C 614.888609 219.180306 613.97611 221.383274 613.97611 223.68 
C 613.97611 225.976726 614.888609 228.179694 616.512639 229.803724 
C 618.13667 231.427755 620.339637 232.340254 622.636364 232.340254 
z
" clip-path="url(#p83044c11cf)" style="fill: #0000ff; fill-opacity: 0.6; stroke: #ffffff; stroke-opacity: 0.6; stroke-width: 2"/>
    <path d="M 622.636364 234.86034 
C 625.601424 234.86034 628.445443 233.682309 630.542058 231.585694 
C 632.638672 229.48908 633.816704 226.645061 633.816704 223.68 
C 633.816704 220.714939 632.638672 217.87092 630.542058 215.774306 
C 628.445443 213.677691 625.601424 212.49966 622.636364 212.49966 
C 619.671303 212.49966 616.827284 213.677691 614.730669 215.774306 
C 612.634055 217.87092 611.456024 220.714939 611.456024 223.68 
C 611.456024 226.645061 612.634055 229.48908 614.730669 231.585694 
C 616.827284 233.682309 619.671303 234.86034 622.636364 234.86034 
z
" clip-path="url(#p83044c11cf)" style="fill: #008000; fill-opacity: 0.6; stroke: #ffffff; stroke-opacity: 0.6; stroke-width: 2"/>
    <path d="M 622.636364 230.751068 
C 624.511633 230.751068 626.310348 230.006016 627.636364 228.68 
C 628.962379 227.353984 629.707431 225.555269 629.707431 223.68 
C 629.707431 221.804731 628.962379 220.006016 627.636364 218.68 
C 626.310348 217.353984 624.511633 216.608932 622.636364 216.608932 
C 620.761095 216.608932 618.962379 217.353984 617.636364 218.68 
C 616.310348 220.006016 615.565296 221.804731 615.565296 223.68 
C 615.565296 225.555269 616.310348 227.353984 617.636364 228.68 
C 618.962379 230.006016 620.761095 230.751068 622.636364 230.751068 
z
" clip-path="url(#p83044c11cf)" style="fill: #00ffff; fill-opacity: 0.6; stroke: #ffffff; stroke-opacity: 0.6; stroke-width: 2"/>
    <path d="M 622.636364 161.48 
C 623.962379 161.48 625.234263 160.953168 626.171898 160.015534 
C 627.109532 159.077899 627.636364 157.806016 627.636364 156.48 
C 627.636364 155.153985 627.109532 153.882101 626.171898 152.944466 
C 625.234263 152.006832 623.962379 151.48 622.636364 151.48 
C 621.310348 151.48 620.038464 152.006832 619.10083 152.944466 
C 618.163195 153.882101 617.636364 155.153985 617.636364 156.48 
C 617.636364 157.806016 618.163195 159.077899 619.10083 160.015534 
C 620.038464 160.953168 621.310348 161.48 622.636364 161.48 
z
" clip-path="url(#p83044c11cf)" style="fill: #00ffff; fill-opacity: 0.6; stroke: #ffffff; stroke-opacity: 0.6; stroke-width: 2"/>
   </g>
   <g id="matplotlib.axis_1">
    <g id="xtick_1">
     <g id="line2d_1">
      <path d="M 115.363636 512.64 
L 115.363636 69.12 
" clip-path="url(#p83044c11cf)" style="fill: none; stroke: #b0b0b0; stroke-width: 0.8; stroke-linecap: square"/>
     </g>
     <g id="line2d_2">
      <defs>
       <path id="ma23b75b258" d="M 0 0 
L 0 3.5 
" style="stroke: #000000; stroke-width: 0.8"/>
      </defs>
      <g>
       <use xlink:href="#ma23b75b258" x="115.363636" y="512.64" style="stroke: #000000; stroke-width: 0.8"/>
      </g>
     </g>
     <g id="text_1">
      <!-- Algorithm Performance -->
      <g transform="translate(57.605824 527.238438) scale(0.1 -0.1)">
       <defs>
        <path id="DejaVuSans-41" d="M 2188 4044 
L 1331 1722 
L 3047 1722 
L 2188 4044 
z
M 1831 4666 
L 2547 4666 
L 4325 0 
L 3669 0 
L 3244 1197 
L 1141 1197 
L 716 0 
L 50 0 
L 1831 4666 
z
" transform="scale(0.015625)"/>
        <path id="DejaVuSans-6c" d="M 603 4863 
L 1178 4863 
L 1178 0 
L 603 0 
L 603 4863 
z
" transform="scale(0.015625)"/>
        <path id="DejaVuSans-67" d="M 2906 1791 
Q 2906 2416 2648 2759 
Q 2391 3103 1925 3103 
Q 1463 3103 1205 2759 
Q 947 2416 947 1791 
Q 947 1169 1205 825 
Q 1463 481 1925 481 
Q 2391 481 2648 825 
Q 2906 1169 2906 1791 
z
M 3481 434 
Q 3481 -459 3084 -895 
Q 2688 -1331 1869 -1331 
Q 1566 -1331 1297 -1286 
Q 1028 -1241 775 -1147 
L 775 -588 
Q 1028 -725 1275 -790 
Q 1522 -856 1778 -856 
Q 2344 -856 2625 -561 
Q 2906 -266 2906 331 
L 2906 616 
Q 2728 306 2450 153 
Q 2172 0 1784 0 
Q 1141 0 747 490 
Q 353 981 353 1791 
Q 353 2603 747 3093 
Q 1141 3584 1784 3584 
Q 2172 3584 2450 3431 
Q 2728 3278 2906 2969 
L 2906 3500 
L 3481 3500 
L 3481 434 
z
" transform="scale(0.015625)"/>
        <path id="DejaVuSans-6f" d="M 1959 3097 
Q 1497 3097 1228 2736 
Q 959 2375 959 1747 
Q 959 1119 1226 758 
Q 1494 397 1959 397 
Q 2419 397 2687 759 
Q 2956 1122 2956 1747 
Q 2956 2369 2687 2733 
Q 2419 3097 1959 3097 
z
M 1959 3584 
Q 2709 3584 3137 3096 
Q 3566 2609 3566 1747 
Q 3566 888 3137 398 
Q 2709 -91 1959 -91 
Q 1206 -91 779 398 
Q 353 888 353 1747 
Q 353 2609 779 3096 
Q 1206 3584 1959 3584 
z
" transform="scale(0.015625)"/>
        <path id="DejaVuSans-72" d="M 2631 2963 
Q 2534 3019 2420 3045 
Q 2306 3072 2169 3072 
Q 1681 3072 1420 2755 
Q 1159 2438 1159 1844 
L 1159 0 
L 581 0 
L 581 3500 
L 1159 3500 
L 1159 2956 
Q 1341 3275 1631 3429 
Q 1922 3584 2338 3584 
Q 2397 3584 2469 3576 
Q 2541 3569 2628 3553 
L 2631 2963 
z
" transform="scale(0.015625)"/>
        <path id="DejaVuSans-69" d="M 603 3500 
L 1178 3500 
L 1178 0 
L 603 0 
L 603 3500 
z
M 603 4863 
L 1178 4863 
L 1178 4134 
L 603 4134 
L 603 4863 
z
" transform="scale(0.015625)"/>
        <path id="DejaVuSans-74" d="M 1172 4494 
L 1172 3500 
L 2356 3500 
L 2356 3053 
L 1172 3053 
L 1172 1153 
Q 1172 725 1289 603 
Q 1406 481 1766 481 
L 2356 481 
L 2356 0 
L 1766 0 
Q 1100 0 847 248 
Q 594 497 594 1153 
L 594 3053 
L 172 3053 
L 172 3500 
L 594 3500 
L 594 4494 
L 1172 4494 
z
" transform="scale(0.015625)"/>
        <path id="DejaVuSans-68" d="M 3513 2113 
L 3513 0 
L 2938 0 
L 2938 2094 
Q 2938 2591 2744 2837 
Q 2550 3084 2163 3084 
Q 1697 3084 1428 2787 
Q 1159 2491 1159 1978 
L 1159 0 
L 581 0 
L 581 4863 
L 1159 4863 
L 1159 2956 
Q 1366 3272 1645 3428 
Q 1925 3584 2291 3584 
Q 2894 3584 3203 3211 
Q 3513 2838 3513 2113 
z
" transform="scale(0.015625)"/>
        <path id="DejaVuSans-6d" d="M 3328 2828 
Q 3544 3216 3844 3400 
Q 4144 3584 4550 3584 
Q 5097 3584 5394 3201 
Q 5691 2819 5691 2113 
L 5691 0 
L 5113 0 
L 5113 2094 
Q 5113 2597 4934 2840 
Q 4756 3084 4391 3084 
Q 3944 3084 3684 2787 
Q 3425 2491 3425 1978 
L 3425 0 
L 2847 0 
L 2847 2094 
Q 2847 2600 2669 2842 
Q 2491 3084 2119 3084 
Q 1678 3084 1418 2786 
Q 1159 2488 1159 1978 
L 1159 0 
L 581 0 
L 581 3500 
L 1159 3500 
L 1159 2956 
Q 1356 3278 1631 3431 
Q 1906 3584 2284 3584 
Q 2666 3584 2933 3390 
Q 3200 3197 3328 2828 
z
" transform="scale(0.015625)"/>
        <path id="DejaVuSans-20" transform="scale(0.015625)"/>
        <path id="DejaVuSans-50" d="M 1259 4147 
L 1259 2394 
L 2053 2394 
Q 2494 2394 2734 2622 
Q 2975 2850 2975 3272 
Q 2975 3691 2734 3919 
Q 2494 4147 2053 4147 
L 1259 4147 
z
M 628 4666 
L 2053 4666 
Q 2838 4666 3239 4311 
Q 3641 3956 3641 3272 
Q 3641 2581 3239 2228 
Q 2838 1875 2053 1875 
L 1259 1875 
L 1259 0 
L 628 0 
L 628 4666 
z
" transform="scale(0.015625)"/>
        <path id="DejaVuSans-65" d="M 3597 1894 
L 3597 1613 
L 953 1613 
Q 991 1019 1311 708 
Q 1631 397 2203 397 
Q 2534 397 2845 478 
Q 3156 559 3463 722 
L 3463 178 
Q 3153 47 2828 -22 
Q 2503 -91 2169 -91 
Q 1331 -91 842 396 
Q 353 884 353 1716 
Q 353 2575 817 3079 
Q 1281 3584 2069 3584 
Q 2775 3584 3186 3129 
Q 3597 2675 3597 1894 
z
M 3022 2063 
Q 3016 2534 2758 2815 
Q 2500 3097 2075 3097 
Q 1594 3097 1305 2825 
Q 1016 2553 972 2059 
L 3022 2063 
z
" transform="scale(0.015625)"/>
        <path id="DejaVuSans-66" d="M 2375 4863 
L 2375 4384 
L 1825 4384 
Q 1516 4384 1395 4259 
Q 1275 4134 1275 3809 
L 1275 3500 
L 2222 3500 
L 2222 3053 
L 1275 3053 
L 1275 0 
L 697 0 
L 697 3053 
L 147 3053 
L 147 3500 
L 697 3500 
L 697 3744 
Q 697 4328 969 4595 
Q 1241 4863 1831 4863 
L 2375 4863 
z
" transform="scale(0.015625)"/>
        <path id="DejaVuSans-61" d="M 2194 1759 
Q 1497 1759 1228 1600 
Q 959 1441 959 1056 
Q 959 750 1161 570 
Q 1363 391 1709 391 
Q 2188 391 2477 730 
Q 2766 1069 2766 1631 
L 2766 1759 
L 2194 1759 
z
M 3341 1997 
L 3341 0 
L 2766 0 
L 2766 531 
Q 2569 213 2275 61 
Q 1981 -91 1556 -91 
Q 1019 -91 701 211 
Q 384 513 384 1019 
Q 384 1609 779 1909 
Q 1175 2209 1959 2209 
L 2766 2209 
L 2766 2266 
Q 2766 2663 2505 2880 
Q 2244 3097 1772 3097 
Q 1472 3097 1187 3025 
Q 903 2953 641 2809 
L 641 3341 
Q 956 3463 1253 3523 
Q 1550 3584 1831 3584 
Q 2591 3584 2966 3190 
Q 3341 2797 3341 1997 
z
" transform="scale(0.015625)"/>
        <path id="DejaVuSans-6e" d="M 3513 2113 
L 3513 0 
L 2938 0 
L 2938 2094 
Q 2938 2591 2744 2837 
Q 2550 3084 2163 3084 
Q 1697 3084 1428 2787 
Q 1159 2491 1159 1978 
L 1159 0 
L 581 0 
L 581 3500 
L 1159 3500 
L 1159 2956 
Q 1366 3272 1645 3428 
Q 1925 3584 2291 3584 
Q 2894 3584 3203 3211 
Q 3513 2838 3513 2113 
z
" transform="scale(0.015625)"/>
        <path id="DejaVuSans-63" d="M 3122 3366 
L 3122 2828 
Q 2878 2963 2633 3030 
Q 2388 3097 2138 3097 
Q 1578 3097 1268 2742 
Q 959 2388 959 1747 
Q 959 1106 1268 751 
Q 1578 397 2138 397 
Q 2388 397 2633 464 
Q 2878 531 3122 666 
L 3122 134 
Q 2881 22 2623 -34 
Q 2366 -91 2075 -91 
Q 1284 -91 818 406 
Q 353 903 353 1747 
Q 353 2603 823 3093 
Q 1294 3584 2113 3584 
Q 2378 3584 2631 3529 
Q 2884 3475 3122 3366 
z
" transform="scale(0.015625)"/>
       </defs>
       <use xlink:href="#DejaVuSans-41"/>
       <use xlink:href="#DejaVuSans-6c" x="68.408203"/>
       <use xlink:href="#DejaVuSans-67" x="96.191406"/>
       <use xlink:href="#DejaVuSans-6f" x="159.667969"/>
       <use xlink:href="#DejaVuSans-72" x="220.849609"/>
       <use xlink:href="#DejaVuSans-69" x="261.962891"/>
       <use xlink:href="#DejaVuSans-74" x="289.746094"/>
       <use xlink:href="#DejaVuSans-68" x="328.955078"/>
       <use xlink:href="#DejaVuSans-6d" x="392.333984"/>
       <use xlink:href="#DejaVuSans-20" x="489.746094"/>
       <use xlink:href="#DejaVuSans-50" x="521.533203"/>
       <use xlink:href="#DejaVuSans-65" x="578.210938"/>
       <use xlink:href="#DejaVuSans-72" x="639.734375"/>
       <use xlink:href="#DejaVuSans-66" x="680.847656"/>
       <use xlink:href="#DejaVuSans-6f" x="716.052734"/>
       <use xlink:href="#DejaVuSans-72" x="777.234375"/>
       <use xlink:href="#DejaVuSans-6d" x="816.597656"/>
       <use xlink:href="#DejaVuSans-61" x="914.009766"/>
       <use xlink:href="#DejaVuSans-6e" x="975.289062"/>
       <use xlink:href="#DejaVuSans-63" x="1038.667969"/>
       <use xlink:href="#DejaVuSans-65" x="1093.648438"/>
      </g>
     </g>
    </g>
    <g id="xtick_2">
     <g id="line2d_3">
      <path d="M 284.454545 512.64 
L 284.454545 69.12 
" clip-path="url(#p83044c11cf)" style="fill: none; stroke: #b0b0b0; stroke-width: 0.8; stroke-linecap: square"/>
     </g>
     <g id="line2d_4">
      <g>
       <use xlink:href="#ma23b75b258" x="284.454545" y="512.64" style="stroke: #000000; stroke-width: 0.8"/>
      </g>
     </g>
     <g id="text_2">
      <!-- Environment and Practices -->
      <g transform="translate(217.37017 527.238438) scale(0.1 -0.1)">
       <defs>
        <path id="DejaVuSans-45" d="M 628 4666 
L 3578 4666 
L 3578 4134 
L 1259 4134 
L 1259 2753 
L 3481 2753 
L 3481 2222 
L 1259 2222 
L 1259 531 
L 3634 531 
L 3634 0 
L 628 0 
L 628 4666 
z
" transform="scale(0.015625)"/>
        <path id="DejaVuSans-76" d="M 191 3500 
L 800 3500 
L 1894 563 
L 2988 3500 
L 3597 3500 
L 2284 0 
L 1503 0 
L 191 3500 
z
" transform="scale(0.015625)"/>
        <path id="DejaVuSans-64" d="M 2906 2969 
L 2906 4863 
L 3481 4863 
L 3481 0 
L 2906 0 
L 2906 525 
Q 2725 213 2448 61 
Q 2172 -91 1784 -91 
Q 1150 -91 751 415 
Q 353 922 353 1747 
Q 353 2572 751 3078 
Q 1150 3584 1784 3584 
Q 2172 3584 2448 3432 
Q 2725 3281 2906 2969 
z
M 947 1747 
Q 947 1113 1208 752 
Q 1469 391 1925 391 
Q 2381 391 2643 752 
Q 2906 1113 2906 1747 
Q 2906 2381 2643 2742 
Q 2381 3103 1925 3103 
Q 1469 3103 1208 2742 
Q 947 2381 947 1747 
z
" transform="scale(0.015625)"/>
        <path id="DejaVuSans-73" d="M 2834 3397 
L 2834 2853 
Q 2591 2978 2328 3040 
Q 2066 3103 1784 3103 
Q 1356 3103 1142 2972 
Q 928 2841 928 2578 
Q 928 2378 1081 2264 
Q 1234 2150 1697 2047 
L 1894 2003 
Q 2506 1872 2764 1633 
Q 3022 1394 3022 966 
Q 3022 478 2636 193 
Q 2250 -91 1575 -91 
Q 1294 -91 989 -36 
Q 684 19 347 128 
L 347 722 
Q 666 556 975 473 
Q 1284 391 1588 391 
Q 1994 391 2212 530 
Q 2431 669 2431 922 
Q 2431 1156 2273 1281 
Q 2116 1406 1581 1522 
L 1381 1569 
Q 847 1681 609 1914 
Q 372 2147 372 2553 
Q 372 3047 722 3315 
Q 1072 3584 1716 3584 
Q 2034 3584 2315 3537 
Q 2597 3491 2834 3397 
z
" transform="scale(0.015625)"/>
       </defs>
       <use xlink:href="#DejaVuSans-45"/>
       <use xlink:href="#DejaVuSans-6e" x="63.183594"/>
       <use xlink:href="#DejaVuSans-76" x="126.5625"/>
       <use xlink:href="#DejaVuSans-69" x="185.742188"/>
       <use xlink:href="#DejaVuSans-72" x="213.525391"/>
       <use xlink:href="#DejaVuSans-6f" x="252.388672"/>
       <use xlink:href="#DejaVuSans-6e" x="313.570312"/>
       <use xlink:href="#DejaVuSans-6d" x="376.949219"/>
       <use xlink:href="#DejaVuSans-65" x="474.361328"/>
       <use xlink:href="#DejaVuSans-6e" x="535.884766"/>
       <use xlink:href="#DejaVuSans-74" x="599.263672"/>
       <use xlink:href="#DejaVuSans-20" x="638.472656"/>
       <use xlink:href="#DejaVuSans-61" x="670.259766"/>
       <use xlink:href="#DejaVuSans-6e" x="731.539062"/>
       <use xlink:href="#DejaVuSans-64" x="794.917969"/>
       <use xlink:href="#DejaVuSans-20" x="858.394531"/>
       <use xlink:href="#DejaVuSans-50" x="890.181641"/>
       <use xlink:href="#DejaVuSans-72" x="948.734375"/>
       <use xlink:href="#DejaVuSans-61" x="989.847656"/>
       <use xlink:href="#DejaVuSans-63" x="1051.126953"/>
       <use xlink:href="#DejaVuSans-74" x="1106.107422"/>
       <use xlink:href="#DejaVuSans-69" x="1145.316406"/>
       <use xlink:href="#DejaVuSans-63" x="1173.099609"/>
       <use xlink:href="#DejaVuSans-65" x="1228.080078"/>
       <use xlink:href="#DejaVuSans-73" x="1289.603516"/>
      </g>
     </g>
    </g>
    <g id="xtick_3">
     <g id="line2d_5">
      <path d="M 453.545455 512.64 
L 453.545455 69.12 
" clip-path="url(#p83044c11cf)" style="fill: none; stroke: #b0b0b0; stroke-width: 0.8; stroke-linecap: square"/>
     </g>
     <g id="line2d_6">
      <g>
       <use xlink:href="#ma23b75b258" x="453.545455" y="512.64" style="stroke: #000000; stroke-width: 0.8"/>
      </g>
     </g>
     <g id="text_3">
      <!-- User Performance -->
      <g transform="translate(408.878267 527.238438) scale(0.1 -0.1)">
       <defs>
        <path id="DejaVuSans-55" d="M 556 4666 
L 1191 4666 
L 1191 1831 
Q 1191 1081 1462 751 
Q 1734 422 2344 422 
Q 2950 422 3222 751 
Q 3494 1081 3494 1831 
L 3494 4666 
L 4128 4666 
L 4128 1753 
Q 4128 841 3676 375 
Q 3225 -91 2344 -91 
Q 1459 -91 1007 375 
Q 556 841 556 1753 
L 556 4666 
z
" transform="scale(0.015625)"/>
       </defs>
       <use xlink:href="#DejaVuSans-55"/>
       <use xlink:href="#DejaVuSans-73" x="73.193359"/>
       <use xlink:href="#DejaVuSans-65" x="125.292969"/>
       <use xlink:href="#DejaVuSans-72" x="186.816406"/>
       <use xlink:href="#DejaVuSans-20" x="227.929688"/>
       <use xlink:href="#DejaVuSans-50" x="259.716797"/>
       <use xlink:href="#DejaVuSans-65" x="316.394531"/>
       <use xlink:href="#DejaVuSans-72" x="377.917969"/>
       <use xlink:href="#DejaVuSans-66" x="419.03125"/>
       <use xlink:href="#DejaVuSans-6f" x="454.236328"/>
       <use xlink:href="#DejaVuSans-72" x="515.417969"/>
       <use xlink:href="#DejaVuSans-6d" x="554.78125"/>
       <use xlink:href="#DejaVuSans-61" x="652.193359"/>
       <use xlink:href="#DejaVuSans-6e" x="713.472656"/>
       <use xlink:href="#DejaVuSans-63" x="776.851562"/>
       <use xlink:href="#DejaVuSans-65" x="831.832031"/>
      </g>
     </g>
    </g>
    <g id="xtick_4">
     <g id="line2d_7">
      <path d="M 622.636364 512.64 
L 622.636364 69.12 
" clip-path="url(#p83044c11cf)" style="fill: none; stroke: #b0b0b0; stroke-width: 0.8; stroke-linecap: square"/>
     </g>
     <g id="line2d_8">
      <g>
       <use xlink:href="#ma23b75b258" x="622.636364" y="512.64" style="stroke: #000000; stroke-width: 0.8"/>
      </g>
     </g>
     <g id="text_4">
      <!-- User Experience -->
      <g transform="translate(581.766051 527.238438) scale(0.1 -0.1)">
       <defs>
        <path id="DejaVuSans-78" d="M 3513 3500 
L 2247 1797 
L 3578 0 
L 2900 0 
L 1881 1375 
L 863 0 
L 184 0 
L 1544 1831 
L 300 3500 
L 978 3500 
L 1906 2253 
L 2834 3500 
L 3513 3500 
z
" transform="scale(0.015625)"/>
        <path id="DejaVuSans-70" d="M 1159 525 
L 1159 -1331 
L 581 -1331 
L 581 3500 
L 1159 3500 
L 1159 2969 
Q 1341 3281 1617 3432 
Q 1894 3584 2278 3584 
Q 2916 3584 3314 3078 
Q 3713 2572 3713 1747 
Q 3713 922 3314 415 
Q 2916 -91 2278 -91 
Q 1894 -91 1617 61 
Q 1341 213 1159 525 
z
M 3116 1747 
Q 3116 2381 2855 2742 
Q 2594 3103 2138 3103 
Q 1681 3103 1420 2742 
Q 1159 2381 1159 1747 
Q 1159 1113 1420 752 
Q 1681 391 2138 391 
Q 2594 391 2855 752 
Q 3116 1113 3116 1747 
z
" transform="scale(0.015625)"/>
       </defs>
       <use xlink:href="#DejaVuSans-55"/>
       <use xlink:href="#DejaVuSans-73" x="73.193359"/>
       <use xlink:href="#DejaVuSans-65" x="125.292969"/>
       <use xlink:href="#DejaVuSans-72" x="186.816406"/>
       <use xlink:href="#DejaVuSans-20" x="227.929688"/>
       <use xlink:href="#DejaVuSans-45" x="259.716797"/>
       <use xlink:href="#DejaVuSans-78" x="322.900391"/>
       <use xlink:href="#DejaVuSans-70" x="382.080078"/>
       <use xlink:href="#DejaVuSans-65" x="445.556641"/>
       <use xlink:href="#DejaVuSans-72" x="507.080078"/>
       <use xlink:href="#DejaVuSans-69" x="548.193359"/>
       <use xlink:href="#DejaVuSans-65" x="575.976562"/>
       <use xlink:href="#DejaVuSans-6e" x="637.5"/>
       <use xlink:href="#DejaVuSans-63" x="700.878906"/>
       <use xlink:href="#DejaVuSans-65" x="755.859375"/>
      </g>
     </g>
    </g>
    <g id="text_5">
     <!-- metaverse -->
     <g transform="translate(342.25625 540.916563) scale(0.1 -0.1)">
      <use xlink:href="#DejaVuSans-6d"/>
      <use xlink:href="#DejaVuSans-65" x="97.412109"/>
      <use xlink:href="#DejaVuSans-74" x="158.935547"/>
      <use xlink:href="#DejaVuSans-61" x="198.144531"/>
      <use xlink:href="#DejaVuSans-76" x="259.423828"/>
      <use xlink:href="#DejaVuSans-65" x="318.603516"/>
      <use xlink:href="#DejaVuSans-72" x="380.126953"/>
      <use xlink:href="#DejaVuSans-73" x="421.240234"/>
      <use xlink:href="#DejaVuSans-65" x="473.339844"/>
     </g>
    </g>
   </g>
   <g id="matplotlib.axis_2">
    <g id="ytick_1">
     <g id="line2d_9">
      <path d="M 90 492.48 
L 648 492.48 
" clip-path="url(#p83044c11cf)" style="fill: none; stroke: #b0b0b0; stroke-width: 0.8; stroke-linecap: square"/>
     </g>
     <g id="line2d_10">
      <defs>
       <path id="mb408892b82" d="M 0 0 
L -3.5 0 
" style="stroke: #000000; stroke-width: 0.8"/>
      </defs>
      <g>
       <use xlink:href="#mb408892b82" x="90" y="492.48" style="stroke: #000000; stroke-width: 0.8"/>
      </g>
     </g>
     <g id="text_6">
      <!-- VR -->
      <g transform="translate(69.210938 496.279219) scale(0.1 -0.1)">
       <defs>
        <path id="DejaVuSans-56" d="M 1831 0 
L 50 4666 
L 709 4666 
L 2188 738 
L 3669 4666 
L 4325 4666 
L 2547 0 
L 1831 0 
z
" transform="scale(0.015625)"/>
        <path id="DejaVuSans-52" d="M 2841 2188 
Q 3044 2119 3236 1894 
Q 3428 1669 3622 1275 
L 4263 0 
L 3584 0 
L 2988 1197 
Q 2756 1666 2539 1819 
Q 2322 1972 1947 1972 
L 1259 1972 
L 1259 0 
L 628 0 
L 628 4666 
L 2053 4666 
Q 2853 4666 3247 4331 
Q 3641 3997 3641 3322 
Q 3641 2881 3436 2590 
Q 3231 2300 2841 2188 
z
M 1259 4147 
L 1259 2491 
L 2053 2491 
Q 2509 2491 2742 2702 
Q 2975 2913 2975 3322 
Q 2975 3731 2742 3939 
Q 2509 4147 2053 4147 
L 1259 4147 
z
" transform="scale(0.015625)"/>
       </defs>
       <use xlink:href="#DejaVuSans-56"/>
       <use xlink:href="#DejaVuSans-52" x="68.408203"/>
      </g>
     </g>
    </g>
    <g id="ytick_2">
     <g id="line2d_11">
      <path d="M 90 425.28 
L 648 425.28 
" clip-path="url(#p83044c11cf)" style="fill: none; stroke: #b0b0b0; stroke-width: 0.8; stroke-linecap: square"/>
     </g>
     <g id="line2d_12">
      <g>
       <use xlink:href="#mb408892b82" x="90" y="425.28" style="stroke: #000000; stroke-width: 0.8"/>
      </g>
     </g>
     <g id="text_7">
      <!-- CHI -->
      <g transform="translate(65.546875 429.079219) scale(0.1 -0.1)">
       <defs>
        <path id="DejaVuSans-43" d="M 4122 4306 
L 4122 3641 
Q 3803 3938 3442 4084 
Q 3081 4231 2675 4231 
Q 1875 4231 1450 3742 
Q 1025 3253 1025 2328 
Q 1025 1406 1450 917 
Q 1875 428 2675 428 
Q 3081 428 3442 575 
Q 3803 722 4122 1019 
L 4122 359 
Q 3791 134 3420 21 
Q 3050 -91 2638 -91 
Q 1578 -91 968 557 
Q 359 1206 359 2328 
Q 359 3453 968 4101 
Q 1578 4750 2638 4750 
Q 3056 4750 3426 4639 
Q 3797 4528 4122 4306 
z
" transform="scale(0.015625)"/>
        <path id="DejaVuSans-48" d="M 628 4666 
L 1259 4666 
L 1259 2753 
L 3553 2753 
L 3553 4666 
L 4184 4666 
L 4184 0 
L 3553 0 
L 3553 2222 
L 1259 2222 
L 1259 0 
L 628 0 
L 628 4666 
z
" transform="scale(0.015625)"/>
        <path id="DejaVuSans-49" d="M 628 4666 
L 1259 4666 
L 1259 0 
L 628 0 
L 628 4666 
z
" transform="scale(0.015625)"/>
       </defs>
       <use xlink:href="#DejaVuSans-43"/>
       <use xlink:href="#DejaVuSans-48" x="69.824219"/>
       <use xlink:href="#DejaVuSans-49" x="145.019531"/>
      </g>
     </g>
    </g>
    <g id="ytick_3">
     <g id="line2d_13">
      <path d="M 90 358.08 
L 648 358.08 
" clip-path="url(#p83044c11cf)" style="fill: none; stroke: #b0b0b0; stroke-width: 0.8; stroke-linecap: square"/>
     </g>
     <g id="line2d_14">
      <g>
       <use xlink:href="#mb408892b82" x="90" y="358.08" style="stroke: #000000; stroke-width: 0.8"/>
      </g>
     </g>
     <g id="text_8">
      <!-- UIST -->
      <g transform="translate(60.275 361.879219) scale(0.1 -0.1)">
       <defs>
        <path id="DejaVuSans-53" d="M 3425 4513 
L 3425 3897 
Q 3066 4069 2747 4153 
Q 2428 4238 2131 4238 
Q 1616 4238 1336 4038 
Q 1056 3838 1056 3469 
Q 1056 3159 1242 3001 
Q 1428 2844 1947 2747 
L 2328 2669 
Q 3034 2534 3370 2195 
Q 3706 1856 3706 1288 
Q 3706 609 3251 259 
Q 2797 -91 1919 -91 
Q 1588 -91 1214 -16 
Q 841 59 441 206 
L 441 856 
Q 825 641 1194 531 
Q 1563 422 1919 422 
Q 2459 422 2753 634 
Q 3047 847 3047 1241 
Q 3047 1584 2836 1778 
Q 2625 1972 2144 2069 
L 1759 2144 
Q 1053 2284 737 2584 
Q 422 2884 422 3419 
Q 422 4038 858 4394 
Q 1294 4750 2059 4750 
Q 2388 4750 2728 4690 
Q 3069 4631 3425 4513 
z
" transform="scale(0.015625)"/>
        <path id="DejaVuSans-54" d="M -19 4666 
L 3928 4666 
L 3928 4134 
L 2272 4134 
L 2272 0 
L 1638 0 
L 1638 4134 
L -19 4134 
L -19 4666 
z
" transform="scale(0.015625)"/>
       </defs>
       <use xlink:href="#DejaVuSans-55"/>
       <use xlink:href="#DejaVuSans-49" x="73.193359"/>
       <use xlink:href="#DejaVuSans-53" x="102.685547"/>
       <use xlink:href="#DejaVuSans-54" x="166.162109"/>
      </g>
     </g>
    </g>
    <g id="ytick_4">
     <g id="line2d_15">
      <path d="M 90 290.88 
L 648 290.88 
" clip-path="url(#p83044c11cf)" style="fill: none; stroke: #b0b0b0; stroke-width: 0.8; stroke-linecap: square"/>
     </g>
     <g id="line2d_16">
      <g>
       <use xlink:href="#mb408892b82" x="90" y="290.88" style="stroke: #000000; stroke-width: 0.8"/>
      </g>
     </g>
     <g id="text_9">
      <!-- TVCG -->
      <g transform="translate(55.320312 294.679219) scale(0.1 -0.1)">
       <defs>
        <path id="DejaVuSans-47" d="M 3809 666 
L 3809 1919 
L 2778 1919 
L 2778 2438 
L 4434 2438 
L 4434 434 
Q 4069 175 3628 42 
Q 3188 -91 2688 -91 
Q 1594 -91 976 548 
Q 359 1188 359 2328 
Q 359 3472 976 4111 
Q 1594 4750 2688 4750 
Q 3144 4750 3555 4637 
Q 3966 4525 4313 4306 
L 4313 3634 
Q 3963 3931 3569 4081 
Q 3175 4231 2741 4231 
Q 1884 4231 1454 3753 
Q 1025 3275 1025 2328 
Q 1025 1384 1454 906 
Q 1884 428 2741 428 
Q 3075 428 3337 486 
Q 3600 544 3809 666 
z
" transform="scale(0.015625)"/>
       </defs>
       <use xlink:href="#DejaVuSans-54"/>
       <use xlink:href="#DejaVuSans-56" x="61.083984"/>
       <use xlink:href="#DejaVuSans-43" x="129.492188"/>
       <use xlink:href="#DejaVuSans-47" x="199.316406"/>
      </g>
     </g>
    </g>
    <g id="ytick_5">
     <g id="line2d_17">
      <path d="M 90 223.68 
L 648 223.68 
" clip-path="url(#p83044c11cf)" style="fill: none; stroke: #b0b0b0; stroke-width: 0.8; stroke-linecap: square"/>
     </g>
     <g id="line2d_18">
      <g>
       <use xlink:href="#mb408892b82" x="90" y="223.68" style="stroke: #000000; stroke-width: 0.8"/>
      </g>
     </g>
     <g id="text_10">
      <!-- Other Venues -->
      <g transform="translate(15.171875 227.479219) scale(0.1 -0.1)">
       <defs>
        <path id="DejaVuSans-4f" d="M 2522 4238 
Q 1834 4238 1429 3725 
Q 1025 3213 1025 2328 
Q 1025 1447 1429 934 
Q 1834 422 2522 422 
Q 3209 422 3611 934 
Q 4013 1447 4013 2328 
Q 4013 3213 3611 3725 
Q 3209 4238 2522 4238 
z
M 2522 4750 
Q 3503 4750 4090 4092 
Q 4678 3434 4678 2328 
Q 4678 1225 4090 567 
Q 3503 -91 2522 -91 
Q 1538 -91 948 565 
Q 359 1222 359 2328 
Q 359 3434 948 4092 
Q 1538 4750 2522 4750 
z
" transform="scale(0.015625)"/>
        <path id="DejaVuSans-75" d="M 544 1381 
L 544 3500 
L 1119 3500 
L 1119 1403 
Q 1119 906 1312 657 
Q 1506 409 1894 409 
Q 2359 409 2629 706 
Q 2900 1003 2900 1516 
L 2900 3500 
L 3475 3500 
L 3475 0 
L 2900 0 
L 2900 538 
Q 2691 219 2414 64 
Q 2138 -91 1772 -91 
Q 1169 -91 856 284 
Q 544 659 544 1381 
z
M 1991 3584 
L 1991 3584 
z
" transform="scale(0.015625)"/>
       </defs>
       <use xlink:href="#DejaVuSans-4f"/>
       <use xlink:href="#DejaVuSans-74" x="78.710938"/>
       <use xlink:href="#DejaVuSans-68" x="117.919922"/>
       <use xlink:href="#DejaVuSans-65" x="181.298828"/>
       <use xlink:href="#DejaVuSans-72" x="242.822266"/>
       <use xlink:href="#DejaVuSans-20" x="283.935547"/>
       <use xlink:href="#DejaVuSans-56" x="315.722656"/>
       <use xlink:href="#DejaVuSans-65" x="376.380859"/>
       <use xlink:href="#DejaVuSans-6e" x="437.904297"/>
       <use xlink:href="#DejaVuSans-75" x="501.283203"/>
       <use xlink:href="#DejaVuSans-65" x="564.662109"/>
       <use xlink:href="#DejaVuSans-73" x="626.185547"/>
      </g>
     </g>
    </g>
    <g id="ytick_6">
     <g id="line2d_19">
      <path d="M 90 156.48 
L 648 156.48 
" clip-path="url(#p83044c11cf)" style="fill: none; stroke: #b0b0b0; stroke-width: 0.8; stroke-linecap: square"/>
     </g>
     <g id="line2d_20">
      <g>
       <use xlink:href="#mb408892b82" x="90" y="156.48" style="stroke: #000000; stroke-width: 0.8"/>
      </g>
     </g>
     <g id="text_11">
      <!-- USS -->
      <g transform="translate(62.984375 160.279219) scale(0.1 -0.1)">
       <use xlink:href="#DejaVuSans-55"/>
       <use xlink:href="#DejaVuSans-53" x="73.193359"/>
       <use xlink:href="#DejaVuSans-53" x="136.669922"/>
      </g>
     </g>
    </g>
    <g id="ytick_7">
     <g id="line2d_21">
      <path d="M 90 89.28 
L 648 89.28 
" clip-path="url(#p83044c11cf)" style="fill: none; stroke: #b0b0b0; stroke-width: 0.8; stroke-linecap: square"/>
     </g>
     <g id="line2d_22">
      <g>
       <use xlink:href="#mb408892b82" x="90" y="89.28" style="stroke: #000000; stroke-width: 0.8"/>
      </g>
     </g>
     <g id="text_12">
      <!-- SP -->
      <g transform="translate(70.621875 93.079219) scale(0.1 -0.1)">
       <use xlink:href="#DejaVuSans-53"/>
       <use xlink:href="#DejaVuSans-50" x="63.476562"/>
      </g>
     </g>
    </g>
    <g id="text_13">
     <!-- evaluation -->
     <g transform="translate(9.092187 317.179219) rotate(-90) scale(0.1 -0.1)">
      <use xlink:href="#DejaVuSans-65"/>
      <use xlink:href="#DejaVuSans-76" x="61.523438"/>
      <use xlink:href="#DejaVuSans-61" x="120.703125"/>
      <use xlink:href="#DejaVuSans-6c" x="181.982422"/>
      <use xlink:href="#DejaVuSans-75" x="209.765625"/>
      <use xlink:href="#DejaVuSans-61" x="273.144531"/>
      <use xlink:href="#DejaVuSans-74" x="334.423828"/>
      <use xlink:href="#DejaVuSans-69" x="373.632812"/>
      <use xlink:href="#DejaVuSans-6f" x="401.416016"/>
      <use xlink:href="#DejaVuSans-6e" x="462.597656"/>
     </g>
    </g>
   </g>
   <g id="patch_3">
    <path d="M 90 512.64 
L 90 69.12 
" style="fill: none; stroke: #000000; stroke-width: 0.8; stroke-linejoin: miter; stroke-linecap: square"/>
   </g>
   <g id="patch_4">
    <path d="M 648 512.64 
L 648 69.12 
" style="fill: none; stroke: #000000; stroke-width: 0.8; stroke-linejoin: miter; stroke-linecap: square"/>
   </g>
   <g id="patch_5">
    <path d="M 90 512.64 
L 648 512.64 
" style="fill: none; stroke: #000000; stroke-width: 0.8; stroke-linejoin: miter; stroke-linecap: square"/>
   </g>
   <g id="patch_6">
    <path d="M 90 69.12 
L 648 69.12 
" style="fill: none; stroke: #000000; stroke-width: 0.8; stroke-linejoin: miter; stroke-linecap: square"/>
   </g>
   <g id="text_14">
    <!-- Bubble Chart: metaverse vs evaluation by papertype -->
    <g transform="translate(209.607188 63.12) scale(0.12 -0.12)">
     <defs>
      <path id="DejaVuSans-42" d="M 1259 2228 
L 1259 519 
L 2272 519 
Q 2781 519 3026 730 
Q 3272 941 3272 1375 
Q 3272 1813 3026 2020 
Q 2781 2228 2272 2228 
L 1259 2228 
z
M 1259 4147 
L 1259 2741 
L 2194 2741 
Q 2656 2741 2882 2914 
Q 3109 3088 3109 3444 
Q 3109 3797 2882 3972 
Q 2656 4147 2194 4147 
L 1259 4147 
z
M 628 4666 
L 2241 4666 
Q 2963 4666 3353 4366 
Q 3744 4066 3744 3513 
Q 3744 3084 3544 2831 
Q 3344 2578 2956 2516 
Q 3422 2416 3680 2098 
Q 3938 1781 3938 1306 
Q 3938 681 3513 340 
Q 3088 0 2303 0 
L 628 0 
L 628 4666 
z
" transform="scale(0.015625)"/>
      <path id="DejaVuSans-62" d="M 3116 1747 
Q 3116 2381 2855 2742 
Q 2594 3103 2138 3103 
Q 1681 3103 1420 2742 
Q 1159 2381 1159 1747 
Q 1159 1113 1420 752 
Q 1681 391 2138 391 
Q 2594 391 2855 752 
Q 3116 1113 3116 1747 
z
M 1159 2969 
Q 1341 3281 1617 3432 
Q 1894 3584 2278 3584 
Q 2916 3584 3314 3078 
Q 3713 2572 3713 1747 
Q 3713 922 3314 415 
Q 2916 -91 2278 -91 
Q 1894 -91 1617 61 
Q 1341 213 1159 525 
L 1159 0 
L 581 0 
L 581 4863 
L 1159 4863 
L 1159 2969 
z
" transform="scale(0.015625)"/>
      <path id="DejaVuSans-3a" d="M 750 794 
L 1409 794 
L 1409 0 
L 750 0 
L 750 794 
z
M 750 3309 
L 1409 3309 
L 1409 2516 
L 750 2516 
L 750 3309 
z
" transform="scale(0.015625)"/>
      <path id="DejaVuSans-79" d="M 2059 -325 
Q 1816 -950 1584 -1140 
Q 1353 -1331 966 -1331 
L 506 -1331 
L 506 -850 
L 844 -850 
Q 1081 -850 1212 -737 
Q 1344 -625 1503 -206 
L 1606 56 
L 191 3500 
L 800 3500 
L 1894 763 
L 2988 3500 
L 3597 3500 
L 2059 -325 
z
" transform="scale(0.015625)"/>
     </defs>
     <use xlink:href="#DejaVuSans-42"/>
     <use xlink:href="#DejaVuSans-75" x="68.603516"/>
     <use xlink:href="#DejaVuSans-62" x="131.982422"/>
     <use xlink:href="#DejaVuSans-62" x="195.458984"/>
     <use xlink:href="#DejaVuSans-6c" x="258.935547"/>
     <use xlink:href="#DejaVuSans-65" x="286.71875"/>
     <use xlink:href="#DejaVuSans-20" x="348.242188"/>
     <use xlink:href="#DejaVuSans-43" x="380.029297"/>
     <use xlink:href="#DejaVuSans-68" x="449.853516"/>
     <use xlink:href="#DejaVuSans-61" x="513.232422"/>
     <use xlink:href="#DejaVuSans-72" x="574.511719"/>
     <use xlink:href="#DejaVuSans-74" x="615.625"/>
     <use xlink:href="#DejaVuSans-3a" x="654.833984"/>
     <use xlink:href="#DejaVuSans-20" x="688.525391"/>
     <use xlink:href="#DejaVuSans-6d" x="720.3125"/>
     <use xlink:href="#DejaVuSans-65" x="817.724609"/>
     <use xlink:href="#DejaVuSans-74" x="879.248047"/>
     <use xlink:href="#DejaVuSans-61" x="918.457031"/>
     <use xlink:href="#DejaVuSans-76" x="979.736328"/>
     <use xlink:href="#DejaVuSans-65" x="1038.916016"/>
     <use xlink:href="#DejaVuSans-72" x="1100.439453"/>
     <use xlink:href="#DejaVuSans-73" x="1141.552734"/>
     <use xlink:href="#DejaVuSans-65" x="1193.652344"/>
     <use xlink:href="#DejaVuSans-20" x="1255.175781"/>
     <use xlink:href="#DejaVuSans-76" x="1286.962891"/>
     <use xlink:href="#DejaVuSans-73" x="1346.142578"/>
     <use xlink:href="#DejaVuSans-20" x="1398.242188"/>
     <use xlink:href="#DejaVuSans-65" x="1430.029297"/>
     <use xlink:href="#DejaVuSans-76" x="1491.552734"/>
     <use xlink:href="#DejaVuSans-61" x="1550.732422"/>
     <use xlink:href="#DejaVuSans-6c" x="1612.011719"/>
     <use xlink:href="#DejaVuSans-75" x="1639.794922"/>
     <use xlink:href="#DejaVuSans-61" x="1703.173828"/>
     <use xlink:href="#DejaVuSans-74" x="1764.453125"/>
     <use xlink:href="#DejaVuSans-69" x="1803.662109"/>
     <use xlink:href="#DejaVuSans-6f" x="1831.445312"/>
     <use xlink:href="#DejaVuSans-6e" x="1892.626953"/>
     <use xlink:href="#DejaVuSans-20" x="1956.005859"/>
     <use xlink:href="#DejaVuSans-62" x="1987.792969"/>
     <use xlink:href="#DejaVuSans-79" x="2051.269531"/>
     <use xlink:href="#DejaVuSans-20" x="2110.449219"/>
     <use xlink:href="#DejaVuSans-70" x="2142.236328"/>
     <use xlink:href="#DejaVuSans-61" x="2205.712891"/>
     <use xlink:href="#DejaVuSans-70" x="2266.992188"/>
     <use xlink:href="#DejaVuSans-65" x="2330.46875"/>
     <use xlink:href="#DejaVuSans-72" x="2391.992188"/>
     <use xlink:href="#DejaVuSans-74" x="2433.105469"/>
     <use xlink:href="#DejaVuSans-79" x="2472.314453"/>
     <use xlink:href="#DejaVuSans-70" x="2531.494141"/>
     <use xlink:href="#DejaVuSans-65" x="2594.970703"/>
    </g>
   </g>
   <g id="legend_1">
    <g id="patch_7">
     <path d="M 325.0625 507.64 
L 412.9375 507.64 
Q 414.9375 507.64 414.9375 505.64 
L 414.9375 418.57125 
Q 414.9375 416.57125 412.9375 416.57125 
L 325.0625 416.57125 
Q 323.0625 416.57125 323.0625 418.57125 
L 323.0625 505.64 
Q 323.0625 507.64 325.0625 507.64 
z
" style="fill: #ffffff; opacity: 0.8; stroke: #cccccc; stroke-linejoin: miter"/>
    </g>
    <g id="text_15">
     <!-- Papertype -->
     <g transform="translate(343.669531 428.169688) scale(0.1 -0.1)">
      <use xlink:href="#DejaVuSans-50"/>
      <use xlink:href="#DejaVuSans-61" x="55.802734"/>
      <use xlink:href="#DejaVuSans-70" x="117.082031"/>
      <use xlink:href="#DejaVuSans-65" x="180.558594"/>
      <use xlink:href="#DejaVuSans-72" x="242.082031"/>
      <use xlink:href="#DejaVuSans-74" x="283.195312"/>
      <use xlink:href="#DejaVuSans-79" x="322.404297"/>
      <use xlink:href="#DejaVuSans-70" x="381.583984"/>
      <use xlink:href="#DejaVuSans-65" x="445.060547"/>
     </g>
    </g>
    <g id="line2d_23">
     <path d="M 327.0625 439.347813 
L 337.0625 439.347813 
L 347.0625 439.347813 
" style="fill: none; stroke: #ffffff; stroke-width: 1.5; stroke-linecap: square"/>
     <defs>
      <path id="m94ab3e1112" d="M 0 5 
C 1.326016 5 2.597899 4.473168 3.535534 3.535534 
C 4.473168 2.597899 5 1.326016 5 0 
C 5 -1.326016 4.473168 -2.597899 3.535534 -3.535534 
C 2.597899 -4.473168 1.326016 -5 0 -5 
C -1.326016 -5 -2.597899 -4.473168 -3.535534 -3.535534 
C -4.473168 -2.597899 -5 -1.326016 -5 0 
C -5 1.326016 -4.473168 2.597899 -3.535534 3.535534 
C -2.597899 4.473168 -1.326016 5 0 5 
z
" style="stroke: #ffffff"/>
     </defs>
     <g>
      <use xlink:href="#m94ab3e1112" x="337.0625" y="439.347813" style="fill: #0000ff; stroke: #ffffff"/>
     </g>
    </g>
    <g id="text_16">
     <!-- Application -->
     <g transform="translate(355.0625 442.847813) scale(0.1 -0.1)">
      <use xlink:href="#DejaVuSans-41"/>
      <use xlink:href="#DejaVuSans-70" x="68.408203"/>
      <use xlink:href="#DejaVuSans-70" x="131.884766"/>
      <use xlink:href="#DejaVuSans-6c" x="195.361328"/>
      <use xlink:href="#DejaVuSans-69" x="223.144531"/>
      <use xlink:href="#DejaVuSans-63" x="250.927734"/>
      <use xlink:href="#DejaVuSans-61" x="305.908203"/>
      <use xlink:href="#DejaVuSans-74" x="367.1875"/>
      <use xlink:href="#DejaVuSans-69" x="406.396484"/>
      <use xlink:href="#DejaVuSans-6f" x="434.179688"/>
      <use xlink:href="#DejaVuSans-6e" x="495.361328"/>
     </g>
    </g>
    <g id="line2d_24">
     <path d="M 327.0625 454.025937 
L 337.0625 454.025937 
L 347.0625 454.025937 
" style="fill: none; stroke: #ffffff; stroke-width: 1.5; stroke-linecap: square"/>
     <defs>
      <path id="mf61c8eebc6" d="M 0 5 
C 1.326016 5 2.597899 4.473168 3.535534 3.535534 
C 4.473168 2.597899 5 1.326016 5 0 
C 5 -1.326016 4.473168 -2.597899 3.535534 -3.535534 
C 2.597899 -4.473168 1.326016 -5 0 -5 
C -1.326016 -5 -2.597899 -4.473168 -3.535534 -3.535534 
C -4.473168 -2.597899 -5 -1.326016 -5 0 
C -5 1.326016 -4.473168 2.597899 -3.535534 3.535534 
C -2.597899 4.473168 -1.326016 5 0 5 
z
" style="stroke: #ffffff"/>
     </defs>
     <g>
      <use xlink:href="#mf61c8eebc6" x="337.0625" y="454.025937" style="fill: #008000; stroke: #ffffff"/>
     </g>
    </g>
    <g id="text_17">
     <!-- Evaluation -->
     <g transform="translate(355.0625 457.525937) scale(0.1 -0.1)">
      <use xlink:href="#DejaVuSans-45"/>
      <use xlink:href="#DejaVuSans-76" x="63.183594"/>
      <use xlink:href="#DejaVuSans-61" x="122.363281"/>
      <use xlink:href="#DejaVuSans-6c" x="183.642578"/>
      <use xlink:href="#DejaVuSans-75" x="211.425781"/>
      <use xlink:href="#DejaVuSans-61" x="274.804688"/>
      <use xlink:href="#DejaVuSans-74" x="336.083984"/>
      <use xlink:href="#DejaVuSans-69" x="375.292969"/>
      <use xlink:href="#DejaVuSans-6f" x="403.076172"/>
      <use xlink:href="#DejaVuSans-6e" x="464.257812"/>
     </g>
    </g>
    <g id="line2d_25">
     <path d="M 327.0625 468.704063 
L 337.0625 468.704063 
L 347.0625 468.704063 
" style="fill: none; stroke: #ffffff; stroke-width: 1.5; stroke-linecap: square"/>
     <defs>
      <path id="m28fe21181f" d="M 0 5 
C 1.326016 5 2.597899 4.473168 3.535534 3.535534 
C 4.473168 2.597899 5 1.326016 5 0 
C 5 -1.326016 4.473168 -2.597899 3.535534 -3.535534 
C 2.597899 -4.473168 1.326016 -5 0 -5 
C -1.326016 -5 -2.597899 -4.473168 -3.535534 -3.535534 
C -4.473168 -2.597899 -5 -1.326016 -5 0 
C -5 1.326016 -4.473168 2.597899 -3.535534 3.535534 
C -2.597899 4.473168 -1.326016 5 0 5 
z
" style="stroke: #ffffff"/>
     </defs>
     <g>
      <use xlink:href="#m28fe21181f" x="337.0625" y="468.704063" style="fill: #ff0000; stroke: #ffffff"/>
     </g>
    </g>
    <g id="text_18">
     <!-- Model -->
     <g transform="translate(355.0625 472.204063) scale(0.1 -0.1)">
      <defs>
       <path id="DejaVuSans-4d" d="M 628 4666 
L 1569 4666 
L 2759 1491 
L 3956 4666 
L 4897 4666 
L 4897 0 
L 4281 0 
L 4281 4097 
L 3078 897 
L 2444 897 
L 1241 4097 
L 1241 0 
L 628 0 
L 628 4666 
z
" transform="scale(0.015625)"/>
      </defs>
      <use xlink:href="#DejaVuSans-4d"/>
      <use xlink:href="#DejaVuSans-6f" x="86.279297"/>
      <use xlink:href="#DejaVuSans-64" x="147.460938"/>
      <use xlink:href="#DejaVuSans-65" x="210.9375"/>
      <use xlink:href="#DejaVuSans-6c" x="272.460938"/>
     </g>
    </g>
    <g id="line2d_26">
     <path d="M 327.0625 483.382187 
L 337.0625 483.382187 
L 347.0625 483.382187 
" style="fill: none; stroke: #ffffff; stroke-width: 1.5; stroke-linecap: square"/>
     <defs>
      <path id="ma651cbd2e3" d="M 0 5 
C 1.326016 5 2.597899 4.473168 3.535534 3.535534 
C 4.473168 2.597899 5 1.326016 5 0 
C 5 -1.326016 4.473168 -2.597899 3.535534 -3.535534 
C 2.597899 -4.473168 1.326016 -5 0 -5 
C -1.326016 -5 -2.597899 -4.473168 -3.535534 -3.535534 
C -4.473168 -2.597899 -5 -1.326016 -5 0 
C -5 1.326016 -4.473168 2.597899 -3.535534 3.535534 
C -2.597899 4.473168 -1.326016 5 0 5 
z
" style="stroke: #ffffff"/>
     </defs>
     <g>
      <use xlink:href="#ma651cbd2e3" x="337.0625" y="483.382187" style="fill: #800080; stroke: #ffffff"/>
     </g>
    </g>
    <g id="text_19">
     <!-- System -->
     <g transform="translate(355.0625 486.882187) scale(0.1 -0.1)">
      <use xlink:href="#DejaVuSans-53"/>
      <use xlink:href="#DejaVuSans-79" x="63.476562"/>
      <use xlink:href="#DejaVuSans-73" x="122.65625"/>
      <use xlink:href="#DejaVuSans-74" x="174.755859"/>
      <use xlink:href="#DejaVuSans-65" x="213.964844"/>
      <use xlink:href="#DejaVuSans-6d" x="275.488281"/>
     </g>
    </g>
    <g id="line2d_27">
     <path d="M 327.0625 498.060313 
L 337.0625 498.060313 
L 347.0625 498.060313 
" style="fill: none; stroke: #ffffff; stroke-width: 1.5; stroke-linecap: square"/>
     <defs>
      <path id="m4114352cc8" d="M 0 5 
C 1.326016 5 2.597899 4.473168 3.535534 3.535534 
C 4.473168 2.597899 5 1.326016 5 0 
C 5 -1.326016 4.473168 -2.597899 3.535534 -3.535534 
C 2.597899 -4.473168 1.326016 -5 0 -5 
C -1.326016 -5 -2.597899 -4.473168 -3.535534 -3.535534 
C -4.473168 -2.597899 -5 -1.326016 -5 0 
C -5 1.326016 -4.473168 2.597899 -3.535534 3.535534 
C -2.597899 4.473168 -1.326016 5 0 5 
z
" style="stroke: #ffffff"/>
     </defs>
     <g>
      <use xlink:href="#m4114352cc8" x="337.0625" y="498.060313" style="fill: #00ffff; stroke: #ffffff"/>
     </g>
    </g>
    <g id="text_20">
     <!-- Technique -->
     <g transform="translate(355.0625 501.560313) scale(0.1 -0.1)">
      <defs>
       <path id="DejaVuSans-71" d="M 947 1747 
Q 947 1113 1208 752 
Q 1469 391 1925 391 
Q 2381 391 2643 752 
Q 2906 1113 2906 1747 
Q 2906 2381 2643 2742 
Q 2381 3103 1925 3103 
Q 1469 3103 1208 2742 
Q 947 2381 947 1747 
z
M 2906 525 
Q 2725 213 2448 61 
Q 2172 -91 1784 -91 
Q 1150 -91 751 415 
Q 353 922 353 1747 
Q 353 2572 751 3078 
Q 1150 3584 1784 3584 
Q 2172 3584 2448 3432 
Q 2725 3281 2906 2969 
L 2906 3500 
L 3481 3500 
L 3481 -1331 
L 2906 -1331 
L 2906 525 
z
" transform="scale(0.015625)"/>
      </defs>
      <use xlink:href="#DejaVuSans-54"/>
      <use xlink:href="#DejaVuSans-65" x="44.083984"/>
      <use xlink:href="#DejaVuSans-63" x="105.607422"/>
      <use xlink:href="#DejaVuSans-68" x="160.587891"/>
      <use xlink:href="#DejaVuSans-6e" x="223.966797"/>
      <use xlink:href="#DejaVuSans-69" x="287.345703"/>
      <use xlink:href="#DejaVuSans-71" x="315.128906"/>
      <use xlink:href="#DejaVuSans-75" x="378.605469"/>
      <use xlink:href="#DejaVuSans-65" x="441.984375"/>
     </g>
    </g>
   </g>
  </g>
 </g>
 <defs>
  <clipPath id="p83044c11cf">
   <rect x="90" y="69.12" width="558" height="443.52"/>
  </clipPath>
 </defs>
</svg>
