<?xml version="1.0" encoding="utf-8" standalone="no"?>
<!DOCTYPE svg PUBLIC "-//W3C//DTD SVG 1.1//EN"
  "http://www.w3.org/Graphics/SVG/1.1/DTD/svg11.dtd">
<svg xmlns:xlink="http://www.w3.org/1999/xlink" width="720pt" height="576pt" viewBox="0 0 720 576" xmlns="http://www.w3.org/2000/svg" version="1.1">
 <metadata>
  <rdf:RDF xmlns:dc="http://purl.org/dc/elements/1.1/" xmlns:cc="http://creativecommons.org/ns#" xmlns:rdf="http://www.w3.org/1999/02/22-rdf-syntax-ns#">
   <cc:Work>
    <dc:type rdf:resource="http://purl.org/dc/dcmitype/StillImage"/>
    <dc:date>2024-09-02T16:21:35.108201</dc:date>
    <dc:format>image/svg+xml</dc:format>
    <dc:creator>
     <cc:Agent>
      <dc:title>Matplotlib v3.8.2, https://matplotlib.org/</dc:title>
     </cc:Agent>
    </dc:creator>
   </cc:Work>
  </rdf:RDF>
 </metadata>
 <defs>
  <style type="text/css">*{stroke-linejoin: round; stroke-linecap: butt}</style>
 </defs>
 <g id="figure_1">
  <g id="patch_1">
   <path d="M 0 576 
L 720 576 
L 720 0 
L 0 0 
z
" style="fill: #ffffff"/>
  </g>
  <g id="axes_1">
   <g id="patch_2">
    <path d="M 90 512.64 
L 648 512.64 
L 648 69.12 
L 90 69.12 
z
" style="fill: #ffffff"/>
   </g>
   <g id="PathCollection_1">
    <path d="M 115.363636 504.727449 
C 118.611698 504.727449 121.727164 503.43698 124.02389 501.140254 
C 126.320617 498.843528 127.611085 495.728061 127.611085 492.48 
C 127.611085 489.231939 126.320617 486.116472 124.02389 483.819746 
C 121.727164 481.52302 118.611698 480.232551 115.363636 480.232551 
C 112.115575 480.232551 109.000109 481.52302 106.703382 483.819746 
C 104.406656 486.116472 103.116188 489.231939 103.116188 492.48 
C 103.116188 495.728061 104.406656 498.843528 106.703382 501.140254 
C 109.000109 503.43698 112.115575 504.727449 115.363636 504.727449 
z
" clip-path="url(#pe90cb8cc9b)" style="fill: #0000ff; fill-opacity: 0.6; stroke: #ffffff; stroke-opacity: 0.6; stroke-width: 2"/>
    <path d="M 115.363636 503.66034 
C 118.328697 503.66034 121.172716 502.482309 123.269331 500.385694 
C 125.365945 498.28908 126.543976 495.445061 126.543976 492.48 
C 126.543976 489.514939 125.365945 486.67092 123.269331 484.574306 
C 121.172716 482.477691 118.328697 481.29966 115.363636 481.29966 
C 112.398576 481.29966 109.554557 482.477691 107.457942 484.574306 
C 105.361328 486.67092 104.183296 489.514939 104.183296 492.48 
C 104.183296 495.445061 105.361328 498.28908 107.457942 500.385694 
C 109.554557 502.482309 112.398576 503.66034 115.363636 503.66034 
z
" clip-path="url(#pe90cb8cc9b)" style="fill: #008000; fill-opacity: 0.6; stroke: #ffffff; stroke-opacity: 0.6; stroke-width: 2"/>
    <path d="M 115.363636 505.708757 
C 118.871944 505.708757 122.237032 504.314891 124.71778 501.834143 
C 127.198528 499.353396 128.592393 495.988307 128.592393 492.48 
C 128.592393 488.971693 127.198528 485.606604 124.71778 483.125857 
C 122.237032 480.645109 118.871944 479.251243 115.363636 479.251243 
C 111.855329 479.251243 108.490241 480.645109 106.009493 483.125857 
C 103.528745 485.606604 102.13488 488.971693 102.13488 492.48 
C 102.13488 495.988307 103.528745 499.353396 106.009493 501.834143 
C 108.490241 504.314891 111.855329 505.708757 115.363636 505.708757 
z
" clip-path="url(#pe90cb8cc9b)" style="fill: #ff0000; fill-opacity: 0.6; stroke: #ffffff; stroke-opacity: 0.6; stroke-width: 2"/>
    <path d="M 115.363636 499.551068 
C 117.238905 499.551068 119.037621 498.806016 120.363636 497.48 
C 121.689652 496.153985 122.434704 494.355269 122.434704 492.48 
C 122.434704 490.604731 121.689652 488.806016 120.363636 487.48 
C 119.037621 486.153985 117.238905 485.408932 115.363636 485.408932 
C 113.488367 485.408932 111.689652 486.153985 110.363636 487.48 
C 109.037621 488.806016 108.292569 490.604731 108.292569 492.48 
C 108.292569 494.355269 109.037621 496.153985 110.363636 497.48 
C 111.689652 498.806016 113.488367 499.551068 115.363636 499.551068 
z
" clip-path="url(#pe90cb8cc9b)" style="fill: #800080; fill-opacity: 0.6; stroke: #ffffff; stroke-opacity: 0.6; stroke-width: 2"/>
    <path d="M 115.363636 401.68 
C 118.015667 401.68 120.559435 400.626337 122.434704 398.751068 
C 124.309973 396.875799 125.363636 394.332031 125.363636 391.68 
C 125.363636 389.027969 124.309973 386.484201 122.434704 384.608932 
C 120.559435 382.733663 118.015667 381.68 115.363636 381.68 
C 112.711605 381.68 110.167838 382.733663 108.292569 384.608932 
C 106.417299 386.484201 105.363636 389.027969 105.363636 391.68 
C 105.363636 394.332031 106.417299 396.875799 108.292569 398.751068 
C 110.167838 400.626337 112.711605 401.68 115.363636 401.68 
z
" clip-path="url(#pe90cb8cc9b)" style="fill: #0000ff; fill-opacity: 0.6; stroke: #ffffff; stroke-opacity: 0.6; stroke-width: 2"/>
    <path d="M 115.363636 401.68 
C 118.015667 401.68 120.559435 400.626337 122.434704 398.751068 
C 124.309973 396.875799 125.363636 394.332031 125.363636 391.68 
C 125.363636 389.027969 124.309973 386.484201 122.434704 384.608932 
C 120.559435 382.733663 118.015667 381.68 115.363636 381.68 
C 112.711605 381.68 110.167838 382.733663 108.292569 384.608932 
C 106.417299 386.484201 105.363636 389.027969 105.363636 391.68 
C 105.363636 394.332031 106.417299 396.875799 108.292569 398.751068 
C 110.167838 400.626337 112.711605 401.68 115.363636 401.68 
z
" clip-path="url(#pe90cb8cc9b)" style="fill: #008000; fill-opacity: 0.6; stroke: #ffffff; stroke-opacity: 0.6; stroke-width: 2"/>
    <path d="M 115.363636 398.751068 
C 117.238905 398.751068 119.037621 398.006015 120.363636 396.68 
C 121.689652 395.353985 122.434704 393.555269 122.434704 391.68 
C 122.434704 389.804731 121.689652 388.006015 120.363636 386.68 
C 119.037621 385.353985 117.238905 384.608932 115.363636 384.608932 
C 113.488367 384.608932 111.689652 385.353985 110.363636 386.68 
C 109.037621 388.006015 108.292569 389.804731 108.292569 391.68 
C 108.292569 393.555269 109.037621 395.353985 110.363636 396.68 
C 111.689652 398.006015 113.488367 398.751068 115.363636 398.751068 
z
" clip-path="url(#pe90cb8cc9b)" style="fill: #ff0000; fill-opacity: 0.6; stroke: #ffffff; stroke-opacity: 0.6; stroke-width: 2"/>
    <path d="M 115.363636 398.751068 
C 117.238905 398.751068 119.037621 398.006015 120.363636 396.68 
C 121.689652 395.353985 122.434704 393.555269 122.434704 391.68 
C 122.434704 389.804731 121.689652 388.006015 120.363636 386.68 
C 119.037621 385.353985 117.238905 384.608932 115.363636 384.608932 
C 113.488367 384.608932 111.689652 385.353985 110.363636 386.68 
C 109.037621 388.006015 108.292569 389.804731 108.292569 391.68 
C 108.292569 393.555269 109.037621 395.353985 110.363636 396.68 
C 111.689652 398.006015 113.488367 398.751068 115.363636 398.751068 
z
" clip-path="url(#pe90cb8cc9b)" style="fill: #800080; fill-opacity: 0.6; stroke: #ffffff; stroke-opacity: 0.6; stroke-width: 2"/>
    <path d="M 115.363636 297.951068 
C 117.238905 297.951068 119.037621 297.206015 120.363636 295.88 
C 121.689652 294.553985 122.434704 292.755269 122.434704 290.88 
C 122.434704 289.004731 121.689652 287.206015 120.363636 285.88 
C 119.037621 284.553985 117.238905 283.808932 115.363636 283.808932 
C 113.488367 283.808932 111.689652 284.553985 110.363636 285.88 
C 109.037621 287.206015 108.292569 289.004731 108.292569 290.88 
C 108.292569 292.755269 109.037621 294.553985 110.363636 295.88 
C 111.689652 297.206015 113.488367 297.951068 115.363636 297.951068 
z
" clip-path="url(#pe90cb8cc9b)" style="fill: #0000ff; fill-opacity: 0.6; stroke: #ffffff; stroke-opacity: 0.6; stroke-width: 2"/>
    <path d="M 115.363636 297.951068 
C 117.238905 297.951068 119.037621 297.206015 120.363636 295.88 
C 121.689652 294.553985 122.434704 292.755269 122.434704 290.88 
C 122.434704 289.004731 121.689652 287.206015 120.363636 285.88 
C 119.037621 284.553985 117.238905 283.808932 115.363636 283.808932 
C 113.488367 283.808932 111.689652 284.553985 110.363636 285.88 
C 109.037621 287.206015 108.292569 289.004731 108.292569 290.88 
C 108.292569 292.755269 109.037621 294.553985 110.363636 295.88 
C 111.689652 297.206015 113.488367 297.951068 115.363636 297.951068 
z
" clip-path="url(#pe90cb8cc9b)" style="fill: #008000; fill-opacity: 0.6; stroke: #ffffff; stroke-opacity: 0.6; stroke-width: 2"/>
    <path d="M 115.363636 295.88 
C 116.689652 295.88 117.961536 295.353168 118.89917 294.415534 
C 119.836805 293.477899 120.363636 292.206015 120.363636 290.88 
C 120.363636 289.553985 119.836805 288.282101 118.89917 287.344466 
C 117.961536 286.406832 116.689652 285.88 115.363636 285.88 
C 114.037621 285.88 112.765737 286.406832 111.828102 287.344466 
C 110.890468 288.282101 110.363636 289.553985 110.363636 290.88 
C 110.363636 292.206015 110.890468 293.477899 111.828102 294.415534 
C 112.765737 295.353168 114.037621 295.88 115.363636 295.88 
z
" clip-path="url(#pe90cb8cc9b)" style="fill: #ff0000; fill-opacity: 0.6; stroke: #ffffff; stroke-opacity: 0.6; stroke-width: 2"/>
    <path d="M 115.363636 297.951068 
C 117.238905 297.951068 119.037621 297.206015 120.363636 295.88 
C 121.689652 294.553985 122.434704 292.755269 122.434704 290.88 
C 122.434704 289.004731 121.689652 287.206015 120.363636 285.88 
C 119.037621 284.553985 117.238905 283.808932 115.363636 283.808932 
C 113.488367 283.808932 111.689652 284.553985 110.363636 285.88 
C 109.037621 287.206015 108.292569 289.004731 108.292569 290.88 
C 108.292569 292.755269 109.037621 294.553985 110.363636 295.88 
C 111.689652 297.206015 113.488367 297.951068 115.363636 297.951068 
z
" clip-path="url(#pe90cb8cc9b)" style="fill: #800080; fill-opacity: 0.6; stroke: #ffffff; stroke-opacity: 0.6; stroke-width: 2"/>
    <path d="M 115.363636 195.08 
C 116.689652 195.08 117.961536 194.553168 118.89917 193.615534 
C 119.836805 192.677899 120.363636 191.406016 120.363636 190.08 
C 120.363636 188.753985 119.836805 187.482101 118.89917 186.544466 
C 117.961536 185.606832 116.689652 185.08 115.363636 185.08 
C 114.037621 185.08 112.765737 185.606832 111.828102 186.544466 
C 110.890468 187.482101 110.363636 188.753985 110.363636 190.08 
C 110.363636 191.406016 110.890468 192.677899 111.828102 193.615534 
C 112.765737 194.553168 114.037621 195.08 115.363636 195.08 
z
" clip-path="url(#pe90cb8cc9b)" style="fill: #0000ff; fill-opacity: 0.6; stroke: #ffffff; stroke-opacity: 0.6; stroke-width: 2"/>
    <path d="M 115.363636 197.151068 
C 117.238905 197.151068 119.037621 196.406016 120.363636 195.08 
C 121.689652 193.753985 122.434704 191.955269 122.434704 190.08 
C 122.434704 188.204731 121.689652 186.406016 120.363636 185.08 
C 119.037621 183.753985 117.238905 183.008932 115.363636 183.008932 
C 113.488367 183.008932 111.689652 183.753985 110.363636 185.08 
C 109.037621 186.406016 108.292569 188.204731 108.292569 190.08 
C 108.292569 191.955269 109.037621 193.753985 110.363636 195.08 
C 111.689652 196.406016 113.488367 197.151068 115.363636 197.151068 
z
" clip-path="url(#pe90cb8cc9b)" style="fill: #008000; fill-opacity: 0.6; stroke: #ffffff; stroke-opacity: 0.6; stroke-width: 2"/>
    <path d="M 115.363636 197.151068 
C 117.238905 197.151068 119.037621 196.406016 120.363636 195.08 
C 121.689652 193.753985 122.434704 191.955269 122.434704 190.08 
C 122.434704 188.204731 121.689652 186.406016 120.363636 185.08 
C 119.037621 183.753985 117.238905 183.008932 115.363636 183.008932 
C 113.488367 183.008932 111.689652 183.753985 110.363636 185.08 
C 109.037621 186.406016 108.292569 188.204731 108.292569 190.08 
C 108.292569 191.955269 109.037621 193.753985 110.363636 195.08 
C 111.689652 196.406016 113.488367 197.151068 115.363636 197.151068 
z
" clip-path="url(#pe90cb8cc9b)" style="fill: #ff0000; fill-opacity: 0.6; stroke: #ffffff; stroke-opacity: 0.6; stroke-width: 2"/>
    <path d="M 115.363636 197.151068 
C 117.238905 197.151068 119.037621 196.406016 120.363636 195.08 
C 121.689652 193.753985 122.434704 191.955269 122.434704 190.08 
C 122.434704 188.204731 121.689652 186.406016 120.363636 185.08 
C 119.037621 183.753985 117.238905 183.008932 115.363636 183.008932 
C 113.488367 183.008932 111.689652 183.753985 110.363636 185.08 
C 109.037621 186.406016 108.292569 188.204731 108.292569 190.08 
C 108.292569 191.955269 109.037621 193.753985 110.363636 195.08 
C 111.689652 196.406016 113.488367 197.151068 115.363636 197.151068 
z
" clip-path="url(#pe90cb8cc9b)" style="fill: #800080; fill-opacity: 0.6; stroke: #ffffff; stroke-opacity: 0.6; stroke-width: 2"/>
    <path d="M 115.363636 111.074495 
C 121.143604 111.074495 126.687617 108.778089 130.774671 104.691035 
C 134.861726 100.603981 137.158131 95.059968 137.158131 89.28 
C 137.158131 83.500032 134.861726 77.956019 130.774671 73.868965 
C 126.687617 69.781911 121.143604 67.485505 115.363636 67.485505 
C 109.583669 67.485505 104.039656 69.781911 99.952601 73.868965 
C 95.865547 77.956019 93.569142 83.500032 93.569142 89.28 
C 93.569142 95.059968 95.865547 100.603981 99.952601 104.691035 
C 104.039656 108.778089 109.583669 111.074495 115.363636 111.074495 
z
" clip-path="url(#pe90cb8cc9b)" style="fill: #0000ff; fill-opacity: 0.6; stroke: #ffffff; stroke-opacity: 0.6; stroke-width: 2"/>
    <path d="M 115.363636 113.774897 
C 121.859759 113.774897 128.090692 111.193961 132.684144 106.600508 
C 137.277597 102.007056 139.858534 95.776123 139.858534 89.28 
C 139.858534 82.783877 137.277597 76.552944 132.684144 71.959492 
C 128.090692 67.366039 121.859759 64.785103 115.363636 64.785103 
C 108.867514 64.785103 102.636581 67.366039 98.043128 71.959492 
C 93.449676 76.552944 90.868739 82.783877 90.868739 89.28 
C 90.868739 95.776123 93.449676 102.007056 98.043128 106.600508 
C 102.636581 111.193961 108.867514 113.774897 115.363636 113.774897 
z
" clip-path="url(#pe90cb8cc9b)" style="fill: #008000; fill-opacity: 0.6; stroke: #ffffff; stroke-opacity: 0.6; stroke-width: 2"/>
    <path d="M 115.363636 106.600508 
C 119.957089 106.600508 124.363024 104.77551 127.611085 101.527449 
C 130.859146 98.279387 132.684144 93.873452 132.684144 89.28 
C 132.684144 84.686548 130.859146 80.280613 127.611085 77.032551 
C 124.363024 73.78449 119.957089 71.959492 115.363636 71.959492 
C 110.770184 71.959492 106.364249 73.78449 103.116188 77.032551 
C 99.868126 80.280613 98.043128 84.686548 98.043128 89.28 
C 98.043128 93.873452 99.868126 98.279387 103.116188 101.527449 
C 106.364249 104.77551 110.770184 106.600508 115.363636 106.600508 
z
" clip-path="url(#pe90cb8cc9b)" style="fill: #ff0000; fill-opacity: 0.6; stroke: #ffffff; stroke-opacity: 0.6; stroke-width: 2"/>
    <path d="M 115.363636 104.28 
C 119.341683 104.28 123.157334 102.699505 125.970238 99.886602 
C 128.783142 97.073698 130.363636 93.258047 130.363636 89.28 
C 130.363636 85.301954 128.783142 81.486302 125.970238 78.673398 
C 123.157334 75.860495 119.341683 74.28 115.363636 74.28 
C 111.38559 74.28 107.569938 75.860495 104.757035 78.673398 
C 101.944131 81.486302 100.363636 85.301954 100.363636 89.28 
C 100.363636 93.258047 101.944131 97.073698 104.757035 99.886602 
C 107.569938 102.699505 111.38559 104.28 115.363636 104.28 
z
" clip-path="url(#pe90cb8cc9b)" style="fill: #800080; fill-opacity: 0.6; stroke: #ffffff; stroke-opacity: 0.6; stroke-width: 2"/>
    <path d="M 199.909091 505.708757 
C 203.417398 505.708757 206.782487 504.314891 209.263234 501.834143 
C 211.743982 499.353396 213.137847 495.988307 213.137847 492.48 
C 213.137847 488.971693 211.743982 485.606604 209.263234 483.125857 
C 206.782487 480.645109 203.417398 479.251243 199.909091 479.251243 
C 196.400784 479.251243 193.035695 480.645109 190.554947 483.125857 
C 188.0742 485.606604 186.680334 488.971693 186.680334 492.48 
C 186.680334 495.988307 188.0742 499.353396 190.554947 501.834143 
C 193.035695 504.314891 196.400784 505.708757 199.909091 505.708757 
z
" clip-path="url(#pe90cb8cc9b)" style="fill: #0000ff; fill-opacity: 0.6; stroke: #ffffff; stroke-opacity: 0.6; stroke-width: 2"/>
    <path d="M 199.909091 503.66034 
C 202.874152 503.66034 205.71817 502.482309 207.814785 500.385694 
C 209.9114 498.28908 211.089431 495.445061 211.089431 492.48 
C 211.089431 489.514939 209.9114 486.67092 207.814785 484.574306 
C 205.71817 482.477691 202.874152 481.29966 199.909091 481.29966 
C 196.94403 481.29966 194.100011 482.477691 192.003397 484.574306 
C 189.906782 486.67092 188.728751 489.514939 188.728751 492.48 
C 188.728751 495.445061 189.906782 498.28908 192.003397 500.385694 
C 194.100011 502.482309 196.94403 503.66034 199.909091 503.66034 
z
" clip-path="url(#pe90cb8cc9b)" style="fill: #008000; fill-opacity: 0.6; stroke: #ffffff; stroke-opacity: 0.6; stroke-width: 2"/>
    <path d="M 199.909091 504.727449 
C 203.157152 504.727449 206.272619 503.43698 208.569345 501.140254 
C 210.866071 498.843528 212.15654 495.728061 212.15654 492.48 
C 212.15654 489.231939 210.866071 486.116472 208.569345 483.819746 
C 206.272619 481.52302 203.157152 480.232551 199.909091 480.232551 
C 196.66103 480.232551 193.545563 481.52302 191.248837 483.819746 
C 188.952111 486.116472 187.661642 489.231939 187.661642 492.48 
C 187.661642 495.728061 188.952111 498.843528 191.248837 501.140254 
C 193.545563 503.43698 196.66103 504.727449 199.909091 504.727449 
z
" clip-path="url(#pe90cb8cc9b)" style="fill: #ff0000; fill-opacity: 0.6; stroke: #ffffff; stroke-opacity: 0.6; stroke-width: 2"/>
    <path d="M 199.909091 499.551068 
C 201.78436 499.551068 203.583075 498.806016 204.909091 497.48 
C 206.235106 496.153985 206.980159 494.355269 206.980159 492.48 
C 206.980159 490.604731 206.235106 488.806016 204.909091 487.48 
C 203.583075 486.153985 201.78436 485.408932 199.909091 485.408932 
C 198.033822 485.408932 196.235106 486.153985 194.909091 487.48 
C 193.583075 488.806016 192.838023 490.604731 192.838023 492.48 
C 192.838023 494.355269 193.583075 496.153985 194.909091 497.48 
C 196.235106 498.806016 198.033822 499.551068 199.909091 499.551068 
z
" clip-path="url(#pe90cb8cc9b)" style="fill: #800080; fill-opacity: 0.6; stroke: #ffffff; stroke-opacity: 0.6; stroke-width: 2"/>
    <path d="M 199.909091 411.044917 
C 205.044727 411.044917 209.970712 409.004507 213.602155 405.373064 
C 217.233598 401.741621 219.274008 396.815636 219.274008 391.68 
C 219.274008 386.544364 217.233598 381.618379 213.602155 377.986936 
C 209.970712 374.355493 205.044727 372.315083 199.909091 372.315083 
C 194.773455 372.315083 189.84747 374.355493 186.216027 377.986936 
C 182.584584 381.618379 180.544174 386.544364 180.544174 391.68 
C 180.544174 396.815636 182.584584 401.741621 186.216027 405.373064 
C 189.84747 409.004507 194.773455 411.044917 199.909091 411.044917 
z
" clip-path="url(#pe90cb8cc9b)" style="fill: #0000ff; fill-opacity: 0.6; stroke: #ffffff; stroke-opacity: 0.6; stroke-width: 2"/>
    <path d="M 199.909091 404.908757 
C 203.417398 404.908757 206.782487 403.514891 209.263234 401.034143 
C 211.743982 398.553396 213.137847 395.188307 213.137847 391.68 
C 213.137847 388.171693 211.743982 384.806604 209.263234 382.325857 
C 206.782487 379.845109 203.417398 378.451243 199.909091 378.451243 
C 196.400784 378.451243 193.035695 379.845109 190.554947 382.325857 
C 188.0742 384.806604 186.680334 388.171693 186.680334 391.68 
C 186.680334 395.188307 188.0742 398.553396 190.554947 401.034143 
C 193.035695 403.514891 196.400784 404.908757 199.909091 404.908757 
z
" clip-path="url(#pe90cb8cc9b)" style="fill: #008000; fill-opacity: 0.6; stroke: #ffffff; stroke-opacity: 0.6; stroke-width: 2"/>
    <path d="M 199.909091 402.86034 
C 202.874152 402.86034 205.71817 401.682309 207.814785 399.585694 
C 209.9114 397.48908 211.089431 394.645061 211.089431 391.68 
C 211.089431 388.714939 209.9114 385.87092 207.814785 383.774306 
C 205.71817 381.677691 202.874152 380.49966 199.909091 380.49966 
C 196.94403 380.49966 194.100011 381.677691 192.003397 383.774306 
C 189.906782 385.87092 188.728751 388.714939 188.728751 391.68 
C 188.728751 394.645061 189.906782 397.48908 192.003397 399.585694 
C 194.100011 401.682309 196.94403 402.86034 199.909091 402.86034 
z
" clip-path="url(#pe90cb8cc9b)" style="fill: #ff0000; fill-opacity: 0.6; stroke: #ffffff; stroke-opacity: 0.6; stroke-width: 2"/>
    <path d="M 199.909091 398.751068 
C 201.78436 398.751068 203.583075 398.006015 204.909091 396.68 
C 206.235106 395.353985 206.980159 393.555269 206.980159 391.68 
C 206.980159 389.804731 206.235106 388.006015 204.909091 386.68 
C 203.583075 385.353985 201.78436 384.608932 199.909091 384.608932 
C 198.033822 384.608932 196.235106 385.353985 194.909091 386.68 
C 193.583075 388.006015 192.838023 389.804731 192.838023 391.68 
C 192.838023 393.555269 193.583075 395.353985 194.909091 396.68 
C 196.235106 398.006015 198.033822 398.751068 199.909091 398.751068 
z
" clip-path="url(#pe90cb8cc9b)" style="fill: #800080; fill-opacity: 0.6; stroke: #ffffff; stroke-opacity: 0.6; stroke-width: 2"/>
    <path d="M 199.909091 100.46034 
C 202.874152 100.46034 205.71817 99.282309 207.814785 97.185694 
C 209.9114 95.08908 211.089431 92.245061 211.089431 89.28 
C 211.089431 86.314939 209.9114 83.47092 207.814785 81.374306 
C 205.71817 79.277691 202.874152 78.09966 199.909091 78.09966 
C 196.94403 78.09966 194.100011 79.277691 192.003397 81.374306 
C 189.906782 83.47092 188.728751 86.314939 188.728751 89.28 
C 188.728751 92.245061 189.906782 95.08908 192.003397 97.185694 
C 194.100011 99.282309 196.94403 100.46034 199.909091 100.46034 
z
" clip-path="url(#pe90cb8cc9b)" style="fill: #0000ff; fill-opacity: 0.6; stroke: #ffffff; stroke-opacity: 0.6; stroke-width: 2"/>
    <path d="M 199.909091 103.422136 
C 203.659629 103.422136 207.25706 101.932031 209.909091 99.28 
C 212.561122 96.627969 214.051227 93.030538 214.051227 89.28 
C 214.051227 85.529462 212.561122 81.932031 209.909091 79.28 
C 207.25706 76.627969 203.659629 75.137864 199.909091 75.137864 
C 196.158553 75.137864 192.561122 76.627969 189.909091 79.28 
C 187.25706 81.932031 185.766955 85.529462 185.766955 89.28 
C 185.766955 93.030538 187.25706 96.627969 189.909091 99.28 
C 192.561122 101.932031 196.158553 103.422136 199.909091 103.422136 
z
" clip-path="url(#pe90cb8cc9b)" style="fill: #008000; fill-opacity: 0.6; stroke: #ffffff; stroke-opacity: 0.6; stroke-width: 2"/>
    <path d="M 199.909091 99.28 
C 202.561122 99.28 205.10489 98.226337 206.980159 96.351068 
C 208.855428 94.475799 209.909091 91.932031 209.909091 89.28 
C 209.909091 86.627969 208.855428 84.084201 206.980159 82.208932 
C 205.10489 80.333663 202.561122 79.28 199.909091 79.28 
C 197.25706 79.28 194.713292 80.333663 192.838023 82.208932 
C 190.962754 84.084201 189.909091 86.627969 189.909091 89.28 
C 189.909091 91.932031 190.962754 94.475799 192.838023 96.351068 
C 194.713292 98.226337 197.25706 99.28 199.909091 99.28 
z
" clip-path="url(#pe90cb8cc9b)" style="fill: #ff0000; fill-opacity: 0.6; stroke: #ffffff; stroke-opacity: 0.6; stroke-width: 2"/>
    <path d="M 199.909091 97.940254 
C 202.205817 97.940254 204.408785 97.027755 206.032815 95.403724 
C 207.656846 93.779694 208.569345 91.576726 208.569345 89.28 
C 208.569345 86.983274 207.656846 84.780306 206.032815 83.156276 
C 204.408785 81.532245 202.205817 80.619746 199.909091 80.619746 
C 197.612365 80.619746 195.409397 81.532245 193.785367 83.156276 
C 192.161336 84.780306 191.248837 86.983274 191.248837 89.28 
C 191.248837 91.576726 192.161336 93.779694 193.785367 95.403724 
C 195.409397 97.027755 197.612365 97.940254 199.909091 97.940254 
z
" clip-path="url(#pe90cb8cc9b)" style="fill: #800080; fill-opacity: 0.6; stroke: #ffffff; stroke-opacity: 0.6; stroke-width: 2"/>
    <path d="M 284.454545 497.48 
C 285.780561 497.48 287.052445 496.953168 287.990079 496.015534 
C 288.927714 495.077899 289.454545 493.806016 289.454545 492.48 
C 289.454545 491.153985 288.927714 489.882101 287.990079 488.944466 
C 287.052445 488.006832 285.780561 487.48 284.454545 487.48 
C 283.12853 487.48 281.856646 488.006832 280.919012 488.944466 
C 279.981377 489.882101 279.454545 491.153985 279.454545 492.48 
C 279.454545 493.806016 279.981377 495.077899 280.919012 496.015534 
C 281.856646 496.953168 283.12853 497.48 284.454545 497.48 
z
" clip-path="url(#pe90cb8cc9b)" style="fill: #0000ff; fill-opacity: 0.6; stroke: #ffffff; stroke-opacity: 0.6; stroke-width: 2"/>
    <path d="M 284.454545 497.48 
C 285.780561 497.48 287.052445 496.953168 287.990079 496.015534 
C 288.927714 495.077899 289.454545 493.806016 289.454545 492.48 
C 289.454545 491.153985 288.927714 489.882101 287.990079 488.944466 
C 287.052445 488.006832 285.780561 487.48 284.454545 487.48 
C 283.12853 487.48 281.856646 488.006832 280.919012 488.944466 
C 279.981377 489.882101 279.454545 491.153985 279.454545 492.48 
C 279.454545 493.806016 279.981377 495.077899 280.919012 496.015534 
C 281.856646 496.953168 283.12853 497.48 284.454545 497.48 
z
" clip-path="url(#pe90cb8cc9b)" style="fill: #ff0000; fill-opacity: 0.6; stroke: #ffffff; stroke-opacity: 0.6; stroke-width: 2"/>
    <path d="M 284.454545 409.000508 
C 289.047998 409.000508 293.453933 407.17551 296.701994 403.927449 
C 299.950056 400.679387 301.775054 396.273452 301.775054 391.68 
C 301.775054 387.086548 299.950056 382.680613 296.701994 379.432551 
C 293.453933 376.18449 289.047998 374.359492 284.454545 374.359492 
C 279.861093 374.359492 275.455158 376.18449 272.207097 379.432551 
C 268.959035 382.680613 267.134037 387.086548 267.134037 391.68 
C 267.134037 396.273452 268.959035 400.679387 272.207097 403.927449 
C 275.455158 407.17551 279.861093 409.000508 284.454545 409.000508 
z
" clip-path="url(#pe90cb8cc9b)" style="fill: #0000ff; fill-opacity: 0.6; stroke: #ffffff; stroke-opacity: 0.6; stroke-width: 2"/>
    <path d="M 284.454545 404.908757 
C 287.962853 404.908757 291.327941 403.514891 293.808689 401.034143 
C 296.289437 398.553396 297.683302 395.188307 297.683302 391.68 
C 297.683302 388.171693 296.289437 384.806604 293.808689 382.325857 
C 291.327941 379.845109 287.962853 378.451243 284.454545 378.451243 
C 280.946238 378.451243 277.58115 379.845109 275.100402 382.325857 
C 272.619654 384.806604 271.225789 388.171693 271.225789 391.68 
C 271.225789 395.188307 272.619654 398.553396 275.100402 401.034143 
C 277.58115 403.514891 280.946238 404.908757 284.454545 404.908757 
z
" clip-path="url(#pe90cb8cc9b)" style="fill: #008000; fill-opacity: 0.6; stroke: #ffffff; stroke-opacity: 0.6; stroke-width: 2"/>
    <path d="M 284.454545 404.908757 
C 287.962853 404.908757 291.327941 403.514891 293.808689 401.034143 
C 296.289437 398.553396 297.683302 395.188307 297.683302 391.68 
C 297.683302 388.171693 296.289437 384.806604 293.808689 382.325857 
C 291.327941 379.845109 287.962853 378.451243 284.454545 378.451243 
C 280.946238 378.451243 277.58115 379.845109 275.100402 382.325857 
C 272.619654 384.806604 271.225789 388.171693 271.225789 391.68 
C 271.225789 395.188307 272.619654 398.553396 275.100402 401.034143 
C 277.58115 403.514891 280.946238 404.908757 284.454545 404.908757 
z
" clip-path="url(#pe90cb8cc9b)" style="fill: #ff0000; fill-opacity: 0.6; stroke: #ffffff; stroke-opacity: 0.6; stroke-width: 2"/>
    <path d="M 284.454545 400.340254 
C 286.751272 400.340254 288.954239 399.427755 290.57827 397.803724 
C 292.2023 396.179694 293.114799 393.976726 293.114799 391.68 
C 293.114799 389.383274 292.2023 387.180306 290.57827 385.556276 
C 288.954239 383.932245 286.751272 383.019746 284.454545 383.019746 
C 282.157819 383.019746 279.954852 383.932245 278.330821 385.556276 
C 276.70679 387.180306 275.794291 389.383274 275.794291 391.68 
C 275.794291 393.976726 276.70679 396.179694 278.330821 397.803724 
C 279.954852 399.427755 282.157819 400.340254 284.454545 400.340254 
z
" clip-path="url(#pe90cb8cc9b)" style="fill: #800080; fill-opacity: 0.6; stroke: #ffffff; stroke-opacity: 0.6; stroke-width: 2"/>
    <path d="M 284.454545 195.08 
C 285.780561 195.08 287.052445 194.553168 287.990079 193.615534 
C 288.927714 192.677899 289.454545 191.406016 289.454545 190.08 
C 289.454545 188.753985 288.927714 187.482101 287.990079 186.544466 
C 287.052445 185.606832 285.780561 185.08 284.454545 185.08 
C 283.12853 185.08 281.856646 185.606832 280.919012 186.544466 
C 279.981377 187.482101 279.454545 188.753985 279.454545 190.08 
C 279.454545 191.406016 279.981377 192.677899 280.919012 193.615534 
C 281.856646 194.553168 283.12853 195.08 284.454545 195.08 
z
" clip-path="url(#pe90cb8cc9b)" style="fill: #ff0000; fill-opacity: 0.6; stroke: #ffffff; stroke-opacity: 0.6; stroke-width: 2"/>
    <path d="M 284.454545 94.28 
C 285.780561 94.28 287.052445 93.753168 287.990079 92.815534 
C 288.927714 91.877899 289.454545 90.606016 289.454545 89.28 
C 289.454545 87.953985 288.927714 86.682101 287.990079 85.744466 
C 287.052445 84.806832 285.780561 84.28 284.454545 84.28 
C 283.12853 84.28 281.856646 84.806832 280.919012 85.744466 
C 279.981377 86.682101 279.454545 87.953985 279.454545 89.28 
C 279.454545 90.606016 279.981377 91.877899 280.919012 92.815534 
C 281.856646 93.753168 283.12853 94.28 284.454545 94.28 
z
" clip-path="url(#pe90cb8cc9b)" style="fill: #0000ff; fill-opacity: 0.6; stroke: #ffffff; stroke-opacity: 0.6; stroke-width: 2"/>
    <path d="M 284.454545 96.351068 
C 286.329815 96.351068 288.12853 95.606016 289.454545 94.28 
C 290.780561 92.953985 291.525613 91.155269 291.525613 89.28 
C 291.525613 87.404731 290.780561 85.606016 289.454545 84.28 
C 288.12853 82.953985 286.329815 82.208932 284.454545 82.208932 
C 282.579276 82.208932 280.780561 82.953985 279.454545 84.28 
C 278.12853 85.606016 277.383478 87.404731 277.383478 89.28 
C 277.383478 91.155269 278.12853 92.953985 279.454545 94.28 
C 280.780561 95.606016 282.579276 96.351068 284.454545 96.351068 
z
" clip-path="url(#pe90cb8cc9b)" style="fill: #008000; fill-opacity: 0.6; stroke: #ffffff; stroke-opacity: 0.6; stroke-width: 2"/>
    <path d="M 284.454545 94.28 
C 285.780561 94.28 287.052445 93.753168 287.990079 92.815534 
C 288.927714 91.877899 289.454545 90.606016 289.454545 89.28 
C 289.454545 87.953985 288.927714 86.682101 287.990079 85.744466 
C 287.052445 84.806832 285.780561 84.28 284.454545 84.28 
C 283.12853 84.28 281.856646 84.806832 280.919012 85.744466 
C 279.981377 86.682101 279.454545 87.953985 279.454545 89.28 
C 279.454545 90.606016 279.981377 91.877899 280.919012 92.815534 
C 281.856646 93.753168 283.12853 94.28 284.454545 94.28 
z
" clip-path="url(#pe90cb8cc9b)" style="fill: #800080; fill-opacity: 0.6; stroke: #ffffff; stroke-opacity: 0.6; stroke-width: 2"/>
    <path d="M 369 503.66034 
C 371.965061 503.66034 374.80908 502.482309 376.905694 500.385694 
C 379.002309 498.28908 380.18034 495.445061 380.18034 492.48 
C 380.18034 489.514939 379.002309 486.67092 376.905694 484.574306 
C 374.80908 482.477691 371.965061 481.29966 369 481.29966 
C 366.034939 481.29966 363.19092 482.477691 361.094306 484.574306 
C 358.997691 486.67092 357.81966 489.514939 357.81966 492.48 
C 357.81966 495.445061 358.997691 498.28908 361.094306 500.385694 
C 363.19092 502.482309 366.034939 503.66034 369 503.66034 
z
" clip-path="url(#pe90cb8cc9b)" style="fill: #0000ff; fill-opacity: 0.6; stroke: #ffffff; stroke-opacity: 0.6; stroke-width: 2"/>
    <path d="M 369 501.140254 
C 371.296726 501.140254 373.499694 500.227755 375.123724 498.603724 
C 376.747755 496.979694 377.660254 494.776726 377.660254 492.48 
C 377.660254 490.183274 376.747755 487.980306 375.123724 486.356276 
C 373.499694 484.732245 371.296726 483.819746 369 483.819746 
C 366.703274 483.819746 364.500306 484.732245 362.876276 486.356276 
C 361.252245 487.980306 360.339746 490.183274 360.339746 492.48 
C 360.339746 494.776726 361.252245 496.979694 362.876276 498.603724 
C 364.500306 500.227755 366.703274 501.140254 369 501.140254 
z
" clip-path="url(#pe90cb8cc9b)" style="fill: #008000; fill-opacity: 0.6; stroke: #ffffff; stroke-opacity: 0.6; stroke-width: 2"/>
    <path d="M 369 502.48 
C 371.652031 502.48 374.195799 501.426337 376.071068 499.551068 
C 377.946337 497.675799 379 495.132031 379 492.48 
C 379 489.827969 377.946337 487.284201 376.071068 485.408932 
C 374.195799 483.533663 371.652031 482.48 369 482.48 
C 366.347969 482.48 363.804201 483.533663 361.928932 485.408932 
C 360.053663 487.284201 359 489.827969 359 492.48 
C 359 495.132031 360.053663 497.675799 361.928932 499.551068 
C 363.804201 501.426337 366.347969 502.48 369 502.48 
z
" clip-path="url(#pe90cb8cc9b)" style="fill: #ff0000; fill-opacity: 0.6; stroke: #ffffff; stroke-opacity: 0.6; stroke-width: 2"/>
    <path d="M 369 499.551068 
C 370.875269 499.551068 372.673985 498.806016 374 497.48 
C 375.326015 496.153985 376.071068 494.355269 376.071068 492.48 
C 376.071068 490.604731 375.326015 488.806016 374 487.48 
C 372.673985 486.153985 370.875269 485.408932 369 485.408932 
C 367.124731 485.408932 365.326015 486.153985 364 487.48 
C 362.673985 488.806016 361.928932 490.604731 361.928932 492.48 
C 361.928932 494.355269 362.673985 496.153985 364 497.48 
C 365.326015 498.806016 367.124731 499.551068 369 499.551068 
z
" clip-path="url(#pe90cb8cc9b)" style="fill: #800080; fill-opacity: 0.6; stroke: #ffffff; stroke-opacity: 0.6; stroke-width: 2"/>
    <path d="M 369 403.927449 
C 372.248061 403.927449 375.363528 402.63698 377.660254 400.340254 
C 379.95698 398.043528 381.247449 394.928061 381.247449 391.68 
C 381.247449 388.431939 379.95698 385.316472 377.660254 383.019746 
C 375.363528 380.72302 372.248061 379.432551 369 379.432551 
C 365.751939 379.432551 362.636472 380.72302 360.339746 383.019746 
C 358.04302 385.316472 356.752551 388.431939 356.752551 391.68 
C 356.752551 394.928061 358.04302 398.043528 360.339746 400.340254 
C 362.636472 402.63698 365.751939 403.927449 369 403.927449 
z
" clip-path="url(#pe90cb8cc9b)" style="fill: #0000ff; fill-opacity: 0.6; stroke: #ffffff; stroke-opacity: 0.6; stroke-width: 2"/>
    <path d="M 369 398.751068 
C 370.875269 398.751068 372.673985 398.006015 374 396.68 
C 375.326015 395.353985 376.071068 393.555269 376.071068 391.68 
C 376.071068 389.804731 375.326015 388.006015 374 386.68 
C 372.673985 385.353985 370.875269 384.608932 369 384.608932 
C 367.124731 384.608932 365.326015 385.353985 364 386.68 
C 362.673985 388.006015 361.928932 389.804731 361.928932 391.68 
C 361.928932 393.555269 362.673985 395.353985 364 396.68 
C 365.326015 398.006015 367.124731 398.751068 369 398.751068 
z
" clip-path="url(#pe90cb8cc9b)" style="fill: #008000; fill-opacity: 0.6; stroke: #ffffff; stroke-opacity: 0.6; stroke-width: 2"/>
    <path d="M 369 400.340254 
C 371.296726 400.340254 373.499694 399.427755 375.123724 397.803724 
C 376.747755 396.179694 377.660254 393.976726 377.660254 391.68 
C 377.660254 389.383274 376.747755 387.180306 375.123724 385.556276 
C 373.499694 383.932245 371.296726 383.019746 369 383.019746 
C 366.703274 383.019746 364.500306 383.932245 362.876276 385.556276 
C 361.252245 387.180306 360.339746 389.383274 360.339746 391.68 
C 360.339746 393.976726 361.252245 396.179694 362.876276 397.803724 
C 364.500306 399.427755 366.703274 400.340254 369 400.340254 
z
" clip-path="url(#pe90cb8cc9b)" style="fill: #ff0000; fill-opacity: 0.6; stroke: #ffffff; stroke-opacity: 0.6; stroke-width: 2"/>
    <path d="M 369 295.88 
C 370.326015 295.88 371.597899 295.353168 372.535534 294.415534 
C 373.473168 293.477899 374 292.206015 374 290.88 
C 374 289.553985 373.473168 288.282101 372.535534 287.344466 
C 371.597899 286.406832 370.326015 285.88 369 285.88 
C 367.673985 285.88 366.402101 286.406832 365.464466 287.344466 
C 364.526832 288.282101 364 289.553985 364 290.88 
C 364 292.206015 364.526832 293.477899 365.464466 294.415534 
C 366.402101 295.353168 367.673985 295.88 369 295.88 
z
" clip-path="url(#pe90cb8cc9b)" style="fill: #ff0000; fill-opacity: 0.6; stroke: #ffffff; stroke-opacity: 0.6; stroke-width: 2"/>
    <path d="M 369 94.28 
C 370.326015 94.28 371.597899 93.753168 372.535534 92.815534 
C 373.473168 91.877899 374 90.606016 374 89.28 
C 374 87.953985 373.473168 86.682101 372.535534 85.744466 
C 371.597899 84.806832 370.326015 84.28 369 84.28 
C 367.673985 84.28 366.402101 84.806832 365.464466 85.744466 
C 364.526832 86.682101 364 87.953985 364 89.28 
C 364 90.606016 364.526832 91.877899 365.464466 92.815534 
C 366.402101 93.753168 367.673985 94.28 369 94.28 
z
" clip-path="url(#pe90cb8cc9b)" style="fill: #0000ff; fill-opacity: 0.6; stroke: #ffffff; stroke-opacity: 0.6; stroke-width: 2"/>
    <path d="M 369 97.940254 
C 371.296726 97.940254 373.499694 97.027755 375.123724 95.403724 
C 376.747755 93.779694 377.660254 91.576726 377.660254 89.28 
C 377.660254 86.983274 376.747755 84.780306 375.123724 83.156276 
C 373.499694 81.532245 371.296726 80.619746 369 80.619746 
C 366.703274 80.619746 364.500306 81.532245 362.876276 83.156276 
C 361.252245 84.780306 360.339746 86.983274 360.339746 89.28 
C 360.339746 91.576726 361.252245 93.779694 362.876276 95.403724 
C 364.500306 97.027755 366.703274 97.940254 369 97.940254 
z
" clip-path="url(#pe90cb8cc9b)" style="fill: #008000; fill-opacity: 0.6; stroke: #ffffff; stroke-opacity: 0.6; stroke-width: 2"/>
    <path d="M 369 97.940254 
C 371.296726 97.940254 373.499694 97.027755 375.123724 95.403724 
C 376.747755 93.779694 377.660254 91.576726 377.660254 89.28 
C 377.660254 86.983274 376.747755 84.780306 375.123724 83.156276 
C 373.499694 81.532245 371.296726 80.619746 369 80.619746 
C 366.703274 80.619746 364.500306 81.532245 362.876276 83.156276 
C 361.252245 84.780306 360.339746 86.983274 360.339746 89.28 
C 360.339746 91.576726 361.252245 93.779694 362.876276 95.403724 
C 364.500306 97.027755 366.703274 97.940254 369 97.940254 
z
" clip-path="url(#pe90cb8cc9b)" style="fill: #ff0000; fill-opacity: 0.6; stroke: #ffffff; stroke-opacity: 0.6; stroke-width: 2"/>
    <path d="M 369 96.351068 
C 370.875269 96.351068 372.673985 95.606016 374 94.28 
C 375.326015 92.953985 376.071068 91.155269 376.071068 89.28 
C 376.071068 87.404731 375.326015 85.606016 374 84.28 
C 372.673985 82.953985 370.875269 82.208932 369 82.208932 
C 367.124731 82.208932 365.326015 82.953985 364 84.28 
C 362.673985 85.606016 361.928932 87.404731 361.928932 89.28 
C 361.928932 91.155269 362.673985 92.953985 364 94.28 
C 365.326015 95.606016 367.124731 96.351068 369 96.351068 
z
" clip-path="url(#pe90cb8cc9b)" style="fill: #800080; fill-opacity: 0.6; stroke: #ffffff; stroke-opacity: 0.6; stroke-width: 2"/>
    <path d="M 453.545455 499.551068 
C 455.420724 499.551068 457.219439 498.806016 458.545455 497.48 
C 459.87147 496.153985 460.616522 494.355269 460.616522 492.48 
C 460.616522 490.604731 459.87147 488.806016 458.545455 487.48 
C 457.219439 486.153985 455.420724 485.408932 453.545455 485.408932 
C 451.670185 485.408932 449.87147 486.153985 448.545455 487.48 
C 447.219439 488.806016 446.474387 490.604731 446.474387 492.48 
C 446.474387 494.355269 447.219439 496.153985 448.545455 497.48 
C 449.87147 498.806016 451.670185 499.551068 453.545455 499.551068 
z
" clip-path="url(#pe90cb8cc9b)" style="fill: #0000ff; fill-opacity: 0.6; stroke: #ffffff; stroke-opacity: 0.6; stroke-width: 2"/>
    <path d="M 453.545455 499.551068 
C 455.420724 499.551068 457.219439 498.806016 458.545455 497.48 
C 459.87147 496.153985 460.616522 494.355269 460.616522 492.48 
C 460.616522 490.604731 459.87147 488.806016 458.545455 487.48 
C 457.219439 486.153985 455.420724 485.408932 453.545455 485.408932 
C 451.670185 485.408932 449.87147 486.153985 448.545455 487.48 
C 447.219439 488.806016 446.474387 490.604731 446.474387 492.48 
C 446.474387 494.355269 447.219439 496.153985 448.545455 497.48 
C 449.87147 498.806016 451.670185 499.551068 453.545455 499.551068 
z
" clip-path="url(#pe90cb8cc9b)" style="fill: #008000; fill-opacity: 0.6; stroke: #ffffff; stroke-opacity: 0.6; stroke-width: 2"/>
    <path d="M 453.545455 497.48 
C 454.87147 497.48 456.143354 496.953168 457.080988 496.015534 
C 458.018623 495.077899 458.545455 493.806016 458.545455 492.48 
C 458.545455 491.153985 458.018623 489.882101 457.080988 488.944466 
C 456.143354 488.006832 454.87147 487.48 453.545455 487.48 
C 452.219439 487.48 450.947555 488.006832 450.009921 488.944466 
C 449.072286 489.882101 448.545455 491.153985 448.545455 492.48 
C 448.545455 493.806016 449.072286 495.077899 450.009921 496.015534 
C 450.947555 496.953168 452.219439 497.48 453.545455 497.48 
z
" clip-path="url(#pe90cb8cc9b)" style="fill: #ff0000; fill-opacity: 0.6; stroke: #ffffff; stroke-opacity: 0.6; stroke-width: 2"/>
    <path d="M 453.545455 398.751068 
C 455.420724 398.751068 457.219439 398.006015 458.545455 396.68 
C 459.87147 395.353985 460.616522 393.555269 460.616522 391.68 
C 460.616522 389.804731 459.87147 388.006015 458.545455 386.68 
C 457.219439 385.353985 455.420724 384.608932 453.545455 384.608932 
C 451.670185 384.608932 449.87147 385.353985 448.545455 386.68 
C 447.219439 388.006015 446.474387 389.804731 446.474387 391.68 
C 446.474387 393.555269 447.219439 395.353985 448.545455 396.68 
C 449.87147 398.006015 451.670185 398.751068 453.545455 398.751068 
z
" clip-path="url(#pe90cb8cc9b)" style="fill: #0000ff; fill-opacity: 0.6; stroke: #ffffff; stroke-opacity: 0.6; stroke-width: 2"/>
    <path d="M 453.545455 398.751068 
C 455.420724 398.751068 457.219439 398.006015 458.545455 396.68 
C 459.87147 395.353985 460.616522 393.555269 460.616522 391.68 
C 460.616522 389.804731 459.87147 388.006015 458.545455 386.68 
C 457.219439 385.353985 455.420724 384.608932 453.545455 384.608932 
C 451.670185 384.608932 449.87147 385.353985 448.545455 386.68 
C 447.219439 388.006015 446.474387 389.804731 446.474387 391.68 
C 446.474387 393.555269 447.219439 395.353985 448.545455 396.68 
C 449.87147 398.006015 451.670185 398.751068 453.545455 398.751068 
z
" clip-path="url(#pe90cb8cc9b)" style="fill: #008000; fill-opacity: 0.6; stroke: #ffffff; stroke-opacity: 0.6; stroke-width: 2"/>
    <path d="M 453.545455 396.68 
C 454.87147 396.68 456.143354 396.153168 457.080988 395.215534 
C 458.018623 394.277899 458.545455 393.006015 458.545455 391.68 
C 458.545455 390.353985 458.018623 389.082101 457.080988 388.144466 
C 456.143354 387.206832 454.87147 386.68 453.545455 386.68 
C 452.219439 386.68 450.947555 387.206832 450.009921 388.144466 
C 449.072286 389.082101 448.545455 390.353985 448.545455 391.68 
C 448.545455 393.006015 449.072286 394.277899 450.009921 395.215534 
C 450.947555 396.153168 452.219439 396.68 453.545455 396.68 
z
" clip-path="url(#pe90cb8cc9b)" style="fill: #ff0000; fill-opacity: 0.6; stroke: #ffffff; stroke-opacity: 0.6; stroke-width: 2"/>
    <path d="M 453.545455 396.68 
C 454.87147 396.68 456.143354 396.153168 457.080988 395.215534 
C 458.018623 394.277899 458.545455 393.006015 458.545455 391.68 
C 458.545455 390.353985 458.018623 389.082101 457.080988 388.144466 
C 456.143354 387.206832 454.87147 386.68 453.545455 386.68 
C 452.219439 386.68 450.947555 387.206832 450.009921 388.144466 
C 449.072286 389.082101 448.545455 390.353985 448.545455 391.68 
C 448.545455 393.006015 449.072286 394.277899 450.009921 395.215534 
C 450.947555 396.153168 452.219439 396.68 453.545455 396.68 
z
" clip-path="url(#pe90cb8cc9b)" style="fill: #800080; fill-opacity: 0.6; stroke: #ffffff; stroke-opacity: 0.6; stroke-width: 2"/>
    <path d="M 453.545455 295.88 
C 454.87147 295.88 456.143354 295.353168 457.080988 294.415534 
C 458.018623 293.477899 458.545455 292.206015 458.545455 290.88 
C 458.545455 289.553985 458.018623 288.282101 457.080988 287.344466 
C 456.143354 286.406832 454.87147 285.88 453.545455 285.88 
C 452.219439 285.88 450.947555 286.406832 450.009921 287.344466 
C 449.072286 288.282101 448.545455 289.553985 448.545455 290.88 
C 448.545455 292.206015 449.072286 293.477899 450.009921 294.415534 
C 450.947555 295.353168 452.219439 295.88 453.545455 295.88 
z
" clip-path="url(#pe90cb8cc9b)" style="fill: #0000ff; fill-opacity: 0.6; stroke: #ffffff; stroke-opacity: 0.6; stroke-width: 2"/>
    <path d="M 453.545455 297.951068 
C 455.420724 297.951068 457.219439 297.206015 458.545455 295.88 
C 459.87147 294.553985 460.616522 292.755269 460.616522 290.88 
C 460.616522 289.004731 459.87147 287.206015 458.545455 285.88 
C 457.219439 284.553985 455.420724 283.808932 453.545455 283.808932 
C 451.670185 283.808932 449.87147 284.553985 448.545455 285.88 
C 447.219439 287.206015 446.474387 289.004731 446.474387 290.88 
C 446.474387 292.755269 447.219439 294.553985 448.545455 295.88 
C 449.87147 297.206015 451.670185 297.951068 453.545455 297.951068 
z
" clip-path="url(#pe90cb8cc9b)" style="fill: #008000; fill-opacity: 0.6; stroke: #ffffff; stroke-opacity: 0.6; stroke-width: 2"/>
    <path d="M 453.545455 295.88 
C 454.87147 295.88 456.143354 295.353168 457.080988 294.415534 
C 458.018623 293.477899 458.545455 292.206015 458.545455 290.88 
C 458.545455 289.553985 458.018623 288.282101 457.080988 287.344466 
C 456.143354 286.406832 454.87147 285.88 453.545455 285.88 
C 452.219439 285.88 450.947555 286.406832 450.009921 287.344466 
C 449.072286 288.282101 448.545455 289.553985 448.545455 290.88 
C 448.545455 292.206015 449.072286 293.477899 450.009921 294.415534 
C 450.947555 295.353168 452.219439 295.88 453.545455 295.88 
z
" clip-path="url(#pe90cb8cc9b)" style="fill: #ff0000; fill-opacity: 0.6; stroke: #ffffff; stroke-opacity: 0.6; stroke-width: 2"/>
    <path d="M 453.545455 297.951068 
C 455.420724 297.951068 457.219439 297.206015 458.545455 295.88 
C 459.87147 294.553985 460.616522 292.755269 460.616522 290.88 
C 460.616522 289.004731 459.87147 287.206015 458.545455 285.88 
C 457.219439 284.553985 455.420724 283.808932 453.545455 283.808932 
C 451.670185 283.808932 449.87147 284.553985 448.545455 285.88 
C 447.219439 287.206015 446.474387 289.004731 446.474387 290.88 
C 446.474387 292.755269 447.219439 294.553985 448.545455 295.88 
C 449.87147 297.206015 451.670185 297.951068 453.545455 297.951068 
z
" clip-path="url(#pe90cb8cc9b)" style="fill: #800080; fill-opacity: 0.6; stroke: #ffffff; stroke-opacity: 0.6; stroke-width: 2"/>
    <path d="M 453.545455 105.863124 
C 457.94335 105.863124 462.161712 104.115821 465.271494 101.006039 
C 468.381276 97.896257 470.128578 93.677896 470.128578 89.28 
C 470.128578 84.882104 468.381276 80.663743 465.271494 77.553961 
C 462.161712 74.444179 457.94335 72.696876 453.545455 72.696876 
C 449.147559 72.696876 444.929197 74.444179 441.819415 77.553961 
C 438.709633 80.663743 436.962331 84.882104 436.962331 89.28 
C 436.962331 93.677896 438.709633 97.896257 441.819415 101.006039 
C 444.929197 104.115821 449.147559 105.863124 453.545455 105.863124 
z
" clip-path="url(#pe90cb8cc9b)" style="fill: #0000ff; fill-opacity: 0.6; stroke: #ffffff; stroke-opacity: 0.6; stroke-width: 2"/>
    <path d="M 453.545455 105.863124 
C 457.94335 105.863124 462.161712 104.115821 465.271494 101.006039 
C 468.381276 97.896257 470.128578 93.677896 470.128578 89.28 
C 470.128578 84.882104 468.381276 80.663743 465.271494 77.553961 
C 462.161712 74.444179 457.94335 72.696876 453.545455 72.696876 
C 449.147559 72.696876 444.929197 74.444179 441.819415 77.553961 
C 438.709633 80.663743 436.962331 84.882104 436.962331 89.28 
C 436.962331 93.677896 438.709633 97.896257 441.819415 101.006039 
C 444.929197 104.115821 449.147559 105.863124 453.545455 105.863124 
z
" clip-path="url(#pe90cb8cc9b)" style="fill: #008000; fill-opacity: 0.6; stroke: #ffffff; stroke-opacity: 0.6; stroke-width: 2"/>
    <path d="M 453.545455 97.940254 
C 455.842181 97.940254 458.045148 97.027755 459.669179 95.403724 
C 461.29321 93.779694 462.205709 91.576726 462.205709 89.28 
C 462.205709 86.983274 461.29321 84.780306 459.669179 83.156276 
C 458.045148 81.532245 455.842181 80.619746 453.545455 80.619746 
C 451.248728 80.619746 449.045761 81.532245 447.42173 83.156276 
C 445.7977 84.780306 444.885201 86.983274 444.885201 89.28 
C 444.885201 91.576726 445.7977 93.779694 447.42173 95.403724 
C 449.045761 97.027755 451.248728 97.940254 453.545455 97.940254 
z
" clip-path="url(#pe90cb8cc9b)" style="fill: #ff0000; fill-opacity: 0.6; stroke: #ffffff; stroke-opacity: 0.6; stroke-width: 2"/>
    <path d="M 453.545455 97.940254 
C 455.842181 97.940254 458.045148 97.027755 459.669179 95.403724 
C 461.29321 93.779694 462.205709 91.576726 462.205709 89.28 
C 462.205709 86.983274 461.29321 84.780306 459.669179 83.156276 
C 458.045148 81.532245 455.842181 80.619746 453.545455 80.619746 
C 451.248728 80.619746 449.045761 81.532245 447.42173 83.156276 
C 445.7977 84.780306 444.885201 86.983274 444.885201 89.28 
C 444.885201 91.576726 445.7977 93.779694 447.42173 95.403724 
C 449.045761 97.027755 451.248728 97.940254 453.545455 97.940254 
z
" clip-path="url(#pe90cb8cc9b)" style="fill: #800080; fill-opacity: 0.6; stroke: #ffffff; stroke-opacity: 0.6; stroke-width: 2"/>
    <path d="M 538.090909 396.68 
C 539.416925 396.68 540.688808 396.153168 541.626443 395.215534 
C 542.564078 394.277899 543.090909 393.006015 543.090909 391.68 
C 543.090909 390.353985 542.564078 389.082101 541.626443 388.144466 
C 540.688808 387.206832 539.416925 386.68 538.090909 386.68 
C 536.764894 386.68 535.49301 387.206832 534.555375 388.144466 
C 533.617741 389.082101 533.090909 390.353985 533.090909 391.68 
C 533.090909 393.006015 533.617741 394.277899 534.555375 395.215534 
C 535.49301 396.153168 536.764894 396.68 538.090909 396.68 
z
" clip-path="url(#pe90cb8cc9b)" style="fill: #0000ff; fill-opacity: 0.6; stroke: #ffffff; stroke-opacity: 0.6; stroke-width: 2"/>
    <path d="M 538.090909 396.68 
C 539.416925 396.68 540.688808 396.153168 541.626443 395.215534 
C 542.564078 394.277899 543.090909 393.006015 543.090909 391.68 
C 543.090909 390.353985 542.564078 389.082101 541.626443 388.144466 
C 540.688808 387.206832 539.416925 386.68 538.090909 386.68 
C 536.764894 386.68 535.49301 387.206832 534.555375 388.144466 
C 533.617741 389.082101 533.090909 390.353985 533.090909 391.68 
C 533.090909 393.006015 533.617741 394.277899 534.555375 395.215534 
C 535.49301 396.153168 536.764894 396.68 538.090909 396.68 
z
" clip-path="url(#pe90cb8cc9b)" style="fill: #008000; fill-opacity: 0.6; stroke: #ffffff; stroke-opacity: 0.6; stroke-width: 2"/>
    <path d="M 538.090909 396.68 
C 539.416925 396.68 540.688808 396.153168 541.626443 395.215534 
C 542.564078 394.277899 543.090909 393.006015 543.090909 391.68 
C 543.090909 390.353985 542.564078 389.082101 541.626443 388.144466 
C 540.688808 387.206832 539.416925 386.68 538.090909 386.68 
C 536.764894 386.68 535.49301 387.206832 534.555375 388.144466 
C 533.617741 389.082101 533.090909 390.353985 533.090909 391.68 
C 533.090909 393.006015 533.617741 394.277899 534.555375 395.215534 
C 535.49301 396.153168 536.764894 396.68 538.090909 396.68 
z
" clip-path="url(#pe90cb8cc9b)" style="fill: #800080; fill-opacity: 0.6; stroke: #ffffff; stroke-opacity: 0.6; stroke-width: 2"/>
    <path d="M 538.090909 195.08 
C 539.416925 195.08 540.688808 194.553168 541.626443 193.615534 
C 542.564078 192.677899 543.090909 191.406016 543.090909 190.08 
C 543.090909 188.753985 542.564078 187.482101 541.626443 186.544466 
C 540.688808 185.606832 539.416925 185.08 538.090909 185.08 
C 536.764894 185.08 535.49301 185.606832 534.555375 186.544466 
C 533.617741 187.482101 533.090909 188.753985 533.090909 190.08 
C 533.090909 191.406016 533.617741 192.677899 534.555375 193.615534 
C 535.49301 194.553168 536.764894 195.08 538.090909 195.08 
z
" clip-path="url(#pe90cb8cc9b)" style="fill: #ff0000; fill-opacity: 0.6; stroke: #ffffff; stroke-opacity: 0.6; stroke-width: 2"/>
    <path d="M 538.090909 195.08 
C 539.416925 195.08 540.688808 194.553168 541.626443 193.615534 
C 542.564078 192.677899 543.090909 191.406016 543.090909 190.08 
C 543.090909 188.753985 542.564078 187.482101 541.626443 186.544466 
C 540.688808 185.606832 539.416925 185.08 538.090909 185.08 
C 536.764894 185.08 535.49301 185.606832 534.555375 186.544466 
C 533.617741 187.482101 533.090909 188.753985 533.090909 190.08 
C 533.090909 191.406016 533.617741 192.677899 534.555375 193.615534 
C 535.49301 194.553168 536.764894 195.08 538.090909 195.08 
z
" clip-path="url(#pe90cb8cc9b)" style="fill: #800080; fill-opacity: 0.6; stroke: #ffffff; stroke-opacity: 0.6; stroke-width: 2"/>
    <path d="M 622.636364 295.88 
C 623.962379 295.88 625.234263 295.353168 626.171898 294.415534 
C 627.109532 293.477899 627.636364 292.206015 627.636364 290.88 
C 627.636364 289.553985 627.109532 288.282101 626.171898 287.344466 
C 625.234263 286.406832 623.962379 285.88 622.636364 285.88 
C 621.310348 285.88 620.038464 286.406832 619.10083 287.344466 
C 618.163195 288.282101 617.636364 289.553985 617.636364 290.88 
C 617.636364 292.206015 618.163195 293.477899 619.10083 294.415534 
C 620.038464 295.353168 621.310348 295.88 622.636364 295.88 
z
" clip-path="url(#pe90cb8cc9b)" style="fill: #0000ff; fill-opacity: 0.6; stroke: #ffffff; stroke-opacity: 0.6; stroke-width: 2"/>
    <path d="M 622.636364 295.88 
C 623.962379 295.88 625.234263 295.353168 626.171898 294.415534 
C 627.109532 293.477899 627.636364 292.206015 627.636364 290.88 
C 627.636364 289.553985 627.109532 288.282101 626.171898 287.344466 
C 625.234263 286.406832 623.962379 285.88 622.636364 285.88 
C 621.310348 285.88 620.038464 286.406832 619.10083 287.344466 
C 618.163195 288.282101 617.636364 289.553985 617.636364 290.88 
C 617.636364 292.206015 618.163195 293.477899 619.10083 294.415534 
C 620.038464 295.353168 621.310348 295.88 622.636364 295.88 
z
" clip-path="url(#pe90cb8cc9b)" style="fill: #ff0000; fill-opacity: 0.6; stroke: #ffffff; stroke-opacity: 0.6; stroke-width: 2"/>
   </g>
   <g id="matplotlib.axis_1">
    <g id="xtick_1">
     <g id="line2d_1">
      <path d="M 115.363636 512.64 
L 115.363636 69.12 
" clip-path="url(#pe90cb8cc9b)" style="fill: none; stroke: #b0b0b0; stroke-width: 0.8; stroke-linecap: square"/>
     </g>
     <g id="line2d_2">
      <defs>
       <path id="m06d22fddb1" d="M 0 0 
L 0 3.5 
" style="stroke: #000000; stroke-width: 0.8"/>
      </defs>
      <g>
       <use xlink:href="#m06d22fddb1" x="115.363636" y="512.64" style="stroke: #000000; stroke-width: 0.8"/>
      </g>
     </g>
     <g id="text_1">
      <!-- Benchmarking -->
      <g transform="translate(79.152699 527.238438) scale(0.1 -0.1)">
       <defs>
        <path id="DejaVuSans-42" d="M 1259 2228 
L 1259 519 
L 2272 519 
Q 2781 519 3026 730 
Q 3272 941 3272 1375 
Q 3272 1813 3026 2020 
Q 2781 2228 2272 2228 
L 1259 2228 
z
M 1259 4147 
L 1259 2741 
L 2194 2741 
Q 2656 2741 2882 2914 
Q 3109 3088 3109 3444 
Q 3109 3797 2882 3972 
Q 2656 4147 2194 4147 
L 1259 4147 
z
M 628 4666 
L 2241 4666 
Q 2963 4666 3353 4366 
Q 3744 4066 3744 3513 
Q 3744 3084 3544 2831 
Q 3344 2578 2956 2516 
Q 3422 2416 3680 2098 
Q 3938 1781 3938 1306 
Q 3938 681 3513 340 
Q 3088 0 2303 0 
L 628 0 
L 628 4666 
z
" transform="scale(0.015625)"/>
        <path id="DejaVuSans-65" d="M 3597 1894 
L 3597 1613 
L 953 1613 
Q 991 1019 1311 708 
Q 1631 397 2203 397 
Q 2534 397 2845 478 
Q 3156 559 3463 722 
L 3463 178 
Q 3153 47 2828 -22 
Q 2503 -91 2169 -91 
Q 1331 -91 842 396 
Q 353 884 353 1716 
Q 353 2575 817 3079 
Q 1281 3584 2069 3584 
Q 2775 3584 3186 3129 
Q 3597 2675 3597 1894 
z
M 3022 2063 
Q 3016 2534 2758 2815 
Q 2500 3097 2075 3097 
Q 1594 3097 1305 2825 
Q 1016 2553 972 2059 
L 3022 2063 
z
" transform="scale(0.015625)"/>
        <path id="DejaVuSans-6e" d="M 3513 2113 
L 3513 0 
L 2938 0 
L 2938 2094 
Q 2938 2591 2744 2837 
Q 2550 3084 2163 3084 
Q 1697 3084 1428 2787 
Q 1159 2491 1159 1978 
L 1159 0 
L 581 0 
L 581 3500 
L 1159 3500 
L 1159 2956 
Q 1366 3272 1645 3428 
Q 1925 3584 2291 3584 
Q 2894 3584 3203 3211 
Q 3513 2838 3513 2113 
z
" transform="scale(0.015625)"/>
        <path id="DejaVuSans-63" d="M 3122 3366 
L 3122 2828 
Q 2878 2963 2633 3030 
Q 2388 3097 2138 3097 
Q 1578 3097 1268 2742 
Q 959 2388 959 1747 
Q 959 1106 1268 751 
Q 1578 397 2138 397 
Q 2388 397 2633 464 
Q 2878 531 3122 666 
L 3122 134 
Q 2881 22 2623 -34 
Q 2366 -91 2075 -91 
Q 1284 -91 818 406 
Q 353 903 353 1747 
Q 353 2603 823 3093 
Q 1294 3584 2113 3584 
Q 2378 3584 2631 3529 
Q 2884 3475 3122 3366 
z
" transform="scale(0.015625)"/>
        <path id="DejaVuSans-68" d="M 3513 2113 
L 3513 0 
L 2938 0 
L 2938 2094 
Q 2938 2591 2744 2837 
Q 2550 3084 2163 3084 
Q 1697 3084 1428 2787 
Q 1159 2491 1159 1978 
L 1159 0 
L 581 0 
L 581 4863 
L 1159 4863 
L 1159 2956 
Q 1366 3272 1645 3428 
Q 1925 3584 2291 3584 
Q 2894 3584 3203 3211 
Q 3513 2838 3513 2113 
z
" transform="scale(0.015625)"/>
        <path id="DejaVuSans-6d" d="M 3328 2828 
Q 3544 3216 3844 3400 
Q 4144 3584 4550 3584 
Q 5097 3584 5394 3201 
Q 5691 2819 5691 2113 
L 5691 0 
L 5113 0 
L 5113 2094 
Q 5113 2597 4934 2840 
Q 4756 3084 4391 3084 
Q 3944 3084 3684 2787 
Q 3425 2491 3425 1978 
L 3425 0 
L 2847 0 
L 2847 2094 
Q 2847 2600 2669 2842 
Q 2491 3084 2119 3084 
Q 1678 3084 1418 2786 
Q 1159 2488 1159 1978 
L 1159 0 
L 581 0 
L 581 3500 
L 1159 3500 
L 1159 2956 
Q 1356 3278 1631 3431 
Q 1906 3584 2284 3584 
Q 2666 3584 2933 3390 
Q 3200 3197 3328 2828 
z
" transform="scale(0.015625)"/>
        <path id="DejaVuSans-61" d="M 2194 1759 
Q 1497 1759 1228 1600 
Q 959 1441 959 1056 
Q 959 750 1161 570 
Q 1363 391 1709 391 
Q 2188 391 2477 730 
Q 2766 1069 2766 1631 
L 2766 1759 
L 2194 1759 
z
M 3341 1997 
L 3341 0 
L 2766 0 
L 2766 531 
Q 2569 213 2275 61 
Q 1981 -91 1556 -91 
Q 1019 -91 701 211 
Q 384 513 384 1019 
Q 384 1609 779 1909 
Q 1175 2209 1959 2209 
L 2766 2209 
L 2766 2266 
Q 2766 2663 2505 2880 
Q 2244 3097 1772 3097 
Q 1472 3097 1187 3025 
Q 903 2953 641 2809 
L 641 3341 
Q 956 3463 1253 3523 
Q 1550 3584 1831 3584 
Q 2591 3584 2966 3190 
Q 3341 2797 3341 1997 
z
" transform="scale(0.015625)"/>
        <path id="DejaVuSans-72" d="M 2631 2963 
Q 2534 3019 2420 3045 
Q 2306 3072 2169 3072 
Q 1681 3072 1420 2755 
Q 1159 2438 1159 1844 
L 1159 0 
L 581 0 
L 581 3500 
L 1159 3500 
L 1159 2956 
Q 1341 3275 1631 3429 
Q 1922 3584 2338 3584 
Q 2397 3584 2469 3576 
Q 2541 3569 2628 3553 
L 2631 2963 
z
" transform="scale(0.015625)"/>
        <path id="DejaVuSans-6b" d="M 581 4863 
L 1159 4863 
L 1159 1991 
L 2875 3500 
L 3609 3500 
L 1753 1863 
L 3688 0 
L 2938 0 
L 1159 1709 
L 1159 0 
L 581 0 
L 581 4863 
z
" transform="scale(0.015625)"/>
        <path id="DejaVuSans-69" d="M 603 3500 
L 1178 3500 
L 1178 0 
L 603 0 
L 603 3500 
z
M 603 4863 
L 1178 4863 
L 1178 4134 
L 603 4134 
L 603 4863 
z
" transform="scale(0.015625)"/>
        <path id="DejaVuSans-67" d="M 2906 1791 
Q 2906 2416 2648 2759 
Q 2391 3103 1925 3103 
Q 1463 3103 1205 2759 
Q 947 2416 947 1791 
Q 947 1169 1205 825 
Q 1463 481 1925 481 
Q 2391 481 2648 825 
Q 2906 1169 2906 1791 
z
M 3481 434 
Q 3481 -459 3084 -895 
Q 2688 -1331 1869 -1331 
Q 1566 -1331 1297 -1286 
Q 1028 -1241 775 -1147 
L 775 -588 
Q 1028 -725 1275 -790 
Q 1522 -856 1778 -856 
Q 2344 -856 2625 -561 
Q 2906 -266 2906 331 
L 2906 616 
Q 2728 306 2450 153 
Q 2172 0 1784 0 
Q 1141 0 747 490 
Q 353 981 353 1791 
Q 353 2603 747 3093 
Q 1141 3584 1784 3584 
Q 2172 3584 2450 3431 
Q 2728 3278 2906 2969 
L 2906 3500 
L 3481 3500 
L 3481 434 
z
" transform="scale(0.015625)"/>
       </defs>
       <use xlink:href="#DejaVuSans-42"/>
       <use xlink:href="#DejaVuSans-65" x="68.603516"/>
       <use xlink:href="#DejaVuSans-6e" x="130.126953"/>
       <use xlink:href="#DejaVuSans-63" x="193.505859"/>
       <use xlink:href="#DejaVuSans-68" x="248.486328"/>
       <use xlink:href="#DejaVuSans-6d" x="311.865234"/>
       <use xlink:href="#DejaVuSans-61" x="409.277344"/>
       <use xlink:href="#DejaVuSans-72" x="470.556641"/>
       <use xlink:href="#DejaVuSans-6b" x="511.669922"/>
       <use xlink:href="#DejaVuSans-69" x="569.580078"/>
       <use xlink:href="#DejaVuSans-6e" x="597.363281"/>
       <use xlink:href="#DejaVuSans-67" x="660.742188"/>
      </g>
     </g>
    </g>
    <g id="xtick_2">
     <g id="line2d_3">
      <path d="M 199.909091 512.64 
L 199.909091 69.12 
" clip-path="url(#pe90cb8cc9b)" style="fill: none; stroke: #b0b0b0; stroke-width: 0.8; stroke-linecap: square"/>
     </g>
     <g id="line2d_4">
      <g>
       <use xlink:href="#m06d22fddb1" x="199.909091" y="512.64" style="stroke: #000000; stroke-width: 0.8"/>
      </g>
     </g>
     <g id="text_2">
      <!-- Human Experimentation -->
      <g transform="translate(138.756747 527.238438) scale(0.1 -0.1)">
       <defs>
        <path id="DejaVuSans-48" d="M 628 4666 
L 1259 4666 
L 1259 2753 
L 3553 2753 
L 3553 4666 
L 4184 4666 
L 4184 0 
L 3553 0 
L 3553 2222 
L 1259 2222 
L 1259 0 
L 628 0 
L 628 4666 
z
" transform="scale(0.015625)"/>
        <path id="DejaVuSans-75" d="M 544 1381 
L 544 3500 
L 1119 3500 
L 1119 1403 
Q 1119 906 1312 657 
Q 1506 409 1894 409 
Q 2359 409 2629 706 
Q 2900 1003 2900 1516 
L 2900 3500 
L 3475 3500 
L 3475 0 
L 2900 0 
L 2900 538 
Q 2691 219 2414 64 
Q 2138 -91 1772 -91 
Q 1169 -91 856 284 
Q 544 659 544 1381 
z
M 1991 3584 
L 1991 3584 
z
" transform="scale(0.015625)"/>
        <path id="DejaVuSans-20" transform="scale(0.015625)"/>
        <path id="DejaVuSans-45" d="M 628 4666 
L 3578 4666 
L 3578 4134 
L 1259 4134 
L 1259 2753 
L 3481 2753 
L 3481 2222 
L 1259 2222 
L 1259 531 
L 3634 531 
L 3634 0 
L 628 0 
L 628 4666 
z
" transform="scale(0.015625)"/>
        <path id="DejaVuSans-78" d="M 3513 3500 
L 2247 1797 
L 3578 0 
L 2900 0 
L 1881 1375 
L 863 0 
L 184 0 
L 1544 1831 
L 300 3500 
L 978 3500 
L 1906 2253 
L 2834 3500 
L 3513 3500 
z
" transform="scale(0.015625)"/>
        <path id="DejaVuSans-70" d="M 1159 525 
L 1159 -1331 
L 581 -1331 
L 581 3500 
L 1159 3500 
L 1159 2969 
Q 1341 3281 1617 3432 
Q 1894 3584 2278 3584 
Q 2916 3584 3314 3078 
Q 3713 2572 3713 1747 
Q 3713 922 3314 415 
Q 2916 -91 2278 -91 
Q 1894 -91 1617 61 
Q 1341 213 1159 525 
z
M 3116 1747 
Q 3116 2381 2855 2742 
Q 2594 3103 2138 3103 
Q 1681 3103 1420 2742 
Q 1159 2381 1159 1747 
Q 1159 1113 1420 752 
Q 1681 391 2138 391 
Q 2594 391 2855 752 
Q 3116 1113 3116 1747 
z
" transform="scale(0.015625)"/>
        <path id="DejaVuSans-74" d="M 1172 4494 
L 1172 3500 
L 2356 3500 
L 2356 3053 
L 1172 3053 
L 1172 1153 
Q 1172 725 1289 603 
Q 1406 481 1766 481 
L 2356 481 
L 2356 0 
L 1766 0 
Q 1100 0 847 248 
Q 594 497 594 1153 
L 594 3053 
L 172 3053 
L 172 3500 
L 594 3500 
L 594 4494 
L 1172 4494 
z
" transform="scale(0.015625)"/>
        <path id="DejaVuSans-6f" d="M 1959 3097 
Q 1497 3097 1228 2736 
Q 959 2375 959 1747 
Q 959 1119 1226 758 
Q 1494 397 1959 397 
Q 2419 397 2687 759 
Q 2956 1122 2956 1747 
Q 2956 2369 2687 2733 
Q 2419 3097 1959 3097 
z
M 1959 3584 
Q 2709 3584 3137 3096 
Q 3566 2609 3566 1747 
Q 3566 888 3137 398 
Q 2709 -91 1959 -91 
Q 1206 -91 779 398 
Q 353 888 353 1747 
Q 353 2609 779 3096 
Q 1206 3584 1959 3584 
z
" transform="scale(0.015625)"/>
       </defs>
       <use xlink:href="#DejaVuSans-48"/>
       <use xlink:href="#DejaVuSans-75" x="75.195312"/>
       <use xlink:href="#DejaVuSans-6d" x="138.574219"/>
       <use xlink:href="#DejaVuSans-61" x="235.986328"/>
       <use xlink:href="#DejaVuSans-6e" x="297.265625"/>
       <use xlink:href="#DejaVuSans-20" x="360.644531"/>
       <use xlink:href="#DejaVuSans-45" x="392.431641"/>
       <use xlink:href="#DejaVuSans-78" x="455.615234"/>
       <use xlink:href="#DejaVuSans-70" x="514.794922"/>
       <use xlink:href="#DejaVuSans-65" x="578.271484"/>
       <use xlink:href="#DejaVuSans-72" x="639.794922"/>
       <use xlink:href="#DejaVuSans-69" x="680.908203"/>
       <use xlink:href="#DejaVuSans-6d" x="708.691406"/>
       <use xlink:href="#DejaVuSans-65" x="806.103516"/>
       <use xlink:href="#DejaVuSans-6e" x="867.626953"/>
       <use xlink:href="#DejaVuSans-74" x="931.005859"/>
       <use xlink:href="#DejaVuSans-61" x="970.214844"/>
       <use xlink:href="#DejaVuSans-74" x="1031.494141"/>
       <use xlink:href="#DejaVuSans-69" x="1070.703125"/>
       <use xlink:href="#DejaVuSans-6f" x="1098.486328"/>
       <use xlink:href="#DejaVuSans-6e" x="1159.667969"/>
      </g>
     </g>
    </g>
    <g id="xtick_3">
     <g id="line2d_5">
      <path d="M 284.454545 512.64 
L 284.454545 69.12 
" clip-path="url(#pe90cb8cc9b)" style="fill: none; stroke: #b0b0b0; stroke-width: 0.8; stroke-linecap: square"/>
     </g>
     <g id="line2d_6">
      <g>
       <use xlink:href="#m06d22fddb1" x="284.454545" y="512.64" style="stroke: #000000; stroke-width: 0.8"/>
      </g>
     </g>
     <g id="text_3">
      <!-- Interview -->
      <g transform="translate(261.204545 527.238438) scale(0.1 -0.1)">
       <defs>
        <path id="DejaVuSans-49" d="M 628 4666 
L 1259 4666 
L 1259 0 
L 628 0 
L 628 4666 
z
" transform="scale(0.015625)"/>
        <path id="DejaVuSans-76" d="M 191 3500 
L 800 3500 
L 1894 563 
L 2988 3500 
L 3597 3500 
L 2284 0 
L 1503 0 
L 191 3500 
z
" transform="scale(0.015625)"/>
        <path id="DejaVuSans-77" d="M 269 3500 
L 844 3500 
L 1563 769 
L 2278 3500 
L 2956 3500 
L 3675 769 
L 4391 3500 
L 4966 3500 
L 4050 0 
L 3372 0 
L 2619 2869 
L 1863 0 
L 1184 0 
L 269 3500 
z
" transform="scale(0.015625)"/>
       </defs>
       <use xlink:href="#DejaVuSans-49"/>
       <use xlink:href="#DejaVuSans-6e" x="29.492188"/>
       <use xlink:href="#DejaVuSans-74" x="92.871094"/>
       <use xlink:href="#DejaVuSans-65" x="132.080078"/>
       <use xlink:href="#DejaVuSans-72" x="193.603516"/>
       <use xlink:href="#DejaVuSans-76" x="234.716797"/>
       <use xlink:href="#DejaVuSans-69" x="293.896484"/>
       <use xlink:href="#DejaVuSans-65" x="321.679688"/>
       <use xlink:href="#DejaVuSans-77" x="383.203125"/>
      </g>
     </g>
    </g>
    <g id="xtick_4">
     <g id="line2d_7">
      <path d="M 369 512.64 
L 369 69.12 
" clip-path="url(#pe90cb8cc9b)" style="fill: none; stroke: #b0b0b0; stroke-width: 0.8; stroke-linecap: square"/>
     </g>
     <g id="line2d_8">
      <g>
       <use xlink:href="#m06d22fddb1" x="369" y="512.64" style="stroke: #000000; stroke-width: 0.8"/>
      </g>
     </g>
     <g id="text_4">
      <!-- Questionnaire -->
      <g transform="translate(333.995313 527.238438) scale(0.1 -0.1)">
       <defs>
        <path id="DejaVuSans-51" d="M 2522 4238 
Q 1834 4238 1429 3725 
Q 1025 3213 1025 2328 
Q 1025 1447 1429 934 
Q 1834 422 2522 422 
Q 3209 422 3611 934 
Q 4013 1447 4013 2328 
Q 4013 3213 3611 3725 
Q 3209 4238 2522 4238 
z
M 3406 84 
L 4238 -825 
L 3475 -825 
L 2784 -78 
Q 2681 -84 2626 -87 
Q 2572 -91 2522 -91 
Q 1538 -91 948 567 
Q 359 1225 359 2328 
Q 359 3434 948 4092 
Q 1538 4750 2522 4750 
Q 3503 4750 4090 4092 
Q 4678 3434 4678 2328 
Q 4678 1516 4351 937 
Q 4025 359 3406 84 
z
" transform="scale(0.015625)"/>
        <path id="DejaVuSans-73" d="M 2834 3397 
L 2834 2853 
Q 2591 2978 2328 3040 
Q 2066 3103 1784 3103 
Q 1356 3103 1142 2972 
Q 928 2841 928 2578 
Q 928 2378 1081 2264 
Q 1234 2150 1697 2047 
L 1894 2003 
Q 2506 1872 2764 1633 
Q 3022 1394 3022 966 
Q 3022 478 2636 193 
Q 2250 -91 1575 -91 
Q 1294 -91 989 -36 
Q 684 19 347 128 
L 347 722 
Q 666 556 975 473 
Q 1284 391 1588 391 
Q 1994 391 2212 530 
Q 2431 669 2431 922 
Q 2431 1156 2273 1281 
Q 2116 1406 1581 1522 
L 1381 1569 
Q 847 1681 609 1914 
Q 372 2147 372 2553 
Q 372 3047 722 3315 
Q 1072 3584 1716 3584 
Q 2034 3584 2315 3537 
Q 2597 3491 2834 3397 
z
" transform="scale(0.015625)"/>
       </defs>
       <use xlink:href="#DejaVuSans-51"/>
       <use xlink:href="#DejaVuSans-75" x="78.710938"/>
       <use xlink:href="#DejaVuSans-65" x="142.089844"/>
       <use xlink:href="#DejaVuSans-73" x="203.613281"/>
       <use xlink:href="#DejaVuSans-74" x="255.712891"/>
       <use xlink:href="#DejaVuSans-69" x="294.921875"/>
       <use xlink:href="#DejaVuSans-6f" x="322.705078"/>
       <use xlink:href="#DejaVuSans-6e" x="383.886719"/>
       <use xlink:href="#DejaVuSans-6e" x="447.265625"/>
       <use xlink:href="#DejaVuSans-61" x="510.644531"/>
       <use xlink:href="#DejaVuSans-69" x="571.923828"/>
       <use xlink:href="#DejaVuSans-72" x="599.707031"/>
       <use xlink:href="#DejaVuSans-65" x="638.570312"/>
      </g>
     </g>
    </g>
    <g id="xtick_5">
     <g id="line2d_9">
      <path d="M 453.545455 512.64 
L 453.545455 69.12 
" clip-path="url(#pe90cb8cc9b)" style="fill: none; stroke: #b0b0b0; stroke-width: 0.8; stroke-linecap: square"/>
     </g>
     <g id="line2d_10">
      <g>
       <use xlink:href="#m06d22fddb1" x="453.545455" y="512.64" style="stroke: #000000; stroke-width: 0.8"/>
      </g>
     </g>
     <g id="text_5">
      <!-- Data Science -->
      <g transform="translate(420.634517 527.238438) scale(0.1 -0.1)">
       <defs>
        <path id="DejaVuSans-44" d="M 1259 4147 
L 1259 519 
L 2022 519 
Q 2988 519 3436 956 
Q 3884 1394 3884 2338 
Q 3884 3275 3436 3711 
Q 2988 4147 2022 4147 
L 1259 4147 
z
M 628 4666 
L 1925 4666 
Q 3281 4666 3915 4102 
Q 4550 3538 4550 2338 
Q 4550 1131 3912 565 
Q 3275 0 1925 0 
L 628 0 
L 628 4666 
z
" transform="scale(0.015625)"/>
        <path id="DejaVuSans-53" d="M 3425 4513 
L 3425 3897 
Q 3066 4069 2747 4153 
Q 2428 4238 2131 4238 
Q 1616 4238 1336 4038 
Q 1056 3838 1056 3469 
Q 1056 3159 1242 3001 
Q 1428 2844 1947 2747 
L 2328 2669 
Q 3034 2534 3370 2195 
Q 3706 1856 3706 1288 
Q 3706 609 3251 259 
Q 2797 -91 1919 -91 
Q 1588 -91 1214 -16 
Q 841 59 441 206 
L 441 856 
Q 825 641 1194 531 
Q 1563 422 1919 422 
Q 2459 422 2753 634 
Q 3047 847 3047 1241 
Q 3047 1584 2836 1778 
Q 2625 1972 2144 2069 
L 1759 2144 
Q 1053 2284 737 2584 
Q 422 2884 422 3419 
Q 422 4038 858 4394 
Q 1294 4750 2059 4750 
Q 2388 4750 2728 4690 
Q 3069 4631 3425 4513 
z
" transform="scale(0.015625)"/>
       </defs>
       <use xlink:href="#DejaVuSans-44"/>
       <use xlink:href="#DejaVuSans-61" x="77.001953"/>
       <use xlink:href="#DejaVuSans-74" x="138.28125"/>
       <use xlink:href="#DejaVuSans-61" x="177.490234"/>
       <use xlink:href="#DejaVuSans-20" x="238.769531"/>
       <use xlink:href="#DejaVuSans-53" x="270.556641"/>
       <use xlink:href="#DejaVuSans-63" x="334.033203"/>
       <use xlink:href="#DejaVuSans-69" x="389.013672"/>
       <use xlink:href="#DejaVuSans-65" x="416.796875"/>
       <use xlink:href="#DejaVuSans-6e" x="478.320312"/>
       <use xlink:href="#DejaVuSans-63" x="541.699219"/>
       <use xlink:href="#DejaVuSans-65" x="596.679688"/>
      </g>
     </g>
    </g>
    <g id="xtick_6">
     <g id="line2d_11">
      <path d="M 538.090909 512.64 
L 538.090909 69.12 
" clip-path="url(#pe90cb8cc9b)" style="fill: none; stroke: #b0b0b0; stroke-width: 0.8; stroke-linecap: square"/>
     </g>
     <g id="line2d_12">
      <g>
       <use xlink:href="#m06d22fddb1" x="538.090909" y="512.64" style="stroke: #000000; stroke-width: 0.8"/>
      </g>
     </g>
     <g id="text_6">
      <!-- Engineering Research -->
      <g transform="translate(483.569034 527.238438) scale(0.1 -0.1)">
       <defs>
        <path id="DejaVuSans-52" d="M 2841 2188 
Q 3044 2119 3236 1894 
Q 3428 1669 3622 1275 
L 4263 0 
L 3584 0 
L 2988 1197 
Q 2756 1666 2539 1819 
Q 2322 1972 1947 1972 
L 1259 1972 
L 1259 0 
L 628 0 
L 628 4666 
L 2053 4666 
Q 2853 4666 3247 4331 
Q 3641 3997 3641 3322 
Q 3641 2881 3436 2590 
Q 3231 2300 2841 2188 
z
M 1259 4147 
L 1259 2491 
L 2053 2491 
Q 2509 2491 2742 2702 
Q 2975 2913 2975 3322 
Q 2975 3731 2742 3939 
Q 2509 4147 2053 4147 
L 1259 4147 
z
" transform="scale(0.015625)"/>
       </defs>
       <use xlink:href="#DejaVuSans-45"/>
       <use xlink:href="#DejaVuSans-6e" x="63.183594"/>
       <use xlink:href="#DejaVuSans-67" x="126.5625"/>
       <use xlink:href="#DejaVuSans-69" x="190.039062"/>
       <use xlink:href="#DejaVuSans-6e" x="217.822266"/>
       <use xlink:href="#DejaVuSans-65" x="281.201172"/>
       <use xlink:href="#DejaVuSans-65" x="342.724609"/>
       <use xlink:href="#DejaVuSans-72" x="404.248047"/>
       <use xlink:href="#DejaVuSans-69" x="445.361328"/>
       <use xlink:href="#DejaVuSans-6e" x="473.144531"/>
       <use xlink:href="#DejaVuSans-67" x="536.523438"/>
       <use xlink:href="#DejaVuSans-20" x="600"/>
       <use xlink:href="#DejaVuSans-52" x="631.787109"/>
       <use xlink:href="#DejaVuSans-65" x="696.769531"/>
       <use xlink:href="#DejaVuSans-73" x="758.292969"/>
       <use xlink:href="#DejaVuSans-65" x="810.392578"/>
       <use xlink:href="#DejaVuSans-61" x="871.916016"/>
       <use xlink:href="#DejaVuSans-72" x="933.195312"/>
       <use xlink:href="#DejaVuSans-63" x="972.058594"/>
       <use xlink:href="#DejaVuSans-68" x="1027.039062"/>
      </g>
     </g>
    </g>
    <g id="xtick_7">
     <g id="line2d_13">
      <path d="M 622.636364 512.64 
L 622.636364 69.12 
" clip-path="url(#pe90cb8cc9b)" style="fill: none; stroke: #b0b0b0; stroke-width: 0.8; stroke-linecap: square"/>
     </g>
     <g id="line2d_14">
      <g>
       <use xlink:href="#m06d22fddb1" x="622.636364" y="512.64" style="stroke: #000000; stroke-width: 0.8"/>
      </g>
     </g>
     <g id="text_7">
      <!-- Meta Science -->
      <g transform="translate(589.248864 527.238438) scale(0.1 -0.1)">
       <defs>
        <path id="DejaVuSans-4d" d="M 628 4666 
L 1569 4666 
L 2759 1491 
L 3956 4666 
L 4897 4666 
L 4897 0 
L 4281 0 
L 4281 4097 
L 3078 897 
L 2444 897 
L 1241 4097 
L 1241 0 
L 628 0 
L 628 4666 
z
" transform="scale(0.015625)"/>
       </defs>
       <use xlink:href="#DejaVuSans-4d"/>
       <use xlink:href="#DejaVuSans-65" x="86.279297"/>
       <use xlink:href="#DejaVuSans-74" x="147.802734"/>
       <use xlink:href="#DejaVuSans-61" x="187.011719"/>
       <use xlink:href="#DejaVuSans-20" x="248.291016"/>
       <use xlink:href="#DejaVuSans-53" x="280.078125"/>
       <use xlink:href="#DejaVuSans-63" x="343.554688"/>
       <use xlink:href="#DejaVuSans-69" x="398.535156"/>
       <use xlink:href="#DejaVuSans-65" x="426.318359"/>
       <use xlink:href="#DejaVuSans-6e" x="487.841797"/>
       <use xlink:href="#DejaVuSans-63" x="551.220703"/>
       <use xlink:href="#DejaVuSans-65" x="606.201172"/>
      </g>
     </g>
    </g>
    <g id="text_8">
     <!-- strategy -->
     <g transform="translate(348.145312 540.916563) scale(0.1 -0.1)">
      <defs>
       <path id="DejaVuSans-79" d="M 2059 -325 
Q 1816 -950 1584 -1140 
Q 1353 -1331 966 -1331 
L 506 -1331 
L 506 -850 
L 844 -850 
Q 1081 -850 1212 -737 
Q 1344 -625 1503 -206 
L 1606 56 
L 191 3500 
L 800 3500 
L 1894 763 
L 2988 3500 
L 3597 3500 
L 2059 -325 
z
" transform="scale(0.015625)"/>
      </defs>
      <use xlink:href="#DejaVuSans-73"/>
      <use xlink:href="#DejaVuSans-74" x="52.099609"/>
      <use xlink:href="#DejaVuSans-72" x="91.308594"/>
      <use xlink:href="#DejaVuSans-61" x="132.421875"/>
      <use xlink:href="#DejaVuSans-74" x="193.701172"/>
      <use xlink:href="#DejaVuSans-65" x="232.910156"/>
      <use xlink:href="#DejaVuSans-67" x="294.433594"/>
      <use xlink:href="#DejaVuSans-79" x="357.910156"/>
     </g>
    </g>
   </g>
   <g id="matplotlib.axis_2">
    <g id="ytick_1">
     <g id="line2d_15">
      <path d="M 90 492.48 
L 648 492.48 
" clip-path="url(#pe90cb8cc9b)" style="fill: none; stroke: #b0b0b0; stroke-width: 0.8; stroke-linecap: square"/>
     </g>
     <g id="line2d_16">
      <defs>
       <path id="m52d6dcd613" d="M 0 0 
L -3.5 0 
" style="stroke: #000000; stroke-width: 0.8"/>
      </defs>
      <g>
       <use xlink:href="#m52d6dcd613" x="90" y="492.48" style="stroke: #000000; stroke-width: 0.8"/>
      </g>
     </g>
     <g id="text_9">
      <!-- Application -->
      <g transform="translate(27.125 496.279219) scale(0.1 -0.1)">
       <defs>
        <path id="DejaVuSans-41" d="M 2188 4044 
L 1331 1722 
L 3047 1722 
L 2188 4044 
z
M 1831 4666 
L 2547 4666 
L 4325 0 
L 3669 0 
L 3244 1197 
L 1141 1197 
L 716 0 
L 50 0 
L 1831 4666 
z
" transform="scale(0.015625)"/>
        <path id="DejaVuSans-6c" d="M 603 4863 
L 1178 4863 
L 1178 0 
L 603 0 
L 603 4863 
z
" transform="scale(0.015625)"/>
       </defs>
       <use xlink:href="#DejaVuSans-41"/>
       <use xlink:href="#DejaVuSans-70" x="68.408203"/>
       <use xlink:href="#DejaVuSans-70" x="131.884766"/>
       <use xlink:href="#DejaVuSans-6c" x="195.361328"/>
       <use xlink:href="#DejaVuSans-69" x="223.144531"/>
       <use xlink:href="#DejaVuSans-63" x="250.927734"/>
       <use xlink:href="#DejaVuSans-61" x="305.908203"/>
       <use xlink:href="#DejaVuSans-74" x="367.1875"/>
       <use xlink:href="#DejaVuSans-69" x="406.396484"/>
       <use xlink:href="#DejaVuSans-6f" x="434.179688"/>
       <use xlink:href="#DejaVuSans-6e" x="495.361328"/>
      </g>
     </g>
    </g>
    <g id="ytick_2">
     <g id="line2d_17">
      <path d="M 90 391.68 
L 648 391.68 
" clip-path="url(#pe90cb8cc9b)" style="fill: none; stroke: #b0b0b0; stroke-width: 0.8; stroke-linecap: square"/>
     </g>
     <g id="line2d_18">
      <g>
       <use xlink:href="#m52d6dcd613" x="90" y="391.68" style="stroke: #000000; stroke-width: 0.8"/>
      </g>
     </g>
     <g id="text_10">
      <!-- Evaluation -->
      <g transform="translate(30.235937 395.479219) scale(0.1 -0.1)">
       <use xlink:href="#DejaVuSans-45"/>
       <use xlink:href="#DejaVuSans-76" x="63.183594"/>
       <use xlink:href="#DejaVuSans-61" x="122.363281"/>
       <use xlink:href="#DejaVuSans-6c" x="183.642578"/>
       <use xlink:href="#DejaVuSans-75" x="211.425781"/>
       <use xlink:href="#DejaVuSans-61" x="274.804688"/>
       <use xlink:href="#DejaVuSans-74" x="336.083984"/>
       <use xlink:href="#DejaVuSans-69" x="375.292969"/>
       <use xlink:href="#DejaVuSans-6f" x="403.076172"/>
       <use xlink:href="#DejaVuSans-6e" x="464.257812"/>
      </g>
     </g>
    </g>
    <g id="ytick_3">
     <g id="line2d_19">
      <path d="M 90 290.88 
L 648 290.88 
" clip-path="url(#pe90cb8cc9b)" style="fill: none; stroke: #b0b0b0; stroke-width: 0.8; stroke-linecap: square"/>
     </g>
     <g id="line2d_20">
      <g>
       <use xlink:href="#m52d6dcd613" x="90" y="290.88" style="stroke: #000000; stroke-width: 0.8"/>
      </g>
     </g>
     <g id="text_11">
      <!-- Model -->
      <g transform="translate(52.973438 294.679219) scale(0.1 -0.1)">
       <defs>
        <path id="DejaVuSans-64" d="M 2906 2969 
L 2906 4863 
L 3481 4863 
L 3481 0 
L 2906 0 
L 2906 525 
Q 2725 213 2448 61 
Q 2172 -91 1784 -91 
Q 1150 -91 751 415 
Q 353 922 353 1747 
Q 353 2572 751 3078 
Q 1150 3584 1784 3584 
Q 2172 3584 2448 3432 
Q 2725 3281 2906 2969 
z
M 947 1747 
Q 947 1113 1208 752 
Q 1469 391 1925 391 
Q 2381 391 2643 752 
Q 2906 1113 2906 1747 
Q 2906 2381 2643 2742 
Q 2381 3103 1925 3103 
Q 1469 3103 1208 2742 
Q 947 2381 947 1747 
z
" transform="scale(0.015625)"/>
       </defs>
       <use xlink:href="#DejaVuSans-4d"/>
       <use xlink:href="#DejaVuSans-6f" x="86.279297"/>
       <use xlink:href="#DejaVuSans-64" x="147.460938"/>
       <use xlink:href="#DejaVuSans-65" x="210.9375"/>
       <use xlink:href="#DejaVuSans-6c" x="272.460938"/>
      </g>
     </g>
    </g>
    <g id="ytick_4">
     <g id="line2d_21">
      <path d="M 90 190.08 
L 648 190.08 
" clip-path="url(#pe90cb8cc9b)" style="fill: none; stroke: #b0b0b0; stroke-width: 0.8; stroke-linecap: square"/>
     </g>
     <g id="line2d_22">
      <g>
       <use xlink:href="#m52d6dcd613" x="90" y="190.08" style="stroke: #000000; stroke-width: 0.8"/>
      </g>
     </g>
     <g id="text_12">
      <!-- System -->
      <g transform="translate(45.709375 193.879219) scale(0.1 -0.1)">
       <use xlink:href="#DejaVuSans-53"/>
       <use xlink:href="#DejaVuSans-79" x="63.476562"/>
       <use xlink:href="#DejaVuSans-73" x="122.65625"/>
       <use xlink:href="#DejaVuSans-74" x="174.755859"/>
       <use xlink:href="#DejaVuSans-65" x="213.964844"/>
       <use xlink:href="#DejaVuSans-6d" x="275.488281"/>
      </g>
     </g>
    </g>
    <g id="ytick_5">
     <g id="line2d_23">
      <path d="M 90 89.28 
L 648 89.28 
" clip-path="url(#pe90cb8cc9b)" style="fill: none; stroke: #b0b0b0; stroke-width: 0.8; stroke-linecap: square"/>
     </g>
     <g id="line2d_24">
      <g>
       <use xlink:href="#m52d6dcd613" x="90" y="89.28" style="stroke: #000000; stroke-width: 0.8"/>
      </g>
     </g>
     <g id="text_13">
      <!-- Technique -->
      <g transform="translate(32.648438 93.079219) scale(0.1 -0.1)">
       <defs>
        <path id="DejaVuSans-54" d="M -19 4666 
L 3928 4666 
L 3928 4134 
L 2272 4134 
L 2272 0 
L 1638 0 
L 1638 4134 
L -19 4134 
L -19 4666 
z
" transform="scale(0.015625)"/>
        <path id="DejaVuSans-71" d="M 947 1747 
Q 947 1113 1208 752 
Q 1469 391 1925 391 
Q 2381 391 2643 752 
Q 2906 1113 2906 1747 
Q 2906 2381 2643 2742 
Q 2381 3103 1925 3103 
Q 1469 3103 1208 2742 
Q 947 2381 947 1747 
z
M 2906 525 
Q 2725 213 2448 61 
Q 2172 -91 1784 -91 
Q 1150 -91 751 415 
Q 353 922 353 1747 
Q 353 2572 751 3078 
Q 1150 3584 1784 3584 
Q 2172 3584 2448 3432 
Q 2725 3281 2906 2969 
L 2906 3500 
L 3481 3500 
L 3481 -1331 
L 2906 -1331 
L 2906 525 
z
" transform="scale(0.015625)"/>
       </defs>
       <use xlink:href="#DejaVuSans-54"/>
       <use xlink:href="#DejaVuSans-65" x="44.083984"/>
       <use xlink:href="#DejaVuSans-63" x="105.607422"/>
       <use xlink:href="#DejaVuSans-68" x="160.587891"/>
       <use xlink:href="#DejaVuSans-6e" x="223.966797"/>
       <use xlink:href="#DejaVuSans-69" x="287.345703"/>
       <use xlink:href="#DejaVuSans-71" x="315.128906"/>
       <use xlink:href="#DejaVuSans-75" x="378.605469"/>
       <use xlink:href="#DejaVuSans-65" x="441.984375"/>
      </g>
     </g>
    </g>
    <g id="text_14">
     <!-- papertype -->
     <g transform="translate(21.045312 316.594844) rotate(-90) scale(0.1 -0.1)">
      <use xlink:href="#DejaVuSans-70"/>
      <use xlink:href="#DejaVuSans-61" x="63.476562"/>
      <use xlink:href="#DejaVuSans-70" x="124.755859"/>
      <use xlink:href="#DejaVuSans-65" x="188.232422"/>
      <use xlink:href="#DejaVuSans-72" x="249.755859"/>
      <use xlink:href="#DejaVuSans-74" x="290.869141"/>
      <use xlink:href="#DejaVuSans-79" x="330.078125"/>
      <use xlink:href="#DejaVuSans-70" x="389.257812"/>
      <use xlink:href="#DejaVuSans-65" x="452.734375"/>
     </g>
    </g>
   </g>
   <g id="patch_3">
    <path d="M 90 512.64 
L 90 69.12 
" style="fill: none; stroke: #000000; stroke-width: 0.8; stroke-linejoin: miter; stroke-linecap: square"/>
   </g>
   <g id="patch_4">
    <path d="M 648 512.64 
L 648 69.12 
" style="fill: none; stroke: #000000; stroke-width: 0.8; stroke-linejoin: miter; stroke-linecap: square"/>
   </g>
   <g id="patch_5">
    <path d="M 90 512.64 
L 648 512.64 
" style="fill: none; stroke: #000000; stroke-width: 0.8; stroke-linejoin: miter; stroke-linecap: square"/>
   </g>
   <g id="patch_6">
    <path d="M 90 69.12 
L 648 69.12 
" style="fill: none; stroke: #000000; stroke-width: 0.8; stroke-linejoin: miter; stroke-linecap: square"/>
   </g>
   <g id="text_15">
    <!-- Bubble Chart: strategy vs papertype by metaverse -->
    <g transform="translate(216.140625 63.12) scale(0.12 -0.12)">
     <defs>
      <path id="DejaVuSans-62" d="M 3116 1747 
Q 3116 2381 2855 2742 
Q 2594 3103 2138 3103 
Q 1681 3103 1420 2742 
Q 1159 2381 1159 1747 
Q 1159 1113 1420 752 
Q 1681 391 2138 391 
Q 2594 391 2855 752 
Q 3116 1113 3116 1747 
z
M 1159 2969 
Q 1341 3281 1617 3432 
Q 1894 3584 2278 3584 
Q 2916 3584 3314 3078 
Q 3713 2572 3713 1747 
Q 3713 922 3314 415 
Q 2916 -91 2278 -91 
Q 1894 -91 1617 61 
Q 1341 213 1159 525 
L 1159 0 
L 581 0 
L 581 4863 
L 1159 4863 
L 1159 2969 
z
" transform="scale(0.015625)"/>
      <path id="DejaVuSans-43" d="M 4122 4306 
L 4122 3641 
Q 3803 3938 3442 4084 
Q 3081 4231 2675 4231 
Q 1875 4231 1450 3742 
Q 1025 3253 1025 2328 
Q 1025 1406 1450 917 
Q 1875 428 2675 428 
Q 3081 428 3442 575 
Q 3803 722 4122 1019 
L 4122 359 
Q 3791 134 3420 21 
Q 3050 -91 2638 -91 
Q 1578 -91 968 557 
Q 359 1206 359 2328 
Q 359 3453 968 4101 
Q 1578 4750 2638 4750 
Q 3056 4750 3426 4639 
Q 3797 4528 4122 4306 
z
" transform="scale(0.015625)"/>
      <path id="DejaVuSans-3a" d="M 750 794 
L 1409 794 
L 1409 0 
L 750 0 
L 750 794 
z
M 750 3309 
L 1409 3309 
L 1409 2516 
L 750 2516 
L 750 3309 
z
" transform="scale(0.015625)"/>
     </defs>
     <use xlink:href="#DejaVuSans-42"/>
     <use xlink:href="#DejaVuSans-75" x="68.603516"/>
     <use xlink:href="#DejaVuSans-62" x="131.982422"/>
     <use xlink:href="#DejaVuSans-62" x="195.458984"/>
     <use xlink:href="#DejaVuSans-6c" x="258.935547"/>
     <use xlink:href="#DejaVuSans-65" x="286.71875"/>
     <use xlink:href="#DejaVuSans-20" x="348.242188"/>
     <use xlink:href="#DejaVuSans-43" x="380.029297"/>
     <use xlink:href="#DejaVuSans-68" x="449.853516"/>
     <use xlink:href="#DejaVuSans-61" x="513.232422"/>
     <use xlink:href="#DejaVuSans-72" x="574.511719"/>
     <use xlink:href="#DejaVuSans-74" x="615.625"/>
     <use xlink:href="#DejaVuSans-3a" x="654.833984"/>
     <use xlink:href="#DejaVuSans-20" x="688.525391"/>
     <use xlink:href="#DejaVuSans-73" x="720.3125"/>
     <use xlink:href="#DejaVuSans-74" x="772.412109"/>
     <use xlink:href="#DejaVuSans-72" x="811.621094"/>
     <use xlink:href="#DejaVuSans-61" x="852.734375"/>
     <use xlink:href="#DejaVuSans-74" x="914.013672"/>
     <use xlink:href="#DejaVuSans-65" x="953.222656"/>
     <use xlink:href="#DejaVuSans-67" x="1014.746094"/>
     <use xlink:href="#DejaVuSans-79" x="1078.222656"/>
     <use xlink:href="#DejaVuSans-20" x="1137.402344"/>
     <use xlink:href="#DejaVuSans-76" x="1169.189453"/>
     <use xlink:href="#DejaVuSans-73" x="1228.369141"/>
     <use xlink:href="#DejaVuSans-20" x="1280.46875"/>
     <use xlink:href="#DejaVuSans-70" x="1312.255859"/>
     <use xlink:href="#DejaVuSans-61" x="1375.732422"/>
     <use xlink:href="#DejaVuSans-70" x="1437.011719"/>
     <use xlink:href="#DejaVuSans-65" x="1500.488281"/>
     <use xlink:href="#DejaVuSans-72" x="1562.011719"/>
     <use xlink:href="#DejaVuSans-74" x="1603.125"/>
     <use xlink:href="#DejaVuSans-79" x="1642.333984"/>
     <use xlink:href="#DejaVuSans-70" x="1701.513672"/>
     <use xlink:href="#DejaVuSans-65" x="1764.990234"/>
     <use xlink:href="#DejaVuSans-20" x="1826.513672"/>
     <use xlink:href="#DejaVuSans-62" x="1858.300781"/>
     <use xlink:href="#DejaVuSans-79" x="1921.777344"/>
     <use xlink:href="#DejaVuSans-20" x="1980.957031"/>
     <use xlink:href="#DejaVuSans-6d" x="2012.744141"/>
     <use xlink:href="#DejaVuSans-65" x="2110.15625"/>
     <use xlink:href="#DejaVuSans-74" x="2171.679688"/>
     <use xlink:href="#DejaVuSans-61" x="2210.888672"/>
     <use xlink:href="#DejaVuSans-76" x="2272.167969"/>
     <use xlink:href="#DejaVuSans-65" x="2331.347656"/>
     <use xlink:href="#DejaVuSans-72" x="2392.871094"/>
     <use xlink:href="#DejaVuSans-73" x="2433.984375"/>
     <use xlink:href="#DejaVuSans-65" x="2486.083984"/>
    </g>
   </g>
   <g id="legend_1">
    <g id="patch_7">
     <path d="M 513.467188 150.510625 
L 641 150.510625 
Q 643 150.510625 643 148.510625 
L 643 76.12 
Q 643 74.12 641 74.12 
L 513.467188 74.12 
Q 511.467188 74.12 511.467188 76.12 
L 511.467188 148.510625 
Q 511.467188 150.510625 513.467188 150.510625 
z
" style="fill: #ffffff; opacity: 0.8; stroke: #cccccc; stroke-linejoin: miter"/>
    </g>
    <g id="text_16">
     <!-- Metaverse -->
     <g transform="translate(551.046094 85.718437) scale(0.1 -0.1)">
      <use xlink:href="#DejaVuSans-4d"/>
      <use xlink:href="#DejaVuSans-65" x="86.279297"/>
      <use xlink:href="#DejaVuSans-74" x="147.802734"/>
      <use xlink:href="#DejaVuSans-61" x="187.011719"/>
      <use xlink:href="#DejaVuSans-76" x="248.291016"/>
      <use xlink:href="#DejaVuSans-65" x="307.470703"/>
      <use xlink:href="#DejaVuSans-72" x="368.994141"/>
      <use xlink:href="#DejaVuSans-73" x="410.107422"/>
      <use xlink:href="#DejaVuSans-65" x="462.207031"/>
     </g>
    </g>
    <g id="line2d_25">
     <path d="M 515.467188 96.896563 
L 525.467188 96.896563 
L 535.467188 96.896563 
" style="fill: none; stroke: #ffffff; stroke-width: 1.5; stroke-linecap: square"/>
     <defs>
      <path id="m3c180daf83" d="M 0 5 
C 1.326016 5 2.597899 4.473168 3.535534 3.535534 
C 4.473168 2.597899 5 1.326016 5 0 
C 5 -1.326016 4.473168 -2.597899 3.535534 -3.535534 
C 2.597899 -4.473168 1.326016 -5 0 -5 
C -1.326016 -5 -2.597899 -4.473168 -3.535534 -3.535534 
C -4.473168 -2.597899 -5 -1.326016 -5 0 
C -5 1.326016 -4.473168 2.597899 -3.535534 3.535534 
C -2.597899 4.473168 -1.326016 5 0 5 
z
" style="stroke: #ffffff"/>
     </defs>
     <g>
      <use xlink:href="#m3c180daf83" x="525.467188" y="96.896563" style="fill: #0000ff; stroke: #ffffff"/>
     </g>
    </g>
    <g id="text_17">
     <!-- Virtual World -->
     <g transform="translate(543.467188 100.396563) scale(0.1 -0.1)">
      <defs>
       <path id="DejaVuSans-56" d="M 1831 0 
L 50 4666 
L 709 4666 
L 2188 738 
L 3669 4666 
L 4325 4666 
L 2547 0 
L 1831 0 
z
" transform="scale(0.015625)"/>
       <path id="DejaVuSans-57" d="M 213 4666 
L 850 4666 
L 1831 722 
L 2809 4666 
L 3519 4666 
L 4500 722 
L 5478 4666 
L 6119 4666 
L 4947 0 
L 4153 0 
L 3169 4050 
L 2175 0 
L 1381 0 
L 213 4666 
z
" transform="scale(0.015625)"/>
      </defs>
      <use xlink:href="#DejaVuSans-56"/>
      <use xlink:href="#DejaVuSans-69" x="66.158203"/>
      <use xlink:href="#DejaVuSans-72" x="93.941406"/>
      <use xlink:href="#DejaVuSans-74" x="135.054688"/>
      <use xlink:href="#DejaVuSans-75" x="174.263672"/>
      <use xlink:href="#DejaVuSans-61" x="237.642578"/>
      <use xlink:href="#DejaVuSans-6c" x="298.921875"/>
      <use xlink:href="#DejaVuSans-20" x="326.705078"/>
      <use xlink:href="#DejaVuSans-57" x="358.492188"/>
      <use xlink:href="#DejaVuSans-6f" x="451.494141"/>
      <use xlink:href="#DejaVuSans-72" x="512.675781"/>
      <use xlink:href="#DejaVuSans-6c" x="553.789062"/>
      <use xlink:href="#DejaVuSans-64" x="581.572266"/>
     </g>
    </g>
    <g id="line2d_26">
     <path d="M 515.467188 111.574688 
L 525.467188 111.574688 
L 535.467188 111.574688 
" style="fill: none; stroke: #ffffff; stroke-width: 1.5; stroke-linecap: square"/>
     <defs>
      <path id="m8fcb713596" d="M 0 5 
C 1.326016 5 2.597899 4.473168 3.535534 3.535534 
C 4.473168 2.597899 5 1.326016 5 0 
C 5 -1.326016 4.473168 -2.597899 3.535534 -3.535534 
C 2.597899 -4.473168 1.326016 -5 0 -5 
C -1.326016 -5 -2.597899 -4.473168 -3.535534 -3.535534 
C -4.473168 -2.597899 -5 -1.326016 -5 0 
C -5 1.326016 -4.473168 2.597899 -3.535534 3.535534 
C -2.597899 4.473168 -1.326016 5 0 5 
z
" style="stroke: #ffffff"/>
     </defs>
     <g>
      <use xlink:href="#m8fcb713596" x="525.467188" y="111.574688" style="fill: #008000; stroke: #ffffff"/>
     </g>
    </g>
    <g id="text_18">
     <!-- Lifelogging -->
     <g transform="translate(543.467188 115.074688) scale(0.1 -0.1)">
      <defs>
       <path id="DejaVuSans-4c" d="M 628 4666 
L 1259 4666 
L 1259 531 
L 3531 531 
L 3531 0 
L 628 0 
L 628 4666 
z
" transform="scale(0.015625)"/>
       <path id="DejaVuSans-66" d="M 2375 4863 
L 2375 4384 
L 1825 4384 
Q 1516 4384 1395 4259 
Q 1275 4134 1275 3809 
L 1275 3500 
L 2222 3500 
L 2222 3053 
L 1275 3053 
L 1275 0 
L 697 0 
L 697 3053 
L 147 3053 
L 147 3500 
L 697 3500 
L 697 3744 
Q 697 4328 969 4595 
Q 1241 4863 1831 4863 
L 2375 4863 
z
" transform="scale(0.015625)"/>
      </defs>
      <use xlink:href="#DejaVuSans-4c"/>
      <use xlink:href="#DejaVuSans-69" x="55.712891"/>
      <use xlink:href="#DejaVuSans-66" x="83.496094"/>
      <use xlink:href="#DejaVuSans-65" x="118.701172"/>
      <use xlink:href="#DejaVuSans-6c" x="180.224609"/>
      <use xlink:href="#DejaVuSans-6f" x="208.007812"/>
      <use xlink:href="#DejaVuSans-67" x="269.189453"/>
      <use xlink:href="#DejaVuSans-67" x="332.666016"/>
      <use xlink:href="#DejaVuSans-69" x="396.142578"/>
      <use xlink:href="#DejaVuSans-6e" x="423.925781"/>
      <use xlink:href="#DejaVuSans-67" x="487.304688"/>
     </g>
    </g>
    <g id="line2d_27">
     <path d="M 515.467188 126.252813 
L 525.467188 126.252813 
L 535.467188 126.252813 
" style="fill: none; stroke: #ffffff; stroke-width: 1.5; stroke-linecap: square"/>
     <defs>
      <path id="mb2218eec51" d="M 0 5 
C 1.326016 5 2.597899 4.473168 3.535534 3.535534 
C 4.473168 2.597899 5 1.326016 5 0 
C 5 -1.326016 4.473168 -2.597899 3.535534 -3.535534 
C 2.597899 -4.473168 1.326016 -5 0 -5 
C -1.326016 -5 -2.597899 -4.473168 -3.535534 -3.535534 
C -4.473168 -2.597899 -5 -1.326016 -5 0 
C -5 1.326016 -4.473168 2.597899 -3.535534 3.535534 
C -2.597899 4.473168 -1.326016 5 0 5 
z
" style="stroke: #ffffff"/>
     </defs>
     <g>
      <use xlink:href="#mb2218eec51" x="525.467188" y="126.252813" style="fill: #ff0000; stroke: #ffffff"/>
     </g>
    </g>
    <g id="text_19">
     <!-- Augmented Reality -->
     <g transform="translate(543.467188 129.752813) scale(0.1 -0.1)">
      <use xlink:href="#DejaVuSans-41"/>
      <use xlink:href="#DejaVuSans-75" x="68.408203"/>
      <use xlink:href="#DejaVuSans-67" x="131.787109"/>
      <use xlink:href="#DejaVuSans-6d" x="195.263672"/>
      <use xlink:href="#DejaVuSans-65" x="292.675781"/>
      <use xlink:href="#DejaVuSans-6e" x="354.199219"/>
      <use xlink:href="#DejaVuSans-74" x="417.578125"/>
      <use xlink:href="#DejaVuSans-65" x="456.787109"/>
      <use xlink:href="#DejaVuSans-64" x="518.310547"/>
      <use xlink:href="#DejaVuSans-20" x="581.787109"/>
      <use xlink:href="#DejaVuSans-52" x="613.574219"/>
      <use xlink:href="#DejaVuSans-65" x="678.556641"/>
      <use xlink:href="#DejaVuSans-61" x="740.080078"/>
      <use xlink:href="#DejaVuSans-6c" x="801.359375"/>
      <use xlink:href="#DejaVuSans-69" x="829.142578"/>
      <use xlink:href="#DejaVuSans-74" x="856.925781"/>
      <use xlink:href="#DejaVuSans-79" x="896.134766"/>
     </g>
    </g>
    <g id="line2d_28">
     <path d="M 515.467188 140.930938 
L 525.467188 140.930938 
L 535.467188 140.930938 
" style="fill: none; stroke: #ffffff; stroke-width: 1.5; stroke-linecap: square"/>
     <defs>
      <path id="mf5c723d3a9" d="M 0 5 
C 1.326016 5 2.597899 4.473168 3.535534 3.535534 
C 4.473168 2.597899 5 1.326016 5 0 
C 5 -1.326016 4.473168 -2.597899 3.535534 -3.535534 
C 2.597899 -4.473168 1.326016 -5 0 -5 
C -1.326016 -5 -2.597899 -4.473168 -3.535534 -3.535534 
C -4.473168 -2.597899 -5 -1.326016 -5 0 
C -5 1.326016 -4.473168 2.597899 -3.535534 3.535534 
C -2.597899 4.473168 -1.326016 5 0 5 
z
" style="stroke: #ffffff"/>
     </defs>
     <g>
      <use xlink:href="#mf5c723d3a9" x="525.467188" y="140.930938" style="fill: #800080; stroke: #ffffff"/>
     </g>
    </g>
    <g id="text_20">
     <!-- Mirror World -->
     <g transform="translate(543.467188 144.430938) scale(0.1 -0.1)">
      <use xlink:href="#DejaVuSans-4d"/>
      <use xlink:href="#DejaVuSans-69" x="86.279297"/>
      <use xlink:href="#DejaVuSans-72" x="114.0625"/>
      <use xlink:href="#DejaVuSans-72" x="153.425781"/>
      <use xlink:href="#DejaVuSans-6f" x="192.289062"/>
      <use xlink:href="#DejaVuSans-72" x="253.470703"/>
      <use xlink:href="#DejaVuSans-20" x="294.583984"/>
      <use xlink:href="#DejaVuSans-57" x="326.371094"/>
      <use xlink:href="#DejaVuSans-6f" x="419.373047"/>
      <use xlink:href="#DejaVuSans-72" x="480.554688"/>
      <use xlink:href="#DejaVuSans-6c" x="521.667969"/>
      <use xlink:href="#DejaVuSans-64" x="549.451172"/>
     </g>
    </g>
   </g>
  </g>
 </g>
 <defs>
  <clipPath id="pe90cb8cc9b">
   <rect x="90" y="69.12" width="558" height="443.52"/>
  </clipPath>
 </defs>
</svg>
