<?xml version="1.0" encoding="utf-8" standalone="no"?>
<!DOCTYPE svg PUBLIC "-//W3C//DTD SVG 1.1//EN"
  "http://www.w3.org/Graphics/SVG/1.1/DTD/svg11.dtd">
<svg xmlns:xlink="http://www.w3.org/1999/xlink" width="720pt" height="576pt" viewBox="0 0 720 576" xmlns="http://www.w3.org/2000/svg" version="1.1">
 <metadata>
  <rdf:RDF xmlns:dc="http://purl.org/dc/elements/1.1/" xmlns:cc="http://creativecommons.org/ns#" xmlns:rdf="http://www.w3.org/1999/02/22-rdf-syntax-ns#">
   <cc:Work>
    <dc:type rdf:resource="http://purl.org/dc/dcmitype/StillImage"/>
    <dc:date>2024-09-02T16:21:39.116136</dc:date>
    <dc:format>image/svg+xml</dc:format>
    <dc:creator>
     <cc:Agent>
      <dc:title>Matplotlib v3.8.2, https://matplotlib.org/</dc:title>
     </cc:Agent>
    </dc:creator>
   </cc:Work>
  </rdf:RDF>
 </metadata>
 <defs>
  <style type="text/css">*{stroke-linejoin: round; stroke-linecap: butt}</style>
 </defs>
 <g id="figure_1">
  <g id="patch_1">
   <path d="M 0 576 
L 720 576 
L 720 0 
L 0 0 
z
" style="fill: #ffffff"/>
  </g>
  <g id="axes_1">
   <g id="patch_2">
    <path d="M 90 512.64 
L 648 512.64 
L 648 69.12 
L 90 69.12 
z
" style="fill: #ffffff"/>
   </g>
   <g id="PathCollection_1">
    <path d="M 115.363636 518.460762 
C 122.253815 518.460762 128.862717 515.723265 133.734809 510.851173 
C 138.606901 505.979081 141.344398 499.370179 141.344398 492.48 
C 141.344398 485.589821 138.606901 478.980919 133.734809 474.108827 
C 128.862717 469.236735 122.253815 466.499238 115.363636 466.499238 
C 108.473458 466.499238 101.864555 469.236735 96.992463 474.108827 
C 92.120371 478.980919 89.382874 485.589821 89.382874 492.48 
C 89.382874 499.370179 92.120371 505.979081 96.992463 510.851173 
C 101.864555 515.723265 108.473458 518.460762 115.363636 518.460762 
z
" clip-path="url(#pe2f601e804)" style="fill: #00ffff; fill-opacity: 0.6; stroke: #ffffff; stroke-opacity: 0.6; stroke-width: 2"/>
    <path d="M 115.363636 505.708757 
C 118.871944 505.708757 122.237032 504.314891 124.71778 501.834143 
C 127.198528 499.353396 128.592393 495.988307 128.592393 492.48 
C 128.592393 488.971693 127.198528 485.606604 124.71778 483.125857 
C 122.237032 480.645109 118.871944 479.251243 115.363636 479.251243 
C 111.855329 479.251243 108.490241 480.645109 106.009493 483.125857 
C 103.528745 485.606604 102.13488 488.971693 102.13488 492.48 
C 102.13488 495.988307 103.528745 499.353396 106.009493 501.834143 
C 108.490241 504.314891 111.855329 505.708757 115.363636 505.708757 
z
" clip-path="url(#pe2f601e804)" style="fill: #ff0000; fill-opacity: 0.6; stroke: #ffffff; stroke-opacity: 0.6; stroke-width: 2"/>
    <path d="M 115.363636 499.551068 
C 117.238905 499.551068 119.037621 498.806016 120.363636 497.48 
C 121.689652 496.153985 122.434704 494.355269 122.434704 492.48 
C 122.434704 490.604731 121.689652 488.806016 120.363636 487.48 
C 119.037621 486.153985 117.238905 485.408932 115.363636 485.408932 
C 113.488367 485.408932 111.689652 486.153985 110.363636 487.48 
C 109.037621 488.806016 108.292569 490.604731 108.292569 492.48 
C 108.292569 494.355269 109.037621 496.153985 110.363636 497.48 
C 111.689652 498.806016 113.488367 499.551068 115.363636 499.551068 
z
" clip-path="url(#pe2f601e804)" style="fill: #ff00ff; fill-opacity: 0.6; stroke: #ffffff; stroke-opacity: 0.6; stroke-width: 2"/>
    <path d="M 115.363636 503.66034 
C 118.328697 503.66034 121.172716 502.482309 123.269331 500.385694 
C 125.365945 498.28908 126.543976 495.445061 126.543976 492.48 
C 126.543976 489.514939 125.365945 486.67092 123.269331 484.574306 
C 121.172716 482.477691 118.328697 481.29966 115.363636 481.29966 
C 112.398576 481.29966 109.554557 482.477691 107.457942 484.574306 
C 105.361328 486.67092 104.183296 489.514939 104.183296 492.48 
C 104.183296 495.445061 105.361328 498.28908 107.457942 500.385694 
C 109.554557 502.482309 112.398576 503.66034 115.363636 503.66034 
z
" clip-path="url(#pe2f601e804)" style="fill: #ffa500; fill-opacity: 0.6; stroke: #ffffff; stroke-opacity: 0.6; stroke-width: 2"/>
    <path d="M 115.363636 450.775098 
C 122.125015 450.775098 128.610376 448.088773 133.391393 443.307756 
C 138.17241 438.52674 140.858734 432.041379 140.858734 425.28 
C 140.858734 418.518621 138.17241 412.03326 133.391393 407.252244 
C 128.610376 402.471227 122.125015 399.784902 115.363636 399.784902 
C 108.602257 399.784902 102.116897 402.471227 97.33588 407.252244 
C 92.554863 412.03326 89.868539 418.518621 89.868539 425.28 
C 89.868539 432.041379 92.554863 438.52674 97.33588 443.307756 
C 102.116897 448.088773 108.602257 450.775098 115.363636 450.775098 
z
" clip-path="url(#pe2f601e804)" style="fill: #00ffff; fill-opacity: 0.6; stroke: #ffffff; stroke-opacity: 0.6; stroke-width: 2"/>
    <path d="M 115.363636 432.351068 
C 117.238905 432.351068 119.037621 431.606015 120.363636 430.28 
C 121.689652 428.953984 122.434704 427.155269 122.434704 425.28 
C 122.434704 423.404731 121.689652 421.606015 120.363636 420.28 
C 119.037621 418.953984 117.238905 418.208932 115.363636 418.208932 
C 113.488367 418.208932 111.689652 418.953984 110.363636 420.28 
C 109.037621 421.606015 108.292569 423.404731 108.292569 425.28 
C 108.292569 427.155269 109.037621 428.953984 110.363636 430.28 
C 111.689652 431.606015 113.488367 432.351068 115.363636 432.351068 
z
" clip-path="url(#pe2f601e804)" style="fill: #ff0000; fill-opacity: 0.6; stroke: #ffffff; stroke-opacity: 0.6; stroke-width: 2"/>
    <path d="M 115.363636 430.28 
C 116.689652 430.28 117.961536 429.753168 118.89917 428.815534 
C 119.836805 427.877899 120.363636 426.606015 120.363636 425.28 
C 120.363636 423.953984 119.836805 422.682101 118.89917 421.744466 
C 117.961536 420.806832 116.689652 420.28 115.363636 420.28 
C 114.037621 420.28 112.765737 420.806832 111.828102 421.744466 
C 110.890468 422.682101 110.363636 423.953984 110.363636 425.28 
C 110.363636 426.606015 110.890468 427.877899 111.828102 428.815534 
C 112.765737 429.753168 114.037621 430.28 115.363636 430.28 
z
" clip-path="url(#pe2f601e804)" style="fill: #ff00ff; fill-opacity: 0.6; stroke: #ffffff; stroke-opacity: 0.6; stroke-width: 2"/>
    <path d="M 115.363636 430.28 
C 116.689652 430.28 117.961536 429.753168 118.89917 428.815534 
C 119.836805 427.877899 120.363636 426.606015 120.363636 425.28 
C 120.363636 423.953984 119.836805 422.682101 118.89917 421.744466 
C 117.961536 420.806832 116.689652 420.28 115.363636 420.28 
C 114.037621 420.28 112.765737 420.806832 111.828102 421.744466 
C 110.890468 422.682101 110.363636 423.953984 110.363636 425.28 
C 110.363636 426.606015 110.890468 427.877899 111.828102 428.815534 
C 112.765737 429.753168 114.037621 430.28 115.363636 430.28 
z
" clip-path="url(#pe2f601e804)" style="fill: #ffa500; fill-opacity: 0.6; stroke: #ffffff; stroke-opacity: 0.6; stroke-width: 2"/>
    <path d="M 115.363636 376.107756 
C 120.144653 376.107756 124.730496 374.208238 128.111185 370.827549 
C 131.491875 367.446859 133.391393 362.861017 133.391393 358.08 
C 133.391393 353.298983 131.491875 348.713141 128.111185 345.332451 
C 124.730496 341.951762 120.144653 340.052244 115.363636 340.052244 
C 110.582619 340.052244 105.996777 341.951762 102.616088 345.332451 
C 99.235398 348.713141 97.33588 353.298983 97.33588 358.08 
C 97.33588 362.861017 99.235398 367.446859 102.616088 370.827549 
C 105.996777 374.208238 110.582619 376.107756 115.363636 376.107756 
z
" clip-path="url(#pe2f601e804)" style="fill: #00ffff; fill-opacity: 0.6; stroke: #ffffff; stroke-opacity: 0.6; stroke-width: 2"/>
    <path d="M 115.363636 363.08 
C 116.689652 363.08 117.961536 362.553168 118.89917 361.615534 
C 119.836805 360.677899 120.363636 359.406015 120.363636 358.08 
C 120.363636 356.753985 119.836805 355.482101 118.89917 354.544466 
C 117.961536 353.606832 116.689652 353.08 115.363636 353.08 
C 114.037621 353.08 112.765737 353.606832 111.828102 354.544466 
C 110.890468 355.482101 110.363636 356.753985 110.363636 358.08 
C 110.363636 359.406015 110.890468 360.677899 111.828102 361.615534 
C 112.765737 362.553168 114.037621 363.08 115.363636 363.08 
z
" clip-path="url(#pe2f601e804)" style="fill: #ff0000; fill-opacity: 0.6; stroke: #ffffff; stroke-opacity: 0.6; stroke-width: 2"/>
    <path d="M 115.363636 363.08 
C 116.689652 363.08 117.961536 362.553168 118.89917 361.615534 
C 119.836805 360.677899 120.363636 359.406015 120.363636 358.08 
C 120.363636 356.753985 119.836805 355.482101 118.89917 354.544466 
C 117.961536 353.606832 116.689652 353.08 115.363636 353.08 
C 114.037621 353.08 112.765737 353.606832 111.828102 354.544466 
C 110.890468 355.482101 110.363636 356.753985 110.363636 358.08 
C 110.363636 359.406015 110.890468 360.677899 111.828102 361.615534 
C 112.765737 362.553168 114.037621 363.08 115.363636 363.08 
z
" clip-path="url(#pe2f601e804)" style="fill: #ffa500; fill-opacity: 0.6; stroke: #ffffff; stroke-opacity: 0.6; stroke-width: 2"/>
    <path d="M 115.363636 308.200508 
C 119.957089 308.200508 124.363024 306.37551 127.611085 303.127449 
C 130.859146 299.879387 132.684144 295.473452 132.684144 290.88 
C 132.684144 286.286548 130.859146 281.880613 127.611085 278.632551 
C 124.363024 275.38449 119.957089 273.559492 115.363636 273.559492 
C 110.770184 273.559492 106.364249 275.38449 103.116188 278.632551 
C 99.868126 281.880613 98.043128 286.286548 98.043128 290.88 
C 98.043128 295.473452 99.868126 299.879387 103.116188 303.127449 
C 106.364249 306.37551 110.770184 308.200508 115.363636 308.200508 
z
" clip-path="url(#pe2f601e804)" style="fill: #00ffff; fill-opacity: 0.6; stroke: #ffffff; stroke-opacity: 0.6; stroke-width: 2"/>
    <path d="M 115.363636 297.951068 
C 117.238905 297.951068 119.037621 297.206015 120.363636 295.88 
C 121.689652 294.553985 122.434704 292.755269 122.434704 290.88 
C 122.434704 289.004731 121.689652 287.206015 120.363636 285.88 
C 119.037621 284.553985 117.238905 283.808932 115.363636 283.808932 
C 113.488367 283.808932 111.689652 284.553985 110.363636 285.88 
C 109.037621 287.206015 108.292569 289.004731 108.292569 290.88 
C 108.292569 292.755269 109.037621 294.553985 110.363636 295.88 
C 111.689652 297.206015 113.488367 297.951068 115.363636 297.951068 
z
" clip-path="url(#pe2f601e804)" style="fill: #ff0000; fill-opacity: 0.6; stroke: #ffffff; stroke-opacity: 0.6; stroke-width: 2"/>
    <path d="M 115.363636 295.88 
C 116.689652 295.88 117.961536 295.353168 118.89917 294.415534 
C 119.836805 293.477899 120.363636 292.206015 120.363636 290.88 
C 120.363636 289.553985 119.836805 288.282101 118.89917 287.344466 
C 117.961536 286.406832 116.689652 285.88 115.363636 285.88 
C 114.037621 285.88 112.765737 286.406832 111.828102 287.344466 
C 110.890468 288.282101 110.363636 289.553985 110.363636 290.88 
C 110.363636 292.206015 110.890468 293.477899 111.828102 294.415534 
C 112.765737 295.353168 114.037621 295.88 115.363636 295.88 
z
" clip-path="url(#pe2f601e804)" style="fill: #ff00ff; fill-opacity: 0.6; stroke: #ffffff; stroke-opacity: 0.6; stroke-width: 2"/>
    <path d="M 115.363636 243.044917 
C 120.499272 243.044917 125.425257 241.004507 129.0567 237.373064 
C 132.688143 233.741621 134.728553 228.815636 134.728553 223.68 
C 134.728553 218.544364 132.688143 213.618379 129.0567 209.986936 
C 125.425257 206.355493 120.499272 204.315083 115.363636 204.315083 
C 110.228 204.315083 105.302015 206.355493 101.670572 209.986936 
C 98.039129 213.618379 95.99872 218.544364 95.99872 223.68 
C 95.99872 228.815636 98.039129 233.741621 101.670572 237.373064 
C 105.302015 241.004507 110.228 243.044917 115.363636 243.044917 
z
" clip-path="url(#pe2f601e804)" style="fill: #00ffff; fill-opacity: 0.6; stroke: #ffffff; stroke-opacity: 0.6; stroke-width: 2"/>
    <path d="M 115.363636 232.340254 
C 117.660363 232.340254 119.86333 231.427755 121.487361 229.803724 
C 123.111391 228.179694 124.02389 225.976726 124.02389 223.68 
C 124.02389 221.383274 123.111391 219.180306 121.487361 217.556276 
C 119.86333 215.932245 117.660363 215.019746 115.363636 215.019746 
C 113.06691 215.019746 110.863943 215.932245 109.239912 217.556276 
C 107.615881 219.180306 106.703382 221.383274 106.703382 223.68 
C 106.703382 225.976726 107.615881 228.179694 109.239912 229.803724 
C 110.863943 231.427755 113.06691 232.340254 115.363636 232.340254 
z
" clip-path="url(#pe2f601e804)" style="fill: #ff0000; fill-opacity: 0.6; stroke: #ffffff; stroke-opacity: 0.6; stroke-width: 2"/>
    <path d="M 115.363636 228.68 
C 116.689652 228.68 117.961536 228.153168 118.89917 227.215534 
C 119.836805 226.277899 120.363636 225.006016 120.363636 223.68 
C 120.363636 222.353984 119.836805 221.082101 118.89917 220.144466 
C 117.961536 219.206832 116.689652 218.68 115.363636 218.68 
C 114.037621 218.68 112.765737 219.206832 111.828102 220.144466 
C 110.890468 221.082101 110.363636 222.353984 110.363636 223.68 
C 110.363636 225.006016 110.890468 226.277899 111.828102 227.215534 
C 112.765737 228.153168 114.037621 228.68 115.363636 228.68 
z
" clip-path="url(#pe2f601e804)" style="fill: #ff00ff; fill-opacity: 0.6; stroke: #ffffff; stroke-opacity: 0.6; stroke-width: 2"/>
    <path d="M 115.363636 228.68 
C 116.689652 228.68 117.961536 228.153168 118.89917 227.215534 
C 119.836805 226.277899 120.363636 225.006016 120.363636 223.68 
C 120.363636 222.353984 119.836805 221.082101 118.89917 220.144466 
C 117.961536 219.206832 116.689652 218.68 115.363636 218.68 
C 114.037621 218.68 112.765737 219.206832 111.828102 220.144466 
C 110.890468 221.082101 110.363636 222.353984 110.363636 223.68 
C 110.363636 225.006016 110.890468 226.277899 111.828102 227.215534 
C 112.765737 228.153168 114.037621 228.68 115.363636 228.68 
z
" clip-path="url(#pe2f601e804)" style="fill: #ffa500; fill-opacity: 0.6; stroke: #ffffff; stroke-opacity: 0.6; stroke-width: 2"/>
    <path d="M 115.363636 161.48 
C 116.689652 161.48 117.961536 160.953168 118.89917 160.015534 
C 119.836805 159.077899 120.363636 157.806016 120.363636 156.48 
C 120.363636 155.153985 119.836805 153.882101 118.89917 152.944466 
C 117.961536 152.006832 116.689652 151.48 115.363636 151.48 
C 114.037621 151.48 112.765737 152.006832 111.828102 152.944466 
C 110.890468 153.882101 110.363636 155.153985 110.363636 156.48 
C 110.363636 157.806016 110.890468 159.077899 111.828102 160.015534 
C 112.765737 160.953168 114.037621 161.48 115.363636 161.48 
z
" clip-path="url(#pe2f601e804)" style="fill: #ffa500; fill-opacity: 0.6; stroke: #ffffff; stroke-opacity: 0.6; stroke-width: 2"/>
    <path d="M 115.363636 94.28 
C 116.689652 94.28 117.961536 93.753168 118.89917 92.815534 
C 119.836805 91.877899 120.363636 90.606015 120.363636 89.28 
C 120.363636 87.953984 119.836805 86.682101 118.89917 85.744466 
C 117.961536 84.806832 116.689652 84.28 115.363636 84.28 
C 114.037621 84.28 112.765737 84.806832 111.828102 85.744466 
C 110.890468 86.682101 110.363636 87.953984 110.363636 89.28 
C 110.363636 90.606015 110.890468 91.877899 111.828102 92.815534 
C 112.765737 93.753168 114.037621 94.28 115.363636 94.28 
z
" clip-path="url(#pe2f601e804)" style="fill: #00ffff; fill-opacity: 0.6; stroke: #ffffff; stroke-opacity: 0.6; stroke-width: 2"/>
    <path d="M 284.454545 515.932079 
C 290.674109 515.932079 296.639774 513.46102 301.037669 509.063124 
C 305.435565 504.665228 307.906624 498.699564 307.906624 492.48 
C 307.906624 486.260436 305.435565 480.294772 301.037669 475.896876 
C 296.639774 471.49898 290.674109 469.027921 284.454545 469.027921 
C 278.234981 469.027921 272.269317 471.49898 267.871422 475.896876 
C 263.473526 480.294772 261.002467 486.260436 261.002467 492.48 
C 261.002467 498.699564 263.473526 504.665228 267.871422 509.063124 
C 272.269317 513.46102 278.234981 515.932079 284.454545 515.932079 
z
" clip-path="url(#pe2f601e804)" style="fill: #00ffff; fill-opacity: 0.6; stroke: #ffffff; stroke-opacity: 0.6; stroke-width: 2"/>
    <path d="M 284.454545 512.48 
C 289.758607 512.48 294.846143 510.372674 298.596681 506.622136 
C 302.347219 502.871597 304.454545 497.784062 304.454545 492.48 
C 304.454545 487.175938 302.347219 482.088403 298.596681 478.337864 
C 294.846143 474.587326 289.758607 472.48 284.454545 472.48 
C 279.150483 472.48 274.062948 474.587326 270.31241 478.337864 
C 266.561872 482.088403 264.454545 487.175938 264.454545 492.48 
C 264.454545 497.784062 266.561872 502.871597 270.31241 506.622136 
C 274.062948 510.372674 279.150483 512.48 284.454545 512.48 
z
" clip-path="url(#pe2f601e804)" style="fill: #ff0000; fill-opacity: 0.6; stroke: #ffffff; stroke-opacity: 0.6; stroke-width: 2"/>
    <path d="M 284.454545 503.66034 
C 287.419606 503.66034 290.263625 502.482309 292.36024 500.385694 
C 294.456854 498.28908 295.634885 495.445061 295.634885 492.48 
C 295.634885 489.514939 294.456854 486.67092 292.36024 484.574306 
C 290.263625 482.477691 287.419606 481.29966 284.454545 481.29966 
C 281.489485 481.29966 278.645466 482.477691 276.548851 484.574306 
C 274.452237 486.67092 273.274206 489.514939 273.274206 492.48 
C 273.274206 495.445061 274.452237 498.28908 276.548851 500.385694 
C 278.645466 502.482309 281.489485 503.66034 284.454545 503.66034 
z
" clip-path="url(#pe2f601e804)" style="fill: #ff00ff; fill-opacity: 0.6; stroke: #ffffff; stroke-opacity: 0.6; stroke-width: 2"/>
    <path d="M 284.454545 503.66034 
C 287.419606 503.66034 290.263625 502.482309 292.36024 500.385694 
C 294.456854 498.28908 295.634885 495.445061 295.634885 492.48 
C 295.634885 489.514939 294.456854 486.67092 292.36024 484.574306 
C 290.263625 482.477691 287.419606 481.29966 284.454545 481.29966 
C 281.489485 481.29966 278.645466 482.477691 276.548851 484.574306 
C 274.452237 486.67092 273.274206 489.514939 273.274206 492.48 
C 273.274206 495.445061 274.452237 498.28908 276.548851 500.385694 
C 278.645466 502.482309 281.489485 503.66034 284.454545 503.66034 
z
" clip-path="url(#pe2f601e804)" style="fill: #ffa500; fill-opacity: 0.6; stroke: #ffffff; stroke-opacity: 0.6; stroke-width: 2"/>
    <path d="M 284.454545 441.863124 
C 288.852441 441.863124 293.070803 440.115821 296.180585 437.006039 
C 299.290367 433.896257 301.037669 429.677896 301.037669 425.28 
C 301.037669 420.882104 299.290367 416.663743 296.180585 413.553961 
C 293.070803 410.444179 288.852441 408.696876 284.454545 408.696876 
C 280.05665 408.696876 275.838288 410.444179 272.728506 413.553961 
C 269.618724 416.663743 267.871422 420.882104 267.871422 425.28 
C 267.871422 429.677896 269.618724 433.896257 272.728506 437.006039 
C 275.838288 440.115821 280.05665 441.863124 284.454545 441.863124 
z
" clip-path="url(#pe2f601e804)" style="fill: #00ffff; fill-opacity: 0.6; stroke: #ffffff; stroke-opacity: 0.6; stroke-width: 2"/>
    <path d="M 284.454545 440.28 
C 288.432592 440.28 292.248244 438.699505 295.061147 435.886602 
C 297.874051 433.073698 299.454545 429.258046 299.454545 425.28 
C 299.454545 421.301953 297.874051 417.486302 295.061147 414.673398 
C 292.248244 411.860495 288.432592 410.28 284.454545 410.28 
C 280.476499 410.28 276.660847 411.860495 273.847944 414.673398 
C 271.03504 417.486302 269.454545 421.301953 269.454545 425.28 
C 269.454545 429.258046 271.03504 433.073698 273.847944 435.886602 
C 276.660847 438.699505 280.476499 440.28 284.454545 440.28 
z
" clip-path="url(#pe2f601e804)" style="fill: #ff0000; fill-opacity: 0.6; stroke: #ffffff; stroke-opacity: 0.6; stroke-width: 2"/>
    <path d="M 284.454545 435.28 
C 287.106576 435.28 289.650344 434.226337 291.525613 432.351068 
C 293.400882 430.475799 294.454545 427.932031 294.454545 425.28 
C 294.454545 422.627969 293.400882 420.084201 291.525613 418.208932 
C 289.650344 416.333663 287.106576 415.28 284.454545 415.28 
C 281.802514 415.28 279.258747 416.333663 277.383478 418.208932 
C 275.508209 420.084201 274.454545 422.627969 274.454545 425.28 
C 274.454545 427.932031 275.508209 430.475799 277.383478 432.351068 
C 279.258747 434.226337 281.802514 435.28 284.454545 435.28 
z
" clip-path="url(#pe2f601e804)" style="fill: #ff00ff; fill-opacity: 0.6; stroke: #ffffff; stroke-opacity: 0.6; stroke-width: 2"/>
    <path d="M 284.454545 430.28 
C 285.780561 430.28 287.052445 429.753168 287.990079 428.815534 
C 288.927714 427.877899 289.454545 426.606015 289.454545 425.28 
C 289.454545 423.953984 288.927714 422.682101 287.990079 421.744466 
C 287.052445 420.806832 285.780561 420.28 284.454545 420.28 
C 283.12853 420.28 281.856646 420.806832 280.919012 421.744466 
C 279.981377 422.682101 279.454545 423.953984 279.454545 425.28 
C 279.454545 426.606015 279.981377 427.877899 280.919012 428.815534 
C 281.856646 429.753168 283.12853 430.28 284.454545 430.28 
z
" clip-path="url(#pe2f601e804)" style="fill: #ffa500; fill-opacity: 0.6; stroke: #ffffff; stroke-opacity: 0.6; stroke-width: 2"/>
    <path d="M 284.454545 366.740254 
C 286.751272 366.740254 288.954239 365.827755 290.57827 364.203724 
C 292.2023 362.579694 293.114799 360.376726 293.114799 358.08 
C 293.114799 355.783274 292.2023 353.580306 290.57827 351.956276 
C 288.954239 350.332245 286.751272 349.419746 284.454545 349.419746 
C 282.157819 349.419746 279.954852 350.332245 278.330821 351.956276 
C 276.70679 353.580306 275.794291 355.783274 275.794291 358.08 
C 275.794291 360.376726 276.70679 362.579694 278.330821 364.203724 
C 279.954852 365.827755 282.157819 366.740254 284.454545 366.740254 
z
" clip-path="url(#pe2f601e804)" style="fill: #00ffff; fill-opacity: 0.6; stroke: #ffffff; stroke-opacity: 0.6; stroke-width: 2"/>
    <path d="M 284.454545 368.08 
C 287.106576 368.08 289.650344 367.026337 291.525613 365.151068 
C 293.400882 363.275799 294.454545 360.732031 294.454545 358.08 
C 294.454545 355.427969 293.400882 352.884201 291.525613 351.008932 
C 289.650344 349.133663 287.106576 348.08 284.454545 348.08 
C 281.802514 348.08 279.258747 349.133663 277.383478 351.008932 
C 275.508209 352.884201 274.454545 355.427969 274.454545 358.08 
C 274.454545 360.732031 275.508209 363.275799 277.383478 365.151068 
C 279.258747 367.026337 281.802514 368.08 284.454545 368.08 
z
" clip-path="url(#pe2f601e804)" style="fill: #ff0000; fill-opacity: 0.6; stroke: #ffffff; stroke-opacity: 0.6; stroke-width: 2"/>
    <path d="M 284.454545 363.08 
C 285.780561 363.08 287.052445 362.553168 287.990079 361.615534 
C 288.927714 360.677899 289.454545 359.406015 289.454545 358.08 
C 289.454545 356.753985 288.927714 355.482101 287.990079 354.544466 
C 287.052445 353.606832 285.780561 353.08 284.454545 353.08 
C 283.12853 353.08 281.856646 353.606832 280.919012 354.544466 
C 279.981377 355.482101 279.454545 356.753985 279.454545 358.08 
C 279.454545 359.406015 279.981377 360.677899 280.919012 361.615534 
C 281.856646 362.553168 283.12853 363.08 284.454545 363.08 
z
" clip-path="url(#pe2f601e804)" style="fill: #ff00ff; fill-opacity: 0.6; stroke: #ffffff; stroke-opacity: 0.6; stroke-width: 2"/>
    <path d="M 284.454545 363.08 
C 285.780561 363.08 287.052445 362.553168 287.990079 361.615534 
C 288.927714 360.677899 289.454545 359.406015 289.454545 358.08 
C 289.454545 356.753985 288.927714 355.482101 287.990079 354.544466 
C 287.052445 353.606832 285.780561 353.08 284.454545 353.08 
C 283.12853 353.08 281.856646 353.606832 280.919012 354.544466 
C 279.981377 355.482101 279.454545 356.753985 279.454545 358.08 
C 279.454545 359.406015 279.981377 360.677899 280.919012 361.615534 
C 281.856646 362.553168 283.12853 363.08 284.454545 363.08 
z
" clip-path="url(#pe2f601e804)" style="fill: #ffa500; fill-opacity: 0.6; stroke: #ffffff; stroke-opacity: 0.6; stroke-width: 2"/>
    <path d="M 284.454545 300.88 
C 287.106576 300.88 289.650344 299.826337 291.525613 297.951068 
C 293.400882 296.075799 294.454545 293.532031 294.454545 290.88 
C 294.454545 288.227969 293.400882 285.684201 291.525613 283.808932 
C 289.650344 281.933663 287.106576 280.88 284.454545 280.88 
C 281.802514 280.88 279.258747 281.933663 277.383478 283.808932 
C 275.508209 285.684201 274.454545 288.227969 274.454545 290.88 
C 274.454545 293.532031 275.508209 296.075799 277.383478 297.951068 
C 279.258747 299.826337 281.802514 300.88 284.454545 300.88 
z
" clip-path="url(#pe2f601e804)" style="fill: #00ffff; fill-opacity: 0.6; stroke: #ffffff; stroke-opacity: 0.6; stroke-width: 2"/>
    <path d="M 284.454545 303.127449 
C 287.702607 303.127449 290.818073 301.83698 293.114799 299.540254 
C 295.411526 297.243528 296.701994 294.128061 296.701994 290.88 
C 296.701994 287.631939 295.411526 284.516472 293.114799 282.219746 
C 290.818073 279.92302 287.702607 278.632551 284.454545 278.632551 
C 281.206484 278.632551 278.091018 279.92302 275.794291 282.219746 
C 273.497565 284.516472 272.207097 287.631939 272.207097 290.88 
C 272.207097 294.128061 273.497565 297.243528 275.794291 299.540254 
C 278.091018 301.83698 281.206484 303.127449 284.454545 303.127449 
z
" clip-path="url(#pe2f601e804)" style="fill: #ff0000; fill-opacity: 0.6; stroke: #ffffff; stroke-opacity: 0.6; stroke-width: 2"/>
    <path d="M 284.454545 299.540254 
C 286.751272 299.540254 288.954239 298.627755 290.57827 297.003724 
C 292.2023 295.379694 293.114799 293.176726 293.114799 290.88 
C 293.114799 288.583274 292.2023 286.380306 290.57827 284.756276 
C 288.954239 283.132245 286.751272 282.219746 284.454545 282.219746 
C 282.157819 282.219746 279.954852 283.132245 278.330821 284.756276 
C 276.70679 286.380306 275.794291 288.583274 275.794291 290.88 
C 275.794291 293.176726 276.70679 295.379694 278.330821 297.003724 
C 279.954852 298.627755 282.157819 299.540254 284.454545 299.540254 
z
" clip-path="url(#pe2f601e804)" style="fill: #ff00ff; fill-opacity: 0.6; stroke: #ffffff; stroke-opacity: 0.6; stroke-width: 2"/>
    <path d="M 284.454545 242.388287 
C 289.416041 242.388287 294.174995 240.417064 297.683302 236.908757 
C 301.191609 233.400449 303.162832 228.641496 303.162832 223.68 
C 303.162832 218.718504 301.191609 213.959551 297.683302 210.451243 
C 294.174995 206.942936 289.416041 204.971713 284.454545 204.971713 
C 279.49305 204.971713 274.734096 206.942936 271.225789 210.451243 
C 267.717482 213.959551 265.746259 218.718504 265.746259 223.68 
C 265.746259 228.641496 267.717482 233.400449 271.225789 236.908757 
C 274.734096 240.417064 279.49305 242.388287 284.454545 242.388287 
z
" clip-path="url(#pe2f601e804)" style="fill: #00ffff; fill-opacity: 0.6; stroke: #ffffff; stroke-opacity: 0.6; stroke-width: 2"/>
    <path d="M 284.454545 234.86034 
C 287.419606 234.86034 290.263625 233.682309 292.36024 231.585694 
C 294.456854 229.48908 295.634885 226.645061 295.634885 223.68 
C 295.634885 220.714939 294.456854 217.87092 292.36024 215.774306 
C 290.263625 213.677691 287.419606 212.49966 284.454545 212.49966 
C 281.489485 212.49966 278.645466 213.677691 276.548851 215.774306 
C 274.452237 217.87092 273.274206 220.714939 273.274206 223.68 
C 273.274206 226.645061 274.452237 229.48908 276.548851 231.585694 
C 278.645466 233.682309 281.489485 234.86034 284.454545 234.86034 
z
" clip-path="url(#pe2f601e804)" style="fill: #ff0000; fill-opacity: 0.6; stroke: #ffffff; stroke-opacity: 0.6; stroke-width: 2"/>
    <path d="M 284.454545 230.751068 
C 286.329815 230.751068 288.12853 230.006016 289.454545 228.68 
C 290.780561 227.353984 291.525613 225.555269 291.525613 223.68 
C 291.525613 221.804731 290.780561 220.006016 289.454545 218.68 
C 288.12853 217.353984 286.329815 216.608932 284.454545 216.608932 
C 282.579276 216.608932 280.780561 217.353984 279.454545 218.68 
C 278.12853 220.006016 277.383478 221.804731 277.383478 223.68 
C 277.383478 225.555269 278.12853 227.353984 279.454545 228.68 
C 280.780561 230.006016 282.579276 230.751068 284.454545 230.751068 
z
" clip-path="url(#pe2f601e804)" style="fill: #ff00ff; fill-opacity: 0.6; stroke: #ffffff; stroke-opacity: 0.6; stroke-width: 2"/>
    <path d="M 284.454545 228.68 
C 285.780561 228.68 287.052445 228.153168 287.990079 227.215534 
C 288.927714 226.277899 289.454545 225.006016 289.454545 223.68 
C 289.454545 222.353984 288.927714 221.082101 287.990079 220.144466 
C 287.052445 219.206832 285.780561 218.68 284.454545 218.68 
C 283.12853 218.68 281.856646 219.206832 280.919012 220.144466 
C 279.981377 221.082101 279.454545 222.353984 279.454545 223.68 
C 279.454545 225.006016 279.981377 226.277899 280.919012 227.215534 
C 281.856646 228.153168 283.12853 228.68 284.454545 228.68 
z
" clip-path="url(#pe2f601e804)" style="fill: #ffa500; fill-opacity: 0.6; stroke: #ffffff; stroke-opacity: 0.6; stroke-width: 2"/>
    <path d="M 284.454545 161.48 
C 285.780561 161.48 287.052445 160.953168 287.990079 160.015534 
C 288.927714 159.077899 289.454545 157.806016 289.454545 156.48 
C 289.454545 155.153985 288.927714 153.882101 287.990079 152.944466 
C 287.052445 152.006832 285.780561 151.48 284.454545 151.48 
C 283.12853 151.48 281.856646 152.006832 280.919012 152.944466 
C 279.981377 153.882101 279.454545 155.153985 279.454545 156.48 
C 279.454545 157.806016 279.981377 159.077899 280.919012 160.015534 
C 281.856646 160.953168 283.12853 161.48 284.454545 161.48 
z
" clip-path="url(#pe2f601e804)" style="fill: #ffa500; fill-opacity: 0.6; stroke: #ffffff; stroke-opacity: 0.6; stroke-width: 2"/>
    <path d="M 453.545455 504.727449 
C 456.793516 504.727449 459.908982 503.43698 462.205709 501.140254 
C 464.502435 498.843528 465.792903 495.728061 465.792903 492.48 
C 465.792903 489.231939 464.502435 486.116472 462.205709 483.819746 
C 459.908982 481.52302 456.793516 480.232551 453.545455 480.232551 
C 450.297393 480.232551 447.181927 481.52302 444.885201 483.819746 
C 442.588474 486.116472 441.298006 489.231939 441.298006 492.48 
C 441.298006 495.728061 442.588474 498.843528 444.885201 501.140254 
C 447.181927 503.43698 450.297393 504.727449 453.545455 504.727449 
z
" clip-path="url(#pe2f601e804)" style="fill: #00ffff; fill-opacity: 0.6; stroke: #ffffff; stroke-opacity: 0.6; stroke-width: 2"/>
    <path d="M 453.545455 516.974897 
C 460.041577 516.974897 466.27251 514.393961 470.865963 509.800508 
C 475.459415 505.207056 478.040352 498.976123 478.040352 492.48 
C 478.040352 485.983877 475.459415 479.752944 470.865963 475.159492 
C 466.27251 470.566039 460.041577 467.985103 453.545455 467.985103 
C 447.049332 467.985103 440.818399 470.566039 436.224946 475.159492 
C 431.631494 479.752944 429.050557 485.983877 429.050557 492.48 
C 429.050557 498.976123 431.631494 505.207056 436.224946 509.800508 
C 440.818399 514.393961 447.049332 516.974897 453.545455 516.974897 
z
" clip-path="url(#pe2f601e804)" style="fill: #ff0000; fill-opacity: 0.6; stroke: #ffffff; stroke-opacity: 0.6; stroke-width: 2"/>
    <path d="M 453.545455 503.66034 
C 456.510515 503.66034 459.354534 502.482309 461.451149 500.385694 
C 463.547763 498.28908 464.725794 495.445061 464.725794 492.48 
C 464.725794 489.514939 463.547763 486.67092 461.451149 484.574306 
C 459.354534 482.477691 456.510515 481.29966 453.545455 481.29966 
C 450.580394 481.29966 447.736375 482.477691 445.63976 484.574306 
C 443.543146 486.67092 442.365115 489.514939 442.365115 492.48 
C 442.365115 495.445061 443.543146 498.28908 445.63976 500.385694 
C 447.736375 502.482309 450.580394 503.66034 453.545455 503.66034 
z
" clip-path="url(#pe2f601e804)" style="fill: #ff00ff; fill-opacity: 0.6; stroke: #ffffff; stroke-opacity: 0.6; stroke-width: 2"/>
    <path d="M 453.545455 497.48 
C 454.87147 497.48 456.143354 496.953168 457.080988 496.015534 
C 458.018623 495.077899 458.545455 493.806016 458.545455 492.48 
C 458.545455 491.153985 458.018623 489.882101 457.080988 488.944466 
C 456.143354 488.006832 454.87147 487.48 453.545455 487.48 
C 452.219439 487.48 450.947555 488.006832 450.009921 488.944466 
C 449.072286 489.882101 448.545455 491.153985 448.545455 492.48 
C 448.545455 493.806016 449.072286 495.077899 450.009921 496.015534 
C 450.947555 496.953168 452.219439 497.48 453.545455 497.48 
z
" clip-path="url(#pe2f601e804)" style="fill: #ffa500; fill-opacity: 0.6; stroke: #ffffff; stroke-opacity: 0.6; stroke-width: 2"/>
    <path d="M 453.545455 432.351068 
C 455.420724 432.351068 457.219439 431.606015 458.545455 430.28 
C 459.87147 428.953984 460.616522 427.155269 460.616522 425.28 
C 460.616522 423.404731 459.87147 421.606015 458.545455 420.28 
C 457.219439 418.953984 455.420724 418.208932 453.545455 418.208932 
C 451.670185 418.208932 449.87147 418.953984 448.545455 420.28 
C 447.219439 421.606015 446.474387 423.404731 446.474387 425.28 
C 446.474387 427.155269 447.219439 428.953984 448.545455 430.28 
C 449.87147 431.606015 451.670185 432.351068 453.545455 432.351068 
z
" clip-path="url(#pe2f601e804)" style="fill: #00ffff; fill-opacity: 0.6; stroke: #ffffff; stroke-opacity: 0.6; stroke-width: 2"/>
    <path d="M 453.545455 444.644917 
C 458.68109 444.644917 463.607075 442.604507 467.238518 438.973064 
C 470.869961 435.341621 472.910371 430.415636 472.910371 425.28 
C 472.910371 420.144364 470.869961 415.218379 467.238518 411.586936 
C 463.607075 407.955493 458.68109 405.915083 453.545455 405.915083 
C 448.409819 405.915083 443.483834 407.955493 439.852391 411.586936 
C 436.220948 415.218379 434.180538 420.144364 434.180538 425.28 
C 434.180538 430.415636 436.220948 435.341621 439.852391 438.973064 
C 443.483834 442.604507 448.409819 444.644917 453.545455 444.644917 
z
" clip-path="url(#pe2f601e804)" style="fill: #ff0000; fill-opacity: 0.6; stroke: #ffffff; stroke-opacity: 0.6; stroke-width: 2"/>
    <path d="M 453.545455 433.940254 
C 455.842181 433.940254 458.045148 433.027755 459.669179 431.403724 
C 461.29321 429.779694 462.205709 427.576726 462.205709 425.28 
C 462.205709 422.983274 461.29321 420.780306 459.669179 419.156276 
C 458.045148 417.532245 455.842181 416.619746 453.545455 416.619746 
C 451.248728 416.619746 449.045761 417.532245 447.42173 419.156276 
C 445.7977 420.780306 444.885201 422.983274 444.885201 425.28 
C 444.885201 427.576726 445.7977 429.779694 447.42173 431.403724 
C 449.045761 433.027755 451.248728 433.940254 453.545455 433.940254 
z
" clip-path="url(#pe2f601e804)" style="fill: #ff00ff; fill-opacity: 0.6; stroke: #ffffff; stroke-opacity: 0.6; stroke-width: 2"/>
    <path d="M 453.545455 363.08 
C 454.87147 363.08 456.143354 362.553168 457.080988 361.615534 
C 458.018623 360.677899 458.545455 359.406015 458.545455 358.08 
C 458.545455 356.753985 458.018623 355.482101 457.080988 354.544466 
C 456.143354 353.606832 454.87147 353.08 453.545455 353.08 
C 452.219439 353.08 450.947555 353.606832 450.009921 354.544466 
C 449.072286 355.482101 448.545455 356.753985 448.545455 358.08 
C 448.545455 359.406015 449.072286 360.677899 450.009921 361.615534 
C 450.947555 362.553168 452.219439 363.08 453.545455 363.08 
z
" clip-path="url(#pe2f601e804)" style="fill: #00ffff; fill-opacity: 0.6; stroke: #ffffff; stroke-opacity: 0.6; stroke-width: 2"/>
    <path d="M 453.545455 373.08 
C 457.523501 373.08 461.339153 371.499505 464.152056 368.686602 
C 466.96496 365.873698 468.545455 362.058046 468.545455 358.08 
C 468.545455 354.101953 466.96496 350.286302 464.152056 347.473398 
C 461.339153 344.660495 457.523501 343.08 453.545455 343.08 
C 449.567408 343.08 445.751756 344.660495 442.938853 347.473398 
C 440.125949 350.286302 438.545455 354.101953 438.545455 358.08 
C 438.545455 362.058046 440.125949 365.873698 442.938853 368.686602 
C 445.751756 371.499505 449.567408 373.08 453.545455 373.08 
z
" clip-path="url(#pe2f601e804)" style="fill: #ff0000; fill-opacity: 0.6; stroke: #ffffff; stroke-opacity: 0.6; stroke-width: 2"/>
    <path d="M 453.545455 297.951068 
C 455.420724 297.951068 457.219439 297.206015 458.545455 295.88 
C 459.87147 294.553985 460.616522 292.755269 460.616522 290.88 
C 460.616522 289.004731 459.87147 287.206015 458.545455 285.88 
C 457.219439 284.553985 455.420724 283.808932 453.545455 283.808932 
C 451.670185 283.808932 449.87147 284.553985 448.545455 285.88 
C 447.219439 287.206015 446.474387 289.004731 446.474387 290.88 
C 446.474387 292.755269 447.219439 294.553985 448.545455 295.88 
C 449.87147 297.206015 451.670185 297.951068 453.545455 297.951068 
z
" clip-path="url(#pe2f601e804)" style="fill: #00ffff; fill-opacity: 0.6; stroke: #ffffff; stroke-opacity: 0.6; stroke-width: 2"/>
    <path d="M 453.545455 307.463124 
C 457.94335 307.463124 462.161712 305.715821 465.271494 302.606039 
C 468.381276 299.496257 470.128578 295.277896 470.128578 290.88 
C 470.128578 286.482104 468.381276 282.263743 465.271494 279.153961 
C 462.161712 276.044179 457.94335 274.296876 453.545455 274.296876 
C 449.147559 274.296876 444.929197 276.044179 441.819415 279.153961 
C 438.709633 282.263743 436.962331 286.482104 436.962331 290.88 
C 436.962331 295.277896 438.709633 299.496257 441.819415 302.606039 
C 444.929197 305.715821 449.147559 307.463124 453.545455 307.463124 
z
" clip-path="url(#pe2f601e804)" style="fill: #ff0000; fill-opacity: 0.6; stroke: #ffffff; stroke-opacity: 0.6; stroke-width: 2"/>
    <path d="M 453.545455 299.540254 
C 455.842181 299.540254 458.045148 298.627755 459.669179 297.003724 
C 461.29321 295.379694 462.205709 293.176726 462.205709 290.88 
C 462.205709 288.583274 461.29321 286.380306 459.669179 284.756276 
C 458.045148 283.132245 455.842181 282.219746 453.545455 282.219746 
C 451.248728 282.219746 449.045761 283.132245 447.42173 284.756276 
C 445.7977 286.380306 444.885201 288.583274 444.885201 290.88 
C 444.885201 293.176726 445.7977 295.379694 447.42173 297.003724 
C 449.045761 298.627755 451.248728 299.540254 453.545455 299.540254 
z
" clip-path="url(#pe2f601e804)" style="fill: #ff00ff; fill-opacity: 0.6; stroke: #ffffff; stroke-opacity: 0.6; stroke-width: 2"/>
    <path d="M 453.545455 232.340254 
C 455.842181 232.340254 458.045148 231.427755 459.669179 229.803724 
C 461.29321 228.179694 462.205709 225.976726 462.205709 223.68 
C 462.205709 221.383274 461.29321 219.180306 459.669179 217.556276 
C 458.045148 215.932245 455.842181 215.019746 453.545455 215.019746 
C 451.248728 215.019746 449.045761 215.932245 447.42173 217.556276 
C 445.7977 219.180306 444.885201 221.383274 444.885201 223.68 
C 444.885201 225.976726 445.7977 228.179694 447.42173 229.803724 
C 449.045761 231.427755 451.248728 232.340254 453.545455 232.340254 
z
" clip-path="url(#pe2f601e804)" style="fill: #00ffff; fill-opacity: 0.6; stroke: #ffffff; stroke-opacity: 0.6; stroke-width: 2"/>
    <path d="M 453.545455 235.927449 
C 456.793516 235.927449 459.908982 234.63698 462.205709 232.340254 
C 464.502435 230.043528 465.792903 226.928061 465.792903 223.68 
C 465.792903 220.431939 464.502435 217.316472 462.205709 215.019746 
C 459.908982 212.72302 456.793516 211.432551 453.545455 211.432551 
C 450.297393 211.432551 447.181927 212.72302 444.885201 215.019746 
C 442.588474 217.316472 441.298006 220.431939 441.298006 223.68 
C 441.298006 226.928061 442.588474 230.043528 444.885201 232.340254 
C 447.181927 234.63698 450.297393 235.927449 453.545455 235.927449 
z
" clip-path="url(#pe2f601e804)" style="fill: #ff0000; fill-opacity: 0.6; stroke: #ffffff; stroke-opacity: 0.6; stroke-width: 2"/>
    <path d="M 453.545455 228.68 
C 454.87147 228.68 456.143354 228.153168 457.080988 227.215534 
C 458.018623 226.277899 458.545455 225.006016 458.545455 223.68 
C 458.545455 222.353984 458.018623 221.082101 457.080988 220.144466 
C 456.143354 219.206832 454.87147 218.68 453.545455 218.68 
C 452.219439 218.68 450.947555 219.206832 450.009921 220.144466 
C 449.072286 221.082101 448.545455 222.353984 448.545455 223.68 
C 448.545455 225.006016 449.072286 226.277899 450.009921 227.215534 
C 450.947555 228.153168 452.219439 228.68 453.545455 228.68 
z
" clip-path="url(#pe2f601e804)" style="fill: #ff00ff; fill-opacity: 0.6; stroke: #ffffff; stroke-opacity: 0.6; stroke-width: 2"/>
    <path d="M 453.545455 161.48 
C 454.87147 161.48 456.143354 160.953168 457.080988 160.015534 
C 458.018623 159.077899 458.545455 157.806016 458.545455 156.48 
C 458.545455 155.153985 458.018623 153.882101 457.080988 152.944466 
C 456.143354 152.006832 454.87147 151.48 453.545455 151.48 
C 452.219439 151.48 450.947555 152.006832 450.009921 152.944466 
C 449.072286 153.882101 448.545455 155.153985 448.545455 156.48 
C 448.545455 157.806016 449.072286 159.077899 450.009921 160.015534 
C 450.947555 160.953168 452.219439 161.48 453.545455 161.48 
z
" clip-path="url(#pe2f601e804)" style="fill: #ff0000; fill-opacity: 0.6; stroke: #ffffff; stroke-opacity: 0.6; stroke-width: 2"/>
    <path d="M 453.545455 161.48 
C 454.87147 161.48 456.143354 160.953168 457.080988 160.015534 
C 458.018623 159.077899 458.545455 157.806016 458.545455 156.48 
C 458.545455 155.153985 458.018623 153.882101 457.080988 152.944466 
C 456.143354 152.006832 454.87147 151.48 453.545455 151.48 
C 452.219439 151.48 450.947555 152.006832 450.009921 152.944466 
C 449.072286 153.882101 448.545455 155.153985 448.545455 156.48 
C 448.545455 157.806016 449.072286 159.077899 450.009921 160.015534 
C 450.947555 160.953168 452.219439 161.48 453.545455 161.48 
z
" clip-path="url(#pe2f601e804)" style="fill: #ff00ff; fill-opacity: 0.6; stroke: #ffffff; stroke-opacity: 0.6; stroke-width: 2"/>
    <path d="M 453.545455 94.28 
C 454.87147 94.28 456.143354 93.753168 457.080988 92.815534 
C 458.018623 91.877899 458.545455 90.606015 458.545455 89.28 
C 458.545455 87.953984 458.018623 86.682101 457.080988 85.744466 
C 456.143354 84.806832 454.87147 84.28 453.545455 84.28 
C 452.219439 84.28 450.947555 84.806832 450.009921 85.744466 
C 449.072286 86.682101 448.545455 87.953984 448.545455 89.28 
C 448.545455 90.606015 449.072286 91.877899 450.009921 92.815534 
C 450.947555 93.753168 452.219439 94.28 453.545455 94.28 
z
" clip-path="url(#pe2f601e804)" style="fill: #ff0000; fill-opacity: 0.6; stroke: #ffffff; stroke-opacity: 0.6; stroke-width: 2"/>
    <path d="M 622.636364 505.708757 
C 626.144671 505.708757 629.509759 504.314891 631.990507 501.834143 
C 634.471255 499.353396 635.86512 495.988307 635.86512 492.48 
C 635.86512 488.971693 634.471255 485.606604 631.990507 483.125857 
C 629.509759 480.645109 626.144671 479.251243 622.636364 479.251243 
C 619.128056 479.251243 615.762968 480.645109 613.28222 483.125857 
C 610.801472 485.606604 609.407607 488.971693 609.407607 492.48 
C 609.407607 495.988307 610.801472 499.353396 613.28222 501.834143 
C 615.762968 504.314891 619.128056 505.708757 622.636364 505.708757 
z
" clip-path="url(#pe2f601e804)" style="fill: #00ffff; fill-opacity: 0.6; stroke: #ffffff; stroke-opacity: 0.6; stroke-width: 2"/>
    <path d="M 622.636364 509.063124 
C 627.03426 509.063124 631.252621 507.315821 634.362403 504.206039 
C 637.472185 501.096257 639.219488 496.877896 639.219488 492.48 
C 639.219488 488.082104 637.472185 483.863743 634.362403 480.753961 
C 631.252621 477.644179 627.03426 475.896876 622.636364 475.896876 
C 618.238468 475.896876 614.020106 477.644179 610.910324 480.753961 
C 607.800542 483.863743 606.05324 488.082104 606.05324 492.48 
C 606.05324 496.877896 607.800542 501.096257 610.910324 504.206039 
C 614.020106 507.315821 618.238468 509.063124 622.636364 509.063124 
z
" clip-path="url(#pe2f601e804)" style="fill: #ff0000; fill-opacity: 0.6; stroke: #ffffff; stroke-opacity: 0.6; stroke-width: 2"/>
    <path d="M 622.636364 505.708757 
C 626.144671 505.708757 629.509759 504.314891 631.990507 501.834143 
C 634.471255 499.353396 635.86512 495.988307 635.86512 492.48 
C 635.86512 488.971693 634.471255 485.606604 631.990507 483.125857 
C 629.509759 480.645109 626.144671 479.251243 622.636364 479.251243 
C 619.128056 479.251243 615.762968 480.645109 613.28222 483.125857 
C 610.801472 485.606604 609.407607 488.971693 609.407607 492.48 
C 609.407607 495.988307 610.801472 499.353396 613.28222 501.834143 
C 615.762968 504.314891 619.128056 505.708757 622.636364 505.708757 
z
" clip-path="url(#pe2f601e804)" style="fill: #ff00ff; fill-opacity: 0.6; stroke: #ffffff; stroke-opacity: 0.6; stroke-width: 2"/>
    <path d="M 622.636364 503.66034 
C 625.601424 503.66034 628.445443 502.482309 630.542058 500.385694 
C 632.638672 498.28908 633.816704 495.445061 633.816704 492.48 
C 633.816704 489.514939 632.638672 486.67092 630.542058 484.574306 
C 628.445443 482.477691 625.601424 481.29966 622.636364 481.29966 
C 619.671303 481.29966 616.827284 482.477691 614.730669 484.574306 
C 612.634055 486.67092 611.456024 489.514939 611.456024 492.48 
C 611.456024 495.445061 612.634055 498.28908 614.730669 500.385694 
C 616.827284 502.482309 619.671303 503.66034 622.636364 503.66034 
z
" clip-path="url(#pe2f601e804)" style="fill: #ffa500; fill-opacity: 0.6; stroke: #ffffff; stroke-opacity: 0.6; stroke-width: 2"/>
    <path d="M 622.636364 432.351068 
C 624.511633 432.351068 626.310348 431.606015 627.636364 430.28 
C 628.962379 428.953984 629.707431 427.155269 629.707431 425.28 
C 629.707431 423.404731 628.962379 421.606015 627.636364 420.28 
C 626.310348 418.953984 624.511633 418.208932 622.636364 418.208932 
C 620.761095 418.208932 618.962379 418.953984 617.636364 420.28 
C 616.310348 421.606015 615.565296 423.404731 615.565296 425.28 
C 615.565296 427.155269 616.310348 428.953984 617.636364 430.28 
C 618.962379 431.606015 620.761095 432.351068 622.636364 432.351068 
z
" clip-path="url(#pe2f601e804)" style="fill: #00ffff; fill-opacity: 0.6; stroke: #ffffff; stroke-opacity: 0.6; stroke-width: 2"/>
    <path d="M 622.636364 435.28 
C 625.288395 435.28 627.832162 434.226337 629.707431 432.351068 
C 631.582701 430.475799 632.636364 427.932031 632.636364 425.28 
C 632.636364 422.627969 631.582701 420.084201 629.707431 418.208932 
C 627.832162 416.333663 625.288395 415.28 622.636364 415.28 
C 619.984333 415.28 617.440565 416.333663 615.565296 418.208932 
C 613.690027 420.084201 612.636364 422.627969 612.636364 425.28 
C 612.636364 427.932031 613.690027 430.475799 615.565296 432.351068 
C 617.440565 434.226337 619.984333 435.28 622.636364 435.28 
z
" clip-path="url(#pe2f601e804)" style="fill: #ff0000; fill-opacity: 0.6; stroke: #ffffff; stroke-opacity: 0.6; stroke-width: 2"/>
    <path d="M 622.636364 436.46034 
C 625.601424 436.46034 628.445443 435.282309 630.542058 433.185694 
C 632.638672 431.08908 633.816704 428.245061 633.816704 425.28 
C 633.816704 422.314939 632.638672 419.47092 630.542058 417.374306 
C 628.445443 415.277691 625.601424 414.09966 622.636364 414.09966 
C 619.671303 414.09966 616.827284 415.277691 614.730669 417.374306 
C 612.634055 419.47092 611.456024 422.314939 611.456024 425.28 
C 611.456024 428.245061 612.634055 431.08908 614.730669 433.185694 
C 616.827284 435.282309 619.671303 436.46034 622.636364 436.46034 
z
" clip-path="url(#pe2f601e804)" style="fill: #ff00ff; fill-opacity: 0.6; stroke: #ffffff; stroke-opacity: 0.6; stroke-width: 2"/>
    <path d="M 622.636364 430.28 
C 623.962379 430.28 625.234263 429.753168 626.171898 428.815534 
C 627.109532 427.877899 627.636364 426.606015 627.636364 425.28 
C 627.636364 423.953984 627.109532 422.682101 626.171898 421.744466 
C 625.234263 420.806832 623.962379 420.28 622.636364 420.28 
C 621.310348 420.28 620.038464 420.806832 619.10083 421.744466 
C 618.163195 422.682101 617.636364 423.953984 617.636364 425.28 
C 617.636364 426.606015 618.163195 427.877899 619.10083 428.815534 
C 620.038464 429.753168 621.310348 430.28 622.636364 430.28 
z
" clip-path="url(#pe2f601e804)" style="fill: #ffa500; fill-opacity: 0.6; stroke: #ffffff; stroke-opacity: 0.6; stroke-width: 2"/>
    <path d="M 622.636364 363.08 
C 623.962379 363.08 625.234263 362.553168 626.171898 361.615534 
C 627.109532 360.677899 627.636364 359.406015 627.636364 358.08 
C 627.636364 356.753985 627.109532 355.482101 626.171898 354.544466 
C 625.234263 353.606832 623.962379 353.08 622.636364 353.08 
C 621.310348 353.08 620.038464 353.606832 619.10083 354.544466 
C 618.163195 355.482101 617.636364 356.753985 617.636364 358.08 
C 617.636364 359.406015 618.163195 360.677899 619.10083 361.615534 
C 620.038464 362.553168 621.310348 363.08 622.636364 363.08 
z
" clip-path="url(#pe2f601e804)" style="fill: #00ffff; fill-opacity: 0.6; stroke: #ffffff; stroke-opacity: 0.6; stroke-width: 2"/>
    <path d="M 622.636364 363.08 
C 623.962379 363.08 625.234263 362.553168 626.171898 361.615534 
C 627.109532 360.677899 627.636364 359.406015 627.636364 358.08 
C 627.636364 356.753985 627.109532 355.482101 626.171898 354.544466 
C 625.234263 353.606832 623.962379 353.08 622.636364 353.08 
C 621.310348 353.08 620.038464 353.606832 619.10083 354.544466 
C 618.163195 355.482101 617.636364 356.753985 617.636364 358.08 
C 617.636364 359.406015 618.163195 360.677899 619.10083 361.615534 
C 620.038464 362.553168 621.310348 363.08 622.636364 363.08 
z
" clip-path="url(#pe2f601e804)" style="fill: #ff0000; fill-opacity: 0.6; stroke: #ffffff; stroke-opacity: 0.6; stroke-width: 2"/>
    <path d="M 622.636364 365.151068 
C 624.511633 365.151068 626.310348 364.406015 627.636364 363.08 
C 628.962379 361.753985 629.707431 359.955269 629.707431 358.08 
C 629.707431 356.204731 628.962379 354.406015 627.636364 353.08 
C 626.310348 351.753985 624.511633 351.008932 622.636364 351.008932 
C 620.761095 351.008932 618.962379 351.753985 617.636364 353.08 
C 616.310348 354.406015 615.565296 356.204731 615.565296 358.08 
C 615.565296 359.955269 616.310348 361.753985 617.636364 363.08 
C 618.962379 364.406015 620.761095 365.151068 622.636364 365.151068 
z
" clip-path="url(#pe2f601e804)" style="fill: #ff00ff; fill-opacity: 0.6; stroke: #ffffff; stroke-opacity: 0.6; stroke-width: 2"/>
    <path d="M 622.636364 363.08 
C 623.962379 363.08 625.234263 362.553168 626.171898 361.615534 
C 627.109532 360.677899 627.636364 359.406015 627.636364 358.08 
C 627.636364 356.753985 627.109532 355.482101 626.171898 354.544466 
C 625.234263 353.606832 623.962379 353.08 622.636364 353.08 
C 621.310348 353.08 620.038464 353.606832 619.10083 354.544466 
C 618.163195 355.482101 617.636364 356.753985 617.636364 358.08 
C 617.636364 359.406015 618.163195 360.677899 619.10083 361.615534 
C 620.038464 362.553168 621.310348 363.08 622.636364 363.08 
z
" clip-path="url(#pe2f601e804)" style="fill: #ffa500; fill-opacity: 0.6; stroke: #ffffff; stroke-opacity: 0.6; stroke-width: 2"/>
    <path d="M 622.636364 297.951068 
C 624.511633 297.951068 626.310348 297.206015 627.636364 295.88 
C 628.962379 294.553985 629.707431 292.755269 629.707431 290.88 
C 629.707431 289.004731 628.962379 287.206015 627.636364 285.88 
C 626.310348 284.553985 624.511633 283.808932 622.636364 283.808932 
C 620.761095 283.808932 618.962379 284.553985 617.636364 285.88 
C 616.310348 287.206015 615.565296 289.004731 615.565296 290.88 
C 615.565296 292.755269 616.310348 294.553985 617.636364 295.88 
C 618.962379 297.206015 620.761095 297.951068 622.636364 297.951068 
z
" clip-path="url(#pe2f601e804)" style="fill: #00ffff; fill-opacity: 0.6; stroke: #ffffff; stroke-opacity: 0.6; stroke-width: 2"/>
    <path d="M 622.636364 300.88 
C 625.288395 300.88 627.832162 299.826337 629.707431 297.951068 
C 631.582701 296.075799 632.636364 293.532031 632.636364 290.88 
C 632.636364 288.227969 631.582701 285.684201 629.707431 283.808932 
C 627.832162 281.933663 625.288395 280.88 622.636364 280.88 
C 619.984333 280.88 617.440565 281.933663 615.565296 283.808932 
C 613.690027 285.684201 612.636364 288.227969 612.636364 290.88 
C 612.636364 293.532031 613.690027 296.075799 615.565296 297.951068 
C 617.440565 299.826337 619.984333 300.88 622.636364 300.88 
z
" clip-path="url(#pe2f601e804)" style="fill: #ff0000; fill-opacity: 0.6; stroke: #ffffff; stroke-opacity: 0.6; stroke-width: 2"/>
    <path d="M 622.636364 299.540254 
C 624.93309 299.540254 627.136057 298.627755 628.760088 297.003724 
C 630.384119 295.379694 631.296618 293.176726 631.296618 290.88 
C 631.296618 288.583274 630.384119 286.380306 628.760088 284.756276 
C 627.136057 283.132245 624.93309 282.219746 622.636364 282.219746 
C 620.339637 282.219746 618.13667 283.132245 616.512639 284.756276 
C 614.888609 286.380306 613.97611 288.583274 613.97611 290.88 
C 613.97611 293.176726 614.888609 295.379694 616.512639 297.003724 
C 618.13667 298.627755 620.339637 299.540254 622.636364 299.540254 
z
" clip-path="url(#pe2f601e804)" style="fill: #ff00ff; fill-opacity: 0.6; stroke: #ffffff; stroke-opacity: 0.6; stroke-width: 2"/>
    <path d="M 622.636364 233.68 
C 625.288395 233.68 627.832162 232.626337 629.707431 230.751068 
C 631.582701 228.875799 632.636364 226.332031 632.636364 223.68 
C 632.636364 221.027969 631.582701 218.484201 629.707431 216.608932 
C 627.832162 214.733663 625.288395 213.68 622.636364 213.68 
C 619.984333 213.68 617.440565 214.733663 615.565296 216.608932 
C 613.690027 218.484201 612.636364 221.027969 612.636364 223.68 
C 612.636364 226.332031 613.690027 228.875799 615.565296 230.751068 
C 617.440565 232.626337 619.984333 233.68 622.636364 233.68 
z
" clip-path="url(#pe2f601e804)" style="fill: #00ffff; fill-opacity: 0.6; stroke: #ffffff; stroke-opacity: 0.6; stroke-width: 2"/>
    <path d="M 622.636364 233.68 
C 625.288395 233.68 627.832162 232.626337 629.707431 230.751068 
C 631.582701 228.875799 632.636364 226.332031 632.636364 223.68 
C 632.636364 221.027969 631.582701 218.484201 629.707431 216.608932 
C 627.832162 214.733663 625.288395 213.68 622.636364 213.68 
C 619.984333 213.68 617.440565 214.733663 615.565296 216.608932 
C 613.690027 218.484201 612.636364 221.027969 612.636364 223.68 
C 612.636364 226.332031 613.690027 228.875799 615.565296 230.751068 
C 617.440565 232.626337 619.984333 233.68 622.636364 233.68 
z
" clip-path="url(#pe2f601e804)" style="fill: #ff0000; fill-opacity: 0.6; stroke: #ffffff; stroke-opacity: 0.6; stroke-width: 2"/>
    <path d="M 622.636364 230.751068 
C 624.511633 230.751068 626.310348 230.006016 627.636364 228.68 
C 628.962379 227.353984 629.707431 225.555269 629.707431 223.68 
C 629.707431 221.804731 628.962379 220.006016 627.636364 218.68 
C 626.310348 217.353984 624.511633 216.608932 622.636364 216.608932 
C 620.761095 216.608932 618.962379 217.353984 617.636364 218.68 
C 616.310348 220.006016 615.565296 221.804731 615.565296 223.68 
C 615.565296 225.555269 616.310348 227.353984 617.636364 228.68 
C 618.962379 230.006016 620.761095 230.751068 622.636364 230.751068 
z
" clip-path="url(#pe2f601e804)" style="fill: #ff00ff; fill-opacity: 0.6; stroke: #ffffff; stroke-opacity: 0.6; stroke-width: 2"/>
    <path d="M 622.636364 228.68 
C 623.962379 228.68 625.234263 228.153168 626.171898 227.215534 
C 627.109532 226.277899 627.636364 225.006016 627.636364 223.68 
C 627.636364 222.353984 627.109532 221.082101 626.171898 220.144466 
C 625.234263 219.206832 623.962379 218.68 622.636364 218.68 
C 621.310348 218.68 620.038464 219.206832 619.10083 220.144466 
C 618.163195 221.082101 617.636364 222.353984 617.636364 223.68 
C 617.636364 225.006016 618.163195 226.277899 619.10083 227.215534 
C 620.038464 228.153168 621.310348 228.68 622.636364 228.68 
z
" clip-path="url(#pe2f601e804)" style="fill: #ffa500; fill-opacity: 0.6; stroke: #ffffff; stroke-opacity: 0.6; stroke-width: 2"/>
    <path d="M 622.636364 161.48 
C 623.962379 161.48 625.234263 160.953168 626.171898 160.015534 
C 627.109532 159.077899 627.636364 157.806016 627.636364 156.48 
C 627.636364 155.153985 627.109532 153.882101 626.171898 152.944466 
C 625.234263 152.006832 623.962379 151.48 622.636364 151.48 
C 621.310348 151.48 620.038464 152.006832 619.10083 152.944466 
C 618.163195 153.882101 617.636364 155.153985 617.636364 156.48 
C 617.636364 157.806016 618.163195 159.077899 619.10083 160.015534 
C 620.038464 160.953168 621.310348 161.48 622.636364 161.48 
z
" clip-path="url(#pe2f601e804)" style="fill: #ff0000; fill-opacity: 0.6; stroke: #ffffff; stroke-opacity: 0.6; stroke-width: 2"/>
    <path d="M 622.636364 161.48 
C 623.962379 161.48 625.234263 160.953168 626.171898 160.015534 
C 627.109532 159.077899 627.636364 157.806016 627.636364 156.48 
C 627.636364 155.153985 627.109532 153.882101 626.171898 152.944466 
C 625.234263 152.006832 623.962379 151.48 622.636364 151.48 
C 621.310348 151.48 620.038464 152.006832 619.10083 152.944466 
C 618.163195 153.882101 617.636364 155.153985 617.636364 156.48 
C 617.636364 157.806016 618.163195 159.077899 619.10083 160.015534 
C 620.038464 160.953168 621.310348 161.48 622.636364 161.48 
z
" clip-path="url(#pe2f601e804)" style="fill: #ff00ff; fill-opacity: 0.6; stroke: #ffffff; stroke-opacity: 0.6; stroke-width: 2"/>
    <path d="M 622.636364 161.48 
C 623.962379 161.48 625.234263 160.953168 626.171898 160.015534 
C 627.109532 159.077899 627.636364 157.806016 627.636364 156.48 
C 627.636364 155.153985 627.109532 153.882101 626.171898 152.944466 
C 625.234263 152.006832 623.962379 151.48 622.636364 151.48 
C 621.310348 151.48 620.038464 152.006832 619.10083 152.944466 
C 618.163195 153.882101 617.636364 155.153985 617.636364 156.48 
C 617.636364 157.806016 618.163195 159.077899 619.10083 160.015534 
C 620.038464 160.953168 621.310348 161.48 622.636364 161.48 
z
" clip-path="url(#pe2f601e804)" style="fill: #ffa500; fill-opacity: 0.6; stroke: #ffffff; stroke-opacity: 0.6; stroke-width: 2"/>
   </g>
   <g id="matplotlib.axis_1">
    <g id="xtick_1">
     <g id="line2d_1">
      <path d="M 115.363636 512.64 
L 115.363636 69.12 
" clip-path="url(#pe2f601e804)" style="fill: none; stroke: #b0b0b0; stroke-width: 0.8; stroke-linecap: square"/>
     </g>
     <g id="line2d_2">
      <defs>
       <path id="m09adaad913" d="M 0 0 
L 0 3.5 
" style="stroke: #000000; stroke-width: 0.8"/>
      </defs>
      <g>
       <use xlink:href="#m09adaad913" x="115.363636" y="512.64" style="stroke: #000000; stroke-width: 0.8"/>
      </g>
     </g>
     <g id="text_1">
      <!-- Virtual World -->
      <g transform="translate(83.112074 527.238438) scale(0.1 -0.1)">
       <defs>
        <path id="DejaVuSans-56" d="M 1831 0 
L 50 4666 
L 709 4666 
L 2188 738 
L 3669 4666 
L 4325 4666 
L 2547 0 
L 1831 0 
z
" transform="scale(0.015625)"/>
        <path id="DejaVuSans-69" d="M 603 3500 
L 1178 3500 
L 1178 0 
L 603 0 
L 603 3500 
z
M 603 4863 
L 1178 4863 
L 1178 4134 
L 603 4134 
L 603 4863 
z
" transform="scale(0.015625)"/>
        <path id="DejaVuSans-72" d="M 2631 2963 
Q 2534 3019 2420 3045 
Q 2306 3072 2169 3072 
Q 1681 3072 1420 2755 
Q 1159 2438 1159 1844 
L 1159 0 
L 581 0 
L 581 3500 
L 1159 3500 
L 1159 2956 
Q 1341 3275 1631 3429 
Q 1922 3584 2338 3584 
Q 2397 3584 2469 3576 
Q 2541 3569 2628 3553 
L 2631 2963 
z
" transform="scale(0.015625)"/>
        <path id="DejaVuSans-74" d="M 1172 4494 
L 1172 3500 
L 2356 3500 
L 2356 3053 
L 1172 3053 
L 1172 1153 
Q 1172 725 1289 603 
Q 1406 481 1766 481 
L 2356 481 
L 2356 0 
L 1766 0 
Q 1100 0 847 248 
Q 594 497 594 1153 
L 594 3053 
L 172 3053 
L 172 3500 
L 594 3500 
L 594 4494 
L 1172 4494 
z
" transform="scale(0.015625)"/>
        <path id="DejaVuSans-75" d="M 544 1381 
L 544 3500 
L 1119 3500 
L 1119 1403 
Q 1119 906 1312 657 
Q 1506 409 1894 409 
Q 2359 409 2629 706 
Q 2900 1003 2900 1516 
L 2900 3500 
L 3475 3500 
L 3475 0 
L 2900 0 
L 2900 538 
Q 2691 219 2414 64 
Q 2138 -91 1772 -91 
Q 1169 -91 856 284 
Q 544 659 544 1381 
z
M 1991 3584 
L 1991 3584 
z
" transform="scale(0.015625)"/>
        <path id="DejaVuSans-61" d="M 2194 1759 
Q 1497 1759 1228 1600 
Q 959 1441 959 1056 
Q 959 750 1161 570 
Q 1363 391 1709 391 
Q 2188 391 2477 730 
Q 2766 1069 2766 1631 
L 2766 1759 
L 2194 1759 
z
M 3341 1997 
L 3341 0 
L 2766 0 
L 2766 531 
Q 2569 213 2275 61 
Q 1981 -91 1556 -91 
Q 1019 -91 701 211 
Q 384 513 384 1019 
Q 384 1609 779 1909 
Q 1175 2209 1959 2209 
L 2766 2209 
L 2766 2266 
Q 2766 2663 2505 2880 
Q 2244 3097 1772 3097 
Q 1472 3097 1187 3025 
Q 903 2953 641 2809 
L 641 3341 
Q 956 3463 1253 3523 
Q 1550 3584 1831 3584 
Q 2591 3584 2966 3190 
Q 3341 2797 3341 1997 
z
" transform="scale(0.015625)"/>
        <path id="DejaVuSans-6c" d="M 603 4863 
L 1178 4863 
L 1178 0 
L 603 0 
L 603 4863 
z
" transform="scale(0.015625)"/>
        <path id="DejaVuSans-20" transform="scale(0.015625)"/>
        <path id="DejaVuSans-57" d="M 213 4666 
L 850 4666 
L 1831 722 
L 2809 4666 
L 3519 4666 
L 4500 722 
L 5478 4666 
L 6119 4666 
L 4947 0 
L 4153 0 
L 3169 4050 
L 2175 0 
L 1381 0 
L 213 4666 
z
" transform="scale(0.015625)"/>
        <path id="DejaVuSans-6f" d="M 1959 3097 
Q 1497 3097 1228 2736 
Q 959 2375 959 1747 
Q 959 1119 1226 758 
Q 1494 397 1959 397 
Q 2419 397 2687 759 
Q 2956 1122 2956 1747 
Q 2956 2369 2687 2733 
Q 2419 3097 1959 3097 
z
M 1959 3584 
Q 2709 3584 3137 3096 
Q 3566 2609 3566 1747 
Q 3566 888 3137 398 
Q 2709 -91 1959 -91 
Q 1206 -91 779 398 
Q 353 888 353 1747 
Q 353 2609 779 3096 
Q 1206 3584 1959 3584 
z
" transform="scale(0.015625)"/>
        <path id="DejaVuSans-64" d="M 2906 2969 
L 2906 4863 
L 3481 4863 
L 3481 0 
L 2906 0 
L 2906 525 
Q 2725 213 2448 61 
Q 2172 -91 1784 -91 
Q 1150 -91 751 415 
Q 353 922 353 1747 
Q 353 2572 751 3078 
Q 1150 3584 1784 3584 
Q 2172 3584 2448 3432 
Q 2725 3281 2906 2969 
z
M 947 1747 
Q 947 1113 1208 752 
Q 1469 391 1925 391 
Q 2381 391 2643 752 
Q 2906 1113 2906 1747 
Q 2906 2381 2643 2742 
Q 2381 3103 1925 3103 
Q 1469 3103 1208 2742 
Q 947 2381 947 1747 
z
" transform="scale(0.015625)"/>
       </defs>
       <use xlink:href="#DejaVuSans-56"/>
       <use xlink:href="#DejaVuSans-69" x="66.158203"/>
       <use xlink:href="#DejaVuSans-72" x="93.941406"/>
       <use xlink:href="#DejaVuSans-74" x="135.054688"/>
       <use xlink:href="#DejaVuSans-75" x="174.263672"/>
       <use xlink:href="#DejaVuSans-61" x="237.642578"/>
       <use xlink:href="#DejaVuSans-6c" x="298.921875"/>
       <use xlink:href="#DejaVuSans-20" x="326.705078"/>
       <use xlink:href="#DejaVuSans-57" x="358.492188"/>
       <use xlink:href="#DejaVuSans-6f" x="451.494141"/>
       <use xlink:href="#DejaVuSans-72" x="512.675781"/>
       <use xlink:href="#DejaVuSans-6c" x="553.789062"/>
       <use xlink:href="#DejaVuSans-64" x="581.572266"/>
      </g>
     </g>
    </g>
    <g id="xtick_2">
     <g id="line2d_3">
      <path d="M 284.454545 512.64 
L 284.454545 69.12 
" clip-path="url(#pe2f601e804)" style="fill: none; stroke: #b0b0b0; stroke-width: 0.8; stroke-linecap: square"/>
     </g>
     <g id="line2d_4">
      <g>
       <use xlink:href="#m09adaad913" x="284.454545" y="512.64" style="stroke: #000000; stroke-width: 0.8"/>
      </g>
     </g>
     <g id="text_2">
      <!-- Lifelogging -->
      <g transform="translate(256.91392 527.238438) scale(0.1 -0.1)">
       <defs>
        <path id="DejaVuSans-4c" d="M 628 4666 
L 1259 4666 
L 1259 531 
L 3531 531 
L 3531 0 
L 628 0 
L 628 4666 
z
" transform="scale(0.015625)"/>
        <path id="DejaVuSans-66" d="M 2375 4863 
L 2375 4384 
L 1825 4384 
Q 1516 4384 1395 4259 
Q 1275 4134 1275 3809 
L 1275 3500 
L 2222 3500 
L 2222 3053 
L 1275 3053 
L 1275 0 
L 697 0 
L 697 3053 
L 147 3053 
L 147 3500 
L 697 3500 
L 697 3744 
Q 697 4328 969 4595 
Q 1241 4863 1831 4863 
L 2375 4863 
z
" transform="scale(0.015625)"/>
        <path id="DejaVuSans-65" d="M 3597 1894 
L 3597 1613 
L 953 1613 
Q 991 1019 1311 708 
Q 1631 397 2203 397 
Q 2534 397 2845 478 
Q 3156 559 3463 722 
L 3463 178 
Q 3153 47 2828 -22 
Q 2503 -91 2169 -91 
Q 1331 -91 842 396 
Q 353 884 353 1716 
Q 353 2575 817 3079 
Q 1281 3584 2069 3584 
Q 2775 3584 3186 3129 
Q 3597 2675 3597 1894 
z
M 3022 2063 
Q 3016 2534 2758 2815 
Q 2500 3097 2075 3097 
Q 1594 3097 1305 2825 
Q 1016 2553 972 2059 
L 3022 2063 
z
" transform="scale(0.015625)"/>
        <path id="DejaVuSans-67" d="M 2906 1791 
Q 2906 2416 2648 2759 
Q 2391 3103 1925 3103 
Q 1463 3103 1205 2759 
Q 947 2416 947 1791 
Q 947 1169 1205 825 
Q 1463 481 1925 481 
Q 2391 481 2648 825 
Q 2906 1169 2906 1791 
z
M 3481 434 
Q 3481 -459 3084 -895 
Q 2688 -1331 1869 -1331 
Q 1566 -1331 1297 -1286 
Q 1028 -1241 775 -1147 
L 775 -588 
Q 1028 -725 1275 -790 
Q 1522 -856 1778 -856 
Q 2344 -856 2625 -561 
Q 2906 -266 2906 331 
L 2906 616 
Q 2728 306 2450 153 
Q 2172 0 1784 0 
Q 1141 0 747 490 
Q 353 981 353 1791 
Q 353 2603 747 3093 
Q 1141 3584 1784 3584 
Q 2172 3584 2450 3431 
Q 2728 3278 2906 2969 
L 2906 3500 
L 3481 3500 
L 3481 434 
z
" transform="scale(0.015625)"/>
        <path id="DejaVuSans-6e" d="M 3513 2113 
L 3513 0 
L 2938 0 
L 2938 2094 
Q 2938 2591 2744 2837 
Q 2550 3084 2163 3084 
Q 1697 3084 1428 2787 
Q 1159 2491 1159 1978 
L 1159 0 
L 581 0 
L 581 3500 
L 1159 3500 
L 1159 2956 
Q 1366 3272 1645 3428 
Q 1925 3584 2291 3584 
Q 2894 3584 3203 3211 
Q 3513 2838 3513 2113 
z
" transform="scale(0.015625)"/>
       </defs>
       <use xlink:href="#DejaVuSans-4c"/>
       <use xlink:href="#DejaVuSans-69" x="55.712891"/>
       <use xlink:href="#DejaVuSans-66" x="83.496094"/>
       <use xlink:href="#DejaVuSans-65" x="118.701172"/>
       <use xlink:href="#DejaVuSans-6c" x="180.224609"/>
       <use xlink:href="#DejaVuSans-6f" x="208.007812"/>
       <use xlink:href="#DejaVuSans-67" x="269.189453"/>
       <use xlink:href="#DejaVuSans-67" x="332.666016"/>
       <use xlink:href="#DejaVuSans-69" x="396.142578"/>
       <use xlink:href="#DejaVuSans-6e" x="423.925781"/>
       <use xlink:href="#DejaVuSans-67" x="487.304688"/>
      </g>
     </g>
    </g>
    <g id="xtick_3">
     <g id="line2d_5">
      <path d="M 453.545455 512.64 
L 453.545455 69.12 
" clip-path="url(#pe2f601e804)" style="fill: none; stroke: #b0b0b0; stroke-width: 0.8; stroke-linecap: square"/>
     </g>
     <g id="line2d_6">
      <g>
       <use xlink:href="#m09adaad913" x="453.545455" y="512.64" style="stroke: #000000; stroke-width: 0.8"/>
      </g>
     </g>
     <g id="text_3">
      <!-- Augmented Reality -->
      <g transform="translate(405.779048 527.238438) scale(0.1 -0.1)">
       <defs>
        <path id="DejaVuSans-41" d="M 2188 4044 
L 1331 1722 
L 3047 1722 
L 2188 4044 
z
M 1831 4666 
L 2547 4666 
L 4325 0 
L 3669 0 
L 3244 1197 
L 1141 1197 
L 716 0 
L 50 0 
L 1831 4666 
z
" transform="scale(0.015625)"/>
        <path id="DejaVuSans-6d" d="M 3328 2828 
Q 3544 3216 3844 3400 
Q 4144 3584 4550 3584 
Q 5097 3584 5394 3201 
Q 5691 2819 5691 2113 
L 5691 0 
L 5113 0 
L 5113 2094 
Q 5113 2597 4934 2840 
Q 4756 3084 4391 3084 
Q 3944 3084 3684 2787 
Q 3425 2491 3425 1978 
L 3425 0 
L 2847 0 
L 2847 2094 
Q 2847 2600 2669 2842 
Q 2491 3084 2119 3084 
Q 1678 3084 1418 2786 
Q 1159 2488 1159 1978 
L 1159 0 
L 581 0 
L 581 3500 
L 1159 3500 
L 1159 2956 
Q 1356 3278 1631 3431 
Q 1906 3584 2284 3584 
Q 2666 3584 2933 3390 
Q 3200 3197 3328 2828 
z
" transform="scale(0.015625)"/>
        <path id="DejaVuSans-52" d="M 2841 2188 
Q 3044 2119 3236 1894 
Q 3428 1669 3622 1275 
L 4263 0 
L 3584 0 
L 2988 1197 
Q 2756 1666 2539 1819 
Q 2322 1972 1947 1972 
L 1259 1972 
L 1259 0 
L 628 0 
L 628 4666 
L 2053 4666 
Q 2853 4666 3247 4331 
Q 3641 3997 3641 3322 
Q 3641 2881 3436 2590 
Q 3231 2300 2841 2188 
z
M 1259 4147 
L 1259 2491 
L 2053 2491 
Q 2509 2491 2742 2702 
Q 2975 2913 2975 3322 
Q 2975 3731 2742 3939 
Q 2509 4147 2053 4147 
L 1259 4147 
z
" transform="scale(0.015625)"/>
        <path id="DejaVuSans-79" d="M 2059 -325 
Q 1816 -950 1584 -1140 
Q 1353 -1331 966 -1331 
L 506 -1331 
L 506 -850 
L 844 -850 
Q 1081 -850 1212 -737 
Q 1344 -625 1503 -206 
L 1606 56 
L 191 3500 
L 800 3500 
L 1894 763 
L 2988 3500 
L 3597 3500 
L 2059 -325 
z
" transform="scale(0.015625)"/>
       </defs>
       <use xlink:href="#DejaVuSans-41"/>
       <use xlink:href="#DejaVuSans-75" x="68.408203"/>
       <use xlink:href="#DejaVuSans-67" x="131.787109"/>
       <use xlink:href="#DejaVuSans-6d" x="195.263672"/>
       <use xlink:href="#DejaVuSans-65" x="292.675781"/>
       <use xlink:href="#DejaVuSans-6e" x="354.199219"/>
       <use xlink:href="#DejaVuSans-74" x="417.578125"/>
       <use xlink:href="#DejaVuSans-65" x="456.787109"/>
       <use xlink:href="#DejaVuSans-64" x="518.310547"/>
       <use xlink:href="#DejaVuSans-20" x="581.787109"/>
       <use xlink:href="#DejaVuSans-52" x="613.574219"/>
       <use xlink:href="#DejaVuSans-65" x="678.556641"/>
       <use xlink:href="#DejaVuSans-61" x="740.080078"/>
       <use xlink:href="#DejaVuSans-6c" x="801.359375"/>
       <use xlink:href="#DejaVuSans-69" x="829.142578"/>
       <use xlink:href="#DejaVuSans-74" x="856.925781"/>
       <use xlink:href="#DejaVuSans-79" x="896.134766"/>
      </g>
     </g>
    </g>
    <g id="xtick_4">
     <g id="line2d_7">
      <path d="M 622.636364 512.64 
L 622.636364 69.12 
" clip-path="url(#pe2f601e804)" style="fill: none; stroke: #b0b0b0; stroke-width: 0.8; stroke-linecap: square"/>
     </g>
     <g id="line2d_8">
      <g>
       <use xlink:href="#m09adaad913" x="622.636364" y="512.64" style="stroke: #000000; stroke-width: 0.8"/>
      </g>
     </g>
     <g id="text_4">
      <!-- Mirror World -->
      <g transform="translate(591.99027 527.238438) scale(0.1 -0.1)">
       <defs>
        <path id="DejaVuSans-4d" d="M 628 4666 
L 1569 4666 
L 2759 1491 
L 3956 4666 
L 4897 4666 
L 4897 0 
L 4281 0 
L 4281 4097 
L 3078 897 
L 2444 897 
L 1241 4097 
L 1241 0 
L 628 0 
L 628 4666 
z
" transform="scale(0.015625)"/>
       </defs>
       <use xlink:href="#DejaVuSans-4d"/>
       <use xlink:href="#DejaVuSans-69" x="86.279297"/>
       <use xlink:href="#DejaVuSans-72" x="114.0625"/>
       <use xlink:href="#DejaVuSans-72" x="153.425781"/>
       <use xlink:href="#DejaVuSans-6f" x="192.289062"/>
       <use xlink:href="#DejaVuSans-72" x="253.470703"/>
       <use xlink:href="#DejaVuSans-20" x="294.583984"/>
       <use xlink:href="#DejaVuSans-57" x="326.371094"/>
       <use xlink:href="#DejaVuSans-6f" x="419.373047"/>
       <use xlink:href="#DejaVuSans-72" x="480.554688"/>
       <use xlink:href="#DejaVuSans-6c" x="521.667969"/>
       <use xlink:href="#DejaVuSans-64" x="549.451172"/>
      </g>
     </g>
    </g>
    <g id="text_5">
     <!-- metaverse -->
     <g transform="translate(342.25625 540.916563) scale(0.1 -0.1)">
      <defs>
       <path id="DejaVuSans-76" d="M 191 3500 
L 800 3500 
L 1894 563 
L 2988 3500 
L 3597 3500 
L 2284 0 
L 1503 0 
L 191 3500 
z
" transform="scale(0.015625)"/>
       <path id="DejaVuSans-73" d="M 2834 3397 
L 2834 2853 
Q 2591 2978 2328 3040 
Q 2066 3103 1784 3103 
Q 1356 3103 1142 2972 
Q 928 2841 928 2578 
Q 928 2378 1081 2264 
Q 1234 2150 1697 2047 
L 1894 2003 
Q 2506 1872 2764 1633 
Q 3022 1394 3022 966 
Q 3022 478 2636 193 
Q 2250 -91 1575 -91 
Q 1294 -91 989 -36 
Q 684 19 347 128 
L 347 722 
Q 666 556 975 473 
Q 1284 391 1588 391 
Q 1994 391 2212 530 
Q 2431 669 2431 922 
Q 2431 1156 2273 1281 
Q 2116 1406 1581 1522 
L 1381 1569 
Q 847 1681 609 1914 
Q 372 2147 372 2553 
Q 372 3047 722 3315 
Q 1072 3584 1716 3584 
Q 2034 3584 2315 3537 
Q 2597 3491 2834 3397 
z
" transform="scale(0.015625)"/>
      </defs>
      <use xlink:href="#DejaVuSans-6d"/>
      <use xlink:href="#DejaVuSans-65" x="97.412109"/>
      <use xlink:href="#DejaVuSans-74" x="158.935547"/>
      <use xlink:href="#DejaVuSans-61" x="198.144531"/>
      <use xlink:href="#DejaVuSans-76" x="259.423828"/>
      <use xlink:href="#DejaVuSans-65" x="318.603516"/>
      <use xlink:href="#DejaVuSans-72" x="380.126953"/>
      <use xlink:href="#DejaVuSans-73" x="421.240234"/>
      <use xlink:href="#DejaVuSans-65" x="473.339844"/>
     </g>
    </g>
   </g>
   <g id="matplotlib.axis_2">
    <g id="ytick_1">
     <g id="line2d_9">
      <path d="M 90 492.48 
L 648 492.48 
" clip-path="url(#pe2f601e804)" style="fill: none; stroke: #b0b0b0; stroke-width: 0.8; stroke-linecap: square"/>
     </g>
     <g id="line2d_10">
      <defs>
       <path id="maa8f281da7" d="M 0 0 
L -3.5 0 
" style="stroke: #000000; stroke-width: 0.8"/>
      </defs>
      <g>
       <use xlink:href="#maa8f281da7" x="90" y="492.48" style="stroke: #000000; stroke-width: 0.8"/>
      </g>
     </g>
     <g id="text_6">
      <!-- Benchmarking -->
      <g transform="translate(10.578125 496.279219) scale(0.1 -0.1)">
       <defs>
        <path id="DejaVuSans-42" d="M 1259 2228 
L 1259 519 
L 2272 519 
Q 2781 519 3026 730 
Q 3272 941 3272 1375 
Q 3272 1813 3026 2020 
Q 2781 2228 2272 2228 
L 1259 2228 
z
M 1259 4147 
L 1259 2741 
L 2194 2741 
Q 2656 2741 2882 2914 
Q 3109 3088 3109 3444 
Q 3109 3797 2882 3972 
Q 2656 4147 2194 4147 
L 1259 4147 
z
M 628 4666 
L 2241 4666 
Q 2963 4666 3353 4366 
Q 3744 4066 3744 3513 
Q 3744 3084 3544 2831 
Q 3344 2578 2956 2516 
Q 3422 2416 3680 2098 
Q 3938 1781 3938 1306 
Q 3938 681 3513 340 
Q 3088 0 2303 0 
L 628 0 
L 628 4666 
z
" transform="scale(0.015625)"/>
        <path id="DejaVuSans-63" d="M 3122 3366 
L 3122 2828 
Q 2878 2963 2633 3030 
Q 2388 3097 2138 3097 
Q 1578 3097 1268 2742 
Q 959 2388 959 1747 
Q 959 1106 1268 751 
Q 1578 397 2138 397 
Q 2388 397 2633 464 
Q 2878 531 3122 666 
L 3122 134 
Q 2881 22 2623 -34 
Q 2366 -91 2075 -91 
Q 1284 -91 818 406 
Q 353 903 353 1747 
Q 353 2603 823 3093 
Q 1294 3584 2113 3584 
Q 2378 3584 2631 3529 
Q 2884 3475 3122 3366 
z
" transform="scale(0.015625)"/>
        <path id="DejaVuSans-68" d="M 3513 2113 
L 3513 0 
L 2938 0 
L 2938 2094 
Q 2938 2591 2744 2837 
Q 2550 3084 2163 3084 
Q 1697 3084 1428 2787 
Q 1159 2491 1159 1978 
L 1159 0 
L 581 0 
L 581 4863 
L 1159 4863 
L 1159 2956 
Q 1366 3272 1645 3428 
Q 1925 3584 2291 3584 
Q 2894 3584 3203 3211 
Q 3513 2838 3513 2113 
z
" transform="scale(0.015625)"/>
        <path id="DejaVuSans-6b" d="M 581 4863 
L 1159 4863 
L 1159 1991 
L 2875 3500 
L 3609 3500 
L 1753 1863 
L 3688 0 
L 2938 0 
L 1159 1709 
L 1159 0 
L 581 0 
L 581 4863 
z
" transform="scale(0.015625)"/>
       </defs>
       <use xlink:href="#DejaVuSans-42"/>
       <use xlink:href="#DejaVuSans-65" x="68.603516"/>
       <use xlink:href="#DejaVuSans-6e" x="130.126953"/>
       <use xlink:href="#DejaVuSans-63" x="193.505859"/>
       <use xlink:href="#DejaVuSans-68" x="248.486328"/>
       <use xlink:href="#DejaVuSans-6d" x="311.865234"/>
       <use xlink:href="#DejaVuSans-61" x="409.277344"/>
       <use xlink:href="#DejaVuSans-72" x="470.556641"/>
       <use xlink:href="#DejaVuSans-6b" x="511.669922"/>
       <use xlink:href="#DejaVuSans-69" x="569.580078"/>
       <use xlink:href="#DejaVuSans-6e" x="597.363281"/>
       <use xlink:href="#DejaVuSans-67" x="660.742188"/>
      </g>
     </g>
    </g>
    <g id="ytick_2">
     <g id="line2d_11">
      <path d="M 90 425.28 
L 648 425.28 
" clip-path="url(#pe2f601e804)" style="fill: none; stroke: #b0b0b0; stroke-width: 0.8; stroke-linecap: square"/>
     </g>
     <g id="line2d_12">
      <g>
       <use xlink:href="#maa8f281da7" x="90" y="425.28" style="stroke: #000000; stroke-width: 0.8"/>
      </g>
     </g>
     <g id="text_7">
      <!-- Human Experimentation -->
      <g transform="translate(-39.304688 429.079219) scale(0.1 -0.1)">
       <defs>
        <path id="DejaVuSans-48" d="M 628 4666 
L 1259 4666 
L 1259 2753 
L 3553 2753 
L 3553 4666 
L 4184 4666 
L 4184 0 
L 3553 0 
L 3553 2222 
L 1259 2222 
L 1259 0 
L 628 0 
L 628 4666 
z
" transform="scale(0.015625)"/>
        <path id="DejaVuSans-45" d="M 628 4666 
L 3578 4666 
L 3578 4134 
L 1259 4134 
L 1259 2753 
L 3481 2753 
L 3481 2222 
L 1259 2222 
L 1259 531 
L 3634 531 
L 3634 0 
L 628 0 
L 628 4666 
z
" transform="scale(0.015625)"/>
        <path id="DejaVuSans-78" d="M 3513 3500 
L 2247 1797 
L 3578 0 
L 2900 0 
L 1881 1375 
L 863 0 
L 184 0 
L 1544 1831 
L 300 3500 
L 978 3500 
L 1906 2253 
L 2834 3500 
L 3513 3500 
z
" transform="scale(0.015625)"/>
        <path id="DejaVuSans-70" d="M 1159 525 
L 1159 -1331 
L 581 -1331 
L 581 3500 
L 1159 3500 
L 1159 2969 
Q 1341 3281 1617 3432 
Q 1894 3584 2278 3584 
Q 2916 3584 3314 3078 
Q 3713 2572 3713 1747 
Q 3713 922 3314 415 
Q 2916 -91 2278 -91 
Q 1894 -91 1617 61 
Q 1341 213 1159 525 
z
M 3116 1747 
Q 3116 2381 2855 2742 
Q 2594 3103 2138 3103 
Q 1681 3103 1420 2742 
Q 1159 2381 1159 1747 
Q 1159 1113 1420 752 
Q 1681 391 2138 391 
Q 2594 391 2855 752 
Q 3116 1113 3116 1747 
z
" transform="scale(0.015625)"/>
       </defs>
       <use xlink:href="#DejaVuSans-48"/>
       <use xlink:href="#DejaVuSans-75" x="75.195312"/>
       <use xlink:href="#DejaVuSans-6d" x="138.574219"/>
       <use xlink:href="#DejaVuSans-61" x="235.986328"/>
       <use xlink:href="#DejaVuSans-6e" x="297.265625"/>
       <use xlink:href="#DejaVuSans-20" x="360.644531"/>
       <use xlink:href="#DejaVuSans-45" x="392.431641"/>
       <use xlink:href="#DejaVuSans-78" x="455.615234"/>
       <use xlink:href="#DejaVuSans-70" x="514.794922"/>
       <use xlink:href="#DejaVuSans-65" x="578.271484"/>
       <use xlink:href="#DejaVuSans-72" x="639.794922"/>
       <use xlink:href="#DejaVuSans-69" x="680.908203"/>
       <use xlink:href="#DejaVuSans-6d" x="708.691406"/>
       <use xlink:href="#DejaVuSans-65" x="806.103516"/>
       <use xlink:href="#DejaVuSans-6e" x="867.626953"/>
       <use xlink:href="#DejaVuSans-74" x="931.005859"/>
       <use xlink:href="#DejaVuSans-61" x="970.214844"/>
       <use xlink:href="#DejaVuSans-74" x="1031.494141"/>
       <use xlink:href="#DejaVuSans-69" x="1070.703125"/>
       <use xlink:href="#DejaVuSans-6f" x="1098.486328"/>
       <use xlink:href="#DejaVuSans-6e" x="1159.667969"/>
      </g>
     </g>
    </g>
    <g id="ytick_3">
     <g id="line2d_13">
      <path d="M 90 358.08 
L 648 358.08 
" clip-path="url(#pe2f601e804)" style="fill: none; stroke: #b0b0b0; stroke-width: 0.8; stroke-linecap: square"/>
     </g>
     <g id="line2d_14">
      <g>
       <use xlink:href="#maa8f281da7" x="90" y="358.08" style="stroke: #000000; stroke-width: 0.8"/>
      </g>
     </g>
     <g id="text_8">
      <!-- Interview -->
      <g transform="translate(36.5 361.879219) scale(0.1 -0.1)">
       <defs>
        <path id="DejaVuSans-49" d="M 628 4666 
L 1259 4666 
L 1259 0 
L 628 0 
L 628 4666 
z
" transform="scale(0.015625)"/>
        <path id="DejaVuSans-77" d="M 269 3500 
L 844 3500 
L 1563 769 
L 2278 3500 
L 2956 3500 
L 3675 769 
L 4391 3500 
L 4966 3500 
L 4050 0 
L 3372 0 
L 2619 2869 
L 1863 0 
L 1184 0 
L 269 3500 
z
" transform="scale(0.015625)"/>
       </defs>
       <use xlink:href="#DejaVuSans-49"/>
       <use xlink:href="#DejaVuSans-6e" x="29.492188"/>
       <use xlink:href="#DejaVuSans-74" x="92.871094"/>
       <use xlink:href="#DejaVuSans-65" x="132.080078"/>
       <use xlink:href="#DejaVuSans-72" x="193.603516"/>
       <use xlink:href="#DejaVuSans-76" x="234.716797"/>
       <use xlink:href="#DejaVuSans-69" x="293.896484"/>
       <use xlink:href="#DejaVuSans-65" x="321.679688"/>
       <use xlink:href="#DejaVuSans-77" x="383.203125"/>
      </g>
     </g>
    </g>
    <g id="ytick_4">
     <g id="line2d_15">
      <path d="M 90 290.88 
L 648 290.88 
" clip-path="url(#pe2f601e804)" style="fill: none; stroke: #b0b0b0; stroke-width: 0.8; stroke-linecap: square"/>
     </g>
     <g id="line2d_16">
      <g>
       <use xlink:href="#maa8f281da7" x="90" y="290.88" style="stroke: #000000; stroke-width: 0.8"/>
      </g>
     </g>
     <g id="text_9">
      <!-- Questionnaire -->
      <g transform="translate(12.990625 294.679219) scale(0.1 -0.1)">
       <defs>
        <path id="DejaVuSans-51" d="M 2522 4238 
Q 1834 4238 1429 3725 
Q 1025 3213 1025 2328 
Q 1025 1447 1429 934 
Q 1834 422 2522 422 
Q 3209 422 3611 934 
Q 4013 1447 4013 2328 
Q 4013 3213 3611 3725 
Q 3209 4238 2522 4238 
z
M 3406 84 
L 4238 -825 
L 3475 -825 
L 2784 -78 
Q 2681 -84 2626 -87 
Q 2572 -91 2522 -91 
Q 1538 -91 948 567 
Q 359 1225 359 2328 
Q 359 3434 948 4092 
Q 1538 4750 2522 4750 
Q 3503 4750 4090 4092 
Q 4678 3434 4678 2328 
Q 4678 1516 4351 937 
Q 4025 359 3406 84 
z
" transform="scale(0.015625)"/>
       </defs>
       <use xlink:href="#DejaVuSans-51"/>
       <use xlink:href="#DejaVuSans-75" x="78.710938"/>
       <use xlink:href="#DejaVuSans-65" x="142.089844"/>
       <use xlink:href="#DejaVuSans-73" x="203.613281"/>
       <use xlink:href="#DejaVuSans-74" x="255.712891"/>
       <use xlink:href="#DejaVuSans-69" x="294.921875"/>
       <use xlink:href="#DejaVuSans-6f" x="322.705078"/>
       <use xlink:href="#DejaVuSans-6e" x="383.886719"/>
       <use xlink:href="#DejaVuSans-6e" x="447.265625"/>
       <use xlink:href="#DejaVuSans-61" x="510.644531"/>
       <use xlink:href="#DejaVuSans-69" x="571.923828"/>
       <use xlink:href="#DejaVuSans-72" x="599.707031"/>
       <use xlink:href="#DejaVuSans-65" x="638.570312"/>
      </g>
     </g>
    </g>
    <g id="ytick_5">
     <g id="line2d_17">
      <path d="M 90 223.68 
L 648 223.68 
" clip-path="url(#pe2f601e804)" style="fill: none; stroke: #b0b0b0; stroke-width: 0.8; stroke-linecap: square"/>
     </g>
     <g id="line2d_18">
      <g>
       <use xlink:href="#maa8f281da7" x="90" y="223.68" style="stroke: #000000; stroke-width: 0.8"/>
      </g>
     </g>
     <g id="text_10">
      <!-- Data Science -->
      <g transform="translate(17.178125 227.479219) scale(0.1 -0.1)">
       <defs>
        <path id="DejaVuSans-44" d="M 1259 4147 
L 1259 519 
L 2022 519 
Q 2988 519 3436 956 
Q 3884 1394 3884 2338 
Q 3884 3275 3436 3711 
Q 2988 4147 2022 4147 
L 1259 4147 
z
M 628 4666 
L 1925 4666 
Q 3281 4666 3915 4102 
Q 4550 3538 4550 2338 
Q 4550 1131 3912 565 
Q 3275 0 1925 0 
L 628 0 
L 628 4666 
z
" transform="scale(0.015625)"/>
        <path id="DejaVuSans-53" d="M 3425 4513 
L 3425 3897 
Q 3066 4069 2747 4153 
Q 2428 4238 2131 4238 
Q 1616 4238 1336 4038 
Q 1056 3838 1056 3469 
Q 1056 3159 1242 3001 
Q 1428 2844 1947 2747 
L 2328 2669 
Q 3034 2534 3370 2195 
Q 3706 1856 3706 1288 
Q 3706 609 3251 259 
Q 2797 -91 1919 -91 
Q 1588 -91 1214 -16 
Q 841 59 441 206 
L 441 856 
Q 825 641 1194 531 
Q 1563 422 1919 422 
Q 2459 422 2753 634 
Q 3047 847 3047 1241 
Q 3047 1584 2836 1778 
Q 2625 1972 2144 2069 
L 1759 2144 
Q 1053 2284 737 2584 
Q 422 2884 422 3419 
Q 422 4038 858 4394 
Q 1294 4750 2059 4750 
Q 2388 4750 2728 4690 
Q 3069 4631 3425 4513 
z
" transform="scale(0.015625)"/>
       </defs>
       <use xlink:href="#DejaVuSans-44"/>
       <use xlink:href="#DejaVuSans-61" x="77.001953"/>
       <use xlink:href="#DejaVuSans-74" x="138.28125"/>
       <use xlink:href="#DejaVuSans-61" x="177.490234"/>
       <use xlink:href="#DejaVuSans-20" x="238.769531"/>
       <use xlink:href="#DejaVuSans-53" x="270.556641"/>
       <use xlink:href="#DejaVuSans-63" x="334.033203"/>
       <use xlink:href="#DejaVuSans-69" x="389.013672"/>
       <use xlink:href="#DejaVuSans-65" x="416.796875"/>
       <use xlink:href="#DejaVuSans-6e" x="478.320312"/>
       <use xlink:href="#DejaVuSans-63" x="541.699219"/>
       <use xlink:href="#DejaVuSans-65" x="596.679688"/>
      </g>
     </g>
    </g>
    <g id="ytick_6">
     <g id="line2d_19">
      <path d="M 90 156.48 
L 648 156.48 
" clip-path="url(#pe2f601e804)" style="fill: none; stroke: #b0b0b0; stroke-width: 0.8; stroke-linecap: square"/>
     </g>
     <g id="line2d_20">
      <g>
       <use xlink:href="#maa8f281da7" x="90" y="156.48" style="stroke: #000000; stroke-width: 0.8"/>
      </g>
     </g>
     <g id="text_11">
      <!-- Engineering Research -->
      <g transform="translate(-26.04375 160.279219) scale(0.1 -0.1)">
       <use xlink:href="#DejaVuSans-45"/>
       <use xlink:href="#DejaVuSans-6e" x="63.183594"/>
       <use xlink:href="#DejaVuSans-67" x="126.5625"/>
       <use xlink:href="#DejaVuSans-69" x="190.039062"/>
       <use xlink:href="#DejaVuSans-6e" x="217.822266"/>
       <use xlink:href="#DejaVuSans-65" x="281.201172"/>
       <use xlink:href="#DejaVuSans-65" x="342.724609"/>
       <use xlink:href="#DejaVuSans-72" x="404.248047"/>
       <use xlink:href="#DejaVuSans-69" x="445.361328"/>
       <use xlink:href="#DejaVuSans-6e" x="473.144531"/>
       <use xlink:href="#DejaVuSans-67" x="536.523438"/>
       <use xlink:href="#DejaVuSans-20" x="600"/>
       <use xlink:href="#DejaVuSans-52" x="631.787109"/>
       <use xlink:href="#DejaVuSans-65" x="696.769531"/>
       <use xlink:href="#DejaVuSans-73" x="758.292969"/>
       <use xlink:href="#DejaVuSans-65" x="810.392578"/>
       <use xlink:href="#DejaVuSans-61" x="871.916016"/>
       <use xlink:href="#DejaVuSans-72" x="933.195312"/>
       <use xlink:href="#DejaVuSans-63" x="972.058594"/>
       <use xlink:href="#DejaVuSans-68" x="1027.039062"/>
      </g>
     </g>
    </g>
    <g id="ytick_7">
     <g id="line2d_21">
      <path d="M 90 89.28 
L 648 89.28 
" clip-path="url(#pe2f601e804)" style="fill: none; stroke: #b0b0b0; stroke-width: 0.8; stroke-linecap: square"/>
     </g>
     <g id="line2d_22">
      <g>
       <use xlink:href="#maa8f281da7" x="90" y="89.28" style="stroke: #000000; stroke-width: 0.8"/>
      </g>
     </g>
     <g id="text_12">
      <!-- Meta Science -->
      <g transform="translate(16.225 93.079219) scale(0.1 -0.1)">
       <use xlink:href="#DejaVuSans-4d"/>
       <use xlink:href="#DejaVuSans-65" x="86.279297"/>
       <use xlink:href="#DejaVuSans-74" x="147.802734"/>
       <use xlink:href="#DejaVuSans-61" x="187.011719"/>
       <use xlink:href="#DejaVuSans-20" x="248.291016"/>
       <use xlink:href="#DejaVuSans-53" x="280.078125"/>
       <use xlink:href="#DejaVuSans-63" x="343.554688"/>
       <use xlink:href="#DejaVuSans-69" x="398.535156"/>
       <use xlink:href="#DejaVuSans-65" x="426.318359"/>
       <use xlink:href="#DejaVuSans-6e" x="487.841797"/>
       <use xlink:href="#DejaVuSans-63" x="551.220703"/>
       <use xlink:href="#DejaVuSans-65" x="606.201172"/>
      </g>
     </g>
    </g>
    <g id="text_13">
     <!-- strategy -->
     <g transform="translate(-45.384375 311.734688) rotate(-90) scale(0.1 -0.1)">
      <use xlink:href="#DejaVuSans-73"/>
      <use xlink:href="#DejaVuSans-74" x="52.099609"/>
      <use xlink:href="#DejaVuSans-72" x="91.308594"/>
      <use xlink:href="#DejaVuSans-61" x="132.421875"/>
      <use xlink:href="#DejaVuSans-74" x="193.701172"/>
      <use xlink:href="#DejaVuSans-65" x="232.910156"/>
      <use xlink:href="#DejaVuSans-67" x="294.433594"/>
      <use xlink:href="#DejaVuSans-79" x="357.910156"/>
     </g>
    </g>
   </g>
   <g id="patch_3">
    <path d="M 90 512.64 
L 90 69.12 
" style="fill: none; stroke: #000000; stroke-width: 0.8; stroke-linejoin: miter; stroke-linecap: square"/>
   </g>
   <g id="patch_4">
    <path d="M 648 512.64 
L 648 69.12 
" style="fill: none; stroke: #000000; stroke-width: 0.8; stroke-linejoin: miter; stroke-linecap: square"/>
   </g>
   <g id="patch_5">
    <path d="M 90 512.64 
L 648 512.64 
" style="fill: none; stroke: #000000; stroke-width: 0.8; stroke-linejoin: miter; stroke-linecap: square"/>
   </g>
   <g id="patch_6">
    <path d="M 90 69.12 
L 648 69.12 
" style="fill: none; stroke: #000000; stroke-width: 0.8; stroke-linejoin: miter; stroke-linecap: square"/>
   </g>
   <g id="text_14">
    <!-- Bubble Chart: metaverse vs strategy by reality -->
    <g transform="translate(228.060937 63.12) scale(0.12 -0.12)">
     <defs>
      <path id="DejaVuSans-62" d="M 3116 1747 
Q 3116 2381 2855 2742 
Q 2594 3103 2138 3103 
Q 1681 3103 1420 2742 
Q 1159 2381 1159 1747 
Q 1159 1113 1420 752 
Q 1681 391 2138 391 
Q 2594 391 2855 752 
Q 3116 1113 3116 1747 
z
M 1159 2969 
Q 1341 3281 1617 3432 
Q 1894 3584 2278 3584 
Q 2916 3584 3314 3078 
Q 3713 2572 3713 1747 
Q 3713 922 3314 415 
Q 2916 -91 2278 -91 
Q 1894 -91 1617 61 
Q 1341 213 1159 525 
L 1159 0 
L 581 0 
L 581 4863 
L 1159 4863 
L 1159 2969 
z
" transform="scale(0.015625)"/>
      <path id="DejaVuSans-43" d="M 4122 4306 
L 4122 3641 
Q 3803 3938 3442 4084 
Q 3081 4231 2675 4231 
Q 1875 4231 1450 3742 
Q 1025 3253 1025 2328 
Q 1025 1406 1450 917 
Q 1875 428 2675 428 
Q 3081 428 3442 575 
Q 3803 722 4122 1019 
L 4122 359 
Q 3791 134 3420 21 
Q 3050 -91 2638 -91 
Q 1578 -91 968 557 
Q 359 1206 359 2328 
Q 359 3453 968 4101 
Q 1578 4750 2638 4750 
Q 3056 4750 3426 4639 
Q 3797 4528 4122 4306 
z
" transform="scale(0.015625)"/>
      <path id="DejaVuSans-3a" d="M 750 794 
L 1409 794 
L 1409 0 
L 750 0 
L 750 794 
z
M 750 3309 
L 1409 3309 
L 1409 2516 
L 750 2516 
L 750 3309 
z
" transform="scale(0.015625)"/>
     </defs>
     <use xlink:href="#DejaVuSans-42"/>
     <use xlink:href="#DejaVuSans-75" x="68.603516"/>
     <use xlink:href="#DejaVuSans-62" x="131.982422"/>
     <use xlink:href="#DejaVuSans-62" x="195.458984"/>
     <use xlink:href="#DejaVuSans-6c" x="258.935547"/>
     <use xlink:href="#DejaVuSans-65" x="286.71875"/>
     <use xlink:href="#DejaVuSans-20" x="348.242188"/>
     <use xlink:href="#DejaVuSans-43" x="380.029297"/>
     <use xlink:href="#DejaVuSans-68" x="449.853516"/>
     <use xlink:href="#DejaVuSans-61" x="513.232422"/>
     <use xlink:href="#DejaVuSans-72" x="574.511719"/>
     <use xlink:href="#DejaVuSans-74" x="615.625"/>
     <use xlink:href="#DejaVuSans-3a" x="654.833984"/>
     <use xlink:href="#DejaVuSans-20" x="688.525391"/>
     <use xlink:href="#DejaVuSans-6d" x="720.3125"/>
     <use xlink:href="#DejaVuSans-65" x="817.724609"/>
     <use xlink:href="#DejaVuSans-74" x="879.248047"/>
     <use xlink:href="#DejaVuSans-61" x="918.457031"/>
     <use xlink:href="#DejaVuSans-76" x="979.736328"/>
     <use xlink:href="#DejaVuSans-65" x="1038.916016"/>
     <use xlink:href="#DejaVuSans-72" x="1100.439453"/>
     <use xlink:href="#DejaVuSans-73" x="1141.552734"/>
     <use xlink:href="#DejaVuSans-65" x="1193.652344"/>
     <use xlink:href="#DejaVuSans-20" x="1255.175781"/>
     <use xlink:href="#DejaVuSans-76" x="1286.962891"/>
     <use xlink:href="#DejaVuSans-73" x="1346.142578"/>
     <use xlink:href="#DejaVuSans-20" x="1398.242188"/>
     <use xlink:href="#DejaVuSans-73" x="1430.029297"/>
     <use xlink:href="#DejaVuSans-74" x="1482.128906"/>
     <use xlink:href="#DejaVuSans-72" x="1521.337891"/>
     <use xlink:href="#DejaVuSans-61" x="1562.451172"/>
     <use xlink:href="#DejaVuSans-74" x="1623.730469"/>
     <use xlink:href="#DejaVuSans-65" x="1662.939453"/>
     <use xlink:href="#DejaVuSans-67" x="1724.462891"/>
     <use xlink:href="#DejaVuSans-79" x="1787.939453"/>
     <use xlink:href="#DejaVuSans-20" x="1847.119141"/>
     <use xlink:href="#DejaVuSans-62" x="1878.90625"/>
     <use xlink:href="#DejaVuSans-79" x="1942.382812"/>
     <use xlink:href="#DejaVuSans-20" x="2001.5625"/>
     <use xlink:href="#DejaVuSans-72" x="2033.349609"/>
     <use xlink:href="#DejaVuSans-65" x="2072.212891"/>
     <use xlink:href="#DejaVuSans-61" x="2133.736328"/>
     <use xlink:href="#DejaVuSans-6c" x="2195.015625"/>
     <use xlink:href="#DejaVuSans-69" x="2222.798828"/>
     <use xlink:href="#DejaVuSans-74" x="2250.582031"/>
     <use xlink:href="#DejaVuSans-79" x="2289.791016"/>
    </g>
   </g>
   <g id="legend_1">
    <g id="patch_7">
     <path d="M 513.467188 150.510625 
L 641 150.510625 
Q 643 150.510625 643 148.510625 
L 643 76.12 
Q 643 74.12 641 74.12 
L 513.467188 74.12 
Q 511.467188 74.12 511.467188 76.12 
L 511.467188 148.510625 
Q 511.467188 150.510625 513.467188 150.510625 
z
" style="fill: #ffffff; opacity: 0.8; stroke: #cccccc; stroke-linejoin: miter"/>
    </g>
    <g id="text_15">
     <!-- Reality -->
     <g transform="translate(560.146094 85.718437) scale(0.1 -0.1)">
      <use xlink:href="#DejaVuSans-52"/>
      <use xlink:href="#DejaVuSans-65" x="64.982422"/>
      <use xlink:href="#DejaVuSans-61" x="126.505859"/>
      <use xlink:href="#DejaVuSans-6c" x="187.785156"/>
      <use xlink:href="#DejaVuSans-69" x="215.568359"/>
      <use xlink:href="#DejaVuSans-74" x="243.351562"/>
      <use xlink:href="#DejaVuSans-79" x="282.560547"/>
     </g>
    </g>
    <g id="line2d_23">
     <path d="M 515.467188 96.896563 
L 525.467188 96.896563 
L 535.467188 96.896563 
" style="fill: none; stroke: #ffffff; stroke-width: 1.5; stroke-linecap: square"/>
     <defs>
      <path id="mf1b5a796b5" d="M 0 5 
C 1.326016 5 2.597899 4.473168 3.535534 3.535534 
C 4.473168 2.597899 5 1.326016 5 0 
C 5 -1.326016 4.473168 -2.597899 3.535534 -3.535534 
C 2.597899 -4.473168 1.326016 -5 0 -5 
C -1.326016 -5 -2.597899 -4.473168 -3.535534 -3.535534 
C -4.473168 -2.597899 -5 -1.326016 -5 0 
C -5 1.326016 -4.473168 2.597899 -3.535534 3.535534 
C -2.597899 4.473168 -1.326016 5 0 5 
z
" style="stroke: #ffffff"/>
     </defs>
     <g>
      <use xlink:href="#mf1b5a796b5" x="525.467188" y="96.896563" style="fill: #00ffff; stroke: #ffffff"/>
     </g>
    </g>
    <g id="text_16">
     <!-- Virtual Reality -->
     <g transform="translate(543.467188 100.396563) scale(0.1 -0.1)">
      <use xlink:href="#DejaVuSans-56"/>
      <use xlink:href="#DejaVuSans-69" x="66.158203"/>
      <use xlink:href="#DejaVuSans-72" x="93.941406"/>
      <use xlink:href="#DejaVuSans-74" x="135.054688"/>
      <use xlink:href="#DejaVuSans-75" x="174.263672"/>
      <use xlink:href="#DejaVuSans-61" x="237.642578"/>
      <use xlink:href="#DejaVuSans-6c" x="298.921875"/>
      <use xlink:href="#DejaVuSans-20" x="326.705078"/>
      <use xlink:href="#DejaVuSans-52" x="358.492188"/>
      <use xlink:href="#DejaVuSans-65" x="423.474609"/>
      <use xlink:href="#DejaVuSans-61" x="484.998047"/>
      <use xlink:href="#DejaVuSans-6c" x="546.277344"/>
      <use xlink:href="#DejaVuSans-69" x="574.060547"/>
      <use xlink:href="#DejaVuSans-74" x="601.84375"/>
      <use xlink:href="#DejaVuSans-79" x="641.052734"/>
     </g>
    </g>
    <g id="line2d_24">
     <path d="M 515.467188 111.574688 
L 525.467188 111.574688 
L 535.467188 111.574688 
" style="fill: none; stroke: #ffffff; stroke-width: 1.5; stroke-linecap: square"/>
     <defs>
      <path id="m531562225e" d="M 0 5 
C 1.326016 5 2.597899 4.473168 3.535534 3.535534 
C 4.473168 2.597899 5 1.326016 5 0 
C 5 -1.326016 4.473168 -2.597899 3.535534 -3.535534 
C 2.597899 -4.473168 1.326016 -5 0 -5 
C -1.326016 -5 -2.597899 -4.473168 -3.535534 -3.535534 
C -4.473168 -2.597899 -5 -1.326016 -5 0 
C -5 1.326016 -4.473168 2.597899 -3.535534 3.535534 
C -2.597899 4.473168 -1.326016 5 0 5 
z
" style="stroke: #ffffff"/>
     </defs>
     <g>
      <use xlink:href="#m531562225e" x="525.467188" y="111.574688" style="fill: #ff0000; stroke: #ffffff"/>
     </g>
    </g>
    <g id="text_17">
     <!-- Augmented Reality -->
     <g transform="translate(543.467188 115.074688) scale(0.1 -0.1)">
      <use xlink:href="#DejaVuSans-41"/>
      <use xlink:href="#DejaVuSans-75" x="68.408203"/>
      <use xlink:href="#DejaVuSans-67" x="131.787109"/>
      <use xlink:href="#DejaVuSans-6d" x="195.263672"/>
      <use xlink:href="#DejaVuSans-65" x="292.675781"/>
      <use xlink:href="#DejaVuSans-6e" x="354.199219"/>
      <use xlink:href="#DejaVuSans-74" x="417.578125"/>
      <use xlink:href="#DejaVuSans-65" x="456.787109"/>
      <use xlink:href="#DejaVuSans-64" x="518.310547"/>
      <use xlink:href="#DejaVuSans-20" x="581.787109"/>
      <use xlink:href="#DejaVuSans-52" x="613.574219"/>
      <use xlink:href="#DejaVuSans-65" x="678.556641"/>
      <use xlink:href="#DejaVuSans-61" x="740.080078"/>
      <use xlink:href="#DejaVuSans-6c" x="801.359375"/>
      <use xlink:href="#DejaVuSans-69" x="829.142578"/>
      <use xlink:href="#DejaVuSans-74" x="856.925781"/>
      <use xlink:href="#DejaVuSans-79" x="896.134766"/>
     </g>
    </g>
    <g id="line2d_25">
     <path d="M 515.467188 126.252813 
L 525.467188 126.252813 
L 535.467188 126.252813 
" style="fill: none; stroke: #ffffff; stroke-width: 1.5; stroke-linecap: square"/>
     <defs>
      <path id="m593f4400ef" d="M 0 5 
C 1.326016 5 2.597899 4.473168 3.535534 3.535534 
C 4.473168 2.597899 5 1.326016 5 0 
C 5 -1.326016 4.473168 -2.597899 3.535534 -3.535534 
C 2.597899 -4.473168 1.326016 -5 0 -5 
C -1.326016 -5 -2.597899 -4.473168 -3.535534 -3.535534 
C -4.473168 -2.597899 -5 -1.326016 -5 0 
C -5 1.326016 -4.473168 2.597899 -3.535534 3.535534 
C -2.597899 4.473168 -1.326016 5 0 5 
z
" style="stroke: #ffffff"/>
     </defs>
     <g>
      <use xlink:href="#m593f4400ef" x="525.467188" y="126.252813" style="fill: #ff00ff; stroke: #ffffff"/>
     </g>
    </g>
    <g id="text_18">
     <!-- Mixed Reality -->
     <g transform="translate(543.467188 129.752813) scale(0.1 -0.1)">
      <use xlink:href="#DejaVuSans-4d"/>
      <use xlink:href="#DejaVuSans-69" x="86.279297"/>
      <use xlink:href="#DejaVuSans-78" x="114.0625"/>
      <use xlink:href="#DejaVuSans-65" x="170.117188"/>
      <use xlink:href="#DejaVuSans-64" x="231.640625"/>
      <use xlink:href="#DejaVuSans-20" x="295.117188"/>
      <use xlink:href="#DejaVuSans-52" x="326.904297"/>
      <use xlink:href="#DejaVuSans-65" x="391.886719"/>
      <use xlink:href="#DejaVuSans-61" x="453.410156"/>
      <use xlink:href="#DejaVuSans-6c" x="514.689453"/>
      <use xlink:href="#DejaVuSans-69" x="542.472656"/>
      <use xlink:href="#DejaVuSans-74" x="570.255859"/>
      <use xlink:href="#DejaVuSans-79" x="609.464844"/>
     </g>
    </g>
    <g id="line2d_26">
     <path d="M 515.467188 140.930938 
L 525.467188 140.930938 
L 535.467188 140.930938 
" style="fill: none; stroke: #ffffff; stroke-width: 1.5; stroke-linecap: square"/>
     <defs>
      <path id="m249d06aa46" d="M 0 5 
C 1.326016 5 2.597899 4.473168 3.535534 3.535534 
C 4.473168 2.597899 5 1.326016 5 0 
C 5 -1.326016 4.473168 -2.597899 3.535534 -3.535534 
C 2.597899 -4.473168 1.326016 -5 0 -5 
C -1.326016 -5 -2.597899 -4.473168 -3.535534 -3.535534 
C -4.473168 -2.597899 -5 -1.326016 -5 0 
C -5 1.326016 -4.473168 2.597899 -3.535534 3.535534 
C -2.597899 4.473168 -1.326016 5 0 5 
z
" style="stroke: #ffffff"/>
     </defs>
     <g>
      <use xlink:href="#m249d06aa46" x="525.467188" y="140.930938" style="fill: #ffa500; stroke: #ffffff"/>
     </g>
    </g>
    <g id="text_19">
     <!-- Extended Reality -->
     <g transform="translate(543.467188 144.430938) scale(0.1 -0.1)">
      <use xlink:href="#DejaVuSans-45"/>
      <use xlink:href="#DejaVuSans-78" x="63.183594"/>
      <use xlink:href="#DejaVuSans-74" x="122.363281"/>
      <use xlink:href="#DejaVuSans-65" x="161.572266"/>
      <use xlink:href="#DejaVuSans-6e" x="223.095703"/>
      <use xlink:href="#DejaVuSans-64" x="286.474609"/>
      <use xlink:href="#DejaVuSans-65" x="349.951172"/>
      <use xlink:href="#DejaVuSans-64" x="411.474609"/>
      <use xlink:href="#DejaVuSans-20" x="474.951172"/>
      <use xlink:href="#DejaVuSans-52" x="506.738281"/>
      <use xlink:href="#DejaVuSans-65" x="571.720703"/>
      <use xlink:href="#DejaVuSans-61" x="633.244141"/>
      <use xlink:href="#DejaVuSans-6c" x="694.523438"/>
      <use xlink:href="#DejaVuSans-69" x="722.306641"/>
      <use xlink:href="#DejaVuSans-74" x="750.089844"/>
      <use xlink:href="#DejaVuSans-79" x="789.298828"/>
     </g>
    </g>
   </g>
  </g>
 </g>
 <defs>
  <clipPath id="pe2f601e804">
   <rect x="90" y="69.12" width="558" height="443.52"/>
  </clipPath>
 </defs>
</svg>
