<?xml version="1.0" encoding="utf-8" standalone="no"?>
<!DOCTYPE svg PUBLIC "-//W3C//DTD SVG 1.1//EN"
  "http://www.w3.org/Graphics/SVG/1.1/DTD/svg11.dtd">
<svg xmlns:xlink="http://www.w3.org/1999/xlink" width="720pt" height="576pt" viewBox="0 0 720 576" xmlns="http://www.w3.org/2000/svg" version="1.1">
 <metadata>
  <rdf:RDF xmlns:dc="http://purl.org/dc/elements/1.1/" xmlns:cc="http://creativecommons.org/ns#" xmlns:rdf="http://www.w3.org/1999/02/22-rdf-syntax-ns#">
   <cc:Work>
    <dc:type rdf:resource="http://purl.org/dc/dcmitype/StillImage"/>
    <dc:date>2024-09-02T16:21:33.675253</dc:date>
    <dc:format>image/svg+xml</dc:format>
    <dc:creator>
     <cc:Agent>
      <dc:title>Matplotlib v3.8.2, https://matplotlib.org/</dc:title>
     </cc:Agent>
    </dc:creator>
   </cc:Work>
  </rdf:RDF>
 </metadata>
 <defs>
  <style type="text/css">*{stroke-linejoin: round; stroke-linecap: butt}</style>
 </defs>
 <g id="figure_1">
  <g id="patch_1">
   <path d="M 0 576 
L 720 576 
L 720 0 
L 0 0 
z
" style="fill: #ffffff"/>
  </g>
  <g id="axes_1">
   <g id="patch_2">
    <path d="M 90 512.64 
L 648 512.64 
L 648 69.12 
L 90 69.12 
z
" style="fill: #ffffff"/>
   </g>
   <g id="PathCollection_1">
    <path d="M 115.363636 509.063124 
C 119.761532 509.063124 123.979894 507.315821 127.089676 504.206039 
C 130.199458 501.096257 131.94676 496.877896 131.94676 492.48 
C 131.94676 488.082104 130.199458 483.863743 127.089676 480.753961 
C 123.979894 477.644179 119.761532 475.896876 115.363636 475.896876 
C 110.96574 475.896876 106.747379 477.644179 103.637597 480.753961 
C 100.527815 483.863743 98.780512 488.082104 98.780512 492.48 
C 98.780512 496.877896 100.527815 501.096257 103.637597 504.206039 
C 106.747379 507.315821 110.96574 509.063124 115.363636 509.063124 
z
" clip-path="url(#p11c099b91f)" style="fill: #00ffff; fill-opacity: 0.6; stroke: #ffffff; stroke-opacity: 0.6; stroke-width: 2"/>
    <path d="M 115.363636 372.222136 
C 119.114175 372.222136 122.711605 370.732031 125.363636 368.08 
C 128.015667 365.427969 129.505772 361.830538 129.505772 358.08 
C 129.505772 354.329462 128.015667 350.732031 125.363636 348.08 
C 122.711605 345.427969 119.114175 343.937864 115.363636 343.937864 
C 111.613098 343.937864 108.015667 345.427969 105.363636 348.08 
C 102.711605 350.732031 101.221501 354.329462 101.221501 358.08 
C 101.221501 361.830538 102.711605 365.427969 105.363636 368.08 
C 108.015667 370.732031 111.613098 372.222136 115.363636 372.222136 
z
" clip-path="url(#p11c099b91f)" style="fill: #00ffff; fill-opacity: 0.6; stroke: #ffffff; stroke-opacity: 0.6; stroke-width: 2"/>
    <path d="M 115.363636 363.08 
C 116.689652 363.08 117.961536 362.553168 118.89917 361.615534 
C 119.836805 360.677899 120.363636 359.406015 120.363636 358.08 
C 120.363636 356.753985 119.836805 355.482101 118.89917 354.544466 
C 117.961536 353.606832 116.689652 353.08 115.363636 353.08 
C 114.037621 353.08 112.765737 353.606832 111.828102 354.544466 
C 110.890468 355.482101 110.363636 356.753985 110.363636 358.08 
C 110.363636 359.406015 110.890468 360.677899 111.828102 361.615534 
C 112.765737 362.553168 114.037621 363.08 115.363636 363.08 
z
" clip-path="url(#p11c099b91f)" style="fill: #ff0000; fill-opacity: 0.6; stroke: #ffffff; stroke-opacity: 0.6; stroke-width: 2"/>
    <path d="M 115.363636 363.08 
C 116.689652 363.08 117.961536 362.553168 118.89917 361.615534 
C 119.836805 360.677899 120.363636 359.406015 120.363636 358.08 
C 120.363636 356.753985 119.836805 355.482101 118.89917 354.544466 
C 117.961536 353.606832 116.689652 353.08 115.363636 353.08 
C 114.037621 353.08 112.765737 353.606832 111.828102 354.544466 
C 110.890468 355.482101 110.363636 356.753985 110.363636 358.08 
C 110.363636 359.406015 110.890468 360.677899 111.828102 361.615534 
C 112.765737 362.553168 114.037621 363.08 115.363636 363.08 
z
" clip-path="url(#p11c099b91f)" style="fill: #ff00ff; fill-opacity: 0.6; stroke: #ffffff; stroke-opacity: 0.6; stroke-width: 2"/>
    <path d="M 115.363636 230.751068 
C 117.238905 230.751068 119.037621 230.006016 120.363636 228.68 
C 121.689652 227.353984 122.434704 225.555269 122.434704 223.68 
C 122.434704 221.804731 121.689652 220.006016 120.363636 218.68 
C 119.037621 217.353984 117.238905 216.608932 115.363636 216.608932 
C 113.488367 216.608932 111.689652 217.353984 110.363636 218.68 
C 109.037621 220.006016 108.292569 221.804731 108.292569 223.68 
C 108.292569 225.555269 109.037621 227.353984 110.363636 228.68 
C 111.689652 230.006016 113.488367 230.751068 115.363636 230.751068 
z
" clip-path="url(#p11c099b91f)" style="fill: #ff0000; fill-opacity: 0.6; stroke: #ffffff; stroke-opacity: 0.6; stroke-width: 2"/>
    <path d="M 115.363636 230.751068 
C 117.238905 230.751068 119.037621 230.006016 120.363636 228.68 
C 121.689652 227.353984 122.434704 225.555269 122.434704 223.68 
C 122.434704 221.804731 121.689652 220.006016 120.363636 218.68 
C 119.037621 217.353984 117.238905 216.608932 115.363636 216.608932 
C 113.488367 216.608932 111.689652 217.353984 110.363636 218.68 
C 109.037621 220.006016 108.292569 221.804731 108.292569 223.68 
C 108.292569 225.555269 109.037621 227.353984 110.363636 228.68 
C 111.689652 230.006016 113.488367 230.751068 115.363636 230.751068 
z
" clip-path="url(#p11c099b91f)" style="fill: #ff00ff; fill-opacity: 0.6; stroke: #ffffff; stroke-opacity: 0.6; stroke-width: 2"/>
    <path d="M 115.363636 96.351068 
C 117.238905 96.351068 119.037621 95.606015 120.363636 94.28 
C 121.689652 92.953984 122.434704 91.155269 122.434704 89.28 
C 122.434704 87.404731 121.689652 85.606015 120.363636 84.28 
C 119.037621 82.953984 117.238905 82.208932 115.363636 82.208932 
C 113.488367 82.208932 111.689652 82.953984 110.363636 84.28 
C 109.037621 85.606015 108.292569 87.404731 108.292569 89.28 
C 108.292569 91.155269 109.037621 92.953984 110.363636 94.28 
C 111.689652 95.606015 113.488367 96.351068 115.363636 96.351068 
z
" clip-path="url(#p11c099b91f)" style="fill: #ff0000; fill-opacity: 0.6; stroke: #ffffff; stroke-opacity: 0.6; stroke-width: 2"/>
    <path d="M 115.363636 96.351068 
C 117.238905 96.351068 119.037621 95.606015 120.363636 94.28 
C 121.689652 92.953984 122.434704 91.155269 122.434704 89.28 
C 122.434704 87.404731 121.689652 85.606015 120.363636 84.28 
C 119.037621 82.953984 117.238905 82.208932 115.363636 82.208932 
C 113.488367 82.208932 111.689652 82.953984 110.363636 84.28 
C 109.037621 85.606015 108.292569 87.404731 108.292569 89.28 
C 108.292569 91.155269 109.037621 92.953984 110.363636 94.28 
C 111.689652 95.606015 113.488367 96.351068 115.363636 96.351068 
z
" clip-path="url(#p11c099b91f)" style="fill: #ff00ff; fill-opacity: 0.6; stroke: #ffffff; stroke-opacity: 0.6; stroke-width: 2"/>
    <path d="M 199.909091 504.727449 
C 203.157152 504.727449 206.272619 503.43698 208.569345 501.140254 
C 210.866071 498.843528 212.15654 495.728061 212.15654 492.48 
C 212.15654 489.231939 210.866071 486.116472 208.569345 483.819746 
C 206.272619 481.52302 203.157152 480.232551 199.909091 480.232551 
C 196.66103 480.232551 193.545563 481.52302 191.248837 483.819746 
C 188.952111 486.116472 187.661642 489.231939 187.661642 492.48 
C 187.661642 495.728061 188.952111 498.843528 191.248837 501.140254 
C 193.545563 503.43698 196.66103 504.727449 199.909091 504.727449 
z
" clip-path="url(#p11c099b91f)" style="fill: #00ffff; fill-opacity: 0.6; stroke: #ffffff; stroke-opacity: 0.6; stroke-width: 2"/>
    <path d="M 199.909091 497.48 
C 201.235106 497.48 202.50699 496.953168 203.444625 496.015534 
C 204.382259 495.077899 204.909091 493.806016 204.909091 492.48 
C 204.909091 491.153985 204.382259 489.882101 203.444625 488.944466 
C 202.50699 488.006832 201.235106 487.48 199.909091 487.48 
C 198.583075 487.48 197.311192 488.006832 196.373557 488.944466 
C 195.435922 489.882101 194.909091 491.153985 194.909091 492.48 
C 194.909091 493.806016 195.435922 495.077899 196.373557 496.015534 
C 197.311192 496.953168 198.583075 497.48 199.909091 497.48 
z
" clip-path="url(#p11c099b91f)" style="fill: #ffa500; fill-opacity: 0.6; stroke: #ffffff; stroke-opacity: 0.6; stroke-width: 2"/>
    <path d="M 199.909091 366.740254 
C 202.205817 366.740254 204.408785 365.827755 206.032815 364.203724 
C 207.656846 362.579694 208.569345 360.376726 208.569345 358.08 
C 208.569345 355.783274 207.656846 353.580306 206.032815 351.956276 
C 204.408785 350.332245 202.205817 349.419746 199.909091 349.419746 
C 197.612365 349.419746 195.409397 350.332245 193.785367 351.956276 
C 192.161336 353.580306 191.248837 355.783274 191.248837 358.08 
C 191.248837 360.376726 192.161336 362.579694 193.785367 364.203724 
C 195.409397 365.827755 197.612365 366.740254 199.909091 366.740254 
z
" clip-path="url(#p11c099b91f)" style="fill: #00ffff; fill-opacity: 0.6; stroke: #ffffff; stroke-opacity: 0.6; stroke-width: 2"/>
    <path d="M 199.909091 363.08 
C 201.235106 363.08 202.50699 362.553168 203.444625 361.615534 
C 204.382259 360.677899 204.909091 359.406015 204.909091 358.08 
C 204.909091 356.753985 204.382259 355.482101 203.444625 354.544466 
C 202.50699 353.606832 201.235106 353.08 199.909091 353.08 
C 198.583075 353.08 197.311192 353.606832 196.373557 354.544466 
C 195.435922 355.482101 194.909091 356.753985 194.909091 358.08 
C 194.909091 359.406015 195.435922 360.677899 196.373557 361.615534 
C 197.311192 362.553168 198.583075 363.08 199.909091 363.08 
z
" clip-path="url(#p11c099b91f)" style="fill: #ff0000; fill-opacity: 0.6; stroke: #ffffff; stroke-opacity: 0.6; stroke-width: 2"/>
    <path d="M 199.909091 363.08 
C 201.235106 363.08 202.50699 362.553168 203.444625 361.615534 
C 204.382259 360.677899 204.909091 359.406015 204.909091 358.08 
C 204.909091 356.753985 204.382259 355.482101 203.444625 354.544466 
C 202.50699 353.606832 201.235106 353.08 199.909091 353.08 
C 198.583075 353.08 197.311192 353.606832 196.373557 354.544466 
C 195.435922 355.482101 194.909091 356.753985 194.909091 358.08 
C 194.909091 359.406015 195.435922 360.677899 196.373557 361.615534 
C 197.311192 362.553168 198.583075 363.08 199.909091 363.08 
z
" clip-path="url(#p11c099b91f)" style="fill: #ffa500; fill-opacity: 0.6; stroke: #ffffff; stroke-opacity: 0.6; stroke-width: 2"/>
    <path d="M 199.909091 232.340254 
C 202.205817 232.340254 204.408785 231.427755 206.032815 229.803724 
C 207.656846 228.179694 208.569345 225.976726 208.569345 223.68 
C 208.569345 221.383274 207.656846 219.180306 206.032815 217.556276 
C 204.408785 215.932245 202.205817 215.019746 199.909091 215.019746 
C 197.612365 215.019746 195.409397 215.932245 193.785367 217.556276 
C 192.161336 219.180306 191.248837 221.383274 191.248837 223.68 
C 191.248837 225.976726 192.161336 228.179694 193.785367 229.803724 
C 195.409397 231.427755 197.612365 232.340254 199.909091 232.340254 
z
" clip-path="url(#p11c099b91f)" style="fill: #ff0000; fill-opacity: 0.6; stroke: #ffffff; stroke-opacity: 0.6; stroke-width: 2"/>
    <path d="M 199.909091 94.28 
C 201.235106 94.28 202.50699 93.753168 203.444625 92.815534 
C 204.382259 91.877899 204.909091 90.606015 204.909091 89.28 
C 204.909091 87.953984 204.382259 86.682101 203.444625 85.744466 
C 202.50699 84.806832 201.235106 84.28 199.909091 84.28 
C 198.583075 84.28 197.311192 84.806832 196.373557 85.744466 
C 195.435922 86.682101 194.909091 87.953984 194.909091 89.28 
C 194.909091 90.606015 195.435922 91.877899 196.373557 92.815534 
C 197.311192 93.753168 198.583075 94.28 199.909091 94.28 
z
" clip-path="url(#p11c099b91f)" style="fill: #ffa500; fill-opacity: 0.6; stroke: #ffffff; stroke-opacity: 0.6; stroke-width: 2"/>
    <path d="M 284.454545 497.48 
C 285.780561 497.48 287.052445 496.953168 287.990079 496.015534 
C 288.927714 495.077899 289.454545 493.806016 289.454545 492.48 
C 289.454545 491.153985 288.927714 489.882101 287.990079 488.944466 
C 287.052445 488.006832 285.780561 487.48 284.454545 487.48 
C 283.12853 487.48 281.856646 488.006832 280.919012 488.944466 
C 279.981377 489.882101 279.454545 491.153985 279.454545 492.48 
C 279.454545 493.806016 279.981377 495.077899 280.919012 496.015534 
C 281.856646 496.953168 283.12853 497.48 284.454545 497.48 
z
" clip-path="url(#p11c099b91f)" style="fill: #00ffff; fill-opacity: 0.6; stroke: #ffffff; stroke-opacity: 0.6; stroke-width: 2"/>
    <path d="M 284.454545 366.740254 
C 286.751272 366.740254 288.954239 365.827755 290.57827 364.203724 
C 292.2023 362.579694 293.114799 360.376726 293.114799 358.08 
C 293.114799 355.783274 292.2023 353.580306 290.57827 351.956276 
C 288.954239 350.332245 286.751272 349.419746 284.454545 349.419746 
C 282.157819 349.419746 279.954852 350.332245 278.330821 351.956276 
C 276.70679 353.580306 275.794291 355.783274 275.794291 358.08 
C 275.794291 360.376726 276.70679 362.579694 278.330821 364.203724 
C 279.954852 365.827755 282.157819 366.740254 284.454545 366.740254 
z
" clip-path="url(#p11c099b91f)" style="fill: #ff0000; fill-opacity: 0.6; stroke: #ffffff; stroke-opacity: 0.6; stroke-width: 2"/>
    <path d="M 284.454545 233.68 
C 287.106576 233.68 289.650344 232.626337 291.525613 230.751068 
C 293.400882 228.875799 294.454545 226.332031 294.454545 223.68 
C 294.454545 221.027969 293.400882 218.484201 291.525613 216.608932 
C 289.650344 214.733663 287.106576 213.68 284.454545 213.68 
C 281.802514 213.68 279.258747 214.733663 277.383478 216.608932 
C 275.508209 218.484201 274.454545 221.027969 274.454545 223.68 
C 274.454545 226.332031 275.508209 228.875799 277.383478 230.751068 
C 279.258747 232.626337 281.802514 233.68 284.454545 233.68 
z
" clip-path="url(#p11c099b91f)" style="fill: #ff0000; fill-opacity: 0.6; stroke: #ffffff; stroke-opacity: 0.6; stroke-width: 2"/>
    <path d="M 369 501.140254 
C 371.296726 501.140254 373.499694 500.227755 375.123724 498.603724 
C 376.747755 496.979694 377.660254 494.776726 377.660254 492.48 
C 377.660254 490.183274 376.747755 487.980306 375.123724 486.356276 
C 373.499694 484.732245 371.296726 483.819746 369 483.819746 
C 366.703274 483.819746 364.500306 484.732245 362.876276 486.356276 
C 361.252245 487.980306 360.339746 490.183274 360.339746 492.48 
C 360.339746 494.776726 361.252245 496.979694 362.876276 498.603724 
C 364.500306 500.227755 366.703274 501.140254 369 501.140254 
z
" clip-path="url(#p11c099b91f)" style="fill: #00ffff; fill-opacity: 0.6; stroke: #ffffff; stroke-opacity: 0.6; stroke-width: 2"/>
    <path d="M 369 497.48 
C 370.326015 497.48 371.597899 496.953168 372.535534 496.015534 
C 373.473168 495.077899 374 493.806016 374 492.48 
C 374 491.153985 373.473168 489.882101 372.535534 488.944466 
C 371.597899 488.006832 370.326015 487.48 369 487.48 
C 367.673985 487.48 366.402101 488.006832 365.464466 488.944466 
C 364.526832 489.882101 364 491.153985 364 492.48 
C 364 493.806016 364.526832 495.077899 365.464466 496.015534 
C 366.402101 496.953168 367.673985 497.48 369 497.48 
z
" clip-path="url(#p11c099b91f)" style="fill: #ff00ff; fill-opacity: 0.6; stroke: #ffffff; stroke-opacity: 0.6; stroke-width: 2"/>
    <path d="M 369 365.151068 
C 370.875269 365.151068 372.673985 364.406015 374 363.08 
C 375.326015 361.753985 376.071068 359.955269 376.071068 358.08 
C 376.071068 356.204731 375.326015 354.406015 374 353.08 
C 372.673985 351.753985 370.875269 351.008932 369 351.008932 
C 367.124731 351.008932 365.326015 351.753985 364 353.08 
C 362.673985 354.406015 361.928932 356.204731 361.928932 358.08 
C 361.928932 359.955269 362.673985 361.753985 364 363.08 
C 365.326015 364.406015 367.124731 365.151068 369 365.151068 
z
" clip-path="url(#p11c099b91f)" style="fill: #00ffff; fill-opacity: 0.6; stroke: #ffffff; stroke-opacity: 0.6; stroke-width: 2"/>
    <path d="M 369 363.08 
C 370.326015 363.08 371.597899 362.553168 372.535534 361.615534 
C 373.473168 360.677899 374 359.406015 374 358.08 
C 374 356.753985 373.473168 355.482101 372.535534 354.544466 
C 371.597899 353.606832 370.326015 353.08 369 353.08 
C 367.673985 353.08 366.402101 353.606832 365.464466 354.544466 
C 364.526832 355.482101 364 356.753985 364 358.08 
C 364 359.406015 364.526832 360.677899 365.464466 361.615534 
C 366.402101 362.553168 367.673985 363.08 369 363.08 
z
" clip-path="url(#p11c099b91f)" style="fill: #ff0000; fill-opacity: 0.6; stroke: #ffffff; stroke-opacity: 0.6; stroke-width: 2"/>
    <path d="M 369 363.08 
C 370.326015 363.08 371.597899 362.553168 372.535534 361.615534 
C 373.473168 360.677899 374 359.406015 374 358.08 
C 374 356.753985 373.473168 355.482101 372.535534 354.544466 
C 371.597899 353.606832 370.326015 353.08 369 353.08 
C 367.673985 353.08 366.402101 353.606832 365.464466 354.544466 
C 364.526832 355.482101 364 356.753985 364 358.08 
C 364 359.406015 364.526832 360.677899 365.464466 361.615534 
C 366.402101 362.553168 367.673985 363.08 369 363.08 
z
" clip-path="url(#p11c099b91f)" style="fill: #ff00ff; fill-opacity: 0.6; stroke: #ffffff; stroke-opacity: 0.6; stroke-width: 2"/>
    <path d="M 369 230.751068 
C 370.875269 230.751068 372.673985 230.006016 374 228.68 
C 375.326015 227.353984 376.071068 225.555269 376.071068 223.68 
C 376.071068 221.804731 375.326015 220.006016 374 218.68 
C 372.673985 217.353984 370.875269 216.608932 369 216.608932 
C 367.124731 216.608932 365.326015 217.353984 364 218.68 
C 362.673985 220.006016 361.928932 221.804731 361.928932 223.68 
C 361.928932 225.555269 362.673985 227.353984 364 228.68 
C 365.326015 230.006016 367.124731 230.751068 369 230.751068 
z
" clip-path="url(#p11c099b91f)" style="fill: #ff0000; fill-opacity: 0.6; stroke: #ffffff; stroke-opacity: 0.6; stroke-width: 2"/>
    <path d="M 369 94.28 
C 370.326015 94.28 371.597899 93.753168 372.535534 92.815534 
C 373.473168 91.877899 374 90.606015 374 89.28 
C 374 87.953984 373.473168 86.682101 372.535534 85.744466 
C 371.597899 84.806832 370.326015 84.28 369 84.28 
C 367.673985 84.28 366.402101 84.806832 365.464466 85.744466 
C 364.526832 86.682101 364 87.953984 364 89.28 
C 364 90.606015 364.526832 91.877899 365.464466 92.815534 
C 366.402101 93.753168 367.673985 94.28 369 94.28 
z
" clip-path="url(#p11c099b91f)" style="fill: #00ffff; fill-opacity: 0.6; stroke: #ffffff; stroke-opacity: 0.6; stroke-width: 2"/>
    <path d="M 369 94.28 
C 370.326015 94.28 371.597899 93.753168 372.535534 92.815534 
C 373.473168 91.877899 374 90.606015 374 89.28 
C 374 87.953984 373.473168 86.682101 372.535534 85.744466 
C 371.597899 84.806832 370.326015 84.28 369 84.28 
C 367.673985 84.28 366.402101 84.806832 365.464466 85.744466 
C 364.526832 86.682101 364 87.953984 364 89.28 
C 364 90.606015 364.526832 91.877899 365.464466 92.815534 
C 366.402101 93.753168 367.673985 94.28 369 94.28 
z
" clip-path="url(#p11c099b91f)" style="fill: #ff00ff; fill-opacity: 0.6; stroke: #ffffff; stroke-opacity: 0.6; stroke-width: 2"/>
    <path d="M 453.545455 512.48 
C 458.849517 512.48 463.937052 510.372674 467.68759 506.622136 
C 471.438128 502.871597 473.545455 497.784062 473.545455 492.48 
C 473.545455 487.175938 471.438128 482.088403 467.68759 478.337864 
C 463.937052 474.587326 458.849517 472.48 453.545455 472.48 
C 448.241393 472.48 443.153857 474.587326 439.403319 478.337864 
C 435.652781 482.088403 433.545455 487.175938 433.545455 492.48 
C 433.545455 497.784062 435.652781 502.871597 439.403319 506.622136 
C 443.153857 510.372674 448.241393 512.48 453.545455 512.48 
z
" clip-path="url(#p11c099b91f)" style="fill: #00ffff; fill-opacity: 0.6; stroke: #ffffff; stroke-opacity: 0.6; stroke-width: 2"/>
    <path d="M 453.545455 504.727449 
C 456.793516 504.727449 459.908982 503.43698 462.205709 501.140254 
C 464.502435 498.843528 465.792903 495.728061 465.792903 492.48 
C 465.792903 489.231939 464.502435 486.116472 462.205709 483.819746 
C 459.908982 481.52302 456.793516 480.232551 453.545455 480.232551 
C 450.297393 480.232551 447.181927 481.52302 444.885201 483.819746 
C 442.588474 486.116472 441.298006 489.231939 441.298006 492.48 
C 441.298006 495.728061 442.588474 498.843528 444.885201 501.140254 
C 447.181927 503.43698 450.297393 504.727449 453.545455 504.727449 
z
" clip-path="url(#p11c099b91f)" style="fill: #ff0000; fill-opacity: 0.6; stroke: #ffffff; stroke-opacity: 0.6; stroke-width: 2"/>
    <path d="M 453.545455 499.551068 
C 455.420724 499.551068 457.219439 498.806016 458.545455 497.48 
C 459.87147 496.153985 460.616522 494.355269 460.616522 492.48 
C 460.616522 490.604731 459.87147 488.806016 458.545455 487.48 
C 457.219439 486.153985 455.420724 485.408932 453.545455 485.408932 
C 451.670185 485.408932 449.87147 486.153985 448.545455 487.48 
C 447.219439 488.806016 446.474387 490.604731 446.474387 492.48 
C 446.474387 494.355269 447.219439 496.153985 448.545455 497.48 
C 449.87147 498.806016 451.670185 499.551068 453.545455 499.551068 
z
" clip-path="url(#p11c099b91f)" style="fill: #ff00ff; fill-opacity: 0.6; stroke: #ffffff; stroke-opacity: 0.6; stroke-width: 2"/>
    <path d="M 453.545455 502.48 
C 456.197486 502.48 458.741253 501.426337 460.616522 499.551068 
C 462.491791 497.675799 463.545455 495.132031 463.545455 492.48 
C 463.545455 489.827969 462.491791 487.284201 460.616522 485.408932 
C 458.741253 483.533663 456.197486 482.48 453.545455 482.48 
C 450.893424 482.48 448.349656 483.533663 446.474387 485.408932 
C 444.599118 487.284201 443.545455 489.827969 443.545455 492.48 
C 443.545455 495.132031 444.599118 497.675799 446.474387 499.551068 
C 448.349656 501.426337 450.893424 502.48 453.545455 502.48 
z
" clip-path="url(#p11c099b91f)" style="fill: #ffa500; fill-opacity: 0.6; stroke: #ffffff; stroke-opacity: 0.6; stroke-width: 2"/>
    <path d="M 453.545455 372.222136 
C 457.295993 372.222136 460.893424 370.732031 463.545455 368.08 
C 466.197486 365.427969 467.68759 361.830538 467.68759 358.08 
C 467.68759 354.329462 466.197486 350.732031 463.545455 348.08 
C 460.893424 345.427969 457.295993 343.937864 453.545455 343.937864 
C 449.794916 343.937864 446.197486 345.427969 443.545455 348.08 
C 440.893424 350.732031 439.403319 354.329462 439.403319 358.08 
C 439.403319 361.830538 440.893424 365.427969 443.545455 368.08 
C 446.197486 370.732031 449.794916 372.222136 453.545455 372.222136 
z
" clip-path="url(#p11c099b91f)" style="fill: #00ffff; fill-opacity: 0.6; stroke: #ffffff; stroke-opacity: 0.6; stroke-width: 2"/>
    <path d="M 453.545455 375.400508 
C 458.138907 375.400508 462.544842 373.57551 465.792903 370.327449 
C 469.040965 367.079387 470.865963 362.673452 470.865963 358.08 
C 470.865963 353.486548 469.040965 349.080613 465.792903 345.832551 
C 462.544842 342.58449 458.138907 340.759492 453.545455 340.759492 
C 448.952002 340.759492 444.546067 342.58449 441.298006 345.832551 
C 438.049944 349.080613 436.224946 353.486548 436.224946 358.08 
C 436.224946 362.673452 438.049944 367.079387 441.298006 370.327449 
C 444.546067 373.57551 448.952002 375.400508 453.545455 375.400508 
z
" clip-path="url(#p11c099b91f)" style="fill: #ff0000; fill-opacity: 0.6; stroke: #ffffff; stroke-opacity: 0.6; stroke-width: 2"/>
    <path d="M 453.545455 368.08 
C 456.197486 368.08 458.741253 367.026337 460.616522 365.151068 
C 462.491791 363.275799 463.545455 360.732031 463.545455 358.08 
C 463.545455 355.427969 462.491791 352.884201 460.616522 351.008932 
C 458.741253 349.133663 456.197486 348.08 453.545455 348.08 
C 450.893424 348.08 448.349656 349.133663 446.474387 351.008932 
C 444.599118 352.884201 443.545455 355.427969 443.545455 358.08 
C 443.545455 360.732031 444.599118 363.275799 446.474387 365.151068 
C 448.349656 367.026337 450.893424 368.08 453.545455 368.08 
z
" clip-path="url(#p11c099b91f)" style="fill: #ff00ff; fill-opacity: 0.6; stroke: #ffffff; stroke-opacity: 0.6; stroke-width: 2"/>
    <path d="M 453.545455 368.08 
C 456.197486 368.08 458.741253 367.026337 460.616522 365.151068 
C 462.491791 363.275799 463.545455 360.732031 463.545455 358.08 
C 463.545455 355.427969 462.491791 352.884201 460.616522 351.008932 
C 458.741253 349.133663 456.197486 348.08 453.545455 348.08 
C 450.893424 348.08 448.349656 349.133663 446.474387 351.008932 
C 444.599118 352.884201 443.545455 355.427969 443.545455 358.08 
C 443.545455 360.732031 444.599118 363.275799 446.474387 365.151068 
C 448.349656 367.026337 450.893424 368.08 453.545455 368.08 
z
" clip-path="url(#p11c099b91f)" style="fill: #ffa500; fill-opacity: 0.6; stroke: #ffffff; stroke-opacity: 0.6; stroke-width: 2"/>
    <path d="M 453.545455 234.86034 
C 456.510515 234.86034 459.354534 233.682309 461.451149 231.585694 
C 463.547763 229.48908 464.725794 226.645061 464.725794 223.68 
C 464.725794 220.714939 463.547763 217.87092 461.451149 215.774306 
C 459.354534 213.677691 456.510515 212.49966 453.545455 212.49966 
C 450.580394 212.49966 447.736375 213.677691 445.63976 215.774306 
C 443.543146 217.87092 442.365115 220.714939 442.365115 223.68 
C 442.365115 226.645061 443.543146 229.48908 445.63976 231.585694 
C 447.736375 233.682309 450.580394 234.86034 453.545455 234.86034 
z
" clip-path="url(#p11c099b91f)" style="fill: #00ffff; fill-opacity: 0.6; stroke: #ffffff; stroke-opacity: 0.6; stroke-width: 2"/>
    <path d="M 453.545455 246.04068 
C 459.475576 246.04068 465.163614 243.684617 469.356843 239.491388 
C 473.550072 235.298159 475.906134 229.610122 475.906134 223.68 
C 475.906134 217.749878 473.550072 212.061841 469.356843 207.868612 
C 465.163614 203.675383 459.475576 201.31932 453.545455 201.31932 
C 447.615333 201.31932 441.927295 203.675383 437.734066 207.868612 
C 433.540837 212.061841 431.184775 217.749878 431.184775 223.68 
C 431.184775 229.610122 433.540837 235.298159 437.734066 239.491388 
C 441.927295 243.684617 447.615333 246.04068 453.545455 246.04068 
z
" clip-path="url(#p11c099b91f)" style="fill: #ff0000; fill-opacity: 0.6; stroke: #ffffff; stroke-opacity: 0.6; stroke-width: 2"/>
    <path d="M 453.545455 234.86034 
C 456.510515 234.86034 459.354534 233.682309 461.451149 231.585694 
C 463.547763 229.48908 464.725794 226.645061 464.725794 223.68 
C 464.725794 220.714939 463.547763 217.87092 461.451149 215.774306 
C 459.354534 213.677691 456.510515 212.49966 453.545455 212.49966 
C 450.580394 212.49966 447.736375 213.677691 445.63976 215.774306 
C 443.543146 217.87092 442.365115 220.714939 442.365115 223.68 
C 442.365115 226.645061 443.543146 229.48908 445.63976 231.585694 
C 447.736375 233.682309 450.580394 234.86034 453.545455 234.86034 
z
" clip-path="url(#p11c099b91f)" style="fill: #ff00ff; fill-opacity: 0.6; stroke: #ffffff; stroke-opacity: 0.6; stroke-width: 2"/>
    <path d="M 453.545455 228.68 
C 454.87147 228.68 456.143354 228.153168 457.080988 227.215534 
C 458.018623 226.277899 458.545455 225.006016 458.545455 223.68 
C 458.545455 222.353984 458.018623 221.082101 457.080988 220.144466 
C 456.143354 219.206832 454.87147 218.68 453.545455 218.68 
C 452.219439 218.68 450.947555 219.206832 450.009921 220.144466 
C 449.072286 221.082101 448.545455 222.353984 448.545455 223.68 
C 448.545455 225.006016 449.072286 226.277899 450.009921 227.215534 
C 450.947555 228.153168 452.219439 228.68 453.545455 228.68 
z
" clip-path="url(#p11c099b91f)" style="fill: #ffa500; fill-opacity: 0.6; stroke: #ffffff; stroke-opacity: 0.6; stroke-width: 2"/>
    <path d="M 453.545455 100.46034 
C 456.510515 100.46034 459.354534 99.282309 461.451149 97.185694 
C 463.547763 95.08908 464.725794 92.245061 464.725794 89.28 
C 464.725794 86.314939 463.547763 83.47092 461.451149 81.374306 
C 459.354534 79.277691 456.510515 78.09966 453.545455 78.09966 
C 450.580394 78.09966 447.736375 79.277691 445.63976 81.374306 
C 443.543146 83.47092 442.365115 86.314939 442.365115 89.28 
C 442.365115 92.245061 443.543146 95.08908 445.63976 97.185694 
C 447.736375 99.282309 450.580394 100.46034 453.545455 100.46034 
z
" clip-path="url(#p11c099b91f)" style="fill: #00ffff; fill-opacity: 0.6; stroke: #ffffff; stroke-opacity: 0.6; stroke-width: 2"/>
    <path d="M 453.545455 104.28 
C 457.523501 104.28 461.339153 102.699505 464.152056 99.886602 
C 466.96496 97.073698 468.545455 93.258046 468.545455 89.28 
C 468.545455 85.301953 466.96496 81.486302 464.152056 78.673398 
C 461.339153 75.860495 457.523501 74.28 453.545455 74.28 
C 449.567408 74.28 445.751756 75.860495 442.938853 78.673398 
C 440.125949 81.486302 438.545455 85.301953 438.545455 89.28 
C 438.545455 93.258046 440.125949 97.073698 442.938853 99.886602 
C 445.751756 102.699505 449.567408 104.28 453.545455 104.28 
z
" clip-path="url(#p11c099b91f)" style="fill: #ff0000; fill-opacity: 0.6; stroke: #ffffff; stroke-opacity: 0.6; stroke-width: 2"/>
    <path d="M 453.545455 100.46034 
C 456.510515 100.46034 459.354534 99.282309 461.451149 97.185694 
C 463.547763 95.08908 464.725794 92.245061 464.725794 89.28 
C 464.725794 86.314939 463.547763 83.47092 461.451149 81.374306 
C 459.354534 79.277691 456.510515 78.09966 453.545455 78.09966 
C 450.580394 78.09966 447.736375 79.277691 445.63976 81.374306 
C 443.543146 83.47092 442.365115 86.314939 442.365115 89.28 
C 442.365115 92.245061 443.543146 95.08908 445.63976 97.185694 
C 447.736375 99.282309 450.580394 100.46034 453.545455 100.46034 
z
" clip-path="url(#p11c099b91f)" style="fill: #ff00ff; fill-opacity: 0.6; stroke: #ffffff; stroke-opacity: 0.6; stroke-width: 2"/>
    <path d="M 453.545455 99.28 
C 456.197486 99.28 458.741253 98.226337 460.616522 96.351068 
C 462.491791 94.475799 463.545455 91.932031 463.545455 89.28 
C 463.545455 86.627969 462.491791 84.084201 460.616522 82.208932 
C 458.741253 80.333663 456.197486 79.28 453.545455 79.28 
C 450.893424 79.28 448.349656 80.333663 446.474387 82.208932 
C 444.599118 84.084201 443.545455 86.627969 443.545455 89.28 
C 443.545455 91.932031 444.599118 94.475799 446.474387 96.351068 
C 448.349656 98.226337 450.893424 99.28 453.545455 99.28 
z
" clip-path="url(#p11c099b91f)" style="fill: #ffa500; fill-opacity: 0.6; stroke: #ffffff; stroke-opacity: 0.6; stroke-width: 2"/>
    <path d="M 538.090909 504.727449 
C 541.33897 504.727449 544.454437 503.43698 546.751163 501.140254 
C 549.047889 498.843528 550.338358 495.728061 550.338358 492.48 
C 550.338358 489.231939 549.047889 486.116472 546.751163 483.819746 
C 544.454437 481.52302 541.33897 480.232551 538.090909 480.232551 
C 534.842848 480.232551 531.727381 481.52302 529.430655 483.819746 
C 527.133929 486.116472 525.84346 489.231939 525.84346 492.48 
C 525.84346 495.728061 527.133929 498.843528 529.430655 501.140254 
C 531.727381 503.43698 534.842848 504.727449 538.090909 504.727449 
z
" clip-path="url(#p11c099b91f)" style="fill: #00ffff; fill-opacity: 0.6; stroke: #ffffff; stroke-opacity: 0.6; stroke-width: 2"/>
    <path d="M 538.090909 499.551068 
C 539.966178 499.551068 541.764894 498.806016 543.090909 497.48 
C 544.416925 496.153985 545.161977 494.355269 545.161977 492.48 
C 545.161977 490.604731 544.416925 488.806016 543.090909 487.48 
C 541.764894 486.153985 539.966178 485.408932 538.090909 485.408932 
C 536.21564 485.408932 534.416925 486.153985 533.090909 487.48 
C 531.764894 488.806016 531.019841 490.604731 531.019841 492.48 
C 531.019841 494.355269 531.764894 496.153985 533.090909 497.48 
C 534.416925 498.806016 536.21564 499.551068 538.090909 499.551068 
z
" clip-path="url(#p11c099b91f)" style="fill: #ff0000; fill-opacity: 0.6; stroke: #ffffff; stroke-opacity: 0.6; stroke-width: 2"/>
    <path d="M 538.090909 497.48 
C 539.416925 497.48 540.688808 496.953168 541.626443 496.015534 
C 542.564078 495.077899 543.090909 493.806016 543.090909 492.48 
C 543.090909 491.153985 542.564078 489.882101 541.626443 488.944466 
C 540.688808 488.006832 539.416925 487.48 538.090909 487.48 
C 536.764894 487.48 535.49301 488.006832 534.555375 488.944466 
C 533.617741 489.882101 533.090909 491.153985 533.090909 492.48 
C 533.090909 493.806016 533.617741 495.077899 534.555375 496.015534 
C 535.49301 496.953168 536.764894 497.48 538.090909 497.48 
z
" clip-path="url(#p11c099b91f)" style="fill: #ffa500; fill-opacity: 0.6; stroke: #ffffff; stroke-opacity: 0.6; stroke-width: 2"/>
    <path d="M 538.090909 368.08 
C 540.74294 368.08 543.286708 367.026337 545.161977 365.151068 
C 547.037246 363.275799 548.090909 360.732031 548.090909 358.08 
C 548.090909 355.427969 547.037246 352.884201 545.161977 351.008932 
C 543.286708 349.133663 540.74294 348.08 538.090909 348.08 
C 535.438878 348.08 532.89511 349.133663 531.019841 351.008932 
C 529.144572 352.884201 528.090909 355.427969 528.090909 358.08 
C 528.090909 360.732031 529.144572 363.275799 531.019841 365.151068 
C 532.89511 367.026337 535.438878 368.08 538.090909 368.08 
z
" clip-path="url(#p11c099b91f)" style="fill: #00ffff; fill-opacity: 0.6; stroke: #ffffff; stroke-opacity: 0.6; stroke-width: 2"/>
    <path d="M 538.090909 366.740254 
C 540.387635 366.740254 542.590603 365.827755 544.214633 364.203724 
C 545.838664 362.579694 546.751163 360.376726 546.751163 358.08 
C 546.751163 355.783274 545.838664 353.580306 544.214633 351.956276 
C 542.590603 350.332245 540.387635 349.419746 538.090909 349.419746 
C 535.794183 349.419746 533.591215 350.332245 531.967185 351.956276 
C 530.343154 353.580306 529.430655 355.783274 529.430655 358.08 
C 529.430655 360.376726 530.343154 362.579694 531.967185 364.203724 
C 533.591215 365.827755 535.794183 366.740254 538.090909 366.740254 
z
" clip-path="url(#p11c099b91f)" style="fill: #ff0000; fill-opacity: 0.6; stroke: #ffffff; stroke-opacity: 0.6; stroke-width: 2"/>
    <path d="M 538.090909 363.08 
C 539.416925 363.08 540.688808 362.553168 541.626443 361.615534 
C 542.564078 360.677899 543.090909 359.406015 543.090909 358.08 
C 543.090909 356.753985 542.564078 355.482101 541.626443 354.544466 
C 540.688808 353.606832 539.416925 353.08 538.090909 353.08 
C 536.764894 353.08 535.49301 353.606832 534.555375 354.544466 
C 533.617741 355.482101 533.090909 356.753985 533.090909 358.08 
C 533.090909 359.406015 533.617741 360.677899 534.555375 361.615534 
C 535.49301 362.553168 536.764894 363.08 538.090909 363.08 
z
" clip-path="url(#p11c099b91f)" style="fill: #ff00ff; fill-opacity: 0.6; stroke: #ffffff; stroke-opacity: 0.6; stroke-width: 2"/>
    <path d="M 538.090909 363.08 
C 539.416925 363.08 540.688808 362.553168 541.626443 361.615534 
C 542.564078 360.677899 543.090909 359.406015 543.090909 358.08 
C 543.090909 356.753985 542.564078 355.482101 541.626443 354.544466 
C 540.688808 353.606832 539.416925 353.08 538.090909 353.08 
C 536.764894 353.08 535.49301 353.606832 534.555375 354.544466 
C 533.617741 355.482101 533.090909 356.753985 533.090909 358.08 
C 533.090909 359.406015 533.617741 360.677899 534.555375 361.615534 
C 535.49301 362.553168 536.764894 363.08 538.090909 363.08 
z
" clip-path="url(#p11c099b91f)" style="fill: #ffa500; fill-opacity: 0.6; stroke: #ffffff; stroke-opacity: 0.6; stroke-width: 2"/>
    <path d="M 538.090909 230.751068 
C 539.966178 230.751068 541.764894 230.006016 543.090909 228.68 
C 544.416925 227.353984 545.161977 225.555269 545.161977 223.68 
C 545.161977 221.804731 544.416925 220.006016 543.090909 218.68 
C 541.764894 217.353984 539.966178 216.608932 538.090909 216.608932 
C 536.21564 216.608932 534.416925 217.353984 533.090909 218.68 
C 531.764894 220.006016 531.019841 221.804731 531.019841 223.68 
C 531.019841 225.555269 531.764894 227.353984 533.090909 228.68 
C 534.416925 230.006016 536.21564 230.751068 538.090909 230.751068 
z
" clip-path="url(#p11c099b91f)" style="fill: #00ffff; fill-opacity: 0.6; stroke: #ffffff; stroke-opacity: 0.6; stroke-width: 2"/>
    <path d="M 538.090909 234.86034 
C 541.05597 234.86034 543.899989 233.682309 545.996603 231.585694 
C 548.093218 229.48908 549.271249 226.645061 549.271249 223.68 
C 549.271249 220.714939 548.093218 217.87092 545.996603 215.774306 
C 543.899989 213.677691 541.05597 212.49966 538.090909 212.49966 
C 535.125848 212.49966 532.28183 213.677691 530.185215 215.774306 
C 528.0886 217.87092 526.910569 220.714939 526.910569 223.68 
C 526.910569 226.645061 528.0886 229.48908 530.185215 231.585694 
C 532.28183 233.682309 535.125848 234.86034 538.090909 234.86034 
z
" clip-path="url(#p11c099b91f)" style="fill: #ff0000; fill-opacity: 0.6; stroke: #ffffff; stroke-opacity: 0.6; stroke-width: 2"/>
    <path d="M 538.090909 96.351068 
C 539.966178 96.351068 541.764894 95.606015 543.090909 94.28 
C 544.416925 92.953984 545.161977 91.155269 545.161977 89.28 
C 545.161977 87.404731 544.416925 85.606015 543.090909 84.28 
C 541.764894 82.953984 539.966178 82.208932 538.090909 82.208932 
C 536.21564 82.208932 534.416925 82.953984 533.090909 84.28 
C 531.764894 85.606015 531.019841 87.404731 531.019841 89.28 
C 531.019841 91.155269 531.764894 92.953984 533.090909 94.28 
C 534.416925 95.606015 536.21564 96.351068 538.090909 96.351068 
z
" clip-path="url(#p11c099b91f)" style="fill: #00ffff; fill-opacity: 0.6; stroke: #ffffff; stroke-opacity: 0.6; stroke-width: 2"/>
    <path d="M 538.090909 96.351068 
C 539.966178 96.351068 541.764894 95.606015 543.090909 94.28 
C 544.416925 92.953984 545.161977 91.155269 545.161977 89.28 
C 545.161977 87.404731 544.416925 85.606015 543.090909 84.28 
C 541.764894 82.953984 539.966178 82.208932 538.090909 82.208932 
C 536.21564 82.208932 534.416925 82.953984 533.090909 84.28 
C 531.764894 85.606015 531.019841 87.404731 531.019841 89.28 
C 531.019841 91.155269 531.764894 92.953984 533.090909 94.28 
C 534.416925 95.606015 536.21564 96.351068 538.090909 96.351068 
z
" clip-path="url(#p11c099b91f)" style="fill: #ff0000; fill-opacity: 0.6; stroke: #ffffff; stroke-opacity: 0.6; stroke-width: 2"/>
    <path d="M 538.090909 96.351068 
C 539.966178 96.351068 541.764894 95.606015 543.090909 94.28 
C 544.416925 92.953984 545.161977 91.155269 545.161977 89.28 
C 545.161977 87.404731 544.416925 85.606015 543.090909 84.28 
C 541.764894 82.953984 539.966178 82.208932 538.090909 82.208932 
C 536.21564 82.208932 534.416925 82.953984 533.090909 84.28 
C 531.764894 85.606015 531.019841 87.404731 531.019841 89.28 
C 531.019841 91.155269 531.764894 92.953984 533.090909 94.28 
C 534.416925 95.606015 536.21564 96.351068 538.090909 96.351068 
z
" clip-path="url(#p11c099b91f)" style="fill: #ff00ff; fill-opacity: 0.6; stroke: #ffffff; stroke-opacity: 0.6; stroke-width: 2"/>
    <path d="M 538.090909 94.28 
C 539.416925 94.28 540.688808 93.753168 541.626443 92.815534 
C 542.564078 91.877899 543.090909 90.606015 543.090909 89.28 
C 543.090909 87.953984 542.564078 86.682101 541.626443 85.744466 
C 540.688808 84.806832 539.416925 84.28 538.090909 84.28 
C 536.764894 84.28 535.49301 84.806832 534.555375 85.744466 
C 533.617741 86.682101 533.090909 87.953984 533.090909 89.28 
C 533.090909 90.606015 533.617741 91.877899 534.555375 92.815534 
C 535.49301 93.753168 536.764894 94.28 538.090909 94.28 
z
" clip-path="url(#p11c099b91f)" style="fill: #ffa500; fill-opacity: 0.6; stroke: #ffffff; stroke-opacity: 0.6; stroke-width: 2"/>
    <path d="M 622.636364 501.140254 
C 624.93309 501.140254 627.136057 500.227755 628.760088 498.603724 
C 630.384119 496.979694 631.296618 494.776726 631.296618 492.48 
C 631.296618 490.183274 630.384119 487.980306 628.760088 486.356276 
C 627.136057 484.732245 624.93309 483.819746 622.636364 483.819746 
C 620.339637 483.819746 618.13667 484.732245 616.512639 486.356276 
C 614.888609 487.980306 613.97611 490.183274 613.97611 492.48 
C 613.97611 494.776726 614.888609 496.979694 616.512639 498.603724 
C 618.13667 500.227755 620.339637 501.140254 622.636364 501.140254 
z
" clip-path="url(#p11c099b91f)" style="fill: #00ffff; fill-opacity: 0.6; stroke: #ffffff; stroke-opacity: 0.6; stroke-width: 2"/>
    <path d="M 622.636364 497.48 
C 623.962379 497.48 625.234263 496.953168 626.171898 496.015534 
C 627.109532 495.077899 627.636364 493.806016 627.636364 492.48 
C 627.636364 491.153985 627.109532 489.882101 626.171898 488.944466 
C 625.234263 488.006832 623.962379 487.48 622.636364 487.48 
C 621.310348 487.48 620.038464 488.006832 619.10083 488.944466 
C 618.163195 489.882101 617.636364 491.153985 617.636364 492.48 
C 617.636364 493.806016 618.163195 495.077899 619.10083 496.015534 
C 620.038464 496.953168 621.310348 497.48 622.636364 497.48 
z
" clip-path="url(#p11c099b91f)" style="fill: #ff0000; fill-opacity: 0.6; stroke: #ffffff; stroke-opacity: 0.6; stroke-width: 2"/>
    <path d="M 622.636364 363.08 
C 623.962379 363.08 625.234263 362.553168 626.171898 361.615534 
C 627.109532 360.677899 627.636364 359.406015 627.636364 358.08 
C 627.636364 356.753985 627.109532 355.482101 626.171898 354.544466 
C 625.234263 353.606832 623.962379 353.08 622.636364 353.08 
C 621.310348 353.08 620.038464 353.606832 619.10083 354.544466 
C 618.163195 355.482101 617.636364 356.753985 617.636364 358.08 
C 617.636364 359.406015 618.163195 360.677899 619.10083 361.615534 
C 620.038464 362.553168 621.310348 363.08 622.636364 363.08 
z
" clip-path="url(#p11c099b91f)" style="fill: #00ffff; fill-opacity: 0.6; stroke: #ffffff; stroke-opacity: 0.6; stroke-width: 2"/>
    <path d="M 622.636364 363.08 
C 623.962379 363.08 625.234263 362.553168 626.171898 361.615534 
C 627.109532 360.677899 627.636364 359.406015 627.636364 358.08 
C 627.636364 356.753985 627.109532 355.482101 626.171898 354.544466 
C 625.234263 353.606832 623.962379 353.08 622.636364 353.08 
C 621.310348 353.08 620.038464 353.606832 619.10083 354.544466 
C 618.163195 355.482101 617.636364 356.753985 617.636364 358.08 
C 617.636364 359.406015 618.163195 360.677899 619.10083 361.615534 
C 620.038464 362.553168 621.310348 363.08 622.636364 363.08 
z
" clip-path="url(#p11c099b91f)" style="fill: #ff0000; fill-opacity: 0.6; stroke: #ffffff; stroke-opacity: 0.6; stroke-width: 2"/>
    <path d="M 622.636364 228.68 
C 623.962379 228.68 625.234263 228.153168 626.171898 227.215534 
C 627.109532 226.277899 627.636364 225.006016 627.636364 223.68 
C 627.636364 222.353984 627.109532 221.082101 626.171898 220.144466 
C 625.234263 219.206832 623.962379 218.68 622.636364 218.68 
C 621.310348 218.68 620.038464 219.206832 619.10083 220.144466 
C 618.163195 221.082101 617.636364 222.353984 617.636364 223.68 
C 617.636364 225.006016 618.163195 226.277899 619.10083 227.215534 
C 620.038464 228.153168 621.310348 228.68 622.636364 228.68 
z
" clip-path="url(#p11c099b91f)" style="fill: #00ffff; fill-opacity: 0.6; stroke: #ffffff; stroke-opacity: 0.6; stroke-width: 2"/>
    <path d="M 622.636364 234.86034 
C 625.601424 234.86034 628.445443 233.682309 630.542058 231.585694 
C 632.638672 229.48908 633.816704 226.645061 633.816704 223.68 
C 633.816704 220.714939 632.638672 217.87092 630.542058 215.774306 
C 628.445443 213.677691 625.601424 212.49966 622.636364 212.49966 
C 619.671303 212.49966 616.827284 213.677691 614.730669 215.774306 
C 612.634055 217.87092 611.456024 220.714939 611.456024 223.68 
C 611.456024 226.645061 612.634055 229.48908 614.730669 231.585694 
C 616.827284 233.682309 619.671303 234.86034 622.636364 234.86034 
z
" clip-path="url(#p11c099b91f)" style="fill: #ff0000; fill-opacity: 0.6; stroke: #ffffff; stroke-opacity: 0.6; stroke-width: 2"/>
    <path d="M 622.636364 94.28 
C 623.962379 94.28 625.234263 93.753168 626.171898 92.815534 
C 627.109532 91.877899 627.636364 90.606015 627.636364 89.28 
C 627.636364 87.953984 627.109532 86.682101 626.171898 85.744466 
C 625.234263 84.806832 623.962379 84.28 622.636364 84.28 
C 621.310348 84.28 620.038464 84.806832 619.10083 85.744466 
C 618.163195 86.682101 617.636364 87.953984 617.636364 89.28 
C 617.636364 90.606015 618.163195 91.877899 619.10083 92.815534 
C 620.038464 93.753168 621.310348 94.28 622.636364 94.28 
z
" clip-path="url(#p11c099b91f)" style="fill: #00ffff; fill-opacity: 0.6; stroke: #ffffff; stroke-opacity: 0.6; stroke-width: 2"/>
    <path d="M 622.636364 94.28 
C 623.962379 94.28 625.234263 93.753168 626.171898 92.815534 
C 627.109532 91.877899 627.636364 90.606015 627.636364 89.28 
C 627.636364 87.953984 627.109532 86.682101 626.171898 85.744466 
C 625.234263 84.806832 623.962379 84.28 622.636364 84.28 
C 621.310348 84.28 620.038464 84.806832 619.10083 85.744466 
C 618.163195 86.682101 617.636364 87.953984 617.636364 89.28 
C 617.636364 90.606015 618.163195 91.877899 619.10083 92.815534 
C 620.038464 93.753168 621.310348 94.28 622.636364 94.28 
z
" clip-path="url(#p11c099b91f)" style="fill: #ff0000; fill-opacity: 0.6; stroke: #ffffff; stroke-opacity: 0.6; stroke-width: 2"/>
   </g>
   <g id="matplotlib.axis_1">
    <g id="xtick_1">
     <g id="line2d_1">
      <path d="M 115.363636 512.64 
L 115.363636 69.12 
" clip-path="url(#p11c099b91f)" style="fill: none; stroke: #b0b0b0; stroke-width: 0.8; stroke-linecap: square"/>
     </g>
     <g id="line2d_2">
      <defs>
       <path id="m5c13c14a30" d="M 0 0 
L 0 3.5 
" style="stroke: #000000; stroke-width: 0.8"/>
      </defs>
      <g>
       <use xlink:href="#m5c13c14a30" x="115.363636" y="512.64" style="stroke: #000000; stroke-width: 0.8"/>
      </g>
     </g>
     <g id="text_1">
      <!-- VR -->
      <g transform="translate(108.469105 527.238438) scale(0.1 -0.1)">
       <defs>
        <path id="DejaVuSans-56" d="M 1831 0 
L 50 4666 
L 709 4666 
L 2188 738 
L 3669 4666 
L 4325 4666 
L 2547 0 
L 1831 0 
z
" transform="scale(0.015625)"/>
        <path id="DejaVuSans-52" d="M 2841 2188 
Q 3044 2119 3236 1894 
Q 3428 1669 3622 1275 
L 4263 0 
L 3584 0 
L 2988 1197 
Q 2756 1666 2539 1819 
Q 2322 1972 1947 1972 
L 1259 1972 
L 1259 0 
L 628 0 
L 628 4666 
L 2053 4666 
Q 2853 4666 3247 4331 
Q 3641 3997 3641 3322 
Q 3641 2881 3436 2590 
Q 3231 2300 2841 2188 
z
M 1259 4147 
L 1259 2491 
L 2053 2491 
Q 2509 2491 2742 2702 
Q 2975 2913 2975 3322 
Q 2975 3731 2742 3939 
Q 2509 4147 2053 4147 
L 1259 4147 
z
" transform="scale(0.015625)"/>
       </defs>
       <use xlink:href="#DejaVuSans-56"/>
       <use xlink:href="#DejaVuSans-52" x="68.408203"/>
      </g>
     </g>
    </g>
    <g id="xtick_2">
     <g id="line2d_3">
      <path d="M 199.909091 512.64 
L 199.909091 69.12 
" clip-path="url(#p11c099b91f)" style="fill: none; stroke: #b0b0b0; stroke-width: 0.8; stroke-linecap: square"/>
     </g>
     <g id="line2d_4">
      <g>
       <use xlink:href="#m5c13c14a30" x="199.909091" y="512.64" style="stroke: #000000; stroke-width: 0.8"/>
      </g>
     </g>
     <g id="text_2">
      <!-- CHI -->
      <g transform="translate(191.182528 527.238438) scale(0.1 -0.1)">
       <defs>
        <path id="DejaVuSans-43" d="M 4122 4306 
L 4122 3641 
Q 3803 3938 3442 4084 
Q 3081 4231 2675 4231 
Q 1875 4231 1450 3742 
Q 1025 3253 1025 2328 
Q 1025 1406 1450 917 
Q 1875 428 2675 428 
Q 3081 428 3442 575 
Q 3803 722 4122 1019 
L 4122 359 
Q 3791 134 3420 21 
Q 3050 -91 2638 -91 
Q 1578 -91 968 557 
Q 359 1206 359 2328 
Q 359 3453 968 4101 
Q 1578 4750 2638 4750 
Q 3056 4750 3426 4639 
Q 3797 4528 4122 4306 
z
" transform="scale(0.015625)"/>
        <path id="DejaVuSans-48" d="M 628 4666 
L 1259 4666 
L 1259 2753 
L 3553 2753 
L 3553 4666 
L 4184 4666 
L 4184 0 
L 3553 0 
L 3553 2222 
L 1259 2222 
L 1259 0 
L 628 0 
L 628 4666 
z
" transform="scale(0.015625)"/>
        <path id="DejaVuSans-49" d="M 628 4666 
L 1259 4666 
L 1259 0 
L 628 0 
L 628 4666 
z
" transform="scale(0.015625)"/>
       </defs>
       <use xlink:href="#DejaVuSans-43"/>
       <use xlink:href="#DejaVuSans-48" x="69.824219"/>
       <use xlink:href="#DejaVuSans-49" x="145.019531"/>
      </g>
     </g>
    </g>
    <g id="xtick_3">
     <g id="line2d_5">
      <path d="M 284.454545 512.64 
L 284.454545 69.12 
" clip-path="url(#p11c099b91f)" style="fill: none; stroke: #b0b0b0; stroke-width: 0.8; stroke-linecap: square"/>
     </g>
     <g id="line2d_6">
      <g>
       <use xlink:href="#m5c13c14a30" x="284.454545" y="512.64" style="stroke: #000000; stroke-width: 0.8"/>
      </g>
     </g>
     <g id="text_3">
      <!-- UIST -->
      <g transform="translate(273.092045 527.238438) scale(0.1 -0.1)">
       <defs>
        <path id="DejaVuSans-55" d="M 556 4666 
L 1191 4666 
L 1191 1831 
Q 1191 1081 1462 751 
Q 1734 422 2344 422 
Q 2950 422 3222 751 
Q 3494 1081 3494 1831 
L 3494 4666 
L 4128 4666 
L 4128 1753 
Q 4128 841 3676 375 
Q 3225 -91 2344 -91 
Q 1459 -91 1007 375 
Q 556 841 556 1753 
L 556 4666 
z
" transform="scale(0.015625)"/>
        <path id="DejaVuSans-53" d="M 3425 4513 
L 3425 3897 
Q 3066 4069 2747 4153 
Q 2428 4238 2131 4238 
Q 1616 4238 1336 4038 
Q 1056 3838 1056 3469 
Q 1056 3159 1242 3001 
Q 1428 2844 1947 2747 
L 2328 2669 
Q 3034 2534 3370 2195 
Q 3706 1856 3706 1288 
Q 3706 609 3251 259 
Q 2797 -91 1919 -91 
Q 1588 -91 1214 -16 
Q 841 59 441 206 
L 441 856 
Q 825 641 1194 531 
Q 1563 422 1919 422 
Q 2459 422 2753 634 
Q 3047 847 3047 1241 
Q 3047 1584 2836 1778 
Q 2625 1972 2144 2069 
L 1759 2144 
Q 1053 2284 737 2584 
Q 422 2884 422 3419 
Q 422 4038 858 4394 
Q 1294 4750 2059 4750 
Q 2388 4750 2728 4690 
Q 3069 4631 3425 4513 
z
" transform="scale(0.015625)"/>
        <path id="DejaVuSans-54" d="M -19 4666 
L 3928 4666 
L 3928 4134 
L 2272 4134 
L 2272 0 
L 1638 0 
L 1638 4134 
L -19 4134 
L -19 4666 
z
" transform="scale(0.015625)"/>
       </defs>
       <use xlink:href="#DejaVuSans-55"/>
       <use xlink:href="#DejaVuSans-49" x="73.193359"/>
       <use xlink:href="#DejaVuSans-53" x="102.685547"/>
       <use xlink:href="#DejaVuSans-54" x="166.162109"/>
      </g>
     </g>
    </g>
    <g id="xtick_4">
     <g id="line2d_7">
      <path d="M 369 512.64 
L 369 69.12 
" clip-path="url(#p11c099b91f)" style="fill: none; stroke: #b0b0b0; stroke-width: 0.8; stroke-linecap: square"/>
     </g>
     <g id="line2d_8">
      <g>
       <use xlink:href="#m5c13c14a30" x="369" y="512.64" style="stroke: #000000; stroke-width: 0.8"/>
      </g>
     </g>
     <g id="text_4">
      <!-- TVCG -->
      <g transform="translate(355.160156 527.238438) scale(0.1 -0.1)">
       <defs>
        <path id="DejaVuSans-47" d="M 3809 666 
L 3809 1919 
L 2778 1919 
L 2778 2438 
L 4434 2438 
L 4434 434 
Q 4069 175 3628 42 
Q 3188 -91 2688 -91 
Q 1594 -91 976 548 
Q 359 1188 359 2328 
Q 359 3472 976 4111 
Q 1594 4750 2688 4750 
Q 3144 4750 3555 4637 
Q 3966 4525 4313 4306 
L 4313 3634 
Q 3963 3931 3569 4081 
Q 3175 4231 2741 4231 
Q 1884 4231 1454 3753 
Q 1025 3275 1025 2328 
Q 1025 1384 1454 906 
Q 1884 428 2741 428 
Q 3075 428 3337 486 
Q 3600 544 3809 666 
z
" transform="scale(0.015625)"/>
       </defs>
       <use xlink:href="#DejaVuSans-54"/>
       <use xlink:href="#DejaVuSans-56" x="61.083984"/>
       <use xlink:href="#DejaVuSans-43" x="129.492188"/>
       <use xlink:href="#DejaVuSans-47" x="199.316406"/>
      </g>
     </g>
    </g>
    <g id="xtick_5">
     <g id="line2d_9">
      <path d="M 453.545455 512.64 
L 453.545455 69.12 
" clip-path="url(#p11c099b91f)" style="fill: none; stroke: #b0b0b0; stroke-width: 0.8; stroke-linecap: square"/>
     </g>
     <g id="line2d_10">
      <g>
       <use xlink:href="#m5c13c14a30" x="453.545455" y="512.64" style="stroke: #000000; stroke-width: 0.8"/>
      </g>
     </g>
     <g id="text_5">
      <!-- Other Venues -->
      <g transform="translate(419.631392 527.238438) scale(0.1 -0.1)">
       <defs>
        <path id="DejaVuSans-4f" d="M 2522 4238 
Q 1834 4238 1429 3725 
Q 1025 3213 1025 2328 
Q 1025 1447 1429 934 
Q 1834 422 2522 422 
Q 3209 422 3611 934 
Q 4013 1447 4013 2328 
Q 4013 3213 3611 3725 
Q 3209 4238 2522 4238 
z
M 2522 4750 
Q 3503 4750 4090 4092 
Q 4678 3434 4678 2328 
Q 4678 1225 4090 567 
Q 3503 -91 2522 -91 
Q 1538 -91 948 565 
Q 359 1222 359 2328 
Q 359 3434 948 4092 
Q 1538 4750 2522 4750 
z
" transform="scale(0.015625)"/>
        <path id="DejaVuSans-74" d="M 1172 4494 
L 1172 3500 
L 2356 3500 
L 2356 3053 
L 1172 3053 
L 1172 1153 
Q 1172 725 1289 603 
Q 1406 481 1766 481 
L 2356 481 
L 2356 0 
L 1766 0 
Q 1100 0 847 248 
Q 594 497 594 1153 
L 594 3053 
L 172 3053 
L 172 3500 
L 594 3500 
L 594 4494 
L 1172 4494 
z
" transform="scale(0.015625)"/>
        <path id="DejaVuSans-68" d="M 3513 2113 
L 3513 0 
L 2938 0 
L 2938 2094 
Q 2938 2591 2744 2837 
Q 2550 3084 2163 3084 
Q 1697 3084 1428 2787 
Q 1159 2491 1159 1978 
L 1159 0 
L 581 0 
L 581 4863 
L 1159 4863 
L 1159 2956 
Q 1366 3272 1645 3428 
Q 1925 3584 2291 3584 
Q 2894 3584 3203 3211 
Q 3513 2838 3513 2113 
z
" transform="scale(0.015625)"/>
        <path id="DejaVuSans-65" d="M 3597 1894 
L 3597 1613 
L 953 1613 
Q 991 1019 1311 708 
Q 1631 397 2203 397 
Q 2534 397 2845 478 
Q 3156 559 3463 722 
L 3463 178 
Q 3153 47 2828 -22 
Q 2503 -91 2169 -91 
Q 1331 -91 842 396 
Q 353 884 353 1716 
Q 353 2575 817 3079 
Q 1281 3584 2069 3584 
Q 2775 3584 3186 3129 
Q 3597 2675 3597 1894 
z
M 3022 2063 
Q 3016 2534 2758 2815 
Q 2500 3097 2075 3097 
Q 1594 3097 1305 2825 
Q 1016 2553 972 2059 
L 3022 2063 
z
" transform="scale(0.015625)"/>
        <path id="DejaVuSans-72" d="M 2631 2963 
Q 2534 3019 2420 3045 
Q 2306 3072 2169 3072 
Q 1681 3072 1420 2755 
Q 1159 2438 1159 1844 
L 1159 0 
L 581 0 
L 581 3500 
L 1159 3500 
L 1159 2956 
Q 1341 3275 1631 3429 
Q 1922 3584 2338 3584 
Q 2397 3584 2469 3576 
Q 2541 3569 2628 3553 
L 2631 2963 
z
" transform="scale(0.015625)"/>
        <path id="DejaVuSans-20" transform="scale(0.015625)"/>
        <path id="DejaVuSans-6e" d="M 3513 2113 
L 3513 0 
L 2938 0 
L 2938 2094 
Q 2938 2591 2744 2837 
Q 2550 3084 2163 3084 
Q 1697 3084 1428 2787 
Q 1159 2491 1159 1978 
L 1159 0 
L 581 0 
L 581 3500 
L 1159 3500 
L 1159 2956 
Q 1366 3272 1645 3428 
Q 1925 3584 2291 3584 
Q 2894 3584 3203 3211 
Q 3513 2838 3513 2113 
z
" transform="scale(0.015625)"/>
        <path id="DejaVuSans-75" d="M 544 1381 
L 544 3500 
L 1119 3500 
L 1119 1403 
Q 1119 906 1312 657 
Q 1506 409 1894 409 
Q 2359 409 2629 706 
Q 2900 1003 2900 1516 
L 2900 3500 
L 3475 3500 
L 3475 0 
L 2900 0 
L 2900 538 
Q 2691 219 2414 64 
Q 2138 -91 1772 -91 
Q 1169 -91 856 284 
Q 544 659 544 1381 
z
M 1991 3584 
L 1991 3584 
z
" transform="scale(0.015625)"/>
        <path id="DejaVuSans-73" d="M 2834 3397 
L 2834 2853 
Q 2591 2978 2328 3040 
Q 2066 3103 1784 3103 
Q 1356 3103 1142 2972 
Q 928 2841 928 2578 
Q 928 2378 1081 2264 
Q 1234 2150 1697 2047 
L 1894 2003 
Q 2506 1872 2764 1633 
Q 3022 1394 3022 966 
Q 3022 478 2636 193 
Q 2250 -91 1575 -91 
Q 1294 -91 989 -36 
Q 684 19 347 128 
L 347 722 
Q 666 556 975 473 
Q 1284 391 1588 391 
Q 1994 391 2212 530 
Q 2431 669 2431 922 
Q 2431 1156 2273 1281 
Q 2116 1406 1581 1522 
L 1381 1569 
Q 847 1681 609 1914 
Q 372 2147 372 2553 
Q 372 3047 722 3315 
Q 1072 3584 1716 3584 
Q 2034 3584 2315 3537 
Q 2597 3491 2834 3397 
z
" transform="scale(0.015625)"/>
       </defs>
       <use xlink:href="#DejaVuSans-4f"/>
       <use xlink:href="#DejaVuSans-74" x="78.710938"/>
       <use xlink:href="#DejaVuSans-68" x="117.919922"/>
       <use xlink:href="#DejaVuSans-65" x="181.298828"/>
       <use xlink:href="#DejaVuSans-72" x="242.822266"/>
       <use xlink:href="#DejaVuSans-20" x="283.935547"/>
       <use xlink:href="#DejaVuSans-56" x="315.722656"/>
       <use xlink:href="#DejaVuSans-65" x="376.380859"/>
       <use xlink:href="#DejaVuSans-6e" x="437.904297"/>
       <use xlink:href="#DejaVuSans-75" x="501.283203"/>
       <use xlink:href="#DejaVuSans-65" x="564.662109"/>
       <use xlink:href="#DejaVuSans-73" x="626.185547"/>
      </g>
     </g>
    </g>
    <g id="xtick_6">
     <g id="line2d_11">
      <path d="M 538.090909 512.64 
L 538.090909 69.12 
" clip-path="url(#p11c099b91f)" style="fill: none; stroke: #b0b0b0; stroke-width: 0.8; stroke-linecap: square"/>
     </g>
     <g id="line2d_12">
      <g>
       <use xlink:href="#m5c13c14a30" x="538.090909" y="512.64" style="stroke: #000000; stroke-width: 0.8"/>
      </g>
     </g>
     <g id="text_6">
      <!-- USS -->
      <g transform="translate(528.083097 527.238438) scale(0.1 -0.1)">
       <use xlink:href="#DejaVuSans-55"/>
       <use xlink:href="#DejaVuSans-53" x="73.193359"/>
       <use xlink:href="#DejaVuSans-53" x="136.669922"/>
      </g>
     </g>
    </g>
    <g id="xtick_7">
     <g id="line2d_13">
      <path d="M 622.636364 512.64 
L 622.636364 69.12 
" clip-path="url(#p11c099b91f)" style="fill: none; stroke: #b0b0b0; stroke-width: 0.8; stroke-linecap: square"/>
     </g>
     <g id="line2d_14">
      <g>
       <use xlink:href="#m5c13c14a30" x="622.636364" y="512.64" style="stroke: #000000; stroke-width: 0.8"/>
      </g>
     </g>
     <g id="text_7">
      <!-- SP -->
      <g transform="translate(616.447301 527.238438) scale(0.1 -0.1)">
       <defs>
        <path id="DejaVuSans-50" d="M 1259 4147 
L 1259 2394 
L 2053 2394 
Q 2494 2394 2734 2622 
Q 2975 2850 2975 3272 
Q 2975 3691 2734 3919 
Q 2494 4147 2053 4147 
L 1259 4147 
z
M 628 4666 
L 2053 4666 
Q 2838 4666 3239 4311 
Q 3641 3956 3641 3272 
Q 3641 2581 3239 2228 
Q 2838 1875 2053 1875 
L 1259 1875 
L 1259 0 
L 628 0 
L 628 4666 
z
" transform="scale(0.015625)"/>
       </defs>
       <use xlink:href="#DejaVuSans-53"/>
       <use xlink:href="#DejaVuSans-50" x="63.476562"/>
      </g>
     </g>
    </g>
    <g id="text_8">
     <!-- venue -->
     <g transform="translate(353.55 540.916563) scale(0.1 -0.1)">
      <defs>
       <path id="DejaVuSans-76" d="M 191 3500 
L 800 3500 
L 1894 563 
L 2988 3500 
L 3597 3500 
L 2284 0 
L 1503 0 
L 191 3500 
z
" transform="scale(0.015625)"/>
      </defs>
      <use xlink:href="#DejaVuSans-76"/>
      <use xlink:href="#DejaVuSans-65" x="59.179688"/>
      <use xlink:href="#DejaVuSans-6e" x="120.703125"/>
      <use xlink:href="#DejaVuSans-75" x="184.082031"/>
      <use xlink:href="#DejaVuSans-65" x="247.460938"/>
     </g>
    </g>
   </g>
   <g id="matplotlib.axis_2">
    <g id="ytick_1">
     <g id="line2d_15">
      <path d="M 90 492.48 
L 648 492.48 
" clip-path="url(#p11c099b91f)" style="fill: none; stroke: #b0b0b0; stroke-width: 0.8; stroke-linecap: square"/>
     </g>
     <g id="line2d_16">
      <defs>
       <path id="mbc0d0568c0" d="M 0 0 
L -3.5 0 
" style="stroke: #000000; stroke-width: 0.8"/>
      </defs>
      <g>
       <use xlink:href="#mbc0d0568c0" x="90" y="492.48" style="stroke: #000000; stroke-width: 0.8"/>
      </g>
     </g>
     <g id="text_9">
      <!-- Virtual World -->
      <g transform="translate(18.496875 496.279219) scale(0.1 -0.1)">
       <defs>
        <path id="DejaVuSans-69" d="M 603 3500 
L 1178 3500 
L 1178 0 
L 603 0 
L 603 3500 
z
M 603 4863 
L 1178 4863 
L 1178 4134 
L 603 4134 
L 603 4863 
z
" transform="scale(0.015625)"/>
        <path id="DejaVuSans-61" d="M 2194 1759 
Q 1497 1759 1228 1600 
Q 959 1441 959 1056 
Q 959 750 1161 570 
Q 1363 391 1709 391 
Q 2188 391 2477 730 
Q 2766 1069 2766 1631 
L 2766 1759 
L 2194 1759 
z
M 3341 1997 
L 3341 0 
L 2766 0 
L 2766 531 
Q 2569 213 2275 61 
Q 1981 -91 1556 -91 
Q 1019 -91 701 211 
Q 384 513 384 1019 
Q 384 1609 779 1909 
Q 1175 2209 1959 2209 
L 2766 2209 
L 2766 2266 
Q 2766 2663 2505 2880 
Q 2244 3097 1772 3097 
Q 1472 3097 1187 3025 
Q 903 2953 641 2809 
L 641 3341 
Q 956 3463 1253 3523 
Q 1550 3584 1831 3584 
Q 2591 3584 2966 3190 
Q 3341 2797 3341 1997 
z
" transform="scale(0.015625)"/>
        <path id="DejaVuSans-6c" d="M 603 4863 
L 1178 4863 
L 1178 0 
L 603 0 
L 603 4863 
z
" transform="scale(0.015625)"/>
        <path id="DejaVuSans-57" d="M 213 4666 
L 850 4666 
L 1831 722 
L 2809 4666 
L 3519 4666 
L 4500 722 
L 5478 4666 
L 6119 4666 
L 4947 0 
L 4153 0 
L 3169 4050 
L 2175 0 
L 1381 0 
L 213 4666 
z
" transform="scale(0.015625)"/>
        <path id="DejaVuSans-6f" d="M 1959 3097 
Q 1497 3097 1228 2736 
Q 959 2375 959 1747 
Q 959 1119 1226 758 
Q 1494 397 1959 397 
Q 2419 397 2687 759 
Q 2956 1122 2956 1747 
Q 2956 2369 2687 2733 
Q 2419 3097 1959 3097 
z
M 1959 3584 
Q 2709 3584 3137 3096 
Q 3566 2609 3566 1747 
Q 3566 888 3137 398 
Q 2709 -91 1959 -91 
Q 1206 -91 779 398 
Q 353 888 353 1747 
Q 353 2609 779 3096 
Q 1206 3584 1959 3584 
z
" transform="scale(0.015625)"/>
        <path id="DejaVuSans-64" d="M 2906 2969 
L 2906 4863 
L 3481 4863 
L 3481 0 
L 2906 0 
L 2906 525 
Q 2725 213 2448 61 
Q 2172 -91 1784 -91 
Q 1150 -91 751 415 
Q 353 922 353 1747 
Q 353 2572 751 3078 
Q 1150 3584 1784 3584 
Q 2172 3584 2448 3432 
Q 2725 3281 2906 2969 
z
M 947 1747 
Q 947 1113 1208 752 
Q 1469 391 1925 391 
Q 2381 391 2643 752 
Q 2906 1113 2906 1747 
Q 2906 2381 2643 2742 
Q 2381 3103 1925 3103 
Q 1469 3103 1208 2742 
Q 947 2381 947 1747 
z
" transform="scale(0.015625)"/>
       </defs>
       <use xlink:href="#DejaVuSans-56"/>
       <use xlink:href="#DejaVuSans-69" x="66.158203"/>
       <use xlink:href="#DejaVuSans-72" x="93.941406"/>
       <use xlink:href="#DejaVuSans-74" x="135.054688"/>
       <use xlink:href="#DejaVuSans-75" x="174.263672"/>
       <use xlink:href="#DejaVuSans-61" x="237.642578"/>
       <use xlink:href="#DejaVuSans-6c" x="298.921875"/>
       <use xlink:href="#DejaVuSans-20" x="326.705078"/>
       <use xlink:href="#DejaVuSans-57" x="358.492188"/>
       <use xlink:href="#DejaVuSans-6f" x="451.494141"/>
       <use xlink:href="#DejaVuSans-72" x="512.675781"/>
       <use xlink:href="#DejaVuSans-6c" x="553.789062"/>
       <use xlink:href="#DejaVuSans-64" x="581.572266"/>
      </g>
     </g>
    </g>
    <g id="ytick_2">
     <g id="line2d_17">
      <path d="M 90 358.08 
L 648 358.08 
" clip-path="url(#p11c099b91f)" style="fill: none; stroke: #b0b0b0; stroke-width: 0.8; stroke-linecap: square"/>
     </g>
     <g id="line2d_18">
      <g>
       <use xlink:href="#mbc0d0568c0" x="90" y="358.08" style="stroke: #000000; stroke-width: 0.8"/>
      </g>
     </g>
     <g id="text_10">
      <!-- Lifelogging -->
      <g transform="translate(27.91875 361.879219) scale(0.1 -0.1)">
       <defs>
        <path id="DejaVuSans-4c" d="M 628 4666 
L 1259 4666 
L 1259 531 
L 3531 531 
L 3531 0 
L 628 0 
L 628 4666 
z
" transform="scale(0.015625)"/>
        <path id="DejaVuSans-66" d="M 2375 4863 
L 2375 4384 
L 1825 4384 
Q 1516 4384 1395 4259 
Q 1275 4134 1275 3809 
L 1275 3500 
L 2222 3500 
L 2222 3053 
L 1275 3053 
L 1275 0 
L 697 0 
L 697 3053 
L 147 3053 
L 147 3500 
L 697 3500 
L 697 3744 
Q 697 4328 969 4595 
Q 1241 4863 1831 4863 
L 2375 4863 
z
" transform="scale(0.015625)"/>
        <path id="DejaVuSans-67" d="M 2906 1791 
Q 2906 2416 2648 2759 
Q 2391 3103 1925 3103 
Q 1463 3103 1205 2759 
Q 947 2416 947 1791 
Q 947 1169 1205 825 
Q 1463 481 1925 481 
Q 2391 481 2648 825 
Q 2906 1169 2906 1791 
z
M 3481 434 
Q 3481 -459 3084 -895 
Q 2688 -1331 1869 -1331 
Q 1566 -1331 1297 -1286 
Q 1028 -1241 775 -1147 
L 775 -588 
Q 1028 -725 1275 -790 
Q 1522 -856 1778 -856 
Q 2344 -856 2625 -561 
Q 2906 -266 2906 331 
L 2906 616 
Q 2728 306 2450 153 
Q 2172 0 1784 0 
Q 1141 0 747 490 
Q 353 981 353 1791 
Q 353 2603 747 3093 
Q 1141 3584 1784 3584 
Q 2172 3584 2450 3431 
Q 2728 3278 2906 2969 
L 2906 3500 
L 3481 3500 
L 3481 434 
z
" transform="scale(0.015625)"/>
       </defs>
       <use xlink:href="#DejaVuSans-4c"/>
       <use xlink:href="#DejaVuSans-69" x="55.712891"/>
       <use xlink:href="#DejaVuSans-66" x="83.496094"/>
       <use xlink:href="#DejaVuSans-65" x="118.701172"/>
       <use xlink:href="#DejaVuSans-6c" x="180.224609"/>
       <use xlink:href="#DejaVuSans-6f" x="208.007812"/>
       <use xlink:href="#DejaVuSans-67" x="269.189453"/>
       <use xlink:href="#DejaVuSans-67" x="332.666016"/>
       <use xlink:href="#DejaVuSans-69" x="396.142578"/>
       <use xlink:href="#DejaVuSans-6e" x="423.925781"/>
       <use xlink:href="#DejaVuSans-67" x="487.304688"/>
      </g>
     </g>
    </g>
    <g id="ytick_3">
     <g id="line2d_19">
      <path d="M 90 223.68 
L 648 223.68 
" clip-path="url(#p11c099b91f)" style="fill: none; stroke: #b0b0b0; stroke-width: 0.8; stroke-linecap: square"/>
     </g>
     <g id="line2d_20">
      <g>
       <use xlink:href="#mbc0d0568c0" x="90" y="223.68" style="stroke: #000000; stroke-width: 0.8"/>
      </g>
     </g>
     <g id="text_11">
      <!-- Augmented Reality -->
      <g transform="translate(-12.532813 227.479219) scale(0.1 -0.1)">
       <defs>
        <path id="DejaVuSans-41" d="M 2188 4044 
L 1331 1722 
L 3047 1722 
L 2188 4044 
z
M 1831 4666 
L 2547 4666 
L 4325 0 
L 3669 0 
L 3244 1197 
L 1141 1197 
L 716 0 
L 50 0 
L 1831 4666 
z
" transform="scale(0.015625)"/>
        <path id="DejaVuSans-6d" d="M 3328 2828 
Q 3544 3216 3844 3400 
Q 4144 3584 4550 3584 
Q 5097 3584 5394 3201 
Q 5691 2819 5691 2113 
L 5691 0 
L 5113 0 
L 5113 2094 
Q 5113 2597 4934 2840 
Q 4756 3084 4391 3084 
Q 3944 3084 3684 2787 
Q 3425 2491 3425 1978 
L 3425 0 
L 2847 0 
L 2847 2094 
Q 2847 2600 2669 2842 
Q 2491 3084 2119 3084 
Q 1678 3084 1418 2786 
Q 1159 2488 1159 1978 
L 1159 0 
L 581 0 
L 581 3500 
L 1159 3500 
L 1159 2956 
Q 1356 3278 1631 3431 
Q 1906 3584 2284 3584 
Q 2666 3584 2933 3390 
Q 3200 3197 3328 2828 
z
" transform="scale(0.015625)"/>
        <path id="DejaVuSans-79" d="M 2059 -325 
Q 1816 -950 1584 -1140 
Q 1353 -1331 966 -1331 
L 506 -1331 
L 506 -850 
L 844 -850 
Q 1081 -850 1212 -737 
Q 1344 -625 1503 -206 
L 1606 56 
L 191 3500 
L 800 3500 
L 1894 763 
L 2988 3500 
L 3597 3500 
L 2059 -325 
z
" transform="scale(0.015625)"/>
       </defs>
       <use xlink:href="#DejaVuSans-41"/>
       <use xlink:href="#DejaVuSans-75" x="68.408203"/>
       <use xlink:href="#DejaVuSans-67" x="131.787109"/>
       <use xlink:href="#DejaVuSans-6d" x="195.263672"/>
       <use xlink:href="#DejaVuSans-65" x="292.675781"/>
       <use xlink:href="#DejaVuSans-6e" x="354.199219"/>
       <use xlink:href="#DejaVuSans-74" x="417.578125"/>
       <use xlink:href="#DejaVuSans-65" x="456.787109"/>
       <use xlink:href="#DejaVuSans-64" x="518.310547"/>
       <use xlink:href="#DejaVuSans-20" x="581.787109"/>
       <use xlink:href="#DejaVuSans-52" x="613.574219"/>
       <use xlink:href="#DejaVuSans-65" x="678.556641"/>
       <use xlink:href="#DejaVuSans-61" x="740.080078"/>
       <use xlink:href="#DejaVuSans-6c" x="801.359375"/>
       <use xlink:href="#DejaVuSans-69" x="829.142578"/>
       <use xlink:href="#DejaVuSans-74" x="856.925781"/>
       <use xlink:href="#DejaVuSans-79" x="896.134766"/>
      </g>
     </g>
    </g>
    <g id="ytick_4">
     <g id="line2d_21">
      <path d="M 90 89.28 
L 648 89.28 
" clip-path="url(#p11c099b91f)" style="fill: none; stroke: #b0b0b0; stroke-width: 0.8; stroke-linecap: square"/>
     </g>
     <g id="line2d_22">
      <g>
       <use xlink:href="#mbc0d0568c0" x="90" y="89.28" style="stroke: #000000; stroke-width: 0.8"/>
      </g>
     </g>
     <g id="text_12">
      <!-- Mirror World -->
      <g transform="translate(21.707812 93.079219) scale(0.1 -0.1)">
       <defs>
        <path id="DejaVuSans-4d" d="M 628 4666 
L 1569 4666 
L 2759 1491 
L 3956 4666 
L 4897 4666 
L 4897 0 
L 4281 0 
L 4281 4097 
L 3078 897 
L 2444 897 
L 1241 4097 
L 1241 0 
L 628 0 
L 628 4666 
z
" transform="scale(0.015625)"/>
       </defs>
       <use xlink:href="#DejaVuSans-4d"/>
       <use xlink:href="#DejaVuSans-69" x="86.279297"/>
       <use xlink:href="#DejaVuSans-72" x="114.0625"/>
       <use xlink:href="#DejaVuSans-72" x="153.425781"/>
       <use xlink:href="#DejaVuSans-6f" x="192.289062"/>
       <use xlink:href="#DejaVuSans-72" x="253.470703"/>
       <use xlink:href="#DejaVuSans-20" x="294.583984"/>
       <use xlink:href="#DejaVuSans-57" x="326.371094"/>
       <use xlink:href="#DejaVuSans-6f" x="419.373047"/>
       <use xlink:href="#DejaVuSans-72" x="480.554688"/>
       <use xlink:href="#DejaVuSans-6c" x="521.667969"/>
       <use xlink:href="#DejaVuSans-64" x="549.451172"/>
      </g>
     </g>
    </g>
    <g id="text_13">
     <!-- metaverse -->
     <g transform="translate(-18.6125 317.62375) rotate(-90) scale(0.1 -0.1)">
      <use xlink:href="#DejaVuSans-6d"/>
      <use xlink:href="#DejaVuSans-65" x="97.412109"/>
      <use xlink:href="#DejaVuSans-74" x="158.935547"/>
      <use xlink:href="#DejaVuSans-61" x="198.144531"/>
      <use xlink:href="#DejaVuSans-76" x="259.423828"/>
      <use xlink:href="#DejaVuSans-65" x="318.603516"/>
      <use xlink:href="#DejaVuSans-72" x="380.126953"/>
      <use xlink:href="#DejaVuSans-73" x="421.240234"/>
      <use xlink:href="#DejaVuSans-65" x="473.339844"/>
     </g>
    </g>
   </g>
   <g id="patch_3">
    <path d="M 90 512.64 
L 90 69.12 
" style="fill: none; stroke: #000000; stroke-width: 0.8; stroke-linejoin: miter; stroke-linecap: square"/>
   </g>
   <g id="patch_4">
    <path d="M 648 512.64 
L 648 69.12 
" style="fill: none; stroke: #000000; stroke-width: 0.8; stroke-linejoin: miter; stroke-linecap: square"/>
   </g>
   <g id="patch_5">
    <path d="M 90 512.64 
L 648 512.64 
" style="fill: none; stroke: #000000; stroke-width: 0.8; stroke-linejoin: miter; stroke-linecap: square"/>
   </g>
   <g id="patch_6">
    <path d="M 90 69.12 
L 648 69.12 
" style="fill: none; stroke: #000000; stroke-width: 0.8; stroke-linejoin: miter; stroke-linecap: square"/>
   </g>
   <g id="text_14">
    <!-- Bubble Chart: venue vs metaverse by reality -->
    <g transform="translate(234.546562 63.12) scale(0.12 -0.12)">
     <defs>
      <path id="DejaVuSans-42" d="M 1259 2228 
L 1259 519 
L 2272 519 
Q 2781 519 3026 730 
Q 3272 941 3272 1375 
Q 3272 1813 3026 2020 
Q 2781 2228 2272 2228 
L 1259 2228 
z
M 1259 4147 
L 1259 2741 
L 2194 2741 
Q 2656 2741 2882 2914 
Q 3109 3088 3109 3444 
Q 3109 3797 2882 3972 
Q 2656 4147 2194 4147 
L 1259 4147 
z
M 628 4666 
L 2241 4666 
Q 2963 4666 3353 4366 
Q 3744 4066 3744 3513 
Q 3744 3084 3544 2831 
Q 3344 2578 2956 2516 
Q 3422 2416 3680 2098 
Q 3938 1781 3938 1306 
Q 3938 681 3513 340 
Q 3088 0 2303 0 
L 628 0 
L 628 4666 
z
" transform="scale(0.015625)"/>
      <path id="DejaVuSans-62" d="M 3116 1747 
Q 3116 2381 2855 2742 
Q 2594 3103 2138 3103 
Q 1681 3103 1420 2742 
Q 1159 2381 1159 1747 
Q 1159 1113 1420 752 
Q 1681 391 2138 391 
Q 2594 391 2855 752 
Q 3116 1113 3116 1747 
z
M 1159 2969 
Q 1341 3281 1617 3432 
Q 1894 3584 2278 3584 
Q 2916 3584 3314 3078 
Q 3713 2572 3713 1747 
Q 3713 922 3314 415 
Q 2916 -91 2278 -91 
Q 1894 -91 1617 61 
Q 1341 213 1159 525 
L 1159 0 
L 581 0 
L 581 4863 
L 1159 4863 
L 1159 2969 
z
" transform="scale(0.015625)"/>
      <path id="DejaVuSans-3a" d="M 750 794 
L 1409 794 
L 1409 0 
L 750 0 
L 750 794 
z
M 750 3309 
L 1409 3309 
L 1409 2516 
L 750 2516 
L 750 3309 
z
" transform="scale(0.015625)"/>
     </defs>
     <use xlink:href="#DejaVuSans-42"/>
     <use xlink:href="#DejaVuSans-75" x="68.603516"/>
     <use xlink:href="#DejaVuSans-62" x="131.982422"/>
     <use xlink:href="#DejaVuSans-62" x="195.458984"/>
     <use xlink:href="#DejaVuSans-6c" x="258.935547"/>
     <use xlink:href="#DejaVuSans-65" x="286.71875"/>
     <use xlink:href="#DejaVuSans-20" x="348.242188"/>
     <use xlink:href="#DejaVuSans-43" x="380.029297"/>
     <use xlink:href="#DejaVuSans-68" x="449.853516"/>
     <use xlink:href="#DejaVuSans-61" x="513.232422"/>
     <use xlink:href="#DejaVuSans-72" x="574.511719"/>
     <use xlink:href="#DejaVuSans-74" x="615.625"/>
     <use xlink:href="#DejaVuSans-3a" x="654.833984"/>
     <use xlink:href="#DejaVuSans-20" x="688.525391"/>
     <use xlink:href="#DejaVuSans-76" x="720.3125"/>
     <use xlink:href="#DejaVuSans-65" x="779.492188"/>
     <use xlink:href="#DejaVuSans-6e" x="841.015625"/>
     <use xlink:href="#DejaVuSans-75" x="904.394531"/>
     <use xlink:href="#DejaVuSans-65" x="967.773438"/>
     <use xlink:href="#DejaVuSans-20" x="1029.296875"/>
     <use xlink:href="#DejaVuSans-76" x="1061.083984"/>
     <use xlink:href="#DejaVuSans-73" x="1120.263672"/>
     <use xlink:href="#DejaVuSans-20" x="1172.363281"/>
     <use xlink:href="#DejaVuSans-6d" x="1204.150391"/>
     <use xlink:href="#DejaVuSans-65" x="1301.5625"/>
     <use xlink:href="#DejaVuSans-74" x="1363.085938"/>
     <use xlink:href="#DejaVuSans-61" x="1402.294922"/>
     <use xlink:href="#DejaVuSans-76" x="1463.574219"/>
     <use xlink:href="#DejaVuSans-65" x="1522.753906"/>
     <use xlink:href="#DejaVuSans-72" x="1584.277344"/>
     <use xlink:href="#DejaVuSans-73" x="1625.390625"/>
     <use xlink:href="#DejaVuSans-65" x="1677.490234"/>
     <use xlink:href="#DejaVuSans-20" x="1739.013672"/>
     <use xlink:href="#DejaVuSans-62" x="1770.800781"/>
     <use xlink:href="#DejaVuSans-79" x="1834.277344"/>
     <use xlink:href="#DejaVuSans-20" x="1893.457031"/>
     <use xlink:href="#DejaVuSans-72" x="1925.244141"/>
     <use xlink:href="#DejaVuSans-65" x="1964.107422"/>
     <use xlink:href="#DejaVuSans-61" x="2025.630859"/>
     <use xlink:href="#DejaVuSans-6c" x="2086.910156"/>
     <use xlink:href="#DejaVuSans-69" x="2114.693359"/>
     <use xlink:href="#DejaVuSans-74" x="2142.476562"/>
     <use xlink:href="#DejaVuSans-79" x="2181.685547"/>
    </g>
   </g>
   <g id="legend_1">
    <g id="patch_7">
     <path d="M 513.467188 329.075313 
L 641 329.075313 
Q 643 329.075313 643 327.075313 
L 643 254.684688 
Q 643 252.684688 641 252.684688 
L 513.467188 252.684688 
Q 511.467188 252.684688 511.467188 254.684688 
L 511.467188 327.075313 
Q 511.467188 329.075313 513.467188 329.075313 
z
" style="fill: #ffffff; opacity: 0.8; stroke: #cccccc; stroke-linejoin: miter"/>
    </g>
    <g id="text_15">
     <!-- Reality -->
     <g transform="translate(560.146094 264.283125) scale(0.1 -0.1)">
      <use xlink:href="#DejaVuSans-52"/>
      <use xlink:href="#DejaVuSans-65" x="64.982422"/>
      <use xlink:href="#DejaVuSans-61" x="126.505859"/>
      <use xlink:href="#DejaVuSans-6c" x="187.785156"/>
      <use xlink:href="#DejaVuSans-69" x="215.568359"/>
      <use xlink:href="#DejaVuSans-74" x="243.351562"/>
      <use xlink:href="#DejaVuSans-79" x="282.560547"/>
     </g>
    </g>
    <g id="line2d_23">
     <path d="M 515.467188 275.46125 
L 525.467188 275.46125 
L 535.467188 275.46125 
" style="fill: none; stroke: #ffffff; stroke-width: 1.5; stroke-linecap: square"/>
     <defs>
      <path id="m006d4683d0" d="M 0 5 
C 1.326016 5 2.597899 4.473168 3.535534 3.535534 
C 4.473168 2.597899 5 1.326016 5 0 
C 5 -1.326016 4.473168 -2.597899 3.535534 -3.535534 
C 2.597899 -4.473168 1.326016 -5 0 -5 
C -1.326016 -5 -2.597899 -4.473168 -3.535534 -3.535534 
C -4.473168 -2.597899 -5 -1.326016 -5 0 
C -5 1.326016 -4.473168 2.597899 -3.535534 3.535534 
C -2.597899 4.473168 -1.326016 5 0 5 
z
" style="stroke: #ffffff"/>
     </defs>
     <g>
      <use xlink:href="#m006d4683d0" x="525.467188" y="275.46125" style="fill: #00ffff; stroke: #ffffff"/>
     </g>
    </g>
    <g id="text_16">
     <!-- Virtual Reality -->
     <g transform="translate(543.467188 278.96125) scale(0.1 -0.1)">
      <use xlink:href="#DejaVuSans-56"/>
      <use xlink:href="#DejaVuSans-69" x="66.158203"/>
      <use xlink:href="#DejaVuSans-72" x="93.941406"/>
      <use xlink:href="#DejaVuSans-74" x="135.054688"/>
      <use xlink:href="#DejaVuSans-75" x="174.263672"/>
      <use xlink:href="#DejaVuSans-61" x="237.642578"/>
      <use xlink:href="#DejaVuSans-6c" x="298.921875"/>
      <use xlink:href="#DejaVuSans-20" x="326.705078"/>
      <use xlink:href="#DejaVuSans-52" x="358.492188"/>
      <use xlink:href="#DejaVuSans-65" x="423.474609"/>
      <use xlink:href="#DejaVuSans-61" x="484.998047"/>
      <use xlink:href="#DejaVuSans-6c" x="546.277344"/>
      <use xlink:href="#DejaVuSans-69" x="574.060547"/>
      <use xlink:href="#DejaVuSans-74" x="601.84375"/>
      <use xlink:href="#DejaVuSans-79" x="641.052734"/>
     </g>
    </g>
    <g id="line2d_24">
     <path d="M 515.467188 290.139375 
L 525.467188 290.139375 
L 535.467188 290.139375 
" style="fill: none; stroke: #ffffff; stroke-width: 1.5; stroke-linecap: square"/>
     <defs>
      <path id="mb129367ce4" d="M 0 5 
C 1.326016 5 2.597899 4.473168 3.535534 3.535534 
C 4.473168 2.597899 5 1.326016 5 0 
C 5 -1.326016 4.473168 -2.597899 3.535534 -3.535534 
C 2.597899 -4.473168 1.326016 -5 0 -5 
C -1.326016 -5 -2.597899 -4.473168 -3.535534 -3.535534 
C -4.473168 -2.597899 -5 -1.326016 -5 0 
C -5 1.326016 -4.473168 2.597899 -3.535534 3.535534 
C -2.597899 4.473168 -1.326016 5 0 5 
z
" style="stroke: #ffffff"/>
     </defs>
     <g>
      <use xlink:href="#mb129367ce4" x="525.467188" y="290.139375" style="fill: #ff0000; stroke: #ffffff"/>
     </g>
    </g>
    <g id="text_17">
     <!-- Augmented Reality -->
     <g transform="translate(543.467188 293.639375) scale(0.1 -0.1)">
      <use xlink:href="#DejaVuSans-41"/>
      <use xlink:href="#DejaVuSans-75" x="68.408203"/>
      <use xlink:href="#DejaVuSans-67" x="131.787109"/>
      <use xlink:href="#DejaVuSans-6d" x="195.263672"/>
      <use xlink:href="#DejaVuSans-65" x="292.675781"/>
      <use xlink:href="#DejaVuSans-6e" x="354.199219"/>
      <use xlink:href="#DejaVuSans-74" x="417.578125"/>
      <use xlink:href="#DejaVuSans-65" x="456.787109"/>
      <use xlink:href="#DejaVuSans-64" x="518.310547"/>
      <use xlink:href="#DejaVuSans-20" x="581.787109"/>
      <use xlink:href="#DejaVuSans-52" x="613.574219"/>
      <use xlink:href="#DejaVuSans-65" x="678.556641"/>
      <use xlink:href="#DejaVuSans-61" x="740.080078"/>
      <use xlink:href="#DejaVuSans-6c" x="801.359375"/>
      <use xlink:href="#DejaVuSans-69" x="829.142578"/>
      <use xlink:href="#DejaVuSans-74" x="856.925781"/>
      <use xlink:href="#DejaVuSans-79" x="896.134766"/>
     </g>
    </g>
    <g id="line2d_25">
     <path d="M 515.467188 304.8175 
L 525.467188 304.8175 
L 535.467188 304.8175 
" style="fill: none; stroke: #ffffff; stroke-width: 1.5; stroke-linecap: square"/>
     <defs>
      <path id="m01c9fe5703" d="M 0 5 
C 1.326016 5 2.597899 4.473168 3.535534 3.535534 
C 4.473168 2.597899 5 1.326016 5 0 
C 5 -1.326016 4.473168 -2.597899 3.535534 -3.535534 
C 2.597899 -4.473168 1.326016 -5 0 -5 
C -1.326016 -5 -2.597899 -4.473168 -3.535534 -3.535534 
C -4.473168 -2.597899 -5 -1.326016 -5 0 
C -5 1.326016 -4.473168 2.597899 -3.535534 3.535534 
C -2.597899 4.473168 -1.326016 5 0 5 
z
" style="stroke: #ffffff"/>
     </defs>
     <g>
      <use xlink:href="#m01c9fe5703" x="525.467188" y="304.8175" style="fill: #ff00ff; stroke: #ffffff"/>
     </g>
    </g>
    <g id="text_18">
     <!-- Mixed Reality -->
     <g transform="translate(543.467188 308.3175) scale(0.1 -0.1)">
      <defs>
       <path id="DejaVuSans-78" d="M 3513 3500 
L 2247 1797 
L 3578 0 
L 2900 0 
L 1881 1375 
L 863 0 
L 184 0 
L 1544 1831 
L 300 3500 
L 978 3500 
L 1906 2253 
L 2834 3500 
L 3513 3500 
z
" transform="scale(0.015625)"/>
      </defs>
      <use xlink:href="#DejaVuSans-4d"/>
      <use xlink:href="#DejaVuSans-69" x="86.279297"/>
      <use xlink:href="#DejaVuSans-78" x="114.0625"/>
      <use xlink:href="#DejaVuSans-65" x="170.117188"/>
      <use xlink:href="#DejaVuSans-64" x="231.640625"/>
      <use xlink:href="#DejaVuSans-20" x="295.117188"/>
      <use xlink:href="#DejaVuSans-52" x="326.904297"/>
      <use xlink:href="#DejaVuSans-65" x="391.886719"/>
      <use xlink:href="#DejaVuSans-61" x="453.410156"/>
      <use xlink:href="#DejaVuSans-6c" x="514.689453"/>
      <use xlink:href="#DejaVuSans-69" x="542.472656"/>
      <use xlink:href="#DejaVuSans-74" x="570.255859"/>
      <use xlink:href="#DejaVuSans-79" x="609.464844"/>
     </g>
    </g>
    <g id="line2d_26">
     <path d="M 515.467188 319.495625 
L 525.467188 319.495625 
L 535.467188 319.495625 
" style="fill: none; stroke: #ffffff; stroke-width: 1.5; stroke-linecap: square"/>
     <defs>
      <path id="m4241121c5d" d="M 0 5 
C 1.326016 5 2.597899 4.473168 3.535534 3.535534 
C 4.473168 2.597899 5 1.326016 5 0 
C 5 -1.326016 4.473168 -2.597899 3.535534 -3.535534 
C 2.597899 -4.473168 1.326016 -5 0 -5 
C -1.326016 -5 -2.597899 -4.473168 -3.535534 -3.535534 
C -4.473168 -2.597899 -5 -1.326016 -5 0 
C -5 1.326016 -4.473168 2.597899 -3.535534 3.535534 
C -2.597899 4.473168 -1.326016 5 0 5 
z
" style="stroke: #ffffff"/>
     </defs>
     <g>
      <use xlink:href="#m4241121c5d" x="525.467188" y="319.495625" style="fill: #ffa500; stroke: #ffffff"/>
     </g>
    </g>
    <g id="text_19">
     <!-- Extended Reality -->
     <g transform="translate(543.467188 322.995625) scale(0.1 -0.1)">
      <defs>
       <path id="DejaVuSans-45" d="M 628 4666 
L 3578 4666 
L 3578 4134 
L 1259 4134 
L 1259 2753 
L 3481 2753 
L 3481 2222 
L 1259 2222 
L 1259 531 
L 3634 531 
L 3634 0 
L 628 0 
L 628 4666 
z
" transform="scale(0.015625)"/>
      </defs>
      <use xlink:href="#DejaVuSans-45"/>
      <use xlink:href="#DejaVuSans-78" x="63.183594"/>
      <use xlink:href="#DejaVuSans-74" x="122.363281"/>
      <use xlink:href="#DejaVuSans-65" x="161.572266"/>
      <use xlink:href="#DejaVuSans-6e" x="223.095703"/>
      <use xlink:href="#DejaVuSans-64" x="286.474609"/>
      <use xlink:href="#DejaVuSans-65" x="349.951172"/>
      <use xlink:href="#DejaVuSans-64" x="411.474609"/>
      <use xlink:href="#DejaVuSans-20" x="474.951172"/>
      <use xlink:href="#DejaVuSans-52" x="506.738281"/>
      <use xlink:href="#DejaVuSans-65" x="571.720703"/>
      <use xlink:href="#DejaVuSans-61" x="633.244141"/>
      <use xlink:href="#DejaVuSans-6c" x="694.523438"/>
      <use xlink:href="#DejaVuSans-69" x="722.306641"/>
      <use xlink:href="#DejaVuSans-74" x="750.089844"/>
      <use xlink:href="#DejaVuSans-79" x="789.298828"/>
     </g>
    </g>
   </g>
  </g>
 </g>
 <defs>
  <clipPath id="p11c099b91f">
   <rect x="90" y="69.12" width="558" height="443.52"/>
  </clipPath>
 </defs>
</svg>
