<?xml version="1.0" encoding="utf-8" standalone="no"?>
<!DOCTYPE svg PUBLIC "-//W3C//DTD SVG 1.1//EN"
  "http://www.w3.org/Graphics/SVG/1.1/DTD/svg11.dtd">
<svg xmlns:xlink="http://www.w3.org/1999/xlink" width="720pt" height="576pt" viewBox="0 0 720 576" xmlns="http://www.w3.org/2000/svg" version="1.1">
 <metadata>
  <rdf:RDF xmlns:dc="http://purl.org/dc/elements/1.1/" xmlns:cc="http://creativecommons.org/ns#" xmlns:rdf="http://www.w3.org/1999/02/22-rdf-syntax-ns#">
   <cc:Work>
    <dc:type rdf:resource="http://purl.org/dc/dcmitype/StillImage"/>
    <dc:date>2024-09-02T16:21:33.906265</dc:date>
    <dc:format>image/svg+xml</dc:format>
    <dc:creator>
     <cc:Agent>
      <dc:title>Matplotlib v3.8.2, https://matplotlib.org/</dc:title>
     </cc:Agent>
    </dc:creator>
   </cc:Work>
  </rdf:RDF>
 </metadata>
 <defs>
  <style type="text/css">*{stroke-linejoin: round; stroke-linecap: butt}</style>
 </defs>
 <g id="figure_1">
  <g id="patch_1">
   <path d="M 0 576 
L 720 576 
L 720 0 
L 0 0 
z
" style="fill: #ffffff"/>
  </g>
  <g id="axes_1">
   <g id="patch_2">
    <path d="M 90 512.64 
L 648 512.64 
L 648 69.12 
L 90 69.12 
z
" style="fill: #ffffff"/>
   </g>
   <g id="PathCollection_1">
    <path d="M 115.363636 499.551068 
C 117.238905 499.551068 119.037621 498.806016 120.363636 497.48 
C 121.689652 496.153985 122.434704 494.355269 122.434704 492.48 
C 122.434704 490.604731 121.689652 488.806016 120.363636 487.48 
C 119.037621 486.153985 117.238905 485.408932 115.363636 485.408932 
C 113.488367 485.408932 111.689652 486.153985 110.363636 487.48 
C 109.037621 488.806016 108.292569 490.604731 108.292569 492.48 
C 108.292569 494.355269 109.037621 496.153985 110.363636 497.48 
C 111.689652 498.806016 113.488367 499.551068 115.363636 499.551068 
z
" clip-path="url(#p829bacf67d)" style="fill: #0000ff; fill-opacity: 0.6; stroke: #ffffff; stroke-opacity: 0.6; stroke-width: 2"/>
    <path d="M 115.363636 501.140254 
C 117.660363 501.140254 119.86333 500.227755 121.487361 498.603724 
C 123.111391 496.979694 124.02389 494.776726 124.02389 492.48 
C 124.02389 490.183274 123.111391 487.980306 121.487361 486.356276 
C 119.86333 484.732245 117.660363 483.819746 115.363636 483.819746 
C 113.06691 483.819746 110.863943 484.732245 109.239912 486.356276 
C 107.615881 487.980306 106.703382 490.183274 106.703382 492.48 
C 106.703382 494.776726 107.615881 496.979694 109.239912 498.603724 
C 110.863943 500.227755 113.06691 501.140254 115.363636 501.140254 
z
" clip-path="url(#p829bacf67d)" style="fill: #008000; fill-opacity: 0.6; stroke: #ffffff; stroke-opacity: 0.6; stroke-width: 2"/>
    <path d="M 115.363636 504.727449 
C 118.611698 504.727449 121.727164 503.43698 124.02389 501.140254 
C 126.320617 498.843528 127.611085 495.728061 127.611085 492.48 
C 127.611085 489.231939 126.320617 486.116472 124.02389 483.819746 
C 121.727164 481.52302 118.611698 480.232551 115.363636 480.232551 
C 112.115575 480.232551 109.000109 481.52302 106.703382 483.819746 
C 104.406656 486.116472 103.116188 489.231939 103.116188 492.48 
C 103.116188 495.728061 104.406656 498.843528 106.703382 501.140254 
C 109.000109 503.43698 112.115575 504.727449 115.363636 504.727449 
z
" clip-path="url(#p829bacf67d)" style="fill: #00ffff; fill-opacity: 0.6; stroke: #ffffff; stroke-opacity: 0.6; stroke-width: 2"/>
    <path d="M 115.363636 365.151068 
C 117.238905 365.151068 119.037621 364.406015 120.363636 363.08 
C 121.689652 361.753985 122.434704 359.955269 122.434704 358.08 
C 122.434704 356.204731 121.689652 354.406015 120.363636 353.08 
C 119.037621 351.753985 117.238905 351.008932 115.363636 351.008932 
C 113.488367 351.008932 111.689652 351.753985 110.363636 353.08 
C 109.037621 354.406015 108.292569 356.204731 108.292569 358.08 
C 108.292569 359.955269 109.037621 361.753985 110.363636 363.08 
C 111.689652 364.406015 113.488367 365.151068 115.363636 365.151068 
z
" clip-path="url(#p829bacf67d)" style="fill: #00ffff; fill-opacity: 0.6; stroke: #ffffff; stroke-opacity: 0.6; stroke-width: 2"/>
    <path d="M 115.363636 230.751068 
C 117.238905 230.751068 119.037621 230.006016 120.363636 228.68 
C 121.689652 227.353984 122.434704 225.555269 122.434704 223.68 
C 122.434704 221.804731 121.689652 220.006016 120.363636 218.68 
C 119.037621 217.353984 117.238905 216.608932 115.363636 216.608932 
C 113.488367 216.608932 111.689652 217.353984 110.363636 218.68 
C 109.037621 220.006016 108.292569 221.804731 108.292569 223.68 
C 108.292569 225.555269 109.037621 227.353984 110.363636 228.68 
C 111.689652 230.006016 113.488367 230.751068 115.363636 230.751068 
z
" clip-path="url(#p829bacf67d)" style="fill: #00ffff; fill-opacity: 0.6; stroke: #ffffff; stroke-opacity: 0.6; stroke-width: 2"/>
    <path d="M 199.909091 497.48 
C 201.235106 497.48 202.50699 496.953168 203.444625 496.015534 
C 204.382259 495.077899 204.909091 493.806016 204.909091 492.48 
C 204.909091 491.153985 204.382259 489.882101 203.444625 488.944466 
C 202.50699 488.006832 201.235106 487.48 199.909091 487.48 
C 198.583075 487.48 197.311192 488.006832 196.373557 488.944466 
C 195.435922 489.882101 194.909091 491.153985 194.909091 492.48 
C 194.909091 493.806016 195.435922 495.077899 196.373557 496.015534 
C 197.311192 496.953168 198.583075 497.48 199.909091 497.48 
z
" clip-path="url(#p829bacf67d)" style="fill: #0000ff; fill-opacity: 0.6; stroke: #ffffff; stroke-opacity: 0.6; stroke-width: 2"/>
    <path d="M 199.909091 503.66034 
C 202.874152 503.66034 205.71817 502.482309 207.814785 500.385694 
C 209.9114 498.28908 211.089431 495.445061 211.089431 492.48 
C 211.089431 489.514939 209.9114 486.67092 207.814785 484.574306 
C 205.71817 482.477691 202.874152 481.29966 199.909091 481.29966 
C 196.94403 481.29966 194.100011 482.477691 192.003397 484.574306 
C 189.906782 486.67092 188.728751 489.514939 188.728751 492.48 
C 188.728751 495.445061 189.906782 498.28908 192.003397 500.385694 
C 194.100011 502.482309 196.94403 503.66034 199.909091 503.66034 
z
" clip-path="url(#p829bacf67d)" style="fill: #008000; fill-opacity: 0.6; stroke: #ffffff; stroke-opacity: 0.6; stroke-width: 2"/>
    <path d="M 199.909091 363.08 
C 201.235106 363.08 202.50699 362.553168 203.444625 361.615534 
C 204.382259 360.677899 204.909091 359.406015 204.909091 358.08 
C 204.909091 356.753985 204.382259 355.482101 203.444625 354.544466 
C 202.50699 353.606832 201.235106 353.08 199.909091 353.08 
C 198.583075 353.08 197.311192 353.606832 196.373557 354.544466 
C 195.435922 355.482101 194.909091 356.753985 194.909091 358.08 
C 194.909091 359.406015 195.435922 360.677899 196.373557 361.615534 
C 197.311192 362.553168 198.583075 363.08 199.909091 363.08 
z
" clip-path="url(#p829bacf67d)" style="fill: #0000ff; fill-opacity: 0.6; stroke: #ffffff; stroke-opacity: 0.6; stroke-width: 2"/>
    <path d="M 199.909091 363.08 
C 201.235106 363.08 202.50699 362.553168 203.444625 361.615534 
C 204.382259 360.677899 204.909091 359.406015 204.909091 358.08 
C 204.909091 356.753985 204.382259 355.482101 203.444625 354.544466 
C 202.50699 353.606832 201.235106 353.08 199.909091 353.08 
C 198.583075 353.08 197.311192 353.606832 196.373557 354.544466 
C 195.435922 355.482101 194.909091 356.753985 194.909091 358.08 
C 194.909091 359.406015 195.435922 360.677899 196.373557 361.615534 
C 197.311192 362.553168 198.583075 363.08 199.909091 363.08 
z
" clip-path="url(#p829bacf67d)" style="fill: #008000; fill-opacity: 0.6; stroke: #ffffff; stroke-opacity: 0.6; stroke-width: 2"/>
    <path d="M 199.909091 363.08 
C 201.235106 363.08 202.50699 362.553168 203.444625 361.615534 
C 204.382259 360.677899 204.909091 359.406015 204.909091 358.08 
C 204.909091 356.753985 204.382259 355.482101 203.444625 354.544466 
C 202.50699 353.606832 201.235106 353.08 199.909091 353.08 
C 198.583075 353.08 197.311192 353.606832 196.373557 354.544466 
C 195.435922 355.482101 194.909091 356.753985 194.909091 358.08 
C 194.909091 359.406015 195.435922 360.677899 196.373557 361.615534 
C 197.311192 362.553168 198.583075 363.08 199.909091 363.08 
z
" clip-path="url(#p829bacf67d)" style="fill: #800080; fill-opacity: 0.6; stroke: #ffffff; stroke-opacity: 0.6; stroke-width: 2"/>
    <path d="M 199.909091 94.28 
C 201.235106 94.28 202.50699 93.753168 203.444625 92.815534 
C 204.382259 91.877899 204.909091 90.606015 204.909091 89.28 
C 204.909091 87.953984 204.382259 86.682101 203.444625 85.744466 
C 202.50699 84.806832 201.235106 84.28 199.909091 84.28 
C 198.583075 84.28 197.311192 84.806832 196.373557 85.744466 
C 195.435922 86.682101 194.909091 87.953984 194.909091 89.28 
C 194.909091 90.606015 195.435922 91.877899 196.373557 92.815534 
C 197.311192 93.753168 198.583075 94.28 199.909091 94.28 
z
" clip-path="url(#p829bacf67d)" style="fill: #008000; fill-opacity: 0.6; stroke: #ffffff; stroke-opacity: 0.6; stroke-width: 2"/>
    <path d="M 284.454545 497.48 
C 285.780561 497.48 287.052445 496.953168 287.990079 496.015534 
C 288.927714 495.077899 289.454545 493.806016 289.454545 492.48 
C 289.454545 491.153985 288.927714 489.882101 287.990079 488.944466 
C 287.052445 488.006832 285.780561 487.48 284.454545 487.48 
C 283.12853 487.48 281.856646 488.006832 280.919012 488.944466 
C 279.981377 489.882101 279.454545 491.153985 279.454545 492.48 
C 279.454545 493.806016 279.981377 495.077899 280.919012 496.015534 
C 281.856646 496.953168 283.12853 497.48 284.454545 497.48 
z
" clip-path="url(#p829bacf67d)" style="fill: #00ffff; fill-opacity: 0.6; stroke: #ffffff; stroke-opacity: 0.6; stroke-width: 2"/>
    <path d="M 284.454545 363.08 
C 285.780561 363.08 287.052445 362.553168 287.990079 361.615534 
C 288.927714 360.677899 289.454545 359.406015 289.454545 358.08 
C 289.454545 356.753985 288.927714 355.482101 287.990079 354.544466 
C 287.052445 353.606832 285.780561 353.08 284.454545 353.08 
C 283.12853 353.08 281.856646 353.606832 280.919012 354.544466 
C 279.981377 355.482101 279.454545 356.753985 279.454545 358.08 
C 279.454545 359.406015 279.981377 360.677899 280.919012 361.615534 
C 281.856646 362.553168 283.12853 363.08 284.454545 363.08 
z
" clip-path="url(#p829bacf67d)" style="fill: #0000ff; fill-opacity: 0.6; stroke: #ffffff; stroke-opacity: 0.6; stroke-width: 2"/>
    <path d="M 284.454545 365.151068 
C 286.329815 365.151068 288.12853 364.406015 289.454545 363.08 
C 290.780561 361.753985 291.525613 359.955269 291.525613 358.08 
C 291.525613 356.204731 290.780561 354.406015 289.454545 353.08 
C 288.12853 351.753985 286.329815 351.008932 284.454545 351.008932 
C 282.579276 351.008932 280.780561 351.753985 279.454545 353.08 
C 278.12853 354.406015 277.383478 356.204731 277.383478 358.08 
C 277.383478 359.955269 278.12853 361.753985 279.454545 363.08 
C 280.780561 364.406015 282.579276 365.151068 284.454545 365.151068 
z
" clip-path="url(#p829bacf67d)" style="fill: #008000; fill-opacity: 0.6; stroke: #ffffff; stroke-opacity: 0.6; stroke-width: 2"/>
    <path d="M 284.454545 363.08 
C 285.780561 363.08 287.052445 362.553168 287.990079 361.615534 
C 288.927714 360.677899 289.454545 359.406015 289.454545 358.08 
C 289.454545 356.753985 288.927714 355.482101 287.990079 354.544466 
C 287.052445 353.606832 285.780561 353.08 284.454545 353.08 
C 283.12853 353.08 281.856646 353.606832 280.919012 354.544466 
C 279.981377 355.482101 279.454545 356.753985 279.454545 358.08 
C 279.454545 359.406015 279.981377 360.677899 280.919012 361.615534 
C 281.856646 362.553168 283.12853 363.08 284.454545 363.08 
z
" clip-path="url(#p829bacf67d)" style="fill: #00ffff; fill-opacity: 0.6; stroke: #ffffff; stroke-opacity: 0.6; stroke-width: 2"/>
    <path d="M 369 497.48 
C 370.326015 497.48 371.597899 496.953168 372.535534 496.015534 
C 373.473168 495.077899 374 493.806016 374 492.48 
C 374 491.153985 373.473168 489.882101 372.535534 488.944466 
C 371.597899 488.006832 370.326015 487.48 369 487.48 
C 367.673985 487.48 366.402101 488.006832 365.464466 488.944466 
C 364.526832 489.882101 364 491.153985 364 492.48 
C 364 493.806016 364.526832 495.077899 365.464466 496.015534 
C 366.402101 496.953168 367.673985 497.48 369 497.48 
z
" clip-path="url(#p829bacf67d)" style="fill: #0000ff; fill-opacity: 0.6; stroke: #ffffff; stroke-opacity: 0.6; stroke-width: 2"/>
    <path d="M 369 499.551068 
C 370.875269 499.551068 372.673985 498.806016 374 497.48 
C 375.326015 496.153985 376.071068 494.355269 376.071068 492.48 
C 376.071068 490.604731 375.326015 488.806016 374 487.48 
C 372.673985 486.153985 370.875269 485.408932 369 485.408932 
C 367.124731 485.408932 365.326015 486.153985 364 487.48 
C 362.673985 488.806016 361.928932 490.604731 361.928932 492.48 
C 361.928932 494.355269 362.673985 496.153985 364 497.48 
C 365.326015 498.806016 367.124731 499.551068 369 499.551068 
z
" clip-path="url(#p829bacf67d)" style="fill: #00ffff; fill-opacity: 0.6; stroke: #ffffff; stroke-opacity: 0.6; stroke-width: 2"/>
    <path d="M 369 363.08 
C 370.326015 363.08 371.597899 362.553168 372.535534 361.615534 
C 373.473168 360.677899 374 359.406015 374 358.08 
C 374 356.753985 373.473168 355.482101 372.535534 354.544466 
C 371.597899 353.606832 370.326015 353.08 369 353.08 
C 367.673985 353.08 366.402101 353.606832 365.464466 354.544466 
C 364.526832 355.482101 364 356.753985 364 358.08 
C 364 359.406015 364.526832 360.677899 365.464466 361.615534 
C 366.402101 362.553168 367.673985 363.08 369 363.08 
z
" clip-path="url(#p829bacf67d)" style="fill: #008000; fill-opacity: 0.6; stroke: #ffffff; stroke-opacity: 0.6; stroke-width: 2"/>
    <path d="M 369 363.08 
C 370.326015 363.08 371.597899 362.553168 372.535534 361.615534 
C 373.473168 360.677899 374 359.406015 374 358.08 
C 374 356.753985 373.473168 355.482101 372.535534 354.544466 
C 371.597899 353.606832 370.326015 353.08 369 353.08 
C 367.673985 353.08 366.402101 353.606832 365.464466 354.544466 
C 364.526832 355.482101 364 356.753985 364 358.08 
C 364 359.406015 364.526832 360.677899 365.464466 361.615534 
C 366.402101 362.553168 367.673985 363.08 369 363.08 
z
" clip-path="url(#p829bacf67d)" style="fill: #00ffff; fill-opacity: 0.6; stroke: #ffffff; stroke-opacity: 0.6; stroke-width: 2"/>
    <path d="M 369 228.68 
C 370.326015 228.68 371.597899 228.153168 372.535534 227.215534 
C 373.473168 226.277899 374 225.006016 374 223.68 
C 374 222.353984 373.473168 221.082101 372.535534 220.144466 
C 371.597899 219.206832 370.326015 218.68 369 218.68 
C 367.673985 218.68 366.402101 219.206832 365.464466 220.144466 
C 364.526832 221.082101 364 222.353984 364 223.68 
C 364 225.006016 364.526832 226.277899 365.464466 227.215534 
C 366.402101 228.153168 367.673985 228.68 369 228.68 
z
" clip-path="url(#p829bacf67d)" style="fill: #00ffff; fill-opacity: 0.6; stroke: #ffffff; stroke-opacity: 0.6; stroke-width: 2"/>
    <path d="M 453.545455 499.551068 
C 455.420724 499.551068 457.219439 498.806016 458.545455 497.48 
C 459.87147 496.153985 460.616522 494.355269 460.616522 492.48 
C 460.616522 490.604731 459.87147 488.806016 458.545455 487.48 
C 457.219439 486.153985 455.420724 485.408932 453.545455 485.408932 
C 451.670185 485.408932 449.87147 486.153985 448.545455 487.48 
C 447.219439 488.806016 446.474387 490.604731 446.474387 492.48 
C 446.474387 494.355269 447.219439 496.153985 448.545455 497.48 
C 449.87147 498.806016 451.670185 499.551068 453.545455 499.551068 
z
" clip-path="url(#p829bacf67d)" style="fill: #0000ff; fill-opacity: 0.6; stroke: #ffffff; stroke-opacity: 0.6; stroke-width: 2"/>
    <path d="M 453.545455 505.708757 
C 457.053762 505.708757 460.41885 504.314891 462.899598 501.834143 
C 465.380346 499.353396 466.774211 495.988307 466.774211 492.48 
C 466.774211 488.971693 465.380346 485.606604 462.899598 483.125857 
C 460.41885 480.645109 457.053762 479.251243 453.545455 479.251243 
C 450.037147 479.251243 446.672059 480.645109 444.191311 483.125857 
C 441.710563 485.606604 440.316698 488.971693 440.316698 492.48 
C 440.316698 495.988307 441.710563 499.353396 444.191311 501.834143 
C 446.672059 504.314891 450.037147 505.708757 453.545455 505.708757 
z
" clip-path="url(#p829bacf67d)" style="fill: #008000; fill-opacity: 0.6; stroke: #ffffff; stroke-opacity: 0.6; stroke-width: 2"/>
    <path d="M 453.545455 497.48 
C 454.87147 497.48 456.143354 496.953168 457.080988 496.015534 
C 458.018623 495.077899 458.545455 493.806016 458.545455 492.48 
C 458.545455 491.153985 458.018623 489.882101 457.080988 488.944466 
C 456.143354 488.006832 454.87147 487.48 453.545455 487.48 
C 452.219439 487.48 450.947555 488.006832 450.009921 488.944466 
C 449.072286 489.882101 448.545455 491.153985 448.545455 492.48 
C 448.545455 493.806016 449.072286 495.077899 450.009921 496.015534 
C 450.947555 496.953168 452.219439 497.48 453.545455 497.48 
z
" clip-path="url(#p829bacf67d)" style="fill: #ff0000; fill-opacity: 0.6; stroke: #ffffff; stroke-opacity: 0.6; stroke-width: 2"/>
    <path d="M 453.545455 504.727449 
C 456.793516 504.727449 459.908982 503.43698 462.205709 501.140254 
C 464.502435 498.843528 465.792903 495.728061 465.792903 492.48 
C 465.792903 489.231939 464.502435 486.116472 462.205709 483.819746 
C 459.908982 481.52302 456.793516 480.232551 453.545455 480.232551 
C 450.297393 480.232551 447.181927 481.52302 444.885201 483.819746 
C 442.588474 486.116472 441.298006 489.231939 441.298006 492.48 
C 441.298006 495.728061 442.588474 498.843528 444.885201 501.140254 
C 447.181927 503.43698 450.297393 504.727449 453.545455 504.727449 
z
" clip-path="url(#p829bacf67d)" style="fill: #00ffff; fill-opacity: 0.6; stroke: #ffffff; stroke-opacity: 0.6; stroke-width: 2"/>
    <path d="M 453.545455 369.26034 
C 456.510515 369.26034 459.354534 368.082309 461.451149 365.985694 
C 463.547763 363.88908 464.725794 361.045061 464.725794 358.08 
C 464.725794 355.114939 463.547763 352.27092 461.451149 350.174306 
C 459.354534 348.077691 456.510515 346.89966 453.545455 346.89966 
C 450.580394 346.89966 447.736375 348.077691 445.63976 350.174306 
C 443.543146 352.27092 442.365115 355.114939 442.365115 358.08 
C 442.365115 361.045061 443.543146 363.88908 445.63976 365.985694 
C 447.736375 368.082309 450.580394 369.26034 453.545455 369.26034 
z
" clip-path="url(#p829bacf67d)" style="fill: #0000ff; fill-opacity: 0.6; stroke: #ffffff; stroke-opacity: 0.6; stroke-width: 2"/>
    <path d="M 453.545455 368.08 
C 456.197486 368.08 458.741253 367.026337 460.616522 365.151068 
C 462.491791 363.275799 463.545455 360.732031 463.545455 358.08 
C 463.545455 355.427969 462.491791 352.884201 460.616522 351.008932 
C 458.741253 349.133663 456.197486 348.08 453.545455 348.08 
C 450.893424 348.08 448.349656 349.133663 446.474387 351.008932 
C 444.599118 352.884201 443.545455 355.427969 443.545455 358.08 
C 443.545455 360.732031 444.599118 363.275799 446.474387 365.151068 
C 448.349656 367.026337 450.893424 368.08 453.545455 368.08 
z
" clip-path="url(#p829bacf67d)" style="fill: #008000; fill-opacity: 0.6; stroke: #ffffff; stroke-opacity: 0.6; stroke-width: 2"/>
    <path d="M 453.545455 365.151068 
C 455.420724 365.151068 457.219439 364.406015 458.545455 363.08 
C 459.87147 361.753985 460.616522 359.955269 460.616522 358.08 
C 460.616522 356.204731 459.87147 354.406015 458.545455 353.08 
C 457.219439 351.753985 455.420724 351.008932 453.545455 351.008932 
C 451.670185 351.008932 449.87147 351.753985 448.545455 353.08 
C 447.219439 354.406015 446.474387 356.204731 446.474387 358.08 
C 446.474387 359.955269 447.219439 361.753985 448.545455 363.08 
C 449.87147 364.406015 451.670185 365.151068 453.545455 365.151068 
z
" clip-path="url(#p829bacf67d)" style="fill: #ff0000; fill-opacity: 0.6; stroke: #ffffff; stroke-opacity: 0.6; stroke-width: 2"/>
    <path d="M 453.545455 365.151068 
C 455.420724 365.151068 457.219439 364.406015 458.545455 363.08 
C 459.87147 361.753985 460.616522 359.955269 460.616522 358.08 
C 460.616522 356.204731 459.87147 354.406015 458.545455 353.08 
C 457.219439 351.753985 455.420724 351.008932 453.545455 351.008932 
C 451.670185 351.008932 449.87147 351.753985 448.545455 353.08 
C 447.219439 354.406015 446.474387 356.204731 446.474387 358.08 
C 446.474387 359.955269 447.219439 361.753985 448.545455 363.08 
C 449.87147 364.406015 451.670185 365.151068 453.545455 365.151068 
z
" clip-path="url(#p829bacf67d)" style="fill: #800080; fill-opacity: 0.6; stroke: #ffffff; stroke-opacity: 0.6; stroke-width: 2"/>
    <path d="M 453.545455 371.308757 
C 457.053762 371.308757 460.41885 369.914891 462.899598 367.434143 
C 465.380346 364.953396 466.774211 361.588307 466.774211 358.08 
C 466.774211 354.571693 465.380346 351.206604 462.899598 348.725857 
C 460.41885 346.245109 457.053762 344.851243 453.545455 344.851243 
C 450.037147 344.851243 446.672059 346.245109 444.191311 348.725857 
C 441.710563 351.206604 440.316698 354.571693 440.316698 358.08 
C 440.316698 361.588307 441.710563 364.953396 444.191311 367.434143 
C 446.672059 369.914891 450.037147 371.308757 453.545455 371.308757 
z
" clip-path="url(#p829bacf67d)" style="fill: #00ffff; fill-opacity: 0.6; stroke: #ffffff; stroke-opacity: 0.6; stroke-width: 2"/>
    <path d="M 453.545455 232.340254 
C 455.842181 232.340254 458.045148 231.427755 459.669179 229.803724 
C 461.29321 228.179694 462.205709 225.976726 462.205709 223.68 
C 462.205709 221.383274 461.29321 219.180306 459.669179 217.556276 
C 458.045148 215.932245 455.842181 215.019746 453.545455 215.019746 
C 451.248728 215.019746 449.045761 215.932245 447.42173 217.556276 
C 445.7977 219.180306 444.885201 221.383274 444.885201 223.68 
C 444.885201 225.976726 445.7977 228.179694 447.42173 229.803724 
C 449.045761 231.427755 451.248728 232.340254 453.545455 232.340254 
z
" clip-path="url(#p829bacf67d)" style="fill: #0000ff; fill-opacity: 0.6; stroke: #ffffff; stroke-opacity: 0.6; stroke-width: 2"/>
    <path d="M 453.545455 228.68 
C 454.87147 228.68 456.143354 228.153168 457.080988 227.215534 
C 458.018623 226.277899 458.545455 225.006016 458.545455 223.68 
C 458.545455 222.353984 458.018623 221.082101 457.080988 220.144466 
C 456.143354 219.206832 454.87147 218.68 453.545455 218.68 
C 452.219439 218.68 450.947555 219.206832 450.009921 220.144466 
C 449.072286 221.082101 448.545455 222.353984 448.545455 223.68 
C 448.545455 225.006016 449.072286 226.277899 450.009921 227.215534 
C 450.947555 228.153168 452.219439 228.68 453.545455 228.68 
z
" clip-path="url(#p829bacf67d)" style="fill: #ff0000; fill-opacity: 0.6; stroke: #ffffff; stroke-opacity: 0.6; stroke-width: 2"/>
    <path d="M 453.545455 228.68 
C 454.87147 228.68 456.143354 228.153168 457.080988 227.215534 
C 458.018623 226.277899 458.545455 225.006016 458.545455 223.68 
C 458.545455 222.353984 458.018623 221.082101 457.080988 220.144466 
C 456.143354 219.206832 454.87147 218.68 453.545455 218.68 
C 452.219439 218.68 450.947555 219.206832 450.009921 220.144466 
C 449.072286 221.082101 448.545455 222.353984 448.545455 223.68 
C 448.545455 225.006016 449.072286 226.277899 450.009921 227.215534 
C 450.947555 228.153168 452.219439 228.68 453.545455 228.68 
z
" clip-path="url(#p829bacf67d)" style="fill: #800080; fill-opacity: 0.6; stroke: #ffffff; stroke-opacity: 0.6; stroke-width: 2"/>
    <path d="M 453.545455 94.28 
C 454.87147 94.28 456.143354 93.753168 457.080988 92.815534 
C 458.018623 91.877899 458.545455 90.606015 458.545455 89.28 
C 458.545455 87.953984 458.018623 86.682101 457.080988 85.744466 
C 456.143354 84.806832 454.87147 84.28 453.545455 84.28 
C 452.219439 84.28 450.947555 84.806832 450.009921 85.744466 
C 449.072286 86.682101 448.545455 87.953984 448.545455 89.28 
C 448.545455 90.606015 449.072286 91.877899 450.009921 92.815534 
C 450.947555 93.753168 452.219439 94.28 453.545455 94.28 
z
" clip-path="url(#p829bacf67d)" style="fill: #0000ff; fill-opacity: 0.6; stroke: #ffffff; stroke-opacity: 0.6; stroke-width: 2"/>
    <path d="M 453.545455 94.28 
C 454.87147 94.28 456.143354 93.753168 457.080988 92.815534 
C 458.018623 91.877899 458.545455 90.606015 458.545455 89.28 
C 458.545455 87.953984 458.018623 86.682101 457.080988 85.744466 
C 456.143354 84.806832 454.87147 84.28 453.545455 84.28 
C 452.219439 84.28 450.947555 84.806832 450.009921 85.744466 
C 449.072286 86.682101 448.545455 87.953984 448.545455 89.28 
C 448.545455 90.606015 449.072286 91.877899 450.009921 92.815534 
C 450.947555 93.753168 452.219439 94.28 453.545455 94.28 
z
" clip-path="url(#p829bacf67d)" style="fill: #ff0000; fill-opacity: 0.6; stroke: #ffffff; stroke-opacity: 0.6; stroke-width: 2"/>
    <path d="M 453.545455 94.28 
C 454.87147 94.28 456.143354 93.753168 457.080988 92.815534 
C 458.018623 91.877899 458.545455 90.606015 458.545455 89.28 
C 458.545455 87.953984 458.018623 86.682101 457.080988 85.744466 
C 456.143354 84.806832 454.87147 84.28 453.545455 84.28 
C 452.219439 84.28 450.947555 84.806832 450.009921 85.744466 
C 449.072286 86.682101 448.545455 87.953984 448.545455 89.28 
C 448.545455 90.606015 449.072286 91.877899 450.009921 92.815534 
C 450.947555 93.753168 452.219439 94.28 453.545455 94.28 
z
" clip-path="url(#p829bacf67d)" style="fill: #800080; fill-opacity: 0.6; stroke: #ffffff; stroke-opacity: 0.6; stroke-width: 2"/>
    <path d="M 453.545455 94.28 
C 454.87147 94.28 456.143354 93.753168 457.080988 92.815534 
C 458.018623 91.877899 458.545455 90.606015 458.545455 89.28 
C 458.545455 87.953984 458.018623 86.682101 457.080988 85.744466 
C 456.143354 84.806832 454.87147 84.28 453.545455 84.28 
C 452.219439 84.28 450.947555 84.806832 450.009921 85.744466 
C 449.072286 86.682101 448.545455 87.953984 448.545455 89.28 
C 448.545455 90.606015 449.072286 91.877899 450.009921 92.815534 
C 450.947555 93.753168 452.219439 94.28 453.545455 94.28 
z
" clip-path="url(#p829bacf67d)" style="fill: #00ffff; fill-opacity: 0.6; stroke: #ffffff; stroke-opacity: 0.6; stroke-width: 2"/>
    <path d="M 538.090909 501.140254 
C 540.387635 501.140254 542.590603 500.227755 544.214633 498.603724 
C 545.838664 496.979694 546.751163 494.776726 546.751163 492.48 
C 546.751163 490.183274 545.838664 487.980306 544.214633 486.356276 
C 542.590603 484.732245 540.387635 483.819746 538.090909 483.819746 
C 535.794183 483.819746 533.591215 484.732245 531.967185 486.356276 
C 530.343154 487.980306 529.430655 490.183274 529.430655 492.48 
C 529.430655 494.776726 530.343154 496.979694 531.967185 498.603724 
C 533.591215 500.227755 535.794183 501.140254 538.090909 501.140254 
z
" clip-path="url(#p829bacf67d)" style="fill: #0000ff; fill-opacity: 0.6; stroke: #ffffff; stroke-opacity: 0.6; stroke-width: 2"/>
    <path d="M 538.090909 499.551068 
C 539.966178 499.551068 541.764894 498.806016 543.090909 497.48 
C 544.416925 496.153985 545.161977 494.355269 545.161977 492.48 
C 545.161977 490.604731 544.416925 488.806016 543.090909 487.48 
C 541.764894 486.153985 539.966178 485.408932 538.090909 485.408932 
C 536.21564 485.408932 534.416925 486.153985 533.090909 487.48 
C 531.764894 488.806016 531.019841 490.604731 531.019841 492.48 
C 531.019841 494.355269 531.764894 496.153985 533.090909 497.48 
C 534.416925 498.806016 536.21564 499.551068 538.090909 499.551068 
z
" clip-path="url(#p829bacf67d)" style="fill: #008000; fill-opacity: 0.6; stroke: #ffffff; stroke-opacity: 0.6; stroke-width: 2"/>
    <path d="M 538.090909 497.48 
C 539.416925 497.48 540.688808 496.953168 541.626443 496.015534 
C 542.564078 495.077899 543.090909 493.806016 543.090909 492.48 
C 543.090909 491.153985 542.564078 489.882101 541.626443 488.944466 
C 540.688808 488.006832 539.416925 487.48 538.090909 487.48 
C 536.764894 487.48 535.49301 488.006832 534.555375 488.944466 
C 533.617741 489.882101 533.090909 491.153985 533.090909 492.48 
C 533.090909 493.806016 533.617741 495.077899 534.555375 496.015534 
C 535.49301 496.953168 536.764894 497.48 538.090909 497.48 
z
" clip-path="url(#p829bacf67d)" style="fill: #00ffff; fill-opacity: 0.6; stroke: #ffffff; stroke-opacity: 0.6; stroke-width: 2"/>
    <path d="M 538.090909 366.740254 
C 540.387635 366.740254 542.590603 365.827755 544.214633 364.203724 
C 545.838664 362.579694 546.751163 360.376726 546.751163 358.08 
C 546.751163 355.783274 545.838664 353.580306 544.214633 351.956276 
C 542.590603 350.332245 540.387635 349.419746 538.090909 349.419746 
C 535.794183 349.419746 533.591215 350.332245 531.967185 351.956276 
C 530.343154 353.580306 529.430655 355.783274 529.430655 358.08 
C 529.430655 360.376726 530.343154 362.579694 531.967185 364.203724 
C 533.591215 365.827755 535.794183 366.740254 538.090909 366.740254 
z
" clip-path="url(#p829bacf67d)" style="fill: #0000ff; fill-opacity: 0.6; stroke: #ffffff; stroke-opacity: 0.6; stroke-width: 2"/>
    <path d="M 538.090909 363.08 
C 539.416925 363.08 540.688808 362.553168 541.626443 361.615534 
C 542.564078 360.677899 543.090909 359.406015 543.090909 358.08 
C 543.090909 356.753985 542.564078 355.482101 541.626443 354.544466 
C 540.688808 353.606832 539.416925 353.08 538.090909 353.08 
C 536.764894 353.08 535.49301 353.606832 534.555375 354.544466 
C 533.617741 355.482101 533.090909 356.753985 533.090909 358.08 
C 533.090909 359.406015 533.617741 360.677899 534.555375 361.615534 
C 535.49301 362.553168 536.764894 363.08 538.090909 363.08 
z
" clip-path="url(#p829bacf67d)" style="fill: #008000; fill-opacity: 0.6; stroke: #ffffff; stroke-opacity: 0.6; stroke-width: 2"/>
    <path d="M 538.090909 363.08 
C 539.416925 363.08 540.688808 362.553168 541.626443 361.615534 
C 542.564078 360.677899 543.090909 359.406015 543.090909 358.08 
C 543.090909 356.753985 542.564078 355.482101 541.626443 354.544466 
C 540.688808 353.606832 539.416925 353.08 538.090909 353.08 
C 536.764894 353.08 535.49301 353.606832 534.555375 354.544466 
C 533.617741 355.482101 533.090909 356.753985 533.090909 358.08 
C 533.090909 359.406015 533.617741 360.677899 534.555375 361.615534 
C 535.49301 362.553168 536.764894 363.08 538.090909 363.08 
z
" clip-path="url(#p829bacf67d)" style="fill: #00ffff; fill-opacity: 0.6; stroke: #ffffff; stroke-opacity: 0.6; stroke-width: 2"/>
    <path d="M 538.090909 228.68 
C 539.416925 228.68 540.688808 228.153168 541.626443 227.215534 
C 542.564078 226.277899 543.090909 225.006016 543.090909 223.68 
C 543.090909 222.353984 542.564078 221.082101 541.626443 220.144466 
C 540.688808 219.206832 539.416925 218.68 538.090909 218.68 
C 536.764894 218.68 535.49301 219.206832 534.555375 220.144466 
C 533.617741 221.082101 533.090909 222.353984 533.090909 223.68 
C 533.090909 225.006016 533.617741 226.277899 534.555375 227.215534 
C 535.49301 228.153168 536.764894 228.68 538.090909 228.68 
z
" clip-path="url(#p829bacf67d)" style="fill: #008000; fill-opacity: 0.6; stroke: #ffffff; stroke-opacity: 0.6; stroke-width: 2"/>
    <path d="M 538.090909 228.68 
C 539.416925 228.68 540.688808 228.153168 541.626443 227.215534 
C 542.564078 226.277899 543.090909 225.006016 543.090909 223.68 
C 543.090909 222.353984 542.564078 221.082101 541.626443 220.144466 
C 540.688808 219.206832 539.416925 218.68 538.090909 218.68 
C 536.764894 218.68 535.49301 219.206832 534.555375 220.144466 
C 533.617741 221.082101 533.090909 222.353984 533.090909 223.68 
C 533.090909 225.006016 533.617741 226.277899 534.555375 227.215534 
C 535.49301 228.153168 536.764894 228.68 538.090909 228.68 
z
" clip-path="url(#p829bacf67d)" style="fill: #00ffff; fill-opacity: 0.6; stroke: #ffffff; stroke-opacity: 0.6; stroke-width: 2"/>
    <path d="M 538.090909 94.28 
C 539.416925 94.28 540.688808 93.753168 541.626443 92.815534 
C 542.564078 91.877899 543.090909 90.606015 543.090909 89.28 
C 543.090909 87.953984 542.564078 86.682101 541.626443 85.744466 
C 540.688808 84.806832 539.416925 84.28 538.090909 84.28 
C 536.764894 84.28 535.49301 84.806832 534.555375 85.744466 
C 533.617741 86.682101 533.090909 87.953984 533.090909 89.28 
C 533.090909 90.606015 533.617741 91.877899 534.555375 92.815534 
C 535.49301 93.753168 536.764894 94.28 538.090909 94.28 
z
" clip-path="url(#p829bacf67d)" style="fill: #008000; fill-opacity: 0.6; stroke: #ffffff; stroke-opacity: 0.6; stroke-width: 2"/>
    <path d="M 622.636364 497.48 
C 623.962379 497.48 625.234263 496.953168 626.171898 496.015534 
C 627.109532 495.077899 627.636364 493.806016 627.636364 492.48 
C 627.636364 491.153985 627.109532 489.882101 626.171898 488.944466 
C 625.234263 488.006832 623.962379 487.48 622.636364 487.48 
C 621.310348 487.48 620.038464 488.006832 619.10083 488.944466 
C 618.163195 489.882101 617.636364 491.153985 617.636364 492.48 
C 617.636364 493.806016 618.163195 495.077899 619.10083 496.015534 
C 620.038464 496.953168 621.310348 497.48 622.636364 497.48 
z
" clip-path="url(#p829bacf67d)" style="fill: #008000; fill-opacity: 0.6; stroke: #ffffff; stroke-opacity: 0.6; stroke-width: 2"/>
    <path d="M 622.636364 499.551068 
C 624.511633 499.551068 626.310348 498.806016 627.636364 497.48 
C 628.962379 496.153985 629.707431 494.355269 629.707431 492.48 
C 629.707431 490.604731 628.962379 488.806016 627.636364 487.48 
C 626.310348 486.153985 624.511633 485.408932 622.636364 485.408932 
C 620.761095 485.408932 618.962379 486.153985 617.636364 487.48 
C 616.310348 488.806016 615.565296 490.604731 615.565296 492.48 
C 615.565296 494.355269 616.310348 496.153985 617.636364 497.48 
C 618.962379 498.806016 620.761095 499.551068 622.636364 499.551068 
z
" clip-path="url(#p829bacf67d)" style="fill: #00ffff; fill-opacity: 0.6; stroke: #ffffff; stroke-opacity: 0.6; stroke-width: 2"/>
    <path d="M 622.636364 366.740254 
C 624.93309 366.740254 627.136057 365.827755 628.760088 364.203724 
C 630.384119 362.579694 631.296618 360.376726 631.296618 358.08 
C 631.296618 355.783274 630.384119 353.580306 628.760088 351.956276 
C 627.136057 350.332245 624.93309 349.419746 622.636364 349.419746 
C 620.339637 349.419746 618.13667 350.332245 616.512639 351.956276 
C 614.888609 353.580306 613.97611 355.783274 613.97611 358.08 
C 613.97611 360.376726 614.888609 362.579694 616.512639 364.203724 
C 618.13667 365.827755 620.339637 366.740254 622.636364 366.740254 
z
" clip-path="url(#p829bacf67d)" style="fill: #0000ff; fill-opacity: 0.6; stroke: #ffffff; stroke-opacity: 0.6; stroke-width: 2"/>
    <path d="M 622.636364 365.151068 
C 624.511633 365.151068 626.310348 364.406015 627.636364 363.08 
C 628.962379 361.753985 629.707431 359.955269 629.707431 358.08 
C 629.707431 356.204731 628.962379 354.406015 627.636364 353.08 
C 626.310348 351.753985 624.511633 351.008932 622.636364 351.008932 
C 620.761095 351.008932 618.962379 351.753985 617.636364 353.08 
C 616.310348 354.406015 615.565296 356.204731 615.565296 358.08 
C 615.565296 359.955269 616.310348 361.753985 617.636364 363.08 
C 618.962379 364.406015 620.761095 365.151068 622.636364 365.151068 
z
" clip-path="url(#p829bacf67d)" style="fill: #008000; fill-opacity: 0.6; stroke: #ffffff; stroke-opacity: 0.6; stroke-width: 2"/>
   </g>
   <g id="matplotlib.axis_1">
    <g id="xtick_1">
     <g id="line2d_1">
      <path d="M 115.363636 512.64 
L 115.363636 69.12 
" clip-path="url(#p829bacf67d)" style="fill: none; stroke: #b0b0b0; stroke-width: 0.8; stroke-linecap: square"/>
     </g>
     <g id="line2d_2">
      <defs>
       <path id="m38b285840c" d="M 0 0 
L 0 3.5 
" style="stroke: #000000; stroke-width: 0.8"/>
      </defs>
      <g>
       <use xlink:href="#m38b285840c" x="115.363636" y="512.64" style="stroke: #000000; stroke-width: 0.8"/>
      </g>
     </g>
     <g id="text_1">
      <!-- VR -->
      <g transform="translate(108.469105 527.238438) scale(0.1 -0.1)">
       <defs>
        <path id="DejaVuSans-56" d="M 1831 0 
L 50 4666 
L 709 4666 
L 2188 738 
L 3669 4666 
L 4325 4666 
L 2547 0 
L 1831 0 
z
" transform="scale(0.015625)"/>
        <path id="DejaVuSans-52" d="M 2841 2188 
Q 3044 2119 3236 1894 
Q 3428 1669 3622 1275 
L 4263 0 
L 3584 0 
L 2988 1197 
Q 2756 1666 2539 1819 
Q 2322 1972 1947 1972 
L 1259 1972 
L 1259 0 
L 628 0 
L 628 4666 
L 2053 4666 
Q 2853 4666 3247 4331 
Q 3641 3997 3641 3322 
Q 3641 2881 3436 2590 
Q 3231 2300 2841 2188 
z
M 1259 4147 
L 1259 2491 
L 2053 2491 
Q 2509 2491 2742 2702 
Q 2975 2913 2975 3322 
Q 2975 3731 2742 3939 
Q 2509 4147 2053 4147 
L 1259 4147 
z
" transform="scale(0.015625)"/>
       </defs>
       <use xlink:href="#DejaVuSans-56"/>
       <use xlink:href="#DejaVuSans-52" x="68.408203"/>
      </g>
     </g>
    </g>
    <g id="xtick_2">
     <g id="line2d_3">
      <path d="M 199.909091 512.64 
L 199.909091 69.12 
" clip-path="url(#p829bacf67d)" style="fill: none; stroke: #b0b0b0; stroke-width: 0.8; stroke-linecap: square"/>
     </g>
     <g id="line2d_4">
      <g>
       <use xlink:href="#m38b285840c" x="199.909091" y="512.64" style="stroke: #000000; stroke-width: 0.8"/>
      </g>
     </g>
     <g id="text_2">
      <!-- CHI -->
      <g transform="translate(191.182528 527.238438) scale(0.1 -0.1)">
       <defs>
        <path id="DejaVuSans-43" d="M 4122 4306 
L 4122 3641 
Q 3803 3938 3442 4084 
Q 3081 4231 2675 4231 
Q 1875 4231 1450 3742 
Q 1025 3253 1025 2328 
Q 1025 1406 1450 917 
Q 1875 428 2675 428 
Q 3081 428 3442 575 
Q 3803 722 4122 1019 
L 4122 359 
Q 3791 134 3420 21 
Q 3050 -91 2638 -91 
Q 1578 -91 968 557 
Q 359 1206 359 2328 
Q 359 3453 968 4101 
Q 1578 4750 2638 4750 
Q 3056 4750 3426 4639 
Q 3797 4528 4122 4306 
z
" transform="scale(0.015625)"/>
        <path id="DejaVuSans-48" d="M 628 4666 
L 1259 4666 
L 1259 2753 
L 3553 2753 
L 3553 4666 
L 4184 4666 
L 4184 0 
L 3553 0 
L 3553 2222 
L 1259 2222 
L 1259 0 
L 628 0 
L 628 4666 
z
" transform="scale(0.015625)"/>
        <path id="DejaVuSans-49" d="M 628 4666 
L 1259 4666 
L 1259 0 
L 628 0 
L 628 4666 
z
" transform="scale(0.015625)"/>
       </defs>
       <use xlink:href="#DejaVuSans-43"/>
       <use xlink:href="#DejaVuSans-48" x="69.824219"/>
       <use xlink:href="#DejaVuSans-49" x="145.019531"/>
      </g>
     </g>
    </g>
    <g id="xtick_3">
     <g id="line2d_5">
      <path d="M 284.454545 512.64 
L 284.454545 69.12 
" clip-path="url(#p829bacf67d)" style="fill: none; stroke: #b0b0b0; stroke-width: 0.8; stroke-linecap: square"/>
     </g>
     <g id="line2d_6">
      <g>
       <use xlink:href="#m38b285840c" x="284.454545" y="512.64" style="stroke: #000000; stroke-width: 0.8"/>
      </g>
     </g>
     <g id="text_3">
      <!-- UIST -->
      <g transform="translate(273.092045 527.238438) scale(0.1 -0.1)">
       <defs>
        <path id="DejaVuSans-55" d="M 556 4666 
L 1191 4666 
L 1191 1831 
Q 1191 1081 1462 751 
Q 1734 422 2344 422 
Q 2950 422 3222 751 
Q 3494 1081 3494 1831 
L 3494 4666 
L 4128 4666 
L 4128 1753 
Q 4128 841 3676 375 
Q 3225 -91 2344 -91 
Q 1459 -91 1007 375 
Q 556 841 556 1753 
L 556 4666 
z
" transform="scale(0.015625)"/>
        <path id="DejaVuSans-53" d="M 3425 4513 
L 3425 3897 
Q 3066 4069 2747 4153 
Q 2428 4238 2131 4238 
Q 1616 4238 1336 4038 
Q 1056 3838 1056 3469 
Q 1056 3159 1242 3001 
Q 1428 2844 1947 2747 
L 2328 2669 
Q 3034 2534 3370 2195 
Q 3706 1856 3706 1288 
Q 3706 609 3251 259 
Q 2797 -91 1919 -91 
Q 1588 -91 1214 -16 
Q 841 59 441 206 
L 441 856 
Q 825 641 1194 531 
Q 1563 422 1919 422 
Q 2459 422 2753 634 
Q 3047 847 3047 1241 
Q 3047 1584 2836 1778 
Q 2625 1972 2144 2069 
L 1759 2144 
Q 1053 2284 737 2584 
Q 422 2884 422 3419 
Q 422 4038 858 4394 
Q 1294 4750 2059 4750 
Q 2388 4750 2728 4690 
Q 3069 4631 3425 4513 
z
" transform="scale(0.015625)"/>
        <path id="DejaVuSans-54" d="M -19 4666 
L 3928 4666 
L 3928 4134 
L 2272 4134 
L 2272 0 
L 1638 0 
L 1638 4134 
L -19 4134 
L -19 4666 
z
" transform="scale(0.015625)"/>
       </defs>
       <use xlink:href="#DejaVuSans-55"/>
       <use xlink:href="#DejaVuSans-49" x="73.193359"/>
       <use xlink:href="#DejaVuSans-53" x="102.685547"/>
       <use xlink:href="#DejaVuSans-54" x="166.162109"/>
      </g>
     </g>
    </g>
    <g id="xtick_4">
     <g id="line2d_7">
      <path d="M 369 512.64 
L 369 69.12 
" clip-path="url(#p829bacf67d)" style="fill: none; stroke: #b0b0b0; stroke-width: 0.8; stroke-linecap: square"/>
     </g>
     <g id="line2d_8">
      <g>
       <use xlink:href="#m38b285840c" x="369" y="512.64" style="stroke: #000000; stroke-width: 0.8"/>
      </g>
     </g>
     <g id="text_4">
      <!-- TVCG -->
      <g transform="translate(355.160156 527.238438) scale(0.1 -0.1)">
       <defs>
        <path id="DejaVuSans-47" d="M 3809 666 
L 3809 1919 
L 2778 1919 
L 2778 2438 
L 4434 2438 
L 4434 434 
Q 4069 175 3628 42 
Q 3188 -91 2688 -91 
Q 1594 -91 976 548 
Q 359 1188 359 2328 
Q 359 3472 976 4111 
Q 1594 4750 2688 4750 
Q 3144 4750 3555 4637 
Q 3966 4525 4313 4306 
L 4313 3634 
Q 3963 3931 3569 4081 
Q 3175 4231 2741 4231 
Q 1884 4231 1454 3753 
Q 1025 3275 1025 2328 
Q 1025 1384 1454 906 
Q 1884 428 2741 428 
Q 3075 428 3337 486 
Q 3600 544 3809 666 
z
" transform="scale(0.015625)"/>
       </defs>
       <use xlink:href="#DejaVuSans-54"/>
       <use xlink:href="#DejaVuSans-56" x="61.083984"/>
       <use xlink:href="#DejaVuSans-43" x="129.492188"/>
       <use xlink:href="#DejaVuSans-47" x="199.316406"/>
      </g>
     </g>
    </g>
    <g id="xtick_5">
     <g id="line2d_9">
      <path d="M 453.545455 512.64 
L 453.545455 69.12 
" clip-path="url(#p829bacf67d)" style="fill: none; stroke: #b0b0b0; stroke-width: 0.8; stroke-linecap: square"/>
     </g>
     <g id="line2d_10">
      <g>
       <use xlink:href="#m38b285840c" x="453.545455" y="512.64" style="stroke: #000000; stroke-width: 0.8"/>
      </g>
     </g>
     <g id="text_5">
      <!-- Other Venues -->
      <g transform="translate(419.631392 527.238438) scale(0.1 -0.1)">
       <defs>
        <path id="DejaVuSans-4f" d="M 2522 4238 
Q 1834 4238 1429 3725 
Q 1025 3213 1025 2328 
Q 1025 1447 1429 934 
Q 1834 422 2522 422 
Q 3209 422 3611 934 
Q 4013 1447 4013 2328 
Q 4013 3213 3611 3725 
Q 3209 4238 2522 4238 
z
M 2522 4750 
Q 3503 4750 4090 4092 
Q 4678 3434 4678 2328 
Q 4678 1225 4090 567 
Q 3503 -91 2522 -91 
Q 1538 -91 948 565 
Q 359 1222 359 2328 
Q 359 3434 948 4092 
Q 1538 4750 2522 4750 
z
" transform="scale(0.015625)"/>
        <path id="DejaVuSans-74" d="M 1172 4494 
L 1172 3500 
L 2356 3500 
L 2356 3053 
L 1172 3053 
L 1172 1153 
Q 1172 725 1289 603 
Q 1406 481 1766 481 
L 2356 481 
L 2356 0 
L 1766 0 
Q 1100 0 847 248 
Q 594 497 594 1153 
L 594 3053 
L 172 3053 
L 172 3500 
L 594 3500 
L 594 4494 
L 1172 4494 
z
" transform="scale(0.015625)"/>
        <path id="DejaVuSans-68" d="M 3513 2113 
L 3513 0 
L 2938 0 
L 2938 2094 
Q 2938 2591 2744 2837 
Q 2550 3084 2163 3084 
Q 1697 3084 1428 2787 
Q 1159 2491 1159 1978 
L 1159 0 
L 581 0 
L 581 4863 
L 1159 4863 
L 1159 2956 
Q 1366 3272 1645 3428 
Q 1925 3584 2291 3584 
Q 2894 3584 3203 3211 
Q 3513 2838 3513 2113 
z
" transform="scale(0.015625)"/>
        <path id="DejaVuSans-65" d="M 3597 1894 
L 3597 1613 
L 953 1613 
Q 991 1019 1311 708 
Q 1631 397 2203 397 
Q 2534 397 2845 478 
Q 3156 559 3463 722 
L 3463 178 
Q 3153 47 2828 -22 
Q 2503 -91 2169 -91 
Q 1331 -91 842 396 
Q 353 884 353 1716 
Q 353 2575 817 3079 
Q 1281 3584 2069 3584 
Q 2775 3584 3186 3129 
Q 3597 2675 3597 1894 
z
M 3022 2063 
Q 3016 2534 2758 2815 
Q 2500 3097 2075 3097 
Q 1594 3097 1305 2825 
Q 1016 2553 972 2059 
L 3022 2063 
z
" transform="scale(0.015625)"/>
        <path id="DejaVuSans-72" d="M 2631 2963 
Q 2534 3019 2420 3045 
Q 2306 3072 2169 3072 
Q 1681 3072 1420 2755 
Q 1159 2438 1159 1844 
L 1159 0 
L 581 0 
L 581 3500 
L 1159 3500 
L 1159 2956 
Q 1341 3275 1631 3429 
Q 1922 3584 2338 3584 
Q 2397 3584 2469 3576 
Q 2541 3569 2628 3553 
L 2631 2963 
z
" transform="scale(0.015625)"/>
        <path id="DejaVuSans-20" transform="scale(0.015625)"/>
        <path id="DejaVuSans-6e" d="M 3513 2113 
L 3513 0 
L 2938 0 
L 2938 2094 
Q 2938 2591 2744 2837 
Q 2550 3084 2163 3084 
Q 1697 3084 1428 2787 
Q 1159 2491 1159 1978 
L 1159 0 
L 581 0 
L 581 3500 
L 1159 3500 
L 1159 2956 
Q 1366 3272 1645 3428 
Q 1925 3584 2291 3584 
Q 2894 3584 3203 3211 
Q 3513 2838 3513 2113 
z
" transform="scale(0.015625)"/>
        <path id="DejaVuSans-75" d="M 544 1381 
L 544 3500 
L 1119 3500 
L 1119 1403 
Q 1119 906 1312 657 
Q 1506 409 1894 409 
Q 2359 409 2629 706 
Q 2900 1003 2900 1516 
L 2900 3500 
L 3475 3500 
L 3475 0 
L 2900 0 
L 2900 538 
Q 2691 219 2414 64 
Q 2138 -91 1772 -91 
Q 1169 -91 856 284 
Q 544 659 544 1381 
z
M 1991 3584 
L 1991 3584 
z
" transform="scale(0.015625)"/>
        <path id="DejaVuSans-73" d="M 2834 3397 
L 2834 2853 
Q 2591 2978 2328 3040 
Q 2066 3103 1784 3103 
Q 1356 3103 1142 2972 
Q 928 2841 928 2578 
Q 928 2378 1081 2264 
Q 1234 2150 1697 2047 
L 1894 2003 
Q 2506 1872 2764 1633 
Q 3022 1394 3022 966 
Q 3022 478 2636 193 
Q 2250 -91 1575 -91 
Q 1294 -91 989 -36 
Q 684 19 347 128 
L 347 722 
Q 666 556 975 473 
Q 1284 391 1588 391 
Q 1994 391 2212 530 
Q 2431 669 2431 922 
Q 2431 1156 2273 1281 
Q 2116 1406 1581 1522 
L 1381 1569 
Q 847 1681 609 1914 
Q 372 2147 372 2553 
Q 372 3047 722 3315 
Q 1072 3584 1716 3584 
Q 2034 3584 2315 3537 
Q 2597 3491 2834 3397 
z
" transform="scale(0.015625)"/>
       </defs>
       <use xlink:href="#DejaVuSans-4f"/>
       <use xlink:href="#DejaVuSans-74" x="78.710938"/>
       <use xlink:href="#DejaVuSans-68" x="117.919922"/>
       <use xlink:href="#DejaVuSans-65" x="181.298828"/>
       <use xlink:href="#DejaVuSans-72" x="242.822266"/>
       <use xlink:href="#DejaVuSans-20" x="283.935547"/>
       <use xlink:href="#DejaVuSans-56" x="315.722656"/>
       <use xlink:href="#DejaVuSans-65" x="376.380859"/>
       <use xlink:href="#DejaVuSans-6e" x="437.904297"/>
       <use xlink:href="#DejaVuSans-75" x="501.283203"/>
       <use xlink:href="#DejaVuSans-65" x="564.662109"/>
       <use xlink:href="#DejaVuSans-73" x="626.185547"/>
      </g>
     </g>
    </g>
    <g id="xtick_6">
     <g id="line2d_11">
      <path d="M 538.090909 512.64 
L 538.090909 69.12 
" clip-path="url(#p829bacf67d)" style="fill: none; stroke: #b0b0b0; stroke-width: 0.8; stroke-linecap: square"/>
     </g>
     <g id="line2d_12">
      <g>
       <use xlink:href="#m38b285840c" x="538.090909" y="512.64" style="stroke: #000000; stroke-width: 0.8"/>
      </g>
     </g>
     <g id="text_6">
      <!-- USS -->
      <g transform="translate(528.083097 527.238438) scale(0.1 -0.1)">
       <use xlink:href="#DejaVuSans-55"/>
       <use xlink:href="#DejaVuSans-53" x="73.193359"/>
       <use xlink:href="#DejaVuSans-53" x="136.669922"/>
      </g>
     </g>
    </g>
    <g id="xtick_7">
     <g id="line2d_13">
      <path d="M 622.636364 512.64 
L 622.636364 69.12 
" clip-path="url(#p829bacf67d)" style="fill: none; stroke: #b0b0b0; stroke-width: 0.8; stroke-linecap: square"/>
     </g>
     <g id="line2d_14">
      <g>
       <use xlink:href="#m38b285840c" x="622.636364" y="512.64" style="stroke: #000000; stroke-width: 0.8"/>
      </g>
     </g>
     <g id="text_7">
      <!-- SP -->
      <g transform="translate(616.447301 527.238438) scale(0.1 -0.1)">
       <defs>
        <path id="DejaVuSans-50" d="M 1259 4147 
L 1259 2394 
L 2053 2394 
Q 2494 2394 2734 2622 
Q 2975 2850 2975 3272 
Q 2975 3691 2734 3919 
Q 2494 4147 2053 4147 
L 1259 4147 
z
M 628 4666 
L 2053 4666 
Q 2838 4666 3239 4311 
Q 3641 3956 3641 3272 
Q 3641 2581 3239 2228 
Q 2838 1875 2053 1875 
L 1259 1875 
L 1259 0 
L 628 0 
L 628 4666 
z
" transform="scale(0.015625)"/>
       </defs>
       <use xlink:href="#DejaVuSans-53"/>
       <use xlink:href="#DejaVuSans-50" x="63.476562"/>
      </g>
     </g>
    </g>
    <g id="text_8">
     <!-- venue -->
     <g transform="translate(353.55 540.916563) scale(0.1 -0.1)">
      <defs>
       <path id="DejaVuSans-76" d="M 191 3500 
L 800 3500 
L 1894 563 
L 2988 3500 
L 3597 3500 
L 2284 0 
L 1503 0 
L 191 3500 
z
" transform="scale(0.015625)"/>
      </defs>
      <use xlink:href="#DejaVuSans-76"/>
      <use xlink:href="#DejaVuSans-65" x="59.179688"/>
      <use xlink:href="#DejaVuSans-6e" x="120.703125"/>
      <use xlink:href="#DejaVuSans-75" x="184.082031"/>
      <use xlink:href="#DejaVuSans-65" x="247.460938"/>
     </g>
    </g>
   </g>
   <g id="matplotlib.axis_2">
    <g id="ytick_1">
     <g id="line2d_15">
      <path d="M 90 492.48 
L 648 492.48 
" clip-path="url(#p829bacf67d)" style="fill: none; stroke: #b0b0b0; stroke-width: 0.8; stroke-linecap: square"/>
     </g>
     <g id="line2d_16">
      <defs>
       <path id="m272c69a555" d="M 0 0 
L -3.5 0 
" style="stroke: #000000; stroke-width: 0.8"/>
      </defs>
      <g>
       <use xlink:href="#m272c69a555" x="90" y="492.48" style="stroke: #000000; stroke-width: 0.8"/>
      </g>
     </g>
     <g id="text_9">
      <!-- Virtual Reality -->
      <g transform="translate(12.978125 496.279219) scale(0.1 -0.1)">
       <defs>
        <path id="DejaVuSans-69" d="M 603 3500 
L 1178 3500 
L 1178 0 
L 603 0 
L 603 3500 
z
M 603 4863 
L 1178 4863 
L 1178 4134 
L 603 4134 
L 603 4863 
z
" transform="scale(0.015625)"/>
        <path id="DejaVuSans-61" d="M 2194 1759 
Q 1497 1759 1228 1600 
Q 959 1441 959 1056 
Q 959 750 1161 570 
Q 1363 391 1709 391 
Q 2188 391 2477 730 
Q 2766 1069 2766 1631 
L 2766 1759 
L 2194 1759 
z
M 3341 1997 
L 3341 0 
L 2766 0 
L 2766 531 
Q 2569 213 2275 61 
Q 1981 -91 1556 -91 
Q 1019 -91 701 211 
Q 384 513 384 1019 
Q 384 1609 779 1909 
Q 1175 2209 1959 2209 
L 2766 2209 
L 2766 2266 
Q 2766 2663 2505 2880 
Q 2244 3097 1772 3097 
Q 1472 3097 1187 3025 
Q 903 2953 641 2809 
L 641 3341 
Q 956 3463 1253 3523 
Q 1550 3584 1831 3584 
Q 2591 3584 2966 3190 
Q 3341 2797 3341 1997 
z
" transform="scale(0.015625)"/>
        <path id="DejaVuSans-6c" d="M 603 4863 
L 1178 4863 
L 1178 0 
L 603 0 
L 603 4863 
z
" transform="scale(0.015625)"/>
        <path id="DejaVuSans-79" d="M 2059 -325 
Q 1816 -950 1584 -1140 
Q 1353 -1331 966 -1331 
L 506 -1331 
L 506 -850 
L 844 -850 
Q 1081 -850 1212 -737 
Q 1344 -625 1503 -206 
L 1606 56 
L 191 3500 
L 800 3500 
L 1894 763 
L 2988 3500 
L 3597 3500 
L 2059 -325 
z
" transform="scale(0.015625)"/>
       </defs>
       <use xlink:href="#DejaVuSans-56"/>
       <use xlink:href="#DejaVuSans-69" x="66.158203"/>
       <use xlink:href="#DejaVuSans-72" x="93.941406"/>
       <use xlink:href="#DejaVuSans-74" x="135.054688"/>
       <use xlink:href="#DejaVuSans-75" x="174.263672"/>
       <use xlink:href="#DejaVuSans-61" x="237.642578"/>
       <use xlink:href="#DejaVuSans-6c" x="298.921875"/>
       <use xlink:href="#DejaVuSans-20" x="326.705078"/>
       <use xlink:href="#DejaVuSans-52" x="358.492188"/>
       <use xlink:href="#DejaVuSans-65" x="423.474609"/>
       <use xlink:href="#DejaVuSans-61" x="484.998047"/>
       <use xlink:href="#DejaVuSans-6c" x="546.277344"/>
       <use xlink:href="#DejaVuSans-69" x="574.060547"/>
       <use xlink:href="#DejaVuSans-74" x="601.84375"/>
       <use xlink:href="#DejaVuSans-79" x="641.052734"/>
      </g>
     </g>
    </g>
    <g id="ytick_2">
     <g id="line2d_17">
      <path d="M 90 358.08 
L 648 358.08 
" clip-path="url(#p829bacf67d)" style="fill: none; stroke: #b0b0b0; stroke-width: 0.8; stroke-linecap: square"/>
     </g>
     <g id="line2d_18">
      <g>
       <use xlink:href="#m272c69a555" x="90" y="358.08" style="stroke: #000000; stroke-width: 0.8"/>
      </g>
     </g>
     <g id="text_10">
      <!-- Augmented Reality -->
      <g transform="translate(-12.532813 361.879219) scale(0.1 -0.1)">
       <defs>
        <path id="DejaVuSans-41" d="M 2188 4044 
L 1331 1722 
L 3047 1722 
L 2188 4044 
z
M 1831 4666 
L 2547 4666 
L 4325 0 
L 3669 0 
L 3244 1197 
L 1141 1197 
L 716 0 
L 50 0 
L 1831 4666 
z
" transform="scale(0.015625)"/>
        <path id="DejaVuSans-67" d="M 2906 1791 
Q 2906 2416 2648 2759 
Q 2391 3103 1925 3103 
Q 1463 3103 1205 2759 
Q 947 2416 947 1791 
Q 947 1169 1205 825 
Q 1463 481 1925 481 
Q 2391 481 2648 825 
Q 2906 1169 2906 1791 
z
M 3481 434 
Q 3481 -459 3084 -895 
Q 2688 -1331 1869 -1331 
Q 1566 -1331 1297 -1286 
Q 1028 -1241 775 -1147 
L 775 -588 
Q 1028 -725 1275 -790 
Q 1522 -856 1778 -856 
Q 2344 -856 2625 -561 
Q 2906 -266 2906 331 
L 2906 616 
Q 2728 306 2450 153 
Q 2172 0 1784 0 
Q 1141 0 747 490 
Q 353 981 353 1791 
Q 353 2603 747 3093 
Q 1141 3584 1784 3584 
Q 2172 3584 2450 3431 
Q 2728 3278 2906 2969 
L 2906 3500 
L 3481 3500 
L 3481 434 
z
" transform="scale(0.015625)"/>
        <path id="DejaVuSans-6d" d="M 3328 2828 
Q 3544 3216 3844 3400 
Q 4144 3584 4550 3584 
Q 5097 3584 5394 3201 
Q 5691 2819 5691 2113 
L 5691 0 
L 5113 0 
L 5113 2094 
Q 5113 2597 4934 2840 
Q 4756 3084 4391 3084 
Q 3944 3084 3684 2787 
Q 3425 2491 3425 1978 
L 3425 0 
L 2847 0 
L 2847 2094 
Q 2847 2600 2669 2842 
Q 2491 3084 2119 3084 
Q 1678 3084 1418 2786 
Q 1159 2488 1159 1978 
L 1159 0 
L 581 0 
L 581 3500 
L 1159 3500 
L 1159 2956 
Q 1356 3278 1631 3431 
Q 1906 3584 2284 3584 
Q 2666 3584 2933 3390 
Q 3200 3197 3328 2828 
z
" transform="scale(0.015625)"/>
        <path id="DejaVuSans-64" d="M 2906 2969 
L 2906 4863 
L 3481 4863 
L 3481 0 
L 2906 0 
L 2906 525 
Q 2725 213 2448 61 
Q 2172 -91 1784 -91 
Q 1150 -91 751 415 
Q 353 922 353 1747 
Q 353 2572 751 3078 
Q 1150 3584 1784 3584 
Q 2172 3584 2448 3432 
Q 2725 3281 2906 2969 
z
M 947 1747 
Q 947 1113 1208 752 
Q 1469 391 1925 391 
Q 2381 391 2643 752 
Q 2906 1113 2906 1747 
Q 2906 2381 2643 2742 
Q 2381 3103 1925 3103 
Q 1469 3103 1208 2742 
Q 947 2381 947 1747 
z
" transform="scale(0.015625)"/>
       </defs>
       <use xlink:href="#DejaVuSans-41"/>
       <use xlink:href="#DejaVuSans-75" x="68.408203"/>
       <use xlink:href="#DejaVuSans-67" x="131.787109"/>
       <use xlink:href="#DejaVuSans-6d" x="195.263672"/>
       <use xlink:href="#DejaVuSans-65" x="292.675781"/>
       <use xlink:href="#DejaVuSans-6e" x="354.199219"/>
       <use xlink:href="#DejaVuSans-74" x="417.578125"/>
       <use xlink:href="#DejaVuSans-65" x="456.787109"/>
       <use xlink:href="#DejaVuSans-64" x="518.310547"/>
       <use xlink:href="#DejaVuSans-20" x="581.787109"/>
       <use xlink:href="#DejaVuSans-52" x="613.574219"/>
       <use xlink:href="#DejaVuSans-65" x="678.556641"/>
       <use xlink:href="#DejaVuSans-61" x="740.080078"/>
       <use xlink:href="#DejaVuSans-6c" x="801.359375"/>
       <use xlink:href="#DejaVuSans-69" x="829.142578"/>
       <use xlink:href="#DejaVuSans-74" x="856.925781"/>
       <use xlink:href="#DejaVuSans-79" x="896.134766"/>
      </g>
     </g>
    </g>
    <g id="ytick_3">
     <g id="line2d_19">
      <path d="M 90 223.68 
L 648 223.68 
" clip-path="url(#p829bacf67d)" style="fill: none; stroke: #b0b0b0; stroke-width: 0.8; stroke-linecap: square"/>
     </g>
     <g id="line2d_20">
      <g>
       <use xlink:href="#m272c69a555" x="90" y="223.68" style="stroke: #000000; stroke-width: 0.8"/>
      </g>
     </g>
     <g id="text_11">
      <!-- Mixed Reality -->
      <g transform="translate(16.132812 227.479219) scale(0.1 -0.1)">
       <defs>
        <path id="DejaVuSans-4d" d="M 628 4666 
L 1569 4666 
L 2759 1491 
L 3956 4666 
L 4897 4666 
L 4897 0 
L 4281 0 
L 4281 4097 
L 3078 897 
L 2444 897 
L 1241 4097 
L 1241 0 
L 628 0 
L 628 4666 
z
" transform="scale(0.015625)"/>
        <path id="DejaVuSans-78" d="M 3513 3500 
L 2247 1797 
L 3578 0 
L 2900 0 
L 1881 1375 
L 863 0 
L 184 0 
L 1544 1831 
L 300 3500 
L 978 3500 
L 1906 2253 
L 2834 3500 
L 3513 3500 
z
" transform="scale(0.015625)"/>
       </defs>
       <use xlink:href="#DejaVuSans-4d"/>
       <use xlink:href="#DejaVuSans-69" x="86.279297"/>
       <use xlink:href="#DejaVuSans-78" x="114.0625"/>
       <use xlink:href="#DejaVuSans-65" x="170.117188"/>
       <use xlink:href="#DejaVuSans-64" x="231.640625"/>
       <use xlink:href="#DejaVuSans-20" x="295.117188"/>
       <use xlink:href="#DejaVuSans-52" x="326.904297"/>
       <use xlink:href="#DejaVuSans-65" x="391.886719"/>
       <use xlink:href="#DejaVuSans-61" x="453.410156"/>
       <use xlink:href="#DejaVuSans-6c" x="514.689453"/>
       <use xlink:href="#DejaVuSans-69" x="542.472656"/>
       <use xlink:href="#DejaVuSans-74" x="570.255859"/>
       <use xlink:href="#DejaVuSans-79" x="609.464844"/>
      </g>
     </g>
    </g>
    <g id="ytick_4">
     <g id="line2d_21">
      <path d="M 90 89.28 
L 648 89.28 
" clip-path="url(#p829bacf67d)" style="fill: none; stroke: #b0b0b0; stroke-width: 0.8; stroke-linecap: square"/>
     </g>
     <g id="line2d_22">
      <g>
       <use xlink:href="#m272c69a555" x="90" y="89.28" style="stroke: #000000; stroke-width: 0.8"/>
      </g>
     </g>
     <g id="text_12">
      <!-- Extended Reality -->
      <g transform="translate(-1.851562 93.079219) scale(0.1 -0.1)">
       <defs>
        <path id="DejaVuSans-45" d="M 628 4666 
L 3578 4666 
L 3578 4134 
L 1259 4134 
L 1259 2753 
L 3481 2753 
L 3481 2222 
L 1259 2222 
L 1259 531 
L 3634 531 
L 3634 0 
L 628 0 
L 628 4666 
z
" transform="scale(0.015625)"/>
       </defs>
       <use xlink:href="#DejaVuSans-45"/>
       <use xlink:href="#DejaVuSans-78" x="63.183594"/>
       <use xlink:href="#DejaVuSans-74" x="122.363281"/>
       <use xlink:href="#DejaVuSans-65" x="161.572266"/>
       <use xlink:href="#DejaVuSans-6e" x="223.095703"/>
       <use xlink:href="#DejaVuSans-64" x="286.474609"/>
       <use xlink:href="#DejaVuSans-65" x="349.951172"/>
       <use xlink:href="#DejaVuSans-64" x="411.474609"/>
       <use xlink:href="#DejaVuSans-20" x="474.951172"/>
       <use xlink:href="#DejaVuSans-52" x="506.738281"/>
       <use xlink:href="#DejaVuSans-65" x="571.720703"/>
       <use xlink:href="#DejaVuSans-61" x="633.244141"/>
       <use xlink:href="#DejaVuSans-6c" x="694.523438"/>
       <use xlink:href="#DejaVuSans-69" x="722.306641"/>
       <use xlink:href="#DejaVuSans-74" x="750.089844"/>
       <use xlink:href="#DejaVuSans-79" x="789.298828"/>
      </g>
     </g>
    </g>
    <g id="text_13">
     <!-- reality -->
     <g transform="translate(-18.6125 306.66125) rotate(-90) scale(0.1 -0.1)">
      <use xlink:href="#DejaVuSans-72"/>
      <use xlink:href="#DejaVuSans-65" x="38.863281"/>
      <use xlink:href="#DejaVuSans-61" x="100.386719"/>
      <use xlink:href="#DejaVuSans-6c" x="161.666016"/>
      <use xlink:href="#DejaVuSans-69" x="189.449219"/>
      <use xlink:href="#DejaVuSans-74" x="217.232422"/>
      <use xlink:href="#DejaVuSans-79" x="256.441406"/>
     </g>
    </g>
   </g>
   <g id="patch_3">
    <path d="M 90 512.64 
L 90 69.12 
" style="fill: none; stroke: #000000; stroke-width: 0.8; stroke-linejoin: miter; stroke-linecap: square"/>
   </g>
   <g id="patch_4">
    <path d="M 648 512.64 
L 648 69.12 
" style="fill: none; stroke: #000000; stroke-width: 0.8; stroke-linejoin: miter; stroke-linecap: square"/>
   </g>
   <g id="patch_5">
    <path d="M 90 512.64 
L 648 512.64 
" style="fill: none; stroke: #000000; stroke-width: 0.8; stroke-linejoin: miter; stroke-linecap: square"/>
   </g>
   <g id="patch_6">
    <path d="M 90 69.12 
L 648 69.12 
" style="fill: none; stroke: #000000; stroke-width: 0.8; stroke-linejoin: miter; stroke-linecap: square"/>
   </g>
   <g id="text_14">
    <!-- Bubble Chart: venue vs reality by papertype -->
    <g transform="translate(235.78125 63.12) scale(0.12 -0.12)">
     <defs>
      <path id="DejaVuSans-42" d="M 1259 2228 
L 1259 519 
L 2272 519 
Q 2781 519 3026 730 
Q 3272 941 3272 1375 
Q 3272 1813 3026 2020 
Q 2781 2228 2272 2228 
L 1259 2228 
z
M 1259 4147 
L 1259 2741 
L 2194 2741 
Q 2656 2741 2882 2914 
Q 3109 3088 3109 3444 
Q 3109 3797 2882 3972 
Q 2656 4147 2194 4147 
L 1259 4147 
z
M 628 4666 
L 2241 4666 
Q 2963 4666 3353 4366 
Q 3744 4066 3744 3513 
Q 3744 3084 3544 2831 
Q 3344 2578 2956 2516 
Q 3422 2416 3680 2098 
Q 3938 1781 3938 1306 
Q 3938 681 3513 340 
Q 3088 0 2303 0 
L 628 0 
L 628 4666 
z
" transform="scale(0.015625)"/>
      <path id="DejaVuSans-62" d="M 3116 1747 
Q 3116 2381 2855 2742 
Q 2594 3103 2138 3103 
Q 1681 3103 1420 2742 
Q 1159 2381 1159 1747 
Q 1159 1113 1420 752 
Q 1681 391 2138 391 
Q 2594 391 2855 752 
Q 3116 1113 3116 1747 
z
M 1159 2969 
Q 1341 3281 1617 3432 
Q 1894 3584 2278 3584 
Q 2916 3584 3314 3078 
Q 3713 2572 3713 1747 
Q 3713 922 3314 415 
Q 2916 -91 2278 -91 
Q 1894 -91 1617 61 
Q 1341 213 1159 525 
L 1159 0 
L 581 0 
L 581 4863 
L 1159 4863 
L 1159 2969 
z
" transform="scale(0.015625)"/>
      <path id="DejaVuSans-3a" d="M 750 794 
L 1409 794 
L 1409 0 
L 750 0 
L 750 794 
z
M 750 3309 
L 1409 3309 
L 1409 2516 
L 750 2516 
L 750 3309 
z
" transform="scale(0.015625)"/>
      <path id="DejaVuSans-70" d="M 1159 525 
L 1159 -1331 
L 581 -1331 
L 581 3500 
L 1159 3500 
L 1159 2969 
Q 1341 3281 1617 3432 
Q 1894 3584 2278 3584 
Q 2916 3584 3314 3078 
Q 3713 2572 3713 1747 
Q 3713 922 3314 415 
Q 2916 -91 2278 -91 
Q 1894 -91 1617 61 
Q 1341 213 1159 525 
z
M 3116 1747 
Q 3116 2381 2855 2742 
Q 2594 3103 2138 3103 
Q 1681 3103 1420 2742 
Q 1159 2381 1159 1747 
Q 1159 1113 1420 752 
Q 1681 391 2138 391 
Q 2594 391 2855 752 
Q 3116 1113 3116 1747 
z
" transform="scale(0.015625)"/>
     </defs>
     <use xlink:href="#DejaVuSans-42"/>
     <use xlink:href="#DejaVuSans-75" x="68.603516"/>
     <use xlink:href="#DejaVuSans-62" x="131.982422"/>
     <use xlink:href="#DejaVuSans-62" x="195.458984"/>
     <use xlink:href="#DejaVuSans-6c" x="258.935547"/>
     <use xlink:href="#DejaVuSans-65" x="286.71875"/>
     <use xlink:href="#DejaVuSans-20" x="348.242188"/>
     <use xlink:href="#DejaVuSans-43" x="380.029297"/>
     <use xlink:href="#DejaVuSans-68" x="449.853516"/>
     <use xlink:href="#DejaVuSans-61" x="513.232422"/>
     <use xlink:href="#DejaVuSans-72" x="574.511719"/>
     <use xlink:href="#DejaVuSans-74" x="615.625"/>
     <use xlink:href="#DejaVuSans-3a" x="654.833984"/>
     <use xlink:href="#DejaVuSans-20" x="688.525391"/>
     <use xlink:href="#DejaVuSans-76" x="720.3125"/>
     <use xlink:href="#DejaVuSans-65" x="779.492188"/>
     <use xlink:href="#DejaVuSans-6e" x="841.015625"/>
     <use xlink:href="#DejaVuSans-75" x="904.394531"/>
     <use xlink:href="#DejaVuSans-65" x="967.773438"/>
     <use xlink:href="#DejaVuSans-20" x="1029.296875"/>
     <use xlink:href="#DejaVuSans-76" x="1061.083984"/>
     <use xlink:href="#DejaVuSans-73" x="1120.263672"/>
     <use xlink:href="#DejaVuSans-20" x="1172.363281"/>
     <use xlink:href="#DejaVuSans-72" x="1204.150391"/>
     <use xlink:href="#DejaVuSans-65" x="1243.013672"/>
     <use xlink:href="#DejaVuSans-61" x="1304.537109"/>
     <use xlink:href="#DejaVuSans-6c" x="1365.816406"/>
     <use xlink:href="#DejaVuSans-69" x="1393.599609"/>
     <use xlink:href="#DejaVuSans-74" x="1421.382812"/>
     <use xlink:href="#DejaVuSans-79" x="1460.591797"/>
     <use xlink:href="#DejaVuSans-20" x="1519.771484"/>
     <use xlink:href="#DejaVuSans-62" x="1551.558594"/>
     <use xlink:href="#DejaVuSans-79" x="1615.035156"/>
     <use xlink:href="#DejaVuSans-20" x="1674.214844"/>
     <use xlink:href="#DejaVuSans-70" x="1706.001953"/>
     <use xlink:href="#DejaVuSans-61" x="1769.478516"/>
     <use xlink:href="#DejaVuSans-70" x="1830.757812"/>
     <use xlink:href="#DejaVuSans-65" x="1894.234375"/>
     <use xlink:href="#DejaVuSans-72" x="1955.757812"/>
     <use xlink:href="#DejaVuSans-74" x="1996.871094"/>
     <use xlink:href="#DejaVuSans-79" x="2036.080078"/>
     <use xlink:href="#DejaVuSans-70" x="2095.259766"/>
     <use xlink:href="#DejaVuSans-65" x="2158.736328"/>
    </g>
   </g>
   <g id="legend_1">
    <g id="patch_7">
     <path d="M 553.125 165.18875 
L 641 165.18875 
Q 643 165.18875 643 163.18875 
L 643 76.12 
Q 643 74.12 641 74.12 
L 553.125 74.12 
Q 551.125 74.12 551.125 76.12 
L 551.125 163.18875 
Q 551.125 165.18875 553.125 165.18875 
z
" style="fill: #ffffff; opacity: 0.8; stroke: #cccccc; stroke-linejoin: miter"/>
    </g>
    <g id="text_15">
     <!-- Papertype -->
     <g transform="translate(571.732031 85.718438) scale(0.1 -0.1)">
      <use xlink:href="#DejaVuSans-50"/>
      <use xlink:href="#DejaVuSans-61" x="55.802734"/>
      <use xlink:href="#DejaVuSans-70" x="117.082031"/>
      <use xlink:href="#DejaVuSans-65" x="180.558594"/>
      <use xlink:href="#DejaVuSans-72" x="242.082031"/>
      <use xlink:href="#DejaVuSans-74" x="283.195312"/>
      <use xlink:href="#DejaVuSans-79" x="322.404297"/>
      <use xlink:href="#DejaVuSans-70" x="381.583984"/>
      <use xlink:href="#DejaVuSans-65" x="445.060547"/>
     </g>
    </g>
    <g id="line2d_23">
     <path d="M 555.125 96.896563 
L 565.125 96.896563 
L 575.125 96.896563 
" style="fill: none; stroke: #ffffff; stroke-width: 1.5; stroke-linecap: square"/>
     <defs>
      <path id="m73ba6296f7" d="M 0 5 
C 1.326016 5 2.597899 4.473168 3.535534 3.535534 
C 4.473168 2.597899 5 1.326016 5 0 
C 5 -1.326016 4.473168 -2.597899 3.535534 -3.535534 
C 2.597899 -4.473168 1.326016 -5 0 -5 
C -1.326016 -5 -2.597899 -4.473168 -3.535534 -3.535534 
C -4.473168 -2.597899 -5 -1.326016 -5 0 
C -5 1.326016 -4.473168 2.597899 -3.535534 3.535534 
C -2.597899 4.473168 -1.326016 5 0 5 
z
" style="stroke: #ffffff"/>
     </defs>
     <g>
      <use xlink:href="#m73ba6296f7" x="565.125" y="96.896563" style="fill: #0000ff; stroke: #ffffff"/>
     </g>
    </g>
    <g id="text_16">
     <!-- Application -->
     <g transform="translate(583.125 100.396563) scale(0.1 -0.1)">
      <defs>
       <path id="DejaVuSans-63" d="M 3122 3366 
L 3122 2828 
Q 2878 2963 2633 3030 
Q 2388 3097 2138 3097 
Q 1578 3097 1268 2742 
Q 959 2388 959 1747 
Q 959 1106 1268 751 
Q 1578 397 2138 397 
Q 2388 397 2633 464 
Q 2878 531 3122 666 
L 3122 134 
Q 2881 22 2623 -34 
Q 2366 -91 2075 -91 
Q 1284 -91 818 406 
Q 353 903 353 1747 
Q 353 2603 823 3093 
Q 1294 3584 2113 3584 
Q 2378 3584 2631 3529 
Q 2884 3475 3122 3366 
z
" transform="scale(0.015625)"/>
       <path id="DejaVuSans-6f" d="M 1959 3097 
Q 1497 3097 1228 2736 
Q 959 2375 959 1747 
Q 959 1119 1226 758 
Q 1494 397 1959 397 
Q 2419 397 2687 759 
Q 2956 1122 2956 1747 
Q 2956 2369 2687 2733 
Q 2419 3097 1959 3097 
z
M 1959 3584 
Q 2709 3584 3137 3096 
Q 3566 2609 3566 1747 
Q 3566 888 3137 398 
Q 2709 -91 1959 -91 
Q 1206 -91 779 398 
Q 353 888 353 1747 
Q 353 2609 779 3096 
Q 1206 3584 1959 3584 
z
" transform="scale(0.015625)"/>
      </defs>
      <use xlink:href="#DejaVuSans-41"/>
      <use xlink:href="#DejaVuSans-70" x="68.408203"/>
      <use xlink:href="#DejaVuSans-70" x="131.884766"/>
      <use xlink:href="#DejaVuSans-6c" x="195.361328"/>
      <use xlink:href="#DejaVuSans-69" x="223.144531"/>
      <use xlink:href="#DejaVuSans-63" x="250.927734"/>
      <use xlink:href="#DejaVuSans-61" x="305.908203"/>
      <use xlink:href="#DejaVuSans-74" x="367.1875"/>
      <use xlink:href="#DejaVuSans-69" x="406.396484"/>
      <use xlink:href="#DejaVuSans-6f" x="434.179688"/>
      <use xlink:href="#DejaVuSans-6e" x="495.361328"/>
     </g>
    </g>
    <g id="line2d_24">
     <path d="M 555.125 111.574688 
L 565.125 111.574688 
L 575.125 111.574688 
" style="fill: none; stroke: #ffffff; stroke-width: 1.5; stroke-linecap: square"/>
     <defs>
      <path id="m7831aab410" d="M 0 5 
C 1.326016 5 2.597899 4.473168 3.535534 3.535534 
C 4.473168 2.597899 5 1.326016 5 0 
C 5 -1.326016 4.473168 -2.597899 3.535534 -3.535534 
C 2.597899 -4.473168 1.326016 -5 0 -5 
C -1.326016 -5 -2.597899 -4.473168 -3.535534 -3.535534 
C -4.473168 -2.597899 -5 -1.326016 -5 0 
C -5 1.326016 -4.473168 2.597899 -3.535534 3.535534 
C -2.597899 4.473168 -1.326016 5 0 5 
z
" style="stroke: #ffffff"/>
     </defs>
     <g>
      <use xlink:href="#m7831aab410" x="565.125" y="111.574688" style="fill: #008000; stroke: #ffffff"/>
     </g>
    </g>
    <g id="text_17">
     <!-- Evaluation -->
     <g transform="translate(583.125 115.074688) scale(0.1 -0.1)">
      <use xlink:href="#DejaVuSans-45"/>
      <use xlink:href="#DejaVuSans-76" x="63.183594"/>
      <use xlink:href="#DejaVuSans-61" x="122.363281"/>
      <use xlink:href="#DejaVuSans-6c" x="183.642578"/>
      <use xlink:href="#DejaVuSans-75" x="211.425781"/>
      <use xlink:href="#DejaVuSans-61" x="274.804688"/>
      <use xlink:href="#DejaVuSans-74" x="336.083984"/>
      <use xlink:href="#DejaVuSans-69" x="375.292969"/>
      <use xlink:href="#DejaVuSans-6f" x="403.076172"/>
      <use xlink:href="#DejaVuSans-6e" x="464.257812"/>
     </g>
    </g>
    <g id="line2d_25">
     <path d="M 555.125 126.252813 
L 565.125 126.252813 
L 575.125 126.252813 
" style="fill: none; stroke: #ffffff; stroke-width: 1.5; stroke-linecap: square"/>
     <defs>
      <path id="m7a9ecef76e" d="M 0 5 
C 1.326016 5 2.597899 4.473168 3.535534 3.535534 
C 4.473168 2.597899 5 1.326016 5 0 
C 5 -1.326016 4.473168 -2.597899 3.535534 -3.535534 
C 2.597899 -4.473168 1.326016 -5 0 -5 
C -1.326016 -5 -2.597899 -4.473168 -3.535534 -3.535534 
C -4.473168 -2.597899 -5 -1.326016 -5 0 
C -5 1.326016 -4.473168 2.597899 -3.535534 3.535534 
C -2.597899 4.473168 -1.326016 5 0 5 
z
" style="stroke: #ffffff"/>
     </defs>
     <g>
      <use xlink:href="#m7a9ecef76e" x="565.125" y="126.252813" style="fill: #ff0000; stroke: #ffffff"/>
     </g>
    </g>
    <g id="text_18">
     <!-- Model -->
     <g transform="translate(583.125 129.752813) scale(0.1 -0.1)">
      <use xlink:href="#DejaVuSans-4d"/>
      <use xlink:href="#DejaVuSans-6f" x="86.279297"/>
      <use xlink:href="#DejaVuSans-64" x="147.460938"/>
      <use xlink:href="#DejaVuSans-65" x="210.9375"/>
      <use xlink:href="#DejaVuSans-6c" x="272.460938"/>
     </g>
    </g>
    <g id="line2d_26">
     <path d="M 555.125 140.930938 
L 565.125 140.930938 
L 575.125 140.930938 
" style="fill: none; stroke: #ffffff; stroke-width: 1.5; stroke-linecap: square"/>
     <defs>
      <path id="m8a1c387220" d="M 0 5 
C 1.326016 5 2.597899 4.473168 3.535534 3.535534 
C 4.473168 2.597899 5 1.326016 5 0 
C 5 -1.326016 4.473168 -2.597899 3.535534 -3.535534 
C 2.597899 -4.473168 1.326016 -5 0 -5 
C -1.326016 -5 -2.597899 -4.473168 -3.535534 -3.535534 
C -4.473168 -2.597899 -5 -1.326016 -5 0 
C -5 1.326016 -4.473168 2.597899 -3.535534 3.535534 
C -2.597899 4.473168 -1.326016 5 0 5 
z
" style="stroke: #ffffff"/>
     </defs>
     <g>
      <use xlink:href="#m8a1c387220" x="565.125" y="140.930938" style="fill: #800080; stroke: #ffffff"/>
     </g>
    </g>
    <g id="text_19">
     <!-- System -->
     <g transform="translate(583.125 144.430938) scale(0.1 -0.1)">
      <use xlink:href="#DejaVuSans-53"/>
      <use xlink:href="#DejaVuSans-79" x="63.476562"/>
      <use xlink:href="#DejaVuSans-73" x="122.65625"/>
      <use xlink:href="#DejaVuSans-74" x="174.755859"/>
      <use xlink:href="#DejaVuSans-65" x="213.964844"/>
      <use xlink:href="#DejaVuSans-6d" x="275.488281"/>
     </g>
    </g>
    <g id="line2d_27">
     <path d="M 555.125 155.609063 
L 565.125 155.609063 
L 575.125 155.609063 
" style="fill: none; stroke: #ffffff; stroke-width: 1.5; stroke-linecap: square"/>
     <defs>
      <path id="m36e5282674" d="M 0 5 
C 1.326016 5 2.597899 4.473168 3.535534 3.535534 
C 4.473168 2.597899 5 1.326016 5 0 
C 5 -1.326016 4.473168 -2.597899 3.535534 -3.535534 
C 2.597899 -4.473168 1.326016 -5 0 -5 
C -1.326016 -5 -2.597899 -4.473168 -3.535534 -3.535534 
C -4.473168 -2.597899 -5 -1.326016 -5 0 
C -5 1.326016 -4.473168 2.597899 -3.535534 3.535534 
C -2.597899 4.473168 -1.326016 5 0 5 
z
" style="stroke: #ffffff"/>
     </defs>
     <g>
      <use xlink:href="#m36e5282674" x="565.125" y="155.609063" style="fill: #00ffff; stroke: #ffffff"/>
     </g>
    </g>
    <g id="text_20">
     <!-- Technique -->
     <g transform="translate(583.125 159.109063) scale(0.1 -0.1)">
      <defs>
       <path id="DejaVuSans-71" d="M 947 1747 
Q 947 1113 1208 752 
Q 1469 391 1925 391 
Q 2381 391 2643 752 
Q 2906 1113 2906 1747 
Q 2906 2381 2643 2742 
Q 2381 3103 1925 3103 
Q 1469 3103 1208 2742 
Q 947 2381 947 1747 
z
M 2906 525 
Q 2725 213 2448 61 
Q 2172 -91 1784 -91 
Q 1150 -91 751 415 
Q 353 922 353 1747 
Q 353 2572 751 3078 
Q 1150 3584 1784 3584 
Q 2172 3584 2448 3432 
Q 2725 3281 2906 2969 
L 2906 3500 
L 3481 3500 
L 3481 -1331 
L 2906 -1331 
L 2906 525 
z
" transform="scale(0.015625)"/>
      </defs>
      <use xlink:href="#DejaVuSans-54"/>
      <use xlink:href="#DejaVuSans-65" x="44.083984"/>
      <use xlink:href="#DejaVuSans-63" x="105.607422"/>
      <use xlink:href="#DejaVuSans-68" x="160.587891"/>
      <use xlink:href="#DejaVuSans-6e" x="223.966797"/>
      <use xlink:href="#DejaVuSans-69" x="287.345703"/>
      <use xlink:href="#DejaVuSans-71" x="315.128906"/>
      <use xlink:href="#DejaVuSans-75" x="378.605469"/>
      <use xlink:href="#DejaVuSans-65" x="441.984375"/>
     </g>
    </g>
   </g>
  </g>
 </g>
 <defs>
  <clipPath id="p829bacf67d">
   <rect x="90" y="69.12" width="558" height="443.52"/>
  </clipPath>
 </defs>
</svg>
