<?xml version="1.0" encoding="utf-8" standalone="no"?>
<!DOCTYPE svg PUBLIC "-//W3C//DTD SVG 1.1//EN"
  "http://www.w3.org/Graphics/SVG/1.1/DTD/svg11.dtd">
<svg xmlns:xlink="http://www.w3.org/1999/xlink" width="720pt" height="576pt" viewBox="0 0 720 576" xmlns="http://www.w3.org/2000/svg" version="1.1">
 <metadata>
  <rdf:RDF xmlns:dc="http://purl.org/dc/elements/1.1/" xmlns:cc="http://creativecommons.org/ns#" xmlns:rdf="http://www.w3.org/1999/02/22-rdf-syntax-ns#">
   <cc:Work>
    <dc:type rdf:resource="http://purl.org/dc/dcmitype/StillImage"/>
    <dc:date>2024-09-02T16:21:30.426980</dc:date>
    <dc:format>image/svg+xml</dc:format>
    <dc:creator>
     <cc:Agent>
      <dc:title>Matplotlib v3.8.2, https://matplotlib.org/</dc:title>
     </cc:Agent>
    </dc:creator>
   </cc:Work>
  </rdf:RDF>
 </metadata>
 <defs>
  <style type="text/css">*{stroke-linejoin: round; stroke-linecap: butt}</style>
 </defs>
 <g id="figure_1">
  <g id="patch_1">
   <path d="M 0 576 
L 720 576 
L 720 0 
L 0 0 
z
" style="fill: #ffffff"/>
  </g>
  <g id="axes_1">
   <g id="patch_2">
    <path d="M 90 512.64 
L 648 512.64 
L 648 69.12 
L 90 69.12 
z
" style="fill: #ffffff"/>
   </g>
   <g id="PathCollection_1">
    <path d="M 115.363636 504.727449 
C 118.611698 504.727449 121.727164 503.43698 124.02389 501.140254 
C 126.320617 498.843528 127.611085 495.728061 127.611085 492.48 
C 127.611085 489.231939 126.320617 486.116472 124.02389 483.819746 
C 121.727164 481.52302 118.611698 480.232551 115.363636 480.232551 
C 112.115575 480.232551 109.000109 481.52302 106.703382 483.819746 
C 104.406656 486.116472 103.116188 489.231939 103.116188 492.48 
C 103.116188 495.728061 104.406656 498.843528 106.703382 501.140254 
C 109.000109 503.43698 112.115575 504.727449 115.363636 504.727449 
z
" clip-path="url(#p830923281c)" style="fill: #0000ff; fill-opacity: 0.6; stroke: #ffffff; stroke-opacity: 0.6; stroke-width: 2"/>
    <path d="M 115.363636 503.66034 
C 118.328697 503.66034 121.172716 502.482309 123.269331 500.385694 
C 125.365945 498.28908 126.543976 495.445061 126.543976 492.48 
C 126.543976 489.514939 125.365945 486.67092 123.269331 484.574306 
C 121.172716 482.477691 118.328697 481.29966 115.363636 481.29966 
C 112.398576 481.29966 109.554557 482.477691 107.457942 484.574306 
C 105.361328 486.67092 104.183296 489.514939 104.183296 492.48 
C 104.183296 495.445061 105.361328 498.28908 107.457942 500.385694 
C 109.554557 502.482309 112.398576 503.66034 115.363636 503.66034 
z
" clip-path="url(#p830923281c)" style="fill: #008000; fill-opacity: 0.6; stroke: #ffffff; stroke-opacity: 0.6; stroke-width: 2"/>
    <path d="M 115.363636 505.708757 
C 118.871944 505.708757 122.237032 504.314891 124.71778 501.834143 
C 127.198528 499.353396 128.592393 495.988307 128.592393 492.48 
C 128.592393 488.971693 127.198528 485.606604 124.71778 483.125857 
C 122.237032 480.645109 118.871944 479.251243 115.363636 479.251243 
C 111.855329 479.251243 108.490241 480.645109 106.009493 483.125857 
C 103.528745 485.606604 102.13488 488.971693 102.13488 492.48 
C 102.13488 495.988307 103.528745 499.353396 106.009493 501.834143 
C 108.490241 504.314891 111.855329 505.708757 115.363636 505.708757 
z
" clip-path="url(#p830923281c)" style="fill: #ff0000; fill-opacity: 0.6; stroke: #ffffff; stroke-opacity: 0.6; stroke-width: 2"/>
    <path d="M 115.363636 499.551068 
C 117.238905 499.551068 119.037621 498.806016 120.363636 497.48 
C 121.689652 496.153985 122.434704 494.355269 122.434704 492.48 
C 122.434704 490.604731 121.689652 488.806016 120.363636 487.48 
C 119.037621 486.153985 117.238905 485.408932 115.363636 485.408932 
C 113.488367 485.408932 111.689652 486.153985 110.363636 487.48 
C 109.037621 488.806016 108.292569 490.604731 108.292569 492.48 
C 108.292569 494.355269 109.037621 496.153985 110.363636 497.48 
C 111.689652 498.806016 113.488367 499.551068 115.363636 499.551068 
z
" clip-path="url(#p830923281c)" style="fill: #800080; fill-opacity: 0.6; stroke: #ffffff; stroke-opacity: 0.6; stroke-width: 2"/>
    <path d="M 115.363636 438.508757 
C 118.871944 438.508757 122.237032 437.114891 124.71778 434.634143 
C 127.198528 432.153396 128.592393 428.788307 128.592393 425.28 
C 128.592393 421.771693 127.198528 418.406604 124.71778 415.925857 
C 122.237032 413.445109 118.871944 412.051243 115.363636 412.051243 
C 111.855329 412.051243 108.490241 413.445109 106.009493 415.925857 
C 103.528745 418.406604 102.13488 421.771693 102.13488 425.28 
C 102.13488 428.788307 103.528745 432.153396 106.009493 434.634143 
C 108.490241 437.114891 111.855329 438.508757 115.363636 438.508757 
z
" clip-path="url(#p830923281c)" style="fill: #0000ff; fill-opacity: 0.6; stroke: #ffffff; stroke-opacity: 0.6; stroke-width: 2"/>
    <path d="M 115.363636 436.46034 
C 118.328697 436.46034 121.172716 435.282309 123.269331 433.185694 
C 125.365945 431.08908 126.543976 428.245061 126.543976 425.28 
C 126.543976 422.314939 125.365945 419.47092 123.269331 417.374306 
C 121.172716 415.277691 118.328697 414.09966 115.363636 414.09966 
C 112.398576 414.09966 109.554557 415.277691 107.457942 417.374306 
C 105.361328 419.47092 104.183296 422.314939 104.183296 425.28 
C 104.183296 428.245061 105.361328 431.08908 107.457942 433.185694 
C 109.554557 435.282309 112.398576 436.46034 115.363636 436.46034 
z
" clip-path="url(#p830923281c)" style="fill: #008000; fill-opacity: 0.6; stroke: #ffffff; stroke-opacity: 0.6; stroke-width: 2"/>
    <path d="M 115.363636 437.527449 
C 118.611698 437.527449 121.727164 436.23698 124.02389 433.940254 
C 126.320617 431.643528 127.611085 428.528061 127.611085 425.28 
C 127.611085 422.031939 126.320617 418.916472 124.02389 416.619746 
C 121.727164 414.32302 118.611698 413.032551 115.363636 413.032551 
C 112.115575 413.032551 109.000109 414.32302 106.703382 416.619746 
C 104.406656 418.916472 103.116188 422.031939 103.116188 425.28 
C 103.116188 428.528061 104.406656 431.643528 106.703382 433.940254 
C 109.000109 436.23698 112.115575 437.527449 115.363636 437.527449 
z
" clip-path="url(#p830923281c)" style="fill: #ff0000; fill-opacity: 0.6; stroke: #ffffff; stroke-opacity: 0.6; stroke-width: 2"/>
    <path d="M 115.363636 432.351068 
C 117.238905 432.351068 119.037621 431.606015 120.363636 430.28 
C 121.689652 428.953984 122.434704 427.155269 122.434704 425.28 
C 122.434704 423.404731 121.689652 421.606015 120.363636 420.28 
C 119.037621 418.953984 117.238905 418.208932 115.363636 418.208932 
C 113.488367 418.208932 111.689652 418.953984 110.363636 420.28 
C 109.037621 421.606015 108.292569 423.404731 108.292569 425.28 
C 108.292569 427.155269 109.037621 428.953984 110.363636 430.28 
C 111.689652 431.606015 113.488367 432.351068 115.363636 432.351068 
z
" clip-path="url(#p830923281c)" style="fill: #800080; fill-opacity: 0.6; stroke: #ffffff; stroke-opacity: 0.6; stroke-width: 2"/>
    <path d="M 115.363636 363.08 
C 116.689652 363.08 117.961536 362.553168 118.89917 361.615534 
C 119.836805 360.677899 120.363636 359.406015 120.363636 358.08 
C 120.363636 356.753985 119.836805 355.482101 118.89917 354.544466 
C 117.961536 353.606832 116.689652 353.08 115.363636 353.08 
C 114.037621 353.08 112.765737 353.606832 111.828102 354.544466 
C 110.890468 355.482101 110.363636 356.753985 110.363636 358.08 
C 110.363636 359.406015 110.890468 360.677899 111.828102 361.615534 
C 112.765737 362.553168 114.037621 363.08 115.363636 363.08 
z
" clip-path="url(#p830923281c)" style="fill: #0000ff; fill-opacity: 0.6; stroke: #ffffff; stroke-opacity: 0.6; stroke-width: 2"/>
    <path d="M 115.363636 363.08 
C 116.689652 363.08 117.961536 362.553168 118.89917 361.615534 
C 119.836805 360.677899 120.363636 359.406015 120.363636 358.08 
C 120.363636 356.753985 119.836805 355.482101 118.89917 354.544466 
C 117.961536 353.606832 116.689652 353.08 115.363636 353.08 
C 114.037621 353.08 112.765737 353.606832 111.828102 354.544466 
C 110.890468 355.482101 110.363636 356.753985 110.363636 358.08 
C 110.363636 359.406015 110.890468 360.677899 111.828102 361.615534 
C 112.765737 362.553168 114.037621 363.08 115.363636 363.08 
z
" clip-path="url(#p830923281c)" style="fill: #ff0000; fill-opacity: 0.6; stroke: #ffffff; stroke-opacity: 0.6; stroke-width: 2"/>
    <path d="M 115.363636 302.06034 
C 118.328697 302.06034 121.172716 300.882309 123.269331 298.785694 
C 125.365945 296.68908 126.543976 293.845061 126.543976 290.88 
C 126.543976 287.914939 125.365945 285.07092 123.269331 282.974306 
C 121.172716 280.877691 118.328697 279.69966 115.363636 279.69966 
C 112.398576 279.69966 109.554557 280.877691 107.457942 282.974306 
C 105.361328 285.07092 104.183296 287.914939 104.183296 290.88 
C 104.183296 293.845061 105.361328 296.68908 107.457942 298.785694 
C 109.554557 300.882309 112.398576 302.06034 115.363636 302.06034 
z
" clip-path="url(#p830923281c)" style="fill: #0000ff; fill-opacity: 0.6; stroke: #ffffff; stroke-opacity: 0.6; stroke-width: 2"/>
    <path d="M 115.363636 299.540254 
C 117.660363 299.540254 119.86333 298.627755 121.487361 297.003724 
C 123.111391 295.379694 124.02389 293.176726 124.02389 290.88 
C 124.02389 288.583274 123.111391 286.380306 121.487361 284.756276 
C 119.86333 283.132245 117.660363 282.219746 115.363636 282.219746 
C 113.06691 282.219746 110.863943 283.132245 109.239912 284.756276 
C 107.615881 286.380306 106.703382 288.583274 106.703382 290.88 
C 106.703382 293.176726 107.615881 295.379694 109.239912 297.003724 
C 110.863943 298.627755 113.06691 299.540254 115.363636 299.540254 
z
" clip-path="url(#p830923281c)" style="fill: #008000; fill-opacity: 0.6; stroke: #ffffff; stroke-opacity: 0.6; stroke-width: 2"/>
    <path d="M 115.363636 300.88 
C 118.015667 300.88 120.559435 299.826337 122.434704 297.951068 
C 124.309973 296.075799 125.363636 293.532031 125.363636 290.88 
C 125.363636 288.227969 124.309973 285.684201 122.434704 283.808932 
C 120.559435 281.933663 118.015667 280.88 115.363636 280.88 
C 112.711605 280.88 110.167838 281.933663 108.292569 283.808932 
C 106.417299 285.684201 105.363636 288.227969 105.363636 290.88 
C 105.363636 293.532031 106.417299 296.075799 108.292569 297.951068 
C 110.167838 299.826337 112.711605 300.88 115.363636 300.88 
z
" clip-path="url(#p830923281c)" style="fill: #ff0000; fill-opacity: 0.6; stroke: #ffffff; stroke-opacity: 0.6; stroke-width: 2"/>
    <path d="M 115.363636 297.951068 
C 117.238905 297.951068 119.037621 297.206015 120.363636 295.88 
C 121.689652 294.553985 122.434704 292.755269 122.434704 290.88 
C 122.434704 289.004731 121.689652 287.206015 120.363636 285.88 
C 119.037621 284.553985 117.238905 283.808932 115.363636 283.808932 
C 113.488367 283.808932 111.689652 284.553985 110.363636 285.88 
C 109.037621 287.206015 108.292569 289.004731 108.292569 290.88 
C 108.292569 292.755269 109.037621 294.553985 110.363636 295.88 
C 111.689652 297.206015 113.488367 297.951068 115.363636 297.951068 
z
" clip-path="url(#p830923281c)" style="fill: #800080; fill-opacity: 0.6; stroke: #ffffff; stroke-opacity: 0.6; stroke-width: 2"/>
    <path d="M 115.363636 230.751068 
C 117.238905 230.751068 119.037621 230.006016 120.363636 228.68 
C 121.689652 227.353984 122.434704 225.555269 122.434704 223.68 
C 122.434704 221.804731 121.689652 220.006016 120.363636 218.68 
C 119.037621 217.353984 117.238905 216.608932 115.363636 216.608932 
C 113.488367 216.608932 111.689652 217.353984 110.363636 218.68 
C 109.037621 220.006016 108.292569 221.804731 108.292569 223.68 
C 108.292569 225.555269 109.037621 227.353984 110.363636 228.68 
C 111.689652 230.006016 113.488367 230.751068 115.363636 230.751068 
z
" clip-path="url(#p830923281c)" style="fill: #0000ff; fill-opacity: 0.6; stroke: #ffffff; stroke-opacity: 0.6; stroke-width: 2"/>
    <path d="M 115.363636 230.751068 
C 117.238905 230.751068 119.037621 230.006016 120.363636 228.68 
C 121.689652 227.353984 122.434704 225.555269 122.434704 223.68 
C 122.434704 221.804731 121.689652 220.006016 120.363636 218.68 
C 119.037621 217.353984 117.238905 216.608932 115.363636 216.608932 
C 113.488367 216.608932 111.689652 217.353984 110.363636 218.68 
C 109.037621 220.006016 108.292569 221.804731 108.292569 223.68 
C 108.292569 225.555269 109.037621 227.353984 110.363636 228.68 
C 111.689652 230.006016 113.488367 230.751068 115.363636 230.751068 
z
" clip-path="url(#p830923281c)" style="fill: #008000; fill-opacity: 0.6; stroke: #ffffff; stroke-opacity: 0.6; stroke-width: 2"/>
    <path d="M 115.363636 228.68 
C 116.689652 228.68 117.961536 228.153168 118.89917 227.215534 
C 119.836805 226.277899 120.363636 225.006016 120.363636 223.68 
C 120.363636 222.353984 119.836805 221.082101 118.89917 220.144466 
C 117.961536 219.206832 116.689652 218.68 115.363636 218.68 
C 114.037621 218.68 112.765737 219.206832 111.828102 220.144466 
C 110.890468 221.082101 110.363636 222.353984 110.363636 223.68 
C 110.363636 225.006016 110.890468 226.277899 111.828102 227.215534 
C 112.765737 228.153168 114.037621 228.68 115.363636 228.68 
z
" clip-path="url(#p830923281c)" style="fill: #ff0000; fill-opacity: 0.6; stroke: #ffffff; stroke-opacity: 0.6; stroke-width: 2"/>
    <path d="M 242.181818 502.48 
C 244.833849 502.48 247.377617 501.426337 249.252886 499.551068 
C 251.128155 497.675799 252.181818 495.132031 252.181818 492.48 
C 252.181818 489.827969 251.128155 487.284201 249.252886 485.408932 
C 247.377617 483.533663 244.833849 482.48 242.181818 482.48 
C 239.529787 482.48 236.986019 483.533663 235.11075 485.408932 
C 233.235481 487.284201 232.181818 489.827969 232.181818 492.48 
C 232.181818 495.132031 233.235481 497.675799 235.11075 499.551068 
C 236.986019 501.426337 239.529787 502.48 242.181818 502.48 
z
" clip-path="url(#p830923281c)" style="fill: #0000ff; fill-opacity: 0.6; stroke: #ffffff; stroke-opacity: 0.6; stroke-width: 2"/>
    <path d="M 242.181818 502.48 
C 244.833849 502.48 247.377617 501.426337 249.252886 499.551068 
C 251.128155 497.675799 252.181818 495.132031 252.181818 492.48 
C 252.181818 489.827969 251.128155 487.284201 249.252886 485.408932 
C 247.377617 483.533663 244.833849 482.48 242.181818 482.48 
C 239.529787 482.48 236.986019 483.533663 235.11075 485.408932 
C 233.235481 487.284201 232.181818 489.827969 232.181818 492.48 
C 232.181818 495.132031 233.235481 497.675799 235.11075 499.551068 
C 236.986019 501.426337 239.529787 502.48 242.181818 502.48 
z
" clip-path="url(#p830923281c)" style="fill: #008000; fill-opacity: 0.6; stroke: #ffffff; stroke-opacity: 0.6; stroke-width: 2"/>
    <path d="M 242.181818 499.551068 
C 244.057087 499.551068 245.855803 498.806016 247.181818 497.48 
C 248.507834 496.153985 249.252886 494.355269 249.252886 492.48 
C 249.252886 490.604731 248.507834 488.806016 247.181818 487.48 
C 245.855803 486.153985 244.057087 485.408932 242.181818 485.408932 
C 240.306549 485.408932 238.507834 486.153985 237.181818 487.48 
C 235.855803 488.806016 235.11075 490.604731 235.11075 492.48 
C 235.11075 494.355269 235.855803 496.153985 237.181818 497.48 
C 238.507834 498.806016 240.306549 499.551068 242.181818 499.551068 
z
" clip-path="url(#p830923281c)" style="fill: #ff0000; fill-opacity: 0.6; stroke: #ffffff; stroke-opacity: 0.6; stroke-width: 2"/>
    <path d="M 242.181818 499.551068 
C 244.057087 499.551068 245.855803 498.806016 247.181818 497.48 
C 248.507834 496.153985 249.252886 494.355269 249.252886 492.48 
C 249.252886 490.604731 248.507834 488.806016 247.181818 487.48 
C 245.855803 486.153985 244.057087 485.408932 242.181818 485.408932 
C 240.306549 485.408932 238.507834 486.153985 237.181818 487.48 
C 235.855803 488.806016 235.11075 490.604731 235.11075 492.48 
C 235.11075 494.355269 235.855803 496.153985 237.181818 497.48 
C 238.507834 498.806016 240.306549 499.551068 242.181818 499.551068 
z
" clip-path="url(#p830923281c)" style="fill: #800080; fill-opacity: 0.6; stroke: #ffffff; stroke-opacity: 0.6; stroke-width: 2"/>
    <path d="M 242.181818 444.644917 
C 247.317454 444.644917 252.243439 442.604507 255.874882 438.973064 
C 259.506325 435.341621 261.546735 430.415636 261.546735 425.28 
C 261.546735 420.144364 259.506325 415.218379 255.874882 411.586936 
C 252.243439 407.955493 247.317454 405.915083 242.181818 405.915083 
C 237.046182 405.915083 232.120197 407.955493 228.488754 411.586936 
C 224.857311 415.218379 222.816901 420.144364 222.816901 425.28 
C 222.816901 430.415636 224.857311 435.341621 228.488754 438.973064 
C 232.120197 442.604507 237.046182 444.644917 242.181818 444.644917 
z
" clip-path="url(#p830923281c)" style="fill: #0000ff; fill-opacity: 0.6; stroke: #ffffff; stroke-opacity: 0.6; stroke-width: 2"/>
    <path d="M 242.181818 438.508757 
C 245.690125 438.508757 249.055214 437.114891 251.535962 434.634143 
C 254.016709 432.153396 255.410575 428.788307 255.410575 425.28 
C 255.410575 421.771693 254.016709 418.406604 251.535962 415.925857 
C 249.055214 413.445109 245.690125 412.051243 242.181818 412.051243 
C 238.673511 412.051243 235.308423 413.445109 232.827675 415.925857 
C 230.346927 418.406604 228.953062 421.771693 228.953062 425.28 
C 228.953062 428.788307 230.346927 432.153396 232.827675 434.634143 
C 235.308423 437.114891 238.673511 438.508757 242.181818 438.508757 
z
" clip-path="url(#p830923281c)" style="fill: #008000; fill-opacity: 0.6; stroke: #ffffff; stroke-opacity: 0.6; stroke-width: 2"/>
    <path d="M 242.181818 436.46034 
C 245.146879 436.46034 247.990898 435.282309 250.087512 433.185694 
C 252.184127 431.08908 253.362158 428.245061 253.362158 425.28 
C 253.362158 422.314939 252.184127 419.47092 250.087512 417.374306 
C 247.990898 415.277691 245.146879 414.09966 242.181818 414.09966 
C 239.216757 414.09966 236.372739 415.277691 234.276124 417.374306 
C 232.179509 419.47092 231.001478 422.314939 231.001478 425.28 
C 231.001478 428.245061 232.179509 431.08908 234.276124 433.185694 
C 236.372739 435.282309 239.216757 436.46034 242.181818 436.46034 
z
" clip-path="url(#p830923281c)" style="fill: #ff0000; fill-opacity: 0.6; stroke: #ffffff; stroke-opacity: 0.6; stroke-width: 2"/>
    <path d="M 242.181818 432.351068 
C 244.057087 432.351068 245.855803 431.606015 247.181818 430.28 
C 248.507834 428.953984 249.252886 427.155269 249.252886 425.28 
C 249.252886 423.404731 248.507834 421.606015 247.181818 420.28 
C 245.855803 418.953984 244.057087 418.208932 242.181818 418.208932 
C 240.306549 418.208932 238.507834 418.953984 237.181818 420.28 
C 235.855803 421.606015 235.11075 423.404731 235.11075 425.28 
C 235.11075 427.155269 235.855803 428.953984 237.181818 430.28 
C 238.507834 431.606015 240.306549 432.351068 242.181818 432.351068 
z
" clip-path="url(#p830923281c)" style="fill: #800080; fill-opacity: 0.6; stroke: #ffffff; stroke-opacity: 0.6; stroke-width: 2"/>
    <path d="M 242.181818 375.400508 
C 246.775271 375.400508 251.181206 373.57551 254.429267 370.327449 
C 257.677328 367.079387 259.502326 362.673452 259.502326 358.08 
C 259.502326 353.486548 257.677328 349.080613 254.429267 345.832551 
C 251.181206 342.58449 246.775271 340.759492 242.181818 340.759492 
C 237.588366 340.759492 233.182431 342.58449 229.934369 345.832551 
C 226.686308 349.080613 224.86131 353.486548 224.86131 358.08 
C 224.86131 362.673452 226.686308 367.079387 229.934369 370.327449 
C 233.182431 373.57551 237.588366 375.400508 242.181818 375.400508 
z
" clip-path="url(#p830923281c)" style="fill: #0000ff; fill-opacity: 0.6; stroke: #ffffff; stroke-opacity: 0.6; stroke-width: 2"/>
    <path d="M 242.181818 371.308757 
C 245.690125 371.308757 249.055214 369.914891 251.535962 367.434143 
C 254.016709 364.953396 255.410575 361.588307 255.410575 358.08 
C 255.410575 354.571693 254.016709 351.206604 251.535962 348.725857 
C 249.055214 346.245109 245.690125 344.851243 242.181818 344.851243 
C 238.673511 344.851243 235.308423 346.245109 232.827675 348.725857 
C 230.346927 351.206604 228.953062 354.571693 228.953062 358.08 
C 228.953062 361.588307 230.346927 364.953396 232.827675 367.434143 
C 235.308423 369.914891 238.673511 371.308757 242.181818 371.308757 
z
" clip-path="url(#p830923281c)" style="fill: #008000; fill-opacity: 0.6; stroke: #ffffff; stroke-opacity: 0.6; stroke-width: 2"/>
    <path d="M 242.181818 371.308757 
C 245.690125 371.308757 249.055214 369.914891 251.535962 367.434143 
C 254.016709 364.953396 255.410575 361.588307 255.410575 358.08 
C 255.410575 354.571693 254.016709 351.206604 251.535962 348.725857 
C 249.055214 346.245109 245.690125 344.851243 242.181818 344.851243 
C 238.673511 344.851243 235.308423 346.245109 232.827675 348.725857 
C 230.346927 351.206604 228.953062 354.571693 228.953062 358.08 
C 228.953062 361.588307 230.346927 364.953396 232.827675 367.434143 
C 235.308423 369.914891 238.673511 371.308757 242.181818 371.308757 
z
" clip-path="url(#p830923281c)" style="fill: #ff0000; fill-opacity: 0.6; stroke: #ffffff; stroke-opacity: 0.6; stroke-width: 2"/>
    <path d="M 242.181818 366.740254 
C 244.478544 366.740254 246.681512 365.827755 248.305543 364.203724 
C 249.929573 362.579694 250.842072 360.376726 250.842072 358.08 
C 250.842072 355.783274 249.929573 353.580306 248.305543 351.956276 
C 246.681512 350.332245 244.478544 349.419746 242.181818 349.419746 
C 239.885092 349.419746 237.682125 350.332245 236.058094 351.956276 
C 234.434063 353.580306 233.521564 355.783274 233.521564 358.08 
C 233.521564 360.376726 234.434063 362.579694 236.058094 364.203724 
C 237.682125 365.827755 239.885092 366.740254 242.181818 366.740254 
z
" clip-path="url(#p830923281c)" style="fill: #800080; fill-opacity: 0.6; stroke: #ffffff; stroke-opacity: 0.6; stroke-width: 2"/>
    <path d="M 242.181818 303.127449 
C 245.42988 303.127449 248.545346 301.83698 250.842072 299.540254 
C 253.138798 297.243528 254.429267 294.128061 254.429267 290.88 
C 254.429267 287.631939 253.138798 284.516472 250.842072 282.219746 
C 248.545346 279.92302 245.42988 278.632551 242.181818 278.632551 
C 238.933757 278.632551 235.81829 279.92302 233.521564 282.219746 
C 231.224838 284.516472 229.934369 287.631939 229.934369 290.88 
C 229.934369 294.128061 231.224838 297.243528 233.521564 299.540254 
C 235.81829 301.83698 238.933757 303.127449 242.181818 303.127449 
z
" clip-path="url(#p830923281c)" style="fill: #0000ff; fill-opacity: 0.6; stroke: #ffffff; stroke-opacity: 0.6; stroke-width: 2"/>
    <path d="M 242.181818 297.951068 
C 244.057087 297.951068 245.855803 297.206015 247.181818 295.88 
C 248.507834 294.553985 249.252886 292.755269 249.252886 290.88 
C 249.252886 289.004731 248.507834 287.206015 247.181818 285.88 
C 245.855803 284.553985 244.057087 283.808932 242.181818 283.808932 
C 240.306549 283.808932 238.507834 284.553985 237.181818 285.88 
C 235.855803 287.206015 235.11075 289.004731 235.11075 290.88 
C 235.11075 292.755269 235.855803 294.553985 237.181818 295.88 
C 238.507834 297.206015 240.306549 297.951068 242.181818 297.951068 
z
" clip-path="url(#p830923281c)" style="fill: #008000; fill-opacity: 0.6; stroke: #ffffff; stroke-opacity: 0.6; stroke-width: 2"/>
    <path d="M 242.181818 299.540254 
C 244.478544 299.540254 246.681512 298.627755 248.305543 297.003724 
C 249.929573 295.379694 250.842072 293.176726 250.842072 290.88 
C 250.842072 288.583274 249.929573 286.380306 248.305543 284.756276 
C 246.681512 283.132245 244.478544 282.219746 242.181818 282.219746 
C 239.885092 282.219746 237.682125 283.132245 236.058094 284.756276 
C 234.434063 286.380306 233.521564 288.583274 233.521564 290.88 
C 233.521564 293.176726 234.434063 295.379694 236.058094 297.003724 
C 237.682125 298.627755 239.885092 299.540254 242.181818 299.540254 
z
" clip-path="url(#p830923281c)" style="fill: #ff0000; fill-opacity: 0.6; stroke: #ffffff; stroke-opacity: 0.6; stroke-width: 2"/>
    <path d="M 242.181818 230.751068 
C 244.057087 230.751068 245.855803 230.006016 247.181818 228.68 
C 248.507834 227.353984 249.252886 225.555269 249.252886 223.68 
C 249.252886 221.804731 248.507834 220.006016 247.181818 218.68 
C 245.855803 217.353984 244.057087 216.608932 242.181818 216.608932 
C 240.306549 216.608932 238.507834 217.353984 237.181818 218.68 
C 235.855803 220.006016 235.11075 221.804731 235.11075 223.68 
C 235.11075 225.555269 235.855803 227.353984 237.181818 228.68 
C 238.507834 230.006016 240.306549 230.751068 242.181818 230.751068 
z
" clip-path="url(#p830923281c)" style="fill: #0000ff; fill-opacity: 0.6; stroke: #ffffff; stroke-opacity: 0.6; stroke-width: 2"/>
    <path d="M 242.181818 230.751068 
C 244.057087 230.751068 245.855803 230.006016 247.181818 228.68 
C 248.507834 227.353984 249.252886 225.555269 249.252886 223.68 
C 249.252886 221.804731 248.507834 220.006016 247.181818 218.68 
C 245.855803 217.353984 244.057087 216.608932 242.181818 216.608932 
C 240.306549 216.608932 238.507834 217.353984 237.181818 218.68 
C 235.855803 220.006016 235.11075 221.804731 235.11075 223.68 
C 235.11075 225.555269 235.855803 227.353984 237.181818 228.68 
C 238.507834 230.006016 240.306549 230.751068 242.181818 230.751068 
z
" clip-path="url(#p830923281c)" style="fill: #008000; fill-opacity: 0.6; stroke: #ffffff; stroke-opacity: 0.6; stroke-width: 2"/>
    <path d="M 242.181818 228.68 
C 243.507834 228.68 244.779718 228.153168 245.717352 227.215534 
C 246.654987 226.277899 247.181818 225.006016 247.181818 223.68 
C 247.181818 222.353984 246.654987 221.082101 245.717352 220.144466 
C 244.779718 219.206832 243.507834 218.68 242.181818 218.68 
C 240.855803 218.68 239.583919 219.206832 238.646284 220.144466 
C 237.70865 221.082101 237.181818 222.353984 237.181818 223.68 
C 237.181818 225.006016 237.70865 226.277899 238.646284 227.215534 
C 239.583919 228.153168 240.855803 228.68 242.181818 228.68 
z
" clip-path="url(#p830923281c)" style="fill: #ff0000; fill-opacity: 0.6; stroke: #ffffff; stroke-opacity: 0.6; stroke-width: 2"/>
    <path d="M 242.181818 228.68 
C 243.507834 228.68 244.779718 228.153168 245.717352 227.215534 
C 246.654987 226.277899 247.181818 225.006016 247.181818 223.68 
C 247.181818 222.353984 246.654987 221.082101 245.717352 220.144466 
C 244.779718 219.206832 243.507834 218.68 242.181818 218.68 
C 240.855803 218.68 239.583919 219.206832 238.646284 220.144466 
C 237.70865 221.082101 237.181818 222.353984 237.181818 223.68 
C 237.181818 225.006016 237.70865 226.277899 238.646284 227.215534 
C 239.583919 228.153168 240.855803 228.68 242.181818 228.68 
z
" clip-path="url(#p830923281c)" style="fill: #800080; fill-opacity: 0.6; stroke: #ffffff; stroke-opacity: 0.6; stroke-width: 2"/>
    <path d="M 242.181818 161.48 
C 243.507834 161.48 244.779718 160.953168 245.717352 160.015534 
C 246.654987 159.077899 247.181818 157.806016 247.181818 156.48 
C 247.181818 155.153985 246.654987 153.882101 245.717352 152.944466 
C 244.779718 152.006832 243.507834 151.48 242.181818 151.48 
C 240.855803 151.48 239.583919 152.006832 238.646284 152.944466 
C 237.70865 153.882101 237.181818 155.153985 237.181818 156.48 
C 237.181818 157.806016 237.70865 159.077899 238.646284 160.015534 
C 239.583919 160.953168 240.855803 161.48 242.181818 161.48 
z
" clip-path="url(#p830923281c)" style="fill: #0000ff; fill-opacity: 0.6; stroke: #ffffff; stroke-opacity: 0.6; stroke-width: 2"/>
    <path d="M 242.181818 161.48 
C 243.507834 161.48 244.779718 160.953168 245.717352 160.015534 
C 246.654987 159.077899 247.181818 157.806016 247.181818 156.48 
C 247.181818 155.153985 246.654987 153.882101 245.717352 152.944466 
C 244.779718 152.006832 243.507834 151.48 242.181818 151.48 
C 240.855803 151.48 239.583919 152.006832 238.646284 152.944466 
C 237.70865 153.882101 237.181818 155.153985 237.181818 156.48 
C 237.181818 157.806016 237.70865 159.077899 238.646284 160.015534 
C 239.583919 160.953168 240.855803 161.48 242.181818 161.48 
z
" clip-path="url(#p830923281c)" style="fill: #008000; fill-opacity: 0.6; stroke: #ffffff; stroke-opacity: 0.6; stroke-width: 2"/>
    <path d="M 242.181818 161.48 
C 243.507834 161.48 244.779718 160.953168 245.717352 160.015534 
C 246.654987 159.077899 247.181818 157.806016 247.181818 156.48 
C 247.181818 155.153985 246.654987 153.882101 245.717352 152.944466 
C 244.779718 152.006832 243.507834 151.48 242.181818 151.48 
C 240.855803 151.48 239.583919 152.006832 238.646284 152.944466 
C 237.70865 153.882101 237.181818 155.153985 237.181818 156.48 
C 237.181818 157.806016 237.70865 159.077899 238.646284 160.015534 
C 239.583919 160.953168 240.855803 161.48 242.181818 161.48 
z
" clip-path="url(#p830923281c)" style="fill: #800080; fill-opacity: 0.6; stroke: #ffffff; stroke-opacity: 0.6; stroke-width: 2"/>
    <path d="M 369 499.551068 
C 370.875269 499.551068 372.673985 498.806016 374 497.48 
C 375.326015 496.153985 376.071068 494.355269 376.071068 492.48 
C 376.071068 490.604731 375.326015 488.806016 374 487.48 
C 372.673985 486.153985 370.875269 485.408932 369 485.408932 
C 367.124731 485.408932 365.326015 486.153985 364 487.48 
C 362.673985 488.806016 361.928932 490.604731 361.928932 492.48 
C 361.928932 494.355269 362.673985 496.153985 364 497.48 
C 365.326015 498.806016 367.124731 499.551068 369 499.551068 
z
" clip-path="url(#p830923281c)" style="fill: #0000ff; fill-opacity: 0.6; stroke: #ffffff; stroke-opacity: 0.6; stroke-width: 2"/>
    <path d="M 369 499.551068 
C 370.875269 499.551068 372.673985 498.806016 374 497.48 
C 375.326015 496.153985 376.071068 494.355269 376.071068 492.48 
C 376.071068 490.604731 375.326015 488.806016 374 487.48 
C 372.673985 486.153985 370.875269 485.408932 369 485.408932 
C 367.124731 485.408932 365.326015 486.153985 364 487.48 
C 362.673985 488.806016 361.928932 490.604731 361.928932 492.48 
C 361.928932 494.355269 362.673985 496.153985 364 497.48 
C 365.326015 498.806016 367.124731 499.551068 369 499.551068 
z
" clip-path="url(#p830923281c)" style="fill: #008000; fill-opacity: 0.6; stroke: #ffffff; stroke-opacity: 0.6; stroke-width: 2"/>
    <path d="M 369 497.48 
C 370.326015 497.48 371.597899 496.953168 372.535534 496.015534 
C 373.473168 495.077899 374 493.806016 374 492.48 
C 374 491.153985 373.473168 489.882101 372.535534 488.944466 
C 371.597899 488.006832 370.326015 487.48 369 487.48 
C 367.673985 487.48 366.402101 488.006832 365.464466 488.944466 
C 364.526832 489.882101 364 491.153985 364 492.48 
C 364 493.806016 364.526832 495.077899 365.464466 496.015534 
C 366.402101 496.953168 367.673985 497.48 369 497.48 
z
" clip-path="url(#p830923281c)" style="fill: #ff0000; fill-opacity: 0.6; stroke: #ffffff; stroke-opacity: 0.6; stroke-width: 2"/>
    <path d="M 369 499.551068 
C 370.875269 499.551068 372.673985 498.806016 374 497.48 
C 375.326015 496.153985 376.071068 494.355269 376.071068 492.48 
C 376.071068 490.604731 375.326015 488.806016 374 487.48 
C 372.673985 486.153985 370.875269 485.408932 369 485.408932 
C 367.124731 485.408932 365.326015 486.153985 364 487.48 
C 362.673985 488.806016 361.928932 490.604731 361.928932 492.48 
C 361.928932 494.355269 362.673985 496.153985 364 497.48 
C 365.326015 498.806016 367.124731 499.551068 369 499.551068 
z
" clip-path="url(#p830923281c)" style="fill: #800080; fill-opacity: 0.6; stroke: #ffffff; stroke-opacity: 0.6; stroke-width: 2"/>
    <path d="M 369 295.88 
C 370.326015 295.88 371.597899 295.353168 372.535534 294.415534 
C 373.473168 293.477899 374 292.206015 374 290.88 
C 374 289.553985 373.473168 288.282101 372.535534 287.344466 
C 371.597899 286.406832 370.326015 285.88 369 285.88 
C 367.673985 285.88 366.402101 286.406832 365.464466 287.344466 
C 364.526832 288.282101 364 289.553985 364 290.88 
C 364 292.206015 364.526832 293.477899 365.464466 294.415534 
C 366.402101 295.353168 367.673985 295.88 369 295.88 
z
" clip-path="url(#p830923281c)" style="fill: #ff0000; fill-opacity: 0.6; stroke: #ffffff; stroke-opacity: 0.6; stroke-width: 2"/>
    <path d="M 369 228.68 
C 370.326015 228.68 371.597899 228.153168 372.535534 227.215534 
C 373.473168 226.277899 374 225.006016 374 223.68 
C 374 222.353984 373.473168 221.082101 372.535534 220.144466 
C 371.597899 219.206832 370.326015 218.68 369 218.68 
C 367.673985 218.68 366.402101 219.206832 365.464466 220.144466 
C 364.526832 221.082101 364 222.353984 364 223.68 
C 364 225.006016 364.526832 226.277899 365.464466 227.215534 
C 366.402101 228.153168 367.673985 228.68 369 228.68 
z
" clip-path="url(#p830923281c)" style="fill: #0000ff; fill-opacity: 0.6; stroke: #ffffff; stroke-opacity: 0.6; stroke-width: 2"/>
    <path d="M 369 230.751068 
C 370.875269 230.751068 372.673985 230.006016 374 228.68 
C 375.326015 227.353984 376.071068 225.555269 376.071068 223.68 
C 376.071068 221.804731 375.326015 220.006016 374 218.68 
C 372.673985 217.353984 370.875269 216.608932 369 216.608932 
C 367.124731 216.608932 365.326015 217.353984 364 218.68 
C 362.673985 220.006016 361.928932 221.804731 361.928932 223.68 
C 361.928932 225.555269 362.673985 227.353984 364 228.68 
C 365.326015 230.006016 367.124731 230.751068 369 230.751068 
z
" clip-path="url(#p830923281c)" style="fill: #008000; fill-opacity: 0.6; stroke: #ffffff; stroke-opacity: 0.6; stroke-width: 2"/>
    <path d="M 369 228.68 
C 370.326015 228.68 371.597899 228.153168 372.535534 227.215534 
C 373.473168 226.277899 374 225.006016 374 223.68 
C 374 222.353984 373.473168 221.082101 372.535534 220.144466 
C 371.597899 219.206832 370.326015 218.68 369 218.68 
C 367.673985 218.68 366.402101 219.206832 365.464466 220.144466 
C 364.526832 221.082101 364 222.353984 364 223.68 
C 364 225.006016 364.526832 226.277899 365.464466 227.215534 
C 366.402101 228.153168 367.673985 228.68 369 228.68 
z
" clip-path="url(#p830923281c)" style="fill: #ff0000; fill-opacity: 0.6; stroke: #ffffff; stroke-opacity: 0.6; stroke-width: 2"/>
    <path d="M 369 230.751068 
C 370.875269 230.751068 372.673985 230.006016 374 228.68 
C 375.326015 227.353984 376.071068 225.555269 376.071068 223.68 
C 376.071068 221.804731 375.326015 220.006016 374 218.68 
C 372.673985 217.353984 370.875269 216.608932 369 216.608932 
C 367.124731 216.608932 365.326015 217.353984 364 218.68 
C 362.673985 220.006016 361.928932 221.804731 361.928932 223.68 
C 361.928932 225.555269 362.673985 227.353984 364 228.68 
C 365.326015 230.006016 367.124731 230.751068 369 230.751068 
z
" clip-path="url(#p830923281c)" style="fill: #800080; fill-opacity: 0.6; stroke: #ffffff; stroke-opacity: 0.6; stroke-width: 2"/>
    <path d="M 369 94.28 
C 370.326015 94.28 371.597899 93.753168 372.535534 92.815534 
C 373.473168 91.877899 374 90.606015 374 89.28 
C 374 87.953984 373.473168 86.682101 372.535534 85.744466 
C 371.597899 84.806832 370.326015 84.28 369 84.28 
C 367.673985 84.28 366.402101 84.806832 365.464466 85.744466 
C 364.526832 86.682101 364 87.953984 364 89.28 
C 364 90.606015 364.526832 91.877899 365.464466 92.815534 
C 366.402101 93.753168 367.673985 94.28 369 94.28 
z
" clip-path="url(#p830923281c)" style="fill: #0000ff; fill-opacity: 0.6; stroke: #ffffff; stroke-opacity: 0.6; stroke-width: 2"/>
    <path d="M 369 94.28 
C 370.326015 94.28 371.597899 93.753168 372.535534 92.815534 
C 373.473168 91.877899 374 90.606015 374 89.28 
C 374 87.953984 373.473168 86.682101 372.535534 85.744466 
C 371.597899 84.806832 370.326015 84.28 369 84.28 
C 367.673985 84.28 366.402101 84.806832 365.464466 85.744466 
C 364.526832 86.682101 364 87.953984 364 89.28 
C 364 90.606015 364.526832 91.877899 365.464466 92.815534 
C 366.402101 93.753168 367.673985 94.28 369 94.28 
z
" clip-path="url(#p830923281c)" style="fill: #ff0000; fill-opacity: 0.6; stroke: #ffffff; stroke-opacity: 0.6; stroke-width: 2"/>
    <path d="M 495.818182 497.48 
C 497.144197 497.48 498.416081 496.953168 499.353716 496.015534 
C 500.29135 495.077899 500.818182 493.806016 500.818182 492.48 
C 500.818182 491.153985 500.29135 489.882101 499.353716 488.944466 
C 498.416081 488.006832 497.144197 487.48 495.818182 487.48 
C 494.492166 487.48 493.220282 488.006832 492.282648 488.944466 
C 491.345013 489.882101 490.818182 491.153985 490.818182 492.48 
C 490.818182 493.806016 491.345013 495.077899 492.282648 496.015534 
C 493.220282 496.953168 494.492166 497.48 495.818182 497.48 
z
" clip-path="url(#p830923281c)" style="fill: #0000ff; fill-opacity: 0.6; stroke: #ffffff; stroke-opacity: 0.6; stroke-width: 2"/>
    <path d="M 495.818182 499.551068 
C 497.693451 499.551068 499.492166 498.806016 500.818182 497.48 
C 502.144197 496.153985 502.88925 494.355269 502.88925 492.48 
C 502.88925 490.604731 502.144197 488.806016 500.818182 487.48 
C 499.492166 486.153985 497.693451 485.408932 495.818182 485.408932 
C 493.942913 485.408932 492.144197 486.153985 490.818182 487.48 
C 489.492166 488.806016 488.747114 490.604731 488.747114 492.48 
C 488.747114 494.355269 489.492166 496.153985 490.818182 497.48 
C 492.144197 498.806016 493.942913 499.551068 495.818182 499.551068 
z
" clip-path="url(#p830923281c)" style="fill: #008000; fill-opacity: 0.6; stroke: #ffffff; stroke-opacity: 0.6; stroke-width: 2"/>
    <path d="M 495.818182 499.551068 
C 497.693451 499.551068 499.492166 498.806016 500.818182 497.48 
C 502.144197 496.153985 502.88925 494.355269 502.88925 492.48 
C 502.88925 490.604731 502.144197 488.806016 500.818182 487.48 
C 499.492166 486.153985 497.693451 485.408932 495.818182 485.408932 
C 493.942913 485.408932 492.144197 486.153985 490.818182 487.48 
C 489.492166 488.806016 488.747114 490.604731 488.747114 492.48 
C 488.747114 494.355269 489.492166 496.153985 490.818182 497.48 
C 492.144197 498.806016 493.942913 499.551068 495.818182 499.551068 
z
" clip-path="url(#p830923281c)" style="fill: #ff0000; fill-opacity: 0.6; stroke: #ffffff; stroke-opacity: 0.6; stroke-width: 2"/>
    <path d="M 495.818182 499.551068 
C 497.693451 499.551068 499.492166 498.806016 500.818182 497.48 
C 502.144197 496.153985 502.88925 494.355269 502.88925 492.48 
C 502.88925 490.604731 502.144197 488.806016 500.818182 487.48 
C 499.492166 486.153985 497.693451 485.408932 495.818182 485.408932 
C 493.942913 485.408932 492.144197 486.153985 490.818182 487.48 
C 489.492166 488.806016 488.747114 490.604731 488.747114 492.48 
C 488.747114 494.355269 489.492166 496.153985 490.818182 497.48 
C 492.144197 498.806016 493.942913 499.551068 495.818182 499.551068 
z
" clip-path="url(#p830923281c)" style="fill: #800080; fill-opacity: 0.6; stroke: #ffffff; stroke-opacity: 0.6; stroke-width: 2"/>
    <path d="M 495.818182 363.08 
C 497.144197 363.08 498.416081 362.553168 499.353716 361.615534 
C 500.29135 360.677899 500.818182 359.406015 500.818182 358.08 
C 500.818182 356.753985 500.29135 355.482101 499.353716 354.544466 
C 498.416081 353.606832 497.144197 353.08 495.818182 353.08 
C 494.492166 353.08 493.220282 353.606832 492.282648 354.544466 
C 491.345013 355.482101 490.818182 356.753985 490.818182 358.08 
C 490.818182 359.406015 491.345013 360.677899 492.282648 361.615534 
C 493.220282 362.553168 494.492166 363.08 495.818182 363.08 
z
" clip-path="url(#p830923281c)" style="fill: #ff0000; fill-opacity: 0.6; stroke: #ffffff; stroke-opacity: 0.6; stroke-width: 2"/>
    <path d="M 495.818182 161.48 
C 497.144197 161.48 498.416081 160.953168 499.353716 160.015534 
C 500.29135 159.077899 500.818182 157.806016 500.818182 156.48 
C 500.818182 155.153985 500.29135 153.882101 499.353716 152.944466 
C 498.416081 152.006832 497.144197 151.48 495.818182 151.48 
C 494.492166 151.48 493.220282 152.006832 492.282648 152.944466 
C 491.345013 153.882101 490.818182 155.153985 490.818182 156.48 
C 490.818182 157.806016 491.345013 159.077899 492.282648 160.015534 
C 493.220282 160.953168 494.492166 161.48 495.818182 161.48 
z
" clip-path="url(#p830923281c)" style="fill: #ff0000; fill-opacity: 0.6; stroke: #ffffff; stroke-opacity: 0.6; stroke-width: 2"/>
    <path d="M 495.818182 161.48 
C 497.144197 161.48 498.416081 160.953168 499.353716 160.015534 
C 500.29135 159.077899 500.818182 157.806016 500.818182 156.48 
C 500.818182 155.153985 500.29135 153.882101 499.353716 152.944466 
C 498.416081 152.006832 497.144197 151.48 495.818182 151.48 
C 494.492166 151.48 493.220282 152.006832 492.282648 152.944466 
C 491.345013 153.882101 490.818182 155.153985 490.818182 156.48 
C 490.818182 157.806016 491.345013 159.077899 492.282648 160.015534 
C 493.220282 160.953168 494.492166 161.48 495.818182 161.48 
z
" clip-path="url(#p830923281c)" style="fill: #800080; fill-opacity: 0.6; stroke: #ffffff; stroke-opacity: 0.6; stroke-width: 2"/>
    <path d="M 622.636364 514.274495 
C 628.416331 514.274495 633.960344 511.978089 638.047399 507.891035 
C 642.134453 503.803981 644.430858 498.259968 644.430858 492.48 
C 644.430858 486.700032 642.134453 481.156019 638.047399 477.068965 
C 633.960344 472.981911 628.416331 470.685505 622.636364 470.685505 
C 616.856396 470.685505 611.312383 472.981911 607.225329 477.068965 
C 603.138274 481.156019 600.841869 486.700032 600.841869 492.48 
C 600.841869 498.259968 603.138274 503.803981 607.225329 507.891035 
C 611.312383 511.978089 616.856396 514.274495 622.636364 514.274495 
z
" clip-path="url(#p830923281c)" style="fill: #0000ff; fill-opacity: 0.6; stroke: #ffffff; stroke-opacity: 0.6; stroke-width: 2"/>
    <path d="M 622.636364 516.974897 
C 629.132486 516.974897 635.363419 514.393961 639.956872 509.800508 
C 644.550324 505.207056 647.131261 498.976123 647.131261 492.48 
C 647.131261 485.983877 644.550324 479.752944 639.956872 475.159492 
C 635.363419 470.566039 629.132486 467.985103 622.636364 467.985103 
C 616.140241 467.985103 609.909308 470.566039 605.315856 475.159492 
C 600.722403 479.752944 598.141466 485.983877 598.141466 492.48 
C 598.141466 498.976123 600.722403 505.207056 605.315856 509.800508 
C 609.909308 514.393961 616.140241 516.974897 622.636364 516.974897 
z
" clip-path="url(#p830923281c)" style="fill: #008000; fill-opacity: 0.6; stroke: #ffffff; stroke-opacity: 0.6; stroke-width: 2"/>
    <path d="M 622.636364 509.800508 
C 627.229816 509.800508 631.635751 507.97551 634.883812 504.727449 
C 638.131874 501.479387 639.956872 497.073452 639.956872 492.48 
C 639.956872 487.886548 638.131874 483.480613 634.883812 480.232551 
C 631.635751 476.98449 627.229816 475.159492 622.636364 475.159492 
C 618.042911 475.159492 613.636976 476.98449 610.388915 480.232551 
C 607.140854 483.480613 605.315856 487.886548 605.315856 492.48 
C 605.315856 497.073452 607.140854 501.479387 610.388915 504.727449 
C 613.636976 507.97551 618.042911 509.800508 622.636364 509.800508 
z
" clip-path="url(#p830923281c)" style="fill: #ff0000; fill-opacity: 0.6; stroke: #ffffff; stroke-opacity: 0.6; stroke-width: 2"/>
    <path d="M 622.636364 507.48 
C 626.61441 507.48 630.430062 505.899505 633.242965 503.086602 
C 636.055869 500.273698 637.636364 496.458047 637.636364 492.48 
C 637.636364 488.501954 636.055869 484.686302 633.242965 481.873398 
C 630.430062 479.060495 626.61441 477.48 622.636364 477.48 
C 618.658317 477.48 614.842666 479.060495 612.029762 481.873398 
C 609.216858 484.686302 607.636364 488.501954 607.636364 492.48 
C 607.636364 496.458047 609.216858 500.273698 612.029762 503.086602 
C 614.842666 505.899505 618.658317 507.48 622.636364 507.48 
z
" clip-path="url(#p830923281c)" style="fill: #800080; fill-opacity: 0.6; stroke: #ffffff; stroke-opacity: 0.6; stroke-width: 2"/>
    <path d="M 622.636364 436.46034 
C 625.601424 436.46034 628.445443 435.282309 630.542058 433.185694 
C 632.638672 431.08908 633.816704 428.245061 633.816704 425.28 
C 633.816704 422.314939 632.638672 419.47092 630.542058 417.374306 
C 628.445443 415.277691 625.601424 414.09966 622.636364 414.09966 
C 619.671303 414.09966 616.827284 415.277691 614.730669 417.374306 
C 612.634055 419.47092 611.456024 422.314939 611.456024 425.28 
C 611.456024 428.245061 612.634055 431.08908 614.730669 433.185694 
C 616.827284 435.282309 619.671303 436.46034 622.636364 436.46034 
z
" clip-path="url(#p830923281c)" style="fill: #0000ff; fill-opacity: 0.6; stroke: #ffffff; stroke-opacity: 0.6; stroke-width: 2"/>
    <path d="M 622.636364 439.422136 
C 626.386902 439.422136 629.984333 437.932031 632.636364 435.28 
C 635.288395 432.627969 636.778499 429.030538 636.778499 425.28 
C 636.778499 421.529462 635.288395 417.932031 632.636364 415.28 
C 629.984333 412.627969 626.386902 411.137864 622.636364 411.137864 
C 618.885825 411.137864 615.288395 412.627969 612.636364 415.28 
C 609.984333 417.932031 608.494228 421.529462 608.494228 425.28 
C 608.494228 429.030538 609.984333 432.627969 612.636364 435.28 
C 615.288395 437.932031 618.885825 439.422136 622.636364 439.422136 
z
" clip-path="url(#p830923281c)" style="fill: #008000; fill-opacity: 0.6; stroke: #ffffff; stroke-opacity: 0.6; stroke-width: 2"/>
    <path d="M 622.636364 435.28 
C 625.288395 435.28 627.832162 434.226337 629.707431 432.351068 
C 631.582701 430.475799 632.636364 427.932031 632.636364 425.28 
C 632.636364 422.627969 631.582701 420.084201 629.707431 418.208932 
C 627.832162 416.333663 625.288395 415.28 622.636364 415.28 
C 619.984333 415.28 617.440565 416.333663 615.565296 418.208932 
C 613.690027 420.084201 612.636364 422.627969 612.636364 425.28 
C 612.636364 427.932031 613.690027 430.475799 615.565296 432.351068 
C 617.440565 434.226337 619.984333 435.28 622.636364 435.28 
z
" clip-path="url(#p830923281c)" style="fill: #ff0000; fill-opacity: 0.6; stroke: #ffffff; stroke-opacity: 0.6; stroke-width: 2"/>
    <path d="M 622.636364 433.940254 
C 624.93309 433.940254 627.136057 433.027755 628.760088 431.403724 
C 630.384119 429.779694 631.296618 427.576726 631.296618 425.28 
C 631.296618 422.983274 630.384119 420.780306 628.760088 419.156276 
C 627.136057 417.532245 624.93309 416.619746 622.636364 416.619746 
C 620.339637 416.619746 618.13667 417.532245 616.512639 419.156276 
C 614.888609 420.780306 613.97611 422.983274 613.97611 425.28 
C 613.97611 427.576726 614.888609 429.779694 616.512639 431.403724 
C 618.13667 433.027755 620.339637 433.940254 622.636364 433.940254 
z
" clip-path="url(#p830923281c)" style="fill: #800080; fill-opacity: 0.6; stroke: #ffffff; stroke-opacity: 0.6; stroke-width: 2"/>
    <path d="M 622.636364 363.08 
C 623.962379 363.08 625.234263 362.553168 626.171898 361.615534 
C 627.109532 360.677899 627.636364 359.406015 627.636364 358.08 
C 627.636364 356.753985 627.109532 355.482101 626.171898 354.544466 
C 625.234263 353.606832 623.962379 353.08 622.636364 353.08 
C 621.310348 353.08 620.038464 353.606832 619.10083 354.544466 
C 618.163195 355.482101 617.636364 356.753985 617.636364 358.08 
C 617.636364 359.406015 618.163195 360.677899 619.10083 361.615534 
C 620.038464 362.553168 621.310348 363.08 622.636364 363.08 
z
" clip-path="url(#p830923281c)" style="fill: #0000ff; fill-opacity: 0.6; stroke: #ffffff; stroke-opacity: 0.6; stroke-width: 2"/>
    <path d="M 622.636364 365.151068 
C 624.511633 365.151068 626.310348 364.406015 627.636364 363.08 
C 628.962379 361.753985 629.707431 359.955269 629.707431 358.08 
C 629.707431 356.204731 628.962379 354.406015 627.636364 353.08 
C 626.310348 351.753985 624.511633 351.008932 622.636364 351.008932 
C 620.761095 351.008932 618.962379 351.753985 617.636364 353.08 
C 616.310348 354.406015 615.565296 356.204731 615.565296 358.08 
C 615.565296 359.955269 616.310348 361.753985 617.636364 363.08 
C 618.962379 364.406015 620.761095 365.151068 622.636364 365.151068 
z
" clip-path="url(#p830923281c)" style="fill: #008000; fill-opacity: 0.6; stroke: #ffffff; stroke-opacity: 0.6; stroke-width: 2"/>
    <path d="M 622.636364 363.08 
C 623.962379 363.08 625.234263 362.553168 626.171898 361.615534 
C 627.109532 360.677899 627.636364 359.406015 627.636364 358.08 
C 627.636364 356.753985 627.109532 355.482101 626.171898 354.544466 
C 625.234263 353.606832 623.962379 353.08 622.636364 353.08 
C 621.310348 353.08 620.038464 353.606832 619.10083 354.544466 
C 618.163195 355.482101 617.636364 356.753985 617.636364 358.08 
C 617.636364 359.406015 618.163195 360.677899 619.10083 361.615534 
C 620.038464 362.553168 621.310348 363.08 622.636364 363.08 
z
" clip-path="url(#p830923281c)" style="fill: #800080; fill-opacity: 0.6; stroke: #ffffff; stroke-opacity: 0.6; stroke-width: 2"/>
    <path d="M 622.636364 295.88 
C 623.962379 295.88 625.234263 295.353168 626.171898 294.415534 
C 627.109532 293.477899 627.636364 292.206015 627.636364 290.88 
C 627.636364 289.553985 627.109532 288.282101 626.171898 287.344466 
C 625.234263 286.406832 623.962379 285.88 622.636364 285.88 
C 621.310348 285.88 620.038464 286.406832 619.10083 287.344466 
C 618.163195 288.282101 617.636364 289.553985 617.636364 290.88 
C 617.636364 292.206015 618.163195 293.477899 619.10083 294.415534 
C 620.038464 295.353168 621.310348 295.88 622.636364 295.88 
z
" clip-path="url(#p830923281c)" style="fill: #0000ff; fill-opacity: 0.6; stroke: #ffffff; stroke-opacity: 0.6; stroke-width: 2"/>
    <path d="M 622.636364 299.540254 
C 624.93309 299.540254 627.136057 298.627755 628.760088 297.003724 
C 630.384119 295.379694 631.296618 293.176726 631.296618 290.88 
C 631.296618 288.583274 630.384119 286.380306 628.760088 284.756276 
C 627.136057 283.132245 624.93309 282.219746 622.636364 282.219746 
C 620.339637 282.219746 618.13667 283.132245 616.512639 284.756276 
C 614.888609 286.380306 613.97611 288.583274 613.97611 290.88 
C 613.97611 293.176726 614.888609 295.379694 616.512639 297.003724 
C 618.13667 298.627755 620.339637 299.540254 622.636364 299.540254 
z
" clip-path="url(#p830923281c)" style="fill: #008000; fill-opacity: 0.6; stroke: #ffffff; stroke-opacity: 0.6; stroke-width: 2"/>
    <path d="M 622.636364 299.540254 
C 624.93309 299.540254 627.136057 298.627755 628.760088 297.003724 
C 630.384119 295.379694 631.296618 293.176726 631.296618 290.88 
C 631.296618 288.583274 630.384119 286.380306 628.760088 284.756276 
C 627.136057 283.132245 624.93309 282.219746 622.636364 282.219746 
C 620.339637 282.219746 618.13667 283.132245 616.512639 284.756276 
C 614.888609 286.380306 613.97611 288.583274 613.97611 290.88 
C 613.97611 293.176726 614.888609 295.379694 616.512639 297.003724 
C 618.13667 298.627755 620.339637 299.540254 622.636364 299.540254 
z
" clip-path="url(#p830923281c)" style="fill: #ff0000; fill-opacity: 0.6; stroke: #ffffff; stroke-opacity: 0.6; stroke-width: 2"/>
    <path d="M 622.636364 297.951068 
C 624.511633 297.951068 626.310348 297.206015 627.636364 295.88 
C 628.962379 294.553985 629.707431 292.755269 629.707431 290.88 
C 629.707431 289.004731 628.962379 287.206015 627.636364 285.88 
C 626.310348 284.553985 624.511633 283.808932 622.636364 283.808932 
C 620.761095 283.808932 618.962379 284.553985 617.636364 285.88 
C 616.310348 287.206015 615.565296 289.004731 615.565296 290.88 
C 615.565296 292.755269 616.310348 294.553985 617.636364 295.88 
C 618.962379 297.206015 620.761095 297.951068 622.636364 297.951068 
z
" clip-path="url(#p830923281c)" style="fill: #800080; fill-opacity: 0.6; stroke: #ffffff; stroke-opacity: 0.6; stroke-width: 2"/>
    <path d="M 622.636364 240.263124 
C 627.03426 240.263124 631.252621 238.515821 634.362403 235.406039 
C 637.472185 232.296257 639.219488 228.077896 639.219488 223.68 
C 639.219488 219.282104 637.472185 215.063743 634.362403 211.953961 
C 631.252621 208.844179 627.03426 207.096876 622.636364 207.096876 
C 618.238468 207.096876 614.020106 208.844179 610.910324 211.953961 
C 607.800542 215.063743 606.05324 219.282104 606.05324 223.68 
C 606.05324 228.077896 607.800542 232.296257 610.910324 235.406039 
C 614.020106 238.515821 618.238468 240.263124 622.636364 240.263124 
z
" clip-path="url(#p830923281c)" style="fill: #0000ff; fill-opacity: 0.6; stroke: #ffffff; stroke-opacity: 0.6; stroke-width: 2"/>
    <path d="M 622.636364 240.263124 
C 627.03426 240.263124 631.252621 238.515821 634.362403 235.406039 
C 637.472185 232.296257 639.219488 228.077896 639.219488 223.68 
C 639.219488 219.282104 637.472185 215.063743 634.362403 211.953961 
C 631.252621 208.844179 627.03426 207.096876 622.636364 207.096876 
C 618.238468 207.096876 614.020106 208.844179 610.910324 211.953961 
C 607.800542 215.063743 606.05324 219.282104 606.05324 223.68 
C 606.05324 228.077896 607.800542 232.296257 610.910324 235.406039 
C 614.020106 238.515821 618.238468 240.263124 622.636364 240.263124 
z
" clip-path="url(#p830923281c)" style="fill: #008000; fill-opacity: 0.6; stroke: #ffffff; stroke-opacity: 0.6; stroke-width: 2"/>
    <path d="M 622.636364 232.340254 
C 624.93309 232.340254 627.136057 231.427755 628.760088 229.803724 
C 630.384119 228.179694 631.296618 225.976726 631.296618 223.68 
C 631.296618 221.383274 630.384119 219.180306 628.760088 217.556276 
C 627.136057 215.932245 624.93309 215.019746 622.636364 215.019746 
C 620.339637 215.019746 618.13667 215.932245 616.512639 217.556276 
C 614.888609 219.180306 613.97611 221.383274 613.97611 223.68 
C 613.97611 225.976726 614.888609 228.179694 616.512639 229.803724 
C 618.13667 231.427755 620.339637 232.340254 622.636364 232.340254 
z
" clip-path="url(#p830923281c)" style="fill: #ff0000; fill-opacity: 0.6; stroke: #ffffff; stroke-opacity: 0.6; stroke-width: 2"/>
    <path d="M 622.636364 232.340254 
C 624.93309 232.340254 627.136057 231.427755 628.760088 229.803724 
C 630.384119 228.179694 631.296618 225.976726 631.296618 223.68 
C 631.296618 221.383274 630.384119 219.180306 628.760088 217.556276 
C 627.136057 215.932245 624.93309 215.019746 622.636364 215.019746 
C 620.339637 215.019746 618.13667 215.932245 616.512639 217.556276 
C 614.888609 219.180306 613.97611 221.383274 613.97611 223.68 
C 613.97611 225.976726 614.888609 228.179694 616.512639 229.803724 
C 618.13667 231.427755 620.339637 232.340254 622.636364 232.340254 
z
" clip-path="url(#p830923281c)" style="fill: #800080; fill-opacity: 0.6; stroke: #ffffff; stroke-opacity: 0.6; stroke-width: 2"/>
   </g>
   <g id="matplotlib.axis_1">
    <g id="xtick_1">
     <g id="line2d_1">
      <path d="M 115.363636 512.64 
L 115.363636 69.12 
" clip-path="url(#p830923281c)" style="fill: none; stroke: #b0b0b0; stroke-width: 0.8; stroke-linecap: square"/>
     </g>
     <g id="line2d_2">
      <defs>
       <path id="mcc4e65785d" d="M 0 0 
L 0 3.5 
" style="stroke: #000000; stroke-width: 0.8"/>
      </defs>
      <g>
       <use xlink:href="#mcc4e65785d" x="115.363636" y="512.64" style="stroke: #000000; stroke-width: 0.8"/>
      </g>
     </g>
     <g id="text_1">
      <!-- Application -->
      <g transform="translate(87.426136 527.238438) scale(0.1 -0.1)">
       <defs>
        <path id="DejaVuSans-41" d="M 2188 4044 
L 1331 1722 
L 3047 1722 
L 2188 4044 
z
M 1831 4666 
L 2547 4666 
L 4325 0 
L 3669 0 
L 3244 1197 
L 1141 1197 
L 716 0 
L 50 0 
L 1831 4666 
z
" transform="scale(0.015625)"/>
        <path id="DejaVuSans-70" d="M 1159 525 
L 1159 -1331 
L 581 -1331 
L 581 3500 
L 1159 3500 
L 1159 2969 
Q 1341 3281 1617 3432 
Q 1894 3584 2278 3584 
Q 2916 3584 3314 3078 
Q 3713 2572 3713 1747 
Q 3713 922 3314 415 
Q 2916 -91 2278 -91 
Q 1894 -91 1617 61 
Q 1341 213 1159 525 
z
M 3116 1747 
Q 3116 2381 2855 2742 
Q 2594 3103 2138 3103 
Q 1681 3103 1420 2742 
Q 1159 2381 1159 1747 
Q 1159 1113 1420 752 
Q 1681 391 2138 391 
Q 2594 391 2855 752 
Q 3116 1113 3116 1747 
z
" transform="scale(0.015625)"/>
        <path id="DejaVuSans-6c" d="M 603 4863 
L 1178 4863 
L 1178 0 
L 603 0 
L 603 4863 
z
" transform="scale(0.015625)"/>
        <path id="DejaVuSans-69" d="M 603 3500 
L 1178 3500 
L 1178 0 
L 603 0 
L 603 3500 
z
M 603 4863 
L 1178 4863 
L 1178 4134 
L 603 4134 
L 603 4863 
z
" transform="scale(0.015625)"/>
        <path id="DejaVuSans-63" d="M 3122 3366 
L 3122 2828 
Q 2878 2963 2633 3030 
Q 2388 3097 2138 3097 
Q 1578 3097 1268 2742 
Q 959 2388 959 1747 
Q 959 1106 1268 751 
Q 1578 397 2138 397 
Q 2388 397 2633 464 
Q 2878 531 3122 666 
L 3122 134 
Q 2881 22 2623 -34 
Q 2366 -91 2075 -91 
Q 1284 -91 818 406 
Q 353 903 353 1747 
Q 353 2603 823 3093 
Q 1294 3584 2113 3584 
Q 2378 3584 2631 3529 
Q 2884 3475 3122 3366 
z
" transform="scale(0.015625)"/>
        <path id="DejaVuSans-61" d="M 2194 1759 
Q 1497 1759 1228 1600 
Q 959 1441 959 1056 
Q 959 750 1161 570 
Q 1363 391 1709 391 
Q 2188 391 2477 730 
Q 2766 1069 2766 1631 
L 2766 1759 
L 2194 1759 
z
M 3341 1997 
L 3341 0 
L 2766 0 
L 2766 531 
Q 2569 213 2275 61 
Q 1981 -91 1556 -91 
Q 1019 -91 701 211 
Q 384 513 384 1019 
Q 384 1609 779 1909 
Q 1175 2209 1959 2209 
L 2766 2209 
L 2766 2266 
Q 2766 2663 2505 2880 
Q 2244 3097 1772 3097 
Q 1472 3097 1187 3025 
Q 903 2953 641 2809 
L 641 3341 
Q 956 3463 1253 3523 
Q 1550 3584 1831 3584 
Q 2591 3584 2966 3190 
Q 3341 2797 3341 1997 
z
" transform="scale(0.015625)"/>
        <path id="DejaVuSans-74" d="M 1172 4494 
L 1172 3500 
L 2356 3500 
L 2356 3053 
L 1172 3053 
L 1172 1153 
Q 1172 725 1289 603 
Q 1406 481 1766 481 
L 2356 481 
L 2356 0 
L 1766 0 
Q 1100 0 847 248 
Q 594 497 594 1153 
L 594 3053 
L 172 3053 
L 172 3500 
L 594 3500 
L 594 4494 
L 1172 4494 
z
" transform="scale(0.015625)"/>
        <path id="DejaVuSans-6f" d="M 1959 3097 
Q 1497 3097 1228 2736 
Q 959 2375 959 1747 
Q 959 1119 1226 758 
Q 1494 397 1959 397 
Q 2419 397 2687 759 
Q 2956 1122 2956 1747 
Q 2956 2369 2687 2733 
Q 2419 3097 1959 3097 
z
M 1959 3584 
Q 2709 3584 3137 3096 
Q 3566 2609 3566 1747 
Q 3566 888 3137 398 
Q 2709 -91 1959 -91 
Q 1206 -91 779 398 
Q 353 888 353 1747 
Q 353 2609 779 3096 
Q 1206 3584 1959 3584 
z
" transform="scale(0.015625)"/>
        <path id="DejaVuSans-6e" d="M 3513 2113 
L 3513 0 
L 2938 0 
L 2938 2094 
Q 2938 2591 2744 2837 
Q 2550 3084 2163 3084 
Q 1697 3084 1428 2787 
Q 1159 2491 1159 1978 
L 1159 0 
L 581 0 
L 581 3500 
L 1159 3500 
L 1159 2956 
Q 1366 3272 1645 3428 
Q 1925 3584 2291 3584 
Q 2894 3584 3203 3211 
Q 3513 2838 3513 2113 
z
" transform="scale(0.015625)"/>
       </defs>
       <use xlink:href="#DejaVuSans-41"/>
       <use xlink:href="#DejaVuSans-70" x="68.408203"/>
       <use xlink:href="#DejaVuSans-70" x="131.884766"/>
       <use xlink:href="#DejaVuSans-6c" x="195.361328"/>
       <use xlink:href="#DejaVuSans-69" x="223.144531"/>
       <use xlink:href="#DejaVuSans-63" x="250.927734"/>
       <use xlink:href="#DejaVuSans-61" x="305.908203"/>
       <use xlink:href="#DejaVuSans-74" x="367.1875"/>
       <use xlink:href="#DejaVuSans-69" x="406.396484"/>
       <use xlink:href="#DejaVuSans-6f" x="434.179688"/>
       <use xlink:href="#DejaVuSans-6e" x="495.361328"/>
      </g>
     </g>
    </g>
    <g id="xtick_2">
     <g id="line2d_3">
      <path d="M 242.181818 512.64 
L 242.181818 69.12 
" clip-path="url(#p830923281c)" style="fill: none; stroke: #b0b0b0; stroke-width: 0.8; stroke-linecap: square"/>
     </g>
     <g id="line2d_4">
      <g>
       <use xlink:href="#mcc4e65785d" x="242.181818" y="512.64" style="stroke: #000000; stroke-width: 0.8"/>
      </g>
     </g>
     <g id="text_2">
      <!-- Evaluation -->
      <g transform="translate(215.799787 527.238438) scale(0.1 -0.1)">
       <defs>
        <path id="DejaVuSans-45" d="M 628 4666 
L 3578 4666 
L 3578 4134 
L 1259 4134 
L 1259 2753 
L 3481 2753 
L 3481 2222 
L 1259 2222 
L 1259 531 
L 3634 531 
L 3634 0 
L 628 0 
L 628 4666 
z
" transform="scale(0.015625)"/>
        <path id="DejaVuSans-76" d="M 191 3500 
L 800 3500 
L 1894 563 
L 2988 3500 
L 3597 3500 
L 2284 0 
L 1503 0 
L 191 3500 
z
" transform="scale(0.015625)"/>
        <path id="DejaVuSans-75" d="M 544 1381 
L 544 3500 
L 1119 3500 
L 1119 1403 
Q 1119 906 1312 657 
Q 1506 409 1894 409 
Q 2359 409 2629 706 
Q 2900 1003 2900 1516 
L 2900 3500 
L 3475 3500 
L 3475 0 
L 2900 0 
L 2900 538 
Q 2691 219 2414 64 
Q 2138 -91 1772 -91 
Q 1169 -91 856 284 
Q 544 659 544 1381 
z
M 1991 3584 
L 1991 3584 
z
" transform="scale(0.015625)"/>
       </defs>
       <use xlink:href="#DejaVuSans-45"/>
       <use xlink:href="#DejaVuSans-76" x="63.183594"/>
       <use xlink:href="#DejaVuSans-61" x="122.363281"/>
       <use xlink:href="#DejaVuSans-6c" x="183.642578"/>
       <use xlink:href="#DejaVuSans-75" x="211.425781"/>
       <use xlink:href="#DejaVuSans-61" x="274.804688"/>
       <use xlink:href="#DejaVuSans-74" x="336.083984"/>
       <use xlink:href="#DejaVuSans-69" x="375.292969"/>
       <use xlink:href="#DejaVuSans-6f" x="403.076172"/>
       <use xlink:href="#DejaVuSans-6e" x="464.257812"/>
      </g>
     </g>
    </g>
    <g id="xtick_3">
     <g id="line2d_5">
      <path d="M 369 512.64 
L 369 69.12 
" clip-path="url(#p830923281c)" style="fill: none; stroke: #b0b0b0; stroke-width: 0.8; stroke-linecap: square"/>
     </g>
     <g id="line2d_6">
      <g>
       <use xlink:href="#mcc4e65785d" x="369" y="512.64" style="stroke: #000000; stroke-width: 0.8"/>
      </g>
     </g>
     <g id="text_3">
      <!-- Model -->
      <g transform="translate(353.986719 527.238438) scale(0.1 -0.1)">
       <defs>
        <path id="DejaVuSans-4d" d="M 628 4666 
L 1569 4666 
L 2759 1491 
L 3956 4666 
L 4897 4666 
L 4897 0 
L 4281 0 
L 4281 4097 
L 3078 897 
L 2444 897 
L 1241 4097 
L 1241 0 
L 628 0 
L 628 4666 
z
" transform="scale(0.015625)"/>
        <path id="DejaVuSans-64" d="M 2906 2969 
L 2906 4863 
L 3481 4863 
L 3481 0 
L 2906 0 
L 2906 525 
Q 2725 213 2448 61 
Q 2172 -91 1784 -91 
Q 1150 -91 751 415 
Q 353 922 353 1747 
Q 353 2572 751 3078 
Q 1150 3584 1784 3584 
Q 2172 3584 2448 3432 
Q 2725 3281 2906 2969 
z
M 947 1747 
Q 947 1113 1208 752 
Q 1469 391 1925 391 
Q 2381 391 2643 752 
Q 2906 1113 2906 1747 
Q 2906 2381 2643 2742 
Q 2381 3103 1925 3103 
Q 1469 3103 1208 2742 
Q 947 2381 947 1747 
z
" transform="scale(0.015625)"/>
        <path id="DejaVuSans-65" d="M 3597 1894 
L 3597 1613 
L 953 1613 
Q 991 1019 1311 708 
Q 1631 397 2203 397 
Q 2534 397 2845 478 
Q 3156 559 3463 722 
L 3463 178 
Q 3153 47 2828 -22 
Q 2503 -91 2169 -91 
Q 1331 -91 842 396 
Q 353 884 353 1716 
Q 353 2575 817 3079 
Q 1281 3584 2069 3584 
Q 2775 3584 3186 3129 
Q 3597 2675 3597 1894 
z
M 3022 2063 
Q 3016 2534 2758 2815 
Q 2500 3097 2075 3097 
Q 1594 3097 1305 2825 
Q 1016 2553 972 2059 
L 3022 2063 
z
" transform="scale(0.015625)"/>
       </defs>
       <use xlink:href="#DejaVuSans-4d"/>
       <use xlink:href="#DejaVuSans-6f" x="86.279297"/>
       <use xlink:href="#DejaVuSans-64" x="147.460938"/>
       <use xlink:href="#DejaVuSans-65" x="210.9375"/>
       <use xlink:href="#DejaVuSans-6c" x="272.460938"/>
      </g>
     </g>
    </g>
    <g id="xtick_4">
     <g id="line2d_7">
      <path d="M 495.818182 512.64 
L 495.818182 69.12 
" clip-path="url(#p830923281c)" style="fill: none; stroke: #b0b0b0; stroke-width: 0.8; stroke-linecap: square"/>
     </g>
     <g id="line2d_8">
      <g>
       <use xlink:href="#mcc4e65785d" x="495.818182" y="512.64" style="stroke: #000000; stroke-width: 0.8"/>
      </g>
     </g>
     <g id="text_4">
      <!-- System -->
      <g transform="translate(477.172869 527.238438) scale(0.1 -0.1)">
       <defs>
        <path id="DejaVuSans-53" d="M 3425 4513 
L 3425 3897 
Q 3066 4069 2747 4153 
Q 2428 4238 2131 4238 
Q 1616 4238 1336 4038 
Q 1056 3838 1056 3469 
Q 1056 3159 1242 3001 
Q 1428 2844 1947 2747 
L 2328 2669 
Q 3034 2534 3370 2195 
Q 3706 1856 3706 1288 
Q 3706 609 3251 259 
Q 2797 -91 1919 -91 
Q 1588 -91 1214 -16 
Q 841 59 441 206 
L 441 856 
Q 825 641 1194 531 
Q 1563 422 1919 422 
Q 2459 422 2753 634 
Q 3047 847 3047 1241 
Q 3047 1584 2836 1778 
Q 2625 1972 2144 2069 
L 1759 2144 
Q 1053 2284 737 2584 
Q 422 2884 422 3419 
Q 422 4038 858 4394 
Q 1294 4750 2059 4750 
Q 2388 4750 2728 4690 
Q 3069 4631 3425 4513 
z
" transform="scale(0.015625)"/>
        <path id="DejaVuSans-79" d="M 2059 -325 
Q 1816 -950 1584 -1140 
Q 1353 -1331 966 -1331 
L 506 -1331 
L 506 -850 
L 844 -850 
Q 1081 -850 1212 -737 
Q 1344 -625 1503 -206 
L 1606 56 
L 191 3500 
L 800 3500 
L 1894 763 
L 2988 3500 
L 3597 3500 
L 2059 -325 
z
" transform="scale(0.015625)"/>
        <path id="DejaVuSans-73" d="M 2834 3397 
L 2834 2853 
Q 2591 2978 2328 3040 
Q 2066 3103 1784 3103 
Q 1356 3103 1142 2972 
Q 928 2841 928 2578 
Q 928 2378 1081 2264 
Q 1234 2150 1697 2047 
L 1894 2003 
Q 2506 1872 2764 1633 
Q 3022 1394 3022 966 
Q 3022 478 2636 193 
Q 2250 -91 1575 -91 
Q 1294 -91 989 -36 
Q 684 19 347 128 
L 347 722 
Q 666 556 975 473 
Q 1284 391 1588 391 
Q 1994 391 2212 530 
Q 2431 669 2431 922 
Q 2431 1156 2273 1281 
Q 2116 1406 1581 1522 
L 1381 1569 
Q 847 1681 609 1914 
Q 372 2147 372 2553 
Q 372 3047 722 3315 
Q 1072 3584 1716 3584 
Q 2034 3584 2315 3537 
Q 2597 3491 2834 3397 
z
" transform="scale(0.015625)"/>
        <path id="DejaVuSans-6d" d="M 3328 2828 
Q 3544 3216 3844 3400 
Q 4144 3584 4550 3584 
Q 5097 3584 5394 3201 
Q 5691 2819 5691 2113 
L 5691 0 
L 5113 0 
L 5113 2094 
Q 5113 2597 4934 2840 
Q 4756 3084 4391 3084 
Q 3944 3084 3684 2787 
Q 3425 2491 3425 1978 
L 3425 0 
L 2847 0 
L 2847 2094 
Q 2847 2600 2669 2842 
Q 2491 3084 2119 3084 
Q 1678 3084 1418 2786 
Q 1159 2488 1159 1978 
L 1159 0 
L 581 0 
L 581 3500 
L 1159 3500 
L 1159 2956 
Q 1356 3278 1631 3431 
Q 1906 3584 2284 3584 
Q 2666 3584 2933 3390 
Q 3200 3197 3328 2828 
z
" transform="scale(0.015625)"/>
       </defs>
       <use xlink:href="#DejaVuSans-53"/>
       <use xlink:href="#DejaVuSans-79" x="63.476562"/>
       <use xlink:href="#DejaVuSans-73" x="122.65625"/>
       <use xlink:href="#DejaVuSans-74" x="174.755859"/>
       <use xlink:href="#DejaVuSans-65" x="213.964844"/>
       <use xlink:href="#DejaVuSans-6d" x="275.488281"/>
      </g>
     </g>
    </g>
    <g id="xtick_5">
     <g id="line2d_9">
      <path d="M 622.636364 512.64 
L 622.636364 69.12 
" clip-path="url(#p830923281c)" style="fill: none; stroke: #b0b0b0; stroke-width: 0.8; stroke-linecap: square"/>
     </g>
     <g id="line2d_10">
      <g>
       <use xlink:href="#mcc4e65785d" x="622.636364" y="512.64" style="stroke: #000000; stroke-width: 0.8"/>
      </g>
     </g>
     <g id="text_5">
      <!-- Technique -->
      <g transform="translate(597.460582 527.238438) scale(0.1 -0.1)">
       <defs>
        <path id="DejaVuSans-54" d="M -19 4666 
L 3928 4666 
L 3928 4134 
L 2272 4134 
L 2272 0 
L 1638 0 
L 1638 4134 
L -19 4134 
L -19 4666 
z
" transform="scale(0.015625)"/>
        <path id="DejaVuSans-68" d="M 3513 2113 
L 3513 0 
L 2938 0 
L 2938 2094 
Q 2938 2591 2744 2837 
Q 2550 3084 2163 3084 
Q 1697 3084 1428 2787 
Q 1159 2491 1159 1978 
L 1159 0 
L 581 0 
L 581 4863 
L 1159 4863 
L 1159 2956 
Q 1366 3272 1645 3428 
Q 1925 3584 2291 3584 
Q 2894 3584 3203 3211 
Q 3513 2838 3513 2113 
z
" transform="scale(0.015625)"/>
        <path id="DejaVuSans-71" d="M 947 1747 
Q 947 1113 1208 752 
Q 1469 391 1925 391 
Q 2381 391 2643 752 
Q 2906 1113 2906 1747 
Q 2906 2381 2643 2742 
Q 2381 3103 1925 3103 
Q 1469 3103 1208 2742 
Q 947 2381 947 1747 
z
M 2906 525 
Q 2725 213 2448 61 
Q 2172 -91 1784 -91 
Q 1150 -91 751 415 
Q 353 922 353 1747 
Q 353 2572 751 3078 
Q 1150 3584 1784 3584 
Q 2172 3584 2448 3432 
Q 2725 3281 2906 2969 
L 2906 3500 
L 3481 3500 
L 3481 -1331 
L 2906 -1331 
L 2906 525 
z
" transform="scale(0.015625)"/>
       </defs>
       <use xlink:href="#DejaVuSans-54"/>
       <use xlink:href="#DejaVuSans-65" x="44.083984"/>
       <use xlink:href="#DejaVuSans-63" x="105.607422"/>
       <use xlink:href="#DejaVuSans-68" x="160.587891"/>
       <use xlink:href="#DejaVuSans-6e" x="223.966797"/>
       <use xlink:href="#DejaVuSans-69" x="287.345703"/>
       <use xlink:href="#DejaVuSans-71" x="315.128906"/>
       <use xlink:href="#DejaVuSans-75" x="378.605469"/>
       <use xlink:href="#DejaVuSans-65" x="441.984375"/>
      </g>
     </g>
    </g>
    <g id="text_6">
     <!-- papertype -->
     <g transform="translate(343.285156 540.916563) scale(0.1 -0.1)">
      <defs>
       <path id="DejaVuSans-72" d="M 2631 2963 
Q 2534 3019 2420 3045 
Q 2306 3072 2169 3072 
Q 1681 3072 1420 2755 
Q 1159 2438 1159 1844 
L 1159 0 
L 581 0 
L 581 3500 
L 1159 3500 
L 1159 2956 
Q 1341 3275 1631 3429 
Q 1922 3584 2338 3584 
Q 2397 3584 2469 3576 
Q 2541 3569 2628 3553 
L 2631 2963 
z
" transform="scale(0.015625)"/>
      </defs>
      <use xlink:href="#DejaVuSans-70"/>
      <use xlink:href="#DejaVuSans-61" x="63.476562"/>
      <use xlink:href="#DejaVuSans-70" x="124.755859"/>
      <use xlink:href="#DejaVuSans-65" x="188.232422"/>
      <use xlink:href="#DejaVuSans-72" x="249.755859"/>
      <use xlink:href="#DejaVuSans-74" x="290.869141"/>
      <use xlink:href="#DejaVuSans-79" x="330.078125"/>
      <use xlink:href="#DejaVuSans-70" x="389.257812"/>
      <use xlink:href="#DejaVuSans-65" x="452.734375"/>
     </g>
    </g>
   </g>
   <g id="matplotlib.axis_2">
    <g id="ytick_1">
     <g id="line2d_11">
      <path d="M 90 492.48 
L 648 492.48 
" clip-path="url(#p830923281c)" style="fill: none; stroke: #b0b0b0; stroke-width: 0.8; stroke-linecap: square"/>
     </g>
     <g id="line2d_12">
      <defs>
       <path id="mca7dc77e87" d="M 0 0 
L -3.5 0 
" style="stroke: #000000; stroke-width: 0.8"/>
      </defs>
      <g>
       <use xlink:href="#mca7dc77e87" x="90" y="492.48" style="stroke: #000000; stroke-width: 0.8"/>
      </g>
     </g>
     <g id="text_7">
      <!-- Benchmarking -->
      <g transform="translate(10.578125 496.279219) scale(0.1 -0.1)">
       <defs>
        <path id="DejaVuSans-42" d="M 1259 2228 
L 1259 519 
L 2272 519 
Q 2781 519 3026 730 
Q 3272 941 3272 1375 
Q 3272 1813 3026 2020 
Q 2781 2228 2272 2228 
L 1259 2228 
z
M 1259 4147 
L 1259 2741 
L 2194 2741 
Q 2656 2741 2882 2914 
Q 3109 3088 3109 3444 
Q 3109 3797 2882 3972 
Q 2656 4147 2194 4147 
L 1259 4147 
z
M 628 4666 
L 2241 4666 
Q 2963 4666 3353 4366 
Q 3744 4066 3744 3513 
Q 3744 3084 3544 2831 
Q 3344 2578 2956 2516 
Q 3422 2416 3680 2098 
Q 3938 1781 3938 1306 
Q 3938 681 3513 340 
Q 3088 0 2303 0 
L 628 0 
L 628 4666 
z
" transform="scale(0.015625)"/>
        <path id="DejaVuSans-6b" d="M 581 4863 
L 1159 4863 
L 1159 1991 
L 2875 3500 
L 3609 3500 
L 1753 1863 
L 3688 0 
L 2938 0 
L 1159 1709 
L 1159 0 
L 581 0 
L 581 4863 
z
" transform="scale(0.015625)"/>
        <path id="DejaVuSans-67" d="M 2906 1791 
Q 2906 2416 2648 2759 
Q 2391 3103 1925 3103 
Q 1463 3103 1205 2759 
Q 947 2416 947 1791 
Q 947 1169 1205 825 
Q 1463 481 1925 481 
Q 2391 481 2648 825 
Q 2906 1169 2906 1791 
z
M 3481 434 
Q 3481 -459 3084 -895 
Q 2688 -1331 1869 -1331 
Q 1566 -1331 1297 -1286 
Q 1028 -1241 775 -1147 
L 775 -588 
Q 1028 -725 1275 -790 
Q 1522 -856 1778 -856 
Q 2344 -856 2625 -561 
Q 2906 -266 2906 331 
L 2906 616 
Q 2728 306 2450 153 
Q 2172 0 1784 0 
Q 1141 0 747 490 
Q 353 981 353 1791 
Q 353 2603 747 3093 
Q 1141 3584 1784 3584 
Q 2172 3584 2450 3431 
Q 2728 3278 2906 2969 
L 2906 3500 
L 3481 3500 
L 3481 434 
z
" transform="scale(0.015625)"/>
       </defs>
       <use xlink:href="#DejaVuSans-42"/>
       <use xlink:href="#DejaVuSans-65" x="68.603516"/>
       <use xlink:href="#DejaVuSans-6e" x="130.126953"/>
       <use xlink:href="#DejaVuSans-63" x="193.505859"/>
       <use xlink:href="#DejaVuSans-68" x="248.486328"/>
       <use xlink:href="#DejaVuSans-6d" x="311.865234"/>
       <use xlink:href="#DejaVuSans-61" x="409.277344"/>
       <use xlink:href="#DejaVuSans-72" x="470.556641"/>
       <use xlink:href="#DejaVuSans-6b" x="511.669922"/>
       <use xlink:href="#DejaVuSans-69" x="569.580078"/>
       <use xlink:href="#DejaVuSans-6e" x="597.363281"/>
       <use xlink:href="#DejaVuSans-67" x="660.742188"/>
      </g>
     </g>
    </g>
    <g id="ytick_2">
     <g id="line2d_13">
      <path d="M 90 425.28 
L 648 425.28 
" clip-path="url(#p830923281c)" style="fill: none; stroke: #b0b0b0; stroke-width: 0.8; stroke-linecap: square"/>
     </g>
     <g id="line2d_14">
      <g>
       <use xlink:href="#mca7dc77e87" x="90" y="425.28" style="stroke: #000000; stroke-width: 0.8"/>
      </g>
     </g>
     <g id="text_8">
      <!-- Human Experimentation -->
      <g transform="translate(-39.304688 429.079219) scale(0.1 -0.1)">
       <defs>
        <path id="DejaVuSans-48" d="M 628 4666 
L 1259 4666 
L 1259 2753 
L 3553 2753 
L 3553 4666 
L 4184 4666 
L 4184 0 
L 3553 0 
L 3553 2222 
L 1259 2222 
L 1259 0 
L 628 0 
L 628 4666 
z
" transform="scale(0.015625)"/>
        <path id="DejaVuSans-20" transform="scale(0.015625)"/>
        <path id="DejaVuSans-78" d="M 3513 3500 
L 2247 1797 
L 3578 0 
L 2900 0 
L 1881 1375 
L 863 0 
L 184 0 
L 1544 1831 
L 300 3500 
L 978 3500 
L 1906 2253 
L 2834 3500 
L 3513 3500 
z
" transform="scale(0.015625)"/>
       </defs>
       <use xlink:href="#DejaVuSans-48"/>
       <use xlink:href="#DejaVuSans-75" x="75.195312"/>
       <use xlink:href="#DejaVuSans-6d" x="138.574219"/>
       <use xlink:href="#DejaVuSans-61" x="235.986328"/>
       <use xlink:href="#DejaVuSans-6e" x="297.265625"/>
       <use xlink:href="#DejaVuSans-20" x="360.644531"/>
       <use xlink:href="#DejaVuSans-45" x="392.431641"/>
       <use xlink:href="#DejaVuSans-78" x="455.615234"/>
       <use xlink:href="#DejaVuSans-70" x="514.794922"/>
       <use xlink:href="#DejaVuSans-65" x="578.271484"/>
       <use xlink:href="#DejaVuSans-72" x="639.794922"/>
       <use xlink:href="#DejaVuSans-69" x="680.908203"/>
       <use xlink:href="#DejaVuSans-6d" x="708.691406"/>
       <use xlink:href="#DejaVuSans-65" x="806.103516"/>
       <use xlink:href="#DejaVuSans-6e" x="867.626953"/>
       <use xlink:href="#DejaVuSans-74" x="931.005859"/>
       <use xlink:href="#DejaVuSans-61" x="970.214844"/>
       <use xlink:href="#DejaVuSans-74" x="1031.494141"/>
       <use xlink:href="#DejaVuSans-69" x="1070.703125"/>
       <use xlink:href="#DejaVuSans-6f" x="1098.486328"/>
       <use xlink:href="#DejaVuSans-6e" x="1159.667969"/>
      </g>
     </g>
    </g>
    <g id="ytick_3">
     <g id="line2d_15">
      <path d="M 90 358.08 
L 648 358.08 
" clip-path="url(#p830923281c)" style="fill: none; stroke: #b0b0b0; stroke-width: 0.8; stroke-linecap: square"/>
     </g>
     <g id="line2d_16">
      <g>
       <use xlink:href="#mca7dc77e87" x="90" y="358.08" style="stroke: #000000; stroke-width: 0.8"/>
      </g>
     </g>
     <g id="text_9">
      <!-- Interview -->
      <g transform="translate(36.5 361.879219) scale(0.1 -0.1)">
       <defs>
        <path id="DejaVuSans-49" d="M 628 4666 
L 1259 4666 
L 1259 0 
L 628 0 
L 628 4666 
z
" transform="scale(0.015625)"/>
        <path id="DejaVuSans-77" d="M 269 3500 
L 844 3500 
L 1563 769 
L 2278 3500 
L 2956 3500 
L 3675 769 
L 4391 3500 
L 4966 3500 
L 4050 0 
L 3372 0 
L 2619 2869 
L 1863 0 
L 1184 0 
L 269 3500 
z
" transform="scale(0.015625)"/>
       </defs>
       <use xlink:href="#DejaVuSans-49"/>
       <use xlink:href="#DejaVuSans-6e" x="29.492188"/>
       <use xlink:href="#DejaVuSans-74" x="92.871094"/>
       <use xlink:href="#DejaVuSans-65" x="132.080078"/>
       <use xlink:href="#DejaVuSans-72" x="193.603516"/>
       <use xlink:href="#DejaVuSans-76" x="234.716797"/>
       <use xlink:href="#DejaVuSans-69" x="293.896484"/>
       <use xlink:href="#DejaVuSans-65" x="321.679688"/>
       <use xlink:href="#DejaVuSans-77" x="383.203125"/>
      </g>
     </g>
    </g>
    <g id="ytick_4">
     <g id="line2d_17">
      <path d="M 90 290.88 
L 648 290.88 
" clip-path="url(#p830923281c)" style="fill: none; stroke: #b0b0b0; stroke-width: 0.8; stroke-linecap: square"/>
     </g>
     <g id="line2d_18">
      <g>
       <use xlink:href="#mca7dc77e87" x="90" y="290.88" style="stroke: #000000; stroke-width: 0.8"/>
      </g>
     </g>
     <g id="text_10">
      <!-- Questionnaire -->
      <g transform="translate(12.990625 294.679219) scale(0.1 -0.1)">
       <defs>
        <path id="DejaVuSans-51" d="M 2522 4238 
Q 1834 4238 1429 3725 
Q 1025 3213 1025 2328 
Q 1025 1447 1429 934 
Q 1834 422 2522 422 
Q 3209 422 3611 934 
Q 4013 1447 4013 2328 
Q 4013 3213 3611 3725 
Q 3209 4238 2522 4238 
z
M 3406 84 
L 4238 -825 
L 3475 -825 
L 2784 -78 
Q 2681 -84 2626 -87 
Q 2572 -91 2522 -91 
Q 1538 -91 948 567 
Q 359 1225 359 2328 
Q 359 3434 948 4092 
Q 1538 4750 2522 4750 
Q 3503 4750 4090 4092 
Q 4678 3434 4678 2328 
Q 4678 1516 4351 937 
Q 4025 359 3406 84 
z
" transform="scale(0.015625)"/>
       </defs>
       <use xlink:href="#DejaVuSans-51"/>
       <use xlink:href="#DejaVuSans-75" x="78.710938"/>
       <use xlink:href="#DejaVuSans-65" x="142.089844"/>
       <use xlink:href="#DejaVuSans-73" x="203.613281"/>
       <use xlink:href="#DejaVuSans-74" x="255.712891"/>
       <use xlink:href="#DejaVuSans-69" x="294.921875"/>
       <use xlink:href="#DejaVuSans-6f" x="322.705078"/>
       <use xlink:href="#DejaVuSans-6e" x="383.886719"/>
       <use xlink:href="#DejaVuSans-6e" x="447.265625"/>
       <use xlink:href="#DejaVuSans-61" x="510.644531"/>
       <use xlink:href="#DejaVuSans-69" x="571.923828"/>
       <use xlink:href="#DejaVuSans-72" x="599.707031"/>
       <use xlink:href="#DejaVuSans-65" x="638.570312"/>
      </g>
     </g>
    </g>
    <g id="ytick_5">
     <g id="line2d_19">
      <path d="M 90 223.68 
L 648 223.68 
" clip-path="url(#p830923281c)" style="fill: none; stroke: #b0b0b0; stroke-width: 0.8; stroke-linecap: square"/>
     </g>
     <g id="line2d_20">
      <g>
       <use xlink:href="#mca7dc77e87" x="90" y="223.68" style="stroke: #000000; stroke-width: 0.8"/>
      </g>
     </g>
     <g id="text_11">
      <!-- Data Science -->
      <g transform="translate(17.178125 227.479219) scale(0.1 -0.1)">
       <defs>
        <path id="DejaVuSans-44" d="M 1259 4147 
L 1259 519 
L 2022 519 
Q 2988 519 3436 956 
Q 3884 1394 3884 2338 
Q 3884 3275 3436 3711 
Q 2988 4147 2022 4147 
L 1259 4147 
z
M 628 4666 
L 1925 4666 
Q 3281 4666 3915 4102 
Q 4550 3538 4550 2338 
Q 4550 1131 3912 565 
Q 3275 0 1925 0 
L 628 0 
L 628 4666 
z
" transform="scale(0.015625)"/>
       </defs>
       <use xlink:href="#DejaVuSans-44"/>
       <use xlink:href="#DejaVuSans-61" x="77.001953"/>
       <use xlink:href="#DejaVuSans-74" x="138.28125"/>
       <use xlink:href="#DejaVuSans-61" x="177.490234"/>
       <use xlink:href="#DejaVuSans-20" x="238.769531"/>
       <use xlink:href="#DejaVuSans-53" x="270.556641"/>
       <use xlink:href="#DejaVuSans-63" x="334.033203"/>
       <use xlink:href="#DejaVuSans-69" x="389.013672"/>
       <use xlink:href="#DejaVuSans-65" x="416.796875"/>
       <use xlink:href="#DejaVuSans-6e" x="478.320312"/>
       <use xlink:href="#DejaVuSans-63" x="541.699219"/>
       <use xlink:href="#DejaVuSans-65" x="596.679688"/>
      </g>
     </g>
    </g>
    <g id="ytick_6">
     <g id="line2d_21">
      <path d="M 90 156.48 
L 648 156.48 
" clip-path="url(#p830923281c)" style="fill: none; stroke: #b0b0b0; stroke-width: 0.8; stroke-linecap: square"/>
     </g>
     <g id="line2d_22">
      <g>
       <use xlink:href="#mca7dc77e87" x="90" y="156.48" style="stroke: #000000; stroke-width: 0.8"/>
      </g>
     </g>
     <g id="text_12">
      <!-- Engineering Research -->
      <g transform="translate(-26.04375 160.279219) scale(0.1 -0.1)">
       <defs>
        <path id="DejaVuSans-52" d="M 2841 2188 
Q 3044 2119 3236 1894 
Q 3428 1669 3622 1275 
L 4263 0 
L 3584 0 
L 2988 1197 
Q 2756 1666 2539 1819 
Q 2322 1972 1947 1972 
L 1259 1972 
L 1259 0 
L 628 0 
L 628 4666 
L 2053 4666 
Q 2853 4666 3247 4331 
Q 3641 3997 3641 3322 
Q 3641 2881 3436 2590 
Q 3231 2300 2841 2188 
z
M 1259 4147 
L 1259 2491 
L 2053 2491 
Q 2509 2491 2742 2702 
Q 2975 2913 2975 3322 
Q 2975 3731 2742 3939 
Q 2509 4147 2053 4147 
L 1259 4147 
z
" transform="scale(0.015625)"/>
       </defs>
       <use xlink:href="#DejaVuSans-45"/>
       <use xlink:href="#DejaVuSans-6e" x="63.183594"/>
       <use xlink:href="#DejaVuSans-67" x="126.5625"/>
       <use xlink:href="#DejaVuSans-69" x="190.039062"/>
       <use xlink:href="#DejaVuSans-6e" x="217.822266"/>
       <use xlink:href="#DejaVuSans-65" x="281.201172"/>
       <use xlink:href="#DejaVuSans-65" x="342.724609"/>
       <use xlink:href="#DejaVuSans-72" x="404.248047"/>
       <use xlink:href="#DejaVuSans-69" x="445.361328"/>
       <use xlink:href="#DejaVuSans-6e" x="473.144531"/>
       <use xlink:href="#DejaVuSans-67" x="536.523438"/>
       <use xlink:href="#DejaVuSans-20" x="600"/>
       <use xlink:href="#DejaVuSans-52" x="631.787109"/>
       <use xlink:href="#DejaVuSans-65" x="696.769531"/>
       <use xlink:href="#DejaVuSans-73" x="758.292969"/>
       <use xlink:href="#DejaVuSans-65" x="810.392578"/>
       <use xlink:href="#DejaVuSans-61" x="871.916016"/>
       <use xlink:href="#DejaVuSans-72" x="933.195312"/>
       <use xlink:href="#DejaVuSans-63" x="972.058594"/>
       <use xlink:href="#DejaVuSans-68" x="1027.039062"/>
      </g>
     </g>
    </g>
    <g id="ytick_7">
     <g id="line2d_23">
      <path d="M 90 89.28 
L 648 89.28 
" clip-path="url(#p830923281c)" style="fill: none; stroke: #b0b0b0; stroke-width: 0.8; stroke-linecap: square"/>
     </g>
     <g id="line2d_24">
      <g>
       <use xlink:href="#mca7dc77e87" x="90" y="89.28" style="stroke: #000000; stroke-width: 0.8"/>
      </g>
     </g>
     <g id="text_13">
      <!-- Meta Science -->
      <g transform="translate(16.225 93.079219) scale(0.1 -0.1)">
       <use xlink:href="#DejaVuSans-4d"/>
       <use xlink:href="#DejaVuSans-65" x="86.279297"/>
       <use xlink:href="#DejaVuSans-74" x="147.802734"/>
       <use xlink:href="#DejaVuSans-61" x="187.011719"/>
       <use xlink:href="#DejaVuSans-20" x="248.291016"/>
       <use xlink:href="#DejaVuSans-53" x="280.078125"/>
       <use xlink:href="#DejaVuSans-63" x="343.554688"/>
       <use xlink:href="#DejaVuSans-69" x="398.535156"/>
       <use xlink:href="#DejaVuSans-65" x="426.318359"/>
       <use xlink:href="#DejaVuSans-6e" x="487.841797"/>
       <use xlink:href="#DejaVuSans-63" x="551.220703"/>
       <use xlink:href="#DejaVuSans-65" x="606.201172"/>
      </g>
     </g>
    </g>
    <g id="text_14">
     <!-- strategy -->
     <g transform="translate(-45.384375 311.734688) rotate(-90) scale(0.1 -0.1)">
      <use xlink:href="#DejaVuSans-73"/>
      <use xlink:href="#DejaVuSans-74" x="52.099609"/>
      <use xlink:href="#DejaVuSans-72" x="91.308594"/>
      <use xlink:href="#DejaVuSans-61" x="132.421875"/>
      <use xlink:href="#DejaVuSans-74" x="193.701172"/>
      <use xlink:href="#DejaVuSans-65" x="232.910156"/>
      <use xlink:href="#DejaVuSans-67" x="294.433594"/>
      <use xlink:href="#DejaVuSans-79" x="357.910156"/>
     </g>
    </g>
   </g>
   <g id="patch_3">
    <path d="M 90 512.64 
L 90 69.12 
" style="fill: none; stroke: #000000; stroke-width: 0.8; stroke-linejoin: miter; stroke-linecap: square"/>
   </g>
   <g id="patch_4">
    <path d="M 648 512.64 
L 648 69.12 
" style="fill: none; stroke: #000000; stroke-width: 0.8; stroke-linejoin: miter; stroke-linecap: square"/>
   </g>
   <g id="patch_5">
    <path d="M 90 512.64 
L 648 512.64 
" style="fill: none; stroke: #000000; stroke-width: 0.8; stroke-linejoin: miter; stroke-linecap: square"/>
   </g>
   <g id="patch_6">
    <path d="M 90 69.12 
L 648 69.12 
" style="fill: none; stroke: #000000; stroke-width: 0.8; stroke-linejoin: miter; stroke-linecap: square"/>
   </g>
   <g id="text_15">
    <!-- Bubble Chart: papertype vs strategy by metaverse -->
    <g transform="translate(216.140625 63.12) scale(0.12 -0.12)">
     <defs>
      <path id="DejaVuSans-62" d="M 3116 1747 
Q 3116 2381 2855 2742 
Q 2594 3103 2138 3103 
Q 1681 3103 1420 2742 
Q 1159 2381 1159 1747 
Q 1159 1113 1420 752 
Q 1681 391 2138 391 
Q 2594 391 2855 752 
Q 3116 1113 3116 1747 
z
M 1159 2969 
Q 1341 3281 1617 3432 
Q 1894 3584 2278 3584 
Q 2916 3584 3314 3078 
Q 3713 2572 3713 1747 
Q 3713 922 3314 415 
Q 2916 -91 2278 -91 
Q 1894 -91 1617 61 
Q 1341 213 1159 525 
L 1159 0 
L 581 0 
L 581 4863 
L 1159 4863 
L 1159 2969 
z
" transform="scale(0.015625)"/>
      <path id="DejaVuSans-43" d="M 4122 4306 
L 4122 3641 
Q 3803 3938 3442 4084 
Q 3081 4231 2675 4231 
Q 1875 4231 1450 3742 
Q 1025 3253 1025 2328 
Q 1025 1406 1450 917 
Q 1875 428 2675 428 
Q 3081 428 3442 575 
Q 3803 722 4122 1019 
L 4122 359 
Q 3791 134 3420 21 
Q 3050 -91 2638 -91 
Q 1578 -91 968 557 
Q 359 1206 359 2328 
Q 359 3453 968 4101 
Q 1578 4750 2638 4750 
Q 3056 4750 3426 4639 
Q 3797 4528 4122 4306 
z
" transform="scale(0.015625)"/>
      <path id="DejaVuSans-3a" d="M 750 794 
L 1409 794 
L 1409 0 
L 750 0 
L 750 794 
z
M 750 3309 
L 1409 3309 
L 1409 2516 
L 750 2516 
L 750 3309 
z
" transform="scale(0.015625)"/>
     </defs>
     <use xlink:href="#DejaVuSans-42"/>
     <use xlink:href="#DejaVuSans-75" x="68.603516"/>
     <use xlink:href="#DejaVuSans-62" x="131.982422"/>
     <use xlink:href="#DejaVuSans-62" x="195.458984"/>
     <use xlink:href="#DejaVuSans-6c" x="258.935547"/>
     <use xlink:href="#DejaVuSans-65" x="286.71875"/>
     <use xlink:href="#DejaVuSans-20" x="348.242188"/>
     <use xlink:href="#DejaVuSans-43" x="380.029297"/>
     <use xlink:href="#DejaVuSans-68" x="449.853516"/>
     <use xlink:href="#DejaVuSans-61" x="513.232422"/>
     <use xlink:href="#DejaVuSans-72" x="574.511719"/>
     <use xlink:href="#DejaVuSans-74" x="615.625"/>
     <use xlink:href="#DejaVuSans-3a" x="654.833984"/>
     <use xlink:href="#DejaVuSans-20" x="688.525391"/>
     <use xlink:href="#DejaVuSans-70" x="720.3125"/>
     <use xlink:href="#DejaVuSans-61" x="783.789062"/>
     <use xlink:href="#DejaVuSans-70" x="845.068359"/>
     <use xlink:href="#DejaVuSans-65" x="908.544922"/>
     <use xlink:href="#DejaVuSans-72" x="970.068359"/>
     <use xlink:href="#DejaVuSans-74" x="1011.181641"/>
     <use xlink:href="#DejaVuSans-79" x="1050.390625"/>
     <use xlink:href="#DejaVuSans-70" x="1109.570312"/>
     <use xlink:href="#DejaVuSans-65" x="1173.046875"/>
     <use xlink:href="#DejaVuSans-20" x="1234.570312"/>
     <use xlink:href="#DejaVuSans-76" x="1266.357422"/>
     <use xlink:href="#DejaVuSans-73" x="1325.537109"/>
     <use xlink:href="#DejaVuSans-20" x="1377.636719"/>
     <use xlink:href="#DejaVuSans-73" x="1409.423828"/>
     <use xlink:href="#DejaVuSans-74" x="1461.523438"/>
     <use xlink:href="#DejaVuSans-72" x="1500.732422"/>
     <use xlink:href="#DejaVuSans-61" x="1541.845703"/>
     <use xlink:href="#DejaVuSans-74" x="1603.125"/>
     <use xlink:href="#DejaVuSans-65" x="1642.333984"/>
     <use xlink:href="#DejaVuSans-67" x="1703.857422"/>
     <use xlink:href="#DejaVuSans-79" x="1767.333984"/>
     <use xlink:href="#DejaVuSans-20" x="1826.513672"/>
     <use xlink:href="#DejaVuSans-62" x="1858.300781"/>
     <use xlink:href="#DejaVuSans-79" x="1921.777344"/>
     <use xlink:href="#DejaVuSans-20" x="1980.957031"/>
     <use xlink:href="#DejaVuSans-6d" x="2012.744141"/>
     <use xlink:href="#DejaVuSans-65" x="2110.15625"/>
     <use xlink:href="#DejaVuSans-74" x="2171.679688"/>
     <use xlink:href="#DejaVuSans-61" x="2210.888672"/>
     <use xlink:href="#DejaVuSans-76" x="2272.167969"/>
     <use xlink:href="#DejaVuSans-65" x="2331.347656"/>
     <use xlink:href="#DejaVuSans-72" x="2392.871094"/>
     <use xlink:href="#DejaVuSans-73" x="2433.984375"/>
     <use xlink:href="#DejaVuSans-65" x="2486.083984"/>
    </g>
   </g>
   <g id="legend_1">
    <g id="patch_7">
     <path d="M 513.467188 150.510625 
L 641 150.510625 
Q 643 150.510625 643 148.510625 
L 643 76.12 
Q 643 74.12 641 74.12 
L 513.467188 74.12 
Q 511.467188 74.12 511.467188 76.12 
L 511.467188 148.510625 
Q 511.467188 150.510625 513.467188 150.510625 
z
" style="fill: #ffffff; opacity: 0.8; stroke: #cccccc; stroke-linejoin: miter"/>
    </g>
    <g id="text_16">
     <!-- Metaverse -->
     <g transform="translate(551.046094 85.718437) scale(0.1 -0.1)">
      <use xlink:href="#DejaVuSans-4d"/>
      <use xlink:href="#DejaVuSans-65" x="86.279297"/>
      <use xlink:href="#DejaVuSans-74" x="147.802734"/>
      <use xlink:href="#DejaVuSans-61" x="187.011719"/>
      <use xlink:href="#DejaVuSans-76" x="248.291016"/>
      <use xlink:href="#DejaVuSans-65" x="307.470703"/>
      <use xlink:href="#DejaVuSans-72" x="368.994141"/>
      <use xlink:href="#DejaVuSans-73" x="410.107422"/>
      <use xlink:href="#DejaVuSans-65" x="462.207031"/>
     </g>
    </g>
    <g id="line2d_25">
     <path d="M 515.467188 96.896563 
L 525.467188 96.896563 
L 535.467188 96.896563 
" style="fill: none; stroke: #ffffff; stroke-width: 1.5; stroke-linecap: square"/>
     <defs>
      <path id="m44fdecc299" d="M 0 5 
C 1.326016 5 2.597899 4.473168 3.535534 3.535534 
C 4.473168 2.597899 5 1.326016 5 0 
C 5 -1.326016 4.473168 -2.597899 3.535534 -3.535534 
C 2.597899 -4.473168 1.326016 -5 0 -5 
C -1.326016 -5 -2.597899 -4.473168 -3.535534 -3.535534 
C -4.473168 -2.597899 -5 -1.326016 -5 0 
C -5 1.326016 -4.473168 2.597899 -3.535534 3.535534 
C -2.597899 4.473168 -1.326016 5 0 5 
z
" style="stroke: #ffffff"/>
     </defs>
     <g>
      <use xlink:href="#m44fdecc299" x="525.467188" y="96.896563" style="fill: #0000ff; stroke: #ffffff"/>
     </g>
    </g>
    <g id="text_17">
     <!-- Virtual World -->
     <g transform="translate(543.467188 100.396563) scale(0.1 -0.1)">
      <defs>
       <path id="DejaVuSans-56" d="M 1831 0 
L 50 4666 
L 709 4666 
L 2188 738 
L 3669 4666 
L 4325 4666 
L 2547 0 
L 1831 0 
z
" transform="scale(0.015625)"/>
       <path id="DejaVuSans-57" d="M 213 4666 
L 850 4666 
L 1831 722 
L 2809 4666 
L 3519 4666 
L 4500 722 
L 5478 4666 
L 6119 4666 
L 4947 0 
L 4153 0 
L 3169 4050 
L 2175 0 
L 1381 0 
L 213 4666 
z
" transform="scale(0.015625)"/>
      </defs>
      <use xlink:href="#DejaVuSans-56"/>
      <use xlink:href="#DejaVuSans-69" x="66.158203"/>
      <use xlink:href="#DejaVuSans-72" x="93.941406"/>
      <use xlink:href="#DejaVuSans-74" x="135.054688"/>
      <use xlink:href="#DejaVuSans-75" x="174.263672"/>
      <use xlink:href="#DejaVuSans-61" x="237.642578"/>
      <use xlink:href="#DejaVuSans-6c" x="298.921875"/>
      <use xlink:href="#DejaVuSans-20" x="326.705078"/>
      <use xlink:href="#DejaVuSans-57" x="358.492188"/>
      <use xlink:href="#DejaVuSans-6f" x="451.494141"/>
      <use xlink:href="#DejaVuSans-72" x="512.675781"/>
      <use xlink:href="#DejaVuSans-6c" x="553.789062"/>
      <use xlink:href="#DejaVuSans-64" x="581.572266"/>
     </g>
    </g>
    <g id="line2d_26">
     <path d="M 515.467188 111.574688 
L 525.467188 111.574688 
L 535.467188 111.574688 
" style="fill: none; stroke: #ffffff; stroke-width: 1.5; stroke-linecap: square"/>
     <defs>
      <path id="mdaa2cfb3b8" d="M 0 5 
C 1.326016 5 2.597899 4.473168 3.535534 3.535534 
C 4.473168 2.597899 5 1.326016 5 0 
C 5 -1.326016 4.473168 -2.597899 3.535534 -3.535534 
C 2.597899 -4.473168 1.326016 -5 0 -5 
C -1.326016 -5 -2.597899 -4.473168 -3.535534 -3.535534 
C -4.473168 -2.597899 -5 -1.326016 -5 0 
C -5 1.326016 -4.473168 2.597899 -3.535534 3.535534 
C -2.597899 4.473168 -1.326016 5 0 5 
z
" style="stroke: #ffffff"/>
     </defs>
     <g>
      <use xlink:href="#mdaa2cfb3b8" x="525.467188" y="111.574688" style="fill: #008000; stroke: #ffffff"/>
     </g>
    </g>
    <g id="text_18">
     <!-- Lifelogging -->
     <g transform="translate(543.467188 115.074688) scale(0.1 -0.1)">
      <defs>
       <path id="DejaVuSans-4c" d="M 628 4666 
L 1259 4666 
L 1259 531 
L 3531 531 
L 3531 0 
L 628 0 
L 628 4666 
z
" transform="scale(0.015625)"/>
       <path id="DejaVuSans-66" d="M 2375 4863 
L 2375 4384 
L 1825 4384 
Q 1516 4384 1395 4259 
Q 1275 4134 1275 3809 
L 1275 3500 
L 2222 3500 
L 2222 3053 
L 1275 3053 
L 1275 0 
L 697 0 
L 697 3053 
L 147 3053 
L 147 3500 
L 697 3500 
L 697 3744 
Q 697 4328 969 4595 
Q 1241 4863 1831 4863 
L 2375 4863 
z
" transform="scale(0.015625)"/>
      </defs>
      <use xlink:href="#DejaVuSans-4c"/>
      <use xlink:href="#DejaVuSans-69" x="55.712891"/>
      <use xlink:href="#DejaVuSans-66" x="83.496094"/>
      <use xlink:href="#DejaVuSans-65" x="118.701172"/>
      <use xlink:href="#DejaVuSans-6c" x="180.224609"/>
      <use xlink:href="#DejaVuSans-6f" x="208.007812"/>
      <use xlink:href="#DejaVuSans-67" x="269.189453"/>
      <use xlink:href="#DejaVuSans-67" x="332.666016"/>
      <use xlink:href="#DejaVuSans-69" x="396.142578"/>
      <use xlink:href="#DejaVuSans-6e" x="423.925781"/>
      <use xlink:href="#DejaVuSans-67" x="487.304688"/>
     </g>
    </g>
    <g id="line2d_27">
     <path d="M 515.467188 126.252813 
L 525.467188 126.252813 
L 535.467188 126.252813 
" style="fill: none; stroke: #ffffff; stroke-width: 1.5; stroke-linecap: square"/>
     <defs>
      <path id="mda763a352e" d="M 0 5 
C 1.326016 5 2.597899 4.473168 3.535534 3.535534 
C 4.473168 2.597899 5 1.326016 5 0 
C 5 -1.326016 4.473168 -2.597899 3.535534 -3.535534 
C 2.597899 -4.473168 1.326016 -5 0 -5 
C -1.326016 -5 -2.597899 -4.473168 -3.535534 -3.535534 
C -4.473168 -2.597899 -5 -1.326016 -5 0 
C -5 1.326016 -4.473168 2.597899 -3.535534 3.535534 
C -2.597899 4.473168 -1.326016 5 0 5 
z
" style="stroke: #ffffff"/>
     </defs>
     <g>
      <use xlink:href="#mda763a352e" x="525.467188" y="126.252813" style="fill: #ff0000; stroke: #ffffff"/>
     </g>
    </g>
    <g id="text_19">
     <!-- Augmented Reality -->
     <g transform="translate(543.467188 129.752813) scale(0.1 -0.1)">
      <use xlink:href="#DejaVuSans-41"/>
      <use xlink:href="#DejaVuSans-75" x="68.408203"/>
      <use xlink:href="#DejaVuSans-67" x="131.787109"/>
      <use xlink:href="#DejaVuSans-6d" x="195.263672"/>
      <use xlink:href="#DejaVuSans-65" x="292.675781"/>
      <use xlink:href="#DejaVuSans-6e" x="354.199219"/>
      <use xlink:href="#DejaVuSans-74" x="417.578125"/>
      <use xlink:href="#DejaVuSans-65" x="456.787109"/>
      <use xlink:href="#DejaVuSans-64" x="518.310547"/>
      <use xlink:href="#DejaVuSans-20" x="581.787109"/>
      <use xlink:href="#DejaVuSans-52" x="613.574219"/>
      <use xlink:href="#DejaVuSans-65" x="678.556641"/>
      <use xlink:href="#DejaVuSans-61" x="740.080078"/>
      <use xlink:href="#DejaVuSans-6c" x="801.359375"/>
      <use xlink:href="#DejaVuSans-69" x="829.142578"/>
      <use xlink:href="#DejaVuSans-74" x="856.925781"/>
      <use xlink:href="#DejaVuSans-79" x="896.134766"/>
     </g>
    </g>
    <g id="line2d_28">
     <path d="M 515.467188 140.930938 
L 525.467188 140.930938 
L 535.467188 140.930938 
" style="fill: none; stroke: #ffffff; stroke-width: 1.5; stroke-linecap: square"/>
     <defs>
      <path id="m4128bf4fe5" d="M 0 5 
C 1.326016 5 2.597899 4.473168 3.535534 3.535534 
C 4.473168 2.597899 5 1.326016 5 0 
C 5 -1.326016 4.473168 -2.597899 3.535534 -3.535534 
C 2.597899 -4.473168 1.326016 -5 0 -5 
C -1.326016 -5 -2.597899 -4.473168 -3.535534 -3.535534 
C -4.473168 -2.597899 -5 -1.326016 -5 0 
C -5 1.326016 -4.473168 2.597899 -3.535534 3.535534 
C -2.597899 4.473168 -1.326016 5 0 5 
z
" style="stroke: #ffffff"/>
     </defs>
     <g>
      <use xlink:href="#m4128bf4fe5" x="525.467188" y="140.930938" style="fill: #800080; stroke: #ffffff"/>
     </g>
    </g>
    <g id="text_20">
     <!-- Mirror World -->
     <g transform="translate(543.467188 144.430938) scale(0.1 -0.1)">
      <use xlink:href="#DejaVuSans-4d"/>
      <use xlink:href="#DejaVuSans-69" x="86.279297"/>
      <use xlink:href="#DejaVuSans-72" x="114.0625"/>
      <use xlink:href="#DejaVuSans-72" x="153.425781"/>
      <use xlink:href="#DejaVuSans-6f" x="192.289062"/>
      <use xlink:href="#DejaVuSans-72" x="253.470703"/>
      <use xlink:href="#DejaVuSans-20" x="294.583984"/>
      <use xlink:href="#DejaVuSans-57" x="326.371094"/>
      <use xlink:href="#DejaVuSans-6f" x="419.373047"/>
      <use xlink:href="#DejaVuSans-72" x="480.554688"/>
      <use xlink:href="#DejaVuSans-6c" x="521.667969"/>
      <use xlink:href="#DejaVuSans-64" x="549.451172"/>
     </g>
    </g>
   </g>
  </g>
 </g>
 <defs>
  <clipPath id="p830923281c">
   <rect x="90" y="69.12" width="558" height="443.52"/>
  </clipPath>
 </defs>
</svg>
