<svg height="800" width="1000" xmlns="http://www.w3.org/2000/svg">
<title>Your Diagram Title</title>
<!-- Generated with SankeyMATIC: 9/8/2024, 2:34:23 PM -->
<g transform="translate(125.83364,18)">
<g id="sankey_flows">
<path id="flow103" d="M587.96362 529.17972C677.95756 529.17972 677.95756 533.62564 767.95149 533.62564" fill="none" stroke-width="84.62577" stroke="#17becf" opacity="0.45"><title>Lifelogging → Technique: 24</title></path>
<path id="flow42" d="M203.98787 403.773C293.98181 403.773 293.98181 283.05943 383.97575 283.05943" fill="none" stroke-width="70.52147" stroke="#2ca02c" opacity="0.45"><title>Augmented Reality_1 → Other Venues: 20</title></path>
<path id="flow63" d="M395.97575 138.49041C485.96968 138.49041 485.96968 105.07734 575.96362 105.07734" fill="none" stroke-width="70.52147" stroke="#1f77b4" opacity="0.45"><title>Other Venues → Virtual World: 20</title></path>
<path id="flow65" d="M395.97575 209.01189C485.96968 209.01189 485.96968 297.73513 575.96362 297.73513" fill="none" stroke-width="70.52147" stroke="#2ca02c" opacity="0.45"><title>Other Venues → Augmented Reality: 20</title></path>
<path id="flow90" d="M587.96362 80.39483C677.95756 80.39483 677.95756 77.7886 767.95149 77.7886" fill="none" stroke-width="70.52147" stroke="#e377c2" opacity="0.45"><title>Virtual World → Evaluation: 20</title></path>
<path id="flow102" d="M587.96362 184.414C677.95756 184.414 677.95756 415.50217 767.95149 415.50217" fill="none" stroke-width="66.9954" stroke="#17becf" opacity="0.45"><title>Virtual World → Technique: 19</title></path>
<path id="flow64" d="M395.97575 276.00729C485.96968 276.00729 485.96968 469.23647 575.96362 469.23647" fill="none" stroke-width="63.46933" stroke="#d62728" opacity="0.45"><title>Other Venues → Lifelogging: 18</title></path>
<path id="flow41" d="M203.98787 221.69344C293.98181 221.69344 293.98181 219.59011 383.97575 219.59011" fill="none" stroke-width="56.41718" stroke="#1f77b4" opacity="0.45"><title>Virtual Reality → Other Venues: 16</title></path>
<path id="flow88" d="M587.96362 313.60246C677.95756 313.60246 677.95756 289.83979 767.95149 289.83979" fill="none" stroke-width="45.83896" stroke="#8c564b" opacity="0.45"><title>Augmented Reality → Application: 13</title></path>
<path id="flow0" d="M12 101.21021C101.99394 101.21021 101.99394 193.48485 191.98787 193.48485" fill="none" stroke-width="42.31288" stroke="#17becf" opacity="0.45"><title>Authentication → Virtual Reality: 12</title></path>
<path id="flow66" d="M395.97575 328.89839C485.96968 328.89839 485.96968 633.68566 575.96362 633.68566" fill="none" stroke-width="42.31288" stroke="#9467bd" opacity="0.45"><title>Other Venues → Mirror World: 12</title></path>
<path id="flow104" d="M587.96362 357.67838C677.95756 357.67838 677.95756 470.15631 767.95149 470.15631" fill="none" stroke-width="42.31288" stroke="#17becf" opacity="0.45"><title>Augmented Reality → Technique: 12</title></path>
<path id="flow56" d="M203.98787 269.29543C293.98181 269.29543 293.98181 392.85449 383.97575 392.85449" fill="none" stroke-width="38.78681" stroke="#1f77b4" opacity="0.45"><title>Virtual Reality → VR: 11</title></path>
<path id="flow82" d="M395.97575 392.85449C485.96968 392.85449 485.96968 159.73148 575.96362 159.73148" fill="none" stroke-width="38.78681" stroke="#1f77b4" opacity="0.45"><title>VR → Virtual World: 11</title></path>
<path id="flow91" d="M587.96362 439.26484C677.95756 439.26484 677.95756 171.22955 767.95149 171.22955" fill="none" stroke-width="38.78681" stroke="#e377c2" opacity="0.45"><title>Lifelogging → Evaluation: 11</title></path>
<path id="flow92" d="M587.96362 271.28957C677.95756 271.28957 677.95756 132.44274 767.95149 132.44274" fill="none" stroke-width="38.78681" stroke="#e377c2" opacity="0.45"><title>Augmented Reality → Evaluation: 11</title></path>
<path id="flow86" d="M587.96362 133.28593C677.95756 133.28593 677.95756 249.28994 767.95149 249.28994" fill="none" stroke-width="35.26074" stroke="#8c564b" opacity="0.45"><title>Virtual World → Application: 10</title></path>
<path id="flow83" d="M395.97575 435.16737C485.96968 435.16737 485.96968 516.83846 575.96362 516.83846" fill="none" stroke-width="31.73466" stroke="#d62728" opacity="0.45"><title>VR → Lifelogging: 9</title></path>
<path id="flow105" d="M587.96362 660.13121C677.95756 660.13121 677.95756 591.80585 767.95149 591.80585" fill="none" stroke-width="31.73466" stroke="#17becf" opacity="0.45"><title>Mirror World → Technique: 9</title></path>
<path id="flow13" d="M12 446.15998C101.99394 446.15998 101.99394 424.92944 191.98787 424.92944" fill="none" stroke-width="28.20859" stroke="#ff7f0e" opacity="0.45"><title>Confidentiality → Augmented Reality_1: 8</title></path>
<path id="flow87" d="M587.96362 472.76254C677.95756 472.76254 677.95756 326.86356 767.95149 326.86356" fill="none" stroke-width="28.20859" stroke="#8c564b" opacity="0.45"><title>Lifelogging → Application: 8</title></path>
<path id="flow3" d="M12 179.2706C101.99394 179.2706 101.99394 226.98255 191.98787 226.98255" fill="none" stroke-width="24.68252" stroke="#d62728" opacity="0.45"><title>Integrity → Virtual Reality: 7</title></path>
<path id="flow6" d="M12 330.58904C101.99394 330.58904 101.99394 279.87365 191.98787 279.87365" fill="none" stroke-width="24.68252" stroke="#e377c2" opacity="0.45"><title>Unobservability → Virtual Reality: 7</title></path>
<path id="flow59" d="M395.97575 35.74751C485.96968 35.74751 485.96968 57.47535 575.96362 57.47535" fill="none" stroke-width="24.68252" stroke="#1f77b4" opacity="0.45"><title>CHI → Virtual World: 7</title></path>
<path id="flow78" d="M395.97575 611.16833C485.96968 611.16833 485.96968 212.62259 575.96362 212.62259" fill="none" stroke-width="24.68252" stroke="#1f77b4" opacity="0.45"><title>USS → Virtual World: 7</title></path>
<path id="flow79" d="M395.97575 653.48121C485.96968 653.48121 485.96968 562.67742 575.96362 562.67742" fill="none" stroke-width="24.68252" stroke="#d62728" opacity="0.45"><title>USS → Lifelogging: 7</title></path>
<path id="flow14" d="M12 601.00449C101.99394 601.00449 101.99394 474.29447 191.98787 474.29447" fill="none" stroke-width="21.15644" stroke="#2ca02c" opacity="0.45"><title>Authorization → Augmented Reality_1: 6</title></path>
<path id="flow38" d="M203.98787 182.90663C293.98181 182.90663 293.98181 55.14091 383.97575 55.14091" fill="none" stroke-width="21.15644" stroke="#1f77b4" opacity="0.45"><title>Virtual Reality → CHI: 6</title></path>
<path id="flow52" d="M203.98787 320.4235C293.98181 320.4235 293.98181 609.40529 383.97575 609.40529" fill="none" stroke-width="21.15644" stroke="#1f77b4" opacity="0.45"><title>Virtual Reality → USS: 6</title></path>
<path id="flow81" d="M395.97575 676.40069C485.96968 676.40069 485.96968 679.52462 575.96362 679.52462" fill="none" stroke-width="21.15644" stroke="#9467bd" opacity="0.45"><title>USS → Mirror World: 6</title></path>
<path id="flow12" d="M12 131.18183C101.99394 131.18183 101.99394 366.74923 191.98787 366.74923" fill="none" stroke-width="17.63037" stroke="#17becf" opacity="0.45"><title>Authentication → Augmented Reality_1: 5</title></path>
<path id="flow20" d="M12 510.11607C101.99394 510.11607 101.99394 447.84892 191.98787 447.84892" fill="none" stroke-width="17.63037" stroke="#7f7f7f" opacity="0.45"><title>Awareness → Augmented Reality_1: 5</title></path>
<path id="flow43" d="M203.98787 579.28719C293.98181 579.28719 293.98181 341.23965 383.97575 341.23965" fill="none" stroke-width="17.63037" stroke="#9467bd" opacity="0.45"><title>Mixed Reality → Other Venues: 5</title></path>
<path id="flow46" d="M203.98787 454.90107C293.98181 454.90107 293.98181 500.8865 383.97575 500.8865" fill="none" stroke-width="17.63037" stroke="#2ca02c" opacity="0.45"><title>Augmented Reality_1 → SP: 5</title></path>
<path id="flow53" d="M203.98787 479.58358C293.98181 479.58358 293.98181 628.7987 383.97575 628.7987" fill="none" stroke-width="17.63037" stroke="#2ca02c" opacity="0.45"><title>Augmented Reality_1 → USS: 5</title></path>
<path id="flow60" d="M395.97575 67.48217C485.96968 67.48217 485.96968 428.68662 575.96362 428.68662" fill="none" stroke-width="17.63037" stroke="#d62728" opacity="0.45"><title>CHI → Lifelogging: 5</title></path>
<path id="flow69" d="M395.97575 500.8865C485.96968 500.8865 485.96968 348.86319 575.96362 348.86319" fill="none" stroke-width="17.63037" stroke="#2ca02c" opacity="0.45"><title>SP → Augmented Reality: 5</title></path>
<path id="flow80" d="M395.97575 632.32477C485.96968 632.32477 485.96968 373.54571 575.96362 373.54571" fill="none" stroke-width="17.63037" stroke="#2ca02c" opacity="0.45"><title>USS → Augmented Reality: 5</title></path>
<path id="flow89" d="M587.96362 635.4487C677.95756 635.4487 677.95756 349.78304 767.95149 349.78304" fill="none" stroke-width="17.63037" stroke="#8c564b" opacity="0.45"><title>Mirror World → Application: 5</title></path>
<path id="flow93" d="M587.96362 617.81833C677.95756 617.81833 677.95756 199.43814 767.95149 199.43814" fill="none" stroke-width="17.63037" stroke="#e377c2" opacity="0.45"><title>Mirror World → Evaluation: 5</title></path>
<path id="flow4" d="M12 225.59633C101.99394 225.59633 101.99394 246.37595 191.98787 246.37595" fill="none" stroke-width="14.10429" stroke="#9467bd" opacity="0.45"><title>Identification → Virtual Reality: 4</title></path>
<path id="flow8" d="M12 273.68509C101.99394 273.68509 101.99394 260.48025 191.98787 260.48025" fill="none" stroke-width="14.10429" stroke="#bcbd22" opacity="0.45"><title>Anonymity → Virtual Reality: 4</title></path>
<path id="flow44" d="M203.98787 536.48753C293.98181 536.48753 293.98181 325.37232 383.97575 325.37232" fill="none" stroke-width="14.10429" stroke="#8c564b" opacity="0.45"><title>Extended Reality → Other Venues: 4</title></path>
<path id="flow51" d="M203.98787 495.45091C293.98181 495.45091 293.98181 720.96338 383.97575 720.96338" fill="none" stroke-width="14.10429" stroke="#2ca02c" opacity="0.45"><title>Augmented Reality_1 → UIST: 4</title></path>
<path id="flow77" d="M395.97575 720.96338C485.96968 720.96338 485.96968 389.41304 575.96362 389.41304" fill="none" stroke-width="14.10429" stroke="#2ca02c" opacity="0.45"><title>UIST → Augmented Reality: 4</title></path>
<path id="flow1" d="M12 426.76657C101.99394 426.76657 101.99394 301.03009 191.98787 301.03009" fill="none" stroke-width="10.57822" stroke="#ff7f0e" opacity="0.45"><title>Confidentiality → Virtual Reality: 3</title></path>
<path id="flow7" d="M12 496.01178C101.99394 496.01178 101.99394 311.60831 191.98787 311.60831" fill="none" stroke-width="10.57822" stroke="#7f7f7f" opacity="0.45"><title>Awareness → Virtual Reality: 3</title></path>
<path id="flow21" d="M12 286.02635C101.99394 286.02635 101.99394 391.43174 191.98787 391.43174" fill="none" stroke-width="10.57822" stroke="#bcbd22" opacity="0.45"><title>Anonymity → Augmented Reality_1: 3</title></path>
<path id="flow28" d="M12 358.79763C101.99394 358.79763 101.99394 579.28719 191.98787 579.28719" fill="none" stroke-width="10.57822" stroke="#e377c2" opacity="0.45"><title>Unobservability → Mixed Reality: 3</title></path>
<path id="flow39" d="M203.98787 363.22315C293.98181 363.22315 293.98181 71.00824 383.97575 71.00824" fill="none" stroke-width="10.57822" stroke="#2ca02c" opacity="0.45"><title>Augmented Reality_1 → CHI: 3</title></path>
<path id="flow45" d="M203.98787 293.97794C293.98181 293.97794 293.98181 486.78221 383.97575 486.78221" fill="none" stroke-width="10.57822" stroke="#1f77b4" opacity="0.45"><title>Virtual Reality → SP: 3</title></path>
<path id="flow47" d="M203.98787 304.55617C293.98181 304.55617 293.98181 548.97527 383.97575 548.97527" fill="none" stroke-width="10.57822" stroke="#1f77b4" opacity="0.45"><title>Virtual Reality → TVCG: 3</title></path>
<path id="flow54" d="M203.98787 603.9697C293.98181 603.9697 293.98181 646.42906 383.97575 646.42906" fill="none" stroke-width="10.57822" stroke="#9467bd" opacity="0.45"><title>Mixed Reality → USS: 3</title></path>
<path id="flow61" d="M395.97575 53.37788C485.96968 53.37788 485.96968 257.18528 575.96362 257.18528" fill="none" stroke-width="10.57822" stroke="#2ca02c" opacity="0.45"><title>CHI → Augmented Reality: 3</title></path>
<path id="flow67" d="M395.97575 486.78221C485.96968 486.78221 485.96968 184.414 575.96362 184.414" fill="none" stroke-width="10.57822" stroke="#1f77b4" opacity="0.45"><title>SP → Virtual World: 3</title></path>
<path id="flow71" d="M395.97575 548.97527C485.96968 548.97527 485.96968 194.99222 575.96362 194.99222" fill="none" stroke-width="10.57822" stroke="#1f77b4" opacity="0.45"><title>TVCG → Virtual World: 3</title></path>
<path id="flow72" d="M395.97575 566.60564C485.96968 566.60564 485.96968 545.04705 575.96362 545.04705" fill="none" stroke-width="10.57822" stroke="#d62728" opacity="0.45"><title>TVCG → Lifelogging: 3</title></path>
<path id="flow76" d="M395.97575 733.30464C485.96968 733.30464 485.96968 580.30779 575.96362 580.30779" fill="none" stroke-width="10.57822" stroke="#d62728" opacity="0.45"><title>UIST → Lifelogging: 3</title></path>
<path id="flow100" d="M587.96362 391.17608C677.95756 391.17608 677.95756 691.50946 767.95149 691.50946" fill="none" stroke-width="10.57822" stroke="#bcbd22" opacity="0.45"><title>Augmented Reality → System: 3</title></path>
<path id="flow10" d="M12 549.38966C101.99394 549.38966 101.99394 320.4235 191.98787 320.4235" fill="none" stroke-width="7.05215" stroke="#1f77b4" opacity="0.45"><title>Unlinkability → Virtual Reality: 2</title></path>
<path id="flow16" d="M12 236.17455C101.99394 236.17455 101.99394 382.61656 191.98787 382.61656" fill="none" stroke-width="7.05215" stroke="#9467bd" opacity="0.45"><title>Identification → Augmented Reality_1: 2</title></path>
<path id="flow17" d="M12 717.0622C101.99394 717.0622 101.99394 498.97699 191.98787 498.97699" fill="none" stroke-width="7.05215" stroke="#d62728" opacity="0.45"><title>Availability → Augmented Reality_1: 2</title></path>
<path id="flow18" d="M12 394.54514C101.99394 394.54514 101.99394 407.29907 191.98787 407.29907" fill="none" stroke-width="7.05215" stroke="#8c564b" opacity="0.45"><title>Non-repudiation → Augmented Reality_1: 2</title></path>
<path id="flow19" d="M12 346.45637C101.99394 346.45637 101.99394 400.24692 191.98787 400.24692" fill="none" stroke-width="7.05215" stroke="#e377c2" opacity="0.45"><title>Unobservability → Augmented Reality_1: 2</title></path>
<path id="flow22" d="M12 649.09326C101.99394 649.09326 101.99394 488.39877 191.98787 488.39877" fill="none" stroke-width="7.05215" stroke="#17becf" opacity="0.45"><title>Policy → Augmented Reality_1: 2</title></path>
<path id="flow23" d="M12 556.4418C101.99394 556.4418 101.99394 460.19018 191.98787 460.19018" fill="none" stroke-width="7.05215" stroke="#1f77b4" opacity="0.45"><title>Unlinkability → Augmented Reality_1: 2</title></path>
<path id="flow25" d="M12 463.79035C101.99394 463.79035 101.99394 588.10237 191.98787 588.10237" fill="none" stroke-width="7.05215" stroke="#ff7f0e" opacity="0.45"><title>Confidentiality → Mixed Reality: 2</title></path>
<path id="flow26" d="M12 615.10879C101.99394 615.10879 101.99394 595.15452 191.98787 595.15452" fill="none" stroke-width="7.05215" stroke="#2ca02c" opacity="0.45"><title>Authorization → Mixed Reality: 2</title></path>
<path id="flow48" d="M203.98787 467.24232C293.98181 467.24232 293.98181 557.79045 383.97575 557.79045" fill="none" stroke-width="7.05215" stroke="#2ca02c" opacity="0.45"><title>Augmented Reality_1 → TVCG: 2</title></path>
<path id="flow57" d="M203.98787 442.55981C293.98181 442.55981 293.98181 415.77396 383.97575 415.77396" fill="none" stroke-width="7.05215" stroke="#2ca02c" opacity="0.45"><title>Augmented Reality_1 → VR: 2</title></path>
<path id="flow58" d="M203.98787 591.62844C293.98181 591.62844 293.98181 422.82611 383.97575 422.82611" fill="none" stroke-width="7.05215" stroke="#9467bd" opacity="0.45"><title>Mixed Reality → VR: 2</title></path>
<path id="flow68" d="M395.97575 513.22776C485.96968 513.22776 485.96968 536.23187 575.96362 536.23187" fill="none" stroke-width="7.05215" stroke="#d62728" opacity="0.45"><title>SP → Lifelogging: 2</title></path>
<path id="flow73" d="M395.97575 557.79045C485.96968 557.79045 485.96968 361.20445 575.96362 361.20445" fill="none" stroke-width="7.05215" stroke="#2ca02c" opacity="0.45"><title>TVCG → Augmented Reality: 2</title></path>
<path id="flow84" d="M395.97575 415.77396C485.96968 415.77396 485.96968 336.52194 575.96362 336.52194" fill="none" stroke-width="7.05215" stroke="#2ca02c" opacity="0.45"><title>VR → Augmented Reality: 2</title></path>
<path id="flow85" d="M395.97575 454.56077C485.96968 454.56077 485.96968 658.36818 575.96362 658.36818" fill="none" stroke-width="7.05215" stroke="#9467bd" opacity="0.45"><title>VR → Mirror World: 2</title></path>
<path id="flow94" d="M587.96362 221.43777C677.95756 221.43777 677.95756 634.60551 767.95149 634.60551" fill="none" stroke-width="7.05215" stroke="#7f7f7f" opacity="0.45"><title>Virtual World → Model: 2</title></path>
<path id="flow95" d="M587.96362 575.01868C677.95756 575.01868 677.95756 648.7098 767.95149 648.7098" fill="none" stroke-width="7.05215" stroke="#7f7f7f" opacity="0.45"><title>Lifelogging → Model: 2</title></path>
<path id="flow96" d="M587.96362 382.36089C677.95756 382.36089 677.95756 641.65765 767.95149 641.65765" fill="none" stroke-width="7.05215" stroke="#7f7f7f" opacity="0.45"><title>Augmented Reality → Model: 2</title></path>
<path id="flow97" d="M587.96362 679.52462C677.95756 679.52462 677.95756 655.76195 767.95149 655.76195" fill="none" stroke-width="7.05215" stroke="#7f7f7f" opacity="0.45"><title>Mirror World → Model: 2</title></path>
<path id="flow99" d="M587.96362 582.07082C677.95756 582.07082 677.95756 700.32464 767.95149 700.32464" fill="none" stroke-width="7.05215" stroke="#bcbd22" opacity="0.45"><title>Lifelogging → System: 2</title></path>
<path id="flow101" d="M587.96362 686.57677C677.95756 686.57677 677.95756 707.37679 767.95149 707.37679" fill="none" stroke-width="7.05215" stroke="#bcbd22" opacity="0.45"><title>Mirror World → System: 2</title></path>
<path id="flow2" d="M12 588.66324C101.99394 588.66324 101.99394 325.71261 191.98787 325.71261" fill="none" stroke-width="3.52607" stroke="#2ca02c" opacity="0.45"><title>Authorization → Virtual Reality: 1</title></path>
<path id="flow5" d="M12 389.25603C101.99394 389.25603 101.99394 293.97794 191.98787 293.97794" fill="none" stroke-width="3.52607" stroke="#8c564b" opacity="0.45"><title>Non-repudiation → Virtual Reality: 1</title></path>
<path id="flow9" d="M12 643.80415C101.99394 643.80415 101.99394 329.23868 191.98787 329.23868" fill="none" stroke-width="3.52607" stroke="#17becf" opacity="0.45"><title>Policy → Virtual Reality: 1</title></path>
<path id="flow11" d="M12 681.31469C101.99394 681.31469 101.99394 332.76475 191.98787 332.76475" fill="none" stroke-width="3.52607" stroke="#ff7f0e" opacity="0.45"><title>Deniability → Virtual Reality: 1</title></path>
<path id="flow15" d="M12 193.37489C101.99394 193.37489 101.99394 377.32745 191.98787 377.32745" fill="none" stroke-width="3.52607" stroke="#d62728" opacity="0.45"><title>Integrity → Augmented Reality_1: 1</title></path>
<path id="flow24" d="M12 684.84077C101.99394 684.84077 101.99394 493.68788 191.98787 493.68788" fill="none" stroke-width="3.52607" stroke="#ff7f0e" opacity="0.45"><title>Deniability → Augmented Reality_1: 1</title></path>
<path id="flow27" d="M12 725.87739C101.99394 725.87739 101.99394 607.49577 191.98787 607.49577" fill="none" stroke-width="3.52607" stroke="#d62728" opacity="0.45"><title>Availability → Mixed Reality: 1</title></path>
<path id="flow29" d="M12 293.0785C101.99394 293.0785 101.99394 572.23504 191.98787 572.23504" fill="none" stroke-width="3.52607" stroke="#bcbd22" opacity="0.45"><title>Anonymity → Mixed Reality: 1</title></path>
<path id="flow30" d="M12 654.38237C101.99394 654.38237 101.99394 600.44363 191.98787 600.44363" fill="none" stroke-width="3.52607" stroke="#17becf" opacity="0.45"><title>Policy → Mixed Reality: 1</title></path>
<path id="flow31" d="M12 688.36684C101.99394 688.36684 101.99394 603.9697 191.98787 603.9697" fill="none" stroke-width="3.52607" stroke="#ff7f0e" opacity="0.45"><title>Deniability → Mixed Reality: 1</title></path>
<path id="flow32" d="M12 141.76005C101.99394 141.76005 101.99394 527.67235 191.98787 527.67235" fill="none" stroke-width="3.52607" stroke="#17becf" opacity="0.45"><title>Authentication → Extended Reality: 1</title></path>
<path id="flow33" d="M12 241.46366C101.99394 241.46366 101.99394 531.19842 191.98787 531.19842" fill="none" stroke-width="3.52607" stroke="#9467bd" opacity="0.45"><title>Identification → Extended Reality: 1</title></path>
<path id="flow34" d="M12 722.35131C101.99394 722.35131 101.99394 545.30271 191.98787 545.30271" fill="none" stroke-width="3.52607" stroke="#d62728" opacity="0.45"><title>Availability → Extended Reality: 1</title></path>
<path id="flow35" d="M12 351.74548C101.99394 351.74548 101.99394 534.72449 191.98787 534.72449" fill="none" stroke-width="3.52607" stroke="#e377c2" opacity="0.45"><title>Unobservability → Extended Reality: 1</title></path>
<path id="flow36" d="M12 520.69429C101.99394 520.69429 101.99394 538.25057 191.98787 538.25057" fill="none" stroke-width="3.52607" stroke="#7f7f7f" opacity="0.45"><title>Awareness → Extended Reality: 1</title></path>
<path id="flow37" d="M12 561.73091C101.99394 561.73091 101.99394 541.77664 191.98787 541.77664" fill="none" stroke-width="3.52607" stroke="#1f77b4" opacity="0.45"><title>Unlinkability → Extended Reality: 1</title></path>
<path id="flow40" d="M203.98787 527.67235C293.98181 527.67235 293.98181 78.06039 383.97575 78.06039" fill="none" stroke-width="3.52607" stroke="#8c564b" opacity="0.45"><title>Extended Reality → CHI: 1</title></path>
<path id="flow49" d="M203.98787 596.91755C293.98181 596.91755 293.98181 563.07956 383.97575 563.07956" fill="none" stroke-width="3.52607" stroke="#9467bd" opacity="0.45"><title>Mixed Reality → TVCG: 1</title></path>
<path id="flow50" d="M203.98787 332.76475C293.98181 332.76475 293.98181 712.1482 383.97575 712.1482" fill="none" stroke-width="3.52607" stroke="#1f77b4" opacity="0.45"><title>Virtual Reality → UIST: 1</title></path>
<path id="flow55" d="M203.98787 545.30271C293.98181 545.30271 293.98181 639.37692 383.97575 639.37692" fill="none" stroke-width="3.52607" stroke="#8c564b" opacity="0.45"><title>Extended Reality → USS: 1</title></path>
<path id="flow62" d="M395.97575 78.06039C485.96968 78.06039 485.96968 610.76618 575.96362 610.76618" fill="none" stroke-width="3.52607" stroke="#9467bd" opacity="0.45"><title>CHI → Mirror World: 1</title></path>
<path id="flow70" d="M395.97575 518.51687C485.96968 518.51687 485.96968 663.65729 575.96362 663.65729" fill="none" stroke-width="3.52607" stroke="#9467bd" opacity="0.45"><title>SP → Mirror World: 1</title></path>
<path id="flow74" d="M395.97575 573.65778C485.96968 573.65778 485.96968 667.18336 575.96362 667.18336" fill="none" stroke-width="3.52607" stroke="#9467bd" opacity="0.45"><title>TVCG → Mirror World: 1</title></path>
<path id="flow75" d="M395.97575 712.1482C485.96968 712.1482 485.96968 226.72688 575.96362 226.72688" fill="none" stroke-width="3.52607" stroke="#1f77b4" opacity="0.45"><title>UIST → Virtual World: 1</title></path>
<path id="flow98" d="M587.96362 226.72688C677.95756 226.72688 677.95756 684.45731 767.95149 684.45731" fill="none" stroke-width="3.52607" stroke="#bcbd22" opacity="0.45"><title>Virtual World → System: 1</title></path>
</g>
<g id="sankey_nodes">
<g class="node" style="touch-action: none; -webkit-tap-highlight-color: rgba(0, 0, 0, 0);">
<rect id="r0" class="for_r0" x="0" y="80.05377" height="63.46933" width="12" fill="#17becf" fill-opacity="1"><title>Authentication:
18</title></rect>
</g>
<g class="node" style="touch-action: none; -webkit-tap-highlight-color: rgba(0, 0, 0, 0);">
<rect id="r1" class="for_r1" x="191.98787" y="172.3284" height="162.19939" width="12" fill="#1f77b4" fill-opacity="1"><title>Virtual Reality:
46</title></rect>
</g>
<g class="node" style="touch-action: none; -webkit-tap-highlight-color: rgba(0, 0, 0, 0);">
<rect id="r2" class="for_r2" x="0" y="421.47746" height="45.83896" width="12" fill="#ff7f0e" fill-opacity="1"><title>Confidentiality:
13</title></rect>
</g>
<g class="node" style="touch-action: none; -webkit-tap-highlight-color: rgba(0, 0, 0, 0);">
<rect id="r3" class="for_r3" x="0" y="586.9002" height="31.73466" width="12" fill="#2ca02c" fill-opacity="1"><title>Authorization:
9</title></rect>
</g>
<g class="node" style="touch-action: none; -webkit-tap-highlight-color: rgba(0, 0, 0, 0);">
<rect id="r4" class="for_r4" x="0" y="166.92934" height="28.20859" width="12" fill="#d62728" fill-opacity="1"><title>Integrity:
8</title></rect>
</g>
<g class="node" style="touch-action: none; -webkit-tap-highlight-color: rgba(0, 0, 0, 0);">
<rect id="r5" class="for_r5" x="0" y="218.54418" height="24.68252" width="12" fill="#9467bd" fill-opacity="1"><title>Identification:
7</title></rect>
</g>
<g class="node" style="touch-action: none; -webkit-tap-highlight-color: rgba(0, 0, 0, 0);">
<rect id="r6" class="for_r6" x="0" y="387.49299" height="10.57822" width="12" fill="#8c564b" fill-opacity="1"><title>Non-repudiation:
3</title></rect>
</g>
<g class="node" style="touch-action: none; -webkit-tap-highlight-color: rgba(0, 0, 0, 0);">
<rect id="r7" class="for_r7" x="0" y="318.24778" height="45.83896" width="12" fill="#e377c2" fill-opacity="1"><title>Unobservability:
13</title></rect>
</g>
<g class="node" style="touch-action: none; -webkit-tap-highlight-color: rgba(0, 0, 0, 0);">
<rect id="r8" class="for_r8" x="0" y="490.72267" height="31.73466" width="12" fill="#7f7f7f" fill-opacity="1"><title>Awareness:
9</title></rect>
</g>
<g class="node" style="touch-action: none; -webkit-tap-highlight-color: rgba(0, 0, 0, 0);">
<rect id="r9" class="for_r9" x="0" y="266.63295" height="28.20859" width="12" fill="#bcbd22" fill-opacity="1"><title>Anonymity:
8</title></rect>
</g>
<g class="node" style="touch-action: none; -webkit-tap-highlight-color: rgba(0, 0, 0, 0);">
<rect id="r10" class="for_r10" x="0" y="642.04111" height="14.10429" width="12" fill="#17becf" fill-opacity="1"><title>Policy:
4</title></rect>
</g>
<g class="node" style="touch-action: none; -webkit-tap-highlight-color: rgba(0, 0, 0, 0);">
<rect id="r11" class="for_r11" x="0" y="545.86358" height="17.63037" width="12" fill="#1f77b4" fill-opacity="1"><title>Unlinkability:
5</title></rect>
</g>
<g class="node" style="touch-action: none; -webkit-tap-highlight-color: rgba(0, 0, 0, 0);">
<rect id="r12" class="for_r12" x="0" y="679.55166" height="10.57822" width="12" fill="#ff7f0e" fill-opacity="1"><title>Deniability:
3</title></rect>
</g>
<g class="node" style="touch-action: none; -webkit-tap-highlight-color: rgba(0, 0, 0, 0);">
<rect id="r13" class="for_r13" x="191.98787" y="357.93404" height="144.56902" width="12" fill="#2ca02c" fill-opacity="1"><title>Augmented Reality_1:
41</title></rect>
</g>
<g class="node" style="touch-action: none; -webkit-tap-highlight-color: rgba(0, 0, 0, 0);">
<rect id="r14" class="for_r14" x="0" y="713.53613" height="14.10429" width="12" fill="#d62728" fill-opacity="1"><title>Availability:
4</title></rect>
</g>
<g class="node" style="touch-action: none; -webkit-tap-highlight-color: rgba(0, 0, 0, 0);">
<rect id="r15" class="for_r15" x="191.98787" y="570.472" height="38.78681" width="12" fill="#9467bd" fill-opacity="1"><title>Mixed Reality:
11</title></rect>
</g>
<g class="node" style="touch-action: none; -webkit-tap-highlight-color: rgba(0, 0, 0, 0);">
<rect id="r16" class="for_r16" x="191.98787" y="525.90931" height="21.15644" width="12" fill="#8c564b" fill-opacity="1"><title>Extended Reality:
6</title></rect>
</g>
<g class="node" style="touch-action: none; -webkit-tap-highlight-color: rgba(0, 0, 0, 0);">
<rect id="r17" class="for_r17" x="383.97575" y="23.40625" height="56.41718" width="12" fill="#e377c2" fill-opacity="1"><title>CHI:
16</title></rect>
</g>
<g class="node" style="touch-action: none; -webkit-tap-highlight-color: rgba(0, 0, 0, 0);">
<rect id="r18" class="for_r18" x="383.97575" y="103.22968" height="246.82515" width="12" fill="#7f7f7f" fill-opacity="1"><title>Other Venues:
70</title></rect>
</g>
<g class="node" style="touch-action: none; -webkit-tap-highlight-color: rgba(0, 0, 0, 0);">
<rect id="r19" class="for_r19" x="383.97575" y="481.4931" height="38.78681" width="12" fill="#bcbd22" fill-opacity="1"><title>SP:
11</title></rect>
</g>
<g class="node" style="touch-action: none; -webkit-tap-highlight-color: rgba(0, 0, 0, 0);">
<rect id="r20" class="for_r20" x="383.97575" y="543.68616" height="31.73466" width="12" fill="#17becf" fill-opacity="1"><title>TVCG:
9</title></rect>
</g>
<g class="node" style="touch-action: none; -webkit-tap-highlight-color: rgba(0, 0, 0, 0);">
<rect id="r21" class="for_r21" x="383.97575" y="710.38516" height="28.20859" width="12" fill="#1f77b4" fill-opacity="1"><title>UIST:
8</title></rect>
</g>
<g class="node" style="touch-action: none; -webkit-tap-highlight-color: rgba(0, 0, 0, 0);">
<rect id="r22" class="for_r22" x="383.97575" y="598.82707" height="88.15184" width="12" fill="#ff7f0e" fill-opacity="1"><title>USS:
25</title></rect>
</g>
<g class="node" style="touch-action: none; -webkit-tap-highlight-color: rgba(0, 0, 0, 0);">
<rect id="r23" class="for_r23" x="383.97575" y="373.46108" height="84.62577" width="12" fill="#2ca02c" fill-opacity="1"><title>VR:
24</title></rect>
</g>
<g class="node" style="touch-action: none; -webkit-tap-highlight-color: rgba(0, 0, 0, 0);">
<rect id="r24" class="for_r24" x="575.96362" y="45.13409" height="183.35583" width="12" fill="#1f77b4" fill-opacity="1"><title>Virtual World:
52</title></rect>
</g>
<g class="node" style="touch-action: none; -webkit-tap-highlight-color: rgba(0, 0, 0, 0);">
<rect id="r25" class="for_r25" x="575.96362" y="419.87144" height="165.72546" width="12" fill="#d62728" fill-opacity="1"><title>Lifelogging:
47</title></rect>
</g>
<g class="node" style="touch-action: none; -webkit-tap-highlight-color: rgba(0, 0, 0, 0);">
<rect id="r26" class="for_r26" x="575.96362" y="251.89617" height="144.56902" width="12" fill="#2ca02c" fill-opacity="1"><title>Augmented Reality:
41</title></rect>
</g>
<g class="node" style="touch-action: none; -webkit-tap-highlight-color: rgba(0, 0, 0, 0);">
<rect id="r27" class="for_r27" x="575.96362" y="609.00315" height="81.09969" width="12" fill="#9467bd" fill-opacity="1"><title>Mirror World:
23</title></rect>
</g>
<g class="node" style="touch-action: none; -webkit-tap-highlight-color: rgba(0, 0, 0, 0);">
<rect id="r28" class="for_r28" x="767.95149" y="231.65957" height="126.93865" width="12" fill="#8c564b" fill-opacity="1"><title>Application:
36</title></rect>
</g>
<g class="node" style="touch-action: none; -webkit-tap-highlight-color: rgba(0, 0, 0, 0);">
<rect id="r29" class="for_r29" x="767.95149" y="42.52786" height="165.72546" width="12" fill="#e377c2" fill-opacity="1"><title>Evaluation:
47</title></rect>
</g>
<g class="node" style="touch-action: none; -webkit-tap-highlight-color: rgba(0, 0, 0, 0);">
<rect id="r30" class="for_r30" x="767.95149" y="631.07943" height="28.20859" width="12" fill="#7f7f7f" fill-opacity="1"><title>Model:
8</title></rect>
</g>
<g class="node" style="touch-action: none; -webkit-tap-highlight-color: rgba(0, 0, 0, 0);">
<rect id="r31" class="for_r31" x="767.95149" y="682.69427" height="28.20859" width="12" fill="#bcbd22" fill-opacity="1"><title>System:
8</title></rect>
</g>
<g class="node" style="touch-action: none; -webkit-tap-highlight-color: rgba(0, 0, 0, 0);">
<rect id="r32" class="for_r32" x="767.95149" y="382.00447" height="225.66871" width="12" fill="#17becf" fill-opacity="1"><title>Technique:
64</title></rect>
</g>
</g>
<g id="sankey_labels" font-family="sans-serif" font-size="16px" fill="#000000">
<text id="label0" class="for_r0" text-anchor="end" x="-6.29902" y="111.78843" font-weight="400" font-size="14.4px" dy="-5.10401">Authentication<tspan x="-6.29902" dy="19.32" font-weight="400" font-size="17.6px">18</tspan></text>
<text id="label1" class="for_r1" text-anchor="end" x="185.68886" y="253.4281" font-weight="400" font-size="14.4px" dy="-5.10401">Virtual Reality<tspan x="185.68886" dy="19.32" font-weight="400" font-size="17.6px">46</tspan></text>
<text id="label2" class="for_r2" text-anchor="end" x="-6.29902" y="444.39694" font-weight="400" font-size="14.4px" dy="-5.10401">Confidentiality<tspan x="-6.29902" dy="19.32" font-weight="400" font-size="17.6px">13</tspan></text>
<text id="label3" class="for_r3" text-anchor="end" x="-6.29902" y="602.76753" font-weight="400" font-size="14.4px" dy="-5.10401">Authorization<tspan x="-6.29902" dy="19.32" font-weight="400" font-size="17.6px">9</tspan></text>
<text id="label4" class="for_r4" text-anchor="end" x="-6.29902" y="181.03364" font-weight="400" font-size="14.4px" dy="-5.10401">Integrity<tspan x="-6.29902" dy="19.32" font-weight="400" font-size="17.6px">8</tspan></text>
<text id="label5" class="for_r5" text-anchor="end" x="-6.29902" y="230.88544" font-weight="400" font-size="14.4px" dy="-5.10401">Identification<tspan x="-6.29902" dy="19.32" font-weight="400" font-size="17.6px">7</tspan></text>
<text id="label6" class="for_r6" text-anchor="end" x="-6.29902" y="392.7821" font-weight="400" font-size="14.4px" dy="-5.10401">Non-repudiation<tspan x="-6.29902" dy="19.32" font-weight="400" font-size="17.6px">3</tspan></text>
<text id="label7" class="for_r7" text-anchor="end" x="-6.29902" y="341.16726" font-weight="400" font-size="14.4px" dy="-5.10401">Unobservability<tspan x="-6.29902" dy="19.32" font-weight="400" font-size="17.6px">13</tspan></text>
<text id="label8" class="for_r8" text-anchor="end" x="-6.29902" y="506.59" font-weight="400" font-size="14.4px" dy="-5.10401">Awareness<tspan x="-6.29902" dy="19.32" font-weight="400" font-size="17.6px">9</tspan></text>
<text id="label9" class="for_r9" text-anchor="end" x="-6.29902" y="280.73724" font-weight="400" font-size="14.4px" dy="-5.10401">Anonymity<tspan x="-6.29902" dy="19.32" font-weight="400" font-size="17.6px">8</tspan></text>
<text id="label10" class="for_r10" text-anchor="end" x="-6.29902" y="649.09326" font-weight="400" font-size="14.4px" dy="-5.10401">Policy<tspan x="-6.29902" dy="19.32" font-weight="400" font-size="17.6px">4</tspan></text>
<text id="label11" class="for_r11" text-anchor="end" x="-6.29902" y="554.67877" font-weight="400" font-size="14.4px" dy="-5.10401">Unlinkability<tspan x="-6.29902" dy="19.32" font-weight="400" font-size="17.6px">5</tspan></text>
<text id="label12" class="for_r12" text-anchor="end" x="-6.29902" y="684.84077" font-weight="400" font-size="14.4px" dy="-5.10401">Deniability<tspan x="-6.29902" dy="19.32" font-weight="400" font-size="17.6px">3</tspan></text>
<text id="label13" class="for_r13" text-anchor="end" x="185.68886" y="430.21855" font-weight="400" font-size="14.4px" dy="-5.10401">Augmented Reality_1<tspan x="185.68886" dy="19.32" font-weight="400" font-size="17.6px">41</tspan></text>
<text id="label14" class="for_r14" text-anchor="end" x="-6.29902" y="720.58827" font-weight="400" font-size="14.4px" dy="-5.10401">Availability<tspan x="-6.29902" dy="19.32" font-weight="400" font-size="17.6px">4</tspan></text>
<text id="label15" class="for_r15" text-anchor="end" x="185.68886" y="589.86541" font-weight="400" font-size="14.4px" dy="-5.10401">Mixed Reality<tspan x="185.68886" dy="19.32" font-weight="400" font-size="17.6px">11</tspan></text>
<text id="label16" class="for_r16" text-anchor="end" x="185.68886" y="536.48753" font-weight="400" font-size="14.4px" dy="-5.10401">Extended Reality<tspan x="185.68886" dy="19.32" font-weight="400" font-size="17.6px">6</tspan></text>
<text id="label17" class="for_r17" text-anchor="end" x="377.67673" y="51.61484" font-weight="400" font-size="14.4px" dy="-5.10401">CHI<tspan x="377.67673" dy="19.32" font-weight="400" font-size="17.6px">16</tspan></text>
<text id="label18" class="for_r18" text-anchor="end" x="377.67673" y="226.64225" font-weight="400" font-size="14.4px" dy="-5.10401">Other Venues<tspan x="377.67673" dy="19.32" font-weight="400" font-size="17.6px">70</tspan></text>
<text id="label19" class="for_r19" text-anchor="end" x="377.67673" y="500.8865" font-weight="400" font-size="14.4px" dy="-5.10401">SP<tspan x="377.67673" dy="19.32" font-weight="400" font-size="17.6px">11</tspan></text>
<text id="label20" class="for_r20" text-anchor="end" x="377.67673" y="559.55349" font-weight="400" font-size="14.4px" dy="-5.10401">TVCG<tspan x="377.67673" dy="19.32" font-weight="400" font-size="17.6px">9</tspan></text>
<text id="label21" class="for_r21" text-anchor="end" x="377.67673" y="724.48946" font-weight="400" font-size="14.4px" dy="-5.10401">UIST<tspan x="377.67673" dy="19.32" font-weight="400" font-size="17.6px">8</tspan></text>
<text id="label22" class="for_r22" text-anchor="end" x="377.67673" y="642.90299" font-weight="400" font-size="14.4px" dy="-5.10401">USS<tspan x="377.67673" dy="19.32" font-weight="400" font-size="17.6px">25</tspan></text>
<text id="label23" class="for_r23" text-anchor="end" x="377.67673" y="415.77396" font-weight="400" font-size="14.4px" dy="-5.10401">VR<tspan x="377.67673" dy="19.32" font-weight="400" font-size="17.6px">24</tspan></text>
<text id="label24" class="for_r24" text-anchor="end" x="569.6646" y="136.812" font-weight="400" font-size="14.4px" dy="-5.10401">Virtual World<tspan x="569.6646" dy="19.32" font-weight="400" font-size="17.6px">52</tspan></text>
<text id="label25" class="for_r25" text-anchor="end" x="569.6646" y="502.73417" font-weight="400" font-size="14.4px" dy="-5.10401">Lifelogging<tspan x="569.6646" dy="19.32" font-weight="400" font-size="17.6px">47</tspan></text>
<text id="label26" class="for_r26" text-anchor="end" x="569.6646" y="324.18068" font-weight="400" font-size="14.4px" dy="-5.10401">Augmented Reality<tspan x="569.6646" dy="19.32" font-weight="400" font-size="17.6px">41</tspan></text>
<text id="label27" class="for_r27" text-anchor="end" x="569.6646" y="649.55299" font-weight="400" font-size="14.4px" dy="-5.10401">Mirror World<tspan x="569.6646" dy="19.32" font-weight="400" font-size="17.6px">23</tspan></text>
<text id="label28" class="for_r28" text-anchor="start" x="786.25051" y="295.1289" font-weight="400" font-size="14.4px" dy="-5.10401">Application<tspan x="786.25051" dy="19.32" font-weight="400" font-size="17.6px">36</tspan></text>
<text id="label29" class="for_r29" text-anchor="start" x="786.25051" y="125.39059" font-weight="400" font-size="14.4px" dy="-5.10401">Evaluation<tspan x="786.25051" dy="19.32" font-weight="400" font-size="17.6px">47</tspan></text>
<text id="label30" class="for_r30" text-anchor="start" x="786.25051" y="645.18373" font-weight="400" font-size="14.4px" dy="-5.10401">Model<tspan x="786.25051" dy="19.32" font-weight="400" font-size="17.6px">8</tspan></text>
<text id="label31" class="for_r31" text-anchor="start" x="786.25051" y="696.79857" font-weight="400" font-size="14.4px" dy="-5.10401">System<tspan x="786.25051" dy="19.32" font-weight="400" font-size="17.6px">8</tspan></text>
<text id="label32" class="for_r32" text-anchor="start" x="786.25051" y="494.83883" font-weight="400" font-size="14.4px" dy="-5.10401">Technique<tspan x="786.25051" dy="19.32" font-weight="400" font-size="17.6px">64</tspan></text>
</g>
</g></svg>