<svg height="800" width="1000" xmlns="http://www.w3.org/2000/svg">
<title>Your Diagram Title</title>
<!-- Generated with SankeyMATIC: 9/8/2024, 2:17:25 PM -->
<g transform="translate(125.83364,18)">
<g id="sankey_flows">
<path id="flow55" d="M203.98787 164.62519C293.98181 164.62519 293.98181 188.24632 383.97575 188.24632" fill="none" stroke-width="47.54601" stroke="#1f77b4" opacity="0.45"><title>Virtual World → Other Venues: 20</title></path>
<path id="flow57" d="M203.98787 437.28125C293.98181 437.28125 293.98181 278.58375 383.97575 278.58375" fill="none" stroke-width="47.54601" stroke="#9467bd" opacity="0.45"><title>Augmented Reality_1 → Other Venues: 20</title></path>
<path id="flow82" d="M395.97575 285.71565C485.96968 285.71565 485.96968 376.40027 575.96362 376.40027" fill="none" stroke-width="47.54601" stroke="#9467bd" opacity="0.45"><title>Other Venues → Augmented Reality: 20</title></path>
<path id="flow56" d="M203.98787 304.51917C293.98181 304.51917 293.98181 233.41504 383.97575 233.41504" fill="none" stroke-width="42.79141" stroke="#d62728" opacity="0.45"><title>Lifelogging → Other Venues: 18</title></path>
<path id="flow103" d="M587.96362 234.12899C677.95756 234.12899 677.95756 224.38758 767.95149 224.38758" fill="none" stroke-width="42.79141" stroke="#e377c2" opacity="0.45"><title>Virtual Reality → Evaluation: 18</title></path>
<path id="flow114" d="M587.96362 276.9204C677.95756 276.9204 677.95756 323.86745 767.95149 323.86745" fill="none" stroke-width="42.79141" stroke="#17becf" opacity="0.45"><title>Virtual Reality → Technique: 18</title></path>
<path id="flow81" d="M395.97575 242.92424C485.96968 242.92424 485.96968 246.01549 575.96362 246.01549" fill="none" stroke-width="38.03681" stroke="#1f77b4" opacity="0.45"><title>Other Venues → Virtual Reality: 16</title></path>
<path id="flow0" d="M12 111.82151C101.99394 111.82151 101.99394 156.30464 191.98787 156.30464" fill="none" stroke-width="30.90491" stroke="#17becf" opacity="0.45"><title>Authentication → Virtual World: 13</title></path>
<path id="flow100" d="M587.96362 415.62573C677.95756 415.62573 677.95756 445.93167 767.95149 445.93167" fill="none" stroke-width="30.90491" stroke="#8c564b" opacity="0.45"><title>Augmented Reality → Application: 13</title></path>
<path id="flow58" d="M203.98787 543.89302C293.98181 543.89302 293.98181 316.62056 383.97575 316.62056" fill="none" stroke-width="28.52761" stroke="#8c564b" opacity="0.45"><title>Mirror World → Other Venues: 12</title></path>
<path id="flow115" d="M587.96362 385.90947C677.95756 385.90947 677.95756 359.52696 767.95149 359.52696" fill="none" stroke-width="28.52761" stroke="#17becf" opacity="0.45"><title>Augmented Reality → Technique: 12</title></path>
<path id="flow74" d="M203.98787 201.47335C293.98181 201.47335 293.98181 367.36576 383.97575 367.36576" fill="none" stroke-width="26.15031" stroke="#1f77b4" opacity="0.45"><title>Virtual World → VR: 11</title></path>
<path id="flow96" d="M395.97575 367.36576C485.96968 367.36576 485.96968 278.10905 575.96362 278.10905" fill="none" stroke-width="26.15031" stroke="#1f77b4" opacity="0.45"><title>VR → Virtual Reality: 11</title></path>
<path id="flow104" d="M587.96362 358.57051C677.95756 358.57051 677.95756 258.85844 767.95149 258.85844" fill="none" stroke-width="26.15031" stroke="#e377c2" opacity="0.45"><title>Augmented Reality → Evaluation: 11</title></path>
<path id="flow13" d="M12 137.97182C101.99394 137.97182 101.99394 286.68942 191.98787 286.68942" fill="none" stroke-width="21.39571" stroke="#17becf" opacity="0.45"><title>Authentication → Lifelogging: 9</title></path>
<path id="flow20" d="M12 277.49904C101.99394 277.49904 101.99394 319.97163 191.98787 319.97163" fill="none" stroke-width="21.39571" stroke="#7f7f7f" opacity="0.45"><title>Unobservability → Lifelogging: 9</title></path>
<path id="flow75" d="M203.98787 336.61273C293.98181 336.61273 293.98181 391.13877 383.97575 391.13877" fill="none" stroke-width="21.39571" stroke="#d62728" opacity="0.45"><title>Lifelogging → VR: 9</title></path>
<path id="flow99" d="M587.96362 309.01396C677.95756 309.01396 677.95756 419.78136 767.95149 419.78136" fill="none" stroke-width="21.39571" stroke="#8c564b" opacity="0.45"><title>Virtual Reality → Application: 9</title></path>
<path id="flow7" d="M12 257.29199C101.99394 257.29199 101.99394 193.1528 191.98787 193.1528" fill="none" stroke-width="19.0184" stroke="#7f7f7f" opacity="0.45"><title>Unobservability → Virtual World: 8</title></path>
<path id="flow26" d="M12 514.95073C101.99394 514.95073 101.99394 463.43156 191.98787 463.43156" fill="none" stroke-width="19.0184" stroke="#ff7f0e" opacity="0.45"><title>Confidentiality → Augmented Reality_1: 8</title></path>
<path id="flow3" d="M12 55.13305C101.99394 55.13305 101.99394 132.53163 191.98787 132.53163" fill="none" stroke-width="16.6411" stroke="#d62728" opacity="0.45"><title>Integrity → Virtual World: 7</title></path>
<path id="flow51" d="M203.98787 132.53163C293.98181 132.53163 293.98181 111.35081 383.97575 111.35081" fill="none" stroke-width="16.6411" stroke="#1f77b4" opacity="0.45"><title>Virtual World → CHI: 7</title></path>
<path id="flow70" d="M203.98787 237.13286C293.98181 237.13286 293.98181 537.43114 383.97575 537.43114" fill="none" stroke-width="16.6411" stroke="#1f77b4" opacity="0.45"><title>Virtual World → USS: 7</title></path>
<path id="flow71" d="M203.98787 367.51764C293.98181 367.51764 293.98181 554.07224 383.97575 554.07224" fill="none" stroke-width="16.6411" stroke="#d62728" opacity="0.45"><title>Lifelogging → USS: 7</title></path>
<path id="flow14" d="M12 498.30962C101.99394 498.30962 101.99394 363.95169 191.98787 363.95169" fill="none" stroke-width="14.2638" stroke="#ff7f0e" opacity="0.45"><title>Confidentiality → Lifelogging: 6</title></path>
<path id="flow27" d="M12 670.38554C101.99394 670.38554 101.99394 491.95916 191.98787 491.95916" fill="none" stroke-width="14.2638" stroke="#2ca02c" opacity="0.45"><title>Authorization → Augmented Reality_1: 6</title></path>
<path id="flow73" d="M203.98787 574.79793C293.98181 574.79793 293.98181 581.4112 383.97575 581.4112" fill="none" stroke-width="14.2638" stroke="#8c564b" opacity="0.45"><title>Mirror World → USS: 6</title></path>
<path id="flow78" d="M395.97575 124.42596C485.96968 124.42596 485.96968 219.86518 575.96362 219.86518" fill="none" stroke-width="14.2638" stroke="#1f77b4" opacity="0.45"><title>CHI → Virtual Reality: 6</title></path>
<path id="flow92" d="M395.97575 536.24249C485.96968 536.24249 485.96968 312.57991 575.96362 312.57991" fill="none" stroke-width="14.2638" stroke="#1f77b4" opacity="0.45"><title>USS → Virtual Reality: 6</title></path>
<path id="flow4" d="M12 199.41488C101.99394 199.41488 101.99394 177.70035 191.98787 177.70035" fill="none" stroke-width="11.8865" stroke="#9467bd" opacity="0.45"><title>Identification → Virtual World: 5</title></path>
<path id="flow17" d="M12 211.30138C101.99394 211.30138 101.99394 303.33052 191.98787 303.33052" fill="none" stroke-width="11.8865" stroke="#9467bd" opacity="0.45"><title>Identification → Lifelogging: 5</title></path>
<path id="flow22" d="M12 395.63056C101.99394 395.63056 101.99394 343.74463 191.98787 343.74463" fill="none" stroke-width="11.8865" stroke="#17becf" opacity="0.45"><title>Anonymity → Lifelogging: 5</title></path>
<path id="flow25" d="M12 154.61292C101.99394 154.61292 101.99394 414.69689 191.98787 414.69689" fill="none" stroke-width="11.8865" stroke="#17becf" opacity="0.45"><title>Authentication → Augmented Reality_1: 5</title></path>
<path id="flow33" d="M12 348.4513C101.99394 348.4513 101.99394 436.0926 191.98787 436.0926" fill="none" stroke-width="11.8865" stroke="#bcbd22" opacity="0.45"><title>Awareness → Augmented Reality_1: 5</title></path>
<path id="flow52" d="M203.98787 277.18021C293.98181 277.18021 293.98181 125.61461 383.97575 125.61461" fill="none" stroke-width="11.8865" stroke="#d62728" opacity="0.45"><title>Lifelogging → CHI: 5</title></path>
<path id="flow61" d="M203.98787 476.50671C293.98181 476.50671 293.98181 497.38379 383.97575 497.38379" fill="none" stroke-width="11.8865" stroke="#9467bd" opacity="0.45"><title>Augmented Reality_1 → SP: 5</title></path>
<path id="flow72" d="M203.98787 488.39321C293.98181 488.39321 293.98181 568.33605 383.97575 568.33605" fill="none" stroke-width="11.8865" stroke="#9467bd" opacity="0.45"><title>Augmented Reality_1 → USS: 5</title></path>
<path id="flow83" d="M395.97575 324.94111C485.96968 324.94111 485.96968 509.98424 575.96362 509.98424" fill="none" stroke-width="11.8865" stroke="#9467bd" opacity="0.45"><title>Other Venues → Mixed Reality: 5</title></path>
<path id="flow86" d="M395.97575 492.62919C485.96968 492.62919 485.96968 415.62573 575.96362 415.62573" fill="none" stroke-width="11.8865" stroke="#9467bd" opacity="0.45"><title>SP → Augmented Reality: 5</title></path>
<path id="flow93" d="M395.97575 549.31764C485.96968 549.31764 485.96968 427.51223 575.96362 427.51223" fill="none" stroke-width="11.8865" stroke="#9467bd" opacity="0.45"><title>USS → Augmented Reality: 5</title></path>
<path id="flow8" d="M12 330.62155C101.99394 330.62155 101.99394 207.4166 191.98787 207.4166" fill="none" stroke-width="9.5092" stroke="#bcbd22" opacity="0.45"><title>Awareness → Virtual World: 4</title></path>
<path id="flow9" d="M12 384.93271C101.99394 384.93271 101.99394 216.92581 191.98787 216.92581" fill="none" stroke-width="9.5092" stroke="#17becf" opacity="0.45"><title>Anonymity → Virtual World: 4</title></path>
<path id="flow38" d="M12 165.31077C101.99394 165.31077 101.99394 534.38382 191.98787 534.38382" fill="none" stroke-width="9.5092" stroke="#17becf" opacity="0.45"><title>Authentication → Mirror World: 4</title></path>
<path id="flow45" d="M12 297.7061C101.99394 297.7061 101.99394 546.27032 191.98787 546.27032" fill="none" stroke-width="9.5092" stroke="#7f7f7f" opacity="0.45"><title>Unobservability → Mirror World: 4</title></path>
<path id="flow69" d="M203.98787 499.09107C293.98181 499.09107 293.98181 626.21316 383.97575 626.21316" fill="none" stroke-width="9.5092" stroke="#9467bd" opacity="0.45"><title>Augmented Reality_1 → UIST: 4</title></path>
<path id="flow84" d="M395.97575 314.24326C485.96968 314.24326 485.96968 473.50284 575.96362 473.50284" fill="none" stroke-width="9.5092" stroke="#d62728" opacity="0.45"><title>Other Venues → Extended Reality: 4</title></path>
<path id="flow91" d="M395.97575 619.08126C485.96968 619.08126 485.96968 438.21008 575.96362 438.21008" fill="none" stroke-width="9.5092" stroke="#9467bd" opacity="0.45"><title>UIST → Augmented Reality: 4</title></path>
<path id="flow101" d="M587.96362 520.68209C677.95756 520.68209 677.95756 468.51603 767.95149 468.51603" fill="none" stroke-width="9.5092" stroke="#8c564b" opacity="0.45"><title>Mixed Reality → Application: 4</title></path>
<path id="flow116" d="M587.96362 511.17289C677.95756 511.17289 677.95756 380.92266 767.95149 380.92266" fill="none" stroke-width="9.5092" stroke="#17becf" opacity="0.45"><title>Mixed Reality → Technique: 4</title></path>
<path id="flow1" d="M12 487.61177C101.99394 487.61177 101.99394 232.37826 191.98787 232.37826" fill="none" stroke-width="7.1319" stroke="#ff7f0e" opacity="0.45"><title>Confidentiality → Virtual World: 3</title></path>
<path id="flow11" d="M12 440.43252C101.99394 440.43252 101.99394 225.24636 191.98787 225.24636" fill="none" stroke-width="7.1319" stroke="#ff7f0e" opacity="0.45"><title>Unlinkability → Virtual World: 3</title></path>
<path id="flow21" d="M12 338.9421C101.99394 338.9421 101.99394 334.23543 191.98787 334.23543" fill="none" stroke-width="7.1319" stroke="#bcbd22" opacity="0.45"><title>Awareness → Lifelogging: 3</title></path>
<path id="flow23" d="M12 447.56442C101.99394 447.56442 101.99394 353.25383 191.98787 353.25383" fill="none" stroke-width="7.1319" stroke="#ff7f0e" opacity="0.45"><title>Unlinkability → Lifelogging: 3</title></path>
<path id="flow34" d="M12 405.13976C101.99394 405.13976 101.99394 445.6018 191.98787 445.6018" fill="none" stroke-width="7.1319" stroke="#17becf" opacity="0.45"><title>Anonymity → Augmented Reality_1: 3</title></path>
<path id="flow53" d="M203.98787 409.94229C293.98181 409.94229 293.98181 135.12382 383.97575 135.12382" fill="none" stroke-width="7.1319" stroke="#9467bd" opacity="0.45"><title>Augmented Reality_1 → CHI: 3</title></path>
<path id="flow59" d="M203.98787 225.24636C293.98181 225.24636 293.98181 483.11998 383.97575 483.11998" fill="none" stroke-width="7.1319" stroke="#1f77b4" opacity="0.45"><title>Virtual World → SP: 3</title></path>
<path id="flow63" d="M203.98787 218.11446C293.98181 218.11446 293.98181 438.31803 383.97575 438.31803" fill="none" stroke-width="7.1319" stroke="#1f77b4" opacity="0.45"><title>Virtual World → TVCG: 3</title></path>
<path id="flow64" d="M203.98787 350.87653C293.98181 350.87653 293.98181 445.44993 383.97575 445.44993" fill="none" stroke-width="7.1319" stroke="#d62728" opacity="0.45"><title>Lifelogging → TVCG: 3</title></path>
<path id="flow68" d="M203.98787 379.40414C293.98181 379.40414 293.98181 617.89261 383.97575 617.89261" fill="none" stroke-width="7.1319" stroke="#d62728" opacity="0.45"><title>Lifelogging → UIST: 3</title></path>
<path id="flow79" d="M395.97575 135.12382C485.96968 135.12382 485.96968 349.06131 575.96362 349.06131" fill="none" stroke-width="7.1319" stroke="#9467bd" opacity="0.45"><title>CHI → Augmented Reality: 3</title></path>
<path id="flow85" d="M395.97575 483.11998C485.96968 483.11998 485.96968 301.88206 575.96362 301.88206" fill="none" stroke-width="7.1319" stroke="#1f77b4" opacity="0.45"><title>SP → Virtual Reality: 3</title></path>
<path id="flow87" d="M395.97575 438.31803C485.96968 438.31803 485.96968 294.75015 575.96362 294.75015" fill="none" stroke-width="7.1319" stroke="#1f77b4" opacity="0.45"><title>TVCG → Virtual Reality: 3</title></path>
<path id="flow94" d="M395.97575 561.20415C485.96968 561.20415 485.96968 526.62535 575.96362 526.62535" fill="none" stroke-width="7.1319" stroke="#9467bd" opacity="0.45"><title>USS → Mixed Reality: 3</title></path>
<path id="flow111" d="M587.96362 439.39874C677.95756 439.39874 677.95756 535.53558 767.95149 535.53558" fill="none" stroke-width="7.1319" stroke="#bcbd22" opacity="0.45"><title>Augmented Reality → System: 3</title></path>
<path id="flow15" d="M12 660.87634C101.99394 660.87634 101.99394 380.59279 191.98787 380.59279" fill="none" stroke-width="4.7546" stroke="#2ca02c" opacity="0.45"><title>Authorization → Lifelogging: 2</title></path>
<path id="flow16" d="M12 65.8309C101.99394 65.8309 101.99394 273.61426 191.98787 273.61426" fill="none" stroke-width="4.7546" stroke="#d62728" opacity="0.45"><title>Integrity → Lifelogging: 2</title></path>
<path id="flow29" d="M12 219.62193C101.99394 219.62193 101.99394 423.01745 191.98787 423.01745" fill="none" stroke-width="4.7546" stroke="#9467bd" opacity="0.45"><title>Identification → Augmented Reality_1: 2</title></path>
<path id="flow30" d="M12 592.66814C101.99394 592.66814 101.99394 477.69536 191.98787 477.69536" fill="none" stroke-width="4.7546" stroke="#8c564b" opacity="0.45"><title>Availability → Augmented Reality_1: 2</title></path>
<path id="flow31" d="M12 627.96089C101.99394 627.96089 101.99394 482.44996 191.98787 482.44996" fill="none" stroke-width="4.7546" stroke="#e377c2" opacity="0.45"><title>Non-repudiation → Augmented Reality_1: 2</title></path>
<path id="flow32" d="M12 290.57419C101.99394 290.57419 101.99394 427.77205 191.98787 427.77205" fill="none" stroke-width="4.7546" stroke="#7f7f7f" opacity="0.45"><title>Unobservability → Augmented Reality_1: 2</title></path>
<path id="flow35" d="M12 710.4329C101.99394 710.4329 101.99394 501.46837 191.98787 501.46837" fill="none" stroke-width="4.7546" stroke="#1f77b4" opacity="0.45"><title>Policy → Augmented Reality_1: 2</title></path>
<path id="flow36" d="M12 451.13037v4.7546L191.98787 453.92235v-4.7546z" fill="#ff7f0e" stroke-width="0.5" stroke="#ff7f0e" opacity="0.45"><title>Unlinkability → Augmented Reality_1: 2</title></path>
<path id="flow39" d="M12 526.83723C101.99394 526.83723 101.99394 565.28873 191.98787 565.28873" fill="none" stroke-width="4.7546" stroke="#ff7f0e" opacity="0.45"><title>Confidentiality → Mirror World: 2</title></path>
<path id="flow40" d="M12 679.89475C101.99394 679.89475 101.99394 577.17523 191.98787 577.17523" fill="none" stroke-width="4.7546" stroke="#2ca02c" opacity="0.45"><title>Authorization → Mirror World: 2</title></path>
<path id="flow47" d="M12 411.08301C101.99394 411.08301 101.99394 555.77952 191.98787 555.77952" fill="none" stroke-width="4.7546" stroke="#17becf" opacity="0.45"><title>Anonymity → Mirror World: 2</title></path>
<path id="flow49" d="M12 458.26227C101.99394 458.26227 101.99394 560.53413 191.98787 560.53413" fill="none" stroke-width="4.7546" stroke="#ff7f0e" opacity="0.45"><title>Unlinkability → Mirror World: 2</title></path>
<path id="flow60" d="M203.98787 356.81979C293.98181 356.81979 293.98181 489.06323 383.97575 489.06323" fill="none" stroke-width="4.7546" stroke="#d62728" opacity="0.45"><title>Lifelogging → SP: 2</title></path>
<path id="flow65" d="M203.98787 468.18616C293.98181 468.18616 293.98181 451.39318 383.97575 451.39318" fill="none" stroke-width="4.7546" stroke="#9467bd" opacity="0.45"><title>Augmented Reality_1 → TVCG: 2</title></path>
<path id="flow76" d="M203.98787 463.43156C293.98181 463.43156 293.98181 404.21392 383.97575 404.21392" fill="none" stroke-width="4.7546" stroke="#9467bd" opacity="0.45"><title>Augmented Reality_1 → VR: 2</title></path>
<path id="flow77" d="M203.98787 560.53413C293.98181 560.53413 293.98181 408.96853 383.97575 408.96853" fill="none" stroke-width="4.7546" stroke="#8c564b" opacity="0.45"><title>Mirror World → VR: 2</title></path>
<path id="flow88" d="M395.97575 444.26128C485.96968 444.26128 485.96968 407.30518 575.96362 407.30518" fill="none" stroke-width="4.7546" stroke="#9467bd" opacity="0.45"><title>TVCG → Augmented Reality: 2</title></path>
<path id="flow97" d="M395.97575 382.81822C485.96968 382.81822 485.96968 402.55058 575.96362 402.55058" fill="none" stroke-width="4.7546" stroke="#9467bd" opacity="0.45"><title>VR → Augmented Reality: 2</title></path>
<path id="flow98" d="M395.97575 387.57282C485.96968 387.57282 485.96968 518.30479 575.96362 518.30479" fill="none" stroke-width="4.7546" stroke="#9467bd" opacity="0.45"><title>VR → Mixed Reality: 2</title></path>
<path id="flow106" d="M587.96362 468.74824C677.95756 468.74824 677.95756 274.31089 767.95149 274.31089" fill="none" stroke-width="4.7546" stroke="#e377c2" opacity="0.45"><title>Extended Reality → Evaluation: 2</title></path>
<path id="flow108" d="M587.96362 433.45548C677.95756 433.45548 677.95756 501.43148 767.95149 501.43148" fill="none" stroke-width="4.7546" stroke="#7f7f7f" opacity="0.45"><title>Augmented Reality → Model: 2</title></path>
<path id="flow2" d="M12 657.31039C101.99394 657.31039 101.99394 244.26476 191.98787 244.26476" fill="none" stroke-width="2.3773" stroke="#2ca02c" opacity="0.45"><title>Authorization → Virtual World: 1</title></path>
<path id="flow5" d="M12 586.72488C101.99394 586.72488 101.99394 239.51016 191.98787 239.51016" fill="none" stroke-width="2.3773" stroke="#8c564b" opacity="0.45"><title>Availability → Virtual World: 1</title></path>
<path id="flow6" d="M12 622.01764C101.99394 622.01764 101.99394 241.88746 191.98787 241.88746" fill="none" stroke-width="2.3773" stroke="#e377c2" opacity="0.45"><title>Non-repudiation → Virtual World: 1</title></path>
<path id="flow10" d="M12 706.86695C101.99394 706.86695 101.99394 246.64206 191.98787 246.64206" fill="none" stroke-width="2.3773" stroke="#1f77b4" opacity="0.45"><title>Policy → Virtual World: 1</title></path>
<path id="flow12" d="M12 553.80943C101.99394 553.80943 101.99394 237.13286 191.98787 237.13286" fill="none" stroke-width="2.3773" stroke="#2ca02c" opacity="0.45"><title>Deniability → Virtual World: 1</title></path>
<path id="flow18" d="M12 589.10219C101.99394 589.10219 101.99394 374.64954 191.98787 374.64954" fill="none" stroke-width="2.3773" stroke="#8c564b" opacity="0.45"><title>Availability → Lifelogging: 1</title></path>
<path id="flow19" d="M12 624.39494C101.99394 624.39494 101.99394 377.02684 191.98787 377.02684" fill="none" stroke-width="2.3773" stroke="#e377c2" opacity="0.45"><title>Non-repudiation → Lifelogging: 1</title></path>
<path id="flow24" d="M12 556.18673C101.99394 556.18673 101.99394 372.27224 191.98787 372.27224" fill="none" stroke-width="2.3773" stroke="#2ca02c" opacity="0.45"><title>Deniability → Lifelogging: 1</title></path>
<path id="flow28" d="M12 69.39686C101.99394 69.39686 101.99394 407.56499 191.98787 407.56499" fill="none" stroke-width="2.3773" stroke="#d62728" opacity="0.45"><title>Integrity → Augmented Reality_1: 1</title></path>
<path id="flow37" d="M12 558.56403C101.99394 558.56403 101.99394 474.12941 191.98787 474.12941" fill="none" stroke-width="2.3773" stroke="#2ca02c" opacity="0.45"><title>Deniability → Augmented Reality_1: 1</title></path>
<path id="flow41" d="M12 71.77416C101.99394 71.77416 101.99394 528.44057 191.98787 528.44057" fill="none" stroke-width="2.3773" stroke="#d62728" opacity="0.45"><title>Integrity → Mirror World: 1</title></path>
<path id="flow42" d="M12 223.18788C101.99394 223.18788 101.99394 540.32707 191.98787 540.32707" fill="none" stroke-width="2.3773" stroke="#9467bd" opacity="0.45"><title>Identification → Mirror World: 1</title></path>
<path id="flow43" d="M12 596.23409C101.99394 596.23409 101.99394 571.23198 191.98787 571.23198" fill="none" stroke-width="2.3773" stroke="#8c564b" opacity="0.45"><title>Availability → Mirror World: 1</title></path>
<path id="flow44" d="M12 631.52684C101.99394 631.52684 101.99394 573.60928 191.98787 573.60928" fill="none" stroke-width="2.3773" stroke="#e377c2" opacity="0.45"><title>Non-repudiation → Mirror World: 1</title></path>
<path id="flow46" d="M12 355.58321C101.99394 355.58321 101.99394 552.21357 191.98787 552.21357" fill="none" stroke-width="2.3773" stroke="#bcbd22" opacity="0.45"><title>Awareness → Mirror World: 1</title></path>
<path id="flow48" d="M12 713.99885C101.99394 713.99885 101.99394 580.74118 191.98787 580.74118" fill="none" stroke-width="2.3773" stroke="#1f77b4" opacity="0.45"><title>Policy → Mirror World: 1</title></path>
<path id="flow50" d="M12 560.94133C101.99394 560.94133 101.99394 568.85468 191.98787 568.85468" fill="none" stroke-width="2.3773" stroke="#2ca02c" opacity="0.45"><title>Deniability → Mirror World: 1</title></path>
<path id="flow54" d="M203.98787 528.44057C293.98181 528.44057 293.98181 139.87842 383.97575 139.87842" fill="none" stroke-width="2.3773" stroke="#8c564b" opacity="0.45"><title>Mirror World → CHI: 1</title></path>
<path id="flow62" d="M203.98787 566.47738C293.98181 566.47738 293.98181 504.51569 383.97575 504.51569" fill="none" stroke-width="2.3773" stroke="#8c564b" opacity="0.45"><title>Mirror World → SP: 1</title></path>
<path id="flow66" d="M203.98787 564.10008C293.98181 564.10008 293.98181 454.95913 383.97575 454.95913" fill="none" stroke-width="2.3773" stroke="#8c564b" opacity="0.45"><title>Mirror World → TVCG: 1</title></path>
<path id="flow67" d="M203.98787 246.64206C293.98181 246.64206 293.98181 613.138 383.97575 613.138" fill="none" stroke-width="2.3773" stroke="#1f77b4" opacity="0.45"><title>Virtual World → UIST: 1</title></path>
<path id="flow80" d="M395.97575 139.87842C485.96968 139.87842 485.96968 467.55959 575.96362 467.55959" fill="none" stroke-width="2.3773" stroke="#d62728" opacity="0.45"><title>CHI → Extended Reality: 1</title></path>
<path id="flow89" d="M395.97575 447.82723C485.96968 447.82723 485.96968 521.87074 575.96362 521.87074" fill="none" stroke-width="2.3773" stroke="#9467bd" opacity="0.45"><title>TVCG → Mixed Reality: 1</title></path>
<path id="flow90" d="M395.97575 613.138C485.96968 613.138 485.96968 320.90046 575.96362 320.90046" fill="none" stroke-width="2.3773" stroke="#1f77b4" opacity="0.45"><title>UIST → Virtual Reality: 1</title></path>
<path id="flow95" d="M395.97575 556.44955C485.96968 556.44955 485.96968 479.44609 575.96362 479.44609" fill="none" stroke-width="2.3773" stroke="#d62728" opacity="0.45"><title>USS → Extended Reality: 1</title></path>
<path id="flow102" d="M587.96362 474.69149C677.95756 474.69149 677.95756 462.57278 767.95149 462.57278" fill="none" stroke-width="2.3773" stroke="#8c564b" opacity="0.45"><title>Extended Reality → Application: 1</title></path>
<path id="flow105" d="M587.96362 505.22964C677.95756 505.22964 677.95756 277.87684 767.95149 277.87684" fill="none" stroke-width="2.3773" stroke="#e377c2" opacity="0.45"><title>Mixed Reality → Evaluation: 1</title></path>
<path id="flow107" d="M587.96362 320.90046C677.95756 320.90046 677.95756 497.86553 767.95149 497.86553" fill="none" stroke-width="2.3773" stroke="#7f7f7f" opacity="0.45"><title>Virtual Reality → Model: 1</title></path>
<path id="flow109" d="M587.96362 526.62535C677.95756 526.62535 677.95756 507.37473 767.95149 507.37473" fill="none" stroke-width="2.3773" stroke="#7f7f7f" opacity="0.45"><title>Mixed Reality → Model: 1</title></path>
<path id="flow110" d="M587.96362 477.06879C677.95756 477.06879 677.95756 504.99743 767.95149 504.99743" fill="none" stroke-width="2.3773" stroke="#7f7f7f" opacity="0.45"><title>Extended Reality → Model: 1</title></path>
<path id="flow112" d="M587.96362 529.00265C677.95756 529.00265 677.95756 542.66748 767.95149 542.66748" fill="none" stroke-width="2.3773" stroke="#bcbd22" opacity="0.45"><title>Mixed Reality → System: 1</title></path>
<path id="flow113" d="M587.96362 479.44609C677.95756 479.44609 677.95756 540.29018 767.95149 540.29018" fill="none" stroke-width="2.3773" stroke="#bcbd22" opacity="0.45"><title>Extended Reality → System: 1</title></path>
<path id="flow117" d="M587.96362 472.31419C677.95756 472.31419 677.95756 374.97941 767.95149 374.97941" fill="none" stroke-width="2.3773" stroke="#17becf" opacity="0.45"><title>Extended Reality → Technique: 1</title></path>
</g>
<g id="sankey_nodes">
<g class="node" style="touch-action: none; -webkit-tap-highlight-color: rgba(0, 0, 0, 0);">
<rect id="r0" class="for_r0" x="0" y="96.36906" height="73.69632" width="12" fill="#17becf" fill-opacity="1"><title>Authentication:
31</title></rect>
</g>
<g class="node" style="touch-action: none; -webkit-tap-highlight-color: rgba(0, 0, 0, 0);">
<rect id="r1" class="for_r1" x="191.98787" y="124.21108" height="123.61963" width="12" fill="#1f77b4" fill-opacity="1"><title>Virtual World:
52</title></rect>
</g>
<g class="node" style="touch-action: none; -webkit-tap-highlight-color: rgba(0, 0, 0, 0);">
<rect id="r2" class="for_r2" x="0" y="484.04582" height="45.16871" width="12" fill="#ff7f0e" fill-opacity="1"><title>Confidentiality:
19</title></rect>
</g>
<g class="node" style="touch-action: none; -webkit-tap-highlight-color: rgba(0, 0, 0, 0);">
<rect id="r3" class="for_r3" x="0" y="656.12174" height="26.15031" width="12" fill="#2ca02c" fill-opacity="1"><title>Authorization:
11</title></rect>
</g>
<g class="node" style="touch-action: none; -webkit-tap-highlight-color: rgba(0, 0, 0, 0);">
<rect id="r4" class="for_r4" x="0" y="46.8125" height="26.15031" width="12" fill="#d62728" fill-opacity="1"><title>Integrity:
11</title></rect>
</g>
<g class="node" style="touch-action: none; -webkit-tap-highlight-color: rgba(0, 0, 0, 0);">
<rect id="r5" class="for_r5" x="0" y="193.47163" height="30.90491" width="12" fill="#9467bd" fill-opacity="1"><title>Identification:
13</title></rect>
</g>
<g class="node" style="touch-action: none; -webkit-tap-highlight-color: rgba(0, 0, 0, 0);">
<rect id="r6" class="for_r6" x="0" y="585.53623" height="11.8865" width="12" fill="#8c564b" fill-opacity="1"><title>Availability:
5</title></rect>
</g>
<g class="node" style="touch-action: none; -webkit-tap-highlight-color: rgba(0, 0, 0, 0);">
<rect id="r7" class="for_r7" x="0" y="620.82899" height="11.8865" width="12" fill="#e377c2" fill-opacity="1"><title>Non-repudiation:
5</title></rect>
</g>
<g class="node" style="touch-action: none; -webkit-tap-highlight-color: rgba(0, 0, 0, 0);">
<rect id="r8" class="for_r8" x="0" y="247.78278" height="54.67791" width="12" fill="#7f7f7f" fill-opacity="1"><title>Unobservability:
23</title></rect>
</g>
<g class="node" style="touch-action: none; -webkit-tap-highlight-color: rgba(0, 0, 0, 0);">
<rect id="r9" class="for_r9" x="0" y="325.86695" height="30.90491" width="12" fill="#bcbd22" fill-opacity="1"><title>Awareness:
13</title></rect>
</g>
<g class="node" style="touch-action: none; -webkit-tap-highlight-color: rgba(0, 0, 0, 0);">
<rect id="r10" class="for_r10" x="0" y="380.17811" height="33.28221" width="12" fill="#17becf" fill-opacity="1"><title>Anonymity:
14</title></rect>
</g>
<g class="node" style="touch-action: none; -webkit-tap-highlight-color: rgba(0, 0, 0, 0);">
<rect id="r11" class="for_r11" x="0" y="705.6783" height="9.5092" width="12" fill="#1f77b4" fill-opacity="1"><title>Policy:
4</title></rect>
</g>
<g class="node" style="touch-action: none; -webkit-tap-highlight-color: rgba(0, 0, 0, 0);">
<rect id="r12" class="for_r12" x="0" y="436.86656" height="23.77301" width="12" fill="#ff7f0e" fill-opacity="1"><title>Unlinkability:
10</title></rect>
</g>
<g class="node" style="touch-action: none; -webkit-tap-highlight-color: rgba(0, 0, 0, 0);">
<rect id="r13" class="for_r13" x="0" y="552.62078" height="9.5092" width="12" fill="#2ca02c" fill-opacity="1"><title>Deniability:
4</title></rect>
</g>
<g class="node" style="touch-action: none; -webkit-tap-highlight-color: rgba(0, 0, 0, 0);">
<rect id="r14" class="for_r14" x="191.98787" y="271.23696" height="111.73313" width="12" fill="#d62728" fill-opacity="1"><title>Lifelogging:
47</title></rect>
</g>
<g class="node" style="touch-action: none; -webkit-tap-highlight-color: rgba(0, 0, 0, 0);">
<rect id="r15" class="for_r15" x="191.98787" y="406.37634" height="97.46933" width="12" fill="#9467bd" fill-opacity="1"><title>Augmented Reality_1:
41</title></rect>
</g>
<g class="node" style="touch-action: none; -webkit-tap-highlight-color: rgba(0, 0, 0, 0);">
<rect id="r16" class="for_r16" x="191.98787" y="527.25192" height="54.67791" width="12" fill="#8c564b" fill-opacity="1"><title>Mirror World:
23</title></rect>
</g>
<g class="node" style="touch-action: none; -webkit-tap-highlight-color: rgba(0, 0, 0, 0);">
<rect id="r17" class="for_r17" x="383.97575" y="103.03026" height="38.03681" width="12" fill="#e377c2" fill-opacity="1"><title>CHI:
16</title></rect>
</g>
<g class="node" style="touch-action: none; -webkit-tap-highlight-color: rgba(0, 0, 0, 0);">
<rect id="r18" class="for_r18" x="383.97575" y="164.47332" height="166.41104" width="12" fill="#7f7f7f" fill-opacity="1"><title>Other Venues:
70</title></rect>
</g>
<g class="node" style="touch-action: none; -webkit-tap-highlight-color: rgba(0, 0, 0, 0);">
<rect id="r19" class="for_r19" x="383.97575" y="479.55403" height="26.15031" width="12" fill="#bcbd22" fill-opacity="1"><title>SP:
11</title></rect>
</g>
<g class="node" style="touch-action: none; -webkit-tap-highlight-color: rgba(0, 0, 0, 0);">
<rect id="r20" class="for_r20" x="383.97575" y="434.75208" height="21.39571" width="12" fill="#17becf" fill-opacity="1"><title>TVCG:
9</title></rect>
</g>
<g class="node" style="touch-action: none; -webkit-tap-highlight-color: rgba(0, 0, 0, 0);">
<rect id="r21" class="for_r21" x="383.97575" y="611.94935" height="19.0184" width="12" fill="#1f77b4" fill-opacity="1"><title>UIST:
8</title></rect>
</g>
<g class="node" style="touch-action: none; -webkit-tap-highlight-color: rgba(0, 0, 0, 0);">
<rect id="r22" class="for_r22" x="383.97575" y="529.11059" height="59.43252" width="12" fill="#ff7f0e" fill-opacity="1"><title>USS:
25</title></rect>
</g>
<g class="node" style="touch-action: none; -webkit-tap-highlight-color: rgba(0, 0, 0, 0);">
<rect id="r23" class="for_r23" x="383.97575" y="354.29061" height="57.05521" width="12" fill="#2ca02c" fill-opacity="1"><title>VR:
24</title></rect>
</g>
<g class="node" style="touch-action: none; -webkit-tap-highlight-color: rgba(0, 0, 0, 0);">
<rect id="r24" class="for_r24" x="575.96362" y="212.73328" height="109.35583" width="12" fill="#1f77b4" fill-opacity="1"><title>Virtual Reality:
46</title></rect>
</g>
<g class="node" style="touch-action: none; -webkit-tap-highlight-color: rgba(0, 0, 0, 0);">
<rect id="r25" class="for_r25" x="575.96362" y="345.49536" height="97.46933" width="12" fill="#9467bd" fill-opacity="1"><title>Augmented Reality:
41</title></rect>
</g>
<g class="node" style="touch-action: none; -webkit-tap-highlight-color: rgba(0, 0, 0, 0);">
<rect id="r26" class="for_r26" x="575.96362" y="466.37094" height="14.2638" width="12" fill="#d62728" fill-opacity="1"><title>Extended Reality:
6</title></rect>
</g>
<g class="node" style="touch-action: none; -webkit-tap-highlight-color: rgba(0, 0, 0, 0);">
<rect id="r27" class="for_r27" x="575.96362" y="504.04099" height="26.15031" width="12" fill="#9467bd" fill-opacity="1"><title>Mixed Reality:
11</title></rect>
</g>
<g class="node" style="touch-action: none; -webkit-tap-highlight-color: rgba(0, 0, 0, 0);">
<rect id="r28" class="for_r28" x="767.95149" y="409.08351" height="64.18712" width="12" fill="#8c564b" fill-opacity="1"><title>Application:
27</title></rect>
</g>
<g class="node" style="touch-action: none; -webkit-tap-highlight-color: rgba(0, 0, 0, 0);">
<rect id="r29" class="for_r29" x="767.95149" y="202.99187" height="76.07362" width="12" fill="#e377c2" fill-opacity="1"><title>Evaluation:
32</title></rect>
</g>
<g class="node" style="touch-action: none; -webkit-tap-highlight-color: rgba(0, 0, 0, 0);">
<rect id="r30" class="for_r30" x="767.95149" y="496.67688" height="11.8865" width="12" fill="#7f7f7f" fill-opacity="1"><title>Model:
5</title></rect>
</g>
<g class="node" style="touch-action: none; -webkit-tap-highlight-color: rgba(0, 0, 0, 0);">
<rect id="r31" class="for_r31" x="767.95149" y="531.96963" height="11.8865" width="12" fill="#bcbd22" fill-opacity="1"><title>System:
5</title></rect>
</g>
<g class="node" style="touch-action: none; -webkit-tap-highlight-color: rgba(0, 0, 0, 0);">
<rect id="r32" class="for_r32" x="767.95149" y="302.47174" height="83.20552" width="12" fill="#17becf" fill-opacity="1"><title>Technique:
35</title></rect>
</g>
</g>
<g id="sankey_labels" font-family="sans-serif" font-size="16px" fill="#000000">
<text id="label0" class="for_r0" text-anchor="end" x="-6.29902" y="133.21722" font-weight="400" font-size="14.4px" dy="-5.10401">Authentication<tspan x="-6.29902" dy="19.32" font-weight="400" font-size="17.6px">31</tspan></text>
<text id="label1" class="for_r1" text-anchor="end" x="185.68886" y="186.0209" font-weight="400" font-size="14.4px" dy="-5.10401">Virtual World<tspan x="185.68886" dy="19.32" font-weight="400" font-size="17.6px">52</tspan></text>
<text id="label2" class="for_r2" text-anchor="end" x="-6.29902" y="506.63018" font-weight="400" font-size="14.4px" dy="-5.10401">Confidentiality<tspan x="-6.29902" dy="19.32" font-weight="400" font-size="17.6px">19</tspan></text>
<text id="label3" class="for_r3" text-anchor="end" x="-6.29902" y="669.19689" font-weight="400" font-size="14.4px" dy="-5.10401">Authorization<tspan x="-6.29902" dy="19.32" font-weight="400" font-size="17.6px">11</tspan></text>
<text id="label4" class="for_r4" text-anchor="end" x="-6.29902" y="59.88765" font-weight="400" font-size="14.4px" dy="-5.10401">Integrity<tspan x="-6.29902" dy="19.32" font-weight="400" font-size="17.6px">11</tspan></text>
<text id="label5" class="for_r5" text-anchor="end" x="-6.29902" y="208.92408" font-weight="400" font-size="14.4px" dy="-5.10401">Identification<tspan x="-6.29902" dy="19.32" font-weight="400" font-size="17.6px">13</tspan></text>
<text id="label6" class="for_r6" text-anchor="end" x="-6.29902" y="591.47949" font-weight="400" font-size="14.4px" dy="-5.10401">Availability<tspan x="-6.29902" dy="19.32" font-weight="400" font-size="17.6px">5</tspan></text>
<text id="label7" class="for_r7" text-anchor="end" x="-6.29902" y="626.77224" font-weight="400" font-size="14.4px" dy="-5.10401">Non-repudiation<tspan x="-6.29902" dy="19.32" font-weight="400" font-size="17.6px">5</tspan></text>
<text id="label8" class="for_r8" text-anchor="end" x="-6.29902" y="275.12174" font-weight="400" font-size="14.4px" dy="-5.10401">Unobservability<tspan x="-6.29902" dy="19.32" font-weight="400" font-size="17.6px">23</tspan></text>
<text id="label9" class="for_r9" text-anchor="end" x="-6.29902" y="341.3194" font-weight="400" font-size="14.4px" dy="-5.10401">Awareness<tspan x="-6.29902" dy="19.32" font-weight="400" font-size="17.6px">13</tspan></text>
<text id="label10" class="for_r10" text-anchor="end" x="-6.29902" y="396.81921" font-weight="400" font-size="14.4px" dy="-5.10401">Anonymity<tspan x="-6.29902" dy="19.32" font-weight="400" font-size="17.6px">14</tspan></text>
<text id="label11" class="for_r11" text-anchor="end" x="-6.29902" y="710.4329" font-weight="400" font-size="14.4px" dy="-5.10401">Policy<tspan x="-6.29902" dy="19.32" font-weight="400" font-size="17.6px">4</tspan></text>
<text id="label12" class="for_r12" text-anchor="end" x="-6.29902" y="448.75307" font-weight="400" font-size="14.4px" dy="-5.10401">Unlinkability<tspan x="-6.29902" dy="19.32" font-weight="400" font-size="17.6px">10</tspan></text>
<text id="label13" class="for_r13" text-anchor="end" x="-6.29902" y="557.37538" font-weight="400" font-size="14.4px" dy="-5.10401">Deniability<tspan x="-6.29902" dy="19.32" font-weight="400" font-size="17.6px">4</tspan></text>
<text id="label14" class="for_r14" text-anchor="end" x="185.68886" y="327.10353" font-weight="400" font-size="14.4px" dy="-5.10401">Lifelogging<tspan x="185.68886" dy="19.32" font-weight="400" font-size="17.6px">47</tspan></text>
<text id="label15" class="for_r15" text-anchor="end" x="185.68886" y="455.111" font-weight="400" font-size="14.4px" dy="-5.10401">Augmented Reality_1<tspan x="185.68886" dy="19.32" font-weight="400" font-size="17.6px">41</tspan></text>
<text id="label16" class="for_r16" text-anchor="end" x="185.68886" y="554.59087" font-weight="400" font-size="14.4px" dy="-5.10401">Mirror World<tspan x="185.68886" dy="19.32" font-weight="400" font-size="17.6px">23</tspan></text>
<text id="label17" class="for_r17" text-anchor="end" x="377.67673" y="122.04866" font-weight="400" font-size="14.4px" dy="-5.10401">CHI<tspan x="377.67673" dy="19.32" font-weight="400" font-size="17.6px">16</tspan></text>
<text id="label18" class="for_r18" text-anchor="end" x="377.67673" y="247.67884" font-weight="400" font-size="14.4px" dy="-5.10401">Other Venues<tspan x="377.67673" dy="19.32" font-weight="400" font-size="17.6px">70</tspan></text>
<text id="label19" class="for_r19" text-anchor="end" x="377.67673" y="492.62919" font-weight="400" font-size="14.4px" dy="-5.10401">SP<tspan x="377.67673" dy="19.32" font-weight="400" font-size="17.6px">11</tspan></text>
<text id="label20" class="for_r20" text-anchor="end" x="377.67673" y="445.44993" font-weight="400" font-size="14.4px" dy="-5.10401">TVCG<tspan x="377.67673" dy="19.32" font-weight="400" font-size="17.6px">9</tspan></text>
<text id="label21" class="for_r21" text-anchor="end" x="377.67673" y="621.45856" font-weight="400" font-size="14.4px" dy="-5.10401">UIST<tspan x="377.67673" dy="19.32" font-weight="400" font-size="17.6px">8</tspan></text>
<text id="label22" class="for_r22" text-anchor="end" x="377.67673" y="558.82685" font-weight="400" font-size="14.4px" dy="-5.10401">USS<tspan x="377.67673" dy="19.32" font-weight="400" font-size="17.6px">25</tspan></text>
<text id="label23" class="for_r23" text-anchor="end" x="377.67673" y="382.81822" font-weight="400" font-size="14.4px" dy="-5.10401">VR<tspan x="377.67673" dy="19.32" font-weight="400" font-size="17.6px">24</tspan></text>
<text id="label24" class="for_r24" text-anchor="end" x="569.6646" y="267.4112" font-weight="400" font-size="14.4px" dy="-5.10401">Virtual Reality<tspan x="569.6646" dy="19.32" font-weight="400" font-size="17.6px">46</tspan></text>
<text id="label25" class="for_r25" text-anchor="end" x="569.6646" y="394.23002" font-weight="400" font-size="14.4px" dy="-5.10401">Augmented Reality<tspan x="569.6646" dy="19.32" font-weight="400" font-size="17.6px">41</tspan></text>
<text id="label26" class="for_r26" text-anchor="end" x="569.6646" y="473.50284" font-weight="400" font-size="14.4px" dy="-5.10401">Extended Reality<tspan x="569.6646" dy="19.32" font-weight="400" font-size="17.6px">6</tspan></text>
<text id="label27" class="for_r27" text-anchor="end" x="569.6646" y="517.11614" font-weight="400" font-size="14.4px" dy="-5.10401">Mixed Reality<tspan x="569.6646" dy="19.32" font-weight="400" font-size="17.6px">11</tspan></text>
<text id="label28" class="for_r28" text-anchor="start" x="786.25051" y="441.17707" font-weight="400" font-size="14.4px" dy="-5.10401">Application<tspan x="786.25051" dy="19.32" font-weight="400" font-size="17.6px">27</tspan></text>
<text id="label29" class="for_r29" text-anchor="start" x="786.25051" y="241.02868" font-weight="400" font-size="14.4px" dy="-5.10401">Evaluation<tspan x="786.25051" dy="19.32" font-weight="400" font-size="17.6px">32</tspan></text>
<text id="label30" class="for_r30" text-anchor="start" x="786.25051" y="502.62013" font-weight="400" font-size="14.4px" dy="-5.10401">Model<tspan x="786.25051" dy="19.32" font-weight="400" font-size="17.6px">5</tspan></text>
<text id="label31" class="for_r31" text-anchor="start" x="786.25051" y="537.91288" font-weight="400" font-size="14.4px" dy="-5.10401">System<tspan x="786.25051" dy="19.32" font-weight="400" font-size="17.6px">5</tspan></text>
<text id="label32" class="for_r32" text-anchor="start" x="786.25051" y="344.0745" font-weight="400" font-size="14.4px" dy="-5.10401">Technique<tspan x="786.25051" dy="19.32" font-weight="400" font-size="17.6px">35</tspan></text>
</g>
</g></svg>