<svg class="main-svg" xmlns="http://www.w3.org/2000/svg" xmlns:xlink="http://www.w3.org/1999/xlink" width="1200" height="800" style="" viewBox="0 0 1200 800"><rect x="0" y="0" width="1200" height="800" style="fill: rgb(255, 255, 255); fill-opacity: 1;"/><defs id="defs-9343b1"><g class="clips"/><g class="gradients"/><g class="patterns"/></defs><g class="bglayer"/><g class="layer-below"><g class="imagelayer"/><g class="shapelayer"/></g><g class="cartesianlayer"/><g class="polarlayer"/><g class="smithlayer"/><g class="ternarylayer"/><g class="geolayer"/><g class="funnelarealayer"/><g class="pielayer"/><g class="iciclelayer"/><g class="treemaplayer"/><g class="sunburstlayer"/><g class="glimages"/><g class="sankey" transform="translate(20,20)matrix(1 0 0 1 0 0)" style="box-sizing: content-box; position: absolute; left: 0px; shape-rendering: geometricprecision; pointer-events: none;"><g class="sankey-links" style="fill: none;"><path class="sankey-link" d="M20,450.6410256410266C152.5,450.6410256410266 152.5,509.91452991453053 285,509.91452991453053L285,544.0170940170947C152.5,544.0170940170947 152.5,484.7435897435907 20,484.7435897435907Z" style="stroke: rgb(68, 68, 68); stroke-opacity: 1; fill: rgb(240, 248, 255); fill-opacity: 1; stroke-width: 0; opacity: 1;"/><path class="sankey-link" d="M20,484.7435897435907C152.5,484.7435897435907 152.5,613.0341880341883 285,613.0341880341883L285,627.6495726495729C152.5,627.6495726495729 152.5,499.35897435897533 20,499.35897435897533Z" style="stroke: rgb(68, 68, 68); stroke-opacity: 1; fill: rgb(240, 248, 255); fill-opacity: 1; stroke-width: 0; opacity: 1;"/><path class="sankey-link" d="M20,443.3333333333343C152.5,443.3333333333343 152.5,457.9487179487186 285,457.9487179487186L285,465.25641025641085C152.5,465.25641025641085 152.5,450.64102564102654 20,450.64102564102654Z" style="stroke: rgb(68, 68, 68); stroke-opacity: 1; fill: rgb(240, 248, 255); fill-opacity: 1; stroke-width: 0; opacity: 1;"/><path class="sankey-link" d="M20,499.35897435897533C152.5,499.35897435897533 152.5,750.2564102564104 285,750.2564102564104L285,755.1282051282053C152.5,755.1282051282053 152.5,504.23076923077025 20,504.23076923077025Z" style="stroke: rgb(68, 68, 68); stroke-opacity: 1; fill: rgb(240, 248, 255); fill-opacity: 1; stroke-width: 0; opacity: 1;"/><path class="sankey-link" d="M20,375.1282051282061C152.5,375.1282051282061 152.5,332.9059829059834 285,332.9059829059834L285,401.1111111111116C152.5,401.1111111111116 152.5,443.3333333333343 20,443.3333333333343Z" style="stroke: rgb(68, 68, 68); stroke-opacity: 1; fill: rgb(240, 248, 255); fill-opacity: 1; stroke-width: 0; opacity: 1;"/><path class="sankey-link" d="M20,558.6324786324795C152.5,558.6324786324795 152.5,544.0170940170946 285,544.0170940170946L285,558.6324786324791C152.5,558.6324786324791 152.5,573.2478632478641 20,573.2478632478641Z" style="stroke: rgb(68, 68, 68); stroke-opacity: 1; fill: rgb(250, 235, 215); fill-opacity: 1; stroke-width: 0; opacity: 1;"/><path class="sankey-link" d="M20,573.2478632478642C152.5,573.2478632478642 152.5,627.649572649573 285,627.649572649573L285,673.9316239316242C152.5,673.9316239316242 152.5,619.5299145299155 20,619.5299145299155Z" style="stroke: rgb(68, 68, 68); stroke-opacity: 1; fill: rgb(250, 235, 215); fill-opacity: 1; stroke-width: 0; opacity: 1;"/><path class="sankey-link" d="M20,556.1965811965821C152.5,556.1965811965821 152.5,465.2564102564109 285,465.2564102564109L285,467.69230769230836C152.5,467.69230769230836 152.5,558.6324786324795 20,558.6324786324795Z" style="stroke: rgb(68, 68, 68); stroke-opacity: 1; fill: rgb(250, 235, 215); fill-opacity: 1; stroke-width: 0; opacity: 1;"/><path class="sankey-link" d="M20,546.4529914529924C152.5,546.4529914529924 152.5,401.11111111111165 285,401.11111111111165L285,410.8547008547014C152.5,410.8547008547014 152.5,556.1965811965822 20,556.1965811965822Z" style="stroke: rgb(68, 68, 68); stroke-opacity: 1; fill: rgb(250, 235, 215); fill-opacity: 1; stroke-width: 0; opacity: 1;"/><path class="sankey-link" d="M20,740.5128205128208C152.5,740.5128205128208 152.5,565.9401709401715 285,565.9401709401715L285,570.8119658119664C152.5,570.8119658119664 152.5,745.3846153846157 20,745.3846153846157Z" style="stroke: rgb(68, 68, 68); stroke-opacity: 1; fill: rgb(0, 255, 255); fill-opacity: 1; stroke-width: 0; opacity: 1;"/><path class="sankey-link" d="M20,745.3846153846157C152.5,745.3846153846157 152.5,693.4188034188037 285,693.4188034188037L285,708.0341880341882C152.5,708.0341880341882 152.5,760.0000000000002 20,760.0000000000002Z" style="stroke: rgb(68, 68, 68); stroke-opacity: 1; fill: rgb(0, 255, 255); fill-opacity: 1; stroke-width: 0; opacity: 1;"/><path class="sankey-link" d="M20,738.0769230769233C152.5,738.0769230769233 152.5,413.29059829059884 285,413.29059829059884L285,415.7264957264963C152.5,415.7264957264963 152.5,740.5128205128208 20,740.5128205128208Z" style="stroke: rgb(68, 68, 68); stroke-opacity: 1; fill: rgb(0, 255, 255); fill-opacity: 1; stroke-width: 0; opacity: 1;"/><path class="sankey-link" d="M20,664.1880341880346C152.5,664.1880341880346 152.5,558.6324786324792 285,558.6324786324792L285,565.9401709401716C152.5,565.9401709401716 152.5,671.495726495727 20,671.495726495727Z" style="stroke: rgb(68, 68, 68); stroke-opacity: 1; fill: rgb(127, 255, 212); fill-opacity: 1; stroke-width: 0; opacity: 1;"/><path class="sankey-link" d="M20,671.4957264957269C152.5,671.4957264957269 152.5,673.9316239316242 285,673.9316239316242L285,693.4188034188037C152.5,693.4188034188037 152.5,690.9829059829063 20,690.9829059829063Z" style="stroke: rgb(68, 68, 68); stroke-opacity: 1; fill: rgb(127, 255, 212); fill-opacity: 1; stroke-width: 0; opacity: 1;"/><path class="sankey-link" d="M20,690.9829059829063C152.5,690.9829059829063 152.5,755.1282051282053 285,755.1282051282053L285,760.0000000000002C152.5,760.0000000000002 152.5,695.8547008547013 20,695.8547008547013Z" style="stroke: rgb(68, 68, 68); stroke-opacity: 1; fill: rgb(127, 255, 212); fill-opacity: 1; stroke-width: 0; opacity: 1;"/><path class="sankey-link" d="M20,661.7521367521372C152.5,661.7521367521372 152.5,410.8547008547014 285,410.8547008547014L285,413.29059829059884C152.5,413.29059829059884 152.5,664.1880341880346 20,664.1880341880346Z" style="stroke: rgb(68, 68, 68); stroke-opacity: 1; fill: rgb(127, 255, 212); fill-opacity: 1; stroke-width: 0; opacity: 1;"/><path class="sankey-link" d="M305,526.9658119658126C437.5,526.9658119658126 437.5,481.4957264957263 570,481.4957264957263L570,496.1111111111109C437.5,496.1111111111109 437.5,541.5811965811971 305,541.5811965811971Z" style="stroke: rgb(68, 68, 68); stroke-opacity: 1; fill: rgb(240, 255, 255); fill-opacity: 1; stroke-width: 0; opacity: 1;"/><path class="sankey-link" d="M305,553.7606837606844C437.5,553.7606837606844 437.5,686.1111111111111 570,686.1111111111111L570,688.5470085470085C437.5,688.5470085470085 437.5,556.1965811965819 305,556.1965811965819Z" style="stroke: rgb(68, 68, 68); stroke-opacity: 1; fill: rgb(240, 255, 255); fill-opacity: 1; stroke-width: 0; opacity: 1;"/><path class="sankey-link" d="M305,524.5299145299151C437.5,524.5299145299151 437.5,427.0940170940169 570,427.0940170940169L570,429.5299145299144C437.5,429.5299145299144 437.5,526.9658119658126 305,526.9658119658126Z" style="stroke: rgb(68, 68, 68); stroke-opacity: 1; fill: rgb(240, 255, 255); fill-opacity: 1; stroke-width: 0; opacity: 1;"/><path class="sankey-link" d="M305,509.9145299145304C437.5,509.9145299145304 437.5,328.8461538461534 570,328.8461538461534L570,343.46153846153805C437.5,343.46153846153805 437.5,524.529914529915 305,524.529914529915Z" style="stroke: rgb(68, 68, 68); stroke-opacity: 1; fill: rgb(240, 255, 255); fill-opacity: 1; stroke-width: 0; opacity: 1;"/><path class="sankey-link" d="M305,556.1965811965819C437.5,556.1965811965819 437.5,735.6410256410259 570,735.6410256410259L570,740.5128205128208C437.5,740.5128205128208 437.5,561.0683760683768 305,561.0683760683768Z" style="stroke: rgb(68, 68, 68); stroke-opacity: 1; fill: rgb(240, 255, 255); fill-opacity: 1; stroke-width: 0; opacity: 1;"/><path class="sankey-link" d="M305,541.5811965811972C437.5,541.5811965811972 437.5,567.5641025641022 570,567.5641025641022L570,572.4358974358971C437.5,572.4358974358971 437.5,546.4529914529921 305,546.4529914529921Z" style="stroke: rgb(68, 68, 68); stroke-opacity: 1; fill: rgb(240, 255, 255); fill-opacity: 1; stroke-width: 0; opacity: 1;"/><path class="sankey-link" d="M305,546.4529914529921C437.5,546.4529914529921 437.5,626.8376068376067 570,626.8376068376067L570,634.1452991452991C437.5,634.1452991452991 437.5,553.7606837606845 305,553.7606837606845Z" style="stroke: rgb(68, 68, 68); stroke-opacity: 1; fill: rgb(240, 255, 255); fill-opacity: 1; stroke-width: 0; opacity: 1;"/><path class="sankey-link" d="M305,642.2649572649576C437.5,642.2649572649576 437.5,496.1111111111109 570,496.1111111111109L570,505.85470085470064C437.5,505.85470085470064 437.5,652.0085470085475 305,652.0085470085475Z" style="stroke: rgb(68, 68, 68); stroke-opacity: 1; fill: rgb(245, 245, 220); fill-opacity: 1; stroke-width: 0; opacity: 1;"/><path class="sankey-link" d="M305,613.0341880341883C437.5,613.0341880341883 437.5,343.46153846153805 570,343.46153846153805L570,370.2564102564099C437.5,370.2564102564099 437.5,639.8290598290602 305,639.8290598290602Z" style="stroke: rgb(68, 68, 68); stroke-opacity: 1; fill: rgb(245, 245, 220); fill-opacity: 1; stroke-width: 0; opacity: 1;"/><path class="sankey-link" d="M305,669.0598290598294C437.5,669.0598290598294 437.5,740.5128205128208 570,740.5128205128208L570,757.5641025641028C437.5,757.5641025641028 437.5,686.1111111111114 305,686.1111111111114Z" style="stroke: rgb(68, 68, 68); stroke-opacity: 1; fill: rgb(245, 245, 220); fill-opacity: 1; stroke-width: 0; opacity: 1;"/><path class="sankey-link" d="M305,659.3162393162396C437.5,659.3162393162396 437.5,634.145299145299 570,634.145299145299L570,639.0170940170939C437.5,639.0170940170939 437.5,664.1880341880345 305,664.1880341880345Z" style="stroke: rgb(68, 68, 68); stroke-opacity: 1; fill: rgb(245, 245, 220); fill-opacity: 1; stroke-width: 0; opacity: 1;"/><path class="sankey-link" d="M305,652.0085470085473C437.5,652.0085470085473 437.5,572.4358974358971 570,572.4358974358971L570,579.7435897435895C437.5,579.7435897435895 437.5,659.3162393162397 305,659.3162393162397Z" style="stroke: rgb(68, 68, 68); stroke-opacity: 1; fill: rgb(245, 245, 220); fill-opacity: 1; stroke-width: 0; opacity: 1;"/><path class="sankey-link" d="M305,664.1880341880345C437.5,664.1880341880345 437.5,688.5470085470085 570,688.5470085470085L570,693.4188034188035C437.5,693.4188034188035 437.5,669.0598290598294 305,669.0598290598294Z" style="stroke: rgb(68, 68, 68); stroke-opacity: 1; fill: rgb(245, 245, 220); fill-opacity: 1; stroke-width: 0; opacity: 1;"/><path class="sankey-link" d="M305,639.8290598290602C437.5,639.8290598290602 437.5,429.5299145299144 570,429.5299145299144L570,431.96581196581184C437.5,431.96581196581184 437.5,642.2649572649576 305,642.2649572649576Z" style="stroke: rgb(68, 68, 68); stroke-opacity: 1; fill: rgb(245, 245, 220); fill-opacity: 1; stroke-width: 0; opacity: 1;"/><path class="sankey-link" d="M305,457.9487179487186C437.5,457.9487179487186 437.5,319.1025641025637 570,319.1025641025637L570,328.8461538461534C437.5,328.8461538461534 437.5,467.6923076923083 305,467.6923076923083Z" style="stroke: rgb(68, 68, 68); stroke-opacity: 1; fill: rgb(255, 228, 196); fill-opacity: 1; stroke-width: 0; opacity: 1;"/><path class="sankey-link" d="M305,757.5641025641027C437.5,757.5641025641027 437.5,757.5641025641029 570,757.5641025641029L570,760.0000000000003C437.5,760.0000000000003 437.5,760.0000000000001 305,760.0000000000001Z" style="stroke: rgb(68, 68, 68); stroke-opacity: 1; fill: rgb(0, 0, 0); fill-opacity: 1; stroke-width: 0; opacity: 1;"/><path class="sankey-link" d="M305,750.2564102564104C437.5,750.2564102564104 437.5,370.2564102564098 570,370.2564102564098L570,377.5641025641021C437.5,377.5641025641021 437.5,757.5641025641028 305,757.5641025641028Z" style="stroke: rgb(68, 68, 68); stroke-opacity: 1; fill: rgb(0, 0, 0); fill-opacity: 1; stroke-width: 0; opacity: 1;"/><path class="sankey-link" d="M305,391.36752136752193C437.5,391.36752136752193 437.5,621.9658119658118 570,621.9658119658118L570,626.8376068376067C437.5,626.8376068376067 437.5,396.23931623931685 305,396.23931623931685Z" style="stroke: rgb(68, 68, 68); stroke-opacity: 1; fill: rgb(255, 235, 205); fill-opacity: 1; stroke-width: 0; opacity: 1;"/><path class="sankey-link" d="M305,332.9059829059834C437.5,332.9059829059834 437.5,294.7435897435893 570,294.7435897435893L570,319.1025641025637C437.5,319.1025641025637 437.5,357.2649572649578 305,357.2649572649578Z" style="stroke: rgb(68, 68, 68); stroke-opacity: 1; fill: rgb(255, 235, 205); fill-opacity: 1; stroke-width: 0; opacity: 1;"/><path class="sankey-link" d="M305,364.5726495726501C437.5,364.5726495726501 437.5,474.18803418803395 570,474.18803418803395L570,481.4957264957262C437.5,481.4957264957262 437.5,371.88034188034237 305,371.88034188034237Z" style="stroke: rgb(68, 68, 68); stroke-opacity: 1; fill: rgb(255, 235, 205); fill-opacity: 1; stroke-width: 0; opacity: 1;"/><path class="sankey-link" d="M305,396.2393162393168C437.5,396.2393162393168 437.5,681.2393162393162 570,681.2393162393162L570,686.1111111111111C437.5,686.1111111111111 437.5,401.1111111111117 305,401.1111111111117Z" style="stroke: rgb(68, 68, 68); stroke-opacity: 1; fill: rgb(255, 235, 205); fill-opacity: 1; stroke-width: 0; opacity: 1;"/><path class="sankey-link" d="M305,357.2649572649578C437.5,357.2649572649578 437.5,419.7863247863246 570,419.7863247863246L570,427.09401709401686C437.5,427.09401709401686 437.5,364.57264957265005 305,364.57264957265005Z" style="stroke: rgb(68, 68, 68); stroke-opacity: 1; fill: rgb(255, 235, 205); fill-opacity: 1; stroke-width: 0; opacity: 1;"/><path class="sankey-link" d="M305,371.8803418803424C437.5,371.8803418803424 437.5,548.0769230769228 570,548.0769230769228L570,567.5641025641022C437.5,567.5641025641022 437.5,391.3675213675219 305,391.3675213675219Z" style="stroke: rgb(68, 68, 68); stroke-opacity: 1; fill: rgb(255, 235, 205); fill-opacity: 1; stroke-width: 0; opacity: 1;"/><path class="sankey-link" d="M590,474.18803418803395C722.5,474.18803418803395 722.5,61.70940170940306 855,61.70940170940306L855,66.58119658119793C722.5,66.58119658119793 722.5,479.05982905982887 590,479.05982905982887Z" style="stroke: rgb(68, 68, 68); stroke-opacity: 1; fill: rgb(0, 0, 255); fill-opacity: 1; stroke-width: 0; opacity: 1;"/><path class="sankey-link" d="M590,479.0598290598288C722.5,479.0598290598288 722.5,125.8547008547022 855,125.8547008547022L855,130.72649572649706C722.5,130.72649572649706 722.5,483.93162393162373 590,483.93162393162373Z" style="stroke: rgb(68, 68, 68); stroke-opacity: 1; fill: rgb(0, 0, 255); fill-opacity: 1; stroke-width: 0; opacity: 1;"/><path class="sankey-link" d="M590,488.80341880341854C722.5,488.80341880341854 722.5,306.11111111111234 855,306.11111111111234L855,308.5470085470098C722.5,308.5470085470098 722.5,491.239316239316 590,491.239316239316Z" style="stroke: rgb(68, 68, 68); stroke-opacity: 1; fill: rgb(0, 0, 255); fill-opacity: 1; stroke-width: 0; opacity: 1;"/><path class="sankey-link" d="M590,483.9316239316237C722.5,483.9316239316237 722.5,194.87179487179606 855,194.87179487179606L855,199.74358974359092C722.5,199.74358974359092 722.5,488.8034188034186 590,488.8034188034186Z" style="stroke: rgb(68, 68, 68); stroke-opacity: 1; fill: rgb(0, 0, 255); fill-opacity: 1; stroke-width: 0; opacity: 1;"/><path class="sankey-link" d="M590,500.9829059829057C722.5,500.9829059829057 722.5,572.435897435898 855,572.435897435898L855,574.8717948717955C722.5,574.8717948717955 722.5,503.4188034188032 590,503.4188034188032Z" style="stroke: rgb(68, 68, 68); stroke-opacity: 1; fill: rgb(0, 0, 255); fill-opacity: 1; stroke-width: 0; opacity: 1;"/><path class="sankey-link" d="M590,491.239316239316C722.5,491.239316239316 722.5,360.51282051282163 855,360.51282051282163L855,370.25641025641136C722.5,370.25641025641136 722.5,500.9829059829057 590,500.9829059829057Z" style="stroke: rgb(68, 68, 68); stroke-opacity: 1; fill: rgb(0, 0, 255); fill-opacity: 1; stroke-width: 0; opacity: 1;"/><path class="sankey-link" d="M590,503.4188034188032C722.5,503.4188034188032 722.5,690.9829059829065 855,690.9829059829065L855,693.4188034188039C722.5,693.4188034188039 722.5,505.85470085470064 590,505.85470085470064Z" style="stroke: rgb(68, 68, 68); stroke-opacity: 1; fill: rgb(0, 0, 255); fill-opacity: 1; stroke-width: 0; opacity: 1;"/><path class="sankey-link" d="M590,690.982905982906C722.5,690.982905982906 722.5,695.8547008547014 855,695.8547008547014L855,698.2905982905988C722.5,698.2905982905988 722.5,693.4188034188035 590,693.4188034188035Z" style="stroke: rgb(68, 68, 68); stroke-opacity: 1; fill: rgb(138, 43, 226); fill-opacity: 1; stroke-width: 0; opacity: 1;"/><path class="sankey-link" d="M590,686.1111111111111C722.5,686.1111111111111 722.5,636.5811965811971 855,636.5811965811971L855,641.452991452992C722.5,641.452991452992 722.5,690.982905982906 590,690.982905982906Z" style="stroke: rgb(68, 68, 68); stroke-opacity: 1; fill: rgb(138, 43, 226); fill-opacity: 1; stroke-width: 0; opacity: 1;"/><path class="sankey-link" d="M590,683.6752136752136C722.5,683.6752136752136 722.5,577.307692307693 855,577.307692307693L855,579.7435897435904C722.5,579.7435897435904 722.5,686.1111111111111 590,686.1111111111111Z" style="stroke: rgb(68, 68, 68); stroke-opacity: 1; fill: rgb(138, 43, 226); fill-opacity: 1; stroke-width: 0; opacity: 1;"/><path class="sankey-link" d="M590,681.2393162393162C722.5,681.2393162393162 722.5,133.1623931623945 855,133.1623931623945L855,135.59829059829195C722.5,135.59829059829195 722.5,683.6752136752136 590,683.6752136752136Z" style="stroke: rgb(68, 68, 68); stroke-opacity: 1; fill: rgb(138, 43, 226); fill-opacity: 1; stroke-width: 0; opacity: 1;"/><path class="sankey-link" d="M590,429.5299145299144C722.5,429.5299145299144 722.5,570.0000000000006 855,570.0000000000006L855,572.435897435898C722.5,572.435897435898 722.5,431.96581196581184 590,431.96581196581184Z" style="stroke: rgb(68, 68, 68); stroke-opacity: 1; fill: rgb(165, 42, 42); fill-opacity: 1; stroke-width: 0; opacity: 1;"/><path class="sankey-link" d="M590,419.7863247863246C722.5,419.7863247863246 722.5,123.41880341880476 855,123.41880341880476L855,125.85470085470219C722.5,125.85470085470219 722.5,422.22222222222206 590,422.22222222222206Z" style="stroke: rgb(68, 68, 68); stroke-opacity: 1; fill: rgb(165, 42, 42); fill-opacity: 1; stroke-width: 0; opacity: 1;"/><path class="sankey-link" d="M590,422.22222222222206C722.5,422.22222222222206 722.5,244.40170940171058 855,244.40170940171058L855,249.27350427350544C722.5,249.27350427350544 722.5,427.094017094017 590,427.094017094017Z" style="stroke: rgb(68, 68, 68); stroke-opacity: 1; fill: rgb(165, 42, 42); fill-opacity: 1; stroke-width: 0; opacity: 1;"/><path class="sankey-link" d="M590,427.0940170940169C722.5,427.0940170940169 722.5,358.0769230769242 855,358.0769230769242L855,360.51282051282163C722.5,360.51282051282163 722.5,429.5299145299144 590,429.5299145299144Z" style="stroke: rgb(68, 68, 68); stroke-opacity: 1; fill: rgb(165, 42, 42); fill-opacity: 1; stroke-width: 0; opacity: 1;"/><path class="sankey-link" d="M590,309.3589743589739C722.5,309.3589743589739 722.5,116.11111111111245 855,116.11111111111245L855,123.41880341880477C722.5,123.41880341880477 722.5,316.6666666666662 590,316.6666666666662Z" style="stroke: rgb(68, 68, 68); stroke-opacity: 1; fill: rgb(222, 184, 135); fill-opacity: 1; stroke-width: 0; opacity: 1;"/><path class="sankey-link" d="M590,316.66666666666623C722.5,316.66666666666623 722.5,190.0000000000012 855,190.0000000000012L855,194.87179487179606C722.5,194.87179487179606 722.5,321.53846153846115 590,321.53846153846115Z" style="stroke: rgb(68, 68, 68); stroke-opacity: 1; fill: rgb(222, 184, 135); fill-opacity: 1; stroke-width: 0; opacity: 1;"/><path class="sankey-link" d="M590,294.7435897435893C722.5,294.7435897435893 722.5,1.2505552149377763e-12 855,1.2505552149377763e-12L855,4.871794871796123C722.5,4.871794871796123 722.5,299.61538461538424 590,299.61538461538424Z" style="stroke: rgb(68, 68, 68); stroke-opacity: 1; fill: rgb(222, 184, 135); fill-opacity: 1; stroke-width: 0; opacity: 1;"/><path class="sankey-link" d="M590,331.2820512820509C722.5,331.2820512820509 722.5,427.0940170940181 855,427.0940170940181L855,446.58119658119756C722.5,446.58119658119756 722.5,350.7692307692303 590,350.7692307692303Z" style="stroke: rgb(68, 68, 68); stroke-opacity: 1; fill: rgb(222, 184, 135); fill-opacity: 1; stroke-width: 0; opacity: 1;"/><path class="sankey-link" d="M590,323.97435897435855C722.5,323.97435897435855 722.5,303.6752136752149 855,303.6752136752149L855,306.11111111111234C722.5,306.11111111111234 722.5,326.410256410256 590,326.410256410256Z" style="stroke: rgb(68, 68, 68); stroke-opacity: 1; fill: rgb(222, 184, 135); fill-opacity: 1; stroke-width: 0; opacity: 1;"/><path class="sankey-link" d="M590,370.2564102564099C722.5,370.2564102564099 722.5,742.948717948718 855,742.948717948718L855,750.2564102564104C722.5,750.2564102564104 722.5,377.56410256410214 590,377.56410256410214Z" style="stroke: rgb(68, 68, 68); stroke-opacity: 1; fill: rgb(222, 184, 135); fill-opacity: 1; stroke-width: 0; opacity: 1;"/><path class="sankey-link" d="M590,326.410256410256C722.5,326.410256410256 722.5,353.2051282051293 855,353.2051282051293L855,358.07692307692423C722.5,358.07692307692423 722.5,331.28205128205093 590,331.28205128205093Z" style="stroke: rgb(68, 68, 68); stroke-opacity: 1; fill: rgb(222, 184, 135); fill-opacity: 1; stroke-width: 0; opacity: 1;"/><path class="sankey-link" d="M590,358.0769230769227C722.5,358.0769230769227 722.5,624.4017094017099 855,624.4017094017099L855,634.1452991452998C722.5,634.1452991452998 722.5,367.8205128205124 590,367.8205128205124Z" style="stroke: rgb(68, 68, 68); stroke-opacity: 1; fill: rgb(222, 184, 135); fill-opacity: 1; stroke-width: 0; opacity: 1;"/><path class="sankey-link" d="M590,350.7692307692304C722.5,350.7692307692304 722.5,562.6923076923083 855,562.6923076923083L855,570.0000000000007C722.5,570.0000000000007 722.5,358.07692307692264 590,358.07692307692264Z" style="stroke: rgb(68, 68, 68); stroke-opacity: 1; fill: rgb(222, 184, 135); fill-opacity: 1; stroke-width: 0; opacity: 1;"/><path class="sankey-link" d="M590,299.6153846153842C722.5,299.6153846153842 722.5,51.965811965813316 855,51.965811965813316L855,61.70940170940307C722.5,61.70940170940307 722.5,309.3589743589739 590,309.3589743589739Z" style="stroke: rgb(68, 68, 68); stroke-opacity: 1; fill: rgb(222, 184, 135); fill-opacity: 1; stroke-width: 0; opacity: 1;"/><path class="sankey-link" d="M590,367.8205128205124C722.5,367.8205128205124 722.5,688.547008547009 855,688.547008547009L855,690.9829059829065C722.5,690.9829059829065 722.5,370.2564102564099 590,370.2564102564099Z" style="stroke: rgb(68, 68, 68); stroke-opacity: 1; fill: rgb(222, 184, 135); fill-opacity: 1; stroke-width: 0; opacity: 1;"/><path class="sankey-link" d="M590,321.5384615384611C722.5,321.5384615384611 722.5,241.96581196581315 855,241.96581196581315L855,244.4017094017106C722.5,244.4017094017106 722.5,323.97435897435855 590,323.97435897435855Z" style="stroke: rgb(68, 68, 68); stroke-opacity: 1; fill: rgb(222, 184, 135); fill-opacity: 1; stroke-width: 0; opacity: 1;"/><path class="sankey-link" d="M590,747.8205128205132C722.5,747.8205128205132 722.5,515.5982905982912 855,515.5982905982912L855,518.0341880341887C722.5,518.0341880341887 722.5,750.2564102564106 590,750.2564102564106Z" style="stroke: rgb(68, 68, 68); stroke-opacity: 1; fill: rgb(95, 158, 160); fill-opacity: 1; stroke-width: 0; opacity: 1;"/><path class="sankey-link" d="M590,750.2564102564106C722.5,750.2564102564106 722.5,641.452991452992 855,641.452991452992L855,646.3247863247869C722.5,646.3247863247869 722.5,755.1282051282055 590,755.1282051282055Z" style="stroke: rgb(68, 68, 68); stroke-opacity: 1; fill: rgb(95, 158, 160); fill-opacity: 1; stroke-width: 0; opacity: 1;"/><path class="sankey-link" d="M590,738.0769230769233C722.5,738.0769230769233 722.5,135.59829059829192 855,135.59829059829192L855,140.4700854700868C722.5,140.4700854700868 722.5,742.9487179487182 590,742.9487179487182Z" style="stroke: rgb(68, 68, 68); stroke-opacity: 1; fill: rgb(95, 158, 160); fill-opacity: 1; stroke-width: 0; opacity: 1;"/><path class="sankey-link" d="M590,742.9487179487182C722.5,742.9487179487182 722.5,377.5641025641037 855,377.5641025641037L855,380.00000000000114C722.5,380.00000000000114 722.5,745.3846153846157 590,745.3846153846157Z" style="stroke: rgb(68, 68, 68); stroke-opacity: 1; fill: rgb(95, 158, 160); fill-opacity: 1; stroke-width: 0; opacity: 1;"/><path class="sankey-link" d="M590,755.1282051282055C722.5,755.1282051282055 722.5,755.1282051282052 855,755.1282051282052L855,760.0000000000001C722.5,760.0000000000001 722.5,760.0000000000005 590,760.0000000000005Z" style="stroke: rgb(68, 68, 68); stroke-opacity: 1; fill: rgb(95, 158, 160); fill-opacity: 1; stroke-width: 0; opacity: 1;"/><path class="sankey-link" d="M590,745.3846153846157C722.5,745.3846153846157 722.5,461.1965811965822 855,461.1965811965822L855,463.63247863247966C722.5,463.63247863247966 722.5,747.8205128205132 590,747.8205128205132Z" style="stroke: rgb(68, 68, 68); stroke-opacity: 1; fill: rgb(95, 158, 160); fill-opacity: 1; stroke-width: 0; opacity: 1;"/><path class="sankey-link" d="M590,735.6410256410259C722.5,735.6410256410259 722.5,69.01709401709536 855,69.01709401709536L855,71.45299145299279C722.5,71.45299145299279 722.5,738.0769230769233 590,738.0769230769233Z" style="stroke: rgb(68, 68, 68); stroke-opacity: 1; fill: rgb(95, 158, 160); fill-opacity: 1; stroke-width: 0; opacity: 1;"/><path class="sankey-link" d="M590,560.2564102564099C722.5,560.2564102564099 722.5,446.5811965811976 855,446.5811965811976L855,456.32478632478734C722.5,456.32478632478734 722.5,569.9999999999998 590,569.9999999999998Z" style="stroke: rgb(68, 68, 68); stroke-opacity: 1; fill: rgb(127, 255, 0); fill-opacity: 1; stroke-width: 0; opacity: 1;"/><path class="sankey-link" d="M590,572.4358974358971C722.5,572.4358974358971 722.5,574.8717948717955 855,574.8717948717955L855,577.307692307693C722.5,577.307692307693 722.5,574.8717948717946 590,574.8717948717946Z" style="stroke: rgb(68, 68, 68); stroke-opacity: 1; fill: rgb(127, 255, 0); fill-opacity: 1; stroke-width: 0; opacity: 1;"/><path class="sankey-link" d="M590,548.0769230769228C722.5,548.0769230769228 722.5,130.72649572649706 855,130.72649572649706L855,133.16239316239452C722.5,133.16239316239452 722.5,550.5128205128202 590,550.5128205128202Z" style="stroke: rgb(68, 68, 68); stroke-opacity: 1; fill: rgb(127, 255, 0); fill-opacity: 1; stroke-width: 0; opacity: 1;"/><path class="sankey-link" d="M590,552.9487179487177C722.5,552.9487179487177 722.5,370.25641025641136 855,370.25641025641136L855,377.5641025641036C722.5,377.5641025641036 722.5,560.25641025641 590,560.25641025641Z" style="stroke: rgb(68, 68, 68); stroke-opacity: 1; fill: rgb(127, 255, 0); fill-opacity: 1; stroke-width: 0; opacity: 1;"/><path class="sankey-link" d="M590,569.9999999999997C722.5,569.9999999999997 722.5,513.1623931623938 855,513.1623931623938L855,515.5982905982912C722.5,515.5982905982912 722.5,572.4358974358971 590,572.4358974358971Z" style="stroke: rgb(68, 68, 68); stroke-opacity: 1; fill: rgb(127, 255, 0); fill-opacity: 1; stroke-width: 0; opacity: 1;"/><path class="sankey-link" d="M590,577.307692307692C722.5,577.307692307692 722.5,750.2564102564103 855,750.2564102564103L855,752.6923076923077C722.5,752.6923076923077 722.5,579.7435897435895 590,579.7435897435895Z" style="stroke: rgb(68, 68, 68); stroke-opacity: 1; fill: rgb(127, 255, 0); fill-opacity: 1; stroke-width: 0; opacity: 1;"/><path class="sankey-link" d="M590,574.8717948717946C722.5,574.8717948717946 722.5,693.4188034188039 855,693.4188034188039L855,695.8547008547014C722.5,695.8547008547014 722.5,577.307692307692 590,577.307692307692Z" style="stroke: rgb(68, 68, 68); stroke-opacity: 1; fill: rgb(127, 255, 0); fill-opacity: 1; stroke-width: 0; opacity: 1;"/><path class="sankey-link" d="M590,550.5128205128202C722.5,550.5128205128202 722.5,249.27350427350544 855,249.27350427350544L855,251.7094017094029C722.5,251.7094017094029 722.5,552.9487179487177 590,552.9487179487177Z" style="stroke: rgb(68, 68, 68); stroke-opacity: 1; fill: rgb(127, 255, 0); fill-opacity: 1; stroke-width: 0; opacity: 1;"/><path class="sankey-link" d="M590,621.9658119658118C722.5,621.9658119658118 722.5,66.58119658119793 855,66.58119658119793L855,69.01709401709536C722.5,69.01709401709536 722.5,624.4017094017092 590,624.4017094017092Z" style="stroke: rgb(68, 68, 68); stroke-opacity: 1; fill: rgb(210, 105, 30); fill-opacity: 1; stroke-width: 0; opacity: 1;"/><path class="sankey-link" d="M590,624.4017094017092C722.5,624.4017094017092 722.5,251.70940170940287 855,251.70940170940287L855,256.58119658119773C722.5,256.58119658119773 722.5,629.2735042735042 590,629.2735042735042Z" style="stroke: rgb(68, 68, 68); stroke-opacity: 1; fill: rgb(210, 105, 30); fill-opacity: 1; stroke-width: 0; opacity: 1;"/><path class="sankey-link" d="M590,634.1452991452991C722.5,634.1452991452991 722.5,634.1452991452996 855,634.1452991452996L855,636.5811965811971C722.5,636.5811965811971 722.5,636.5811965811965 590,636.5811965811965Z" style="stroke: rgb(68, 68, 68); stroke-opacity: 1; fill: rgb(210, 105, 30); fill-opacity: 1; stroke-width: 0; opacity: 1;"/><path class="sankey-link" d="M590,629.2735042735042C722.5,629.2735042735042 722.5,456.32478632478734 855,456.32478632478734L855,461.19658119658226C722.5,461.19658119658226 722.5,634.1452991452991 590,634.1452991452991Z" style="stroke: rgb(68, 68, 68); stroke-opacity: 1; fill: rgb(210, 105, 30); fill-opacity: 1; stroke-width: 0; opacity: 1;"/><path class="sankey-link" d="M590,636.5811965811965C722.5,636.5811965811965 722.5,752.6923076923077 855,752.6923076923077L855,755.1282051282052C722.5,755.1282051282052 722.5,639.017094017094 590,639.017094017094Z" style="stroke: rgb(68, 68, 68); stroke-opacity: 1; fill: rgb(210, 105, 30); fill-opacity: 1; stroke-width: 0; opacity: 1;"/><path class="sankey-link" d="M875,51.965811965813316C1007.5,51.965811965813316 1007.5,201.67731384513525 1140,201.67731384513525L1140,206.5491087169301C1007.5,206.5491087169301 1007.5,56.83760683760819 875,56.83760683760819Z" style="stroke: rgb(68, 68, 68); stroke-opacity: 1; fill: rgb(255, 127, 80); fill-opacity: 1; stroke-width: 0; opacity: 1;"/><path class="sankey-link" d="M875,56.83760683760819C1007.5,56.83760683760819 1007.5,273.871336732726 1140,273.871336732726L1140,288.4867213481106C1007.5,288.4867213481106 1007.5,71.4529914529928 875,71.4529914529928Z" style="stroke: rgb(68, 68, 68); stroke-opacity: 1; fill: rgb(255, 127, 80); fill-opacity: 1; stroke-width: 0; opacity: 1;"/><path class="sankey-link" d="M875,71.4529914529928C1007.5,71.4529914529928 1007.5,411.0935589549482 1140,411.0935589549482L1140,413.52945639084567C1007.5,413.52945639084567 1007.5,73.88888888889024 875,73.88888888889024Z" style="stroke: rgb(68, 68, 68); stroke-opacity: 1; fill: rgb(255, 127, 80); fill-opacity: 1; stroke-width: 0; opacity: 1;"/><path class="sankey-link" d="M875,120.98290598290731C1007.5,120.98290598290731 1007.5,288.4867213481106 1140,288.4867213481106L1140,307.97390083529007C1007.5,307.97390083529007 1007.5,140.47008547008681 875,140.47008547008681Z" style="stroke: rgb(68, 68, 68); stroke-opacity: 1; fill: rgb(100, 149, 237); fill-opacity: 1; stroke-width: 0; opacity: 1;"/><path class="sankey-link" d="M875,116.11111111111245C1007.5,116.11111111111245 1007.5,206.5491087169301 1140,206.5491087169301L1140,211.42090358872497C1007.5,211.42090358872497 1007.5,120.98290598290731 875,120.98290598290731Z" style="stroke: rgb(68, 68, 68); stroke-opacity: 1; fill: rgb(100, 149, 237); fill-opacity: 1; stroke-width: 0; opacity: 1;"/><path class="sankey-link" d="M875,140.47008547008681C1007.5,140.47008547008681 1007.5,413.52945639084567 1140,413.52945639084567L1140,420.83714869853793C1007.5,420.83714869853793 1007.5,147.77777777777914 875,147.77777777777914Z" style="stroke: rgb(68, 68, 68); stroke-opacity: 1; fill: rgb(100, 149, 237); fill-opacity: 1; stroke-width: 0; opacity: 1;"/><path class="sankey-link" d="M875,303.6752136752149C1007.5,303.6752136752149 1007.5,320.1533880147773 1140,320.1533880147773L1140,325.0251828865722C1007.5,325.0251828865722 1007.5,308.5470085470098 875,308.5470085470098Z" style="stroke: rgb(68, 68, 68); stroke-opacity: 1; fill: rgb(255, 248, 220); fill-opacity: 1; stroke-width: 0; opacity: 1;"/><path class="sankey-link" d="M875,308.54700854700974C1007.5,308.54700854700974 1007.5,433.01663587802517 1140,433.01663587802517L1140,435.45253331392263C1007.5,435.45253331392263 1007.5,310.9829059829072 875,310.9829059829072Z" style="stroke: rgb(68, 68, 68); stroke-opacity: 1; fill: rgb(255, 248, 220); fill-opacity: 1; stroke-width: 0; opacity: 1;"/><path class="sankey-link" d="M875,688.547008547009C1007.5,688.547008547009 1007.5,359.1277469891363 1140,359.1277469891363L1140,363.99954186093123C1007.5,363.99954186093123 1007.5,693.4188034188039 875,693.4188034188039Z" style="stroke: rgb(68, 68, 68); stroke-opacity: 1; fill: rgb(220, 20, 60); fill-opacity: 1; stroke-width: 0; opacity: 1;"/><path class="sankey-link" d="M875,693.4188034188039C1007.5,693.4188034188039 1007.5,508.5294563908457 1140,508.5294563908457L1140,513.4012512626406C1007.5,513.4012512626406 1007.5,698.2905982905988 875,698.2905982905988Z" style="stroke: rgb(68, 68, 68); stroke-opacity: 1; fill: rgb(220, 20, 60); fill-opacity: 1; stroke-width: 0; opacity: 1;"/><path class="sankey-link" d="M875,698.2905982905988C1007.5,698.2905982905988 1007.5,575.1106529720424 1140,575.1106529720424L1140,577.5465504079399C1007.5,577.5465504079399 1007.5,700.7264957264963 875,700.7264957264963Z" style="stroke: rgb(68, 68, 68); stroke-opacity: 1; fill: rgb(220, 20, 60); fill-opacity: 1; stroke-width: 0; opacity: 1;"/><path class="sankey-link" d="M875,565.1282051282058C1007.5,565.1282051282058 1007.5,484.17048203187136 1140,484.17048203187136L1140,501.22176408315346C1007.5,501.22176408315346 1007.5,582.1794871794878 875,582.1794871794878Z" style="stroke: rgb(68, 68, 68); stroke-opacity: 1; fill: rgb(0, 255, 255); fill-opacity: 1; stroke-width: 0; opacity: 1;"/><path class="sankey-link" d="M875,562.6923076923083C1007.5,562.6923076923083 1007.5,344.51236237375167 1140,344.51236237375167L1140,346.94825980964913C1007.5,346.94825980964913 1007.5,565.1282051282058 875,565.1282051282058Z" style="stroke: rgb(68, 68, 68); stroke-opacity: 1; fill: rgb(0, 255, 255); fill-opacity: 1; stroke-width: 0; opacity: 1;"/><path class="sankey-link" d="M875,197.3076923076935C1007.5,197.3076923076935 1007.5,420.837148698538 1140,420.837148698538L1140,423.27304613443545C1007.5,423.27304613443545 1007.5,199.74358974359095 875,199.74358974359095Z" style="stroke: rgb(68, 68, 68); stroke-opacity: 1; fill: rgb(0, 0, 139); fill-opacity: 1; stroke-width: 0; opacity: 1;"/><path class="sankey-link" d="M875,192.43589743589862C1007.5,192.43589743589862 1007.5,307.9739008352901 1140,307.9739008352901L1140,312.84569570708504C1007.5,312.84569570708504 1007.5,197.3076923076935 875,197.3076923076935Z" style="stroke: rgb(68, 68, 68); stroke-opacity: 1; fill: rgb(0, 0, 139); fill-opacity: 1; stroke-width: 0; opacity: 1;"/><path class="sankey-link" d="M875,190.0000000000012C1007.5,190.0000000000012 1007.5,211.42090358872497 1140,211.42090358872497L1140,213.85680102462243C1007.5,213.85680102462243 1007.5,192.43589743589865 875,192.43589743589865Z" style="stroke: rgb(68, 68, 68); stroke-opacity: 1; fill: rgb(0, 0, 139); fill-opacity: 1; stroke-width: 0; opacity: 1;"/><path class="sankey-link" d="M875,518.0341880341887C1007.5,518.0341880341887 1007.5,481.7345845959739 1140,481.7345845959739L1140,484.17048203187136C1007.5,484.17048203187136 1007.5,520.4700854700861 875,520.4700854700861Z" style="stroke: rgb(68, 68, 68); stroke-opacity: 1; fill: rgb(0, 139, 139); fill-opacity: 1; stroke-width: 0; opacity: 1;"/><path class="sankey-link" d="M875,513.1623931623938C1007.5,513.1623931623938 1007.5,223.60039076821215 1140,223.60039076821215L1140,226.0362882041096C1007.5,226.0362882041096 1007.5,515.5982905982912 875,515.5982905982912Z" style="stroke: rgb(68, 68, 68); stroke-opacity: 1; fill: rgb(0, 139, 139); fill-opacity: 1; stroke-width: 0; opacity: 1;"/><path class="sankey-link" d="M875,515.5982905982912C1007.5,515.5982905982912 1007.5,342.0764649378542 1140,342.0764649378542L1140,344.51236237375167C1007.5,344.51236237375167 1007.5,518.0341880341887 875,518.0341880341887Z" style="stroke: rgb(68, 68, 68); stroke-opacity: 1; fill: rgb(0, 139, 139); fill-opacity: 1; stroke-width: 0; opacity: 1;"/><path class="sankey-link" d="M875,624.4017094017099C1007.5,624.4017094017099 1007.5,346.94825980964913 1140,346.94825980964913L1140,359.1277469891363C1007.5,359.1277469891363 1007.5,636.581196581197 875,636.581196581197Z" style="stroke: rgb(68, 68, 68); stroke-opacity: 1; fill: rgb(184, 134, 11); fill-opacity: 1; stroke-width: 0; opacity: 1;"/><path class="sankey-link" d="M875,636.5811965811971C1007.5,636.5811965811971 1007.5,501.2217640831534 1140,501.2217640831534L1140,508.52945639084567C1007.5,508.52945639084567 1007.5,643.8888888888895 875,643.8888888888895Z" style="stroke: rgb(68, 68, 68); stroke-opacity: 1; fill: rgb(184, 134, 11); fill-opacity: 1; stroke-width: 0; opacity: 1;"/><path class="sankey-link" d="M875,643.8888888888894C1007.5,643.8888888888894 1007.5,572.674755536145 1140,572.674755536145L1140,575.1106529720424C1007.5,575.1106529720424 1007.5,646.3247863247868 875,646.3247863247868Z" style="stroke: rgb(68, 68, 68); stroke-opacity: 1; fill: rgb(184, 134, 11); fill-opacity: 1; stroke-width: 0; opacity: 1;"/><path class="sankey-link" d="M875,7.307692307693558C1007.5,7.307692307693558 1007.5,565.3670632284526 1140,565.3670632284526L1140,567.80296066435C1007.5,567.80296066435 1007.5,9.743589743590995 875,9.743589743590995Z" style="stroke: rgb(68, 68, 68); stroke-opacity: 1; fill: rgb(169, 169, 169); fill-opacity: 1; stroke-width: 0; opacity: 1;"/><path class="sankey-link" d="M875,1.2505552149377763e-12C1007.5,1.2505552149377763e-12 1007.5,199.24141640923781 1140,199.24141640923781L1140,201.67731384513527C1007.5,201.67731384513527 1007.5,2.4358974358986867 875,2.4358974358986867Z" style="stroke: rgb(68, 68, 68); stroke-opacity: 1; fill: rgb(169, 169, 169); fill-opacity: 1; stroke-width: 0; opacity: 1;"/><path class="sankey-link" d="M875,2.4358974358986867C1007.5,2.4358974358986867 1007.5,268.9995418609311 1140,268.9995418609311L1140,273.87133673272604C1007.5,273.87133673272604 1007.5,7.307692307693559 875,7.307692307693559Z" style="stroke: rgb(68, 68, 68); stroke-opacity: 1; fill: rgb(169, 169, 169); fill-opacity: 1; stroke-width: 0; opacity: 1;"/><path class="sankey-link" d="M875,439.2735042735053C1007.5,439.2735042735053 1007.5,452.5038153652047 1140,452.5038153652047L1140,481.73458459597396C1007.5,481.73458459597396 1007.5,468.5042735042746 875,468.5042735042746Z" style="stroke: rgb(68, 68, 68); stroke-opacity: 1; fill: rgb(0, 100, 0); fill-opacity: 1; stroke-width: 0; opacity: 1;"/><path class="sankey-link" d="M875,427.0940170940181C1007.5,427.0940170940181 1007.5,329.89697775836703 1140,329.89697775836703L1140,342.0764649378542C1007.5,342.0764649378542 1007.5,439.2735042735053 875,439.2735042735053Z" style="stroke: rgb(68, 68, 68); stroke-opacity: 1; fill: rgb(0, 100, 0); fill-opacity: 1; stroke-width: 0; opacity: 1;"/><path class="sankey-link" d="M875,468.5042735042745C1007.5,468.5042735042745 1007.5,570.2388581002475 1140,570.2388581002475L1140,572.674755536145C1007.5,572.674755536145 1007.5,470.940170940172 875,470.940170940172Z" style="stroke: rgb(68, 68, 68); stroke-opacity: 1; fill: rgb(0, 100, 0); fill-opacity: 1; stroke-width: 0; opacity: 1;"/><path class="sankey-link" d="M875,244.40170940171058C1007.5,244.40170940171058 1007.5,312.845695707085 1140,312.845695707085L1140,320.15338801477725C1007.5,320.15338801477725 1007.5,251.7094017094029 875,251.7094017094029Z" style="stroke: rgb(68, 68, 68); stroke-opacity: 1; fill: rgb(169, 169, 169); fill-opacity: 1; stroke-width: 0; opacity: 1;"/><path class="sankey-link" d="M875,251.70940170940293C1007.5,251.70940170940293 1007.5,423.27304613443545 1140,423.27304613443545L1140,433.01663587802517C1007.5,433.01663587802517 1007.5,261.45299145299265 875,261.45299145299265Z" style="stroke: rgb(68, 68, 68); stroke-opacity: 1; fill: rgb(169, 169, 169); fill-opacity: 1; stroke-width: 0; opacity: 1;"/><path class="sankey-link" d="M875,241.96581196581315C1007.5,241.96581196581315 1007.5,213.8568010246224 1140,213.8568010246224L1140,216.29269846051986C1007.5,216.29269846051986 1007.5,244.4017094017106 875,244.4017094017106Z" style="stroke: rgb(68, 68, 68); stroke-opacity: 1; fill: rgb(169, 169, 169); fill-opacity: 1; stroke-width: 0; opacity: 1;"/><path class="sankey-link" d="M875,365.3846153846165C1007.5,365.3846153846165 1007.5,435.45253331392263 1140,435.45253331392263L1140,452.50381536520473C1007.5,452.50381536520473 1007.5,382.4358974358986 875,382.4358974358986Z" style="stroke: rgb(68, 68, 68); stroke-opacity: 1; fill: rgb(189, 183, 107); fill-opacity: 1; stroke-width: 0; opacity: 1;"/><path class="sankey-link" d="M875,382.43589743589854C1007.5,382.43589743589854 1007.5,567.80296066435 1140,567.80296066435L1140,570.2388581002475C1007.5,570.2388581002475 1007.5,384.871794871796 875,384.871794871796Z" style="stroke: rgb(68, 68, 68); stroke-opacity: 1; fill: rgb(189, 183, 107); fill-opacity: 1; stroke-width: 0; opacity: 1;"/><path class="sankey-link" d="M875,353.2051282051293C1007.5,353.2051282051293 1007.5,216.29269846051983 1140,216.29269846051983L1140,223.60039076821215C1007.5,223.60039076821215 1007.5,360.5128205128216 875,360.5128205128216Z" style="stroke: rgb(68, 68, 68); stroke-opacity: 1; fill: rgb(189, 183, 107); fill-opacity: 1; stroke-width: 0; opacity: 1;"/><path class="sankey-link" d="M875,360.51282051282163C1007.5,360.51282051282163 1007.5,325.02518288657217 1140,325.02518288657217L1140,329.8969777583671C1007.5,329.8969777583671 1007.5,365.38461538461655 875,365.38461538461655Z" style="stroke: rgb(68, 68, 68); stroke-opacity: 1; fill: rgb(189, 183, 107); fill-opacity: 1; stroke-width: 0; opacity: 1;"/><path class="sankey-link" d="M875,747.8205128205129C1007.5,747.8205128205129 1007.5,513.4012512626406 1140,513.4012512626406L1140,523.1448410062304C1007.5,523.1448410062304 1007.5,757.5641025641028 875,757.5641025641028Z" style="stroke: rgb(68, 68, 68); stroke-opacity: 1; fill: rgb(139, 0, 139); fill-opacity: 1; stroke-width: 0; opacity: 1;"/><path class="sankey-link" d="M875,742.948717948718C1007.5,742.948717948718 1007.5,363.9995418609312 1140,363.9995418609312L1140,368.8713367327261C1007.5,368.8713367327261 1007.5,747.8205128205129 875,747.8205128205129Z" style="stroke: rgb(68, 68, 68); stroke-opacity: 1; fill: rgb(139, 0, 139); fill-opacity: 1; stroke-width: 0; opacity: 1;"/><path class="sankey-link" d="M875,757.5641025641027C1007.5,757.5641025641027 1007.5,577.5465504079399 1140,577.5465504079399L1140,579.9824478438373C1007.5,579.9824478438373 1007.5,760.0000000000001 875,760.0000000000001Z" style="stroke: rgb(68, 68, 68); stroke-opacity: 1; fill: rgb(139, 0, 139); fill-opacity: 1; stroke-width: 0; opacity: 1;"/></g><g class="sankey-node-set" style="cursor: move;"><g class="sankey-node" transform="translate(0.000,375.128)" style="opacity: 1;"><rect class="node-rect" width="20" height="129.1025641025641" style="stroke-width: 0.5; stroke: rgb(0, 0, 0); stroke-opacity: 1; fill: rgb(240, 248, 255); fill-opacity: 1;"/><text class="node-label" data-notex="1" x="0" y="0" text-anchor="start" transform="translate(23.25,68.05128205128204)" style="cursor: default; font-family: 'Open Sans', verdana, arial, sans-serif; font-size: 10px; fill: rgb(42, 63, 95); fill-opacity: 1; white-space: pre; text-shadow: white 1px 1px 1px, white -1px -1px 1px, white 1px -1px 1px, white -1px 1px 1px;"></text></g><g class="sankey-node" transform="translate(0.000,546.453)" style="opacity: 1;"><rect class="node-rect" width="20" height="73.07692307692264" style="stroke-width: 0.5; stroke: rgb(0, 0, 0); stroke-opacity: 1; fill: rgb(250, 235, 215); fill-opacity: 1;"/><text class="node-label" data-notex="1" x="0" y="0" text-anchor="start" transform="translate(23.25,40.03846153846132)" style="cursor: default; font-family: 'Open Sans', verdana, arial, sans-serif; font-size: 10px; fill: rgb(42, 63, 95); fill-opacity: 1; white-space: pre; text-shadow: white 1px 1px 1px, white -1px -1px 1px, white 1px -1px 1px, white -1px 1px 1px;"></text></g><g class="sankey-node" transform="translate(0.000,738.077)" style="opacity: 1;"><rect class="node-rect" width="20" height="21.923076923076678" style="stroke-width: 0.5; stroke: rgb(0, 0, 0); stroke-opacity: 1; fill: rgb(0, 255, 255); fill-opacity: 1;"/><text class="node-label" data-notex="1" x="0" y="0" text-anchor="start" transform="translate(23.25,14.461538461538339)" style="cursor: default; font-family: 'Open Sans', verdana, arial, sans-serif; font-size: 10px; fill: rgb(42, 63, 95); fill-opacity: 1; white-space: pre; text-shadow: white 1px 1px 1px, white -1px -1px 1px, white 1px -1px 1px, white -1px 1px 1px;"></text></g><g class="sankey-node" transform="translate(0.000,661.752)" style="opacity: 1;"><rect class="node-rect" width="20" height="34.102564102563974" style="stroke-width: 0.5; stroke: rgb(0, 0, 0); stroke-opacity: 1; fill: rgb(127, 255, 212); fill-opacity: 1;"/><text class="node-label" data-notex="1" x="0" y="0" text-anchor="start" transform="translate(23.25,20.551282051281987)" style="cursor: default; font-family: 'Open Sans', verdana, arial, sans-serif; font-size: 10px; fill: rgb(42, 63, 95); fill-opacity: 1; white-space: pre; text-shadow: white 1px 1px 1px, white -1px -1px 1px, white 1px -1px 1px, white -1px 1px 1px;"></text></g><g class="sankey-node" transform="translate(285.000,509.915)" style="opacity: 1;"><rect class="node-rect" width="20" height="60.897435897435685" style="stroke-width: 0.5; stroke: rgb(0, 0, 0); stroke-opacity: 1; fill: rgb(240, 255, 255); fill-opacity: 1;"/><text class="node-label" data-notex="1" x="0" y="0" text-anchor="start" transform="translate(23.25,33.94871794871784)" style="cursor: default; font-family: 'Open Sans', verdana, arial, sans-serif; font-size: 10px; fill: rgb(42, 63, 95); fill-opacity: 1; white-space: pre; text-shadow: white 1px 1px 1px, white -1px -1px 1px, white 1px -1px 1px, white -1px 1px 1px;"></text></g><g class="sankey-node" transform="translate(285.000,613.034)" style="opacity: 1;"><rect class="node-rect" width="20" height="94.99999999999989" style="stroke-width: 0.5; stroke: rgb(0, 0, 0); stroke-opacity: 1; fill: rgb(245, 245, 220); fill-opacity: 1;"/><text class="node-label" data-notex="1" x="0" y="0" text-anchor="start" transform="translate(23.25,50.99999999999994)" style="cursor: default; font-family: 'Open Sans', verdana, arial, sans-serif; font-size: 10px; fill: rgb(42, 63, 95); fill-opacity: 1; white-space: pre; text-shadow: white 1px 1px 1px, white -1px -1px 1px, white 1px -1px 1px, white -1px 1px 1px;"></text></g><g class="sankey-node" transform="translate(285.000,457.949)" style="opacity: 1;"><rect class="node-rect" width="20" height="9.743589743589723" style="stroke-width: 0.5; stroke: rgb(0, 0, 0); stroke-opacity: 1; fill: rgb(255, 228, 196); fill-opacity: 1;"/><text class="node-label" data-notex="1" x="0" y="0" text-anchor="start" transform="translate(23.25,8.371794871794862)" style="cursor: default; font-family: 'Open Sans', verdana, arial, sans-serif; font-size: 10px; fill: rgb(42, 63, 95); fill-opacity: 1; white-space: pre; text-shadow: white 1px 1px 1px, white -1px -1px 1px, white 1px -1px 1px, white -1px 1px 1px;"></text></g><g class="sankey-node" transform="translate(285.000,750.256)" style="opacity: 1;"><rect class="node-rect" width="20" height="9.74358974358961" style="stroke-width: 0.5; stroke: rgb(0, 0, 0); stroke-opacity: 1; fill: rgb(0, 0, 0); fill-opacity: 1;"/><text class="node-label" data-notex="1" x="0" y="0" text-anchor="start" transform="translate(23.25,8.371794871794805)" style="cursor: default; font-family: 'Open Sans', verdana, arial, sans-serif; font-size: 10px; fill: rgb(42, 63, 95); fill-opacity: 1; white-space: pre; text-shadow: white 1px 1px 1px, white -1px -1px 1px, white 1px -1px 1px, white -1px 1px 1px;"></text></g><g class="sankey-node" transform="translate(285.000,332.906)" style="opacity: 1;"><rect class="node-rect" width="20" height="82.82051282051293" style="stroke-width: 0.5; stroke: rgb(0, 0, 0); stroke-opacity: 1; fill: rgb(255, 235, 205); fill-opacity: 1;"/><text class="node-label" data-notex="1" x="0" y="0" text-anchor="start" transform="translate(23.25,44.910256410256466)" style="cursor: default; font-family: 'Open Sans', verdana, arial, sans-serif; font-size: 10px; fill: rgb(42, 63, 95); fill-opacity: 1; white-space: pre; text-shadow: white 1px 1px 1px, white -1px -1px 1px, white 1px -1px 1px, white -1px 1px 1px;"></text></g><g class="sankey-node" transform="translate(570.000,474.188)" style="opacity: 1;"><rect class="node-rect" width="20" height="31.66666666666663" style="stroke-width: 0.5; stroke: rgb(0, 0, 0); stroke-opacity: 1; fill: rgb(0, 0, 255); fill-opacity: 1;"/><text class="node-label" data-notex="1" x="0" y="0" text-anchor="start" transform="translate(23.25,19.333333333333314)" style="cursor: default; font-family: 'Open Sans', verdana, arial, sans-serif; font-size: 10px; fill: rgb(42, 63, 95); fill-opacity: 1; white-space: pre; text-shadow: white 1px 1px 1px, white -1px -1px 1px, white 1px -1px 1px, white -1px 1px 1px;"></text></g><g class="sankey-node" transform="translate(570.000,681.239)" style="opacity: 1;"><rect class="node-rect" width="20" height="12.179487179487523" style="stroke-width: 0.5; stroke: rgb(0, 0, 0); stroke-opacity: 1; fill: rgb(138, 43, 226); fill-opacity: 1;"/><text class="node-label" data-notex="1" x="0" y="0" text-anchor="start" transform="translate(23.25,9.589743589743762)" style="cursor: default; font-family: 'Open Sans', verdana, arial, sans-serif; font-size: 10px; fill: rgb(42, 63, 95); fill-opacity: 1; white-space: pre; text-shadow: white 1px 1px 1px, white -1px -1px 1px, white 1px -1px 1px, white -1px 1px 1px;"></text></g><g class="sankey-node" transform="translate(570.000,419.786)" style="opacity: 1;"><rect class="node-rect" width="20" height="12.179487179487182" style="stroke-width: 0.5; stroke: rgb(0, 0, 0); stroke-opacity: 1; fill: rgb(165, 42, 42); fill-opacity: 1;"/><text class="node-label" data-notex="1" x="0" y="0" text-anchor="start" transform="translate(23.25,9.589743589743591)" style="cursor: default; font-family: 'Open Sans', verdana, arial, sans-serif; font-size: 10px; fill: rgb(42, 63, 95); fill-opacity: 1; white-space: pre; text-shadow: white 1px 1px 1px, white -1px -1px 1px, white 1px -1px 1px, white -1px 1px 1px;"></text></g><g class="sankey-node" transform="translate(570.000,294.744)" style="opacity: 1;"><rect class="node-rect" width="20" height="82.82051282051304" style="stroke-width: 0.5; stroke: rgb(0, 0, 0); stroke-opacity: 1; fill: rgb(222, 184, 135); fill-opacity: 1;"/><text class="node-label" data-notex="1" x="0" y="0" text-anchor="start" transform="translate(23.25,44.91025641025652)" style="cursor: default; font-family: 'Open Sans', verdana, arial, sans-serif; font-size: 10px; fill: rgb(42, 63, 95); fill-opacity: 1; white-space: pre; text-shadow: white 1px 1px 1px, white -1px -1px 1px, white 1px -1px 1px, white -1px 1px 1px;"></text></g><g class="sankey-node" transform="translate(570.000,735.641)" style="opacity: 1;"><rect class="node-rect" width="20" height="24.358974358974137" style="stroke-width: 0.5; stroke: rgb(0, 0, 0); stroke-opacity: 1; fill: rgb(95, 158, 160); fill-opacity: 1;"/><text class="node-label" data-notex="1" x="0" y="0" text-anchor="start" transform="translate(23.25,15.679487179487069)" style="cursor: default; font-family: 'Open Sans', verdana, arial, sans-serif; font-size: 10px; fill: rgb(42, 63, 95); fill-opacity: 1; white-space: pre; text-shadow: white 1px 1px 1px, white -1px -1px 1px, white 1px -1px 1px, white -1px 1px 1px;"></text></g><g class="sankey-node" transform="translate(570.000,548.077)" style="opacity: 1;"><rect class="node-rect" width="20" height="31.666666666666856" style="stroke-width: 0.5; stroke: rgb(0, 0, 0); stroke-opacity: 1; fill: rgb(127, 255, 0); fill-opacity: 1;"/><text class="node-label" data-notex="1" x="0" y="0" text-anchor="start" transform="translate(23.25,19.333333333333428)" style="cursor: default; font-family: 'Open Sans', verdana, arial, sans-serif; font-size: 10px; fill: rgb(42, 63, 95); fill-opacity: 1; white-space: pre; text-shadow: white 1px 1px 1px, white -1px -1px 1px, white 1px -1px 1px, white -1px 1px 1px;"></text></g><g class="sankey-node" transform="translate(570.000,621.966)" style="opacity: 1;"><rect class="node-rect" width="20" height="17.051282051282215" style="stroke-width: 0.5; stroke: rgb(0, 0, 0); stroke-opacity: 1; fill: rgb(210, 105, 30); fill-opacity: 1;"/><text class="node-label" data-notex="1" x="0" y="0" text-anchor="start" transform="translate(23.25,12.025641025641107)" style="cursor: default; font-family: 'Open Sans', verdana, arial, sans-serif; font-size: 10px; fill: rgb(42, 63, 95); fill-opacity: 1; white-space: pre; text-shadow: white 1px 1px 1px, white -1px -1px 1px, white 1px -1px 1px, white -1px 1px 1px;"></text></g><g class="sankey-node" transform="translate(855.000,51.966)" style="opacity: 1;"><rect class="node-rect" width="20" height="21.923076923076906" style="stroke-width: 0.5; stroke: rgb(0, 0, 0); stroke-opacity: 1; fill: rgb(255, 127, 80); fill-opacity: 1;"/><text class="node-label" data-notex="1" x="0" y="0" text-anchor="start" transform="translate(23.25,14.461538461538453)" style="cursor: default; font-family: 'Open Sans', verdana, arial, sans-serif; font-size: 10px; fill: rgb(42, 63, 95); fill-opacity: 1; white-space: pre; text-shadow: white 1px 1px 1px, white -1px -1px 1px, white 1px -1px 1px, white -1px 1px 1px;"></text></g><g class="sankey-node" transform="translate(855.000,116.111)" style="opacity: 1;"><rect class="node-rect" width="20" height="31.666666666666515" style="stroke-width: 0.5; stroke: rgb(0, 0, 0); stroke-opacity: 1; fill: rgb(100, 149, 237); fill-opacity: 1;"/><text class="node-label" data-notex="1" x="0" y="0" text-anchor="start" transform="translate(23.25,19.333333333333258)" style="cursor: default; font-family: 'Open Sans', verdana, arial, sans-serif; font-size: 10px; fill: rgb(42, 63, 95); fill-opacity: 1; white-space: pre; text-shadow: white 1px 1px 1px, white -1px -1px 1px, white 1px -1px 1px, white -1px 1px 1px;"></text></g><g class="sankey-node" transform="translate(855.000,303.675)" style="opacity: 1;"><rect class="node-rect" width="20" height="7.307692307692264" style="stroke-width: 0.5; stroke: rgb(0, 0, 0); stroke-opacity: 1; fill: rgb(255, 248, 220); fill-opacity: 1;"/><text class="node-label" data-notex="1" x="0" y="0" text-anchor="start" transform="translate(23.25,7.153846153846132)" style="cursor: default; font-family: 'Open Sans', verdana, arial, sans-serif; font-size: 10px; fill: rgb(42, 63, 95); fill-opacity: 1; white-space: pre; text-shadow: white 1px 1px 1px, white -1px -1px 1px, white 1px -1px 1px, white -1px 1px 1px;"></text></g><g class="sankey-node" transform="translate(855.000,688.547)" style="opacity: 1;"><rect class="node-rect" width="20" height="12.179487179486841" style="stroke-width: 0.5; stroke: rgb(0, 0, 0); stroke-opacity: 1; fill: rgb(220, 20, 60); fill-opacity: 1;"/><text class="node-label" data-notex="1" x="0" y="0" text-anchor="start" transform="translate(23.25,9.58974358974342)" style="cursor: default; font-family: 'Open Sans', verdana, arial, sans-serif; font-size: 10px; fill: rgb(42, 63, 95); fill-opacity: 1; white-space: pre; text-shadow: white 1px 1px 1px, white -1px -1px 1px, white 1px -1px 1px, white -1px 1px 1px;"></text></g><g class="sankey-node" transform="translate(855.000,562.692)" style="opacity: 1;"><rect class="node-rect" width="20" height="19.487179487179446" style="stroke-width: 0.5; stroke: rgb(0, 0, 0); stroke-opacity: 1; fill: rgb(0, 255, 255); fill-opacity: 1;"/><text class="node-label" data-notex="1" x="0" y="0" text-anchor="start" transform="translate(23.25,13.243589743589723)" style="cursor: default; font-family: 'Open Sans', verdana, arial, sans-serif; font-size: 10px; fill: rgb(42, 63, 95); fill-opacity: 1; white-space: pre; text-shadow: white 1px 1px 1px, white -1px -1px 1px, white 1px -1px 1px, white -1px 1px 1px;"></text></g><g class="sankey-node" transform="translate(855.000,190.000)" style="opacity: 1;"><rect class="node-rect" width="20" height="9.743589743589723" style="stroke-width: 0.5; stroke: rgb(0, 0, 0); stroke-opacity: 1; fill: rgb(0, 0, 139); fill-opacity: 1;"/><text class="node-label" data-notex="1" x="0" y="0" text-anchor="start" transform="translate(23.25,8.371794871794862)" style="cursor: default; font-family: 'Open Sans', verdana, arial, sans-serif; font-size: 10px; fill: rgb(42, 63, 95); fill-opacity: 1; white-space: pre; text-shadow: white 1px 1px 1px, white -1px -1px 1px, white 1px -1px 1px, white -1px 1px 1px;"></text></g><g class="sankey-node" transform="translate(855.000,513.162)" style="opacity: 1;"><rect class="node-rect" width="20" height="7.307692307692378" style="stroke-width: 0.5; stroke: rgb(0, 0, 0); stroke-opacity: 1; fill: rgb(0, 139, 139); fill-opacity: 1;"/><text class="node-label" data-notex="1" x="0" y="0" text-anchor="start" transform="translate(23.25,7.153846153846189)" style="cursor: default; font-family: 'Open Sans', verdana, arial, sans-serif; font-size: 10px; fill: rgb(42, 63, 95); fill-opacity: 1; white-space: pre; text-shadow: white 1px 1px 1px, white -1px -1px 1px, white 1px -1px 1px, white -1px 1px 1px;"></text></g><g class="sankey-node" transform="translate(855.000,624.402)" style="opacity: 1;"><rect class="node-rect" width="20" height="21.923076923076906" style="stroke-width: 0.5; stroke: rgb(0, 0, 0); stroke-opacity: 1; fill: rgb(184, 134, 11); fill-opacity: 1;"/><text class="node-label" data-notex="1" x="0" y="0" text-anchor="start" transform="translate(23.25,14.461538461538453)" style="cursor: default; font-family: 'Open Sans', verdana, arial, sans-serif; font-size: 10px; fill: rgb(42, 63, 95); fill-opacity: 1; white-space: pre; text-shadow: white 1px 1px 1px, white -1px -1px 1px, white 1px -1px 1px, white -1px 1px 1px;"></text></g><g class="sankey-node" transform="translate(855.000,0.000)" style="opacity: 1;"><rect class="node-rect" width="20" height="9.743589743589837" style="stroke-width: 0.5; stroke: rgb(0, 0, 0); stroke-opacity: 1; fill: rgb(169, 169, 169); fill-opacity: 1;"/><text class="node-label" data-notex="1" x="0" y="0" text-anchor="start" transform="translate(23.25,8.371794871794918)" style="cursor: default; font-family: 'Open Sans', verdana, arial, sans-serif; font-size: 10px; fill: rgb(42, 63, 95); fill-opacity: 1; white-space: pre; text-shadow: white 1px 1px 1px, white -1px -1px 1px, white 1px -1px 1px, white -1px 1px 1px;"></text></g><g class="sankey-node" transform="translate(855.000,427.094)" style="opacity: 1;"><rect class="node-rect" width="20" height="43.84615384615347" style="stroke-width: 0.5; stroke: rgb(0, 0, 0); stroke-opacity: 1; fill: rgb(0, 100, 0); fill-opacity: 1;"/><text class="node-label" data-notex="1" x="0" y="0" text-anchor="start" transform="translate(23.25,25.423076923076735)" style="cursor: default; font-family: 'Open Sans', verdana, arial, sans-serif; font-size: 10px; fill: rgb(42, 63, 95); fill-opacity: 1; white-space: pre; text-shadow: white 1px 1px 1px, white -1px -1px 1px, white 1px -1px 1px, white -1px 1px 1px;"></text></g><g class="sankey-node" transform="translate(855.000,241.966)" style="opacity: 1;"><rect class="node-rect" width="20" height="19.48717948717956" style="stroke-width: 0.5; stroke: rgb(0, 0, 0); stroke-opacity: 1; fill: rgb(169, 169, 169); fill-opacity: 1;"/><text class="node-label" data-notex="1" x="0" y="0" text-anchor="start" transform="translate(23.25,13.24358974358978)" style="cursor: default; font-family: 'Open Sans', verdana, arial, sans-serif; font-size: 10px; fill: rgb(42, 63, 95); fill-opacity: 1; white-space: pre; text-shadow: white 1px 1px 1px, white -1px -1px 1px, white 1px -1px 1px, white -1px 1px 1px;"></text></g><g class="sankey-node" transform="translate(855.000,353.205)" style="opacity: 1;"><rect class="node-rect" width="20" height="31.66666666666663" style="stroke-width: 0.5; stroke: rgb(0, 0, 0); stroke-opacity: 1; fill: rgb(189, 183, 107); fill-opacity: 1;"/><text class="node-label" data-notex="1" x="0" y="0" text-anchor="start" transform="translate(23.25,19.333333333333314)" style="cursor: default; font-family: 'Open Sans', verdana, arial, sans-serif; font-size: 10px; fill: rgb(42, 63, 95); fill-opacity: 1; white-space: pre; text-shadow: white 1px 1px 1px, white -1px -1px 1px, white 1px -1px 1px, white -1px 1px 1px;"></text></g><g class="sankey-node" transform="translate(855.000,742.949)" style="opacity: 1;"><rect class="node-rect" width="20" height="17.051282051281987" style="stroke-width: 0.5; stroke: rgb(0, 0, 0); stroke-opacity: 1; fill: rgb(139, 0, 139); fill-opacity: 1;"/><text class="node-label" data-notex="1" x="0" y="0" text-anchor="start" transform="translate(23.25,12.025641025640994)" style="cursor: default; font-family: 'Open Sans', verdana, arial, sans-serif; font-size: 10px; fill: rgb(42, 63, 95); fill-opacity: 1; white-space: pre; text-shadow: white 1px 1px 1px, white -1px -1px 1px, white 1px -1px 1px, white -1px 1px 1px;"></text></g><g class="sankey-node" transform="translate(1140.000,199.241)" style="opacity: 1;"><rect class="node-rect" width="20" height="26.794871794871796" style="stroke-width: 0.5; stroke: rgb(0, 0, 0); stroke-opacity: 1; fill: rgb(85, 107, 47); fill-opacity: 1;"/><text class="node-label" data-notex="1" x="0" y="0" text-anchor="end" transform="translate(-3.25,16.897435897435898)" style="cursor: default; font-family: 'Open Sans', verdana, arial, sans-serif; font-size: 10px; fill: rgb(42, 63, 95); fill-opacity: 1; white-space: pre; text-shadow: white 1px 1px 1px, white -1px -1px 1px, white 1px -1px 1px, white -1px 1px 1px;"></text></g><g class="sankey-node" transform="translate(1140.000,269.000)" style="opacity: 1;"><rect class="node-rect" width="20" height="99.87179487179486" style="stroke-width: 0.5; stroke: rgb(0, 0, 0); stroke-opacity: 1; fill: rgb(0, 191, 255); fill-opacity: 1;"/><text class="node-label" data-notex="1" x="0" y="0" text-anchor="end" transform="translate(-3.25,53.43589743589743)" style="cursor: default; font-family: 'Open Sans', verdana, arial, sans-serif; font-size: 10px; fill: rgb(42, 63, 95); fill-opacity: 1; white-space: pre; text-shadow: white 1px 1px 1px, white -1px -1px 1px, white 1px -1px 1px, white -1px 1px 1px;"></text></g><g class="sankey-node" transform="translate(1140.000,411.094)" style="opacity: 1;"><rect class="node-rect" width="20" height="112.05128205128221" style="stroke-width: 0.5; stroke: rgb(0, 0, 0); stroke-opacity: 1; fill: rgb(153, 50, 204); fill-opacity: 1;"/><text class="node-label" data-notex="1" x="0" y="0" text-anchor="end" transform="translate(-3.25,59.52564102564111)" style="cursor: default; font-family: 'Open Sans', verdana, arial, sans-serif; font-size: 10px; fill: rgb(42, 63, 95); fill-opacity: 1; white-space: pre; text-shadow: white 1px 1px 1px, white -1px -1px 1px, white 1px -1px 1px, white -1px 1px 1px;"></text></g><g class="sankey-node" transform="translate(1140.000,565.367)" style="opacity: 1;"><rect class="node-rect" width="20" height="14.615384615384528" style="stroke-width: 0.5; stroke: rgb(0, 0, 0); stroke-opacity: 1; fill: rgb(139, 0, 0); fill-opacity: 1;"/><text class="node-label" data-notex="1" x="0" y="0" text-anchor="end" transform="translate(-3.25,10.807692307692264)" style="cursor: default; font-family: 'Open Sans', verdana, arial, sans-serif; font-size: 10px; fill: rgb(42, 63, 95); fill-opacity: 1; white-space: pre; text-shadow: white 1px 1px 1px, white -1px -1px 1px, white 1px -1px 1px, white -1px 1px 1px;"></text></g></g></g><defs id="topdefs-9343b1"><g class="clips"/></defs><g class="layer-above"><g class="imagelayer"/><g class="shapelayer"/></g><g class="infolayer"><g class="g-gtitle"/><g class="first-render"/></g></svg>